<?xml version="1.0" encoding="utf-8" standalone="no"?>
<!DOCTYPE svg PUBLIC "-//W3C//DTD SVG 1.1//EN"
  "http://www.w3.org/Graphics/SVG/1.1/DTD/svg11.dtd">
<svg xmlns:xlink="http://www.w3.org/1999/xlink" width="460.8pt" height="345.6pt" viewBox="0 0 460.8 345.6" xmlns="http://www.w3.org/2000/svg" version="1.1">
 <metadata>
  <rdf:RDF xmlns:dc="http://purl.org/dc/elements/1.1/" xmlns:cc="http://creativecommons.org/ns#" xmlns:rdf="http://www.w3.org/1999/02/22-rdf-syntax-ns#">
   <cc:Work>
    <dc:type rdf:resource="http://purl.org/dc/dcmitype/StillImage"/>
    <dc:date>2024-09-12T08:29:51.438254</dc:date>
    <dc:format>image/svg+xml</dc:format>
    <dc:creator>
     <cc:Agent>
      <dc:title>Matplotlib v3.9.2, https://matplotlib.org/</dc:title>
     </cc:Agent>
    </dc:creator>
   </cc:Work>
  </rdf:RDF>
 </metadata>
 <defs>
  <style type="text/css">*{stroke-linejoin: round; stroke-linecap: butt}</style>
 </defs>
 <g id="figure_1">
  <g id="patch_1">
   <path d="M 0 345.6 
L 460.8 345.6 
L 460.8 0 
L 0 0 
z
" style="fill: #ffffff"/>
  </g>
  <g id="axes_1">
   <g id="patch_2">
    <path d="M 57.6 307.584 
L 414.72 307.584 
L 414.72 41.472 
L 57.6 41.472 
z
" style="fill: #ffffff"/>
   </g>
   <g id="matplotlib.axis_1">
    <g id="xtick_1">
     <g id="line2d_1">
      <defs>
       <path id="m80277c0a66" d="M 0 0 
L 0 3.5 
" style="stroke: #000000; stroke-width: 0.8"/>
      </defs>
      <g>
       <use xlink:href="#m80277c0a66" x="91.855375" y="307.584" style="stroke: #000000; stroke-width: 0.8"/>
      </g>
     </g>
     <g id="text_1">
      <!-- 2004 -->
      <g transform="translate(79.130375 322.182437) scale(0.1 -0.1)">
       <defs>
        <path id="DejaVuSans-32" d="M 1228 531 
L 3431 531 
L 3431 0 
L 469 0 
L 469 531 
Q 828 903 1448 1529 
Q 2069 2156 2228 2338 
Q 2531 2678 2651 2914 
Q 2772 3150 2772 3378 
Q 2772 3750 2511 3984 
Q 2250 4219 1831 4219 
Q 1534 4219 1204 4116 
Q 875 4013 500 3803 
L 500 4441 
Q 881 4594 1212 4672 
Q 1544 4750 1819 4750 
Q 2544 4750 2975 4387 
Q 3406 4025 3406 3419 
Q 3406 3131 3298 2873 
Q 3191 2616 2906 2266 
Q 2828 2175 2409 1742 
Q 1991 1309 1228 531 
z
" transform="scale(0.015625)"/>
        <path id="DejaVuSans-30" d="M 2034 4250 
Q 1547 4250 1301 3770 
Q 1056 3291 1056 2328 
Q 1056 1369 1301 889 
Q 1547 409 2034 409 
Q 2525 409 2770 889 
Q 3016 1369 3016 2328 
Q 3016 3291 2770 3770 
Q 2525 4250 2034 4250 
z
M 2034 4750 
Q 2819 4750 3233 4129 
Q 3647 3509 3647 2328 
Q 3647 1150 3233 529 
Q 2819 -91 2034 -91 
Q 1250 -91 836 529 
Q 422 1150 422 2328 
Q 422 3509 836 4129 
Q 1250 4750 2034 4750 
z
" transform="scale(0.015625)"/>
        <path id="DejaVuSans-34" d="M 2419 4116 
L 825 1625 
L 2419 1625 
L 2419 4116 
z
M 2253 4666 
L 3047 4666 
L 3047 1625 
L 3713 1625 
L 3713 1100 
L 3047 1100 
L 3047 0 
L 2419 0 
L 2419 1100 
L 313 1100 
L 313 1709 
L 2253 4666 
z
" transform="scale(0.015625)"/>
       </defs>
       <use xlink:href="#DejaVuSans-32"/>
       <use xlink:href="#DejaVuSans-30" x="63.623047"/>
       <use xlink:href="#DejaVuSans-30" x="127.246094"/>
       <use xlink:href="#DejaVuSans-34" x="190.869141"/>
      </g>
     </g>
    </g>
    <g id="xtick_2">
     <g id="line2d_2">
      <g>
       <use xlink:href="#m80277c0a66" x="127.950048" y="307.584" style="stroke: #000000; stroke-width: 0.8"/>
      </g>
     </g>
     <g id="text_2">
      <!-- 2006 -->
      <g transform="translate(115.225048 322.182437) scale(0.1 -0.1)">
       <defs>
        <path id="DejaVuSans-36" d="M 2113 2584 
Q 1688 2584 1439 2293 
Q 1191 2003 1191 1497 
Q 1191 994 1439 701 
Q 1688 409 2113 409 
Q 2538 409 2786 701 
Q 3034 994 3034 1497 
Q 3034 2003 2786 2293 
Q 2538 2584 2113 2584 
z
M 3366 4563 
L 3366 3988 
Q 3128 4100 2886 4159 
Q 2644 4219 2406 4219 
Q 1781 4219 1451 3797 
Q 1122 3375 1075 2522 
Q 1259 2794 1537 2939 
Q 1816 3084 2150 3084 
Q 2853 3084 3261 2657 
Q 3669 2231 3669 1497 
Q 3669 778 3244 343 
Q 2819 -91 2113 -91 
Q 1303 -91 875 529 
Q 447 1150 447 2328 
Q 447 3434 972 4092 
Q 1497 4750 2381 4750 
Q 2619 4750 2861 4703 
Q 3103 4656 3366 4563 
z
" transform="scale(0.015625)"/>
       </defs>
       <use xlink:href="#DejaVuSans-32"/>
       <use xlink:href="#DejaVuSans-30" x="63.623047"/>
       <use xlink:href="#DejaVuSans-30" x="127.246094"/>
       <use xlink:href="#DejaVuSans-36" x="190.869141"/>
      </g>
     </g>
    </g>
    <g id="xtick_3">
     <g id="line2d_3">
      <g>
       <use xlink:href="#m80277c0a66" x="163.995343" y="307.584" style="stroke: #000000; stroke-width: 0.8"/>
      </g>
     </g>
     <g id="text_3">
      <!-- 2008 -->
      <g transform="translate(151.270343 322.182437) scale(0.1 -0.1)">
       <defs>
        <path id="DejaVuSans-38" d="M 2034 2216 
Q 1584 2216 1326 1975 
Q 1069 1734 1069 1313 
Q 1069 891 1326 650 
Q 1584 409 2034 409 
Q 2484 409 2743 651 
Q 3003 894 3003 1313 
Q 3003 1734 2745 1975 
Q 2488 2216 2034 2216 
z
M 1403 2484 
Q 997 2584 770 2862 
Q 544 3141 544 3541 
Q 544 4100 942 4425 
Q 1341 4750 2034 4750 
Q 2731 4750 3128 4425 
Q 3525 4100 3525 3541 
Q 3525 3141 3298 2862 
Q 3072 2584 2669 2484 
Q 3125 2378 3379 2068 
Q 3634 1759 3634 1313 
Q 3634 634 3220 271 
Q 2806 -91 2034 -91 
Q 1263 -91 848 271 
Q 434 634 434 1313 
Q 434 1759 690 2068 
Q 947 2378 1403 2484 
z
M 1172 3481 
Q 1172 3119 1398 2916 
Q 1625 2713 2034 2713 
Q 2441 2713 2670 2916 
Q 2900 3119 2900 3481 
Q 2900 3844 2670 4047 
Q 2441 4250 2034 4250 
Q 1625 4250 1398 4047 
Q 1172 3844 1172 3481 
z
" transform="scale(0.015625)"/>
       </defs>
       <use xlink:href="#DejaVuSans-32"/>
       <use xlink:href="#DejaVuSans-30" x="63.623047"/>
       <use xlink:href="#DejaVuSans-30" x="127.246094"/>
       <use xlink:href="#DejaVuSans-38" x="190.869141"/>
      </g>
     </g>
    </g>
    <g id="xtick_4">
     <g id="line2d_4">
      <g>
       <use xlink:href="#m80277c0a66" x="200.090016" y="307.584" style="stroke: #000000; stroke-width: 0.8"/>
      </g>
     </g>
     <g id="text_4">
      <!-- 2010 -->
      <g transform="translate(187.365016 322.182437) scale(0.1 -0.1)">
       <defs>
        <path id="DejaVuSans-31" d="M 794 531 
L 1825 531 
L 1825 4091 
L 703 3866 
L 703 4441 
L 1819 4666 
L 2450 4666 
L 2450 531 
L 3481 531 
L 3481 0 
L 794 0 
L 794 531 
z
" transform="scale(0.015625)"/>
       </defs>
       <use xlink:href="#DejaVuSans-32"/>
       <use xlink:href="#DejaVuSans-30" x="63.623047"/>
       <use xlink:href="#DejaVuSans-31" x="127.246094"/>
       <use xlink:href="#DejaVuSans-30" x="190.869141"/>
      </g>
     </g>
    </g>
    <g id="xtick_5">
     <g id="line2d_5">
      <g>
       <use xlink:href="#m80277c0a66" x="236.135311" y="307.584" style="stroke: #000000; stroke-width: 0.8"/>
      </g>
     </g>
     <g id="text_5">
      <!-- 2012 -->
      <g transform="translate(223.410311 322.182437) scale(0.1 -0.1)">
       <use xlink:href="#DejaVuSans-32"/>
       <use xlink:href="#DejaVuSans-30" x="63.623047"/>
       <use xlink:href="#DejaVuSans-31" x="127.246094"/>
       <use xlink:href="#DejaVuSans-32" x="190.869141"/>
      </g>
     </g>
    </g>
    <g id="xtick_6">
     <g id="line2d_6">
      <g>
       <use xlink:href="#m80277c0a66" x="272.229984" y="307.584" style="stroke: #000000; stroke-width: 0.8"/>
      </g>
     </g>
     <g id="text_6">
      <!-- 2014 -->
      <g transform="translate(259.504984 322.182437) scale(0.1 -0.1)">
       <use xlink:href="#DejaVuSans-32"/>
       <use xlink:href="#DejaVuSans-30" x="63.623047"/>
       <use xlink:href="#DejaVuSans-31" x="127.246094"/>
       <use xlink:href="#DejaVuSans-34" x="190.869141"/>
      </g>
     </g>
    </g>
    <g id="xtick_7">
     <g id="line2d_7">
      <g>
       <use xlink:href="#m80277c0a66" x="308.27528" y="307.584" style="stroke: #000000; stroke-width: 0.8"/>
      </g>
     </g>
     <g id="text_7">
      <!-- 2016 -->
      <g transform="translate(295.55028 322.182437) scale(0.1 -0.1)">
       <use xlink:href="#DejaVuSans-32"/>
       <use xlink:href="#DejaVuSans-30" x="63.623047"/>
       <use xlink:href="#DejaVuSans-31" x="127.246094"/>
       <use xlink:href="#DejaVuSans-36" x="190.869141"/>
      </g>
     </g>
    </g>
    <g id="xtick_8">
     <g id="line2d_8">
      <g>
       <use xlink:href="#m80277c0a66" x="344.369952" y="307.584" style="stroke: #000000; stroke-width: 0.8"/>
      </g>
     </g>
     <g id="text_8">
      <!-- 2018 -->
      <g transform="translate(331.644952 322.182437) scale(0.1 -0.1)">
       <use xlink:href="#DejaVuSans-32"/>
       <use xlink:href="#DejaVuSans-30" x="63.623047"/>
       <use xlink:href="#DejaVuSans-31" x="127.246094"/>
       <use xlink:href="#DejaVuSans-38" x="190.869141"/>
      </g>
     </g>
    </g>
    <g id="xtick_9">
     <g id="line2d_9">
      <g>
       <use xlink:href="#m80277c0a66" x="380.415248" y="307.584" style="stroke: #000000; stroke-width: 0.8"/>
      </g>
     </g>
     <g id="text_9">
      <!-- 2020 -->
      <g transform="translate(367.690248 322.182437) scale(0.1 -0.1)">
       <use xlink:href="#DejaVuSans-32"/>
       <use xlink:href="#DejaVuSans-30" x="63.623047"/>
       <use xlink:href="#DejaVuSans-32" x="127.246094"/>
       <use xlink:href="#DejaVuSans-30" x="190.869141"/>
      </g>
     </g>
    </g>
    <g id="text_10">
     <!-- Ano -->
     <g transform="translate(226.511562 335.860562) scale(0.1 -0.1)">
      <defs>
       <path id="DejaVuSans-41" d="M 2188 4044 
L 1331 1722 
L 3047 1722 
L 2188 4044 
z
M 1831 4666 
L 2547 4666 
L 4325 0 
L 3669 0 
L 3244 1197 
L 1141 1197 
L 716 0 
L 50 0 
L 1831 4666 
z
" transform="scale(0.015625)"/>
       <path id="DejaVuSans-6e" d="M 3513 2113 
L 3513 0 
L 2938 0 
L 2938 2094 
Q 2938 2591 2744 2837 
Q 2550 3084 2163 3084 
Q 1697 3084 1428 2787 
Q 1159 2491 1159 1978 
L 1159 0 
L 581 0 
L 581 3500 
L 1159 3500 
L 1159 2956 
Q 1366 3272 1645 3428 
Q 1925 3584 2291 3584 
Q 2894 3584 3203 3211 
Q 3513 2838 3513 2113 
z
" transform="scale(0.015625)"/>
       <path id="DejaVuSans-6f" d="M 1959 3097 
Q 1497 3097 1228 2736 
Q 959 2375 959 1747 
Q 959 1119 1226 758 
Q 1494 397 1959 397 
Q 2419 397 2687 759 
Q 2956 1122 2956 1747 
Q 2956 2369 2687 2733 
Q 2419 3097 1959 3097 
z
M 1959 3584 
Q 2709 3584 3137 3096 
Q 3566 2609 3566 1747 
Q 3566 888 3137 398 
Q 2709 -91 1959 -91 
Q 1206 -91 779 398 
Q 353 888 353 1747 
Q 353 2609 779 3096 
Q 1206 3584 1959 3584 
z
" transform="scale(0.015625)"/>
      </defs>
      <use xlink:href="#DejaVuSans-41"/>
      <use xlink:href="#DejaVuSans-6e" x="68.408203"/>
      <use xlink:href="#DejaVuSans-6f" x="131.787109"/>
     </g>
    </g>
   </g>
   <g id="matplotlib.axis_2">
    <g id="ytick_1">
     <g id="line2d_10">
      <defs>
       <path id="md21b7d28ee" d="M 0 0 
L -3.5 0 
" style="stroke: #000000; stroke-width: 0.8"/>
      </defs>
      <g>
       <use xlink:href="#md21b7d28ee" x="57.6" y="307.584" style="stroke: #000000; stroke-width: 0.8"/>
      </g>
     </g>
     <g id="text_11">
      <!-- −0.15 -->
      <g transform="translate(19.954687 311.383219) scale(0.1 -0.1)">
       <defs>
        <path id="DejaVuSans-2212" d="M 678 2272 
L 4684 2272 
L 4684 1741 
L 678 1741 
L 678 2272 
z
" transform="scale(0.015625)"/>
        <path id="DejaVuSans-2e" d="M 684 794 
L 1344 794 
L 1344 0 
L 684 0 
L 684 794 
z
" transform="scale(0.015625)"/>
        <path id="DejaVuSans-35" d="M 691 4666 
L 3169 4666 
L 3169 4134 
L 1269 4134 
L 1269 2991 
Q 1406 3038 1543 3061 
Q 1681 3084 1819 3084 
Q 2600 3084 3056 2656 
Q 3513 2228 3513 1497 
Q 3513 744 3044 326 
Q 2575 -91 1722 -91 
Q 1428 -91 1123 -41 
Q 819 9 494 109 
L 494 744 
Q 775 591 1075 516 
Q 1375 441 1709 441 
Q 2250 441 2565 725 
Q 2881 1009 2881 1497 
Q 2881 1984 2565 2268 
Q 2250 2553 1709 2553 
Q 1456 2553 1204 2497 
Q 953 2441 691 2322 
L 691 4666 
z
" transform="scale(0.015625)"/>
       </defs>
       <use xlink:href="#DejaVuSans-2212"/>
       <use xlink:href="#DejaVuSans-30" x="83.789062"/>
       <use xlink:href="#DejaVuSans-2e" x="147.412109"/>
       <use xlink:href="#DejaVuSans-31" x="179.199219"/>
       <use xlink:href="#DejaVuSans-35" x="242.822266"/>
      </g>
     </g>
    </g>
    <g id="ytick_2">
     <g id="line2d_11">
      <g>
       <use xlink:href="#md21b7d28ee" x="57.6" y="269.568" style="stroke: #000000; stroke-width: 0.8"/>
      </g>
     </g>
     <g id="text_12">
      <!-- −0.10 -->
      <g transform="translate(19.954687 273.367219) scale(0.1 -0.1)">
       <use xlink:href="#DejaVuSans-2212"/>
       <use xlink:href="#DejaVuSans-30" x="83.789062"/>
       <use xlink:href="#DejaVuSans-2e" x="147.412109"/>
       <use xlink:href="#DejaVuSans-31" x="179.199219"/>
       <use xlink:href="#DejaVuSans-30" x="242.822266"/>
      </g>
     </g>
    </g>
    <g id="ytick_3">
     <g id="line2d_12">
      <g>
       <use xlink:href="#md21b7d28ee" x="57.6" y="231.552" style="stroke: #000000; stroke-width: 0.8"/>
      </g>
     </g>
     <g id="text_13">
      <!-- −0.05 -->
      <g transform="translate(19.954687 235.351219) scale(0.1 -0.1)">
       <use xlink:href="#DejaVuSans-2212"/>
       <use xlink:href="#DejaVuSans-30" x="83.789062"/>
       <use xlink:href="#DejaVuSans-2e" x="147.412109"/>
       <use xlink:href="#DejaVuSans-30" x="179.199219"/>
       <use xlink:href="#DejaVuSans-35" x="242.822266"/>
      </g>
     </g>
    </g>
    <g id="ytick_4">
     <g id="line2d_13">
      <g>
       <use xlink:href="#md21b7d28ee" x="57.6" y="193.536" style="stroke: #000000; stroke-width: 0.8"/>
      </g>
     </g>
     <g id="text_14">
      <!-- 0.00 -->
      <g transform="translate(28.334375 197.335219) scale(0.1 -0.1)">
       <use xlink:href="#DejaVuSans-30"/>
       <use xlink:href="#DejaVuSans-2e" x="63.623047"/>
       <use xlink:href="#DejaVuSans-30" x="95.410156"/>
       <use xlink:href="#DejaVuSans-30" x="159.033203"/>
      </g>
     </g>
    </g>
    <g id="ytick_5">
     <g id="line2d_14">
      <g>
       <use xlink:href="#md21b7d28ee" x="57.6" y="155.52" style="stroke: #000000; stroke-width: 0.8"/>
      </g>
     </g>
     <g id="text_15">
      <!-- 0.05 -->
      <g transform="translate(28.334375 159.319219) scale(0.1 -0.1)">
       <use xlink:href="#DejaVuSans-30"/>
       <use xlink:href="#DejaVuSans-2e" x="63.623047"/>
       <use xlink:href="#DejaVuSans-30" x="95.410156"/>
       <use xlink:href="#DejaVuSans-35" x="159.033203"/>
      </g>
     </g>
    </g>
    <g id="ytick_6">
     <g id="line2d_15">
      <g>
       <use xlink:href="#md21b7d28ee" x="57.6" y="117.504" style="stroke: #000000; stroke-width: 0.8"/>
      </g>
     </g>
     <g id="text_16">
      <!-- 0.10 -->
      <g transform="translate(28.334375 121.303219) scale(0.1 -0.1)">
       <use xlink:href="#DejaVuSans-30"/>
       <use xlink:href="#DejaVuSans-2e" x="63.623047"/>
       <use xlink:href="#DejaVuSans-31" x="95.410156"/>
       <use xlink:href="#DejaVuSans-30" x="159.033203"/>
      </g>
     </g>
    </g>
    <g id="ytick_7">
     <g id="line2d_16">
      <g>
       <use xlink:href="#md21b7d28ee" x="57.6" y="79.488" style="stroke: #000000; stroke-width: 0.8"/>
      </g>
     </g>
     <g id="text_17">
      <!-- 0.15 -->
      <g transform="translate(28.334375 83.287219) scale(0.1 -0.1)">
       <use xlink:href="#DejaVuSans-30"/>
       <use xlink:href="#DejaVuSans-2e" x="63.623047"/>
       <use xlink:href="#DejaVuSans-31" x="95.410156"/>
       <use xlink:href="#DejaVuSans-35" x="159.033203"/>
      </g>
     </g>
    </g>
    <g id="ytick_8">
     <g id="line2d_17">
      <g>
       <use xlink:href="#md21b7d28ee" x="57.6" y="41.472" style="stroke: #000000; stroke-width: 0.8"/>
      </g>
     </g>
     <g id="text_18">
      <!-- 0.20 -->
      <g transform="translate(28.334375 45.271219) scale(0.1 -0.1)">
       <use xlink:href="#DejaVuSans-30"/>
       <use xlink:href="#DejaVuSans-2e" x="63.623047"/>
       <use xlink:href="#DejaVuSans-32" x="95.410156"/>
       <use xlink:href="#DejaVuSans-30" x="159.033203"/>
      </g>
     </g>
    </g>
    <g id="text_19">
     <!-- Crescimento real -->
     <g transform="translate(13.875 216.978781) rotate(-90) scale(0.1 -0.1)">
      <defs>
       <path id="DejaVuSans-43" d="M 4122 4306 
L 4122 3641 
Q 3803 3938 3442 4084 
Q 3081 4231 2675 4231 
Q 1875 4231 1450 3742 
Q 1025 3253 1025 2328 
Q 1025 1406 1450 917 
Q 1875 428 2675 428 
Q 3081 428 3442 575 
Q 3803 722 4122 1019 
L 4122 359 
Q 3791 134 3420 21 
Q 3050 -91 2638 -91 
Q 1578 -91 968 557 
Q 359 1206 359 2328 
Q 359 3453 968 4101 
Q 1578 4750 2638 4750 
Q 3056 4750 3426 4639 
Q 3797 4528 4122 4306 
z
" transform="scale(0.015625)"/>
       <path id="DejaVuSans-72" d="M 2631 2963 
Q 2534 3019 2420 3045 
Q 2306 3072 2169 3072 
Q 1681 3072 1420 2755 
Q 1159 2438 1159 1844 
L 1159 0 
L 581 0 
L 581 3500 
L 1159 3500 
L 1159 2956 
Q 1341 3275 1631 3429 
Q 1922 3584 2338 3584 
Q 2397 3584 2469 3576 
Q 2541 3569 2628 3553 
L 2631 2963 
z
" transform="scale(0.015625)"/>
       <path id="DejaVuSans-65" d="M 3597 1894 
L 3597 1613 
L 953 1613 
Q 991 1019 1311 708 
Q 1631 397 2203 397 
Q 2534 397 2845 478 
Q 3156 559 3463 722 
L 3463 178 
Q 3153 47 2828 -22 
Q 2503 -91 2169 -91 
Q 1331 -91 842 396 
Q 353 884 353 1716 
Q 353 2575 817 3079 
Q 1281 3584 2069 3584 
Q 2775 3584 3186 3129 
Q 3597 2675 3597 1894 
z
M 3022 2063 
Q 3016 2534 2758 2815 
Q 2500 3097 2075 3097 
Q 1594 3097 1305 2825 
Q 1016 2553 972 2059 
L 3022 2063 
z
" transform="scale(0.015625)"/>
       <path id="DejaVuSans-73" d="M 2834 3397 
L 2834 2853 
Q 2591 2978 2328 3040 
Q 2066 3103 1784 3103 
Q 1356 3103 1142 2972 
Q 928 2841 928 2578 
Q 928 2378 1081 2264 
Q 1234 2150 1697 2047 
L 1894 2003 
Q 2506 1872 2764 1633 
Q 3022 1394 3022 966 
Q 3022 478 2636 193 
Q 2250 -91 1575 -91 
Q 1294 -91 989 -36 
Q 684 19 347 128 
L 347 722 
Q 666 556 975 473 
Q 1284 391 1588 391 
Q 1994 391 2212 530 
Q 2431 669 2431 922 
Q 2431 1156 2273 1281 
Q 2116 1406 1581 1522 
L 1381 1569 
Q 847 1681 609 1914 
Q 372 2147 372 2553 
Q 372 3047 722 3315 
Q 1072 3584 1716 3584 
Q 2034 3584 2315 3537 
Q 2597 3491 2834 3397 
z
" transform="scale(0.015625)"/>
       <path id="DejaVuSans-63" d="M 3122 3366 
L 3122 2828 
Q 2878 2963 2633 3030 
Q 2388 3097 2138 3097 
Q 1578 3097 1268 2742 
Q 959 2388 959 1747 
Q 959 1106 1268 751 
Q 1578 397 2138 397 
Q 2388 397 2633 464 
Q 2878 531 3122 666 
L 3122 134 
Q 2881 22 2623 -34 
Q 2366 -91 2075 -91 
Q 1284 -91 818 406 
Q 353 903 353 1747 
Q 353 2603 823 3093 
Q 1294 3584 2113 3584 
Q 2378 3584 2631 3529 
Q 2884 3475 3122 3366 
z
" transform="scale(0.015625)"/>
       <path id="DejaVuSans-69" d="M 603 3500 
L 1178 3500 
L 1178 0 
L 603 0 
L 603 3500 
z
M 603 4863 
L 1178 4863 
L 1178 4134 
L 603 4134 
L 603 4863 
z
" transform="scale(0.015625)"/>
       <path id="DejaVuSans-6d" d="M 3328 2828 
Q 3544 3216 3844 3400 
Q 4144 3584 4550 3584 
Q 5097 3584 5394 3201 
Q 5691 2819 5691 2113 
L 5691 0 
L 5113 0 
L 5113 2094 
Q 5113 2597 4934 2840 
Q 4756 3084 4391 3084 
Q 3944 3084 3684 2787 
Q 3425 2491 3425 1978 
L 3425 0 
L 2847 0 
L 2847 2094 
Q 2847 2600 2669 2842 
Q 2491 3084 2119 3084 
Q 1678 3084 1418 2786 
Q 1159 2488 1159 1978 
L 1159 0 
L 581 0 
L 581 3500 
L 1159 3500 
L 1159 2956 
Q 1356 3278 1631 3431 
Q 1906 3584 2284 3584 
Q 2666 3584 2933 3390 
Q 3200 3197 3328 2828 
z
" transform="scale(0.015625)"/>
       <path id="DejaVuSans-74" d="M 1172 4494 
L 1172 3500 
L 2356 3500 
L 2356 3053 
L 1172 3053 
L 1172 1153 
Q 1172 725 1289 603 
Q 1406 481 1766 481 
L 2356 481 
L 2356 0 
L 1766 0 
Q 1100 0 847 248 
Q 594 497 594 1153 
L 594 3053 
L 172 3053 
L 172 3500 
L 594 3500 
L 594 4494 
L 1172 4494 
z
" transform="scale(0.015625)"/>
       <path id="DejaVuSans-20" transform="scale(0.015625)"/>
       <path id="DejaVuSans-61" d="M 2194 1759 
Q 1497 1759 1228 1600 
Q 959 1441 959 1056 
Q 959 750 1161 570 
Q 1363 391 1709 391 
Q 2188 391 2477 730 
Q 2766 1069 2766 1631 
L 2766 1759 
L 2194 1759 
z
M 3341 1997 
L 3341 0 
L 2766 0 
L 2766 531 
Q 2569 213 2275 61 
Q 1981 -91 1556 -91 
Q 1019 -91 701 211 
Q 384 513 384 1019 
Q 384 1609 779 1909 
Q 1175 2209 1959 2209 
L 2766 2209 
L 2766 2266 
Q 2766 2663 2505 2880 
Q 2244 3097 1772 3097 
Q 1472 3097 1187 3025 
Q 903 2953 641 2809 
L 641 3341 
Q 956 3463 1253 3523 
Q 1550 3584 1831 3584 
Q 2591 3584 2966 3190 
Q 3341 2797 3341 1997 
z
" transform="scale(0.015625)"/>
       <path id="DejaVuSans-6c" d="M 603 4863 
L 1178 4863 
L 1178 0 
L 603 0 
L 603 4863 
z
" transform="scale(0.015625)"/>
      </defs>
      <use xlink:href="#DejaVuSans-43"/>
      <use xlink:href="#DejaVuSans-72" x="69.824219"/>
      <use xlink:href="#DejaVuSans-65" x="108.6875"/>
      <use xlink:href="#DejaVuSans-73" x="170.210938"/>
      <use xlink:href="#DejaVuSans-63" x="222.310547"/>
      <use xlink:href="#DejaVuSans-69" x="277.291016"/>
      <use xlink:href="#DejaVuSans-6d" x="305.074219"/>
      <use xlink:href="#DejaVuSans-65" x="402.486328"/>
      <use xlink:href="#DejaVuSans-6e" x="464.009766"/>
      <use xlink:href="#DejaVuSans-74" x="527.388672"/>
      <use xlink:href="#DejaVuSans-6f" x="566.597656"/>
      <use xlink:href="#DejaVuSans-20" x="627.779297"/>
      <use xlink:href="#DejaVuSans-72" x="659.566406"/>
      <use xlink:href="#DejaVuSans-65" x="698.429688"/>
      <use xlink:href="#DejaVuSans-61" x="759.953125"/>
      <use xlink:href="#DejaVuSans-6c" x="821.232422"/>
     </g>
    </g>
   </g>
   <g id="line2d_18">
    <path d="M 73.832727 185.348739 
L 91.855375 253.529477 
L 109.9274 159.983297 
L 127.950048 135.211849 
L 145.972695 155.668763 
L 161.814054 -1 
M 165.873919 -1 
L 182.067368 184.957594 
L 200.090016 177.866565 
L 218.112664 151.478306 
L 236.135311 197.015761 
L 254.207336 188.855104 
L 272.229984 194.852414 
L 290.252632 291.274881 
L 308.27528 287.785844 
L 326.347305 271.088166 
L 344.369952 213.014948 
L 362.3926 237.81163 
L 380.415248 172.808436 
L 398.487273 78.141929 
" clip-path="url(#p70f2ff71c2)" style="fill: none; stroke: #dcdcdc; stroke-width: 1.5; stroke-linecap: square"/>
   </g>
   <g id="line2d_19">
    <path d="M 73.832727 304.266501 
L 86.138497 -1 
M 97.299384 -1 
L 109.9274 327.961843 
L 127.950048 119.287092 
L 138.971522 -1 
M 149.098543 -1 
L 163.318472 346.6 
M 164.99551 346.6 
L 182.067368 64.178867 
L 197.917005 -1 
M 200.863321 -1 
L 218.112664 198.329339 
L 236.135311 147.866184 
L 254.207336 122.774943 
L 272.229984 182.766361 
L 290.252632 286.506205 
L 308.27528 316.871188 
L 326.347305 268.020315 
L 344.369952 250.708581 
L 362.3926 198.164188 
L 380.415248 188.2173 
L 398.487273 88.752535 
" clip-path="url(#p70f2ff71c2)" style="fill: none; stroke: #dcdcdc; stroke-width: 1.5; stroke-linecap: square"/>
   </g>
   <g id="line2d_20">
    <path d="M 73.832727 306.80233 
L 91.855375 117.939856 
L 109.9274 199.199446 
L 127.950048 93.007438 
L 145.972695 171.817869 
L 163.995343 143.977662 
L 182.067368 113.314447 
L 200.090016 132.029671 
L 218.112664 105.733489 
L 236.135311 166.016305 
L 254.207336 186.646048 
L 272.229984 167.092852 
L 290.252632 208.720525 
L 308.27528 291.917657 
L 326.347305 280.44789 
L 344.369952 207.031173 
L 362.3926 202.331553 
L 380.415248 224.512897 
L 398.487273 100.059236 
" clip-path="url(#p70f2ff71c2)" style="fill: none; stroke: #dcdcdc; stroke-width: 1.5; stroke-linecap: square"/>
   </g>
   <g id="line2d_21">
    <path d="M 73.832727 213.595382 
L 89.917227 -1 
M 93.580737 -1 
L 109.9274 243.990258 
L 127.950048 225.736953 
L 145.972695 88.168304 
L 163.995343 171.742463 
L 182.067368 114.145545 
L 200.090016 167.193973 
L 218.112664 108.582873 
L 236.135311 166.901148 
L 254.207336 160.603861 
L 272.229984 218.061183 
L 290.252632 249.723225 
L 308.27528 303.329032 
L 326.347305 261.84504 
L 344.369952 212.882319 
L 362.3926 217.054278 
L 380.415248 197.907466 
L 398.487273 119.38654 
" clip-path="url(#p70f2ff71c2)" style="fill: none; stroke: #dcdcdc; stroke-width: 1.5; stroke-linecap: square"/>
   </g>
   <g id="line2d_22">
    <path d="M 73.832727 266.663238 
L 91.855375 57.41081 
L 105.559148 346.6 
M 112.834353 346.6 
L 123.79581 -1 
M 137.537194 -1 
L 145.972695 114.910928 
L 163.995343 99.452995 
L 182.067368 196.326308 
L 200.090016 74.694697 
L 218.112664 81.128094 
L 236.135311 132.819462 
L 254.207336 143.936074 
L 272.229984 174.159013 
L 290.252632 268.543282 
L 308.27528 274.153661 
L 326.347305 278.368396 
L 344.369952 231.838772 
L 362.3926 213.921255 
L 380.415248 214.185373 
L 398.487273 90.230043 
" clip-path="url(#p70f2ff71c2)" style="fill: none; stroke: #dcdcdc; stroke-width: 1.5; stroke-linecap: square"/>
   </g>
   <g id="line2d_23">
    <path d="M 76.404581 346.6 
L 91.255914 -1 
M 93.051894 -1 
L 109.9274 196.884992 
L 127.950048 165.046728 
L 145.972695 117.573686 
L 163.995343 170.259878 
L 182.067368 176.474942 
L 200.090016 30.461836 
L 218.112664 77.100398 
L 236.135311 154.204519 
L 254.207336 175.197586 
L 272.229984 237.531604 
L 290.252632 345.759913 
L 308.27528 293.647106 
L 326.347305 294.076834 
L 344.369952 209.098512 
L 362.3926 191.111128 
L 380.415248 235.216355 
L 398.487273 140.578673 
" clip-path="url(#p70f2ff71c2)" style="fill: none; stroke: #dcdcdc; stroke-width: 1.5; stroke-linecap: square"/>
   </g>
   <g id="line2d_24">
    <path d="M 73.832727 341.039032 
L 88.764629 -1 
M 96.636664 -1 
L 109.9274 195.801274 
L 127.950048 289.391747 
L 145.972695 32.193117 
L 163.995343 48.577355 
L 182.067368 194.751242 
L 200.090016 59.034851 
L 218.112664 9.482083 
L 236.135311 171.005166 
L 254.207336 201.337788 
L 272.229984 192.78106 
L 290.252632 268.045476 
L 308.27528 285.144045 
L 326.347305 275.668531 
L 344.369952 219.998377 
L 362.3926 161.481413 
L 380.415248 205.527406 
L 398.487273 104.124395 
" clip-path="url(#p70f2ff71c2)" style="fill: none; stroke: #dcdcdc; stroke-width: 1.5; stroke-linecap: square"/>
   </g>
   <g id="line2d_25">
    <path d="M 73.832727 294.872915 
L 91.855375 13.015411 
L 109.9274 333.800426 
L 127.950048 48.220599 
L 145.972695 111.554207 
L 163.995343 152.73582 
L 182.067368 179.353547 
L 200.090016 43.081512 
L 218.112664 143.59846 
L 236.135311 155.509069 
L 254.207336 194.576725 
L 272.229984 199.368147 
L 290.252632 256.18671 
L 308.27528 251.872537 
L 326.347305 293.800185 
L 344.369952 216.778348 
L 362.3926 186.36024 
L 380.415248 241.480278 
L 398.487273 146.218903 
" clip-path="url(#p70f2ff71c2)" style="fill: none; stroke: #dcdcdc; stroke-width: 1.5; stroke-linecap: square"/>
   </g>
   <g id="line2d_26">
    <path d="M 73.832727 257.135522 
L 91.855375 77.774378 
L 109.9274 196.746857 
L 127.950048 136.977924 
L 145.972695 168.313519 
L 163.995343 101.833084 
L 182.067368 147.19516 
L 200.090016 95.52219 
L 218.112664 140.639873 
L 236.135311 182.806326 
L 254.207336 158.594838 
L 272.229984 209.860398 
L 290.252632 279.467088 
L 308.27528 279.755359 
L 326.347305 264.504842 
L 344.369952 214.552881 
L 362.3926 165.126643 
L 380.415248 211.066582 
L 398.487273 120.532971 
" clip-path="url(#p70f2ff71c2)" style="fill: none; stroke: #dcdcdc; stroke-width: 1.5; stroke-linecap: square"/>
   </g>
   <g id="line2d_27">
    <path d="M 73.832727 292.371579 
L 82.3076 -1 
M 99.824142 -1 
L 108.20491 346.6 
M 114.22568 346.6 
L 127.950048 118.486862 
L 144.849921 -1 
M 146.915131 -1 
L 163.995343 142.870176 
L 181.705982 -1 
M 182.948364 -1 
L 200.090016 56.119887 
L 218.112664 124.017092 
L 236.135311 207.441579 
L 254.207336 247.581504 
L 272.229984 253.592599 
L 284.8158 346.6 
M 320.787411 346.6 
L 326.347305 317.680078 
L 344.369952 254.407604 
L 362.3926 226.909186 
L 380.415248 225.44913 
L 398.487273 178.463484 
" clip-path="url(#p70f2ff71c2)" style="fill: none; stroke: #dcdcdc; stroke-width: 1.5; stroke-linecap: square"/>
   </g>
   <g id="line2d_28">
    <path d="M 73.832727 216.731185 
L 91.855375 146.895849 
L 109.9274 179.7989 
L 127.950048 187.193176 
L 145.972695 47.157179 
L 163.995343 211.267006 
L 182.067368 124.408478 
L 200.090016 112.774006 
L 218.112664 145.768018 
L 236.135311 164.498718 
L 254.207336 164.200292 
L 272.229984 210.286952 
L 290.252632 276.840663 
L 308.27528 280.95286 
L 326.347305 258.538921 
L 344.369952 183.565347 
L 362.3926 142.809486 
L 380.415248 187.056774 
L 398.487273 80.553817 
" clip-path="url(#p70f2ff71c2)" style="fill: none; stroke: #dcdcdc; stroke-width: 1.5; stroke-linecap: square"/>
   </g>
   <g id="line2d_29">
    <path d="M 73.832727 205.935953 
L 91.855375 136.094162 
L 109.9274 227.502427 
L 127.950048 44.814938 
L 145.972695 265.628079 
L 163.995343 41.536138 
L 182.067368 100.875689 
L 200.090016 144.643745 
L 218.112664 159.035928 
L 236.135311 175.010087 
L 254.207336 197.394924 
L 272.229984 222.115068 
L 290.252632 268.281641 
L 308.27528 267.000336 
L 326.347305 233.6282 
L 344.369952 203.602283 
L 362.3926 143.23421 
L 380.415248 201.940865 
L 398.487273 93.732974 
" clip-path="url(#p70f2ff71c2)" style="fill: none; stroke: #dcdcdc; stroke-width: 1.5; stroke-linecap: square"/>
   </g>
   <g id="line2d_30">
    <path d="M 73.832727 239.097895 
L 91.855375 126.709262 
L 109.9274 233.109946 
L 127.950048 216.447221 
L 145.972695 122.648712 
L 163.995343 161.811826 
L 182.067368 189.688572 
L 200.090016 85.575793 
L 218.112664 138.511639 
L 236.135311 140.426292 
L 254.207336 149.490332 
L 272.229984 211.547113 
L 290.252632 253.94565 
L 308.27528 305.303476 
L 326.347305 306.057428 
L 344.369952 248.321725 
L 362.3926 177.861545 
L 380.415248 261.803389 
L 398.487273 126.758578 
" clip-path="url(#p70f2ff71c2)" style="fill: none; stroke: #dcdcdc; stroke-width: 1.5; stroke-linecap: square"/>
   </g>
   <g id="line2d_31">
    <path d="M 73.832727 288.499022 
L 91.855375 122.668751 
L 109.9274 179.894707 
L 127.950048 216.797617 
L 145.972695 165.739888 
L 163.995343 141.677669 
L 182.067368 126.386638 
L 200.090016 105.87812 
L 218.112664 134.335416 
L 236.135311 186.926542 
L 254.207336 156.507745 
L 272.229984 216.263336 
L 290.252632 246.87095 
L 308.27528 248.090411 
L 326.347305 257.961122 
L 344.369952 222.135401 
L 362.3926 178.27888 
L 380.415248 199.18984 
L 398.487273 94.833734 
" clip-path="url(#p70f2ff71c2)" style="fill: none; stroke: #dcdcdc; stroke-width: 1.5; stroke-linecap: square"/>
   </g>
   <g id="line2d_32">
    <path d="M 73.832727 266.705775 
L 91.855375 188.389405 
L 109.9274 208.744038 
L 127.950048 213.437607 
L 145.972695 42.714758 
L 163.995343 202.536716 
L 182.067368 119.088008 
L 200.090016 84.774071 
L 218.112664 115.370289 
L 236.135311 177.246783 
L 254.207336 165.745517 
L 272.229984 206.161379 
L 290.252632 225.690091 
L 308.27528 250.454475 
L 326.347305 246.251507 
L 344.369952 219.462249 
L 362.3926 165.381572 
L 380.415248 187.360438 
L 398.487273 88.874071 
" clip-path="url(#p70f2ff71c2)" style="fill: none; stroke: #dcdcdc; stroke-width: 1.5; stroke-linecap: square"/>
   </g>
   <g id="line2d_33">
    <path d="M 73.832727 146.715065 
L 91.855375 137.163894 
L 109.9274 291.712381 
L 127.950048 172.976305 
L 145.972695 64.483001 
L 163.995343 254.218493 
L 182.067368 71.110194 
L 200.090016 51.914772 
L 218.112664 117.239435 
L 236.135311 172.211542 
L 254.207336 147.610699 
L 272.229984 185.066488 
L 290.252632 205.857872 
L 308.27528 241.056774 
L 326.347305 229.844903 
L 344.369952 206.523466 
L 362.3926 176.459536 
L 380.415248 213.93847 
L 398.487273 103.144393 
" clip-path="url(#p70f2ff71c2)" style="fill: none; stroke: #dcdcdc; stroke-width: 1.5; stroke-linecap: square"/>
   </g>
   <g id="line2d_34">
    <path d="M 73.832727 232.582111 
L 91.855375 153.225406 
L 109.9274 161.325716 
L 127.950048 200.214873 
L 145.972695 126.35725 
L 163.995343 167.793698 
L 182.067368 191.142947 
L 200.090016 84.511882 
L 218.112664 139.165957 
L 236.135311 170.039049 
L 254.207336 148.097899 
L 272.229984 204.822674 
L 290.252632 246.912001 
L 308.27528 236.836892 
L 326.347305 237.703461 
L 344.369952 212.853205 
L 362.3926 199.98616 
L 380.415248 231.728761 
L 398.487273 120.884162 
" clip-path="url(#p70f2ff71c2)" style="fill: none; stroke: #dcdcdc; stroke-width: 1.5; stroke-linecap: square"/>
   </g>
   <g id="line2d_35">
    <path d="M 73.832727 212.741568 
L 91.855375 84.114706 
L 109.9274 287.281799 
L 127.950048 87.39708 
L 145.972695 179.426159 
L 163.995343 143.978286 
L 182.067368 198.24888 
L 200.090016 64.29854 
L 218.112664 138.688479 
L 236.135311 129.091417 
L 254.207336 159.130938 
L 272.229984 220.158375 
L 290.252632 329.860393 
L 308.27528 186.808127 
L 326.347305 232.032247 
L 344.369952 279.05227 
L 362.3926 194.471251 
L 380.415248 225.437086 
L 398.487273 119.637261 
" clip-path="url(#p70f2ff71c2)" style="fill: none; stroke: #dcdcdc; stroke-width: 1.5; stroke-linecap: square"/>
   </g>
   <g id="line2d_36">
    <path d="M 74.665972 346.6 
L 82.771915 -1 
M 100.34255 -1 
L 107.916375 346.6 
M 113.640427 346.6 
L 127.624254 -1 
M 128.870127 -1 
L 145.972695 149.533159 
L 163.995343 26.236303 
L 172.42132 -1 
M 183.941769 -1 
L 200.090016 267.621222 
L 218.112664 185.977118 
L 236.135311 160.892215 
L 254.207336 168.502336 
L 272.229984 160.276313 
L 290.252632 330.330347 
L 308.27528 282.045548 
L 326.347305 276.00557 
L 344.369952 263.02999 
L 362.3926 251.946289 
L 380.415248 279.312661 
L 398.487273 37.651897 
" clip-path="url(#p70f2ff71c2)" style="fill: none; stroke: #dcdcdc; stroke-width: 1.5; stroke-linecap: square"/>
   </g>
   <g id="line2d_37">
    <path d="M 73.832727 215.225621 
L 91.855375 112.344065 
L 109.9274 291.856492 
L 127.950048 205.237034 
L 145.972695 31.386013 
L 163.995343 122.907758 
L 182.067368 200.624748 
L 200.090016 18.514593 
L 218.112664 136.365298 
L 236.135311 119.120549 
L 254.207336 118.111312 
L 272.229984 180.666472 
L 290.252632 290.484401 
L 308.27528 291.819659 
L 326.347305 289.993333 
L 344.369952 186.985937 
L 362.3926 193.295274 
L 380.415248 199.887216 
L 398.487273 76.10757 
" clip-path="url(#p70f2ff71c2)" style="fill: none; stroke: #dcdcdc; stroke-width: 1.5; stroke-linecap: square"/>
   </g>
   <g id="line2d_38">
    <path d="M 73.832727 237.048695 
L 91.855375 60.566176 
L 109.9274 230.218738 
L 127.950048 137.906037 
L 145.972695 86.467875 
L 163.995343 188.703754 
L 182.067368 135.007167 
L 200.090016 61.339035 
L 218.112664 116.759573 
L 236.135311 183.881692 
L 254.207336 149.068573 
L 272.229984 203.114188 
L 290.252632 294.955681 
L 308.27528 256.955304 
L 326.347305 251.126643 
L 344.369952 205.764771 
L 362.3926 187.959905 
L 380.415248 211.79814 
L 398.487273 80.825465 
" clip-path="url(#p70f2ff71c2)" style="fill: none; stroke: #dcdcdc; stroke-width: 1.5; stroke-linecap: square"/>
   </g>
   <g id="line2d_39">
    <path d="M 73.832727 319.13637 
L 91.855375 87.197704 
L 109.9274 223.631508 
L 127.950048 271.031532 
L 145.972695 92.464537 
L 163.995343 97.548637 
L 182.067368 89.90394 
L 200.090016 87.058657 
L 218.112664 103.437343 
L 236.135311 180.343847 
L 254.207336 182.228116 
L 272.229984 252.032188 
L 290.252632 280.235722 
L 308.27528 249.997592 
L 326.347305 259.340084 
L 344.369952 180.035874 
L 362.3926 160.632852 
L 380.415248 208.164948 
L 398.487273 59.269822 
" clip-path="url(#p70f2ff71c2)" style="fill: none; stroke: #dcdcdc; stroke-width: 1.5; stroke-linecap: square"/>
   </g>
   <g id="line2d_40">
    <path d="M 73.832727 261.533061 
L 91.855375 111.840008 
L 109.9274 209.49979 
L 127.950048 191.534678 
L 145.972695 123.609421 
L 163.995343 156.225087 
L 182.067368 140.152599 
L 200.090016 93.926507 
L 218.112664 130.829726 
L 236.135311 169.327545 
L 254.207336 159.355039 
L 272.229984 209.812819 
L 290.252632 261.999132 
L 308.27528 269.447795 
L 326.347305 263.833004 
L 344.369952 216.283482 
L 362.3926 178.975284 
L 380.415248 209.394156 
L 398.487273 97.610945 
" clip-path="url(#p70f2ff71c2)" style="fill: none; stroke: #dcdcdc; stroke-width: 1.5; stroke-linecap: square"/>
   </g>
   <g id="line2d_41">
    <path d="M 73.832727 196.488227 
L 91.855375 113.863348 
L 109.9274 198.921655 
L 127.950048 183.830098 
L 145.972695 96.928527 
L 163.995343 228.080947 
L 181.33136 -1 
M 183.381343 -1 
L 200.090016 122.673598 
L 218.112664 127.26987 
L 236.135311 136.859354 
L 254.207336 166.042564 
L 272.229984 263.154649 
L 290.252632 269.385404 
L 308.27528 291.203912 
L 326.347305 262.918094 
L 344.369952 178.980929 
L 362.3926 199.955806 
L 380.415248 228.341457 
L 398.487273 70.795589 
" clip-path="url(#p70f2ff71c2)" style="fill: none; stroke: #dcdcdc; stroke-width: 1.5; stroke-linecap: square"/>
   </g>
   <g id="line2d_42">
    <path d="M 73.832727 285.163902 
L 91.855375 138.542525 
L 109.9274 74.646221 
L 116.701421 -1 
M 131.988054 -1 
L 143.162001 346.6 
M 149.934103 346.6 
L 163.995343 36.243413 
L 182.067368 19.584368 
L 200.090016 94.902316 
L 218.112664 213.873101 
L 236.135311 152.262613 
L 254.207336 121.52627 
L 272.229984 257.761092 
L 290.252632 250.45743 
L 308.27528 226.999473 
L 326.347305 231.382853 
L 344.369952 160.113096 
L 362.3926 223.462586 
L 380.415248 166.538626 
L 398.487273 1.996919 
" clip-path="url(#p70f2ff71c2)" style="fill: none; stroke: #dcdcdc; stroke-width: 1.5; stroke-linecap: square"/>
   </g>
   <g id="line2d_43">
    <path d="M 73.832727 142.569758 
L 86.935589 -1 
M 96.615708 -1 
L 109.9274 149.743658 
L 127.950048 258.669152 
L 145.972695 98.98412 
L 163.995343 68.67711 
L 182.067368 261.629572 
L 200.090016 50.046002 
L 218.112664 139.948062 
L 236.135311 114.552485 
L 254.207336 96.556264 
L 272.229984 166.630755 
L 290.252632 264.251141 
L 308.27528 333.167242 
L 326.347305 298.829576 
L 344.369952 226.483784 
L 362.3926 176.974304 
L 380.415248 185.70479 
L 398.487273 73.452312 
" clip-path="url(#p70f2ff71c2)" style="fill: none; stroke: #dcdcdc; stroke-width: 1.5; stroke-linecap: square"/>
   </g>
   <g id="line2d_44">
    <path d="M 73.832727 153.750972 
L 91.855375 263.370046 
L 109.9274 147.103465 
L 127.950048 1.38015 
L 145.972695 196.661064 
L 163.995343 89.271901 
L 182.067368 299.737097 
L 200.090016 97.330942 
L 218.112664 101.111927 
L 236.135311 27.559765 
L 254.207336 205.577578 
L 272.229984 244.922897 
L 290.252632 329.295981 
L 308.27528 303.593544 
L 326.347305 211.30091 
L 344.369952 165.136912 
L 362.3926 198.382396 
L 380.415248 249.077962 
L 398.487273 125.086451 
" clip-path="url(#p70f2ff71c2)" style="fill: none; stroke: #dcdcdc; stroke-width: 1.5; stroke-linecap: square"/>
   </g>
   <g id="line2d_45">
    <path d="M 73.832727 319.722627 
L 90.358732 -1 
M 93.758904 -1 
L 109.9274 245.711907 
L 127.950048 160.191241 
L 145.972695 77.122132 
L 163.995343 98.075759 
L 182.067368 247.248773 
L 200.090016 38.313447 
L 218.112664 191.574007 
L 236.135311 174.164068 
L 254.207336 151.59686 
L 272.229984 149.054922 
L 290.252632 285.173106 
L 308.27528 196.805674 
L 326.347305 235.027843 
L 344.369952 190.481403 
L 362.3926 301.331796 
L 380.415248 239.203951 
L 398.487273 21.780564 
" clip-path="url(#p70f2ff71c2)" style="fill: none; stroke: #dcdcdc; stroke-width: 1.5; stroke-linecap: square"/>
   </g>
   <g id="line2d_46">
    <path d="M 73.832727 288.499022 
L 91.855375 122.668751 
L 109.9274 179.894707 
L 127.950048 216.797617 
L 145.972695 165.739888 
L 163.995343 141.677669 
L 182.067368 126.386638 
L 200.090016 105.87812 
L 218.112664 134.335416 
L 236.135311 186.926542 
L 254.207336 156.507745 
L 272.229984 216.263336 
L 290.252632 246.87095 
L 308.27528 248.090411 
L 326.347305 257.961122 
L 344.369952 222.135401 
L 362.3926 178.27888 
L 380.415248 199.18984 
L 398.487273 94.833734 
" clip-path="url(#p70f2ff71c2)" style="fill: none; stroke: #dcdcdc; stroke-width: 1.5; stroke-linecap: square"/>
   </g>
   <g id="line2d_47">
    <path d="M 73.832727 256.642086 
L 91.855375 49.160308 
L 109.9274 240.047863 
L 127.950048 134.090474 
L 145.972695 116.725549 
L 163.995343 135.281038 
L 182.067368 136.983009 
L 200.090016 88.823696 
L 218.112664 131.278573 
L 236.135311 157.284168 
L 254.207336 163.981211 
L 272.229984 206.818537 
L 290.252632 277.401229 
L 308.27528 275.749996 
L 326.347305 263.831221 
L 344.369952 213.438524 
L 362.3926 195.285013 
L 380.415248 214.550244 
L 398.487273 94.143492 
" clip-path="url(#p70f2ff71c2)" style="fill: none; stroke-dasharray: 5.55,2.4; stroke-dashoffset: 0; stroke: #dc143c; stroke-width: 1.5"/>
   </g>
   <g id="line2d_48">
    <path d="M 73.832727 261.533061 
L 91.855375 111.840008 
L 109.9274 209.49979 
L 127.950048 191.534678 
L 145.972695 123.609421 
L 163.995343 156.225087 
L 182.067368 140.152599 
L 200.090016 93.926507 
L 218.112664 130.829726 
L 236.135311 169.327545 
L 254.207336 159.355039 
L 272.229984 209.812819 
L 290.252632 261.999132 
L 308.27528 269.447795 
L 326.347305 263.833004 
L 344.369952 216.283482 
L 362.3926 178.975284 
L 380.415248 209.394156 
L 398.487273 97.610945 
" clip-path="url(#p70f2ff71c2)" style="fill: none; stroke: #ffd700; stroke-width: 1.5; stroke-linecap: square"/>
   </g>
   <g id="line2d_49">
    <path d="M 73.832727 239.097895 
L 91.855375 126.709262 
L 109.9274 233.109946 
L 127.950048 216.447221 
L 145.972695 122.648712 
L 163.995343 161.811826 
L 182.067368 189.688572 
L 200.090016 85.575793 
L 218.112664 138.511639 
L 236.135311 140.426292 
L 254.207336 149.490332 
L 272.229984 211.547113 
L 290.252632 253.94565 
L 308.27528 305.303476 
L 326.347305 306.057428 
L 344.369952 248.321725 
L 362.3926 177.861545 
L 380.415248 261.803389 
L 398.487273 126.758578 
" clip-path="url(#p70f2ff71c2)" style="fill: none; stroke: #008080; stroke-width: 1.5; stroke-linecap: square"/>
   </g>
   <g id="patch_3">
    <path d="M 57.6 307.584 
L 57.6 41.472 
" style="fill: none; stroke: #000000; stroke-width: 0.8; stroke-linejoin: miter; stroke-linecap: square"/>
   </g>
   <g id="patch_4">
    <path d="M 414.72 307.584 
L 414.72 41.472 
" style="fill: none; stroke: #000000; stroke-width: 0.8; stroke-linejoin: miter; stroke-linecap: square"/>
   </g>
   <g id="patch_5">
    <path d="M 57.6 307.584 
L 414.72 307.584 
" style="fill: none; stroke: #000000; stroke-width: 0.8; stroke-linejoin: miter; stroke-linecap: square"/>
   </g>
   <g id="patch_6">
    <path d="M 57.6 41.472 
L 414.72 41.472 
" style="fill: none; stroke: #000000; stroke-width: 0.8; stroke-linejoin: miter; stroke-linecap: square"/>
   </g>
   <g id="text_20">
    <!-- Taxa de Crescimento da Construção -->
    <g transform="translate(128.241562 35.472) scale(0.12 -0.12)">
     <defs>
      <path id="DejaVuSans-54" d="M -19 4666 
L 3928 4666 
L 3928 4134 
L 2272 4134 
L 2272 0 
L 1638 0 
L 1638 4134 
L -19 4134 
L -19 4666 
z
" transform="scale(0.015625)"/>
      <path id="DejaVuSans-78" d="M 3513 3500 
L 2247 1797 
L 3578 0 
L 2900 0 
L 1881 1375 
L 863 0 
L 184 0 
L 1544 1831 
L 300 3500 
L 978 3500 
L 1906 2253 
L 2834 3500 
L 3513 3500 
z
" transform="scale(0.015625)"/>
      <path id="DejaVuSans-64" d="M 2906 2969 
L 2906 4863 
L 3481 4863 
L 3481 0 
L 2906 0 
L 2906 525 
Q 2725 213 2448 61 
Q 2172 -91 1784 -91 
Q 1150 -91 751 415 
Q 353 922 353 1747 
Q 353 2572 751 3078 
Q 1150 3584 1784 3584 
Q 2172 3584 2448 3432 
Q 2725 3281 2906 2969 
z
M 947 1747 
Q 947 1113 1208 752 
Q 1469 391 1925 391 
Q 2381 391 2643 752 
Q 2906 1113 2906 1747 
Q 2906 2381 2643 2742 
Q 2381 3103 1925 3103 
Q 1469 3103 1208 2742 
Q 947 2381 947 1747 
z
" transform="scale(0.015625)"/>
      <path id="DejaVuSans-75" d="M 544 1381 
L 544 3500 
L 1119 3500 
L 1119 1403 
Q 1119 906 1312 657 
Q 1506 409 1894 409 
Q 2359 409 2629 706 
Q 2900 1003 2900 1516 
L 2900 3500 
L 3475 3500 
L 3475 0 
L 2900 0 
L 2900 538 
Q 2691 219 2414 64 
Q 2138 -91 1772 -91 
Q 1169 -91 856 284 
Q 544 659 544 1381 
z
M 1991 3584 
L 1991 3584 
z
" transform="scale(0.015625)"/>
      <path id="DejaVuSans-e7" d="M 3122 3366 
L 3122 2828 
Q 2878 2963 2633 3030 
Q 2388 3097 2138 3097 
Q 1578 3097 1268 2742 
Q 959 2388 959 1747 
Q 959 1106 1268 751 
Q 1578 397 2138 397 
Q 2388 397 2633 464 
Q 2878 531 3122 666 
L 3122 134 
Q 2881 22 2623 -34 
Q 2366 -91 2075 -91 
Q 1284 -91 818 406 
Q 353 903 353 1747 
Q 353 2603 823 3093 
Q 1294 3584 2113 3584 
Q 2378 3584 2631 3529 
Q 2884 3475 3122 3366 
z
M 2311 0 
Q 2482 -194 2566 -358 
Q 2651 -522 2651 -672 
Q 2651 -950 2463 -1092 
Q 2276 -1234 1907 -1234 
Q 1764 -1234 1628 -1215 
Q 1492 -1197 1357 -1159 
L 1357 -750 
Q 1464 -803 1579 -826 
Q 1695 -850 1842 -850 
Q 2026 -850 2120 -775 
Q 2214 -700 2214 -556 
Q 2214 -463 2146 -327 
Q 2079 -191 1939 0 
L 2311 0 
z
" transform="scale(0.015625)"/>
      <path id="DejaVuSans-e3" d="M 2194 1759 
Q 1497 1759 1228 1600 
Q 959 1441 959 1056 
Q 959 750 1161 570 
Q 1363 391 1709 391 
Q 2188 391 2477 730 
Q 2766 1069 2766 1631 
L 2766 1759 
L 2194 1759 
z
M 3341 1997 
L 3341 0 
L 2766 0 
L 2766 531 
Q 2569 213 2275 61 
Q 1981 -91 1556 -91 
Q 1019 -91 701 211 
Q 384 513 384 1019 
Q 384 1609 779 1909 
Q 1175 2209 1959 2209 
L 2766 2209 
L 2766 2266 
Q 2766 2663 2505 2880 
Q 2244 3097 1772 3097 
Q 1472 3097 1187 3025 
Q 903 2953 641 2809 
L 641 3341 
Q 956 3463 1253 3523 
Q 1550 3584 1831 3584 
Q 2591 3584 2966 3190 
Q 3341 2797 3341 1997 
z
M 1844 4281 
L 1665 4453 
Q 1597 4516 1545 4545 
Q 1494 4575 1453 4575 
Q 1334 4575 1278 4461 
Q 1222 4347 1215 4091 
L 825 4091 
Q 831 4513 990 4742 
Q 1150 4972 1434 4972 
Q 1553 4972 1653 4928 
Q 1753 4884 1869 4781 
L 2047 4609 
Q 2115 4547 2167 4517 
Q 2219 4488 2259 4488 
Q 2378 4488 2434 4602 
Q 2490 4716 2497 4972 
L 2887 4972 
Q 2881 4550 2721 4320 
Q 2562 4091 2278 4091 
Q 2159 4091 2059 4134 
Q 1959 4178 1844 4281 
z
" transform="scale(0.015625)"/>
     </defs>
     <use xlink:href="#DejaVuSans-54"/>
     <use xlink:href="#DejaVuSans-61" x="44.583984"/>
     <use xlink:href="#DejaVuSans-78" x="105.863281"/>
     <use xlink:href="#DejaVuSans-61" x="165.042969"/>
     <use xlink:href="#DejaVuSans-20" x="226.322266"/>
     <use xlink:href="#DejaVuSans-64" x="258.109375"/>
     <use xlink:href="#DejaVuSans-65" x="321.585938"/>
     <use xlink:href="#DejaVuSans-20" x="383.109375"/>
     <use xlink:href="#DejaVuSans-43" x="414.896484"/>
     <use xlink:href="#DejaVuSans-72" x="484.720703"/>
     <use xlink:href="#DejaVuSans-65" x="523.583984"/>
     <use xlink:href="#DejaVuSans-73" x="585.107422"/>
     <use xlink:href="#DejaVuSans-63" x="637.207031"/>
     <use xlink:href="#DejaVuSans-69" x="692.1875"/>
     <use xlink:href="#DejaVuSans-6d" x="719.970703"/>
     <use xlink:href="#DejaVuSans-65" x="817.382812"/>
     <use xlink:href="#DejaVuSans-6e" x="878.90625"/>
     <use xlink:href="#DejaVuSans-74" x="942.285156"/>
     <use xlink:href="#DejaVuSans-6f" x="981.494141"/>
     <use xlink:href="#DejaVuSans-20" x="1042.675781"/>
     <use xlink:href="#DejaVuSans-64" x="1074.462891"/>
     <use xlink:href="#DejaVuSans-61" x="1137.939453"/>
     <use xlink:href="#DejaVuSans-20" x="1199.21875"/>
     <use xlink:href="#DejaVuSans-43" x="1231.005859"/>
     <use xlink:href="#DejaVuSans-6f" x="1300.830078"/>
     <use xlink:href="#DejaVuSans-6e" x="1362.011719"/>
     <use xlink:href="#DejaVuSans-73" x="1425.390625"/>
     <use xlink:href="#DejaVuSans-74" x="1477.490234"/>
     <use xlink:href="#DejaVuSans-72" x="1516.699219"/>
     <use xlink:href="#DejaVuSans-75" x="1557.8125"/>
     <use xlink:href="#DejaVuSans-e7" x="1621.191406"/>
     <use xlink:href="#DejaVuSans-e3" x="1676.171875"/>
     <use xlink:href="#DejaVuSans-6f" x="1737.451172"/>
    </g>
   </g>
   <g id="legend_1">
    <g id="patch_7">
     <path d="M 301.86375 108.1845 
L 407.72 108.1845 
Q 409.72 108.1845 409.72 106.1845 
L 409.72 48.472 
Q 409.72 46.472 407.72 46.472 
L 301.86375 46.472 
Q 299.86375 46.472 299.86375 48.472 
L 299.86375 106.1845 
Q 299.86375 108.1845 301.86375 108.1845 
z
" style="fill: #ffffff; opacity: 0.8; stroke: #cccccc; stroke-linejoin: miter"/>
    </g>
    <g id="line2d_50">
     <path d="M 303.86375 54.570438 
L 313.86375 54.570438 
L 323.86375 54.570438 
" style="fill: none; stroke: #dcdcdc; stroke-width: 1.5; stroke-linecap: square"/>
    </g>
    <g id="text_21">
     <!-- outros estados -->
     <g transform="translate(331.86375 58.070438) scale(0.1 -0.1)">
      <use xlink:href="#DejaVuSans-6f"/>
      <use xlink:href="#DejaVuSans-75" x="61.181641"/>
      <use xlink:href="#DejaVuSans-74" x="124.560547"/>
      <use xlink:href="#DejaVuSans-72" x="163.769531"/>
      <use xlink:href="#DejaVuSans-6f" x="202.632812"/>
      <use xlink:href="#DejaVuSans-73" x="263.814453"/>
      <use xlink:href="#DejaVuSans-20" x="315.914062"/>
      <use xlink:href="#DejaVuSans-65" x="347.701172"/>
      <use xlink:href="#DejaVuSans-73" x="409.224609"/>
      <use xlink:href="#DejaVuSans-74" x="461.324219"/>
      <use xlink:href="#DejaVuSans-61" x="500.533203"/>
      <use xlink:href="#DejaVuSans-64" x="561.8125"/>
      <use xlink:href="#DejaVuSans-6f" x="625.289062"/>
      <use xlink:href="#DejaVuSans-73" x="686.470703"/>
     </g>
    </g>
    <g id="line2d_51">
     <path d="M 303.86375 69.248563 
L 313.86375 69.248563 
L 323.86375 69.248563 
" style="fill: none; stroke-dasharray: 5.55,2.4; stroke-dashoffset: 0; stroke: #dc143c; stroke-width: 1.5"/>
    </g>
    <g id="text_22">
     <!-- Média estados -->
     <g transform="translate(331.86375 72.748563) scale(0.1 -0.1)">
      <defs>
       <path id="DejaVuSans-4d" d="M 628 4666 
L 1569 4666 
L 2759 1491 
L 3956 4666 
L 4897 4666 
L 4897 0 
L 4281 0 
L 4281 4097 
L 3078 897 
L 2444 897 
L 1241 4097 
L 1241 0 
L 628 0 
L 628 4666 
z
" transform="scale(0.015625)"/>
       <path id="DejaVuSans-e9" d="M 3597 1894 
L 3597 1613 
L 953 1613 
Q 991 1019 1311 708 
Q 1631 397 2203 397 
Q 2534 397 2845 478 
Q 3156 559 3463 722 
L 3463 178 
Q 3153 47 2828 -22 
Q 2503 -91 2169 -91 
Q 1331 -91 842 396 
Q 353 884 353 1716 
Q 353 2575 817 3079 
Q 1281 3584 2069 3584 
Q 2775 3584 3186 3129 
Q 3597 2675 3597 1894 
z
M 3022 2063 
Q 3016 2534 2758 2815 
Q 2500 3097 2075 3097 
Q 1594 3097 1305 2825 
Q 1016 2553 972 2059 
L 3022 2063 
z
M 2466 5119 
L 3088 5119 
L 2070 3944 
L 1591 3944 
L 2466 5119 
z
" transform="scale(0.015625)"/>
      </defs>
      <use xlink:href="#DejaVuSans-4d"/>
      <use xlink:href="#DejaVuSans-e9" x="86.279297"/>
      <use xlink:href="#DejaVuSans-64" x="147.802734"/>
      <use xlink:href="#DejaVuSans-69" x="211.279297"/>
      <use xlink:href="#DejaVuSans-61" x="239.0625"/>
      <use xlink:href="#DejaVuSans-20" x="300.341797"/>
      <use xlink:href="#DejaVuSans-65" x="332.128906"/>
      <use xlink:href="#DejaVuSans-73" x="393.652344"/>
      <use xlink:href="#DejaVuSans-74" x="445.751953"/>
      <use xlink:href="#DejaVuSans-61" x="484.960938"/>
      <use xlink:href="#DejaVuSans-64" x="546.240234"/>
      <use xlink:href="#DejaVuSans-6f" x="609.716797"/>
      <use xlink:href="#DejaVuSans-73" x="670.898438"/>
     </g>
    </g>
    <g id="line2d_52">
     <path d="M 303.86375 83.926688 
L 313.86375 83.926688 
L 323.86375 83.926688 
" style="fill: none; stroke: #ffd700; stroke-width: 1.5; stroke-linecap: square"/>
    </g>
    <g id="text_23">
     <!-- BR -->
     <g transform="translate(331.86375 87.426688) scale(0.1 -0.1)">
      <defs>
       <path id="DejaVuSans-42" d="M 1259 2228 
L 1259 519 
L 2272 519 
Q 2781 519 3026 730 
Q 3272 941 3272 1375 
Q 3272 1813 3026 2020 
Q 2781 2228 2272 2228 
L 1259 2228 
z
M 1259 4147 
L 1259 2741 
L 2194 2741 
Q 2656 2741 2882 2914 
Q 3109 3088 3109 3444 
Q 3109 3797 2882 3972 
Q 2656 4147 2194 4147 
L 1259 4147 
z
M 628 4666 
L 2241 4666 
Q 2963 4666 3353 4366 
Q 3744 4066 3744 3513 
Q 3744 3084 3544 2831 
Q 3344 2578 2956 2516 
Q 3422 2416 3680 2098 
Q 3938 1781 3938 1306 
Q 3938 681 3513 340 
Q 3088 0 2303 0 
L 628 0 
L 628 4666 
z
" transform="scale(0.015625)"/>
       <path id="DejaVuSans-52" d="M 2841 2188 
Q 3044 2119 3236 1894 
Q 3428 1669 3622 1275 
L 4263 0 
L 3584 0 
L 2988 1197 
Q 2756 1666 2539 1819 
Q 2322 1972 1947 1972 
L 1259 1972 
L 1259 0 
L 628 0 
L 628 4666 
L 2053 4666 
Q 2853 4666 3247 4331 
Q 3641 3997 3641 3322 
Q 3641 2881 3436 2590 
Q 3231 2300 2841 2188 
z
M 1259 4147 
L 1259 2491 
L 2053 2491 
Q 2509 2491 2742 2702 
Q 2975 2913 2975 3322 
Q 2975 3731 2742 3939 
Q 2509 4147 2053 4147 
L 1259 4147 
z
" transform="scale(0.015625)"/>
      </defs>
      <use xlink:href="#DejaVuSans-42"/>
      <use xlink:href="#DejaVuSans-52" x="68.603516"/>
     </g>
    </g>
    <g id="line2d_53">
     <path d="M 303.86375 98.604813 
L 313.86375 98.604813 
L 323.86375 98.604813 
" style="fill: none; stroke: #008080; stroke-width: 1.5; stroke-linecap: square"/>
    </g>
    <g id="text_24">
     <!-- RJ -->
     <g transform="translate(331.86375 102.104813) scale(0.1 -0.1)">
      <defs>
       <path id="DejaVuSans-4a" d="M 628 4666 
L 1259 4666 
L 1259 325 
Q 1259 -519 939 -900 
Q 619 -1281 -91 -1281 
L -331 -1281 
L -331 -750 
L -134 -750 
Q 284 -750 456 -515 
Q 628 -281 628 325 
L 628 4666 
z
" transform="scale(0.015625)"/>
      </defs>
      <use xlink:href="#DejaVuSans-52"/>
      <use xlink:href="#DejaVuSans-4a" x="69.482422"/>
     </g>
    </g>
   </g>
  </g>
 </g>
 <defs>
  <clipPath id="p70f2ff71c2">
   <rect x="57.6" y="41.472" width="357.12" height="266.112"/>
  </clipPath>
 </defs>
</svg>
