<?xml version="1.0" encoding="utf-8" standalone="no"?>
<!DOCTYPE svg PUBLIC "-//W3C//DTD SVG 1.1//EN"
  "http://www.w3.org/Graphics/SVG/1.1/DTD/svg11.dtd">
<svg xmlns:xlink="http://www.w3.org/1999/xlink" width="460.8pt" height="345.6pt" viewBox="0 0 460.8 345.6" xmlns="http://www.w3.org/2000/svg" version="1.1">
 <metadata>
  <rdf:RDF xmlns:dc="http://purl.org/dc/elements/1.1/" xmlns:cc="http://creativecommons.org/ns#" xmlns:rdf="http://www.w3.org/1999/02/22-rdf-syntax-ns#">
   <cc:Work>
    <dc:type rdf:resource="http://purl.org/dc/dcmitype/StillImage"/>
    <dc:date>2024-09-06T11:21:24.755238</dc:date>
    <dc:format>image/svg+xml</dc:format>
    <dc:creator>
     <cc:Agent>
      <dc:title>Matplotlib v3.9.2, https://matplotlib.org/</dc:title>
     </cc:Agent>
    </dc:creator>
   </cc:Work>
  </rdf:RDF>
 </metadata>
 <defs>
  <style type="text/css">*{stroke-linejoin: round; stroke-linecap: butt}</style>
 </defs>
 <g id="figure_1">
  <g id="patch_1">
   <path d="M 0 345.6 
L 460.8 345.6 
L 460.8 0 
L 0 0 
z
" style="fill: #ffffff"/>
  </g>
  <g id="axes_1">
   <g id="patch_2">
    <path d="M 57.6 307.584 
L 414.72 307.584 
L 414.72 41.472 
L 57.6 41.472 
z
" style="fill: #ffffff"/>
   </g>
   <g id="matplotlib.axis_1">
    <g id="xtick_1">
     <g id="line2d_1">
      <defs>
       <path id="mfedfb1bf3d" d="M 0 0 
L 0 3.5 
" style="stroke: #000000; stroke-width: 0.8"/>
      </defs>
      <g>
       <use xlink:href="#mfedfb1bf3d" x="91.855375" y="307.584" style="stroke: #000000; stroke-width: 0.8"/>
      </g>
     </g>
     <g id="text_1">
      <!-- 2004 -->
      <g transform="translate(79.130375 322.182437) scale(0.1 -0.1)">
       <defs>
        <path id="DejaVuSans-32" d="M 1228 531 
L 3431 531 
L 3431 0 
L 469 0 
L 469 531 
Q 828 903 1448 1529 
Q 2069 2156 2228 2338 
Q 2531 2678 2651 2914 
Q 2772 3150 2772 3378 
Q 2772 3750 2511 3984 
Q 2250 4219 1831 4219 
Q 1534 4219 1204 4116 
Q 875 4013 500 3803 
L 500 4441 
Q 881 4594 1212 4672 
Q 1544 4750 1819 4750 
Q 2544 4750 2975 4387 
Q 3406 4025 3406 3419 
Q 3406 3131 3298 2873 
Q 3191 2616 2906 2266 
Q 2828 2175 2409 1742 
Q 1991 1309 1228 531 
z
" transform="scale(0.015625)"/>
        <path id="DejaVuSans-30" d="M 2034 4250 
Q 1547 4250 1301 3770 
Q 1056 3291 1056 2328 
Q 1056 1369 1301 889 
Q 1547 409 2034 409 
Q 2525 409 2770 889 
Q 3016 1369 3016 2328 
Q 3016 3291 2770 3770 
Q 2525 4250 2034 4250 
z
M 2034 4750 
Q 2819 4750 3233 4129 
Q 3647 3509 3647 2328 
Q 3647 1150 3233 529 
Q 2819 -91 2034 -91 
Q 1250 -91 836 529 
Q 422 1150 422 2328 
Q 422 3509 836 4129 
Q 1250 4750 2034 4750 
z
" transform="scale(0.015625)"/>
        <path id="DejaVuSans-34" d="M 2419 4116 
L 825 1625 
L 2419 1625 
L 2419 4116 
z
M 2253 4666 
L 3047 4666 
L 3047 1625 
L 3713 1625 
L 3713 1100 
L 3047 1100 
L 3047 0 
L 2419 0 
L 2419 1100 
L 313 1100 
L 313 1709 
L 2253 4666 
z
" transform="scale(0.015625)"/>
       </defs>
       <use xlink:href="#DejaVuSans-32"/>
       <use xlink:href="#DejaVuSans-30" x="63.623047"/>
       <use xlink:href="#DejaVuSans-30" x="127.246094"/>
       <use xlink:href="#DejaVuSans-34" x="190.869141"/>
      </g>
     </g>
    </g>
    <g id="xtick_2">
     <g id="line2d_2">
      <g>
       <use xlink:href="#mfedfb1bf3d" x="127.950048" y="307.584" style="stroke: #000000; stroke-width: 0.8"/>
      </g>
     </g>
     <g id="text_2">
      <!-- 2006 -->
      <g transform="translate(115.225048 322.182437) scale(0.1 -0.1)">
       <defs>
        <path id="DejaVuSans-36" d="M 2113 2584 
Q 1688 2584 1439 2293 
Q 1191 2003 1191 1497 
Q 1191 994 1439 701 
Q 1688 409 2113 409 
Q 2538 409 2786 701 
Q 3034 994 3034 1497 
Q 3034 2003 2786 2293 
Q 2538 2584 2113 2584 
z
M 3366 4563 
L 3366 3988 
Q 3128 4100 2886 4159 
Q 2644 4219 2406 4219 
Q 1781 4219 1451 3797 
Q 1122 3375 1075 2522 
Q 1259 2794 1537 2939 
Q 1816 3084 2150 3084 
Q 2853 3084 3261 2657 
Q 3669 2231 3669 1497 
Q 3669 778 3244 343 
Q 2819 -91 2113 -91 
Q 1303 -91 875 529 
Q 447 1150 447 2328 
Q 447 3434 972 4092 
Q 1497 4750 2381 4750 
Q 2619 4750 2861 4703 
Q 3103 4656 3366 4563 
z
" transform="scale(0.015625)"/>
       </defs>
       <use xlink:href="#DejaVuSans-32"/>
       <use xlink:href="#DejaVuSans-30" x="63.623047"/>
       <use xlink:href="#DejaVuSans-30" x="127.246094"/>
       <use xlink:href="#DejaVuSans-36" x="190.869141"/>
      </g>
     </g>
    </g>
    <g id="xtick_3">
     <g id="line2d_3">
      <g>
       <use xlink:href="#mfedfb1bf3d" x="163.995343" y="307.584" style="stroke: #000000; stroke-width: 0.8"/>
      </g>
     </g>
     <g id="text_3">
      <!-- 2008 -->
      <g transform="translate(151.270343 322.182437) scale(0.1 -0.1)">
       <defs>
        <path id="DejaVuSans-38" d="M 2034 2216 
Q 1584 2216 1326 1975 
Q 1069 1734 1069 1313 
Q 1069 891 1326 650 
Q 1584 409 2034 409 
Q 2484 409 2743 651 
Q 3003 894 3003 1313 
Q 3003 1734 2745 1975 
Q 2488 2216 2034 2216 
z
M 1403 2484 
Q 997 2584 770 2862 
Q 544 3141 544 3541 
Q 544 4100 942 4425 
Q 1341 4750 2034 4750 
Q 2731 4750 3128 4425 
Q 3525 4100 3525 3541 
Q 3525 3141 3298 2862 
Q 3072 2584 2669 2484 
Q 3125 2378 3379 2068 
Q 3634 1759 3634 1313 
Q 3634 634 3220 271 
Q 2806 -91 2034 -91 
Q 1263 -91 848 271 
Q 434 634 434 1313 
Q 434 1759 690 2068 
Q 947 2378 1403 2484 
z
M 1172 3481 
Q 1172 3119 1398 2916 
Q 1625 2713 2034 2713 
Q 2441 2713 2670 2916 
Q 2900 3119 2900 3481 
Q 2900 3844 2670 4047 
Q 2441 4250 2034 4250 
Q 1625 4250 1398 4047 
Q 1172 3844 1172 3481 
z
" transform="scale(0.015625)"/>
       </defs>
       <use xlink:href="#DejaVuSans-32"/>
       <use xlink:href="#DejaVuSans-30" x="63.623047"/>
       <use xlink:href="#DejaVuSans-30" x="127.246094"/>
       <use xlink:href="#DejaVuSans-38" x="190.869141"/>
      </g>
     </g>
    </g>
    <g id="xtick_4">
     <g id="line2d_4">
      <g>
       <use xlink:href="#mfedfb1bf3d" x="200.090016" y="307.584" style="stroke: #000000; stroke-width: 0.8"/>
      </g>
     </g>
     <g id="text_4">
      <!-- 2010 -->
      <g transform="translate(187.365016 322.182437) scale(0.1 -0.1)">
       <defs>
        <path id="DejaVuSans-31" d="M 794 531 
L 1825 531 
L 1825 4091 
L 703 3866 
L 703 4441 
L 1819 4666 
L 2450 4666 
L 2450 531 
L 3481 531 
L 3481 0 
L 794 0 
L 794 531 
z
" transform="scale(0.015625)"/>
       </defs>
       <use xlink:href="#DejaVuSans-32"/>
       <use xlink:href="#DejaVuSans-30" x="63.623047"/>
       <use xlink:href="#DejaVuSans-31" x="127.246094"/>
       <use xlink:href="#DejaVuSans-30" x="190.869141"/>
      </g>
     </g>
    </g>
    <g id="xtick_5">
     <g id="line2d_5">
      <g>
       <use xlink:href="#mfedfb1bf3d" x="236.135311" y="307.584" style="stroke: #000000; stroke-width: 0.8"/>
      </g>
     </g>
     <g id="text_5">
      <!-- 2012 -->
      <g transform="translate(223.410311 322.182437) scale(0.1 -0.1)">
       <use xlink:href="#DejaVuSans-32"/>
       <use xlink:href="#DejaVuSans-30" x="63.623047"/>
       <use xlink:href="#DejaVuSans-31" x="127.246094"/>
       <use xlink:href="#DejaVuSans-32" x="190.869141"/>
      </g>
     </g>
    </g>
    <g id="xtick_6">
     <g id="line2d_6">
      <g>
       <use xlink:href="#mfedfb1bf3d" x="272.229984" y="307.584" style="stroke: #000000; stroke-width: 0.8"/>
      </g>
     </g>
     <g id="text_6">
      <!-- 2014 -->
      <g transform="translate(259.504984 322.182437) scale(0.1 -0.1)">
       <use xlink:href="#DejaVuSans-32"/>
       <use xlink:href="#DejaVuSans-30" x="63.623047"/>
       <use xlink:href="#DejaVuSans-31" x="127.246094"/>
       <use xlink:href="#DejaVuSans-34" x="190.869141"/>
      </g>
     </g>
    </g>
    <g id="xtick_7">
     <g id="line2d_7">
      <g>
       <use xlink:href="#mfedfb1bf3d" x="308.27528" y="307.584" style="stroke: #000000; stroke-width: 0.8"/>
      </g>
     </g>
     <g id="text_7">
      <!-- 2016 -->
      <g transform="translate(295.55028 322.182437) scale(0.1 -0.1)">
       <use xlink:href="#DejaVuSans-32"/>
       <use xlink:href="#DejaVuSans-30" x="63.623047"/>
       <use xlink:href="#DejaVuSans-31" x="127.246094"/>
       <use xlink:href="#DejaVuSans-36" x="190.869141"/>
      </g>
     </g>
    </g>
    <g id="xtick_8">
     <g id="line2d_8">
      <g>
       <use xlink:href="#mfedfb1bf3d" x="344.369952" y="307.584" style="stroke: #000000; stroke-width: 0.8"/>
      </g>
     </g>
     <g id="text_8">
      <!-- 2018 -->
      <g transform="translate(331.644952 322.182437) scale(0.1 -0.1)">
       <use xlink:href="#DejaVuSans-32"/>
       <use xlink:href="#DejaVuSans-30" x="63.623047"/>
       <use xlink:href="#DejaVuSans-31" x="127.246094"/>
       <use xlink:href="#DejaVuSans-38" x="190.869141"/>
      </g>
     </g>
    </g>
    <g id="xtick_9">
     <g id="line2d_9">
      <g>
       <use xlink:href="#mfedfb1bf3d" x="380.415248" y="307.584" style="stroke: #000000; stroke-width: 0.8"/>
      </g>
     </g>
     <g id="text_9">
      <!-- 2020 -->
      <g transform="translate(367.690248 322.182437) scale(0.1 -0.1)">
       <use xlink:href="#DejaVuSans-32"/>
       <use xlink:href="#DejaVuSans-30" x="63.623047"/>
       <use xlink:href="#DejaVuSans-32" x="127.246094"/>
       <use xlink:href="#DejaVuSans-30" x="190.869141"/>
      </g>
     </g>
    </g>
    <g id="text_10">
     <!-- Ano -->
     <g transform="translate(226.511562 335.860562) scale(0.1 -0.1)">
      <defs>
       <path id="DejaVuSans-41" d="M 2188 4044 
L 1331 1722 
L 3047 1722 
L 2188 4044 
z
M 1831 4666 
L 2547 4666 
L 4325 0 
L 3669 0 
L 3244 1197 
L 1141 1197 
L 716 0 
L 50 0 
L 1831 4666 
z
" transform="scale(0.015625)"/>
       <path id="DejaVuSans-6e" d="M 3513 2113 
L 3513 0 
L 2938 0 
L 2938 2094 
Q 2938 2591 2744 2837 
Q 2550 3084 2163 3084 
Q 1697 3084 1428 2787 
Q 1159 2491 1159 1978 
L 1159 0 
L 581 0 
L 581 3500 
L 1159 3500 
L 1159 2956 
Q 1366 3272 1645 3428 
Q 1925 3584 2291 3584 
Q 2894 3584 3203 3211 
Q 3513 2838 3513 2113 
z
" transform="scale(0.015625)"/>
       <path id="DejaVuSans-6f" d="M 1959 3097 
Q 1497 3097 1228 2736 
Q 959 2375 959 1747 
Q 959 1119 1226 758 
Q 1494 397 1959 397 
Q 2419 397 2687 759 
Q 2956 1122 2956 1747 
Q 2956 2369 2687 2733 
Q 2419 3097 1959 3097 
z
M 1959 3584 
Q 2709 3584 3137 3096 
Q 3566 2609 3566 1747 
Q 3566 888 3137 398 
Q 2709 -91 1959 -91 
Q 1206 -91 779 398 
Q 353 888 353 1747 
Q 353 2609 779 3096 
Q 1206 3584 1959 3584 
z
" transform="scale(0.015625)"/>
      </defs>
      <use xlink:href="#DejaVuSans-41"/>
      <use xlink:href="#DejaVuSans-6e" x="68.408203"/>
      <use xlink:href="#DejaVuSans-6f" x="131.787109"/>
     </g>
    </g>
   </g>
   <g id="matplotlib.axis_2">
    <g id="ytick_1">
     <g id="line2d_10">
      <defs>
       <path id="mf2c546841c" d="M 0 0 
L -3.5 0 
" style="stroke: #000000; stroke-width: 0.8"/>
      </defs>
      <g>
       <use xlink:href="#mf2c546841c" x="57.6" y="271.458056" style="stroke: #000000; stroke-width: 0.8"/>
      </g>
     </g>
     <g id="text_11">
      <!-- −0.05 -->
      <g transform="translate(19.954687 275.257275) scale(0.1 -0.1)">
       <defs>
        <path id="DejaVuSans-2212" d="M 678 2272 
L 4684 2272 
L 4684 1741 
L 678 1741 
L 678 2272 
z
" transform="scale(0.015625)"/>
        <path id="DejaVuSans-2e" d="M 684 794 
L 1344 794 
L 1344 0 
L 684 0 
L 684 794 
z
" transform="scale(0.015625)"/>
        <path id="DejaVuSans-35" d="M 691 4666 
L 3169 4666 
L 3169 4134 
L 1269 4134 
L 1269 2991 
Q 1406 3038 1543 3061 
Q 1681 3084 1819 3084 
Q 2600 3084 3056 2656 
Q 3513 2228 3513 1497 
Q 3513 744 3044 326 
Q 2575 -91 1722 -91 
Q 1428 -91 1123 -41 
Q 819 9 494 109 
L 494 744 
Q 775 591 1075 516 
Q 1375 441 1709 441 
Q 2250 441 2565 725 
Q 2881 1009 2881 1497 
Q 2881 1984 2565 2268 
Q 2250 2553 1709 2553 
Q 1456 2553 1204 2497 
Q 953 2441 691 2322 
L 691 4666 
z
" transform="scale(0.015625)"/>
       </defs>
       <use xlink:href="#DejaVuSans-2212"/>
       <use xlink:href="#DejaVuSans-30" x="83.789062"/>
       <use xlink:href="#DejaVuSans-2e" x="147.412109"/>
       <use xlink:href="#DejaVuSans-30" x="179.199219"/>
       <use xlink:href="#DejaVuSans-35" x="242.822266"/>
      </g>
     </g>
    </g>
    <g id="ytick_2">
     <g id="line2d_11">
      <g>
       <use xlink:href="#mf2c546841c" x="57.6" y="220.321045" style="stroke: #000000; stroke-width: 0.8"/>
      </g>
     </g>
     <g id="text_12">
      <!-- 0.00 -->
      <g transform="translate(28.334375 224.120264) scale(0.1 -0.1)">
       <use xlink:href="#DejaVuSans-30"/>
       <use xlink:href="#DejaVuSans-2e" x="63.623047"/>
       <use xlink:href="#DejaVuSans-30" x="95.410156"/>
       <use xlink:href="#DejaVuSans-30" x="159.033203"/>
      </g>
     </g>
    </g>
    <g id="ytick_3">
     <g id="line2d_12">
      <g>
       <use xlink:href="#mf2c546841c" x="57.6" y="169.184034" style="stroke: #000000; stroke-width: 0.8"/>
      </g>
     </g>
     <g id="text_13">
      <!-- 0.05 -->
      <g transform="translate(28.334375 172.983253) scale(0.1 -0.1)">
       <use xlink:href="#DejaVuSans-30"/>
       <use xlink:href="#DejaVuSans-2e" x="63.623047"/>
       <use xlink:href="#DejaVuSans-30" x="95.410156"/>
       <use xlink:href="#DejaVuSans-35" x="159.033203"/>
      </g>
     </g>
    </g>
    <g id="ytick_4">
     <g id="line2d_13">
      <g>
       <use xlink:href="#mf2c546841c" x="57.6" y="118.047023" style="stroke: #000000; stroke-width: 0.8"/>
      </g>
     </g>
     <g id="text_14">
      <!-- 0.10 -->
      <g transform="translate(28.334375 121.846242) scale(0.1 -0.1)">
       <use xlink:href="#DejaVuSans-30"/>
       <use xlink:href="#DejaVuSans-2e" x="63.623047"/>
       <use xlink:href="#DejaVuSans-31" x="95.410156"/>
       <use xlink:href="#DejaVuSans-30" x="159.033203"/>
      </g>
     </g>
    </g>
    <g id="ytick_5">
     <g id="line2d_14">
      <g>
       <use xlink:href="#mf2c546841c" x="57.6" y="66.910012" style="stroke: #000000; stroke-width: 0.8"/>
      </g>
     </g>
     <g id="text_15">
      <!-- 0.15 -->
      <g transform="translate(28.334375 70.709231) scale(0.1 -0.1)">
       <use xlink:href="#DejaVuSans-30"/>
       <use xlink:href="#DejaVuSans-2e" x="63.623047"/>
       <use xlink:href="#DejaVuSans-31" x="95.410156"/>
       <use xlink:href="#DejaVuSans-35" x="159.033203"/>
      </g>
     </g>
    </g>
    <g id="text_16">
     <!-- Crescimento real -->
     <g transform="translate(13.875 216.978781) rotate(-90) scale(0.1 -0.1)">
      <defs>
       <path id="DejaVuSans-43" d="M 4122 4306 
L 4122 3641 
Q 3803 3938 3442 4084 
Q 3081 4231 2675 4231 
Q 1875 4231 1450 3742 
Q 1025 3253 1025 2328 
Q 1025 1406 1450 917 
Q 1875 428 2675 428 
Q 3081 428 3442 575 
Q 3803 722 4122 1019 
L 4122 359 
Q 3791 134 3420 21 
Q 3050 -91 2638 -91 
Q 1578 -91 968 557 
Q 359 1206 359 2328 
Q 359 3453 968 4101 
Q 1578 4750 2638 4750 
Q 3056 4750 3426 4639 
Q 3797 4528 4122 4306 
z
" transform="scale(0.015625)"/>
       <path id="DejaVuSans-72" d="M 2631 2963 
Q 2534 3019 2420 3045 
Q 2306 3072 2169 3072 
Q 1681 3072 1420 2755 
Q 1159 2438 1159 1844 
L 1159 0 
L 581 0 
L 581 3500 
L 1159 3500 
L 1159 2956 
Q 1341 3275 1631 3429 
Q 1922 3584 2338 3584 
Q 2397 3584 2469 3576 
Q 2541 3569 2628 3553 
L 2631 2963 
z
" transform="scale(0.015625)"/>
       <path id="DejaVuSans-65" d="M 3597 1894 
L 3597 1613 
L 953 1613 
Q 991 1019 1311 708 
Q 1631 397 2203 397 
Q 2534 397 2845 478 
Q 3156 559 3463 722 
L 3463 178 
Q 3153 47 2828 -22 
Q 2503 -91 2169 -91 
Q 1331 -91 842 396 
Q 353 884 353 1716 
Q 353 2575 817 3079 
Q 1281 3584 2069 3584 
Q 2775 3584 3186 3129 
Q 3597 2675 3597 1894 
z
M 3022 2063 
Q 3016 2534 2758 2815 
Q 2500 3097 2075 3097 
Q 1594 3097 1305 2825 
Q 1016 2553 972 2059 
L 3022 2063 
z
" transform="scale(0.015625)"/>
       <path id="DejaVuSans-73" d="M 2834 3397 
L 2834 2853 
Q 2591 2978 2328 3040 
Q 2066 3103 1784 3103 
Q 1356 3103 1142 2972 
Q 928 2841 928 2578 
Q 928 2378 1081 2264 
Q 1234 2150 1697 2047 
L 1894 2003 
Q 2506 1872 2764 1633 
Q 3022 1394 3022 966 
Q 3022 478 2636 193 
Q 2250 -91 1575 -91 
Q 1294 -91 989 -36 
Q 684 19 347 128 
L 347 722 
Q 666 556 975 473 
Q 1284 391 1588 391 
Q 1994 391 2212 530 
Q 2431 669 2431 922 
Q 2431 1156 2273 1281 
Q 2116 1406 1581 1522 
L 1381 1569 
Q 847 1681 609 1914 
Q 372 2147 372 2553 
Q 372 3047 722 3315 
Q 1072 3584 1716 3584 
Q 2034 3584 2315 3537 
Q 2597 3491 2834 3397 
z
" transform="scale(0.015625)"/>
       <path id="DejaVuSans-63" d="M 3122 3366 
L 3122 2828 
Q 2878 2963 2633 3030 
Q 2388 3097 2138 3097 
Q 1578 3097 1268 2742 
Q 959 2388 959 1747 
Q 959 1106 1268 751 
Q 1578 397 2138 397 
Q 2388 397 2633 464 
Q 2878 531 3122 666 
L 3122 134 
Q 2881 22 2623 -34 
Q 2366 -91 2075 -91 
Q 1284 -91 818 406 
Q 353 903 353 1747 
Q 353 2603 823 3093 
Q 1294 3584 2113 3584 
Q 2378 3584 2631 3529 
Q 2884 3475 3122 3366 
z
" transform="scale(0.015625)"/>
       <path id="DejaVuSans-69" d="M 603 3500 
L 1178 3500 
L 1178 0 
L 603 0 
L 603 3500 
z
M 603 4863 
L 1178 4863 
L 1178 4134 
L 603 4134 
L 603 4863 
z
" transform="scale(0.015625)"/>
       <path id="DejaVuSans-6d" d="M 3328 2828 
Q 3544 3216 3844 3400 
Q 4144 3584 4550 3584 
Q 5097 3584 5394 3201 
Q 5691 2819 5691 2113 
L 5691 0 
L 5113 0 
L 5113 2094 
Q 5113 2597 4934 2840 
Q 4756 3084 4391 3084 
Q 3944 3084 3684 2787 
Q 3425 2491 3425 1978 
L 3425 0 
L 2847 0 
L 2847 2094 
Q 2847 2600 2669 2842 
Q 2491 3084 2119 3084 
Q 1678 3084 1418 2786 
Q 1159 2488 1159 1978 
L 1159 0 
L 581 0 
L 581 3500 
L 1159 3500 
L 1159 2956 
Q 1356 3278 1631 3431 
Q 1906 3584 2284 3584 
Q 2666 3584 2933 3390 
Q 3200 3197 3328 2828 
z
" transform="scale(0.015625)"/>
       <path id="DejaVuSans-74" d="M 1172 4494 
L 1172 3500 
L 2356 3500 
L 2356 3053 
L 1172 3053 
L 1172 1153 
Q 1172 725 1289 603 
Q 1406 481 1766 481 
L 2356 481 
L 2356 0 
L 1766 0 
Q 1100 0 847 248 
Q 594 497 594 1153 
L 594 3053 
L 172 3053 
L 172 3500 
L 594 3500 
L 594 4494 
L 1172 4494 
z
" transform="scale(0.015625)"/>
       <path id="DejaVuSans-20" transform="scale(0.015625)"/>
       <path id="DejaVuSans-61" d="M 2194 1759 
Q 1497 1759 1228 1600 
Q 959 1441 959 1056 
Q 959 750 1161 570 
Q 1363 391 1709 391 
Q 2188 391 2477 730 
Q 2766 1069 2766 1631 
L 2766 1759 
L 2194 1759 
z
M 3341 1997 
L 3341 0 
L 2766 0 
L 2766 531 
Q 2569 213 2275 61 
Q 1981 -91 1556 -91 
Q 1019 -91 701 211 
Q 384 513 384 1019 
Q 384 1609 779 1909 
Q 1175 2209 1959 2209 
L 2766 2209 
L 2766 2266 
Q 2766 2663 2505 2880 
Q 2244 3097 1772 3097 
Q 1472 3097 1187 3025 
Q 903 2953 641 2809 
L 641 3341 
Q 956 3463 1253 3523 
Q 1550 3584 1831 3584 
Q 2591 3584 2966 3190 
Q 3341 2797 3341 1997 
z
" transform="scale(0.015625)"/>
       <path id="DejaVuSans-6c" d="M 603 4863 
L 1178 4863 
L 1178 0 
L 603 0 
L 603 4863 
z
" transform="scale(0.015625)"/>
      </defs>
      <use xlink:href="#DejaVuSans-43"/>
      <use xlink:href="#DejaVuSans-72" x="69.824219"/>
      <use xlink:href="#DejaVuSans-65" x="108.6875"/>
      <use xlink:href="#DejaVuSans-73" x="170.210938"/>
      <use xlink:href="#DejaVuSans-63" x="222.310547"/>
      <use xlink:href="#DejaVuSans-69" x="277.291016"/>
      <use xlink:href="#DejaVuSans-6d" x="305.074219"/>
      <use xlink:href="#DejaVuSans-65" x="402.486328"/>
      <use xlink:href="#DejaVuSans-6e" x="464.009766"/>
      <use xlink:href="#DejaVuSans-74" x="527.388672"/>
      <use xlink:href="#DejaVuSans-6f" x="566.597656"/>
      <use xlink:href="#DejaVuSans-20" x="627.779297"/>
      <use xlink:href="#DejaVuSans-72" x="659.566406"/>
      <use xlink:href="#DejaVuSans-65" x="698.429688"/>
      <use xlink:href="#DejaVuSans-61" x="759.953125"/>
      <use xlink:href="#DejaVuSans-6c" x="821.232422"/>
     </g>
    </g>
   </g>
   <g id="line2d_15">
    <path d="M 73.832727 169.927826 
L 91.855375 147.129793 
L 109.9274 163.768342 
L 127.950048 186.87551 
L 145.972695 152.660929 
L 163.995343 174.631321 
L 182.067368 214.312782 
L 200.090016 141.399691 
L 218.112664 160.732088 
L 236.135311 182.729583 
L 254.207336 169.831408 
L 272.229984 185.013537 
L 290.252632 259.493206 
L 308.27528 277.118597 
L 326.347305 164.730047 
L 344.369952 193.321672 
L 362.3926 214.563233 
L 380.415248 242.269313 
L 398.487273 155.405609 
" clip-path="url(#p29b41e70c6)" style="fill: none; stroke: #dcdcdc; stroke-width: 1.5; stroke-linecap: square"/>
   </g>
   <g id="line2d_16">
    <path d="M 73.832727 158.464638 
L 91.855375 146.842384 
L 109.9274 179.39516 
L 127.950048 171.026419 
L 145.972695 166.406999 
L 163.995343 160.101807 
L 182.067368 160.01019 
L 200.090016 184.010588 
L 218.112664 170.325111 
L 236.135311 174.402517 
L 254.207336 201.728497 
L 272.229984 170.970744 
L 290.252632 231.790306 
L 308.27528 285.717219 
L 326.347305 140.935321 
L 344.369952 198.81305 
L 362.3926 227.218333 
L 380.415248 257.408231 
L 398.487273 160.644326 
" clip-path="url(#p29b41e70c6)" style="fill: none; stroke: #dcdcdc; stroke-width: 1.5; stroke-linecap: square"/>
   </g>
   <g id="line2d_17">
    <path d="M 73.832727 205.056031 
L 91.855375 170.807814 
L 109.9274 196.417464 
L 127.950048 138.302119 
L 145.972695 192.859917 
L 163.995343 142.999223 
L 182.067368 218.480567 
L 200.090016 157.914035 
L 218.112664 177.935234 
L 236.135311 211.533286 
L 254.207336 175.162864 
L 272.229984 181.470025 
L 290.252632 252.638779 
L 308.27528 258.865643 
L 326.347305 204.939307 
L 344.369952 204.18339 
L 362.3926 200.479981 
L 380.415248 275.5455 
L 398.487273 173.148649 
" clip-path="url(#p29b41e70c6)" style="fill: none; stroke: #dcdcdc; stroke-width: 1.5; stroke-linecap: square"/>
   </g>
   <g id="line2d_18">
    <path d="M 73.832727 195.041026 
L 91.855375 177.378023 
L 109.9274 201.149439 
L 127.950048 191.99263 
L 145.972695 191.558006 
L 163.995343 179.52612 
L 182.067368 207.774498 
L 200.090016 182.160056 
L 218.112664 173.125956 
L 236.135311 211.387673 
L 254.207336 186.853737 
L 272.229984 208.910961 
L 290.252632 241.021731 
L 308.27528 260.254045 
L 326.347305 214.996132 
L 344.369952 201.800505 
L 362.3926 206.722923 
L 380.415248 269.428825 
L 398.487273 168.369812 
" clip-path="url(#p29b41e70c6)" style="fill: none; stroke: #dcdcdc; stroke-width: 1.5; stroke-linecap: square"/>
   </g>
   <g id="line2d_19">
    <path d="M 73.832727 167.614332 
L 91.855375 184.86832 
L 109.9274 197.430747 
L 127.950048 146.05921 
L 145.972695 200.428237 
L 163.995343 177.591425 
L 182.067368 205.709624 
L 200.090016 121.767898 
L 218.112664 162.909912 
L 236.135311 185.488231 
L 254.207336 165.494733 
L 272.229984 198.686383 
L 290.252632 244.326598 
L 308.27528 248.71671 
L 326.347305 219.826437 
L 344.369952 208.339977 
L 362.3926 214.34038 
L 380.415248 263.393051 
L 398.487273 159.368192 
" clip-path="url(#p29b41e70c6)" style="fill: none; stroke: #dcdcdc; stroke-width: 1.5; stroke-linecap: square"/>
   </g>
   <g id="line2d_20">
    <path d="M 73.832727 249.314471 
L 91.855375 166.916438 
L 109.9274 180.530118 
L 127.950048 174.815112 
L 145.972695 169.359696 
L 163.995343 173.725242 
L 182.067368 204.419585 
L 200.090016 153.694199 
L 218.112664 174.639254 
L 236.135311 184.857429 
L 254.207336 191.154389 
L 272.229984 206.080631 
L 290.252632 268.351978 
L 308.27528 250.038039 
L 326.347305 202.747683 
L 344.369952 198.815414 
L 362.3926 212.032022 
L 380.415248 262.298317 
L 398.487273 190.476546 
" clip-path="url(#p29b41e70c6)" style="fill: none; stroke: #dcdcdc; stroke-width: 1.5; stroke-linecap: square"/>
   </g>
   <g id="line2d_21">
    <path d="M 73.832727 233.526462 
L 91.855375 158.413895 
L 109.9274 189.957224 
L 127.950048 196.009285 
L 145.972695 169.759497 
L 163.995343 150.5158 
L 182.067368 211.367072 
L 200.090016 170.517213 
L 218.112664 175.968621 
L 236.135311 203.870394 
L 254.207336 215.129446 
L 272.229984 172.792346 
L 290.252632 246.760561 
L 308.27528 231.855968 
L 326.347305 183.824307 
L 344.369952 208.04566 
L 362.3926 197.974386 
L 380.415248 264.261415 
L 398.487273 155.680158 
" clip-path="url(#p29b41e70c6)" style="fill: none; stroke: #dcdcdc; stroke-width: 1.5; stroke-linecap: square"/>
   </g>
   <g id="line2d_22">
    <path d="M 73.832727 192.911452 
L 91.855375 154.675735 
L 109.9274 178.657007 
L 127.950048 179.38612 
L 145.972695 157.579062 
L 163.995343 194.954298 
L 182.067368 177.205993 
L 200.090016 165.281545 
L 218.112664 171.701957 
L 236.135311 210.187679 
L 254.207336 208.353352 
L 272.229984 214.079945 
L 290.252632 253.526952 
L 308.27528 269.583961 
L 326.347305 230.686776 
L 344.369952 239.036024 
L 362.3926 183.841776 
L 380.415248 228.706037 
L 398.487273 177.720765 
" clip-path="url(#p29b41e70c6)" style="fill: none; stroke: #dcdcdc; stroke-width: 1.5; stroke-linecap: square"/>
   </g>
   <g id="line2d_23">
    <path d="M 73.832727 196.829169 
L 91.855375 126.481424 
L 109.9274 181.314891 
L 127.950048 192.658866 
L 145.972695 171.40898 
L 163.995343 169.852194 
L 182.067368 219.805583 
L 200.090016 163.260491 
L 218.112664 200.093531 
L 236.135311 195.717651 
L 254.207336 210.172126 
L 272.229984 198.400648 
L 290.252632 250.718622 
L 308.27528 281.670712 
L 326.347305 220.492962 
L 344.369952 194.883809 
L 362.3926 213.833006 
L 380.415248 264.345683 
L 398.487273 186.806707 
" clip-path="url(#p29b41e70c6)" style="fill: none; stroke: #dcdcdc; stroke-width: 1.5; stroke-linecap: square"/>
   </g>
   <g id="line2d_24">
    <path d="M 73.832727 190.036232 
L 91.855375 90.744354 
L 109.9274 211.76499 
L 127.950048 176.416812 
L 145.972695 150.688689 
L 163.995343 205.830017 
L 182.067368 152.972475 
L 200.090016 105.041677 
L 218.112664 172.103025 
L 236.135311 191.050057 
L 254.207336 210.070275 
L 272.229984 190.724787 
L 290.252632 254.300436 
L 308.27528 259.233358 
L 326.347305 166.294699 
L 344.369952 189.573166 
L 362.3926 212.060934 
L 380.415248 263.16673 
L 398.487273 176.352489 
" clip-path="url(#p29b41e70c6)" style="fill: none; stroke: #dcdcdc; stroke-width: 1.5; stroke-linecap: square"/>
   </g>
   <g id="line2d_25">
    <path d="M 73.832727 199.026557 
L 91.855375 159.202988 
L 109.9274 180.766239 
L 127.950048 184.023838 
L 145.972695 167.565068 
L 163.995343 174.88973 
L 182.067368 258.458301 
L 200.090016 132.817754 
L 218.112664 196.840868 
L 236.135311 188.806138 
L 254.207336 216.371067 
L 272.229984 228.817965 
L 290.252632 261.432695 
L 308.27528 240.058222 
L 326.347305 204.548279 
L 344.369952 206.197419 
L 362.3926 225.39839 
L 380.415248 252.22477 
L 398.487273 162.54899 
" clip-path="url(#p29b41e70c6)" style="fill: none; stroke: #dcdcdc; stroke-width: 1.5; stroke-linecap: square"/>
   </g>
   <g id="line2d_26">
    <path d="M 73.832727 188.333008 
L 91.855375 177.458507 
L 109.9274 186.504643 
L 127.950048 138.378666 
L 145.972695 149.955444 
L 163.995343 136.480332 
L 182.067368 293.100308 
L 200.090016 69.741554 
L 218.112664 137.648434 
L 236.135311 224.494583 
L 254.207336 219.879515 
L 272.229984 180.564114 
L 290.252632 238.834988 
L 308.27528 268.577271 
L 326.347305 216.406723 
L 344.369952 190.16879 
L 362.3926 263.684679 
L 380.415248 266.344386 
L 398.487273 170.346548 
" clip-path="url(#p29b41e70c6)" style="fill: none; stroke: #dcdcdc; stroke-width: 1.5; stroke-linecap: square"/>
   </g>
   <g id="line2d_27">
    <path d="M 73.832727 229.630545 
L 91.855375 191.517818 
L 109.9274 193.989537 
L 127.950048 180.506498 
L 145.972695 189.071593 
L 163.995343 185.229461 
L 182.067368 198.507181 
L 200.090016 176.336336 
L 218.112664 197.703459 
L 236.135311 203.7768 
L 254.207336 209.654445 
L 272.229984 205.395717 
L 290.252632 243.875857 
L 308.27528 260.730111 
L 326.347305 239.062085 
L 344.369952 210.099994 
L 362.3926 215.641201 
L 380.415248 246.473389 
L 398.487273 177.143509 
" clip-path="url(#p29b41e70c6)" style="fill: none; stroke: #dcdcdc; stroke-width: 1.5; stroke-linecap: square"/>
   </g>
   <g id="line2d_28">
    <path d="M 73.832727 225.06427 
L 91.855375 158.167707 
L 109.9274 179.737679 
L 127.950048 184.329783 
L 145.972695 146.333045 
L 163.995343 160.781684 
L 182.067368 221.362045 
L 200.090016 149.123139 
L 218.112664 183.473256 
L 236.135311 208.424308 
L 254.207336 192.960169 
L 272.229984 233.117918 
L 290.252632 257.231176 
L 308.27528 245.876888 
L 326.347305 219.360645 
L 344.369952 205.558811 
L 362.3926 204.522874 
L 380.415248 254.535529 
L 398.487273 176.114505 
" clip-path="url(#p29b41e70c6)" style="fill: none; stroke: #dcdcdc; stroke-width: 1.5; stroke-linecap: square"/>
   </g>
   <g id="line2d_29">
    <path d="M 73.832727 178.986927 
L 91.855375 167.861188 
L 109.9274 216.522469 
L 127.950048 201.392071 
L 145.972695 148.491328 
L 163.995343 182.719466 
L 182.067368 239.18208 
L 200.090016 121.948275 
L 218.112664 179.197988 
L 236.135311 223.57945 
L 254.207336 164.57041 
L 272.229984 237.004816 
L 290.252632 251.303389 
L 308.27528 242.959753 
L 326.347305 200.366121 
L 344.369952 208.086452 
L 362.3926 213.915759 
L 380.415248 238.63572 
L 398.487273 187.827082 
" clip-path="url(#p29b41e70c6)" style="fill: none; stroke: #dcdcdc; stroke-width: 1.5; stroke-linecap: square"/>
   </g>
   <g id="line2d_30">
    <path d="M 73.832727 196.565238 
L 91.855375 145.39234 
L 109.9274 201.055303 
L 127.950048 195.858742 
L 145.972695 158.834095 
L 163.995343 206.923292 
L 182.067368 222.558273 
L 200.090016 168.475229 
L 218.112664 186.288518 
L 236.135311 205.647611 
L 254.207336 184.955499 
L 272.229984 196.295994 
L 290.252632 258.545581 
L 308.27528 233.432051 
L 326.347305 183.311386 
L 344.369952 185.13541 
L 362.3926 185.704333 
L 380.415248 246.590553 
L 398.487273 156.377364 
" clip-path="url(#p29b41e70c6)" style="fill: none; stroke: #dcdcdc; stroke-width: 1.5; stroke-linecap: square"/>
   </g>
   <g id="line2d_31">
    <path d="M 73.832727 197.547001 
L 91.855375 189.006906 
L 109.9274 250.662885 
L 127.950048 177.417534 
L 145.972695 154.588393 
L 163.995343 194.883948 
L 182.067368 232.500964 
L 200.090016 152.392518 
L 218.112664 175.820101 
L 236.135311 246.281383 
L 254.207336 133.720272 
L 272.229984 224.66198 
L 290.252632 262.568802 
L 308.27528 241.029447 
L 326.347305 201.75798 
L 344.369952 202.478476 
L 362.3926 211.764416 
L 380.415248 295.488 
L 398.487273 122.960486 
" clip-path="url(#p29b41e70c6)" style="fill: none; stroke: #dcdcdc; stroke-width: 1.5; stroke-linecap: square"/>
   </g>
   <g id="line2d_32">
    <path d="M 73.832727 151.346022 
L 91.855375 235.779521 
L 109.9274 197.177346 
L 127.950048 163.868483 
L 145.972695 177.100475 
L 163.995343 172.370677 
L 182.067368 214.464715 
L 200.090016 103.992196 
L 218.112664 188.949492 
L 236.135311 161.257703 
L 254.207336 153.653543 
L 272.229984 194.827038 
L 290.252632 222.021915 
L 308.27528 244.541643 
L 326.347305 167.537371 
L 344.369952 194.430129 
L 362.3926 228.310278 
L 380.415248 217.623362 
L 398.487273 217.16558 
" clip-path="url(#p29b41e70c6)" style="fill: none; stroke: #dcdcdc; stroke-width: 1.5; stroke-linecap: square"/>
   </g>
   <g id="line2d_33">
    <path d="M 73.832727 194.550237 
L 91.855375 90.372481 
L 109.9274 195.755326 
L 127.950048 155.071392 
L 145.972695 177.538225 
L 163.995343 163.172024 
L 182.067368 198.493657 
L 200.090016 148.440715 
L 218.112664 180.81835 
L 236.135311 165.22124 
L 254.207336 191.838916 
L 272.229984 178.80539 
L 290.252632 238.721868 
L 308.27528 243.446711 
L 326.347305 219.368255 
L 344.369952 217.856321 
L 362.3926 222.615279 
L 380.415248 266.188739 
L 398.487273 150.736694 
" clip-path="url(#p29b41e70c6)" style="fill: none; stroke: #dcdcdc; stroke-width: 1.5; stroke-linecap: square"/>
   </g>
   <g id="line2d_34">
    <path d="M 73.832727 171.373764 
L 91.855375 70.308708 
L 109.9274 174.416315 
L 127.950048 243.829075 
L 145.972695 93.666414 
L 163.995343 148.423637 
L 182.067368 202.999104 
L 200.090016 162.274669 
L 218.112664 166.221704 
L 236.135311 110.268962 
L 254.207336 184.037283 
L 272.229984 178.841213 
L 290.252632 238.580516 
L 308.27528 285.858764 
L 326.347305 92.911988 
L 344.369952 176.356414 
L 362.3926 180.770263 
L 380.415248 219.732947 
L 398.487273 221.978102 
" clip-path="url(#p29b41e70c6)" style="fill: none; stroke: #dcdcdc; stroke-width: 1.5; stroke-linecap: square"/>
   </g>
   <g id="line2d_35">
    <path d="M 73.832727 172.393078 
L 91.855375 152.912451 
L 109.9274 186.826297 
L 127.950048 193.100761 
L 145.972695 164.349888 
L 163.995343 158.882105 
L 182.067368 218.500004 
L 200.090016 132.107195 
L 218.112664 161.225203 
L 236.135311 175.594539 
L 254.207336 186.18761 
L 272.229984 204.729988 
L 290.252632 262.196894 
L 308.27528 251.410095 
L 326.347305 191.979917 
L 344.369952 205.112484 
L 362.3926 199.242192 
L 380.415248 232.331926 
L 398.487273 195.448858 
" clip-path="url(#p29b41e70c6)" style="fill: none; stroke: #dcdcdc; stroke-width: 1.5; stroke-linecap: square"/>
   </g>
   <g id="line2d_36">
    <path d="M 73.832727 210.396267 
L 91.855375 169.424505 
L 109.9274 165.734198 
L 127.950048 166.962763 
L 145.972695 158.085183 
L 163.995343 179.751036 
L 182.067368 169.55872 
L 200.090016 181.763537 
L 218.112664 183.992884 
L 236.135311 214.633618 
L 254.207336 182.463756 
L 272.229984 200.189177 
L 290.252632 226.305306 
L 308.27528 217.32553 
L 326.347305 216.368405 
L 344.369952 204.569933 
L 362.3926 201.324853 
L 380.415248 246.767371 
L 398.487273 192.737491 
" clip-path="url(#p29b41e70c6)" style="fill: none; stroke: #dcdcdc; stroke-width: 1.5; stroke-linecap: square"/>
   </g>
   <g id="line2d_37">
    <path d="M 73.832727 207.775051 
L 91.855375 162.467751 
L 109.9274 189.495665 
L 127.950048 182.620634 
L 145.972695 161.010209 
L 163.995343 172.491514 
L 182.067368 221.31161 
L 200.090016 148.97277 
L 218.112664 182.038423 
L 236.135311 203.835251 
L 254.207336 190.909506 
L 272.229984 215.606175 
L 290.252632 252.53816 
L 308.27528 249.982013 
L 326.347305 207.493725 
L 344.369952 202.360468 
L 362.3926 210.309636 
L 380.415248 252.885927 
L 398.487273 173.899361 
" clip-path="url(#p29b41e70c6)" style="fill: none; stroke: #dcdcdc; stroke-width: 1.5; stroke-linecap: square"/>
   </g>
   <g id="line2d_38">
    <path d="M 73.832727 172.82748 
L 91.855375 113.942599 
L 109.9274 132.323591 
L 127.950048 195.247655 
L 145.972695 171.334082 
L 163.995343 200.484702 
L 182.067368 217.001384 
L 200.090016 128.27191 
L 218.112664 115.392472 
L 236.135311 212.210324 
L 254.207336 180.004525 
L 272.229984 224.5394 
L 290.252632 265.42319 
L 308.27528 281.297978 
L 326.347305 170.677593 
L 344.369952 170.52556 
L 362.3926 201.466529 
L 380.415248 239.901216 
L 398.487273 164.773647 
" clip-path="url(#p29b41e70c6)" style="fill: none; stroke: #dcdcdc; stroke-width: 1.5; stroke-linecap: square"/>
   </g>
   <g id="line2d_39">
    <path d="M 73.832727 199.779198 
L 91.855375 148.636011 
L 109.9274 149.221822 
L 127.950048 133.677937 
L 145.972695 235.996223 
L 163.995343 157.330125 
L 182.067368 164.381128 
L 200.090016 135.204311 
L 218.112664 189.434518 
L 236.135311 176.230575 
L 254.207336 166.309784 
L 272.229984 201.098898 
L 290.252632 226.804341 
L 308.27528 217.861759 
L 326.347305 193.346857 
L 344.369952 168.029358 
L 362.3926 183.438099 
L 380.415248 214.617835 
L 398.487273 136.537762 
" clip-path="url(#p29b41e70c6)" style="fill: none; stroke: #dcdcdc; stroke-width: 1.5; stroke-linecap: square"/>
   </g>
   <g id="line2d_40">
    <path d="M 73.832727 150.349 
L 91.855375 134.494611 
L 109.9274 178.424553 
L 127.950048 155.505232 
L 145.972695 200.101069 
L 163.995343 176.270183 
L 182.067368 255.130553 
L 200.090016 131.610016 
L 218.112664 177.318977 
L 236.135311 191.285309 
L 254.207336 195.077468 
L 272.229984 179.190982 
L 290.252632 227.024266 
L 308.27528 256.798294 
L 326.347305 187.258381 
L 344.369952 188.962806 
L 362.3926 251.336243 
L 380.415248 221.666534 
L 398.487273 182.384938 
" clip-path="url(#p29b41e70c6)" style="fill: none; stroke: #dcdcdc; stroke-width: 1.5; stroke-linecap: square"/>
   </g>
   <g id="line2d_41">
    <path d="M 73.832727 138.600408 
L 91.855375 153.897439 
L 109.9274 159.323583 
L 127.950048 152.583347 
L 145.972695 177.190212 
L 163.995343 191.320937 
L 182.067368 194.710619 
L 200.090016 132.338368 
L 218.112664 182.620901 
L 236.135311 128.426402 
L 254.207336 185.968353 
L 272.229984 204.136617 
L 290.252632 274.446863 
L 308.27528 265.311724 
L 326.347305 203.602556 
L 344.369952 194.94071 
L 362.3926 201.329472 
L 380.415248 253.785585 
L 398.487273 171.235058 
" clip-path="url(#p29b41e70c6)" style="fill: none; stroke: #dcdcdc; stroke-width: 1.5; stroke-linecap: square"/>
   </g>
   <g id="line2d_42">
    <path d="M 73.832727 129.37773 
L 91.855375 151.034099 
L 109.9274 183.723918 
L 127.950048 185.847789 
L 145.972695 170.887441 
L 163.995343 167.57378 
L 182.067368 192.289635 
L 200.090016 53.568 
L 218.112664 132.67014 
L 236.135311 174.641789 
L 254.207336 195.89341 
L 272.229984 160.565945 
L 290.252632 224.844908 
L 308.27528 261.042334 
L 326.347305 186.064425 
L 344.369952 199.94667 
L 362.3926 166.938933 
L 380.415248 250.192392 
L 398.487273 120.611289 
" clip-path="url(#p29b41e70c6)" style="fill: none; stroke: #dcdcdc; stroke-width: 1.5; stroke-linecap: square"/>
   </g>
   <g id="line2d_43">
    <path d="M 73.832727 229.630545 
L 91.855375 191.517818 
L 109.9274 193.989537 
L 127.950048 180.506498 
L 145.972695 189.071593 
L 163.995343 185.229461 
L 182.067368 198.507181 
L 200.090016 176.336336 
L 218.112664 197.703459 
L 236.135311 203.7768 
L 254.207336 209.654445 
L 272.229984 205.395717 
L 290.252632 243.875857 
L 308.27528 260.730111 
L 326.347305 239.062085 
L 344.369952 210.099994 
L 362.3926 215.641201 
L 380.415248 246.473389 
L 398.487273 177.143509 
" clip-path="url(#p29b41e70c6)" style="fill: none; stroke: #008080; stroke-width: 1.5; stroke-linecap: square"/>
   </g>
   <g id="line2d_44">
    <path d="M 73.832727 207.775051 
L 91.855375 162.467751 
L 109.9274 189.495665 
L 127.950048 182.620634 
L 145.972695 161.010209 
L 163.995343 172.491514 
L 182.067368 221.31161 
L 200.090016 148.97277 
L 218.112664 182.038423 
L 236.135311 203.835251 
L 254.207336 190.909506 
L 272.229984 215.606175 
L 290.252632 252.53816 
L 308.27528 249.982013 
L 326.347305 207.493725 
L 344.369952 202.360468 
L 362.3926 210.309636 
L 380.415248 252.885927 
L 398.487273 173.899361 
" clip-path="url(#p29b41e70c6)" style="fill: none; stroke: #ffd700; stroke-width: 1.5; stroke-linecap: square"/>
   </g>
   <g id="line2d_45">
    <path d="M 73.832727 187.587717 
L 91.855375 153.098817 
L 109.9274 185.65004 
L 127.950048 176.338654 
L 145.972695 169.029563 
L 163.995343 173.600539 
L 182.067368 209.824335 
L 200.090016 141.683449 
L 218.112664 173.153776 
L 236.135311 191.185379 
L 254.207336 188.055439 
L 272.229984 198.515302 
L 290.252632 247.521916 
L 308.27528 254.837512 
L 326.347305 194.200098 
L 344.369952 198.713645 
L 362.3926 208.906325 
L 380.415248 250.14531 
L 398.487273 170.774117 
" clip-path="url(#p29b41e70c6)" style="fill: none; stroke-dasharray: 5.55,2.4; stroke-dashoffset: 0; stroke: #dc143c; stroke-width: 1.5"/>
   </g>
   <g id="patch_3">
    <path d="M 57.6 307.584 
L 57.6 41.472 
" style="fill: none; stroke: #000000; stroke-width: 0.8; stroke-linejoin: miter; stroke-linecap: square"/>
   </g>
   <g id="patch_4">
    <path d="M 414.72 307.584 
L 414.72 41.472 
" style="fill: none; stroke: #000000; stroke-width: 0.8; stroke-linejoin: miter; stroke-linecap: square"/>
   </g>
   <g id="patch_5">
    <path d="M 57.6 307.584 
L 414.72 307.584 
" style="fill: none; stroke: #000000; stroke-width: 0.8; stroke-linejoin: miter; stroke-linecap: square"/>
   </g>
   <g id="patch_6">
    <path d="M 57.6 41.472 
L 414.72 41.472 
" style="fill: none; stroke: #000000; stroke-width: 0.8; stroke-linejoin: miter; stroke-linecap: square"/>
   </g>
   <g id="text_17">
    <!-- Média Móvel de 3 anos da Taxa de Crescimento da Ind. de Transformação -->
    <g transform="translate(15.229688 35.472) scale(0.12 -0.12)">
     <defs>
      <path id="DejaVuSans-4d" d="M 628 4666 
L 1569 4666 
L 2759 1491 
L 3956 4666 
L 4897 4666 
L 4897 0 
L 4281 0 
L 4281 4097 
L 3078 897 
L 2444 897 
L 1241 4097 
L 1241 0 
L 628 0 
L 628 4666 
z
" transform="scale(0.015625)"/>
      <path id="DejaVuSans-e9" d="M 3597 1894 
L 3597 1613 
L 953 1613 
Q 991 1019 1311 708 
Q 1631 397 2203 397 
Q 2534 397 2845 478 
Q 3156 559 3463 722 
L 3463 178 
Q 3153 47 2828 -22 
Q 2503 -91 2169 -91 
Q 1331 -91 842 396 
Q 353 884 353 1716 
Q 353 2575 817 3079 
Q 1281 3584 2069 3584 
Q 2775 3584 3186 3129 
Q 3597 2675 3597 1894 
z
M 3022 2063 
Q 3016 2534 2758 2815 
Q 2500 3097 2075 3097 
Q 1594 3097 1305 2825 
Q 1016 2553 972 2059 
L 3022 2063 
z
M 2466 5119 
L 3088 5119 
L 2070 3944 
L 1591 3944 
L 2466 5119 
z
" transform="scale(0.015625)"/>
      <path id="DejaVuSans-64" d="M 2906 2969 
L 2906 4863 
L 3481 4863 
L 3481 0 
L 2906 0 
L 2906 525 
Q 2725 213 2448 61 
Q 2172 -91 1784 -91 
Q 1150 -91 751 415 
Q 353 922 353 1747 
Q 353 2572 751 3078 
Q 1150 3584 1784 3584 
Q 2172 3584 2448 3432 
Q 2725 3281 2906 2969 
z
M 947 1747 
Q 947 1113 1208 752 
Q 1469 391 1925 391 
Q 2381 391 2643 752 
Q 2906 1113 2906 1747 
Q 2906 2381 2643 2742 
Q 2381 3103 1925 3103 
Q 1469 3103 1208 2742 
Q 947 2381 947 1747 
z
" transform="scale(0.015625)"/>
      <path id="DejaVuSans-f3" d="M 1959 3097 
Q 1497 3097 1228 2736 
Q 959 2375 959 1747 
Q 959 1119 1226 758 
Q 1494 397 1959 397 
Q 2419 397 2687 759 
Q 2956 1122 2956 1747 
Q 2956 2369 2687 2733 
Q 2419 3097 1959 3097 
z
M 1959 3584 
Q 2709 3584 3137 3096 
Q 3566 2609 3566 1747 
Q 3566 888 3137 398 
Q 2709 -91 1959 -91 
Q 1206 -91 779 398 
Q 353 888 353 1747 
Q 353 2609 779 3096 
Q 1206 3584 1959 3584 
z
M 2394 5119 
L 3016 5119 
L 1998 3944 
L 1519 3944 
L 2394 5119 
z
" transform="scale(0.015625)"/>
      <path id="DejaVuSans-76" d="M 191 3500 
L 800 3500 
L 1894 563 
L 2988 3500 
L 3597 3500 
L 2284 0 
L 1503 0 
L 191 3500 
z
" transform="scale(0.015625)"/>
      <path id="DejaVuSans-33" d="M 2597 2516 
Q 3050 2419 3304 2112 
Q 3559 1806 3559 1356 
Q 3559 666 3084 287 
Q 2609 -91 1734 -91 
Q 1441 -91 1130 -33 
Q 819 25 488 141 
L 488 750 
Q 750 597 1062 519 
Q 1375 441 1716 441 
Q 2309 441 2620 675 
Q 2931 909 2931 1356 
Q 2931 1769 2642 2001 
Q 2353 2234 1838 2234 
L 1294 2234 
L 1294 2753 
L 1863 2753 
Q 2328 2753 2575 2939 
Q 2822 3125 2822 3475 
Q 2822 3834 2567 4026 
Q 2313 4219 1838 4219 
Q 1578 4219 1281 4162 
Q 984 4106 628 3988 
L 628 4550 
Q 988 4650 1302 4700 
Q 1616 4750 1894 4750 
Q 2613 4750 3031 4423 
Q 3450 4097 3450 3541 
Q 3450 3153 3228 2886 
Q 3006 2619 2597 2516 
z
" transform="scale(0.015625)"/>
      <path id="DejaVuSans-54" d="M -19 4666 
L 3928 4666 
L 3928 4134 
L 2272 4134 
L 2272 0 
L 1638 0 
L 1638 4134 
L -19 4134 
L -19 4666 
z
" transform="scale(0.015625)"/>
      <path id="DejaVuSans-78" d="M 3513 3500 
L 2247 1797 
L 3578 0 
L 2900 0 
L 1881 1375 
L 863 0 
L 184 0 
L 1544 1831 
L 300 3500 
L 978 3500 
L 1906 2253 
L 2834 3500 
L 3513 3500 
z
" transform="scale(0.015625)"/>
      <path id="DejaVuSans-49" d="M 628 4666 
L 1259 4666 
L 1259 0 
L 628 0 
L 628 4666 
z
" transform="scale(0.015625)"/>
      <path id="DejaVuSans-66" d="M 2375 4863 
L 2375 4384 
L 1825 4384 
Q 1516 4384 1395 4259 
Q 1275 4134 1275 3809 
L 1275 3500 
L 2222 3500 
L 2222 3053 
L 1275 3053 
L 1275 0 
L 697 0 
L 697 3053 
L 147 3053 
L 147 3500 
L 697 3500 
L 697 3744 
Q 697 4328 969 4595 
Q 1241 4863 1831 4863 
L 2375 4863 
z
" transform="scale(0.015625)"/>
      <path id="DejaVuSans-e7" d="M 3122 3366 
L 3122 2828 
Q 2878 2963 2633 3030 
Q 2388 3097 2138 3097 
Q 1578 3097 1268 2742 
Q 959 2388 959 1747 
Q 959 1106 1268 751 
Q 1578 397 2138 397 
Q 2388 397 2633 464 
Q 2878 531 3122 666 
L 3122 134 
Q 2881 22 2623 -34 
Q 2366 -91 2075 -91 
Q 1284 -91 818 406 
Q 353 903 353 1747 
Q 353 2603 823 3093 
Q 1294 3584 2113 3584 
Q 2378 3584 2631 3529 
Q 2884 3475 3122 3366 
z
M 2311 0 
Q 2482 -194 2566 -358 
Q 2651 -522 2651 -672 
Q 2651 -950 2463 -1092 
Q 2276 -1234 1907 -1234 
Q 1764 -1234 1628 -1215 
Q 1492 -1197 1357 -1159 
L 1357 -750 
Q 1464 -803 1579 -826 
Q 1695 -850 1842 -850 
Q 2026 -850 2120 -775 
Q 2214 -700 2214 -556 
Q 2214 -463 2146 -327 
Q 2079 -191 1939 0 
L 2311 0 
z
" transform="scale(0.015625)"/>
      <path id="DejaVuSans-e3" d="M 2194 1759 
Q 1497 1759 1228 1600 
Q 959 1441 959 1056 
Q 959 750 1161 570 
Q 1363 391 1709 391 
Q 2188 391 2477 730 
Q 2766 1069 2766 1631 
L 2766 1759 
L 2194 1759 
z
M 3341 1997 
L 3341 0 
L 2766 0 
L 2766 531 
Q 2569 213 2275 61 
Q 1981 -91 1556 -91 
Q 1019 -91 701 211 
Q 384 513 384 1019 
Q 384 1609 779 1909 
Q 1175 2209 1959 2209 
L 2766 2209 
L 2766 2266 
Q 2766 2663 2505 2880 
Q 2244 3097 1772 3097 
Q 1472 3097 1187 3025 
Q 903 2953 641 2809 
L 641 3341 
Q 956 3463 1253 3523 
Q 1550 3584 1831 3584 
Q 2591 3584 2966 3190 
Q 3341 2797 3341 1997 
z
M 1844 4281 
L 1665 4453 
Q 1597 4516 1545 4545 
Q 1494 4575 1453 4575 
Q 1334 4575 1278 4461 
Q 1222 4347 1215 4091 
L 825 4091 
Q 831 4513 990 4742 
Q 1150 4972 1434 4972 
Q 1553 4972 1653 4928 
Q 1753 4884 1869 4781 
L 2047 4609 
Q 2115 4547 2167 4517 
Q 2219 4488 2259 4488 
Q 2378 4488 2434 4602 
Q 2490 4716 2497 4972 
L 2887 4972 
Q 2881 4550 2721 4320 
Q 2562 4091 2278 4091 
Q 2159 4091 2059 4134 
Q 1959 4178 1844 4281 
z
" transform="scale(0.015625)"/>
     </defs>
     <use xlink:href="#DejaVuSans-4d"/>
     <use xlink:href="#DejaVuSans-e9" x="86.279297"/>
     <use xlink:href="#DejaVuSans-64" x="147.802734"/>
     <use xlink:href="#DejaVuSans-69" x="211.279297"/>
     <use xlink:href="#DejaVuSans-61" x="239.0625"/>
     <use xlink:href="#DejaVuSans-20" x="300.341797"/>
     <use xlink:href="#DejaVuSans-4d" x="332.128906"/>
     <use xlink:href="#DejaVuSans-f3" x="418.408203"/>
     <use xlink:href="#DejaVuSans-76" x="479.589844"/>
     <use xlink:href="#DejaVuSans-65" x="538.769531"/>
     <use xlink:href="#DejaVuSans-6c" x="600.292969"/>
     <use xlink:href="#DejaVuSans-20" x="628.076172"/>
     <use xlink:href="#DejaVuSans-64" x="659.863281"/>
     <use xlink:href="#DejaVuSans-65" x="723.339844"/>
     <use xlink:href="#DejaVuSans-20" x="784.863281"/>
     <use xlink:href="#DejaVuSans-33" x="816.650391"/>
     <use xlink:href="#DejaVuSans-20" x="880.273438"/>
     <use xlink:href="#DejaVuSans-61" x="912.060547"/>
     <use xlink:href="#DejaVuSans-6e" x="973.339844"/>
     <use xlink:href="#DejaVuSans-6f" x="1036.71875"/>
     <use xlink:href="#DejaVuSans-73" x="1097.900391"/>
     <use xlink:href="#DejaVuSans-20" x="1150"/>
     <use xlink:href="#DejaVuSans-64" x="1181.787109"/>
     <use xlink:href="#DejaVuSans-61" x="1245.263672"/>
     <use xlink:href="#DejaVuSans-20" x="1306.542969"/>
     <use xlink:href="#DejaVuSans-54" x="1338.330078"/>
     <use xlink:href="#DejaVuSans-61" x="1382.914062"/>
     <use xlink:href="#DejaVuSans-78" x="1444.193359"/>
     <use xlink:href="#DejaVuSans-61" x="1503.373047"/>
     <use xlink:href="#DejaVuSans-20" x="1564.652344"/>
     <use xlink:href="#DejaVuSans-64" x="1596.439453"/>
     <use xlink:href="#DejaVuSans-65" x="1659.916016"/>
     <use xlink:href="#DejaVuSans-20" x="1721.439453"/>
     <use xlink:href="#DejaVuSans-43" x="1753.226562"/>
     <use xlink:href="#DejaVuSans-72" x="1823.050781"/>
     <use xlink:href="#DejaVuSans-65" x="1861.914062"/>
     <use xlink:href="#DejaVuSans-73" x="1923.4375"/>
     <use xlink:href="#DejaVuSans-63" x="1975.537109"/>
     <use xlink:href="#DejaVuSans-69" x="2030.517578"/>
     <use xlink:href="#DejaVuSans-6d" x="2058.300781"/>
     <use xlink:href="#DejaVuSans-65" x="2155.712891"/>
     <use xlink:href="#DejaVuSans-6e" x="2217.236328"/>
     <use xlink:href="#DejaVuSans-74" x="2280.615234"/>
     <use xlink:href="#DejaVuSans-6f" x="2319.824219"/>
     <use xlink:href="#DejaVuSans-20" x="2381.005859"/>
     <use xlink:href="#DejaVuSans-64" x="2412.792969"/>
     <use xlink:href="#DejaVuSans-61" x="2476.269531"/>
     <use xlink:href="#DejaVuSans-20" x="2537.548828"/>
     <use xlink:href="#DejaVuSans-49" x="2569.335938"/>
     <use xlink:href="#DejaVuSans-6e" x="2598.828125"/>
     <use xlink:href="#DejaVuSans-64" x="2662.207031"/>
     <use xlink:href="#DejaVuSans-2e" x="2725.683594"/>
     <use xlink:href="#DejaVuSans-20" x="2757.470703"/>
     <use xlink:href="#DejaVuSans-64" x="2789.257812"/>
     <use xlink:href="#DejaVuSans-65" x="2852.734375"/>
     <use xlink:href="#DejaVuSans-20" x="2914.257812"/>
     <use xlink:href="#DejaVuSans-54" x="2946.044922"/>
     <use xlink:href="#DejaVuSans-72" x="2992.378906"/>
     <use xlink:href="#DejaVuSans-61" x="3033.492188"/>
     <use xlink:href="#DejaVuSans-6e" x="3094.771484"/>
     <use xlink:href="#DejaVuSans-73" x="3158.150391"/>
     <use xlink:href="#DejaVuSans-66" x="3210.25"/>
     <use xlink:href="#DejaVuSans-6f" x="3245.455078"/>
     <use xlink:href="#DejaVuSans-72" x="3306.636719"/>
     <use xlink:href="#DejaVuSans-6d" x="3346"/>
     <use xlink:href="#DejaVuSans-61" x="3443.412109"/>
     <use xlink:href="#DejaVuSans-e7" x="3504.691406"/>
     <use xlink:href="#DejaVuSans-e3" x="3559.671875"/>
     <use xlink:href="#DejaVuSans-6f" x="3620.951172"/>
    </g>
   </g>
   <g id="legend_1">
    <g id="patch_7">
     <path d="M 64.6 302.584 
L 158.235938 302.584 
Q 160.235938 302.584 160.235938 300.584 
L 160.235938 257.549625 
Q 160.235938 255.549625 158.235938 255.549625 
L 64.6 255.549625 
Q 62.6 255.549625 62.6 257.549625 
L 62.6 300.584 
Q 62.6 302.584 64.6 302.584 
z
" style="fill: #ffffff; opacity: 0.8; stroke: #cccccc; stroke-linejoin: miter"/>
    </g>
    <g id="line2d_46">
     <path d="M 66.6 263.648062 
L 76.6 263.648062 
L 86.6 263.648062 
" style="fill: none; stroke: #008080; stroke-width: 1.5; stroke-linecap: square"/>
    </g>
    <g id="text_18">
     <!-- RJ -->
     <g transform="translate(94.6 267.148062) scale(0.1 -0.1)">
      <defs>
       <path id="DejaVuSans-52" d="M 2841 2188 
Q 3044 2119 3236 1894 
Q 3428 1669 3622 1275 
L 4263 0 
L 3584 0 
L 2988 1197 
Q 2756 1666 2539 1819 
Q 2322 1972 1947 1972 
L 1259 1972 
L 1259 0 
L 628 0 
L 628 4666 
L 2053 4666 
Q 2853 4666 3247 4331 
Q 3641 3997 3641 3322 
Q 3641 2881 3436 2590 
Q 3231 2300 2841 2188 
z
M 1259 4147 
L 1259 2491 
L 2053 2491 
Q 2509 2491 2742 2702 
Q 2975 2913 2975 3322 
Q 2975 3731 2742 3939 
Q 2509 4147 2053 4147 
L 1259 4147 
z
" transform="scale(0.015625)"/>
       <path id="DejaVuSans-4a" d="M 628 4666 
L 1259 4666 
L 1259 325 
Q 1259 -519 939 -900 
Q 619 -1281 -91 -1281 
L -331 -1281 
L -331 -750 
L -134 -750 
Q 284 -750 456 -515 
Q 628 -281 628 325 
L 628 4666 
z
" transform="scale(0.015625)"/>
      </defs>
      <use xlink:href="#DejaVuSans-52"/>
      <use xlink:href="#DejaVuSans-4a" x="69.482422"/>
     </g>
    </g>
    <g id="line2d_47">
     <path d="M 66.6 278.326188 
L 76.6 278.326188 
L 86.6 278.326188 
" style="fill: none; stroke: #ffd700; stroke-width: 1.5; stroke-linecap: square"/>
    </g>
    <g id="text_19">
     <!-- BR -->
     <g transform="translate(94.6 281.826188) scale(0.1 -0.1)">
      <defs>
       <path id="DejaVuSans-42" d="M 1259 2228 
L 1259 519 
L 2272 519 
Q 2781 519 3026 730 
Q 3272 941 3272 1375 
Q 3272 1813 3026 2020 
Q 2781 2228 2272 2228 
L 1259 2228 
z
M 1259 4147 
L 1259 2741 
L 2194 2741 
Q 2656 2741 2882 2914 
Q 3109 3088 3109 3444 
Q 3109 3797 2882 3972 
Q 2656 4147 2194 4147 
L 1259 4147 
z
M 628 4666 
L 2241 4666 
Q 2963 4666 3353 4366 
Q 3744 4066 3744 3513 
Q 3744 3084 3544 2831 
Q 3344 2578 2956 2516 
Q 3422 2416 3680 2098 
Q 3938 1781 3938 1306 
Q 3938 681 3513 340 
Q 3088 0 2303 0 
L 628 0 
L 628 4666 
z
" transform="scale(0.015625)"/>
      </defs>
      <use xlink:href="#DejaVuSans-42"/>
      <use xlink:href="#DejaVuSans-52" x="68.603516"/>
     </g>
    </g>
    <g id="line2d_48">
     <path d="M 66.6 293.004312 
L 76.6 293.004312 
L 86.6 293.004312 
" style="fill: none; stroke-dasharray: 5.55,2.4; stroke-dashoffset: 0; stroke: #dc143c; stroke-width: 1.5"/>
    </g>
    <g id="text_20">
     <!-- Média Anual -->
     <g transform="translate(94.6 296.504312) scale(0.1 -0.1)">
      <defs>
       <path id="DejaVuSans-75" d="M 544 1381 
L 544 3500 
L 1119 3500 
L 1119 1403 
Q 1119 906 1312 657 
Q 1506 409 1894 409 
Q 2359 409 2629 706 
Q 2900 1003 2900 1516 
L 2900 3500 
L 3475 3500 
L 3475 0 
L 2900 0 
L 2900 538 
Q 2691 219 2414 64 
Q 2138 -91 1772 -91 
Q 1169 -91 856 284 
Q 544 659 544 1381 
z
M 1991 3584 
L 1991 3584 
z
" transform="scale(0.015625)"/>
      </defs>
      <use xlink:href="#DejaVuSans-4d"/>
      <use xlink:href="#DejaVuSans-e9" x="86.279297"/>
      <use xlink:href="#DejaVuSans-64" x="147.802734"/>
      <use xlink:href="#DejaVuSans-69" x="211.279297"/>
      <use xlink:href="#DejaVuSans-61" x="239.0625"/>
      <use xlink:href="#DejaVuSans-20" x="300.341797"/>
      <use xlink:href="#DejaVuSans-41" x="332.128906"/>
      <use xlink:href="#DejaVuSans-6e" x="400.537109"/>
      <use xlink:href="#DejaVuSans-75" x="463.916016"/>
      <use xlink:href="#DejaVuSans-61" x="527.294922"/>
      <use xlink:href="#DejaVuSans-6c" x="588.574219"/>
     </g>
    </g>
   </g>
  </g>
 </g>
 <defs>
  <clipPath id="p29b41e70c6">
   <rect x="57.6" y="41.472" width="357.12" height="266.112"/>
  </clipPath>
 </defs>
</svg>
