<?xml version="1.0" encoding="utf-8" standalone="no"?>
<!DOCTYPE svg PUBLIC "-//W3C//DTD SVG 1.1//EN"
  "http://www.w3.org/Graphics/SVG/1.1/DTD/svg11.dtd">
<svg xmlns:xlink="http://www.w3.org/1999/xlink" width="460.8pt" height="345.6pt" viewBox="0 0 460.8 345.6" xmlns="http://www.w3.org/2000/svg" version="1.1">
 <metadata>
  <rdf:RDF xmlns:dc="http://purl.org/dc/elements/1.1/" xmlns:cc="http://creativecommons.org/ns#" xmlns:rdf="http://www.w3.org/1999/02/22-rdf-syntax-ns#">
   <cc:Work>
    <dc:type rdf:resource="http://purl.org/dc/dcmitype/StillImage"/>
    <dc:date>2024-09-06T15:44:05.275105</dc:date>
    <dc:format>image/svg+xml</dc:format>
    <dc:creator>
     <cc:Agent>
      <dc:title>Matplotlib v3.9.2, https://matplotlib.org/</dc:title>
     </cc:Agent>
    </dc:creator>
   </cc:Work>
  </rdf:RDF>
 </metadata>
 <defs>
  <style type="text/css">*{stroke-linejoin: round; stroke-linecap: butt}</style>
 </defs>
 <g id="figure_1">
  <g id="patch_1">
   <path d="M 0 345.6 
L 460.8 345.6 
L 460.8 0 
L 0 0 
z
" style="fill: #ffffff"/>
  </g>
  <g id="axes_1">
   <g id="patch_2">
    <path d="M 57.6 307.584 
L 414.72 307.584 
L 414.72 41.472 
L 57.6 41.472 
z
" style="fill: #ffffff"/>
   </g>
   <g id="matplotlib.axis_1">
    <g id="xtick_1">
     <g id="line2d_1">
      <defs>
       <path id="maf5d23c83f" d="M 0 0 
L 0 3.5 
" style="stroke: #000000; stroke-width: 0.8"/>
      </defs>
      <g>
       <use xlink:href="#maf5d23c83f" x="73.832727" y="307.584" style="stroke: #000000; stroke-width: 0.8"/>
      </g>
     </g>
     <g id="text_1">
      <!-- 2004 -->
      <g transform="translate(61.107727 322.182437) scale(0.1 -0.1)">
       <defs>
        <path id="DejaVuSans-32" d="M 1228 531 
L 3431 531 
L 3431 0 
L 469 0 
L 469 531 
Q 828 903 1448 1529 
Q 2069 2156 2228 2338 
Q 2531 2678 2651 2914 
Q 2772 3150 2772 3378 
Q 2772 3750 2511 3984 
Q 2250 4219 1831 4219 
Q 1534 4219 1204 4116 
Q 875 4013 500 3803 
L 500 4441 
Q 881 4594 1212 4672 
Q 1544 4750 1819 4750 
Q 2544 4750 2975 4387 
Q 3406 4025 3406 3419 
Q 3406 3131 3298 2873 
Q 3191 2616 2906 2266 
Q 2828 2175 2409 1742 
Q 1991 1309 1228 531 
z
" transform="scale(0.015625)"/>
        <path id="DejaVuSans-30" d="M 2034 4250 
Q 1547 4250 1301 3770 
Q 1056 3291 1056 2328 
Q 1056 1369 1301 889 
Q 1547 409 2034 409 
Q 2525 409 2770 889 
Q 3016 1369 3016 2328 
Q 3016 3291 2770 3770 
Q 2525 4250 2034 4250 
z
M 2034 4750 
Q 2819 4750 3233 4129 
Q 3647 3509 3647 2328 
Q 3647 1150 3233 529 
Q 2819 -91 2034 -91 
Q 1250 -91 836 529 
Q 422 1150 422 2328 
Q 422 3509 836 4129 
Q 1250 4750 2034 4750 
z
" transform="scale(0.015625)"/>
        <path id="DejaVuSans-34" d="M 2419 4116 
L 825 1625 
L 2419 1625 
L 2419 4116 
z
M 2253 4666 
L 3047 4666 
L 3047 1625 
L 3713 1625 
L 3713 1100 
L 3047 1100 
L 3047 0 
L 2419 0 
L 2419 1100 
L 313 1100 
L 313 1709 
L 2253 4666 
z
" transform="scale(0.015625)"/>
       </defs>
       <use xlink:href="#DejaVuSans-32"/>
       <use xlink:href="#DejaVuSans-30" x="63.623047"/>
       <use xlink:href="#DejaVuSans-30" x="127.246094"/>
       <use xlink:href="#DejaVuSans-34" x="190.869141"/>
      </g>
     </g>
    </g>
    <g id="xtick_2">
     <g id="line2d_2">
      <g>
       <use xlink:href="#maf5d23c83f" x="114.442322" y="307.584" style="stroke: #000000; stroke-width: 0.8"/>
      </g>
     </g>
     <g id="text_2">
      <!-- 2006 -->
      <g transform="translate(101.717322 322.182437) scale(0.1 -0.1)">
       <defs>
        <path id="DejaVuSans-36" d="M 2113 2584 
Q 1688 2584 1439 2293 
Q 1191 2003 1191 1497 
Q 1191 994 1439 701 
Q 1688 409 2113 409 
Q 2538 409 2786 701 
Q 3034 994 3034 1497 
Q 3034 2003 2786 2293 
Q 2538 2584 2113 2584 
z
M 3366 4563 
L 3366 3988 
Q 3128 4100 2886 4159 
Q 2644 4219 2406 4219 
Q 1781 4219 1451 3797 
Q 1122 3375 1075 2522 
Q 1259 2794 1537 2939 
Q 1816 3084 2150 3084 
Q 2853 3084 3261 2657 
Q 3669 2231 3669 1497 
Q 3669 778 3244 343 
Q 2819 -91 2113 -91 
Q 1303 -91 875 529 
Q 447 1150 447 2328 
Q 447 3434 972 4092 
Q 1497 4750 2381 4750 
Q 2619 4750 2861 4703 
Q 3103 4656 3366 4563 
z
" transform="scale(0.015625)"/>
       </defs>
       <use xlink:href="#DejaVuSans-32"/>
       <use xlink:href="#DejaVuSans-30" x="63.623047"/>
       <use xlink:href="#DejaVuSans-30" x="127.246094"/>
       <use xlink:href="#DejaVuSans-36" x="190.869141"/>
      </g>
     </g>
    </g>
    <g id="xtick_3">
     <g id="line2d_3">
      <g>
       <use xlink:href="#maf5d23c83f" x="154.996364" y="307.584" style="stroke: #000000; stroke-width: 0.8"/>
      </g>
     </g>
     <g id="text_3">
      <!-- 2008 -->
      <g transform="translate(142.271364 322.182437) scale(0.1 -0.1)">
       <defs>
        <path id="DejaVuSans-38" d="M 2034 2216 
Q 1584 2216 1326 1975 
Q 1069 1734 1069 1313 
Q 1069 891 1326 650 
Q 1584 409 2034 409 
Q 2484 409 2743 651 
Q 3003 894 3003 1313 
Q 3003 1734 2745 1975 
Q 2488 2216 2034 2216 
z
M 1403 2484 
Q 997 2584 770 2862 
Q 544 3141 544 3541 
Q 544 4100 942 4425 
Q 1341 4750 2034 4750 
Q 2731 4750 3128 4425 
Q 3525 4100 3525 3541 
Q 3525 3141 3298 2862 
Q 3072 2584 2669 2484 
Q 3125 2378 3379 2068 
Q 3634 1759 3634 1313 
Q 3634 634 3220 271 
Q 2806 -91 2034 -91 
Q 1263 -91 848 271 
Q 434 634 434 1313 
Q 434 1759 690 2068 
Q 947 2378 1403 2484 
z
M 1172 3481 
Q 1172 3119 1398 2916 
Q 1625 2713 2034 2713 
Q 2441 2713 2670 2916 
Q 2900 3119 2900 3481 
Q 2900 3844 2670 4047 
Q 2441 4250 2034 4250 
Q 1625 4250 1398 4047 
Q 1172 3844 1172 3481 
z
" transform="scale(0.015625)"/>
       </defs>
       <use xlink:href="#DejaVuSans-32"/>
       <use xlink:href="#DejaVuSans-30" x="63.623047"/>
       <use xlink:href="#DejaVuSans-30" x="127.246094"/>
       <use xlink:href="#DejaVuSans-38" x="190.869141"/>
      </g>
     </g>
    </g>
    <g id="xtick_4">
     <g id="line2d_4">
      <g>
       <use xlink:href="#maf5d23c83f" x="195.605959" y="307.584" style="stroke: #000000; stroke-width: 0.8"/>
      </g>
     </g>
     <g id="text_4">
      <!-- 2010 -->
      <g transform="translate(182.880959 322.182437) scale(0.1 -0.1)">
       <defs>
        <path id="DejaVuSans-31" d="M 794 531 
L 1825 531 
L 1825 4091 
L 703 3866 
L 703 4441 
L 1819 4666 
L 2450 4666 
L 2450 531 
L 3481 531 
L 3481 0 
L 794 0 
L 794 531 
z
" transform="scale(0.015625)"/>
       </defs>
       <use xlink:href="#DejaVuSans-32"/>
       <use xlink:href="#DejaVuSans-30" x="63.623047"/>
       <use xlink:href="#DejaVuSans-31" x="127.246094"/>
       <use xlink:href="#DejaVuSans-30" x="190.869141"/>
      </g>
     </g>
    </g>
    <g id="xtick_5">
     <g id="line2d_5">
      <g>
       <use xlink:href="#maf5d23c83f" x="236.16" y="307.584" style="stroke: #000000; stroke-width: 0.8"/>
      </g>
     </g>
     <g id="text_5">
      <!-- 2012 -->
      <g transform="translate(223.435 322.182437) scale(0.1 -0.1)">
       <use xlink:href="#DejaVuSans-32"/>
       <use xlink:href="#DejaVuSans-30" x="63.623047"/>
       <use xlink:href="#DejaVuSans-31" x="127.246094"/>
       <use xlink:href="#DejaVuSans-32" x="190.869141"/>
      </g>
     </g>
    </g>
    <g id="xtick_6">
     <g id="line2d_6">
      <g>
       <use xlink:href="#maf5d23c83f" x="276.769595" y="307.584" style="stroke: #000000; stroke-width: 0.8"/>
      </g>
     </g>
     <g id="text_6">
      <!-- 2014 -->
      <g transform="translate(264.044595 322.182437) scale(0.1 -0.1)">
       <use xlink:href="#DejaVuSans-32"/>
       <use xlink:href="#DejaVuSans-30" x="63.623047"/>
       <use xlink:href="#DejaVuSans-31" x="127.246094"/>
       <use xlink:href="#DejaVuSans-34" x="190.869141"/>
      </g>
     </g>
    </g>
    <g id="xtick_7">
     <g id="line2d_7">
      <g>
       <use xlink:href="#maf5d23c83f" x="317.323636" y="307.584" style="stroke: #000000; stroke-width: 0.8"/>
      </g>
     </g>
     <g id="text_7">
      <!-- 2016 -->
      <g transform="translate(304.598636 322.182437) scale(0.1 -0.1)">
       <use xlink:href="#DejaVuSans-32"/>
       <use xlink:href="#DejaVuSans-30" x="63.623047"/>
       <use xlink:href="#DejaVuSans-31" x="127.246094"/>
       <use xlink:href="#DejaVuSans-36" x="190.869141"/>
      </g>
     </g>
    </g>
    <g id="xtick_8">
     <g id="line2d_8">
      <g>
       <use xlink:href="#maf5d23c83f" x="357.933231" y="307.584" style="stroke: #000000; stroke-width: 0.8"/>
      </g>
     </g>
     <g id="text_8">
      <!-- 2018 -->
      <g transform="translate(345.208231 322.182437) scale(0.1 -0.1)">
       <use xlink:href="#DejaVuSans-32"/>
       <use xlink:href="#DejaVuSans-30" x="63.623047"/>
       <use xlink:href="#DejaVuSans-31" x="127.246094"/>
       <use xlink:href="#DejaVuSans-38" x="190.869141"/>
      </g>
     </g>
    </g>
    <g id="xtick_9">
     <g id="line2d_9">
      <g>
       <use xlink:href="#maf5d23c83f" x="398.487273" y="307.584" style="stroke: #000000; stroke-width: 0.8"/>
      </g>
     </g>
     <g id="text_9">
      <!-- 2020 -->
      <g transform="translate(385.762273 322.182437) scale(0.1 -0.1)">
       <use xlink:href="#DejaVuSans-32"/>
       <use xlink:href="#DejaVuSans-30" x="63.623047"/>
       <use xlink:href="#DejaVuSans-32" x="127.246094"/>
       <use xlink:href="#DejaVuSans-30" x="190.869141"/>
      </g>
     </g>
    </g>
    <g id="text_10">
     <!-- Ano -->
     <g transform="translate(226.511562 335.860562) scale(0.1 -0.1)">
      <defs>
       <path id="DejaVuSans-41" d="M 2188 4044 
L 1331 1722 
L 3047 1722 
L 2188 4044 
z
M 1831 4666 
L 2547 4666 
L 4325 0 
L 3669 0 
L 3244 1197 
L 1141 1197 
L 716 0 
L 50 0 
L 1831 4666 
z
" transform="scale(0.015625)"/>
       <path id="DejaVuSans-6e" d="M 3513 2113 
L 3513 0 
L 2938 0 
L 2938 2094 
Q 2938 2591 2744 2837 
Q 2550 3084 2163 3084 
Q 1697 3084 1428 2787 
Q 1159 2491 1159 1978 
L 1159 0 
L 581 0 
L 581 3500 
L 1159 3500 
L 1159 2956 
Q 1366 3272 1645 3428 
Q 1925 3584 2291 3584 
Q 2894 3584 3203 3211 
Q 3513 2838 3513 2113 
z
" transform="scale(0.015625)"/>
       <path id="DejaVuSans-6f" d="M 1959 3097 
Q 1497 3097 1228 2736 
Q 959 2375 959 1747 
Q 959 1119 1226 758 
Q 1494 397 1959 397 
Q 2419 397 2687 759 
Q 2956 1122 2956 1747 
Q 2956 2369 2687 2733 
Q 2419 3097 1959 3097 
z
M 1959 3584 
Q 2709 3584 3137 3096 
Q 3566 2609 3566 1747 
Q 3566 888 3137 398 
Q 2709 -91 1959 -91 
Q 1206 -91 779 398 
Q 353 888 353 1747 
Q 353 2609 779 3096 
Q 1206 3584 1959 3584 
z
" transform="scale(0.015625)"/>
      </defs>
      <use xlink:href="#DejaVuSans-41"/>
      <use xlink:href="#DejaVuSans-6e" x="68.408203"/>
      <use xlink:href="#DejaVuSans-6f" x="131.787109"/>
     </g>
    </g>
   </g>
   <g id="matplotlib.axis_2">
    <g id="ytick_1">
     <g id="line2d_10">
      <defs>
       <path id="m9a2482ede7" d="M 0 0 
L -3.5 0 
" style="stroke: #000000; stroke-width: 0.8"/>
      </defs>
      <g>
       <use xlink:href="#m9a2482ede7" x="57.6" y="277.664102" style="stroke: #000000; stroke-width: 0.8"/>
      </g>
     </g>
     <g id="text_11">
      <!-- −0.2 -->
      <g transform="translate(26.317187 281.463321) scale(0.1 -0.1)">
       <defs>
        <path id="DejaVuSans-2212" d="M 678 2272 
L 4684 2272 
L 4684 1741 
L 678 1741 
L 678 2272 
z
" transform="scale(0.015625)"/>
        <path id="DejaVuSans-2e" d="M 684 794 
L 1344 794 
L 1344 0 
L 684 0 
L 684 794 
z
" transform="scale(0.015625)"/>
       </defs>
       <use xlink:href="#DejaVuSans-2212"/>
       <use xlink:href="#DejaVuSans-30" x="83.789062"/>
       <use xlink:href="#DejaVuSans-2e" x="147.412109"/>
       <use xlink:href="#DejaVuSans-32" x="179.199219"/>
      </g>
     </g>
    </g>
    <g id="ytick_2">
     <g id="line2d_11">
      <g>
       <use xlink:href="#m9a2482ede7" x="57.6" y="226.421628" style="stroke: #000000; stroke-width: 0.8"/>
      </g>
     </g>
     <g id="text_12">
      <!-- −0.1 -->
      <g transform="translate(26.317187 230.220846) scale(0.1 -0.1)">
       <use xlink:href="#DejaVuSans-2212"/>
       <use xlink:href="#DejaVuSans-30" x="83.789062"/>
       <use xlink:href="#DejaVuSans-2e" x="147.412109"/>
       <use xlink:href="#DejaVuSans-31" x="179.199219"/>
      </g>
     </g>
    </g>
    <g id="ytick_3">
     <g id="line2d_12">
      <g>
       <use xlink:href="#m9a2482ede7" x="57.6" y="175.179154" style="stroke: #000000; stroke-width: 0.8"/>
      </g>
     </g>
     <g id="text_13">
      <!-- 0.0 -->
      <g transform="translate(34.696875 178.978372) scale(0.1 -0.1)">
       <use xlink:href="#DejaVuSans-30"/>
       <use xlink:href="#DejaVuSans-2e" x="63.623047"/>
       <use xlink:href="#DejaVuSans-30" x="95.410156"/>
      </g>
     </g>
    </g>
    <g id="ytick_4">
     <g id="line2d_13">
      <g>
       <use xlink:href="#m9a2482ede7" x="57.6" y="123.936679" style="stroke: #000000; stroke-width: 0.8"/>
      </g>
     </g>
     <g id="text_14">
      <!-- 0.1 -->
      <g transform="translate(34.696875 127.735898) scale(0.1 -0.1)">
       <use xlink:href="#DejaVuSans-30"/>
       <use xlink:href="#DejaVuSans-2e" x="63.623047"/>
       <use xlink:href="#DejaVuSans-31" x="95.410156"/>
      </g>
     </g>
    </g>
    <g id="ytick_5">
     <g id="line2d_14">
      <g>
       <use xlink:href="#m9a2482ede7" x="57.6" y="72.694205" style="stroke: #000000; stroke-width: 0.8"/>
      </g>
     </g>
     <g id="text_15">
      <!-- 0.2 -->
      <g transform="translate(34.696875 76.493424) scale(0.1 -0.1)">
       <use xlink:href="#DejaVuSans-30"/>
       <use xlink:href="#DejaVuSans-2e" x="63.623047"/>
       <use xlink:href="#DejaVuSans-32" x="95.410156"/>
      </g>
     </g>
    </g>
    <g id="text_16">
     <!-- Crescimento real -->
     <g transform="translate(20.2375 216.978781) rotate(-90) scale(0.1 -0.1)">
      <defs>
       <path id="DejaVuSans-43" d="M 4122 4306 
L 4122 3641 
Q 3803 3938 3442 4084 
Q 3081 4231 2675 4231 
Q 1875 4231 1450 3742 
Q 1025 3253 1025 2328 
Q 1025 1406 1450 917 
Q 1875 428 2675 428 
Q 3081 428 3442 575 
Q 3803 722 4122 1019 
L 4122 359 
Q 3791 134 3420 21 
Q 3050 -91 2638 -91 
Q 1578 -91 968 557 
Q 359 1206 359 2328 
Q 359 3453 968 4101 
Q 1578 4750 2638 4750 
Q 3056 4750 3426 4639 
Q 3797 4528 4122 4306 
z
" transform="scale(0.015625)"/>
       <path id="DejaVuSans-72" d="M 2631 2963 
Q 2534 3019 2420 3045 
Q 2306 3072 2169 3072 
Q 1681 3072 1420 2755 
Q 1159 2438 1159 1844 
L 1159 0 
L 581 0 
L 581 3500 
L 1159 3500 
L 1159 2956 
Q 1341 3275 1631 3429 
Q 1922 3584 2338 3584 
Q 2397 3584 2469 3576 
Q 2541 3569 2628 3553 
L 2631 2963 
z
" transform="scale(0.015625)"/>
       <path id="DejaVuSans-65" d="M 3597 1894 
L 3597 1613 
L 953 1613 
Q 991 1019 1311 708 
Q 1631 397 2203 397 
Q 2534 397 2845 478 
Q 3156 559 3463 722 
L 3463 178 
Q 3153 47 2828 -22 
Q 2503 -91 2169 -91 
Q 1331 -91 842 396 
Q 353 884 353 1716 
Q 353 2575 817 3079 
Q 1281 3584 2069 3584 
Q 2775 3584 3186 3129 
Q 3597 2675 3597 1894 
z
M 3022 2063 
Q 3016 2534 2758 2815 
Q 2500 3097 2075 3097 
Q 1594 3097 1305 2825 
Q 1016 2553 972 2059 
L 3022 2063 
z
" transform="scale(0.015625)"/>
       <path id="DejaVuSans-73" d="M 2834 3397 
L 2834 2853 
Q 2591 2978 2328 3040 
Q 2066 3103 1784 3103 
Q 1356 3103 1142 2972 
Q 928 2841 928 2578 
Q 928 2378 1081 2264 
Q 1234 2150 1697 2047 
L 1894 2003 
Q 2506 1872 2764 1633 
Q 3022 1394 3022 966 
Q 3022 478 2636 193 
Q 2250 -91 1575 -91 
Q 1294 -91 989 -36 
Q 684 19 347 128 
L 347 722 
Q 666 556 975 473 
Q 1284 391 1588 391 
Q 1994 391 2212 530 
Q 2431 669 2431 922 
Q 2431 1156 2273 1281 
Q 2116 1406 1581 1522 
L 1381 1569 
Q 847 1681 609 1914 
Q 372 2147 372 2553 
Q 372 3047 722 3315 
Q 1072 3584 1716 3584 
Q 2034 3584 2315 3537 
Q 2597 3491 2834 3397 
z
" transform="scale(0.015625)"/>
       <path id="DejaVuSans-63" d="M 3122 3366 
L 3122 2828 
Q 2878 2963 2633 3030 
Q 2388 3097 2138 3097 
Q 1578 3097 1268 2742 
Q 959 2388 959 1747 
Q 959 1106 1268 751 
Q 1578 397 2138 397 
Q 2388 397 2633 464 
Q 2878 531 3122 666 
L 3122 134 
Q 2881 22 2623 -34 
Q 2366 -91 2075 -91 
Q 1284 -91 818 406 
Q 353 903 353 1747 
Q 353 2603 823 3093 
Q 1294 3584 2113 3584 
Q 2378 3584 2631 3529 
Q 2884 3475 3122 3366 
z
" transform="scale(0.015625)"/>
       <path id="DejaVuSans-69" d="M 603 3500 
L 1178 3500 
L 1178 0 
L 603 0 
L 603 3500 
z
M 603 4863 
L 1178 4863 
L 1178 4134 
L 603 4134 
L 603 4863 
z
" transform="scale(0.015625)"/>
       <path id="DejaVuSans-6d" d="M 3328 2828 
Q 3544 3216 3844 3400 
Q 4144 3584 4550 3584 
Q 5097 3584 5394 3201 
Q 5691 2819 5691 2113 
L 5691 0 
L 5113 0 
L 5113 2094 
Q 5113 2597 4934 2840 
Q 4756 3084 4391 3084 
Q 3944 3084 3684 2787 
Q 3425 2491 3425 1978 
L 3425 0 
L 2847 0 
L 2847 2094 
Q 2847 2600 2669 2842 
Q 2491 3084 2119 3084 
Q 1678 3084 1418 2786 
Q 1159 2488 1159 1978 
L 1159 0 
L 581 0 
L 581 3500 
L 1159 3500 
L 1159 2956 
Q 1356 3278 1631 3431 
Q 1906 3584 2284 3584 
Q 2666 3584 2933 3390 
Q 3200 3197 3328 2828 
z
" transform="scale(0.015625)"/>
       <path id="DejaVuSans-74" d="M 1172 4494 
L 1172 3500 
L 2356 3500 
L 2356 3053 
L 1172 3053 
L 1172 1153 
Q 1172 725 1289 603 
Q 1406 481 1766 481 
L 2356 481 
L 2356 0 
L 1766 0 
Q 1100 0 847 248 
Q 594 497 594 1153 
L 594 3053 
L 172 3053 
L 172 3500 
L 594 3500 
L 594 4494 
L 1172 4494 
z
" transform="scale(0.015625)"/>
       <path id="DejaVuSans-20" transform="scale(0.015625)"/>
       <path id="DejaVuSans-61" d="M 2194 1759 
Q 1497 1759 1228 1600 
Q 959 1441 959 1056 
Q 959 750 1161 570 
Q 1363 391 1709 391 
Q 2188 391 2477 730 
Q 2766 1069 2766 1631 
L 2766 1759 
L 2194 1759 
z
M 3341 1997 
L 3341 0 
L 2766 0 
L 2766 531 
Q 2569 213 2275 61 
Q 1981 -91 1556 -91 
Q 1019 -91 701 211 
Q 384 513 384 1019 
Q 384 1609 779 1909 
Q 1175 2209 1959 2209 
L 2766 2209 
L 2766 2266 
Q 2766 2663 2505 2880 
Q 2244 3097 1772 3097 
Q 1472 3097 1187 3025 
Q 903 2953 641 2809 
L 641 3341 
Q 956 3463 1253 3523 
Q 1550 3584 1831 3584 
Q 2591 3584 2966 3190 
Q 3341 2797 3341 1997 
z
" transform="scale(0.015625)"/>
       <path id="DejaVuSans-6c" d="M 603 4863 
L 1178 4863 
L 1178 0 
L 603 0 
L 603 4863 
z
" transform="scale(0.015625)"/>
      </defs>
      <use xlink:href="#DejaVuSans-43"/>
      <use xlink:href="#DejaVuSans-72" x="69.824219"/>
      <use xlink:href="#DejaVuSans-65" x="108.6875"/>
      <use xlink:href="#DejaVuSans-73" x="170.210938"/>
      <use xlink:href="#DejaVuSans-63" x="222.310547"/>
      <use xlink:href="#DejaVuSans-69" x="277.291016"/>
      <use xlink:href="#DejaVuSans-6d" x="305.074219"/>
      <use xlink:href="#DejaVuSans-65" x="402.486328"/>
      <use xlink:href="#DejaVuSans-6e" x="464.009766"/>
      <use xlink:href="#DejaVuSans-74" x="527.388672"/>
      <use xlink:href="#DejaVuSans-6f" x="566.597656"/>
      <use xlink:href="#DejaVuSans-20" x="627.779297"/>
      <use xlink:href="#DejaVuSans-72" x="659.566406"/>
      <use xlink:href="#DejaVuSans-65" x="698.429688"/>
      <use xlink:href="#DejaVuSans-61" x="759.953125"/>
      <use xlink:href="#DejaVuSans-6c" x="821.232422"/>
     </g>
    </g>
   </g>
   <g id="line2d_15">
    <path d="M 73.832727 179.279862 
L 94.165301 168.016454 
L 114.442322 146.031741 
L 134.719343 105.019984 
L 154.996364 116.19552 
L 175.328938 121.182325 
L 195.605959 160.283409 
L 215.882979 162.992314 
L 236.16 165.460924 
L 256.492574 175.205051 
L 276.769595 196.380655 
L 297.046616 218.605753 
L 317.323636 235.732351 
L 337.656211 218.151014 
L 357.933231 206.924152 
L 378.210252 184.845306 
L 398.487273 154.545664 
" clip-path="url(#p39af355d70)" style="fill: none; stroke: #dcdcdc; stroke-width: 1.5; stroke-linecap: square"/>
   </g>
   <g id="line2d_16">
    <path d="M 73.832727 154.69147 
L 94.165301 113.135272 
L 114.442322 127.829232 
L 134.719343 135.733424 
L 154.996364 123.35319 
L 175.328938 138.511402 
L 195.605959 101.484866 
L 215.882979 120.285481 
L 236.16 150.099435 
L 256.492574 146.603164 
L 276.769595 177.749075 
L 297.046616 221.353398 
L 317.323636 240.505964 
L 337.656211 232.463916 
L 357.933231 205.796021 
L 378.210252 187.868026 
L 398.487273 151.484097 
" clip-path="url(#p39af355d70)" style="fill: none; stroke: #dcdcdc; stroke-width: 1.5; stroke-linecap: square"/>
   </g>
   <g id="line2d_17">
    <path d="M 73.832727 184.914188 
L 94.165301 136.884503 
L 114.442322 148.988365 
L 134.719343 136.58262 
L 154.996364 141.144653 
L 175.328938 132.206111 
L 195.605959 123.614439 
L 215.882979 135.454075 
L 236.16 147.723813 
L 256.492574 161.508384 
L 276.769595 171.10202 
L 297.046616 194.751613 
L 317.323636 220.217174 
L 337.656211 219.837656 
L 357.933231 199.71186 
L 378.210252 187.14589 
L 398.487273 163.114313 
" clip-path="url(#p39af355d70)" style="fill: none; stroke: #dcdcdc; stroke-width: 1.5; stroke-linecap: square"/>
   </g>
   <g id="line2d_18">
    <path d="M 73.832727 141.508001 
L 94.165301 144.235642 
L 114.442322 170.076723 
L 134.719343 153.846032 
L 154.996364 128.776676 
L 175.328938 146.530038 
L 195.605959 132.34104 
L 215.882979 144.19275 
L 236.16 142.71226 
L 256.492574 167.306903 
L 276.769595 185.913139 
L 297.046616 217.976792 
L 317.323636 227.812971 
L 337.656211 219.536547 
L 357.933231 200.154656 
L 378.210252 185.790882 
L 398.487273 164.786765 
" clip-path="url(#p39af355d70)" style="fill: none; stroke: #dcdcdc; stroke-width: 1.5; stroke-linecap: square"/>
   </g>
   <g id="line2d_19">
    <path d="M 73.832727 216.121908 
L 94.165301 126.395742 
L 114.442322 139.313322 
L 134.719343 63.081844 
L 154.996364 137.0066 
L 175.328938 127.971899 
L 195.605959 123.855153 
L 215.882979 109.588143 
L 236.16 125.143433 
L 256.492574 146.043117 
L 276.769595 176.533894 
L 297.046616 205.787679 
L 317.323636 229.198641 
L 337.656211 220.952859 
L 357.933231 207.421462 
L 378.210252 193.002546 
L 398.487273 161.189706 
" clip-path="url(#p39af355d70)" style="fill: none; stroke: #dcdcdc; stroke-width: 1.5; stroke-linecap: square"/>
   </g>
   <g id="line2d_20">
    <path d="M 73.832727 176.985688 
L 94.165301 122.676182 
L 114.442322 152.466142 
L 134.719343 146.484728 
L 154.996364 149.052111 
L 175.328938 129.482164 
L 195.605959 108.553598 
L 215.882979 103.550478 
L 236.16 136.065814 
L 256.492574 172.107182 
L 276.769595 215.140695 
L 297.046616 241.750747 
L 317.323636 254.453809 
L 337.656211 223.752401 
L 357.933231 200.717376 
L 378.210252 187.494186 
L 398.487273 172.100992 
" clip-path="url(#p39af355d70)" style="fill: none; stroke: #dcdcdc; stroke-width: 1.5; stroke-linecap: square"/>
   </g>
   <g id="line2d_21">
    <path d="M 73.832727 149.216855 
L 94.165301 137.614132 
L 114.442322 160.976166 
L 134.719343 127.901856 
L 154.996364 106.640573 
L 175.328938 112.670652 
L 195.605959 103.887778 
L 215.882979 98.553148 
L 236.16 130.521944 
L 256.492574 171.700628 
L 276.769595 193.501035 
L 297.046616 212.32837 
L 317.323636 230.949298 
L 337.656211 220.155368 
L 357.933231 192.374174 
L 378.210252 176.616753 
L 398.487273 150.585303 
" clip-path="url(#p39af355d70)" style="fill: none; stroke: #dcdcdc; stroke-width: 1.5; stroke-linecap: square"/>
   </g>
   <g id="line2d_22">
    <path d="M 73.832727 188.901134 
L 94.165301 133.489926 
L 114.442322 155.626972 
L 134.719343 114.950247 
L 154.996364 144.40967 
L 175.328938 129.027067 
L 195.605959 126.974331 
L 215.882979 121.617595 
L 236.16 155.651464 
L 256.492574 168.180298 
L 276.769595 190.797842 
L 297.046616 203.669524 
L 317.323636 224.883974 
L 337.656211 216.030763 
L 357.933231 201.313223 
L 378.210252 189.559393 
L 398.487273 173.707995 
" clip-path="url(#p39af355d70)" style="fill: none; stroke: #dcdcdc; stroke-width: 1.5; stroke-linecap: square"/>
   </g>
   <g id="line2d_23">
    <path d="M 73.832727 164.182105 
L 94.165301 137.188328 
L 114.442322 157.528227 
L 134.719343 136.205553 
L 154.996364 138.500887 
L 175.328938 122.148089 
L 195.605959 130.866155 
L 215.882979 138.866314 
L 236.16 153.03578 
L 256.492574 168.586385 
L 276.769595 190.301525 
L 297.046616 217.520612 
L 317.323636 229.796656 
L 337.656211 215.213478 
L 357.933231 189.461782 
L 378.210252 177.45671 
L 398.487273 156.334846 
" clip-path="url(#p39af355d70)" style="fill: none; stroke: #dcdcdc; stroke-width: 1.5; stroke-linecap: square"/>
   </g>
   <g id="line2d_24">
    <path d="M 73.832727 129.865172 
L 94.165301 90.801431 
L 114.442322 163.268578 
L 134.719343 101.45041 
L 154.996364 73.947807 
L 175.328938 88.563337 
L 195.605959 84.327934 
L 215.882979 131.81449 
L 236.16 174.826937 
L 256.492574 203.936476 
L 276.769595 244.224828 
L 297.046616 281.090549 
L 317.323636 295.488 
L 337.656211 265.750711 
L 357.933231 224.24089 
L 378.210252 203.520922 
L 398.487273 186.459839 
" clip-path="url(#p39af355d70)" style="fill: none; stroke: #dcdcdc; stroke-width: 1.5; stroke-linecap: square"/>
   </g>
   <g id="line2d_25">
    <path d="M 73.832727 166.826087 
L 94.165301 160.190282 
L 114.442322 137.78368 
L 134.719343 144.853088 
L 154.996364 130.748311 
L 175.328938 145.489334 
L 195.605959 130.774784 
L 215.882979 139.78118 
L 236.16 151.334255 
L 256.492574 165.828634 
L 276.769595 191.0666 
L 297.046616 217.295427 
L 317.323636 228.135381 
L 337.656211 207.180792 
L 357.933231 176.146455 
L 378.210252 160.087768 
L 398.487273 136.945909 
" clip-path="url(#p39af355d70)" style="fill: none; stroke: #dcdcdc; stroke-width: 1.5; stroke-linecap: square"/>
   </g>
   <g id="line2d_26">
    <path d="M 73.832727 172.691017 
L 94.165301 136.494682 
L 114.442322 165.594878 
L 134.719343 123.816974 
L 154.996364 136.411196 
L 175.328938 109.23169 
L 195.605959 135.628382 
L 215.882979 152.282905 
L 236.16 164.133621 
L 256.492574 178.304545 
L 276.769595 199.258289 
L 297.046616 214.895361 
L 317.323636 217.481822 
L 337.656211 202.951403 
L 357.933231 175.146959 
L 378.210252 168.028301 
L 398.487273 143.34582 
" clip-path="url(#p39af355d70)" style="fill: none; stroke: #dcdcdc; stroke-width: 1.5; stroke-linecap: square"/>
   </g>
   <g id="line2d_27">
    <path d="M 73.832727 179.29235 
L 94.165301 174.203806 
L 114.442322 173.291591 
L 134.719343 157.274247 
L 154.996364 151.262833 
L 175.328938 142.934287 
L 195.605959 137.699828 
L 215.882979 126.632904 
L 236.16 140.991504 
L 256.492574 157.399149 
L 276.769595 182.901625 
L 297.046616 217.905532 
L 317.323636 239.137567 
L 337.656211 237.874135 
L 357.933231 209.24391 
L 378.210252 199.302102 
L 398.487273 171.992564 
" clip-path="url(#p39af355d70)" style="fill: none; stroke: #dcdcdc; stroke-width: 1.5; stroke-linecap: square"/>
   </g>
   <g id="line2d_28">
    <path d="M 73.832727 177.527785 
L 94.165301 161.419842 
L 114.442322 171.095906 
L 134.719343 162.51033 
L 154.996364 142.199223 
L 175.328938 128.751091 
L 195.605959 127.101631 
L 215.882979 140.702109 
L 236.16 152.076211 
L 256.492574 170.481572 
L 276.769595 183.94827 
L 297.046616 204.5226 
L 317.323636 213.890137 
L 337.656211 208.333219 
L 357.933231 192.649842 
L 378.210252 179.446691 
L 398.487273 150.847977 
" clip-path="url(#p39af355d70)" style="fill: none; stroke: #dcdcdc; stroke-width: 1.5; stroke-linecap: square"/>
   </g>
   <g id="line2d_29">
    <path d="M 73.832727 193.877305 
L 94.165301 181.910445 
L 114.442322 149.184184 
L 134.719343 147.78969 
L 154.996364 126.59376 
L 175.328938 136.042515 
L 195.605959 116.460307 
L 215.882979 129.525856 
L 236.16 147.716343 
L 256.492574 168.112843 
L 276.769595 178.995782 
L 297.046616 198.025913 
L 317.323636 207.032284 
L 337.656211 205.63318 
L 357.933231 186.521288 
L 378.210252 173.291227 
L 398.487273 143.954188 
" clip-path="url(#p39af355d70)" style="fill: none; stroke: #dcdcdc; stroke-width: 1.5; stroke-linecap: square"/>
   </g>
   <g id="line2d_30">
    <path d="M 73.832727 174.052145 
L 94.165301 179.951814 
L 114.442322 163.623826 
L 134.719343 155.200708 
L 154.996364 132.31617 
L 175.328938 129.492678 
L 195.605959 98.719908 
L 215.882979 121.43264 
L 236.16 142.931027 
L 256.492574 158.168585 
L 276.769595 165.727337 
L 297.046616 186.720287 
L 317.323636 196.779897 
L 337.656211 196.929425 
L 357.933231 182.417455 
L 378.210252 178.844026 
L 398.487273 155.619596 
" clip-path="url(#p39af355d70)" style="fill: none; stroke: #dcdcdc; stroke-width: 1.5; stroke-linecap: square"/>
   </g>
   <g id="line2d_31">
    <path d="M 73.832727 167.658943 
L 94.165301 160.387543 
L 114.442322 154.351528 
L 134.719343 155.804581 
L 154.996364 153.766544 
L 175.328938 144.365852 
L 195.605959 137.934542 
L 215.882979 133.193485 
L 236.16 147.478281 
L 256.492574 162.228267 
L 276.769595 179.498014 
L 297.046616 199.433504 
L 317.323636 206.820275 
L 337.656211 199.16886 
L 357.933231 190.890229 
L 378.210252 189.547994 
L 398.487273 168.886863 
" clip-path="url(#p39af355d70)" style="fill: none; stroke: #dcdcdc; stroke-width: 1.5; stroke-linecap: square"/>
   </g>
   <g id="line2d_32">
    <path d="M 73.832727 175.972195 
L 94.165301 147.813167 
L 114.442322 169.225181 
L 134.719343 137.031602 
L 154.996364 161.934803 
L 175.328938 136.071026 
L 195.605959 134.882654 
L 215.882979 119.346216 
L 236.16 140.650608 
L 256.492574 158.953073 
L 276.769595 204.056447 
L 297.046616 210.274213 
L 317.323636 212.941715 
L 337.656211 201.527513 
L 357.933231 203.249057 
L 378.210252 201.767434 
L 398.487273 165.954357 
" clip-path="url(#p39af355d70)" style="fill: none; stroke: #dcdcdc; stroke-width: 1.5; stroke-linecap: square"/>
   </g>
   <g id="line2d_33">
    <path d="M 73.832727 141.503888 
L 94.165301 53.568 
L 114.442322 174.89218 
L 134.719343 82.186949 
L 154.996364 77.001563 
L 175.328938 103.530413 
L 195.605959 139.416683 
L 215.882979 182.790975 
L 236.16 160.52361 
L 256.492574 154.749844 
L 276.769595 192.814646 
L 297.046616 218.322481 
L 317.323636 244.321417 
L 337.656211 229.202183 
L 357.933231 222.440292 
L 378.210252 223.18324 
L 398.487273 172.551352 
" clip-path="url(#p39af355d70)" style="fill: none; stroke: #dcdcdc; stroke-width: 1.5; stroke-linecap: square"/>
   </g>
   <g id="line2d_34">
    <path d="M 73.832727 183.899778 
L 94.165301 181.65581 
L 114.442322 163.468333 
L 134.719343 125.513476 
L 154.996364 124.477311 
L 175.328938 121.585707 
L 195.605959 124.608985 
L 215.882979 106.298814 
L 236.16 128.673526 
L 256.492574 138.625922 
L 276.769595 177.123343 
L 297.046616 216.147462 
L 317.323636 240.708081 
L 337.656211 217.45683 
L 357.933231 195.323021 
L 378.210252 175.080402 
L 398.487273 150.171233 
" clip-path="url(#p39af355d70)" style="fill: none; stroke: #dcdcdc; stroke-width: 1.5; stroke-linecap: square"/>
   </g>
   <g id="line2d_35">
    <path d="M 73.832727 163.323223 
L 94.165301 141.050517 
L 114.442322 146.869414 
L 134.719343 137.542944 
L 154.996364 136.891704 
L 175.328938 131.246432 
L 195.605959 115.083949 
L 215.882979 126.063762 
L 236.16 145.772475 
L 256.492574 165.172308 
L 276.769595 190.125424 
L 297.046616 214.362513 
L 317.323636 225.148659 
L 337.656211 205.111645 
L 357.933231 189.611614 
L 378.210252 180.776344 
L 398.487273 152.708342 
" clip-path="url(#p39af355d70)" style="fill: none; stroke: #dcdcdc; stroke-width: 1.5; stroke-linecap: square"/>
   </g>
   <g id="line2d_36">
    <path d="M 73.832727 186.267487 
L 94.165301 175.460586 
L 114.442322 176.643797 
L 134.719343 148.318889 
L 154.996364 107.628013 
L 175.328938 106.413565 
L 195.605959 107.736481 
L 215.882979 128.054087 
L 236.16 149.434201 
L 256.492574 182.816494 
L 276.769595 205.257514 
L 297.046616 220.482137 
L 317.323636 222.123878 
L 337.656211 199.613672 
L 357.933231 179.537606 
L 378.210252 168.040953 
L 398.487273 140.910484 
" clip-path="url(#p39af355d70)" style="fill: none; stroke: #dcdcdc; stroke-width: 1.5; stroke-linecap: square"/>
   </g>
   <g id="line2d_37">
    <path d="M 73.832727 175.687961 
L 94.165301 159.962607 
L 114.442322 162.606642 
L 134.719343 150.638315 
L 154.996364 139.095172 
L 175.328938 132.426813 
L 195.605959 126.721666 
L 215.882979 133.275908 
L 236.16 147.974631 
L 256.492574 165.718428 
L 276.769595 186.537387 
L 297.046616 211.270067 
L 317.323636 223.405869 
L 337.656211 213.135706 
L 357.933231 192.810776 
L 378.210252 180.58092 
L 398.487273 153.920766 
" clip-path="url(#p39af355d70)" style="fill: none; stroke: #dcdcdc; stroke-width: 1.5; stroke-linecap: square"/>
   </g>
   <g id="line2d_38">
    <path d="M 73.832727 159.153576 
L 94.165301 156.309888 
L 114.442322 152.505428 
L 134.719343 159.056153 
L 154.996364 115.348584 
L 175.328938 121.132294 
L 195.605959 98.484773 
L 215.882979 131.640219 
L 236.16 141.383192 
L 256.492574 171.910129 
L 276.769595 201.682517 
L 297.046616 229.800402 
L 317.323636 229.74726 
L 337.656211 209.437614 
L 357.933231 188.938444 
L 378.210252 181.170695 
L 398.487273 156.866523 
" clip-path="url(#p39af355d70)" style="fill: none; stroke: #dcdcdc; stroke-width: 1.5; stroke-linecap: square"/>
   </g>
   <g id="line2d_39">
    <path d="M 73.832727 156.700234 
L 94.165301 64.192913 
L 114.442322 130.576283 
L 134.719343 121.948973 
L 154.996364 154.793026 
L 175.328938 78.605749 
L 195.605959 118.510809 
L 215.882979 148.317389 
L 236.16 154.298543 
L 256.492574 164.158116 
L 276.769595 186.217886 
L 297.046616 209.912768 
L 317.323636 203.986815 
L 337.656211 183.690681 
L 357.933231 182.896108 
L 378.210252 168.328651 
L 398.487273 132.807361 
" clip-path="url(#p39af355d70)" style="fill: none; stroke: #dcdcdc; stroke-width: 1.5; stroke-linecap: square"/>
   </g>
   <g id="line2d_40">
    <path d="M 73.832727 98.077911 
L 94.165301 124.16 
L 114.442322 158.732059 
L 134.719343 140.520208 
L 154.996364 141.185276 
L 175.328938 130.191175 
L 195.605959 146.202416 
L 215.882979 113.161092 
L 236.16 123.609767 
L 256.492574 129.604116 
L 276.769595 163.234384 
L 297.046616 216.389774 
L 317.323636 246.08865 
L 337.656211 237.604096 
L 357.933231 202.514868 
L 378.210252 177.101033 
L 398.487273 142.722039 
" clip-path="url(#p39af355d70)" style="fill: none; stroke: #dcdcdc; stroke-width: 1.5; stroke-linecap: square"/>
   </g>
   <g id="line2d_41">
    <path d="M 73.832727 171.498546 
L 94.165301 137.267968 
L 114.442322 122.281588 
L 134.719343 109.289548 
L 154.996364 176.316361 
L 175.328938 154.001541 
L 195.605959 156.66144 
L 215.882979 95.515958 
L 236.16 119.833901 
L 256.492574 152.141481 
L 276.769595 219.927458 
L 297.046616 241.947049 
L 317.323636 234.393765 
L 337.656211 197.514921 
L 357.933231 173.87891 
L 378.210252 182.365642 
L 398.487273 173.368182 
" clip-path="url(#p39af355d70)" style="fill: none; stroke: #dcdcdc; stroke-width: 1.5; stroke-linecap: square"/>
   </g>
   <g id="line2d_42">
    <path d="M 73.832727 165.020554 
L 94.165301 129.181333 
L 114.442322 153.256893 
L 134.719343 120.089974 
L 154.996364 139.647719 
L 175.328938 130.929227 
L 195.605959 151.933899 
L 215.882979 135.515193 
L 236.16 160.964663 
L 256.492574 151.412619 
L 276.769595 176.351144 
L 297.046616 186.507444 
L 317.323636 205.821527 
L 337.656211 184.548743 
L 357.933231 208.03086 
L 378.210252 208.969036 
L 398.487273 171.069869 
" clip-path="url(#p39af355d70)" style="fill: none; stroke: #dcdcdc; stroke-width: 1.5; stroke-linecap: square"/>
   </g>
   <g id="line2d_43">
    <path d="M 73.832727 179.29235 
L 94.165301 174.203806 
L 114.442322 173.291591 
L 134.719343 157.274247 
L 154.996364 151.262833 
L 175.328938 142.934287 
L 195.605959 137.699828 
L 215.882979 126.632904 
L 236.16 140.991504 
L 256.492574 157.399149 
L 276.769595 182.901625 
L 297.046616 217.905532 
L 317.323636 239.137567 
L 337.656211 237.874135 
L 357.933231 209.24391 
L 378.210252 199.302102 
L 398.487273 171.992564 
" clip-path="url(#p39af355d70)" style="fill: none; stroke: #008080; stroke-width: 1.5; stroke-linecap: square"/>
   </g>
   <g id="line2d_44">
    <path d="M 73.832727 175.687961 
L 94.165301 159.962607 
L 114.442322 162.606642 
L 134.719343 150.638315 
L 154.996364 139.095172 
L 175.328938 132.426813 
L 195.605959 126.721666 
L 215.882979 133.275908 
L 236.16 147.974631 
L 256.492574 165.718428 
L 276.769595 186.537387 
L 297.046616 211.270067 
L 317.323636 223.405869 
L 337.656211 213.135706 
L 357.933231 192.810776 
L 378.210252 180.58092 
L 398.487273 153.920766 
" clip-path="url(#p39af355d70)" style="fill: none; stroke: #ffd700; stroke-width: 1.5; stroke-linecap: square"/>
   </g>
   <g id="line2d_45">
    <path d="M 73.832727 167.370719 
L 94.165301 139.839119 
L 114.442322 155.01786 
L 134.719343 131.481668 
L 154.996364 132.131485 
L 175.328938 125.863247 
L 195.605959 124.96408 
L 215.882979 129.524799 
L 236.16 146.409168 
L 256.492574 163.379455 
L 276.769595 190.364126 
L 297.046616 215.47333 
L 317.323636 228.281406 
L 337.656211 213.911986 
L 357.933231 195.835278 
L 378.210252 184.764154 
L 398.487273 157.964155 
" clip-path="url(#p39af355d70)" style="fill: none; stroke-dasharray: 5.55,2.4; stroke-dashoffset: 0; stroke: #dc143c; stroke-width: 1.5"/>
   </g>
   <g id="patch_3">
    <path d="M 57.6 307.584 
L 57.6 41.472 
" style="fill: none; stroke: #000000; stroke-width: 0.8; stroke-linejoin: miter; stroke-linecap: square"/>
   </g>
   <g id="patch_4">
    <path d="M 414.72 307.584 
L 414.72 41.472 
" style="fill: none; stroke: #000000; stroke-width: 0.8; stroke-linejoin: miter; stroke-linecap: square"/>
   </g>
   <g id="patch_5">
    <path d="M 57.6 307.584 
L 414.72 307.584 
" style="fill: none; stroke: #000000; stroke-width: 0.8; stroke-linejoin: miter; stroke-linecap: square"/>
   </g>
   <g id="patch_6">
    <path d="M 57.6 41.472 
L 414.72 41.472 
" style="fill: none; stroke: #000000; stroke-width: 0.8; stroke-linejoin: miter; stroke-linecap: square"/>
   </g>
   <g id="text_17">
    <!-- Média Móvel (3 anos) da Taxa de Crescimento da Construção -->
    <g transform="translate(52.665938 35.472) scale(0.12 -0.12)">
     <defs>
      <path id="DejaVuSans-4d" d="M 628 4666 
L 1569 4666 
L 2759 1491 
L 3956 4666 
L 4897 4666 
L 4897 0 
L 4281 0 
L 4281 4097 
L 3078 897 
L 2444 897 
L 1241 4097 
L 1241 0 
L 628 0 
L 628 4666 
z
" transform="scale(0.015625)"/>
      <path id="DejaVuSans-e9" d="M 3597 1894 
L 3597 1613 
L 953 1613 
Q 991 1019 1311 708 
Q 1631 397 2203 397 
Q 2534 397 2845 478 
Q 3156 559 3463 722 
L 3463 178 
Q 3153 47 2828 -22 
Q 2503 -91 2169 -91 
Q 1331 -91 842 396 
Q 353 884 353 1716 
Q 353 2575 817 3079 
Q 1281 3584 2069 3584 
Q 2775 3584 3186 3129 
Q 3597 2675 3597 1894 
z
M 3022 2063 
Q 3016 2534 2758 2815 
Q 2500 3097 2075 3097 
Q 1594 3097 1305 2825 
Q 1016 2553 972 2059 
L 3022 2063 
z
M 2466 5119 
L 3088 5119 
L 2070 3944 
L 1591 3944 
L 2466 5119 
z
" transform="scale(0.015625)"/>
      <path id="DejaVuSans-64" d="M 2906 2969 
L 2906 4863 
L 3481 4863 
L 3481 0 
L 2906 0 
L 2906 525 
Q 2725 213 2448 61 
Q 2172 -91 1784 -91 
Q 1150 -91 751 415 
Q 353 922 353 1747 
Q 353 2572 751 3078 
Q 1150 3584 1784 3584 
Q 2172 3584 2448 3432 
Q 2725 3281 2906 2969 
z
M 947 1747 
Q 947 1113 1208 752 
Q 1469 391 1925 391 
Q 2381 391 2643 752 
Q 2906 1113 2906 1747 
Q 2906 2381 2643 2742 
Q 2381 3103 1925 3103 
Q 1469 3103 1208 2742 
Q 947 2381 947 1747 
z
" transform="scale(0.015625)"/>
      <path id="DejaVuSans-f3" d="M 1959 3097 
Q 1497 3097 1228 2736 
Q 959 2375 959 1747 
Q 959 1119 1226 758 
Q 1494 397 1959 397 
Q 2419 397 2687 759 
Q 2956 1122 2956 1747 
Q 2956 2369 2687 2733 
Q 2419 3097 1959 3097 
z
M 1959 3584 
Q 2709 3584 3137 3096 
Q 3566 2609 3566 1747 
Q 3566 888 3137 398 
Q 2709 -91 1959 -91 
Q 1206 -91 779 398 
Q 353 888 353 1747 
Q 353 2609 779 3096 
Q 1206 3584 1959 3584 
z
M 2394 5119 
L 3016 5119 
L 1998 3944 
L 1519 3944 
L 2394 5119 
z
" transform="scale(0.015625)"/>
      <path id="DejaVuSans-76" d="M 191 3500 
L 800 3500 
L 1894 563 
L 2988 3500 
L 3597 3500 
L 2284 0 
L 1503 0 
L 191 3500 
z
" transform="scale(0.015625)"/>
      <path id="DejaVuSans-28" d="M 1984 4856 
Q 1566 4138 1362 3434 
Q 1159 2731 1159 2009 
Q 1159 1288 1364 580 
Q 1569 -128 1984 -844 
L 1484 -844 
Q 1016 -109 783 600 
Q 550 1309 550 2009 
Q 550 2706 781 3412 
Q 1013 4119 1484 4856 
L 1984 4856 
z
" transform="scale(0.015625)"/>
      <path id="DejaVuSans-33" d="M 2597 2516 
Q 3050 2419 3304 2112 
Q 3559 1806 3559 1356 
Q 3559 666 3084 287 
Q 2609 -91 1734 -91 
Q 1441 -91 1130 -33 
Q 819 25 488 141 
L 488 750 
Q 750 597 1062 519 
Q 1375 441 1716 441 
Q 2309 441 2620 675 
Q 2931 909 2931 1356 
Q 2931 1769 2642 2001 
Q 2353 2234 1838 2234 
L 1294 2234 
L 1294 2753 
L 1863 2753 
Q 2328 2753 2575 2939 
Q 2822 3125 2822 3475 
Q 2822 3834 2567 4026 
Q 2313 4219 1838 4219 
Q 1578 4219 1281 4162 
Q 984 4106 628 3988 
L 628 4550 
Q 988 4650 1302 4700 
Q 1616 4750 1894 4750 
Q 2613 4750 3031 4423 
Q 3450 4097 3450 3541 
Q 3450 3153 3228 2886 
Q 3006 2619 2597 2516 
z
" transform="scale(0.015625)"/>
      <path id="DejaVuSans-29" d="M 513 4856 
L 1013 4856 
Q 1481 4119 1714 3412 
Q 1947 2706 1947 2009 
Q 1947 1309 1714 600 
Q 1481 -109 1013 -844 
L 513 -844 
Q 928 -128 1133 580 
Q 1338 1288 1338 2009 
Q 1338 2731 1133 3434 
Q 928 4138 513 4856 
z
" transform="scale(0.015625)"/>
      <path id="DejaVuSans-54" d="M -19 4666 
L 3928 4666 
L 3928 4134 
L 2272 4134 
L 2272 0 
L 1638 0 
L 1638 4134 
L -19 4134 
L -19 4666 
z
" transform="scale(0.015625)"/>
      <path id="DejaVuSans-78" d="M 3513 3500 
L 2247 1797 
L 3578 0 
L 2900 0 
L 1881 1375 
L 863 0 
L 184 0 
L 1544 1831 
L 300 3500 
L 978 3500 
L 1906 2253 
L 2834 3500 
L 3513 3500 
z
" transform="scale(0.015625)"/>
      <path id="DejaVuSans-75" d="M 544 1381 
L 544 3500 
L 1119 3500 
L 1119 1403 
Q 1119 906 1312 657 
Q 1506 409 1894 409 
Q 2359 409 2629 706 
Q 2900 1003 2900 1516 
L 2900 3500 
L 3475 3500 
L 3475 0 
L 2900 0 
L 2900 538 
Q 2691 219 2414 64 
Q 2138 -91 1772 -91 
Q 1169 -91 856 284 
Q 544 659 544 1381 
z
M 1991 3584 
L 1991 3584 
z
" transform="scale(0.015625)"/>
      <path id="DejaVuSans-e7" d="M 3122 3366 
L 3122 2828 
Q 2878 2963 2633 3030 
Q 2388 3097 2138 3097 
Q 1578 3097 1268 2742 
Q 959 2388 959 1747 
Q 959 1106 1268 751 
Q 1578 397 2138 397 
Q 2388 397 2633 464 
Q 2878 531 3122 666 
L 3122 134 
Q 2881 22 2623 -34 
Q 2366 -91 2075 -91 
Q 1284 -91 818 406 
Q 353 903 353 1747 
Q 353 2603 823 3093 
Q 1294 3584 2113 3584 
Q 2378 3584 2631 3529 
Q 2884 3475 3122 3366 
z
M 2311 0 
Q 2482 -194 2566 -358 
Q 2651 -522 2651 -672 
Q 2651 -950 2463 -1092 
Q 2276 -1234 1907 -1234 
Q 1764 -1234 1628 -1215 
Q 1492 -1197 1357 -1159 
L 1357 -750 
Q 1464 -803 1579 -826 
Q 1695 -850 1842 -850 
Q 2026 -850 2120 -775 
Q 2214 -700 2214 -556 
Q 2214 -463 2146 -327 
Q 2079 -191 1939 0 
L 2311 0 
z
" transform="scale(0.015625)"/>
      <path id="DejaVuSans-e3" d="M 2194 1759 
Q 1497 1759 1228 1600 
Q 959 1441 959 1056 
Q 959 750 1161 570 
Q 1363 391 1709 391 
Q 2188 391 2477 730 
Q 2766 1069 2766 1631 
L 2766 1759 
L 2194 1759 
z
M 3341 1997 
L 3341 0 
L 2766 0 
L 2766 531 
Q 2569 213 2275 61 
Q 1981 -91 1556 -91 
Q 1019 -91 701 211 
Q 384 513 384 1019 
Q 384 1609 779 1909 
Q 1175 2209 1959 2209 
L 2766 2209 
L 2766 2266 
Q 2766 2663 2505 2880 
Q 2244 3097 1772 3097 
Q 1472 3097 1187 3025 
Q 903 2953 641 2809 
L 641 3341 
Q 956 3463 1253 3523 
Q 1550 3584 1831 3584 
Q 2591 3584 2966 3190 
Q 3341 2797 3341 1997 
z
M 1844 4281 
L 1665 4453 
Q 1597 4516 1545 4545 
Q 1494 4575 1453 4575 
Q 1334 4575 1278 4461 
Q 1222 4347 1215 4091 
L 825 4091 
Q 831 4513 990 4742 
Q 1150 4972 1434 4972 
Q 1553 4972 1653 4928 
Q 1753 4884 1869 4781 
L 2047 4609 
Q 2115 4547 2167 4517 
Q 2219 4488 2259 4488 
Q 2378 4488 2434 4602 
Q 2490 4716 2497 4972 
L 2887 4972 
Q 2881 4550 2721 4320 
Q 2562 4091 2278 4091 
Q 2159 4091 2059 4134 
Q 1959 4178 1844 4281 
z
" transform="scale(0.015625)"/>
     </defs>
     <use xlink:href="#DejaVuSans-4d"/>
     <use xlink:href="#DejaVuSans-e9" x="86.279297"/>
     <use xlink:href="#DejaVuSans-64" x="147.802734"/>
     <use xlink:href="#DejaVuSans-69" x="211.279297"/>
     <use xlink:href="#DejaVuSans-61" x="239.0625"/>
     <use xlink:href="#DejaVuSans-20" x="300.341797"/>
     <use xlink:href="#DejaVuSans-4d" x="332.128906"/>
     <use xlink:href="#DejaVuSans-f3" x="418.408203"/>
     <use xlink:href="#DejaVuSans-76" x="479.589844"/>
     <use xlink:href="#DejaVuSans-65" x="538.769531"/>
     <use xlink:href="#DejaVuSans-6c" x="600.292969"/>
     <use xlink:href="#DejaVuSans-20" x="628.076172"/>
     <use xlink:href="#DejaVuSans-28" x="659.863281"/>
     <use xlink:href="#DejaVuSans-33" x="698.876953"/>
     <use xlink:href="#DejaVuSans-20" x="762.5"/>
     <use xlink:href="#DejaVuSans-61" x="794.287109"/>
     <use xlink:href="#DejaVuSans-6e" x="855.566406"/>
     <use xlink:href="#DejaVuSans-6f" x="918.945312"/>
     <use xlink:href="#DejaVuSans-73" x="980.126953"/>
     <use xlink:href="#DejaVuSans-29" x="1032.226562"/>
     <use xlink:href="#DejaVuSans-20" x="1071.240234"/>
     <use xlink:href="#DejaVuSans-64" x="1103.027344"/>
     <use xlink:href="#DejaVuSans-61" x="1166.503906"/>
     <use xlink:href="#DejaVuSans-20" x="1227.783203"/>
     <use xlink:href="#DejaVuSans-54" x="1259.570312"/>
     <use xlink:href="#DejaVuSans-61" x="1304.154297"/>
     <use xlink:href="#DejaVuSans-78" x="1365.433594"/>
     <use xlink:href="#DejaVuSans-61" x="1424.613281"/>
     <use xlink:href="#DejaVuSans-20" x="1485.892578"/>
     <use xlink:href="#DejaVuSans-64" x="1517.679688"/>
     <use xlink:href="#DejaVuSans-65" x="1581.15625"/>
     <use xlink:href="#DejaVuSans-20" x="1642.679688"/>
     <use xlink:href="#DejaVuSans-43" x="1674.466797"/>
     <use xlink:href="#DejaVuSans-72" x="1744.291016"/>
     <use xlink:href="#DejaVuSans-65" x="1783.154297"/>
     <use xlink:href="#DejaVuSans-73" x="1844.677734"/>
     <use xlink:href="#DejaVuSans-63" x="1896.777344"/>
     <use xlink:href="#DejaVuSans-69" x="1951.757812"/>
     <use xlink:href="#DejaVuSans-6d" x="1979.541016"/>
     <use xlink:href="#DejaVuSans-65" x="2076.953125"/>
     <use xlink:href="#DejaVuSans-6e" x="2138.476562"/>
     <use xlink:href="#DejaVuSans-74" x="2201.855469"/>
     <use xlink:href="#DejaVuSans-6f" x="2241.064453"/>
     <use xlink:href="#DejaVuSans-20" x="2302.246094"/>
     <use xlink:href="#DejaVuSans-64" x="2334.033203"/>
     <use xlink:href="#DejaVuSans-61" x="2397.509766"/>
     <use xlink:href="#DejaVuSans-20" x="2458.789062"/>
     <use xlink:href="#DejaVuSans-43" x="2490.576172"/>
     <use xlink:href="#DejaVuSans-6f" x="2560.400391"/>
     <use xlink:href="#DejaVuSans-6e" x="2621.582031"/>
     <use xlink:href="#DejaVuSans-73" x="2684.960938"/>
     <use xlink:href="#DejaVuSans-74" x="2737.060547"/>
     <use xlink:href="#DejaVuSans-72" x="2776.269531"/>
     <use xlink:href="#DejaVuSans-75" x="2817.382812"/>
     <use xlink:href="#DejaVuSans-e7" x="2880.761719"/>
     <use xlink:href="#DejaVuSans-e3" x="2935.742188"/>
     <use xlink:href="#DejaVuSans-6f" x="2997.021484"/>
    </g>
   </g>
   <g id="legend_1">
    <g id="patch_7">
     <path d="M 314.084063 93.506375 
L 407.72 93.506375 
Q 409.72 93.506375 409.72 91.506375 
L 409.72 48.472 
Q 409.72 46.472 407.72 46.472 
L 314.084063 46.472 
Q 312.084063 46.472 312.084063 48.472 
L 312.084063 91.506375 
Q 312.084063 93.506375 314.084063 93.506375 
z
" style="fill: #ffffff; opacity: 0.8; stroke: #cccccc; stroke-linejoin: miter"/>
    </g>
    <g id="line2d_46">
     <path d="M 316.084063 54.570438 
L 326.084063 54.570438 
L 336.084063 54.570438 
" style="fill: none; stroke: #008080; stroke-width: 1.5; stroke-linecap: square"/>
    </g>
    <g id="text_18">
     <!-- RJ -->
     <g transform="translate(344.084063 58.070438) scale(0.1 -0.1)">
      <defs>
       <path id="DejaVuSans-52" d="M 2841 2188 
Q 3044 2119 3236 1894 
Q 3428 1669 3622 1275 
L 4263 0 
L 3584 0 
L 2988 1197 
Q 2756 1666 2539 1819 
Q 2322 1972 1947 1972 
L 1259 1972 
L 1259 0 
L 628 0 
L 628 4666 
L 2053 4666 
Q 2853 4666 3247 4331 
Q 3641 3997 3641 3322 
Q 3641 2881 3436 2590 
Q 3231 2300 2841 2188 
z
M 1259 4147 
L 1259 2491 
L 2053 2491 
Q 2509 2491 2742 2702 
Q 2975 2913 2975 3322 
Q 2975 3731 2742 3939 
Q 2509 4147 2053 4147 
L 1259 4147 
z
" transform="scale(0.015625)"/>
       <path id="DejaVuSans-4a" d="M 628 4666 
L 1259 4666 
L 1259 325 
Q 1259 -519 939 -900 
Q 619 -1281 -91 -1281 
L -331 -1281 
L -331 -750 
L -134 -750 
Q 284 -750 456 -515 
Q 628 -281 628 325 
L 628 4666 
z
" transform="scale(0.015625)"/>
      </defs>
      <use xlink:href="#DejaVuSans-52"/>
      <use xlink:href="#DejaVuSans-4a" x="69.482422"/>
     </g>
    </g>
    <g id="line2d_47">
     <path d="M 316.084063 69.248563 
L 326.084063 69.248563 
L 336.084063 69.248563 
" style="fill: none; stroke: #ffd700; stroke-width: 1.5; stroke-linecap: square"/>
    </g>
    <g id="text_19">
     <!-- BR -->
     <g transform="translate(344.084063 72.748563) scale(0.1 -0.1)">
      <defs>
       <path id="DejaVuSans-42" d="M 1259 2228 
L 1259 519 
L 2272 519 
Q 2781 519 3026 730 
Q 3272 941 3272 1375 
Q 3272 1813 3026 2020 
Q 2781 2228 2272 2228 
L 1259 2228 
z
M 1259 4147 
L 1259 2741 
L 2194 2741 
Q 2656 2741 2882 2914 
Q 3109 3088 3109 3444 
Q 3109 3797 2882 3972 
Q 2656 4147 2194 4147 
L 1259 4147 
z
M 628 4666 
L 2241 4666 
Q 2963 4666 3353 4366 
Q 3744 4066 3744 3513 
Q 3744 3084 3544 2831 
Q 3344 2578 2956 2516 
Q 3422 2416 3680 2098 
Q 3938 1781 3938 1306 
Q 3938 681 3513 340 
Q 3088 0 2303 0 
L 628 0 
L 628 4666 
z
" transform="scale(0.015625)"/>
      </defs>
      <use xlink:href="#DejaVuSans-42"/>
      <use xlink:href="#DejaVuSans-52" x="68.603516"/>
     </g>
    </g>
    <g id="line2d_48">
     <path d="M 316.084063 83.926688 
L 326.084063 83.926688 
L 336.084063 83.926688 
" style="fill: none; stroke-dasharray: 5.55,2.4; stroke-dashoffset: 0; stroke: #dc143c; stroke-width: 1.5"/>
    </g>
    <g id="text_20">
     <!-- Média Anual -->
     <g transform="translate(344.084063 87.426688) scale(0.1 -0.1)">
      <use xlink:href="#DejaVuSans-4d"/>
      <use xlink:href="#DejaVuSans-e9" x="86.279297"/>
      <use xlink:href="#DejaVuSans-64" x="147.802734"/>
      <use xlink:href="#DejaVuSans-69" x="211.279297"/>
      <use xlink:href="#DejaVuSans-61" x="239.0625"/>
      <use xlink:href="#DejaVuSans-20" x="300.341797"/>
      <use xlink:href="#DejaVuSans-41" x="332.128906"/>
      <use xlink:href="#DejaVuSans-6e" x="400.537109"/>
      <use xlink:href="#DejaVuSans-75" x="463.916016"/>
      <use xlink:href="#DejaVuSans-61" x="527.294922"/>
      <use xlink:href="#DejaVuSans-6c" x="588.574219"/>
     </g>
    </g>
   </g>
  </g>
 </g>
 <defs>
  <clipPath id="p39af355d70">
   <rect x="57.6" y="41.472" width="357.12" height="266.112"/>
  </clipPath>
 </defs>
</svg>
