<?xml version="1.0" encoding="utf-8" standalone="no"?>
<!DOCTYPE svg PUBLIC "-//W3C//DTD SVG 1.1//EN"
  "http://www.w3.org/Graphics/SVG/1.1/DTD/svg11.dtd">
<svg xmlns:xlink="http://www.w3.org/1999/xlink" width="460.8pt" height="345.6pt" viewBox="0 0 460.8 345.6" xmlns="http://www.w3.org/2000/svg" version="1.1">
 <metadata>
  <rdf:RDF xmlns:dc="http://purl.org/dc/elements/1.1/" xmlns:cc="http://creativecommons.org/ns#" xmlns:rdf="http://www.w3.org/1999/02/22-rdf-syntax-ns#">
   <cc:Work>
    <dc:type rdf:resource="http://purl.org/dc/dcmitype/StillImage"/>
    <dc:date>2024-09-06T11:41:47.053114</dc:date>
    <dc:format>image/svg+xml</dc:format>
    <dc:creator>
     <cc:Agent>
      <dc:title>Matplotlib v3.9.2, https://matplotlib.org/</dc:title>
     </cc:Agent>
    </dc:creator>
   </cc:Work>
  </rdf:RDF>
 </metadata>
 <defs>
  <style type="text/css">*{stroke-linejoin: round; stroke-linecap: butt}</style>
 </defs>
 <g id="figure_1">
  <g id="patch_1">
   <path d="M 0 345.6 
L 460.8 345.6 
L 460.8 0 
L 0 0 
z
" style="fill: #ffffff"/>
  </g>
  <g id="axes_1">
   <g id="patch_2">
    <path d="M 57.6 307.584 
L 414.72 307.584 
L 414.72 41.472 
L 57.6 41.472 
z
" style="fill: #ffffff"/>
   </g>
   <g id="matplotlib.axis_1">
    <g id="xtick_1">
     <g id="line2d_1">
      <defs>
       <path id="m23d2761813" d="M 0 0 
L 0 3.5 
" style="stroke: #000000; stroke-width: 0.8"/>
      </defs>
      <g>
       <use xlink:href="#m23d2761813" x="91.855375" y="307.584" style="stroke: #000000; stroke-width: 0.8"/>
      </g>
     </g>
     <g id="text_1">
      <!-- 2004 -->
      <g transform="translate(79.130375 322.182437) scale(0.1 -0.1)">
       <defs>
        <path id="DejaVuSans-32" d="M 1228 531 
L 3431 531 
L 3431 0 
L 469 0 
L 469 531 
Q 828 903 1448 1529 
Q 2069 2156 2228 2338 
Q 2531 2678 2651 2914 
Q 2772 3150 2772 3378 
Q 2772 3750 2511 3984 
Q 2250 4219 1831 4219 
Q 1534 4219 1204 4116 
Q 875 4013 500 3803 
L 500 4441 
Q 881 4594 1212 4672 
Q 1544 4750 1819 4750 
Q 2544 4750 2975 4387 
Q 3406 4025 3406 3419 
Q 3406 3131 3298 2873 
Q 3191 2616 2906 2266 
Q 2828 2175 2409 1742 
Q 1991 1309 1228 531 
z
" transform="scale(0.015625)"/>
        <path id="DejaVuSans-30" d="M 2034 4250 
Q 1547 4250 1301 3770 
Q 1056 3291 1056 2328 
Q 1056 1369 1301 889 
Q 1547 409 2034 409 
Q 2525 409 2770 889 
Q 3016 1369 3016 2328 
Q 3016 3291 2770 3770 
Q 2525 4250 2034 4250 
z
M 2034 4750 
Q 2819 4750 3233 4129 
Q 3647 3509 3647 2328 
Q 3647 1150 3233 529 
Q 2819 -91 2034 -91 
Q 1250 -91 836 529 
Q 422 1150 422 2328 
Q 422 3509 836 4129 
Q 1250 4750 2034 4750 
z
" transform="scale(0.015625)"/>
        <path id="DejaVuSans-34" d="M 2419 4116 
L 825 1625 
L 2419 1625 
L 2419 4116 
z
M 2253 4666 
L 3047 4666 
L 3047 1625 
L 3713 1625 
L 3713 1100 
L 3047 1100 
L 3047 0 
L 2419 0 
L 2419 1100 
L 313 1100 
L 313 1709 
L 2253 4666 
z
" transform="scale(0.015625)"/>
       </defs>
       <use xlink:href="#DejaVuSans-32"/>
       <use xlink:href="#DejaVuSans-30" x="63.623047"/>
       <use xlink:href="#DejaVuSans-30" x="127.246094"/>
       <use xlink:href="#DejaVuSans-34" x="190.869141"/>
      </g>
     </g>
    </g>
    <g id="xtick_2">
     <g id="line2d_2">
      <g>
       <use xlink:href="#m23d2761813" x="127.950048" y="307.584" style="stroke: #000000; stroke-width: 0.8"/>
      </g>
     </g>
     <g id="text_2">
      <!-- 2006 -->
      <g transform="translate(115.225048 322.182437) scale(0.1 -0.1)">
       <defs>
        <path id="DejaVuSans-36" d="M 2113 2584 
Q 1688 2584 1439 2293 
Q 1191 2003 1191 1497 
Q 1191 994 1439 701 
Q 1688 409 2113 409 
Q 2538 409 2786 701 
Q 3034 994 3034 1497 
Q 3034 2003 2786 2293 
Q 2538 2584 2113 2584 
z
M 3366 4563 
L 3366 3988 
Q 3128 4100 2886 4159 
Q 2644 4219 2406 4219 
Q 1781 4219 1451 3797 
Q 1122 3375 1075 2522 
Q 1259 2794 1537 2939 
Q 1816 3084 2150 3084 
Q 2853 3084 3261 2657 
Q 3669 2231 3669 1497 
Q 3669 778 3244 343 
Q 2819 -91 2113 -91 
Q 1303 -91 875 529 
Q 447 1150 447 2328 
Q 447 3434 972 4092 
Q 1497 4750 2381 4750 
Q 2619 4750 2861 4703 
Q 3103 4656 3366 4563 
z
" transform="scale(0.015625)"/>
       </defs>
       <use xlink:href="#DejaVuSans-32"/>
       <use xlink:href="#DejaVuSans-30" x="63.623047"/>
       <use xlink:href="#DejaVuSans-30" x="127.246094"/>
       <use xlink:href="#DejaVuSans-36" x="190.869141"/>
      </g>
     </g>
    </g>
    <g id="xtick_3">
     <g id="line2d_3">
      <g>
       <use xlink:href="#m23d2761813" x="163.995343" y="307.584" style="stroke: #000000; stroke-width: 0.8"/>
      </g>
     </g>
     <g id="text_3">
      <!-- 2008 -->
      <g transform="translate(151.270343 322.182437) scale(0.1 -0.1)">
       <defs>
        <path id="DejaVuSans-38" d="M 2034 2216 
Q 1584 2216 1326 1975 
Q 1069 1734 1069 1313 
Q 1069 891 1326 650 
Q 1584 409 2034 409 
Q 2484 409 2743 651 
Q 3003 894 3003 1313 
Q 3003 1734 2745 1975 
Q 2488 2216 2034 2216 
z
M 1403 2484 
Q 997 2584 770 2862 
Q 544 3141 544 3541 
Q 544 4100 942 4425 
Q 1341 4750 2034 4750 
Q 2731 4750 3128 4425 
Q 3525 4100 3525 3541 
Q 3525 3141 3298 2862 
Q 3072 2584 2669 2484 
Q 3125 2378 3379 2068 
Q 3634 1759 3634 1313 
Q 3634 634 3220 271 
Q 2806 -91 2034 -91 
Q 1263 -91 848 271 
Q 434 634 434 1313 
Q 434 1759 690 2068 
Q 947 2378 1403 2484 
z
M 1172 3481 
Q 1172 3119 1398 2916 
Q 1625 2713 2034 2713 
Q 2441 2713 2670 2916 
Q 2900 3119 2900 3481 
Q 2900 3844 2670 4047 
Q 2441 4250 2034 4250 
Q 1625 4250 1398 4047 
Q 1172 3844 1172 3481 
z
" transform="scale(0.015625)"/>
       </defs>
       <use xlink:href="#DejaVuSans-32"/>
       <use xlink:href="#DejaVuSans-30" x="63.623047"/>
       <use xlink:href="#DejaVuSans-30" x="127.246094"/>
       <use xlink:href="#DejaVuSans-38" x="190.869141"/>
      </g>
     </g>
    </g>
    <g id="xtick_4">
     <g id="line2d_4">
      <g>
       <use xlink:href="#m23d2761813" x="200.090016" y="307.584" style="stroke: #000000; stroke-width: 0.8"/>
      </g>
     </g>
     <g id="text_4">
      <!-- 2010 -->
      <g transform="translate(187.365016 322.182437) scale(0.1 -0.1)">
       <defs>
        <path id="DejaVuSans-31" d="M 794 531 
L 1825 531 
L 1825 4091 
L 703 3866 
L 703 4441 
L 1819 4666 
L 2450 4666 
L 2450 531 
L 3481 531 
L 3481 0 
L 794 0 
L 794 531 
z
" transform="scale(0.015625)"/>
       </defs>
       <use xlink:href="#DejaVuSans-32"/>
       <use xlink:href="#DejaVuSans-30" x="63.623047"/>
       <use xlink:href="#DejaVuSans-31" x="127.246094"/>
       <use xlink:href="#DejaVuSans-30" x="190.869141"/>
      </g>
     </g>
    </g>
    <g id="xtick_5">
     <g id="line2d_5">
      <g>
       <use xlink:href="#m23d2761813" x="236.135311" y="307.584" style="stroke: #000000; stroke-width: 0.8"/>
      </g>
     </g>
     <g id="text_5">
      <!-- 2012 -->
      <g transform="translate(223.410311 322.182437) scale(0.1 -0.1)">
       <use xlink:href="#DejaVuSans-32"/>
       <use xlink:href="#DejaVuSans-30" x="63.623047"/>
       <use xlink:href="#DejaVuSans-31" x="127.246094"/>
       <use xlink:href="#DejaVuSans-32" x="190.869141"/>
      </g>
     </g>
    </g>
    <g id="xtick_6">
     <g id="line2d_6">
      <g>
       <use xlink:href="#m23d2761813" x="272.229984" y="307.584" style="stroke: #000000; stroke-width: 0.8"/>
      </g>
     </g>
     <g id="text_6">
      <!-- 2014 -->
      <g transform="translate(259.504984 322.182437) scale(0.1 -0.1)">
       <use xlink:href="#DejaVuSans-32"/>
       <use xlink:href="#DejaVuSans-30" x="63.623047"/>
       <use xlink:href="#DejaVuSans-31" x="127.246094"/>
       <use xlink:href="#DejaVuSans-34" x="190.869141"/>
      </g>
     </g>
    </g>
    <g id="xtick_7">
     <g id="line2d_7">
      <g>
       <use xlink:href="#m23d2761813" x="308.27528" y="307.584" style="stroke: #000000; stroke-width: 0.8"/>
      </g>
     </g>
     <g id="text_7">
      <!-- 2016 -->
      <g transform="translate(295.55028 322.182437) scale(0.1 -0.1)">
       <use xlink:href="#DejaVuSans-32"/>
       <use xlink:href="#DejaVuSans-30" x="63.623047"/>
       <use xlink:href="#DejaVuSans-31" x="127.246094"/>
       <use xlink:href="#DejaVuSans-36" x="190.869141"/>
      </g>
     </g>
    </g>
    <g id="xtick_8">
     <g id="line2d_8">
      <g>
       <use xlink:href="#m23d2761813" x="344.369952" y="307.584" style="stroke: #000000; stroke-width: 0.8"/>
      </g>
     </g>
     <g id="text_8">
      <!-- 2018 -->
      <g transform="translate(331.644952 322.182437) scale(0.1 -0.1)">
       <use xlink:href="#DejaVuSans-32"/>
       <use xlink:href="#DejaVuSans-30" x="63.623047"/>
       <use xlink:href="#DejaVuSans-31" x="127.246094"/>
       <use xlink:href="#DejaVuSans-38" x="190.869141"/>
      </g>
     </g>
    </g>
    <g id="xtick_9">
     <g id="line2d_9">
      <g>
       <use xlink:href="#m23d2761813" x="380.415248" y="307.584" style="stroke: #000000; stroke-width: 0.8"/>
      </g>
     </g>
     <g id="text_9">
      <!-- 2020 -->
      <g transform="translate(367.690248 322.182437) scale(0.1 -0.1)">
       <use xlink:href="#DejaVuSans-32"/>
       <use xlink:href="#DejaVuSans-30" x="63.623047"/>
       <use xlink:href="#DejaVuSans-32" x="127.246094"/>
       <use xlink:href="#DejaVuSans-30" x="190.869141"/>
      </g>
     </g>
    </g>
    <g id="text_10">
     <!-- Ano -->
     <g transform="translate(226.511562 335.860562) scale(0.1 -0.1)">
      <defs>
       <path id="DejaVuSans-41" d="M 2188 4044 
L 1331 1722 
L 3047 1722 
L 2188 4044 
z
M 1831 4666 
L 2547 4666 
L 4325 0 
L 3669 0 
L 3244 1197 
L 1141 1197 
L 716 0 
L 50 0 
L 1831 4666 
z
" transform="scale(0.015625)"/>
       <path id="DejaVuSans-6e" d="M 3513 2113 
L 3513 0 
L 2938 0 
L 2938 2094 
Q 2938 2591 2744 2837 
Q 2550 3084 2163 3084 
Q 1697 3084 1428 2787 
Q 1159 2491 1159 1978 
L 1159 0 
L 581 0 
L 581 3500 
L 1159 3500 
L 1159 2956 
Q 1366 3272 1645 3428 
Q 1925 3584 2291 3584 
Q 2894 3584 3203 3211 
Q 3513 2838 3513 2113 
z
" transform="scale(0.015625)"/>
       <path id="DejaVuSans-6f" d="M 1959 3097 
Q 1497 3097 1228 2736 
Q 959 2375 959 1747 
Q 959 1119 1226 758 
Q 1494 397 1959 397 
Q 2419 397 2687 759 
Q 2956 1122 2956 1747 
Q 2956 2369 2687 2733 
Q 2419 3097 1959 3097 
z
M 1959 3584 
Q 2709 3584 3137 3096 
Q 3566 2609 3566 1747 
Q 3566 888 3137 398 
Q 2709 -91 1959 -91 
Q 1206 -91 779 398 
Q 353 888 353 1747 
Q 353 2609 779 3096 
Q 1206 3584 1959 3584 
z
" transform="scale(0.015625)"/>
      </defs>
      <use xlink:href="#DejaVuSans-41"/>
      <use xlink:href="#DejaVuSans-6e" x="68.408203"/>
      <use xlink:href="#DejaVuSans-6f" x="131.787109"/>
     </g>
    </g>
   </g>
   <g id="matplotlib.axis_2">
    <g id="ytick_1">
     <g id="line2d_10">
      <defs>
       <path id="m582677cabc" d="M 0 0 
L -3.5 0 
" style="stroke: #000000; stroke-width: 0.8"/>
      </defs>
      <g>
       <use xlink:href="#m582677cabc" x="57.6" y="268.275873" style="stroke: #000000; stroke-width: 0.8"/>
      </g>
     </g>
     <g id="text_11">
      <!-- −0.2 -->
      <g transform="translate(26.317187 272.075092) scale(0.1 -0.1)">
       <defs>
        <path id="DejaVuSans-2212" d="M 678 2272 
L 4684 2272 
L 4684 1741 
L 678 1741 
L 678 2272 
z
" transform="scale(0.015625)"/>
        <path id="DejaVuSans-2e" d="M 684 794 
L 1344 794 
L 1344 0 
L 684 0 
L 684 794 
z
" transform="scale(0.015625)"/>
       </defs>
       <use xlink:href="#DejaVuSans-2212"/>
       <use xlink:href="#DejaVuSans-30" x="83.789062"/>
       <use xlink:href="#DejaVuSans-2e" x="147.412109"/>
       <use xlink:href="#DejaVuSans-32" x="179.199219"/>
      </g>
     </g>
    </g>
    <g id="ytick_2">
     <g id="line2d_11">
      <g>
       <use xlink:href="#m582677cabc" x="57.6" y="223.922474" style="stroke: #000000; stroke-width: 0.8"/>
      </g>
     </g>
     <g id="text_12">
      <!-- 0.0 -->
      <g transform="translate(34.696875 227.721692) scale(0.1 -0.1)">
       <use xlink:href="#DejaVuSans-30"/>
       <use xlink:href="#DejaVuSans-2e" x="63.623047"/>
       <use xlink:href="#DejaVuSans-30" x="95.410156"/>
      </g>
     </g>
    </g>
    <g id="ytick_3">
     <g id="line2d_12">
      <g>
       <use xlink:href="#m582677cabc" x="57.6" y="179.569074" style="stroke: #000000; stroke-width: 0.8"/>
      </g>
     </g>
     <g id="text_13">
      <!-- 0.2 -->
      <g transform="translate(34.696875 183.368293) scale(0.1 -0.1)">
       <use xlink:href="#DejaVuSans-30"/>
       <use xlink:href="#DejaVuSans-2e" x="63.623047"/>
       <use xlink:href="#DejaVuSans-32" x="95.410156"/>
      </g>
     </g>
    </g>
    <g id="ytick_4">
     <g id="line2d_13">
      <g>
       <use xlink:href="#m582677cabc" x="57.6" y="135.215674" style="stroke: #000000; stroke-width: 0.8"/>
      </g>
     </g>
     <g id="text_14">
      <!-- 0.4 -->
      <g transform="translate(34.696875 139.014893) scale(0.1 -0.1)">
       <use xlink:href="#DejaVuSans-30"/>
       <use xlink:href="#DejaVuSans-2e" x="63.623047"/>
       <use xlink:href="#DejaVuSans-34" x="95.410156"/>
      </g>
     </g>
    </g>
    <g id="ytick_5">
     <g id="line2d_14">
      <g>
       <use xlink:href="#m582677cabc" x="57.6" y="90.862275" style="stroke: #000000; stroke-width: 0.8"/>
      </g>
     </g>
     <g id="text_15">
      <!-- 0.6 -->
      <g transform="translate(34.696875 94.661493) scale(0.1 -0.1)">
       <use xlink:href="#DejaVuSans-30"/>
       <use xlink:href="#DejaVuSans-2e" x="63.623047"/>
       <use xlink:href="#DejaVuSans-36" x="95.410156"/>
      </g>
     </g>
    </g>
    <g id="ytick_6">
     <g id="line2d_15">
      <g>
       <use xlink:href="#m582677cabc" x="57.6" y="46.508875" style="stroke: #000000; stroke-width: 0.8"/>
      </g>
     </g>
     <g id="text_16">
      <!-- 0.8 -->
      <g transform="translate(34.696875 50.308094) scale(0.1 -0.1)">
       <use xlink:href="#DejaVuSans-30"/>
       <use xlink:href="#DejaVuSans-2e" x="63.623047"/>
       <use xlink:href="#DejaVuSans-38" x="95.410156"/>
      </g>
     </g>
    </g>
    <g id="text_17">
     <!-- Crescimento real -->
     <g transform="translate(20.2375 216.978781) rotate(-90) scale(0.1 -0.1)">
      <defs>
       <path id="DejaVuSans-43" d="M 4122 4306 
L 4122 3641 
Q 3803 3938 3442 4084 
Q 3081 4231 2675 4231 
Q 1875 4231 1450 3742 
Q 1025 3253 1025 2328 
Q 1025 1406 1450 917 
Q 1875 428 2675 428 
Q 3081 428 3442 575 
Q 3803 722 4122 1019 
L 4122 359 
Q 3791 134 3420 21 
Q 3050 -91 2638 -91 
Q 1578 -91 968 557 
Q 359 1206 359 2328 
Q 359 3453 968 4101 
Q 1578 4750 2638 4750 
Q 3056 4750 3426 4639 
Q 3797 4528 4122 4306 
z
" transform="scale(0.015625)"/>
       <path id="DejaVuSans-72" d="M 2631 2963 
Q 2534 3019 2420 3045 
Q 2306 3072 2169 3072 
Q 1681 3072 1420 2755 
Q 1159 2438 1159 1844 
L 1159 0 
L 581 0 
L 581 3500 
L 1159 3500 
L 1159 2956 
Q 1341 3275 1631 3429 
Q 1922 3584 2338 3584 
Q 2397 3584 2469 3576 
Q 2541 3569 2628 3553 
L 2631 2963 
z
" transform="scale(0.015625)"/>
       <path id="DejaVuSans-65" d="M 3597 1894 
L 3597 1613 
L 953 1613 
Q 991 1019 1311 708 
Q 1631 397 2203 397 
Q 2534 397 2845 478 
Q 3156 559 3463 722 
L 3463 178 
Q 3153 47 2828 -22 
Q 2503 -91 2169 -91 
Q 1331 -91 842 396 
Q 353 884 353 1716 
Q 353 2575 817 3079 
Q 1281 3584 2069 3584 
Q 2775 3584 3186 3129 
Q 3597 2675 3597 1894 
z
M 3022 2063 
Q 3016 2534 2758 2815 
Q 2500 3097 2075 3097 
Q 1594 3097 1305 2825 
Q 1016 2553 972 2059 
L 3022 2063 
z
" transform="scale(0.015625)"/>
       <path id="DejaVuSans-73" d="M 2834 3397 
L 2834 2853 
Q 2591 2978 2328 3040 
Q 2066 3103 1784 3103 
Q 1356 3103 1142 2972 
Q 928 2841 928 2578 
Q 928 2378 1081 2264 
Q 1234 2150 1697 2047 
L 1894 2003 
Q 2506 1872 2764 1633 
Q 3022 1394 3022 966 
Q 3022 478 2636 193 
Q 2250 -91 1575 -91 
Q 1294 -91 989 -36 
Q 684 19 347 128 
L 347 722 
Q 666 556 975 473 
Q 1284 391 1588 391 
Q 1994 391 2212 530 
Q 2431 669 2431 922 
Q 2431 1156 2273 1281 
Q 2116 1406 1581 1522 
L 1381 1569 
Q 847 1681 609 1914 
Q 372 2147 372 2553 
Q 372 3047 722 3315 
Q 1072 3584 1716 3584 
Q 2034 3584 2315 3537 
Q 2597 3491 2834 3397 
z
" transform="scale(0.015625)"/>
       <path id="DejaVuSans-63" d="M 3122 3366 
L 3122 2828 
Q 2878 2963 2633 3030 
Q 2388 3097 2138 3097 
Q 1578 3097 1268 2742 
Q 959 2388 959 1747 
Q 959 1106 1268 751 
Q 1578 397 2138 397 
Q 2388 397 2633 464 
Q 2878 531 3122 666 
L 3122 134 
Q 2881 22 2623 -34 
Q 2366 -91 2075 -91 
Q 1284 -91 818 406 
Q 353 903 353 1747 
Q 353 2603 823 3093 
Q 1294 3584 2113 3584 
Q 2378 3584 2631 3529 
Q 2884 3475 3122 3366 
z
" transform="scale(0.015625)"/>
       <path id="DejaVuSans-69" d="M 603 3500 
L 1178 3500 
L 1178 0 
L 603 0 
L 603 3500 
z
M 603 4863 
L 1178 4863 
L 1178 4134 
L 603 4134 
L 603 4863 
z
" transform="scale(0.015625)"/>
       <path id="DejaVuSans-6d" d="M 3328 2828 
Q 3544 3216 3844 3400 
Q 4144 3584 4550 3584 
Q 5097 3584 5394 3201 
Q 5691 2819 5691 2113 
L 5691 0 
L 5113 0 
L 5113 2094 
Q 5113 2597 4934 2840 
Q 4756 3084 4391 3084 
Q 3944 3084 3684 2787 
Q 3425 2491 3425 1978 
L 3425 0 
L 2847 0 
L 2847 2094 
Q 2847 2600 2669 2842 
Q 2491 3084 2119 3084 
Q 1678 3084 1418 2786 
Q 1159 2488 1159 1978 
L 1159 0 
L 581 0 
L 581 3500 
L 1159 3500 
L 1159 2956 
Q 1356 3278 1631 3431 
Q 1906 3584 2284 3584 
Q 2666 3584 2933 3390 
Q 3200 3197 3328 2828 
z
" transform="scale(0.015625)"/>
       <path id="DejaVuSans-74" d="M 1172 4494 
L 1172 3500 
L 2356 3500 
L 2356 3053 
L 1172 3053 
L 1172 1153 
Q 1172 725 1289 603 
Q 1406 481 1766 481 
L 2356 481 
L 2356 0 
L 1766 0 
Q 1100 0 847 248 
Q 594 497 594 1153 
L 594 3053 
L 172 3053 
L 172 3500 
L 594 3500 
L 594 4494 
L 1172 4494 
z
" transform="scale(0.015625)"/>
       <path id="DejaVuSans-20" transform="scale(0.015625)"/>
       <path id="DejaVuSans-61" d="M 2194 1759 
Q 1497 1759 1228 1600 
Q 959 1441 959 1056 
Q 959 750 1161 570 
Q 1363 391 1709 391 
Q 2188 391 2477 730 
Q 2766 1069 2766 1631 
L 2766 1759 
L 2194 1759 
z
M 3341 1997 
L 3341 0 
L 2766 0 
L 2766 531 
Q 2569 213 2275 61 
Q 1981 -91 1556 -91 
Q 1019 -91 701 211 
Q 384 513 384 1019 
Q 384 1609 779 1909 
Q 1175 2209 1959 2209 
L 2766 2209 
L 2766 2266 
Q 2766 2663 2505 2880 
Q 2244 3097 1772 3097 
Q 1472 3097 1187 3025 
Q 903 2953 641 2809 
L 641 3341 
Q 956 3463 1253 3523 
Q 1550 3584 1831 3584 
Q 2591 3584 2966 3190 
Q 3341 2797 3341 1997 
z
" transform="scale(0.015625)"/>
       <path id="DejaVuSans-6c" d="M 603 4863 
L 1178 4863 
L 1178 0 
L 603 0 
L 603 4863 
z
" transform="scale(0.015625)"/>
      </defs>
      <use xlink:href="#DejaVuSans-43"/>
      <use xlink:href="#DejaVuSans-72" x="69.824219"/>
      <use xlink:href="#DejaVuSans-65" x="108.6875"/>
      <use xlink:href="#DejaVuSans-73" x="170.210938"/>
      <use xlink:href="#DejaVuSans-63" x="222.310547"/>
      <use xlink:href="#DejaVuSans-69" x="277.291016"/>
      <use xlink:href="#DejaVuSans-6d" x="305.074219"/>
      <use xlink:href="#DejaVuSans-65" x="402.486328"/>
      <use xlink:href="#DejaVuSans-6e" x="464.009766"/>
      <use xlink:href="#DejaVuSans-74" x="527.388672"/>
      <use xlink:href="#DejaVuSans-6f" x="566.597656"/>
      <use xlink:href="#DejaVuSans-20" x="627.779297"/>
      <use xlink:href="#DejaVuSans-72" x="659.566406"/>
      <use xlink:href="#DejaVuSans-65" x="698.429688"/>
      <use xlink:href="#DejaVuSans-61" x="759.953125"/>
      <use xlink:href="#DejaVuSans-6c" x="821.232422"/>
     </g>
    </g>
   </g>
   <g id="line2d_16">
    <path d="M 73.832727 221.534447 
L 91.855375 241.421123 
L 109.9274 214.13596 
L 127.950048 206.910726 
L 145.972695 212.877514 
L 163.995343 160.888798 
L 182.067368 221.42036 
L 200.090016 219.352078 
L 218.112664 211.655259 
L 236.135311 224.937436 
L 254.207336 222.557169 
L 272.229984 224.30644 
L 290.252632 252.430547 
L 308.27528 251.412879 
L 326.347305 246.542569 
L 344.369952 229.604013 
L 362.3926 236.836607 
L 380.415248 217.876743 
L 398.487273 190.264808 
" clip-path="url(#p3c183179ff)" style="fill: none; stroke: #dcdcdc; stroke-width: 1.5; stroke-linecap: square"/>
   </g>
   <g id="line2d_17">
    <path d="M 73.832727 256.219889 
L 91.855375 125.816326 
L 109.9274 263.131249 
L 127.950048 202.265859 
L 145.972695 144.894066 
L 163.995343 273.393569 
L 182.067368 186.192119 
L 200.090016 164.574563 
L 218.112664 225.320575 
L 236.135311 210.60169 
L 254.207336 203.283181 
L 272.229984 220.78123 
L 290.252632 251.039639 
L 308.27528 259.896372 
L 326.347305 245.647751 
L 344.369952 240.598336 
L 362.3926 225.272405 
L 380.415248 222.371137 
L 398.487273 193.359665 
" clip-path="url(#p3c183179ff)" style="fill: none; stroke: #dcdcdc; stroke-width: 1.5; stroke-linecap: square"/>
   </g>
   <g id="line2d_18">
    <path d="M 73.832727 256.959529 
L 91.855375 201.872903 
L 109.9274 225.574364 
L 127.950048 194.600718 
L 145.972695 217.587819 
L 163.995343 209.467502 
L 182.067368 200.523782 
L 200.090016 205.982562 
L 218.112664 198.3126 
L 236.135311 215.895643 
L 254.207336 221.912841 
L 272.229984 216.209645 
L 290.252632 228.351433 
L 308.27528 252.618029 
L 326.347305 249.272575 
L 344.369952 227.85869 
L 362.3926 226.487924 
L 380.415248 232.957687 
L 398.487273 196.657557 
" clip-path="url(#p3c183179ff)" style="fill: none; stroke: #dcdcdc; stroke-width: 1.5; stroke-linecap: square"/>
   </g>
   <g id="line2d_19">
    <path d="M 73.832727 229.773312 
L 91.855375 159.638777 
L 109.9274 238.638763 
L 127.950048 233.314715 
L 145.972695 193.189259 
L 163.995343 217.565825 
L 182.067368 200.766194 
L 200.090016 216.23914 
L 218.112664 199.143696 
L 236.135311 216.15373 
L 254.207336 214.316963 
L 272.229984 231.075878 
L 290.252632 240.310932 
L 308.27528 255.946452 
L 326.347305 243.846572 
L 344.369952 229.565328 
L 362.3926 230.782188 
L 380.415248 225.197525 
L 398.487273 202.294865 
" clip-path="url(#p3c183179ff)" style="fill: none; stroke: #dcdcdc; stroke-width: 1.5; stroke-linecap: square"/>
   </g>
   <g id="line2d_20">
    <path d="M 73.832727 245.251925 
L 91.855375 184.21804 
L 109.9274 295.455028 
L 127.950048 128.75695 
L 145.972695 200.989437 
L 163.995343 196.480731 
L 182.067368 224.736339 
L 200.090016 189.259333 
L 218.112664 191.1358 
L 236.135311 206.212925 
L 254.207336 209.455372 
L 272.229984 218.270674 
L 290.252632 245.800288 
L 308.27528 247.4367 
L 326.347305 248.666037 
L 344.369952 235.094468 
L 362.3926 229.868361 
L 380.415248 229.945398 
L 398.487273 193.790619 
" clip-path="url(#p3c183179ff)" style="fill: none; stroke: #dcdcdc; stroke-width: 1.5; stroke-linecap: square"/>
   </g>
   <g id="line2d_21">
    <path d="M 73.832727 286.124986 
L 91.855375 163.088635 
L 109.9274 224.899294 
L 127.950048 215.612841 
L 145.972695 201.7661 
L 163.995343 217.13339 
L 182.067368 218.946175 
L 200.090016 176.357675 
L 218.112664 189.961018 
L 236.135311 212.45043 
L 254.207336 218.573601 
L 272.229984 236.75493 
L 290.252632 268.322516 
L 308.27528 253.122468 
L 326.347305 253.247809 
L 344.369952 228.461683 
L 362.3926 223.215197 
L 380.415248 236.079627 
L 398.487273 208.476099 
" clip-path="url(#p3c183179ff)" style="fill: none; stroke: #dcdcdc; stroke-width: 1.5; stroke-linecap: square"/>
   </g>
   <g id="line2d_22">
    <path d="M 73.832727 266.945549 
L 91.855375 146.530809 
L 109.9274 224.583199 
L 127.950048 251.881282 
L 145.972695 176.862648 
L 163.995343 181.641535 
L 182.067368 224.276931 
L 200.090016 184.691734 
L 218.112664 170.238387 
L 236.135311 217.350773 
L 254.207336 226.198067 
L 272.229984 223.702276 
L 290.252632 245.65509 
L 308.27528 250.64233 
L 326.347305 247.878551 
L 344.369952 231.640911 
L 362.3926 214.572924 
L 380.415248 227.420078 
L 398.487273 197.843266 
" clip-path="url(#p3c183179ff)" style="fill: none; stroke: #dcdcdc; stroke-width: 1.5; stroke-linecap: square"/>
   </g>
   <g id="line2d_23">
    <path d="M 73.832727 253.480007 
L 91.855375 171.268974 
L 109.9274 264.834222 
L 127.950048 181.537478 
L 145.972695 200.010363 
L 163.995343 212.022046 
L 182.067368 219.785794 
L 200.090016 180.03853 
L 218.112664 209.356898 
L 236.135311 212.830935 
L 254.207336 224.226028 
L 272.229984 225.62357 
L 290.252632 242.196174 
L 308.27528 240.937834 
L 326.347305 253.167117 
L 344.369952 230.701706 
L 362.3926 221.829478 
L 380.415248 237.906663 
L 398.487273 210.121218 
" clip-path="url(#p3c183179ff)" style="fill: none; stroke: #dcdcdc; stroke-width: 1.5; stroke-linecap: square"/>
   </g>
   <g id="line2d_24">
    <path d="M 73.832727 242.47292 
L 91.855375 190.157602 
L 109.9274 224.859003 
L 127.950048 207.425848 
L 145.972695 216.565685 
L 163.995343 197.174946 
L 182.067368 210.405969 
L 200.090016 195.33421 
L 218.112664 208.49395 
L 236.135311 220.792887 
L 254.207336 213.73098 
L 272.229984 228.683907 
L 290.252632 248.986499 
L 308.27528 249.07058 
L 326.347305 244.622373 
L 344.369952 230.052591 
L 362.3926 215.63615 
L 380.415248 229.035721 
L 398.487273 202.629252 
" clip-path="url(#p3c183179ff)" style="fill: none; stroke: #dcdcdc; stroke-width: 1.5; stroke-linecap: square"/>
   </g>
   <g id="line2d_25">
    <path d="M 73.832727 252.750427 
L 91.855375 70.778677 
L 109.9274 289.40541 
L 127.950048 202.032451 
L 145.972695 164.865597 
L 163.995343 209.144475 
L 182.067368 166.32475 
L 200.090016 183.841509 
L 218.112664 203.645486 
L 236.135311 227.978396 
L 254.207336 239.686243 
L 272.229984 241.439534 
L 290.252632 280.286332 
L 308.27528 287.550444 
L 326.347305 260.132306 
L 344.369952 241.677252 
L 362.3926 233.656627 
L 380.415248 233.230764 
L 398.487273 219.526184 
" clip-path="url(#p3c183179ff)" style="fill: none; stroke: #dcdcdc; stroke-width: 1.5; stroke-linecap: square"/>
   </g>
   <g id="line2d_26">
    <path d="M 73.832727 230.68795 
L 91.855375 210.318667 
L 109.9274 219.915693 
L 127.950048 222.072425 
L 145.972695 181.227304 
L 163.995343 229.09418 
L 182.067368 203.759644 
L 200.090016 200.366149 
L 218.112664 209.989706 
L 236.135311 215.452999 
L 254.207336 215.365955 
L 272.229984 228.808322 
L 290.252632 248.220434 
L 308.27528 249.419862 
L 326.347305 242.882257 
L 344.369952 221.014275 
L 362.3926 209.126774 
L 380.415248 222.03264 
L 398.487273 190.968297 
" clip-path="url(#p3c183179ff)" style="fill: none; stroke: #dcdcdc; stroke-width: 1.5; stroke-linecap: square"/>
   </g>
   <g id="line2d_27">
    <path d="M 73.832727 227.539241 
L 91.855375 207.168076 
L 109.9274 233.829661 
L 127.950048 180.544128 
L 145.972695 244.949994 
L 163.995343 179.587782 
L 182.067368 196.895697 
L 200.090016 209.661783 
L 218.112664 213.859635 
L 236.135311 218.518912 
L 254.207336 225.048029 
L 272.229984 232.258298 
L 290.252632 245.723974 
L 308.27528 245.350248 
L 326.347305 235.616401 
L 344.369952 226.858566 
L 362.3926 209.250655 
L 380.415248 226.37397 
L 398.487273 194.812339 
" clip-path="url(#p3c183179ff)" style="fill: none; stroke: #dcdcdc; stroke-width: 1.5; stroke-linecap: square"/>
   </g>
   <g id="line2d_28">
    <path d="M 73.832727 237.211779 
L 91.855375 204.430727 
L 109.9274 235.465239 
L 127.950048 230.605124 
L 145.972695 203.246362 
L 163.995343 214.669297 
L 182.067368 222.800272 
L 200.090016 192.433086 
L 218.112664 207.873195 
L 236.135311 208.431653 
L 254.207336 211.075415 
L 272.229984 229.175881 
L 290.252632 241.542511 
L 308.27528 256.52235 
L 326.347305 256.742259 
L 344.369952 239.902148 
L 362.3926 219.350613 
L 380.415248 243.834424 
L 398.487273 204.445111 
" clip-path="url(#p3c183179ff)" style="fill: none; stroke: #dcdcdc; stroke-width: 1.5; stroke-linecap: square"/>
   </g>
   <g id="line2d_29">
    <path d="M 73.832727 251.620896 
L 91.855375 203.252207 
L 109.9274 219.943638 
L 127.950048 230.707326 
L 145.972695 215.815018 
L 163.995343 208.79665 
L 182.067368 204.336625 
L 200.090016 198.354785 
L 218.112664 206.655092 
L 236.135311 221.994654 
L 254.207336 213.122225 
L 272.229984 230.551489 
L 290.252632 239.478992 
L 308.27528 239.834679 
L 326.347305 242.713727 
L 344.369952 232.264229 
L 362.3926 219.47234 
L 380.415248 225.571562 
L 398.487273 195.133404 
" clip-path="url(#p3c183179ff)" style="fill: none; stroke: #dcdcdc; stroke-width: 1.5; stroke-linecap: square"/>
   </g>
   <g id="line2d_30">
    <path d="M 73.832727 245.264331 
L 91.855375 222.421336 
L 109.9274 228.358291 
L 127.950048 229.727292 
L 145.972695 179.931556 
L 163.995343 226.547765 
L 182.067368 202.207791 
L 200.090016 192.199243 
L 218.112664 201.123422 
L 236.135311 219.171302 
L 254.207336 215.81666 
L 272.229984 227.604992 
L 290.252632 233.301046 
L 308.27528 240.524219 
L 326.347305 239.298315 
L 344.369952 231.484535 
L 362.3926 215.710506 
L 380.415248 222.121211 
L 398.487273 193.395114 
" clip-path="url(#p3c183179ff)" style="fill: none; stroke: #dcdcdc; stroke-width: 1.5; stroke-linecap: square"/>
   </g>
   <g id="line2d_31">
    <path d="M 73.832727 210.265937 
L 91.855375 207.48009 
L 109.9274 252.558155 
L 127.950048 217.925707 
L 145.972695 186.280828 
L 163.995343 241.622093 
L 182.067368 188.21382 
L 200.090016 182.614979 
L 218.112664 201.668607 
L 236.135311 217.702644 
L 254.207336 210.527172 
L 272.229984 221.452122 
L 290.252632 227.516466 
L 308.27528 237.783137 
L 326.347305 234.512905 
L 344.369952 227.710604 
L 362.3926 218.941681 
L 380.415248 229.873382 
L 398.487273 197.557423 
" clip-path="url(#p3c183179ff)" style="fill: none; stroke: #dcdcdc; stroke-width: 1.5; stroke-linecap: square"/>
   </g>
   <g id="line2d_32">
    <path d="M 73.832727 235.311282 
L 91.855375 212.164846 
L 109.9274 214.527511 
L 127.950048 225.87054 
L 145.972695 204.328053 
L 163.995343 216.414065 
L 182.067368 223.224478 
L 200.090016 192.122769 
L 218.112664 208.064044 
L 236.135311 217.06898 
L 254.207336 210.669276 
L 272.229984 227.214524 
L 290.252632 239.490965 
L 308.27528 236.552299 
L 326.347305 236.805056 
L 344.369952 229.556836 
L 362.3926 225.80383 
L 380.415248 235.062381 
L 398.487273 202.731685 
" clip-path="url(#p3c183179ff)" style="fill: none; stroke: #dcdcdc; stroke-width: 1.5; stroke-linecap: square"/>
   </g>
   <g id="line2d_33">
    <path d="M 73.832727 229.524275 
L 91.855375 192.006923 
L 109.9274 251.265861 
L 127.950048 192.964312 
L 145.972695 219.806973 
L 163.995343 209.467684 
L 182.067368 225.297107 
L 200.090016 186.227025 
L 218.112664 207.924775 
L 236.135311 205.125544 
L 254.207336 213.887347 
L 272.229984 231.687578 
L 290.252632 263.68501 
L 308.27528 221.960115 
L 326.347305 235.1509 
L 344.369952 248.865506 
L 362.3926 224.195264 
L 380.415248 233.227251 
L 398.487273 202.367995 
" clip-path="url(#p3c183179ff)" style="fill: none; stroke: #dcdcdc; stroke-width: 1.5; stroke-linecap: square"/>
   </g>
   <g id="line2d_34">
    <path d="M 73.832727 278.989513 
L 91.855375 53.568 
L 109.9274 295.488 
L 127.950048 164.818925 
L 145.972695 211.087907 
L 163.995343 175.125189 
L 182.067368 158.086537 
L 200.090016 245.531345 
L 218.112664 221.71773 
L 236.135311 214.401069 
L 254.207336 216.620758 
L 272.229984 214.221425 
L 290.252632 263.822084 
L 308.27528 249.738573 
L 326.347305 247.976858 
L 344.369952 244.192194 
L 362.3926 240.959346 
L 380.415248 248.941456 
L 398.487273 178.454842 
" clip-path="url(#p3c183179ff)" style="fill: none; stroke: #dcdcdc; stroke-width: 1.5; stroke-linecap: square"/>
   </g>
   <g id="line2d_35">
    <path d="M 73.832727 230.248813 
L 91.855375 200.240745 
L 109.9274 252.600189 
L 127.950048 227.335383 
L 145.972695 176.627235 
L 163.995343 203.32192 
L 182.067368 225.99009 
L 200.090016 172.872952 
L 218.112664 207.247159 
L 236.135311 202.217282 
L 254.207336 201.922912 
L 272.229984 220.168743 
L 290.252632 252.199983 
L 308.27528 252.589446 
L 326.347305 252.05675 
L 344.369952 222.011978 
L 362.3926 223.85226 
L 380.415248 225.77497 
L 398.487273 189.671434 
" clip-path="url(#p3c183179ff)" style="fill: none; stroke: #dcdcdc; stroke-width: 1.5; stroke-linecap: square"/>
   </g>
   <g id="line2d_36">
    <path d="M 73.832727 236.614077 
L 91.855375 185.138384 
L 109.9274 234.621943 
L 127.950048 207.696556 
L 145.972695 192.693285 
L 163.995343 222.513024 
L 182.067368 206.851025 
L 200.090016 185.363809 
L 218.112664 201.528642 
L 236.135311 221.106545 
L 254.207336 210.952398 
L 272.229984 226.7162 
L 290.252632 253.504147 
L 308.27528 242.420354 
L 326.347305 240.720275 
L 344.369952 227.489311 
L 362.3926 222.296061 
L 380.415248 229.249099 
L 398.487273 191.04753 
" clip-path="url(#p3c183179ff)" style="fill: none; stroke: #dcdcdc; stroke-width: 1.5; stroke-linecap: square"/>
   </g>
   <g id="line2d_37">
    <path d="M 73.832727 260.557071 
L 91.855375 192.906159 
L 109.9274 232.700607 
L 127.950048 246.52605 
L 145.972695 194.442367 
L 163.995343 195.925276 
L 182.067368 193.695502 
L 200.090016 192.865602 
L 218.112664 197.642869 
L 236.135311 220.074641 
L 254.207336 220.624237 
L 272.229984 240.9844 
L 290.252632 249.210691 
L 308.27528 240.390958 
L 326.347305 243.115937 
L 344.369952 219.984813 
L 362.3926 214.325419 
L 380.415248 228.189385 
L 398.487273 184.760269 
" clip-path="url(#p3c183179ff)" style="fill: none; stroke: #dcdcdc; stroke-width: 1.5; stroke-linecap: square"/>
   </g>
   <g id="line2d_38">
    <path d="M 73.832727 243.755576 
L 91.855375 200.093724 
L 109.9274 228.578726 
L 127.950048 223.338736 
L 145.972695 203.526578 
L 163.995343 213.039781 
L 182.067368 208.351824 
L 200.090016 194.868788 
L 218.112664 205.632567 
L 236.135311 216.861451 
L 254.207336 213.952712 
L 272.229984 228.670029 
L 290.252632 243.891517 
L 308.27528 246.064113 
L 326.347305 244.426414 
L 344.369952 230.557365 
L 362.3926 219.675464 
L 380.415248 228.547915 
L 398.487273 195.94345 
" clip-path="url(#p3c183179ff)" style="fill: none; stroke: #dcdcdc; stroke-width: 1.5; stroke-linecap: square"/>
   </g>
   <g id="line2d_39">
    <path d="M 73.832727 224.783567 
L 91.855375 200.683884 
L 109.9274 225.493339 
L 127.950048 221.091496 
L 145.972695 195.744405 
L 163.995343 233.998401 
L 182.067368 164.344257 
L 200.090016 203.253621 
L 218.112664 204.594243 
L 236.135311 207.391264 
L 254.207336 215.903302 
L 272.229984 244.228554 
L 290.252632 246.045915 
L 308.27528 252.409847 
L 326.347305 244.159556 
L 344.369952 219.677111 
L 362.3926 225.794976 
L 380.415248 234.074386 
L 398.487273 188.122057 
" clip-path="url(#p3c183179ff)" style="fill: none; stroke: #dcdcdc; stroke-width: 1.5; stroke-linecap: square"/>
   </g>
   <g id="line2d_40">
    <path d="M 73.832727 250.648122 
L 91.855375 207.882204 
L 109.9274 189.245194 
L 127.950048 130.542266 
L 145.972695 294.070317 
L 163.995343 178.044021 
L 182.067368 173.18498 
L 200.090016 195.153408 
L 218.112664 229.854315 
L 236.135311 211.884023 
L 254.207336 202.918973 
L 272.229984 242.655383 
L 290.252632 240.525081 
L 308.27528 233.682961 
L 326.347305 234.961488 
L 344.369952 214.173819 
L 362.3926 232.651337 
L 380.415248 216.047991 
L 398.487273 168.055145 
" clip-path="url(#p3c183179ff)" style="fill: none; stroke: #dcdcdc; stroke-width: 1.5; stroke-linecap: square"/>
   </g>
   <g id="line2d_41">
    <path d="M 73.832727 209.056851 
L 91.855375 151.457721 
L 109.9274 211.149304 
L 127.950048 242.920242 
L 145.972695 196.343972 
L 163.995343 187.504148 
L 182.067368 243.783726 
L 200.090016 182.069903 
L 218.112664 208.292165 
L 236.135311 200.884888 
L 254.207336 195.635825 
L 272.229984 216.074863 
L 290.252632 244.548374 
L 308.27528 264.649538 
L 326.347305 254.634069 
L 344.369952 233.532547 
L 362.3926 219.091827 
L 380.415248 221.638299 
L 398.487273 188.896959 
" clip-path="url(#p3c183179ff)" style="fill: none; stroke: #dcdcdc; stroke-width: 1.5; stroke-linecap: square"/>
   </g>
   <g id="line2d_42">
    <path d="M 73.832727 212.318141 
L 91.855375 244.29138 
L 109.9274 210.379224 
L 127.950048 167.875249 
L 145.972695 224.83398 
L 163.995343 193.511152 
L 182.067368 254.898771 
L 200.090016 195.86178 
L 218.112664 196.964602 
L 236.135311 175.511211 
L 254.207336 227.434711 
L 272.229984 238.910792 
L 290.252632 263.520384 
L 308.27528 256.023604 
L 326.347305 229.104069 
L 344.369952 215.639145 
L 362.3926 225.336051 
L 380.415248 240.122724 
L 398.487273 203.957392 
" clip-path="url(#p3c183179ff)" style="fill: none; stroke: #dcdcdc; stroke-width: 1.5; stroke-linecap: square"/>
   </g>
   <g id="line2d_43">
    <path d="M 73.832727 260.728068 
L 91.855375 158.709121 
L 109.9274 239.140927 
L 127.950048 214.196612 
L 145.972695 189.967357 
L 163.995343 196.079025 
L 182.067368 239.589194 
L 200.090016 178.6478 
L 218.112664 223.350208 
L 236.135311 218.272149 
L 254.207336 211.689839 
L 272.229984 210.948417 
L 290.252632 250.650806 
L 308.27528 224.876159 
L 326.347305 236.024643 
L 344.369952 223.031522 
L 362.3926 255.363906 
L 380.415248 237.242713 
L 398.487273 173.825557 
" clip-path="url(#p3c183179ff)" style="fill: none; stroke: #dcdcdc; stroke-width: 1.5; stroke-linecap: square"/>
   </g>
   <g id="line2d_44">
    <path d="M 73.832727 237.211779 
L 91.855375 204.430727 
L 109.9274 235.465239 
L 127.950048 230.605124 
L 145.972695 203.246362 
L 163.995343 214.669297 
L 182.067368 222.800272 
L 200.090016 192.433086 
L 218.112664 207.873195 
L 236.135311 208.431653 
L 254.207336 211.075415 
L 272.229984 229.175881 
L 290.252632 241.542511 
L 308.27528 256.52235 
L 326.347305 256.742259 
L 344.369952 239.902148 
L 362.3926 219.350613 
L 380.415248 243.834424 
L 398.487273 204.445111 
" clip-path="url(#p3c183179ff)" style="fill: none; stroke: #008080; stroke-width: 1.5; stroke-linecap: square"/>
   </g>
   <g id="line2d_45">
    <path d="M 73.832727 243.755576 
L 91.855375 200.093724 
L 109.9274 228.578726 
L 127.950048 223.338736 
L 145.972695 203.526578 
L 163.995343 213.039781 
L 182.067368 208.351824 
L 200.090016 194.868788 
L 218.112664 205.632567 
L 236.135311 216.861451 
L 254.207336 213.952712 
L 272.229984 228.670029 
L 290.252632 243.891517 
L 308.27528 246.064113 
L 326.347305 244.426414 
L 344.369952 230.557365 
L 362.3926 219.675464 
L 380.415248 228.547915 
L 398.487273 195.94345 
" clip-path="url(#p3c183179ff)" style="fill: none; stroke: #ffd700; stroke-width: 1.5; stroke-linecap: square"/>
   </g>
   <g id="line2d_46">
    <path d="M 73.832727 242.328996 
L 91.855375 181.811568 
L 109.9274 237.488862 
L 127.950048 206.583648 
L 145.972695 201.518719 
L 163.995343 206.930907 
L 182.067368 207.427331 
L 200.090016 193.380421 
L 218.112664 205.763484 
L 236.135311 213.348689 
L 254.207336 215.302055 
L 272.229984 227.796669 
L 290.252632 248.383938 
L 308.27528 247.902313 
L 326.347305 244.425894 
L 344.369952 229.72756 
L 362.3926 224.432619 
L 380.415248 230.051822 
L 398.487273 194.932077 
" clip-path="url(#p3c183179ff)" style="fill: none; stroke-dasharray: 5.55,2.4; stroke-dashoffset: 0; stroke: #dc143c; stroke-width: 1.5"/>
   </g>
   <g id="patch_3">
    <path d="M 57.6 307.584 
L 57.6 41.472 
" style="fill: none; stroke: #000000; stroke-width: 0.8; stroke-linejoin: miter; stroke-linecap: square"/>
   </g>
   <g id="patch_4">
    <path d="M 414.72 307.584 
L 414.72 41.472 
" style="fill: none; stroke: #000000; stroke-width: 0.8; stroke-linejoin: miter; stroke-linecap: square"/>
   </g>
   <g id="patch_5">
    <path d="M 57.6 307.584 
L 414.72 307.584 
" style="fill: none; stroke: #000000; stroke-width: 0.8; stroke-linejoin: miter; stroke-linecap: square"/>
   </g>
   <g id="patch_6">
    <path d="M 57.6 41.472 
L 414.72 41.472 
" style="fill: none; stroke: #000000; stroke-width: 0.8; stroke-linejoin: miter; stroke-linecap: square"/>
   </g>
   <g id="text_18">
    <!-- Taxa de Crescimento da Indústria de construção -->
    <g transform="translate(91.345313 35.472) scale(0.12 -0.12)">
     <defs>
      <path id="DejaVuSans-54" d="M -19 4666 
L 3928 4666 
L 3928 4134 
L 2272 4134 
L 2272 0 
L 1638 0 
L 1638 4134 
L -19 4134 
L -19 4666 
z
" transform="scale(0.015625)"/>
      <path id="DejaVuSans-78" d="M 3513 3500 
L 2247 1797 
L 3578 0 
L 2900 0 
L 1881 1375 
L 863 0 
L 184 0 
L 1544 1831 
L 300 3500 
L 978 3500 
L 1906 2253 
L 2834 3500 
L 3513 3500 
z
" transform="scale(0.015625)"/>
      <path id="DejaVuSans-64" d="M 2906 2969 
L 2906 4863 
L 3481 4863 
L 3481 0 
L 2906 0 
L 2906 525 
Q 2725 213 2448 61 
Q 2172 -91 1784 -91 
Q 1150 -91 751 415 
Q 353 922 353 1747 
Q 353 2572 751 3078 
Q 1150 3584 1784 3584 
Q 2172 3584 2448 3432 
Q 2725 3281 2906 2969 
z
M 947 1747 
Q 947 1113 1208 752 
Q 1469 391 1925 391 
Q 2381 391 2643 752 
Q 2906 1113 2906 1747 
Q 2906 2381 2643 2742 
Q 2381 3103 1925 3103 
Q 1469 3103 1208 2742 
Q 947 2381 947 1747 
z
" transform="scale(0.015625)"/>
      <path id="DejaVuSans-49" d="M 628 4666 
L 1259 4666 
L 1259 0 
L 628 0 
L 628 4666 
z
" transform="scale(0.015625)"/>
      <path id="DejaVuSans-fa" d="M 544 1381 
L 544 3500 
L 1119 3500 
L 1119 1403 
Q 1119 906 1312 657 
Q 1506 409 1894 409 
Q 2359 409 2629 706 
Q 2900 1003 2900 1516 
L 2900 3500 
L 3475 3500 
L 3475 0 
L 2900 0 
L 2900 538 
Q 2691 219 2414 64 
Q 2138 -91 1772 -91 
Q 1169 -91 856 284 
Q 544 659 544 1381 
z
M 1991 3584 
L 1991 3584 
z
M 2418 5119 
L 3040 5119 
L 2022 3944 
L 1543 3944 
L 2418 5119 
z
" transform="scale(0.015625)"/>
      <path id="DejaVuSans-75" d="M 544 1381 
L 544 3500 
L 1119 3500 
L 1119 1403 
Q 1119 906 1312 657 
Q 1506 409 1894 409 
Q 2359 409 2629 706 
Q 2900 1003 2900 1516 
L 2900 3500 
L 3475 3500 
L 3475 0 
L 2900 0 
L 2900 538 
Q 2691 219 2414 64 
Q 2138 -91 1772 -91 
Q 1169 -91 856 284 
Q 544 659 544 1381 
z
M 1991 3584 
L 1991 3584 
z
" transform="scale(0.015625)"/>
      <path id="DejaVuSans-e7" d="M 3122 3366 
L 3122 2828 
Q 2878 2963 2633 3030 
Q 2388 3097 2138 3097 
Q 1578 3097 1268 2742 
Q 959 2388 959 1747 
Q 959 1106 1268 751 
Q 1578 397 2138 397 
Q 2388 397 2633 464 
Q 2878 531 3122 666 
L 3122 134 
Q 2881 22 2623 -34 
Q 2366 -91 2075 -91 
Q 1284 -91 818 406 
Q 353 903 353 1747 
Q 353 2603 823 3093 
Q 1294 3584 2113 3584 
Q 2378 3584 2631 3529 
Q 2884 3475 3122 3366 
z
M 2311 0 
Q 2482 -194 2566 -358 
Q 2651 -522 2651 -672 
Q 2651 -950 2463 -1092 
Q 2276 -1234 1907 -1234 
Q 1764 -1234 1628 -1215 
Q 1492 -1197 1357 -1159 
L 1357 -750 
Q 1464 -803 1579 -826 
Q 1695 -850 1842 -850 
Q 2026 -850 2120 -775 
Q 2214 -700 2214 -556 
Q 2214 -463 2146 -327 
Q 2079 -191 1939 0 
L 2311 0 
z
" transform="scale(0.015625)"/>
      <path id="DejaVuSans-e3" d="M 2194 1759 
Q 1497 1759 1228 1600 
Q 959 1441 959 1056 
Q 959 750 1161 570 
Q 1363 391 1709 391 
Q 2188 391 2477 730 
Q 2766 1069 2766 1631 
L 2766 1759 
L 2194 1759 
z
M 3341 1997 
L 3341 0 
L 2766 0 
L 2766 531 
Q 2569 213 2275 61 
Q 1981 -91 1556 -91 
Q 1019 -91 701 211 
Q 384 513 384 1019 
Q 384 1609 779 1909 
Q 1175 2209 1959 2209 
L 2766 2209 
L 2766 2266 
Q 2766 2663 2505 2880 
Q 2244 3097 1772 3097 
Q 1472 3097 1187 3025 
Q 903 2953 641 2809 
L 641 3341 
Q 956 3463 1253 3523 
Q 1550 3584 1831 3584 
Q 2591 3584 2966 3190 
Q 3341 2797 3341 1997 
z
M 1844 4281 
L 1665 4453 
Q 1597 4516 1545 4545 
Q 1494 4575 1453 4575 
Q 1334 4575 1278 4461 
Q 1222 4347 1215 4091 
L 825 4091 
Q 831 4513 990 4742 
Q 1150 4972 1434 4972 
Q 1553 4972 1653 4928 
Q 1753 4884 1869 4781 
L 2047 4609 
Q 2115 4547 2167 4517 
Q 2219 4488 2259 4488 
Q 2378 4488 2434 4602 
Q 2490 4716 2497 4972 
L 2887 4972 
Q 2881 4550 2721 4320 
Q 2562 4091 2278 4091 
Q 2159 4091 2059 4134 
Q 1959 4178 1844 4281 
z
" transform="scale(0.015625)"/>
     </defs>
     <use xlink:href="#DejaVuSans-54"/>
     <use xlink:href="#DejaVuSans-61" x="44.583984"/>
     <use xlink:href="#DejaVuSans-78" x="105.863281"/>
     <use xlink:href="#DejaVuSans-61" x="165.042969"/>
     <use xlink:href="#DejaVuSans-20" x="226.322266"/>
     <use xlink:href="#DejaVuSans-64" x="258.109375"/>
     <use xlink:href="#DejaVuSans-65" x="321.585938"/>
     <use xlink:href="#DejaVuSans-20" x="383.109375"/>
     <use xlink:href="#DejaVuSans-43" x="414.896484"/>
     <use xlink:href="#DejaVuSans-72" x="484.720703"/>
     <use xlink:href="#DejaVuSans-65" x="523.583984"/>
     <use xlink:href="#DejaVuSans-73" x="585.107422"/>
     <use xlink:href="#DejaVuSans-63" x="637.207031"/>
     <use xlink:href="#DejaVuSans-69" x="692.1875"/>
     <use xlink:href="#DejaVuSans-6d" x="719.970703"/>
     <use xlink:href="#DejaVuSans-65" x="817.382812"/>
     <use xlink:href="#DejaVuSans-6e" x="878.90625"/>
     <use xlink:href="#DejaVuSans-74" x="942.285156"/>
     <use xlink:href="#DejaVuSans-6f" x="981.494141"/>
     <use xlink:href="#DejaVuSans-20" x="1042.675781"/>
     <use xlink:href="#DejaVuSans-64" x="1074.462891"/>
     <use xlink:href="#DejaVuSans-61" x="1137.939453"/>
     <use xlink:href="#DejaVuSans-20" x="1199.21875"/>
     <use xlink:href="#DejaVuSans-49" x="1231.005859"/>
     <use xlink:href="#DejaVuSans-6e" x="1260.498047"/>
     <use xlink:href="#DejaVuSans-64" x="1323.876953"/>
     <use xlink:href="#DejaVuSans-fa" x="1387.353516"/>
     <use xlink:href="#DejaVuSans-73" x="1450.732422"/>
     <use xlink:href="#DejaVuSans-74" x="1502.832031"/>
     <use xlink:href="#DejaVuSans-72" x="1542.041016"/>
     <use xlink:href="#DejaVuSans-69" x="1583.154297"/>
     <use xlink:href="#DejaVuSans-61" x="1610.9375"/>
     <use xlink:href="#DejaVuSans-20" x="1672.216797"/>
     <use xlink:href="#DejaVuSans-64" x="1704.003906"/>
     <use xlink:href="#DejaVuSans-65" x="1767.480469"/>
     <use xlink:href="#DejaVuSans-20" x="1829.003906"/>
     <use xlink:href="#DejaVuSans-63" x="1860.791016"/>
     <use xlink:href="#DejaVuSans-6f" x="1915.771484"/>
     <use xlink:href="#DejaVuSans-6e" x="1976.953125"/>
     <use xlink:href="#DejaVuSans-73" x="2040.332031"/>
     <use xlink:href="#DejaVuSans-74" x="2092.431641"/>
     <use xlink:href="#DejaVuSans-72" x="2131.640625"/>
     <use xlink:href="#DejaVuSans-75" x="2172.753906"/>
     <use xlink:href="#DejaVuSans-e7" x="2236.132812"/>
     <use xlink:href="#DejaVuSans-e3" x="2291.113281"/>
     <use xlink:href="#DejaVuSans-6f" x="2352.392578"/>
    </g>
   </g>
   <g id="legend_1">
    <g id="patch_7">
     <path d="M 314.084063 93.506375 
L 407.72 93.506375 
Q 409.72 93.506375 409.72 91.506375 
L 409.72 48.472 
Q 409.72 46.472 407.72 46.472 
L 314.084063 46.472 
Q 312.084063 46.472 312.084063 48.472 
L 312.084063 91.506375 
Q 312.084063 93.506375 314.084063 93.506375 
z
" style="fill: #ffffff; opacity: 0.8; stroke: #cccccc; stroke-linejoin: miter"/>
    </g>
    <g id="line2d_47">
     <path d="M 316.084063 54.570438 
L 326.084063 54.570438 
L 336.084063 54.570438 
" style="fill: none; stroke: #008080; stroke-width: 1.5; stroke-linecap: square"/>
    </g>
    <g id="text_19">
     <!-- RJ -->
     <g transform="translate(344.084063 58.070438) scale(0.1 -0.1)">
      <defs>
       <path id="DejaVuSans-52" d="M 2841 2188 
Q 3044 2119 3236 1894 
Q 3428 1669 3622 1275 
L 4263 0 
L 3584 0 
L 2988 1197 
Q 2756 1666 2539 1819 
Q 2322 1972 1947 1972 
L 1259 1972 
L 1259 0 
L 628 0 
L 628 4666 
L 2053 4666 
Q 2853 4666 3247 4331 
Q 3641 3997 3641 3322 
Q 3641 2881 3436 2590 
Q 3231 2300 2841 2188 
z
M 1259 4147 
L 1259 2491 
L 2053 2491 
Q 2509 2491 2742 2702 
Q 2975 2913 2975 3322 
Q 2975 3731 2742 3939 
Q 2509 4147 2053 4147 
L 1259 4147 
z
" transform="scale(0.015625)"/>
       <path id="DejaVuSans-4a" d="M 628 4666 
L 1259 4666 
L 1259 325 
Q 1259 -519 939 -900 
Q 619 -1281 -91 -1281 
L -331 -1281 
L -331 -750 
L -134 -750 
Q 284 -750 456 -515 
Q 628 -281 628 325 
L 628 4666 
z
" transform="scale(0.015625)"/>
      </defs>
      <use xlink:href="#DejaVuSans-52"/>
      <use xlink:href="#DejaVuSans-4a" x="69.482422"/>
     </g>
    </g>
    <g id="line2d_48">
     <path d="M 316.084063 69.248563 
L 326.084063 69.248563 
L 336.084063 69.248563 
" style="fill: none; stroke: #ffd700; stroke-width: 1.5; stroke-linecap: square"/>
    </g>
    <g id="text_20">
     <!-- BR -->
     <g transform="translate(344.084063 72.748563) scale(0.1 -0.1)">
      <defs>
       <path id="DejaVuSans-42" d="M 1259 2228 
L 1259 519 
L 2272 519 
Q 2781 519 3026 730 
Q 3272 941 3272 1375 
Q 3272 1813 3026 2020 
Q 2781 2228 2272 2228 
L 1259 2228 
z
M 1259 4147 
L 1259 2741 
L 2194 2741 
Q 2656 2741 2882 2914 
Q 3109 3088 3109 3444 
Q 3109 3797 2882 3972 
Q 2656 4147 2194 4147 
L 1259 4147 
z
M 628 4666 
L 2241 4666 
Q 2963 4666 3353 4366 
Q 3744 4066 3744 3513 
Q 3744 3084 3544 2831 
Q 3344 2578 2956 2516 
Q 3422 2416 3680 2098 
Q 3938 1781 3938 1306 
Q 3938 681 3513 340 
Q 3088 0 2303 0 
L 628 0 
L 628 4666 
z
" transform="scale(0.015625)"/>
      </defs>
      <use xlink:href="#DejaVuSans-42"/>
      <use xlink:href="#DejaVuSans-52" x="68.603516"/>
     </g>
    </g>
    <g id="line2d_49">
     <path d="M 316.084063 83.926688 
L 326.084063 83.926688 
L 336.084063 83.926688 
" style="fill: none; stroke-dasharray: 5.55,2.4; stroke-dashoffset: 0; stroke: #dc143c; stroke-width: 1.5"/>
    </g>
    <g id="text_21">
     <!-- Média Anual -->
     <g transform="translate(344.084063 87.426688) scale(0.1 -0.1)">
      <defs>
       <path id="DejaVuSans-4d" d="M 628 4666 
L 1569 4666 
L 2759 1491 
L 3956 4666 
L 4897 4666 
L 4897 0 
L 4281 0 
L 4281 4097 
L 3078 897 
L 2444 897 
L 1241 4097 
L 1241 0 
L 628 0 
L 628 4666 
z
" transform="scale(0.015625)"/>
       <path id="DejaVuSans-e9" d="M 3597 1894 
L 3597 1613 
L 953 1613 
Q 991 1019 1311 708 
Q 1631 397 2203 397 
Q 2534 397 2845 478 
Q 3156 559 3463 722 
L 3463 178 
Q 3153 47 2828 -22 
Q 2503 -91 2169 -91 
Q 1331 -91 842 396 
Q 353 884 353 1716 
Q 353 2575 817 3079 
Q 1281 3584 2069 3584 
Q 2775 3584 3186 3129 
Q 3597 2675 3597 1894 
z
M 3022 2063 
Q 3016 2534 2758 2815 
Q 2500 3097 2075 3097 
Q 1594 3097 1305 2825 
Q 1016 2553 972 2059 
L 3022 2063 
z
M 2466 5119 
L 3088 5119 
L 2070 3944 
L 1591 3944 
L 2466 5119 
z
" transform="scale(0.015625)"/>
      </defs>
      <use xlink:href="#DejaVuSans-4d"/>
      <use xlink:href="#DejaVuSans-e9" x="86.279297"/>
      <use xlink:href="#DejaVuSans-64" x="147.802734"/>
      <use xlink:href="#DejaVuSans-69" x="211.279297"/>
      <use xlink:href="#DejaVuSans-61" x="239.0625"/>
      <use xlink:href="#DejaVuSans-20" x="300.341797"/>
      <use xlink:href="#DejaVuSans-41" x="332.128906"/>
      <use xlink:href="#DejaVuSans-6e" x="400.537109"/>
      <use xlink:href="#DejaVuSans-75" x="463.916016"/>
      <use xlink:href="#DejaVuSans-61" x="527.294922"/>
      <use xlink:href="#DejaVuSans-6c" x="588.574219"/>
     </g>
    </g>
   </g>
  </g>
 </g>
 <defs>
  <clipPath id="p3c183179ff">
   <rect x="57.6" y="41.472" width="357.12" height="266.112"/>
  </clipPath>
 </defs>
</svg>
