<?xml version="1.0" encoding="utf-8" standalone="no"?>
<!DOCTYPE svg PUBLIC "-//W3C//DTD SVG 1.1//EN"
  "http://www.w3.org/Graphics/SVG/1.1/DTD/svg11.dtd">
<svg xmlns:xlink="http://www.w3.org/1999/xlink" width="460.8pt" height="345.6pt" viewBox="0 0 460.8 345.6" xmlns="http://www.w3.org/2000/svg" version="1.1">
 <metadata>
  <rdf:RDF xmlns:dc="http://purl.org/dc/elements/1.1/" xmlns:cc="http://creativecommons.org/ns#" xmlns:rdf="http://www.w3.org/1999/02/22-rdf-syntax-ns#">
   <cc:Work>
    <dc:type rdf:resource="http://purl.org/dc/dcmitype/StillImage"/>
    <dc:date>2024-09-06T15:44:04.675235</dc:date>
    <dc:format>image/svg+xml</dc:format>
    <dc:creator>
     <cc:Agent>
      <dc:title>Matplotlib v3.9.2, https://matplotlib.org/</dc:title>
     </cc:Agent>
    </dc:creator>
   </cc:Work>
  </rdf:RDF>
 </metadata>
 <defs>
  <style type="text/css">*{stroke-linejoin: round; stroke-linecap: butt}</style>
 </defs>
 <g id="figure_1">
  <g id="patch_1">
   <path d="M 0 345.6 
L 460.8 345.6 
L 460.8 0 
L 0 0 
z
" style="fill: #ffffff"/>
  </g>
  <g id="axes_1">
   <g id="patch_2">
    <path d="M 57.6 307.584 
L 414.72 307.584 
L 414.72 41.472 
L 57.6 41.472 
z
" style="fill: #ffffff"/>
   </g>
   <g id="matplotlib.axis_1">
    <g id="xtick_1">
     <g id="line2d_1">
      <defs>
       <path id="m648325770b" d="M 0 0 
L 0 3.5 
" style="stroke: #000000; stroke-width: 0.8"/>
      </defs>
      <g>
       <use xlink:href="#m648325770b" x="73.832727" y="307.584" style="stroke: #000000; stroke-width: 0.8"/>
      </g>
     </g>
     <g id="text_1">
      <!-- 2004 -->
      <g transform="translate(61.107727 322.182437) scale(0.1 -0.1)">
       <defs>
        <path id="DejaVuSans-32" d="M 1228 531 
L 3431 531 
L 3431 0 
L 469 0 
L 469 531 
Q 828 903 1448 1529 
Q 2069 2156 2228 2338 
Q 2531 2678 2651 2914 
Q 2772 3150 2772 3378 
Q 2772 3750 2511 3984 
Q 2250 4219 1831 4219 
Q 1534 4219 1204 4116 
Q 875 4013 500 3803 
L 500 4441 
Q 881 4594 1212 4672 
Q 1544 4750 1819 4750 
Q 2544 4750 2975 4387 
Q 3406 4025 3406 3419 
Q 3406 3131 3298 2873 
Q 3191 2616 2906 2266 
Q 2828 2175 2409 1742 
Q 1991 1309 1228 531 
z
" transform="scale(0.015625)"/>
        <path id="DejaVuSans-30" d="M 2034 4250 
Q 1547 4250 1301 3770 
Q 1056 3291 1056 2328 
Q 1056 1369 1301 889 
Q 1547 409 2034 409 
Q 2525 409 2770 889 
Q 3016 1369 3016 2328 
Q 3016 3291 2770 3770 
Q 2525 4250 2034 4250 
z
M 2034 4750 
Q 2819 4750 3233 4129 
Q 3647 3509 3647 2328 
Q 3647 1150 3233 529 
Q 2819 -91 2034 -91 
Q 1250 -91 836 529 
Q 422 1150 422 2328 
Q 422 3509 836 4129 
Q 1250 4750 2034 4750 
z
" transform="scale(0.015625)"/>
        <path id="DejaVuSans-34" d="M 2419 4116 
L 825 1625 
L 2419 1625 
L 2419 4116 
z
M 2253 4666 
L 3047 4666 
L 3047 1625 
L 3713 1625 
L 3713 1100 
L 3047 1100 
L 3047 0 
L 2419 0 
L 2419 1100 
L 313 1100 
L 313 1709 
L 2253 4666 
z
" transform="scale(0.015625)"/>
       </defs>
       <use xlink:href="#DejaVuSans-32"/>
       <use xlink:href="#DejaVuSans-30" x="63.623047"/>
       <use xlink:href="#DejaVuSans-30" x="127.246094"/>
       <use xlink:href="#DejaVuSans-34" x="190.869141"/>
      </g>
     </g>
    </g>
    <g id="xtick_2">
     <g id="line2d_2">
      <g>
       <use xlink:href="#m648325770b" x="114.442322" y="307.584" style="stroke: #000000; stroke-width: 0.8"/>
      </g>
     </g>
     <g id="text_2">
      <!-- 2006 -->
      <g transform="translate(101.717322 322.182437) scale(0.1 -0.1)">
       <defs>
        <path id="DejaVuSans-36" d="M 2113 2584 
Q 1688 2584 1439 2293 
Q 1191 2003 1191 1497 
Q 1191 994 1439 701 
Q 1688 409 2113 409 
Q 2538 409 2786 701 
Q 3034 994 3034 1497 
Q 3034 2003 2786 2293 
Q 2538 2584 2113 2584 
z
M 3366 4563 
L 3366 3988 
Q 3128 4100 2886 4159 
Q 2644 4219 2406 4219 
Q 1781 4219 1451 3797 
Q 1122 3375 1075 2522 
Q 1259 2794 1537 2939 
Q 1816 3084 2150 3084 
Q 2853 3084 3261 2657 
Q 3669 2231 3669 1497 
Q 3669 778 3244 343 
Q 2819 -91 2113 -91 
Q 1303 -91 875 529 
Q 447 1150 447 2328 
Q 447 3434 972 4092 
Q 1497 4750 2381 4750 
Q 2619 4750 2861 4703 
Q 3103 4656 3366 4563 
z
" transform="scale(0.015625)"/>
       </defs>
       <use xlink:href="#DejaVuSans-32"/>
       <use xlink:href="#DejaVuSans-30" x="63.623047"/>
       <use xlink:href="#DejaVuSans-30" x="127.246094"/>
       <use xlink:href="#DejaVuSans-36" x="190.869141"/>
      </g>
     </g>
    </g>
    <g id="xtick_3">
     <g id="line2d_3">
      <g>
       <use xlink:href="#m648325770b" x="154.996364" y="307.584" style="stroke: #000000; stroke-width: 0.8"/>
      </g>
     </g>
     <g id="text_3">
      <!-- 2008 -->
      <g transform="translate(142.271364 322.182437) scale(0.1 -0.1)">
       <defs>
        <path id="DejaVuSans-38" d="M 2034 2216 
Q 1584 2216 1326 1975 
Q 1069 1734 1069 1313 
Q 1069 891 1326 650 
Q 1584 409 2034 409 
Q 2484 409 2743 651 
Q 3003 894 3003 1313 
Q 3003 1734 2745 1975 
Q 2488 2216 2034 2216 
z
M 1403 2484 
Q 997 2584 770 2862 
Q 544 3141 544 3541 
Q 544 4100 942 4425 
Q 1341 4750 2034 4750 
Q 2731 4750 3128 4425 
Q 3525 4100 3525 3541 
Q 3525 3141 3298 2862 
Q 3072 2584 2669 2484 
Q 3125 2378 3379 2068 
Q 3634 1759 3634 1313 
Q 3634 634 3220 271 
Q 2806 -91 2034 -91 
Q 1263 -91 848 271 
Q 434 634 434 1313 
Q 434 1759 690 2068 
Q 947 2378 1403 2484 
z
M 1172 3481 
Q 1172 3119 1398 2916 
Q 1625 2713 2034 2713 
Q 2441 2713 2670 2916 
Q 2900 3119 2900 3481 
Q 2900 3844 2670 4047 
Q 2441 4250 2034 4250 
Q 1625 4250 1398 4047 
Q 1172 3844 1172 3481 
z
" transform="scale(0.015625)"/>
       </defs>
       <use xlink:href="#DejaVuSans-32"/>
       <use xlink:href="#DejaVuSans-30" x="63.623047"/>
       <use xlink:href="#DejaVuSans-30" x="127.246094"/>
       <use xlink:href="#DejaVuSans-38" x="190.869141"/>
      </g>
     </g>
    </g>
    <g id="xtick_4">
     <g id="line2d_4">
      <g>
       <use xlink:href="#m648325770b" x="195.605959" y="307.584" style="stroke: #000000; stroke-width: 0.8"/>
      </g>
     </g>
     <g id="text_4">
      <!-- 2010 -->
      <g transform="translate(182.880959 322.182437) scale(0.1 -0.1)">
       <defs>
        <path id="DejaVuSans-31" d="M 794 531 
L 1825 531 
L 1825 4091 
L 703 3866 
L 703 4441 
L 1819 4666 
L 2450 4666 
L 2450 531 
L 3481 531 
L 3481 0 
L 794 0 
L 794 531 
z
" transform="scale(0.015625)"/>
       </defs>
       <use xlink:href="#DejaVuSans-32"/>
       <use xlink:href="#DejaVuSans-30" x="63.623047"/>
       <use xlink:href="#DejaVuSans-31" x="127.246094"/>
       <use xlink:href="#DejaVuSans-30" x="190.869141"/>
      </g>
     </g>
    </g>
    <g id="xtick_5">
     <g id="line2d_5">
      <g>
       <use xlink:href="#m648325770b" x="236.16" y="307.584" style="stroke: #000000; stroke-width: 0.8"/>
      </g>
     </g>
     <g id="text_5">
      <!-- 2012 -->
      <g transform="translate(223.435 322.182437) scale(0.1 -0.1)">
       <use xlink:href="#DejaVuSans-32"/>
       <use xlink:href="#DejaVuSans-30" x="63.623047"/>
       <use xlink:href="#DejaVuSans-31" x="127.246094"/>
       <use xlink:href="#DejaVuSans-32" x="190.869141"/>
      </g>
     </g>
    </g>
    <g id="xtick_6">
     <g id="line2d_6">
      <g>
       <use xlink:href="#m648325770b" x="276.769595" y="307.584" style="stroke: #000000; stroke-width: 0.8"/>
      </g>
     </g>
     <g id="text_6">
      <!-- 2014 -->
      <g transform="translate(264.044595 322.182437) scale(0.1 -0.1)">
       <use xlink:href="#DejaVuSans-32"/>
       <use xlink:href="#DejaVuSans-30" x="63.623047"/>
       <use xlink:href="#DejaVuSans-31" x="127.246094"/>
       <use xlink:href="#DejaVuSans-34" x="190.869141"/>
      </g>
     </g>
    </g>
    <g id="xtick_7">
     <g id="line2d_7">
      <g>
       <use xlink:href="#m648325770b" x="317.323636" y="307.584" style="stroke: #000000; stroke-width: 0.8"/>
      </g>
     </g>
     <g id="text_7">
      <!-- 2016 -->
      <g transform="translate(304.598636 322.182437) scale(0.1 -0.1)">
       <use xlink:href="#DejaVuSans-32"/>
       <use xlink:href="#DejaVuSans-30" x="63.623047"/>
       <use xlink:href="#DejaVuSans-31" x="127.246094"/>
       <use xlink:href="#DejaVuSans-36" x="190.869141"/>
      </g>
     </g>
    </g>
    <g id="xtick_8">
     <g id="line2d_8">
      <g>
       <use xlink:href="#m648325770b" x="357.933231" y="307.584" style="stroke: #000000; stroke-width: 0.8"/>
      </g>
     </g>
     <g id="text_8">
      <!-- 2018 -->
      <g transform="translate(345.208231 322.182437) scale(0.1 -0.1)">
       <use xlink:href="#DejaVuSans-32"/>
       <use xlink:href="#DejaVuSans-30" x="63.623047"/>
       <use xlink:href="#DejaVuSans-31" x="127.246094"/>
       <use xlink:href="#DejaVuSans-38" x="190.869141"/>
      </g>
     </g>
    </g>
    <g id="xtick_9">
     <g id="line2d_9">
      <g>
       <use xlink:href="#m648325770b" x="398.487273" y="307.584" style="stroke: #000000; stroke-width: 0.8"/>
      </g>
     </g>
     <g id="text_9">
      <!-- 2020 -->
      <g transform="translate(385.762273 322.182437) scale(0.1 -0.1)">
       <use xlink:href="#DejaVuSans-32"/>
       <use xlink:href="#DejaVuSans-30" x="63.623047"/>
       <use xlink:href="#DejaVuSans-32" x="127.246094"/>
       <use xlink:href="#DejaVuSans-30" x="190.869141"/>
      </g>
     </g>
    </g>
    <g id="text_10">
     <!-- Ano -->
     <g transform="translate(226.511562 335.860562) scale(0.1 -0.1)">
      <defs>
       <path id="DejaVuSans-41" d="M 2188 4044 
L 1331 1722 
L 3047 1722 
L 2188 4044 
z
M 1831 4666 
L 2547 4666 
L 4325 0 
L 3669 0 
L 3244 1197 
L 1141 1197 
L 716 0 
L 50 0 
L 1831 4666 
z
" transform="scale(0.015625)"/>
       <path id="DejaVuSans-6e" d="M 3513 2113 
L 3513 0 
L 2938 0 
L 2938 2094 
Q 2938 2591 2744 2837 
Q 2550 3084 2163 3084 
Q 1697 3084 1428 2787 
Q 1159 2491 1159 1978 
L 1159 0 
L 581 0 
L 581 3500 
L 1159 3500 
L 1159 2956 
Q 1366 3272 1645 3428 
Q 1925 3584 2291 3584 
Q 2894 3584 3203 3211 
Q 3513 2838 3513 2113 
z
" transform="scale(0.015625)"/>
       <path id="DejaVuSans-6f" d="M 1959 3097 
Q 1497 3097 1228 2736 
Q 959 2375 959 1747 
Q 959 1119 1226 758 
Q 1494 397 1959 397 
Q 2419 397 2687 759 
Q 2956 1122 2956 1747 
Q 2956 2369 2687 2733 
Q 2419 3097 1959 3097 
z
M 1959 3584 
Q 2709 3584 3137 3096 
Q 3566 2609 3566 1747 
Q 3566 888 3137 398 
Q 2709 -91 1959 -91 
Q 1206 -91 779 398 
Q 353 888 353 1747 
Q 353 2609 779 3096 
Q 1206 3584 1959 3584 
z
" transform="scale(0.015625)"/>
      </defs>
      <use xlink:href="#DejaVuSans-41"/>
      <use xlink:href="#DejaVuSans-6e" x="68.408203"/>
      <use xlink:href="#DejaVuSans-6f" x="131.787109"/>
     </g>
    </g>
   </g>
   <g id="matplotlib.axis_2">
    <g id="ytick_1">
     <g id="line2d_10">
      <defs>
       <path id="mc0a4b2c58a" d="M 0 0 
L -3.5 0 
" style="stroke: #000000; stroke-width: 0.8"/>
      </defs>
      <g>
       <use xlink:href="#mc0a4b2c58a" x="57.6" y="273.973036" style="stroke: #000000; stroke-width: 0.8"/>
      </g>
     </g>
     <g id="text_11">
      <!-- −0.2 -->
      <g transform="translate(26.317187 277.772255) scale(0.1 -0.1)">
       <defs>
        <path id="DejaVuSans-2212" d="M 678 2272 
L 4684 2272 
L 4684 1741 
L 678 1741 
L 678 2272 
z
" transform="scale(0.015625)"/>
        <path id="DejaVuSans-2e" d="M 684 794 
L 1344 794 
L 1344 0 
L 684 0 
L 684 794 
z
" transform="scale(0.015625)"/>
       </defs>
       <use xlink:href="#DejaVuSans-2212"/>
       <use xlink:href="#DejaVuSans-30" x="83.789062"/>
       <use xlink:href="#DejaVuSans-2e" x="147.412109"/>
       <use xlink:href="#DejaVuSans-32" x="179.199219"/>
      </g>
     </g>
    </g>
    <g id="ytick_2">
     <g id="line2d_11">
      <g>
       <use xlink:href="#mc0a4b2c58a" x="57.6" y="236.375282" style="stroke: #000000; stroke-width: 0.8"/>
      </g>
     </g>
     <g id="text_12">
      <!-- 0.0 -->
      <g transform="translate(34.696875 240.174501) scale(0.1 -0.1)">
       <use xlink:href="#DejaVuSans-30"/>
       <use xlink:href="#DejaVuSans-2e" x="63.623047"/>
       <use xlink:href="#DejaVuSans-30" x="95.410156"/>
      </g>
     </g>
    </g>
    <g id="ytick_3">
     <g id="line2d_12">
      <g>
       <use xlink:href="#mc0a4b2c58a" x="57.6" y="198.777528" style="stroke: #000000; stroke-width: 0.8"/>
      </g>
     </g>
     <g id="text_13">
      <!-- 0.2 -->
      <g transform="translate(34.696875 202.576746) scale(0.1 -0.1)">
       <use xlink:href="#DejaVuSans-30"/>
       <use xlink:href="#DejaVuSans-2e" x="63.623047"/>
       <use xlink:href="#DejaVuSans-32" x="95.410156"/>
      </g>
     </g>
    </g>
    <g id="ytick_4">
     <g id="line2d_13">
      <g>
       <use xlink:href="#mc0a4b2c58a" x="57.6" y="161.179773" style="stroke: #000000; stroke-width: 0.8"/>
      </g>
     </g>
     <g id="text_14">
      <!-- 0.4 -->
      <g transform="translate(34.696875 164.978992) scale(0.1 -0.1)">
       <use xlink:href="#DejaVuSans-30"/>
       <use xlink:href="#DejaVuSans-2e" x="63.623047"/>
       <use xlink:href="#DejaVuSans-34" x="95.410156"/>
      </g>
     </g>
    </g>
    <g id="ytick_5">
     <g id="line2d_14">
      <g>
       <use xlink:href="#mc0a4b2c58a" x="57.6" y="123.582019" style="stroke: #000000; stroke-width: 0.8"/>
      </g>
     </g>
     <g id="text_15">
      <!-- 0.6 -->
      <g transform="translate(34.696875 127.381238) scale(0.1 -0.1)">
       <use xlink:href="#DejaVuSans-30"/>
       <use xlink:href="#DejaVuSans-2e" x="63.623047"/>
       <use xlink:href="#DejaVuSans-36" x="95.410156"/>
      </g>
     </g>
    </g>
    <g id="ytick_6">
     <g id="line2d_15">
      <g>
       <use xlink:href="#mc0a4b2c58a" x="57.6" y="85.984265" style="stroke: #000000; stroke-width: 0.8"/>
      </g>
     </g>
     <g id="text_16">
      <!-- 0.8 -->
      <g transform="translate(34.696875 89.783483) scale(0.1 -0.1)">
       <use xlink:href="#DejaVuSans-30"/>
       <use xlink:href="#DejaVuSans-2e" x="63.623047"/>
       <use xlink:href="#DejaVuSans-38" x="95.410156"/>
      </g>
     </g>
    </g>
    <g id="ytick_7">
     <g id="line2d_16">
      <g>
       <use xlink:href="#mc0a4b2c58a" x="57.6" y="48.38651" style="stroke: #000000; stroke-width: 0.8"/>
      </g>
     </g>
     <g id="text_17">
      <!-- 1.0 -->
      <g transform="translate(34.696875 52.185729) scale(0.1 -0.1)">
       <use xlink:href="#DejaVuSans-31"/>
       <use xlink:href="#DejaVuSans-2e" x="63.623047"/>
       <use xlink:href="#DejaVuSans-30" x="95.410156"/>
      </g>
     </g>
    </g>
    <g id="text_18">
     <!-- Crescimento real -->
     <g transform="translate(20.2375 216.978781) rotate(-90) scale(0.1 -0.1)">
      <defs>
       <path id="DejaVuSans-43" d="M 4122 4306 
L 4122 3641 
Q 3803 3938 3442 4084 
Q 3081 4231 2675 4231 
Q 1875 4231 1450 3742 
Q 1025 3253 1025 2328 
Q 1025 1406 1450 917 
Q 1875 428 2675 428 
Q 3081 428 3442 575 
Q 3803 722 4122 1019 
L 4122 359 
Q 3791 134 3420 21 
Q 3050 -91 2638 -91 
Q 1578 -91 968 557 
Q 359 1206 359 2328 
Q 359 3453 968 4101 
Q 1578 4750 2638 4750 
Q 3056 4750 3426 4639 
Q 3797 4528 4122 4306 
z
" transform="scale(0.015625)"/>
       <path id="DejaVuSans-72" d="M 2631 2963 
Q 2534 3019 2420 3045 
Q 2306 3072 2169 3072 
Q 1681 3072 1420 2755 
Q 1159 2438 1159 1844 
L 1159 0 
L 581 0 
L 581 3500 
L 1159 3500 
L 1159 2956 
Q 1341 3275 1631 3429 
Q 1922 3584 2338 3584 
Q 2397 3584 2469 3576 
Q 2541 3569 2628 3553 
L 2631 2963 
z
" transform="scale(0.015625)"/>
       <path id="DejaVuSans-65" d="M 3597 1894 
L 3597 1613 
L 953 1613 
Q 991 1019 1311 708 
Q 1631 397 2203 397 
Q 2534 397 2845 478 
Q 3156 559 3463 722 
L 3463 178 
Q 3153 47 2828 -22 
Q 2503 -91 2169 -91 
Q 1331 -91 842 396 
Q 353 884 353 1716 
Q 353 2575 817 3079 
Q 1281 3584 2069 3584 
Q 2775 3584 3186 3129 
Q 3597 2675 3597 1894 
z
M 3022 2063 
Q 3016 2534 2758 2815 
Q 2500 3097 2075 3097 
Q 1594 3097 1305 2825 
Q 1016 2553 972 2059 
L 3022 2063 
z
" transform="scale(0.015625)"/>
       <path id="DejaVuSans-73" d="M 2834 3397 
L 2834 2853 
Q 2591 2978 2328 3040 
Q 2066 3103 1784 3103 
Q 1356 3103 1142 2972 
Q 928 2841 928 2578 
Q 928 2378 1081 2264 
Q 1234 2150 1697 2047 
L 1894 2003 
Q 2506 1872 2764 1633 
Q 3022 1394 3022 966 
Q 3022 478 2636 193 
Q 2250 -91 1575 -91 
Q 1294 -91 989 -36 
Q 684 19 347 128 
L 347 722 
Q 666 556 975 473 
Q 1284 391 1588 391 
Q 1994 391 2212 530 
Q 2431 669 2431 922 
Q 2431 1156 2273 1281 
Q 2116 1406 1581 1522 
L 1381 1569 
Q 847 1681 609 1914 
Q 372 2147 372 2553 
Q 372 3047 722 3315 
Q 1072 3584 1716 3584 
Q 2034 3584 2315 3537 
Q 2597 3491 2834 3397 
z
" transform="scale(0.015625)"/>
       <path id="DejaVuSans-63" d="M 3122 3366 
L 3122 2828 
Q 2878 2963 2633 3030 
Q 2388 3097 2138 3097 
Q 1578 3097 1268 2742 
Q 959 2388 959 1747 
Q 959 1106 1268 751 
Q 1578 397 2138 397 
Q 2388 397 2633 464 
Q 2878 531 3122 666 
L 3122 134 
Q 2881 22 2623 -34 
Q 2366 -91 2075 -91 
Q 1284 -91 818 406 
Q 353 903 353 1747 
Q 353 2603 823 3093 
Q 1294 3584 2113 3584 
Q 2378 3584 2631 3529 
Q 2884 3475 3122 3366 
z
" transform="scale(0.015625)"/>
       <path id="DejaVuSans-69" d="M 603 3500 
L 1178 3500 
L 1178 0 
L 603 0 
L 603 3500 
z
M 603 4863 
L 1178 4863 
L 1178 4134 
L 603 4134 
L 603 4863 
z
" transform="scale(0.015625)"/>
       <path id="DejaVuSans-6d" d="M 3328 2828 
Q 3544 3216 3844 3400 
Q 4144 3584 4550 3584 
Q 5097 3584 5394 3201 
Q 5691 2819 5691 2113 
L 5691 0 
L 5113 0 
L 5113 2094 
Q 5113 2597 4934 2840 
Q 4756 3084 4391 3084 
Q 3944 3084 3684 2787 
Q 3425 2491 3425 1978 
L 3425 0 
L 2847 0 
L 2847 2094 
Q 2847 2600 2669 2842 
Q 2491 3084 2119 3084 
Q 1678 3084 1418 2786 
Q 1159 2488 1159 1978 
L 1159 0 
L 581 0 
L 581 3500 
L 1159 3500 
L 1159 2956 
Q 1356 3278 1631 3431 
Q 1906 3584 2284 3584 
Q 2666 3584 2933 3390 
Q 3200 3197 3328 2828 
z
" transform="scale(0.015625)"/>
       <path id="DejaVuSans-74" d="M 1172 4494 
L 1172 3500 
L 2356 3500 
L 2356 3053 
L 1172 3053 
L 1172 1153 
Q 1172 725 1289 603 
Q 1406 481 1766 481 
L 2356 481 
L 2356 0 
L 1766 0 
Q 1100 0 847 248 
Q 594 497 594 1153 
L 594 3053 
L 172 3053 
L 172 3500 
L 594 3500 
L 594 4494 
L 1172 4494 
z
" transform="scale(0.015625)"/>
       <path id="DejaVuSans-20" transform="scale(0.015625)"/>
       <path id="DejaVuSans-61" d="M 2194 1759 
Q 1497 1759 1228 1600 
Q 959 1441 959 1056 
Q 959 750 1161 570 
Q 1363 391 1709 391 
Q 2188 391 2477 730 
Q 2766 1069 2766 1631 
L 2766 1759 
L 2194 1759 
z
M 3341 1997 
L 3341 0 
L 2766 0 
L 2766 531 
Q 2569 213 2275 61 
Q 1981 -91 1556 -91 
Q 1019 -91 701 211 
Q 384 513 384 1019 
Q 384 1609 779 1909 
Q 1175 2209 1959 2209 
L 2766 2209 
L 2766 2266 
Q 2766 2663 2505 2880 
Q 2244 3097 1772 3097 
Q 1472 3097 1187 3025 
Q 903 2953 641 2809 
L 641 3341 
Q 956 3463 1253 3523 
Q 1550 3584 1831 3584 
Q 2591 3584 2966 3190 
Q 3341 2797 3341 1997 
z
" transform="scale(0.015625)"/>
       <path id="DejaVuSans-6c" d="M 603 4863 
L 1178 4863 
L 1178 0 
L 603 0 
L 603 4863 
z
" transform="scale(0.015625)"/>
      </defs>
      <use xlink:href="#DejaVuSans-43"/>
      <use xlink:href="#DejaVuSans-72" x="69.824219"/>
      <use xlink:href="#DejaVuSans-65" x="108.6875"/>
      <use xlink:href="#DejaVuSans-73" x="170.210938"/>
      <use xlink:href="#DejaVuSans-63" x="222.310547"/>
      <use xlink:href="#DejaVuSans-69" x="277.291016"/>
      <use xlink:href="#DejaVuSans-6d" x="305.074219"/>
      <use xlink:href="#DejaVuSans-65" x="402.486328"/>
      <use xlink:href="#DejaVuSans-6e" x="464.009766"/>
      <use xlink:href="#DejaVuSans-74" x="527.388672"/>
      <use xlink:href="#DejaVuSans-6f" x="566.597656"/>
      <use xlink:href="#DejaVuSans-20" x="627.779297"/>
      <use xlink:href="#DejaVuSans-72" x="659.566406"/>
      <use xlink:href="#DejaVuSans-65" x="698.429688"/>
      <use xlink:href="#DejaVuSans-61" x="759.953125"/>
      <use xlink:href="#DejaVuSans-6c" x="821.232422"/>
     </g>
    </g>
   </g>
   <g id="line2d_17">
    <path d="M 73.832727 220.464655 
L 94.165301 233.985991 
L 114.442322 201.750388 
L 134.719343 190.551997 
L 154.996364 188.021822 
L 175.328938 192.361418 
L 195.605959 189.921595 
L 215.882979 187.038787 
L 236.16 233.609203 
L 256.492574 225.870773 
L 276.769595 243.600507 
L 297.046616 215.248004 
L 317.323636 245.796775 
L 337.656211 240.704061 
L 357.933231 158.307229 
L 378.210252 158.580591 
L 398.487273 150.944948 
" clip-path="url(#pce150a3238)" style="fill: none; stroke: #dcdcdc; stroke-width: 1.5; stroke-linecap: square"/>
   </g>
   <g id="line2d_18">
    <path d="M 73.832727 195.040662 
L 94.165301 187.682568 
L 114.442322 229.641313 
L 134.719343 227.049692 
L 154.996364 243.075702 
L 175.328938 228.793999 
L 195.605959 226.40593 
L 215.882979 207.684733 
L 236.16 207.099351 
L 256.492574 214.599311 
L 276.769595 244.489142 
L 297.046616 261.874936 
L 317.323636 257.139734 
L 337.656211 233.898964 
L 357.933231 225.183893 
L 378.210252 223.008814 
L 398.487273 215.53413 
" clip-path="url(#pce150a3238)" style="fill: none; stroke: #dcdcdc; stroke-width: 1.5; stroke-linecap: square"/>
   </g>
   <g id="line2d_19">
    <path d="M 73.832727 242.382254 
L 94.165301 241.491743 
L 114.442322 235.176173 
L 134.719343 233.9099 
L 154.996364 239.331103 
L 175.328938 248.023309 
L 195.605959 249.954224 
L 215.882979 250.190306 
L 236.16 232.614478 
L 256.492574 230.881555 
L 276.769595 236.269798 
L 297.046616 253.533231 
L 317.323636 248.535444 
L 337.656211 237.550402 
L 357.933231 228.784137 
L 378.210252 248.274557 
L 398.487273 251.942796 
" clip-path="url(#pce150a3238)" style="fill: none; stroke: #dcdcdc; stroke-width: 1.5; stroke-linecap: square"/>
   </g>
   <g id="line2d_20">
    <path d="M 73.832727 239.857413 
L 94.165301 246.034563 
L 114.442322 249.902808 
L 134.719343 248.920089 
L 154.996364 245.890565 
L 175.328938 243.252 
L 195.605959 234.352018 
L 215.882979 234.071502 
L 236.16 234.876024 
L 256.492574 243.00101 
L 276.769595 242.414916 
L 297.046616 241.948914 
L 317.323636 250.278421 
L 337.656211 253.556869 
L 357.933231 255.955413 
L 378.210252 249.010921 
L 398.487273 243.883875 
" clip-path="url(#pce150a3238)" style="fill: none; stroke: #dcdcdc; stroke-width: 1.5; stroke-linecap: square"/>
   </g>
   <g id="line2d_21">
    <path d="M 73.832727 238.915787 
L 94.165301 240.144772 
L 114.442322 241.159556 
L 134.719343 226.769929 
L 154.996364 235.996424 
L 175.328938 233.644496 
L 195.605959 53.568 
L 215.882979 73.184339 
L 236.16 62.760646 
L 256.492574 239.67158 
L 276.769595 224.891983 
L 297.046616 249.659482 
L 317.323636 262.57042 
L 337.656211 247.331384 
L 357.933231 239.600117 
L 378.210252 233.121172 
L 398.487273 227.917604 
" clip-path="url(#pce150a3238)" style="fill: none; stroke: #dcdcdc; stroke-width: 1.5; stroke-linecap: square"/>
   </g>
   <g id="line2d_22">
    <path d="M 73.832727 253.298533 
L 94.165301 229.676208 
L 114.442322 223.316263 
L 134.719343 186.076186 
L 154.996364 203.406481 
L 175.328938 196.115202 
L 195.605959 231.138546 
L 215.882979 214.161943 
L 236.16 224.471314 
L 256.492574 229.780656 
L 276.769595 247.340395 
L 297.046616 257.980164 
L 317.323636 262.990399 
L 337.656211 256.675963 
L 357.933231 239.733682 
L 378.210252 228.266516 
L 398.487273 234.267345 
" clip-path="url(#pce150a3238)" style="fill: none; stroke: #dcdcdc; stroke-width: 1.5; stroke-linecap: square"/>
   </g>
   <g id="line2d_23">
    <path d="M 73.832727 228.798633 
L 94.165301 222.857012 
L 114.442322 231.529575 
L 134.719343 240.28286 
L 154.996364 239.885642 
L 175.328938 247.970721 
L 195.605959 247.219804 
L 215.882979 250.206411 
L 236.16 245.394042 
L 256.492574 235.51561 
L 276.769595 237.265467 
L 297.046616 239.138404 
L 317.323636 252.798051 
L 337.656211 255.078599 
L 357.933231 257.658767 
L 378.210252 247.90744 
L 398.487273 252.614265 
" clip-path="url(#pce150a3238)" style="fill: none; stroke: #dcdcdc; stroke-width: 1.5; stroke-linecap: square"/>
   </g>
   <g id="line2d_24">
    <path d="M 73.832727 237.058916 
L 94.165301 237.209691 
L 114.442322 231.650549 
L 134.719343 226.094292 
L 154.996364 230.502907 
L 175.328938 237.83497 
L 195.605959 223.576328 
L 215.882979 225.063032 
L 236.16 222.69882 
L 256.492574 238.027801 
L 276.769595 245.581961 
L 297.046616 251.992825 
L 317.323636 271.242732 
L 337.656211 271.404707 
L 357.933231 277.969995 
L 378.210252 271.936404 
L 398.487273 279.288594 
" clip-path="url(#pce150a3238)" style="fill: none; stroke: #dcdcdc; stroke-width: 1.5; stroke-linecap: square"/>
   </g>
   <g id="line2d_25">
    <path d="M 73.832727 233.279892 
L 94.165301 241.265056 
L 114.442322 238.866887 
L 134.719343 234.088157 
L 154.996364 234.481209 
L 175.328938 230.449689 
L 195.605959 238.811532 
L 215.882979 230.427619 
L 236.16 239.395541 
L 256.492574 232.867496 
L 276.769595 244.013474 
L 297.046616 250.878463 
L 317.323636 236.306394 
L 337.656211 223.155352 
L 357.933231 218.576488 
L 378.210252 234.113521 
L 398.487273 232.840248 
" clip-path="url(#pce150a3238)" style="fill: none; stroke: #dcdcdc; stroke-width: 1.5; stroke-linecap: square"/>
   </g>
   <g id="line2d_26">
    <path d="M 73.832727 228.695173 
L 94.165301 217.172488 
L 114.442322 222.301713 
L 134.719343 214.62105 
L 154.996364 215.301586 
L 175.328938 186.593379 
L 195.605959 177.972451 
L 215.882979 188.707932 
L 236.16 216.966914 
L 256.492574 238.710129 
L 276.769595 243.901458 
L 297.046616 246.738592 
L 317.323636 231.40378 
L 337.656211 228.678465 
L 357.933231 238.141625 
L 378.210252 259.615586 
L 398.487273 264.51756 
" clip-path="url(#pce150a3238)" style="fill: none; stroke: #dcdcdc; stroke-width: 1.5; stroke-linecap: square"/>
   </g>
   <g id="line2d_27">
    <path d="M 73.832727 216.541841 
L 94.165301 216.924934 
L 114.442322 215.822159 
L 134.719343 221.232984 
L 154.996364 244.051363 
L 175.328938 227.633348 
L 195.605959 226.636293 
L 215.882979 210.858977 
L 236.16 238.793662 
L 256.492574 238.959575 
L 276.769595 236.090692 
L 297.046616 244.047551 
L 317.323636 238.175912 
L 337.656211 245.094428 
L 357.933231 262.324761 
L 378.210252 281.884891 
L 398.487273 265.687125 
" clip-path="url(#pce150a3238)" style="fill: none; stroke: #dcdcdc; stroke-width: 1.5; stroke-linecap: square"/>
   </g>
   <g id="line2d_28">
    <path d="M 73.832727 226.502039 
L 94.165301 230.382209 
L 114.442322 207.977759 
L 134.719343 189.643749 
L 154.996364 222.613652 
L 175.328938 183.45772 
L 195.605959 184.802639 
L 215.882979 165.728686 
L 236.16 224.391316 
L 256.492574 230.376945 
L 276.769595 224.229256 
L 297.046616 226.872524 
L 317.323636 238.94399 
L 337.656211 250.22789 
L 357.933231 264.909365 
L 378.210252 275.509671 
L 398.487273 273.886965 
" clip-path="url(#pce150a3238)" style="fill: none; stroke: #dcdcdc; stroke-width: 1.5; stroke-linecap: square"/>
   </g>
   <g id="line2d_29">
    <path d="M 73.832727 231.185879 
L 94.165301 227.241116 
L 114.442322 226.044912 
L 134.719343 232.415772 
L 154.996364 232.077954 
L 175.328938 230.335532 
L 195.605959 235.035537 
L 215.882979 241.964911 
L 236.16 247.080593 
L 256.492574 240.430915 
L 276.769595 235.265384 
L 297.046616 227.785458 
L 317.323636 231.169224 
L 337.656211 232.528257 
L 357.933231 225.904075 
L 378.210252 217.843911 
L 398.487273 217.365646 
" clip-path="url(#pce150a3238)" style="fill: none; stroke: #dcdcdc; stroke-width: 1.5; stroke-linecap: square"/>
   </g>
   <g id="line2d_30">
    <path d="M 73.832727 238.606815 
L 94.165301 233.405699 
L 114.442322 222.805777 
L 134.719343 233.385039 
L 154.996364 230.924751 
L 175.328938 224.690321 
L 195.605959 190.723563 
L 215.882979 190.516019 
L 236.16 170.401477 
L 256.492574 144.493864 
L 276.769595 124.087435 
L 297.046616 147.908064 
L 317.323636 203.683327 
L 337.656211 230.116444 
L 357.933231 240.22966 
L 378.210252 246.278245 
L 398.487273 242.628754 
" clip-path="url(#pce150a3238)" style="fill: none; stroke: #dcdcdc; stroke-width: 1.5; stroke-linecap: square"/>
   </g>
   <g id="line2d_31">
    <path d="M 73.832727 210.723467 
L 94.165301 221.108664 
L 114.442322 222.663917 
L 134.719343 215.064708 
L 154.996364 223.101435 
L 175.328938 215.20318 
L 195.605959 218.380499 
L 215.882979 213.652709 
L 236.16 222.217615 
L 256.492574 224.979482 
L 276.769595 238.838554 
L 297.046616 252.684079 
L 317.323636 251.727721 
L 337.656211 247.458241 
L 357.933231 239.656364 
L 378.210252 234.077036 
L 398.487273 227.721128 
" clip-path="url(#pce150a3238)" style="fill: none; stroke: #dcdcdc; stroke-width: 1.5; stroke-linecap: square"/>
   </g>
   <g id="line2d_32">
    <path d="M 73.832727 242.409463 
L 94.165301 245.979722 
L 114.442322 225.149611 
L 134.719343 202.466987 
L 154.996364 192.0249 
L 175.328938 209.555522 
L 195.605959 227.604917 
L 215.882979 223.876921 
L 236.16 215.325989 
L 256.492574 218.444818 
L 276.769595 230.87634 
L 297.046616 249.264162 
L 317.323636 256.644117 
L 337.656211 252.145021 
L 357.933231 245.631312 
L 378.210252 242.306771 
L 398.487273 234.70337 
" clip-path="url(#pce150a3238)" style="fill: none; stroke: #dcdcdc; stroke-width: 1.5; stroke-linecap: square"/>
   </g>
   <g id="line2d_33">
    <path d="M 73.832727 234.120917 
L 94.165301 236.681999 
L 114.442322 240.935244 
L 134.719343 242.305546 
L 154.996364 242.832987 
L 175.328938 232.438136 
L 195.605959 231.662071 
L 215.882979 235.110089 
L 236.16 235.764177 
L 256.492574 233.826164 
L 276.769595 232.286535 
L 297.046616 246.137074 
L 317.323636 252.185087 
L 337.656211 254.611855 
L 357.933231 247.49978 
L 378.210252 241.651462 
L 398.487273 234.950143 
" clip-path="url(#pce150a3238)" style="fill: none; stroke: #dcdcdc; stroke-width: 1.5; stroke-linecap: square"/>
   </g>
   <g id="line2d_34">
    <path d="M 73.832727 214.415739 
L 94.165301 195.791456 
L 114.442322 198.889225 
L 134.719343 211.129005 
L 154.996364 238.700633 
L 175.328938 230.216809 
L 195.605959 227.641481 
L 215.882979 203.800562 
L 236.16 194.404839 
L 256.492574 199.972362 
L 276.769595 225.207249 
L 297.046616 250.285739 
L 317.323636 247.312727 
L 337.656211 245.321431 
L 357.933231 275.878997 
L 378.210252 295.354205 
L 398.487273 278.560948 
" clip-path="url(#pce150a3238)" style="fill: none; stroke: #dcdcdc; stroke-width: 1.5; stroke-linecap: square"/>
   </g>
   <g id="line2d_35">
    <path d="M 73.832727 215.847027 
L 94.165301 199.862455 
L 114.442322 208.421819 
L 134.719343 235.265179 
L 154.996364 230.042598 
L 175.328938 230.829111 
L 195.605959 235.999469 
L 215.882979 236.797312 
L 236.16 247.694134 
L 256.492574 264.828632 
L 276.769595 247.742841 
L 297.046616 248.199497 
L 317.323636 239.300389 
L 337.656211 171.314363 
L 357.933231 200.691023 
L 378.210252 112.970726 
L 398.487273 189.898582 
" clip-path="url(#pce150a3238)" style="fill: none; stroke: #dcdcdc; stroke-width: 1.5; stroke-linecap: square"/>
   </g>
   <g id="line2d_36">
    <path d="M 73.832727 239.116529 
L 94.165301 241.895568 
L 114.442322 234.640215 
L 134.719343 208.518713 
L 154.996364 218.591473 
L 175.328938 216.813848 
L 195.605959 228.439181 
L 215.882979 207.155625 
L 236.16 228.503933 
L 256.492574 230.643562 
L 276.769595 251.87142 
L 297.046616 251.323332 
L 317.323636 250.815873 
L 337.656211 239.301742 
L 357.933231 223.973173 
L 378.210252 218.887757 
L 398.487273 215.510465 
" clip-path="url(#pce150a3238)" style="fill: none; stroke: #dcdcdc; stroke-width: 1.5; stroke-linecap: square"/>
   </g>
   <g id="line2d_37">
    <path d="M 73.832727 225.090081 
L 94.165301 241.242147 
L 114.442322 239.850717 
L 134.719343 222.76054 
L 154.996364 214.415088 
L 175.328938 217.444583 
L 195.605959 231.73174 
L 215.882979 239.370854 
L 236.16 238.302068 
L 256.492574 232.800758 
L 276.769595 231.452395 
L 297.046616 247.778511 
L 317.323636 248.213176 
L 337.656211 247.028643 
L 357.933231 239.349525 
L 378.210252 242.747793 
L 398.487273 216.039043 
" clip-path="url(#pce150a3238)" style="fill: none; stroke: #dcdcdc; stroke-width: 1.5; stroke-linecap: square"/>
   </g>
   <g id="line2d_38">
    <path d="M 73.832727 261.371099 
L 94.165301 255.422925 
L 114.442322 237.678848 
L 134.719343 211.353068 
L 154.996364 199.144405 
L 175.328938 214.284959 
L 195.605959 241.172606 
L 215.882979 236.841844 
L 236.16 243.946708 
L 256.492574 244.949569 
L 276.769595 265.355 
L 297.046616 262.157643 
L 317.323636 266.211983 
L 337.656211 229.907762 
L 357.933231 221.560525 
L 378.210252 218.029151 
L 398.487273 136.923109 
" clip-path="url(#pce150a3238)" style="fill: none; stroke: #dcdcdc; stroke-width: 1.5; stroke-linecap: square"/>
   </g>
   <g id="line2d_39">
    <path d="M 73.832727 229.532158 
L 94.165301 228.315393 
L 114.442322 226.210074 
L 134.719343 227.897852 
L 154.996364 233.315128 
L 175.328938 225.79715 
L 195.605959 226.200359 
L 215.882979 226.087298 
L 236.16 237.413256 
L 256.492574 233.915721 
L 276.769595 229.130377 
L 297.046616 227.897859 
L 317.323636 230.484975 
L 337.656211 233.81069 
L 357.933231 238.779787 
L 378.210252 241.326593 
L 398.487273 239.31596 
" clip-path="url(#pce150a3238)" style="fill: none; stroke: #dcdcdc; stroke-width: 1.5; stroke-linecap: square"/>
   </g>
   <g id="line2d_40">
    <path d="M 73.832727 229.0284 
L 94.165301 233.846661 
L 114.442322 242.53078 
L 134.719343 247.327072 
L 154.996364 241.239341 
L 175.328938 228.7752 
L 195.605959 209.063115 
L 215.882979 206.835902 
L 236.16 217.229675 
L 256.492574 234.773979 
L 276.769595 243.147393 
L 297.046616 251.934907 
L 317.323636 255.575022 
L 337.656211 247.537686 
L 357.933231 240.699206 
L 378.210252 236.357697 
L 398.487273 238.492174 
" clip-path="url(#pce150a3238)" style="fill: none; stroke: #dcdcdc; stroke-width: 1.5; stroke-linecap: square"/>
   </g>
   <g id="line2d_41">
    <path d="M 73.832727 251.130757 
L 94.165301 258.265528 
L 114.442322 161.813876 
L 134.719343 181.095731 
L 154.996364 170.043476 
L 175.328938 154.58406 
L 195.605959 150.555025 
L 215.882979 141.361729 
L 236.16 214.44825 
L 256.492574 203.272119 
L 276.769595 222.05579 
L 297.046616 244.886903 
L 317.323636 253.939347 
L 337.656211 261.174 
L 357.933231 244.915816 
L 378.210252 238.056005 
L 398.487273 215.072676 
" clip-path="url(#pce150a3238)" style="fill: none; stroke: #dcdcdc; stroke-width: 1.5; stroke-linecap: square"/>
   </g>
   <g id="line2d_42">
    <path d="M 73.832727 211.001708 
L 94.165301 216.868934 
L 114.442322 218.031117 
L 134.719343 214.923351 
L 154.996364 231.052038 
L 175.328938 222.566274 
L 195.605959 224.620391 
L 215.882979 217.00978 
L 236.16 233.939461 
L 256.492574 231.133993 
L 276.769595 224.710524 
L 297.046616 221.122184 
L 317.323636 220.374669 
L 337.656211 219.371916 
L 357.933231 245.017484 
L 378.210252 251.973791 
L 398.487273 259.610627 
" clip-path="url(#pce150a3238)" style="fill: none; stroke: #dcdcdc; stroke-width: 1.5; stroke-linecap: square"/>
   </g>
   <g id="line2d_43">
    <path d="M 73.832727 238.46401 
L 94.165301 236.847793 
L 114.442322 247.980914 
L 134.719343 241.344075 
L 154.996364 259.170153 
L 175.328938 208.058572 
L 195.605959 136.493124 
L 215.882979 92.792614 
L 236.16 98.292796 
L 256.492574 170.65622 
L 276.769595 230.349023 
L 297.046616 286.230734 
L 317.323636 295.488 
L 337.656211 265.476127 
L 357.933231 219.751061 
L 378.210252 216.454736 
L 398.487273 172.628647 
" clip-path="url(#pce150a3238)" style="fill: none; stroke: #dcdcdc; stroke-width: 1.5; stroke-linecap: square"/>
   </g>
   <g id="line2d_44">
    <path d="M 73.832727 253.782171 
L 94.165301 230.500106 
L 114.442322 137.093873 
L 134.719343 58.55093 
L 154.996364 92.546838 
L 175.328938 166.998583 
L 195.605959 216.457521 
L 215.882979 213.661431 
L 236.16 210.785878 
L 256.492574 218.828954 
L 276.769595 232.03445 
L 297.046616 265.527919 
L 317.323636 242.399837 
L 337.656211 230.034624 
L 357.933231 198.773086 
L 378.210252 221.152404 
L 398.487273 207.071119 
" clip-path="url(#pce150a3238)" style="fill: none; stroke: #dcdcdc; stroke-width: 1.5; stroke-linecap: square"/>
   </g>
   <g id="line2d_45">
    <path d="M 73.832727 231.185879 
L 94.165301 227.241116 
L 114.442322 226.044912 
L 134.719343 232.415772 
L 154.996364 232.077954 
L 175.328938 230.335532 
L 195.605959 235.035537 
L 215.882979 241.964911 
L 236.16 247.080593 
L 256.492574 240.430915 
L 276.769595 235.265384 
L 297.046616 227.785458 
L 317.323636 231.169224 
L 337.656211 232.528257 
L 357.933231 225.904075 
L 378.210252 217.843911 
L 398.487273 217.365646 
" clip-path="url(#pce150a3238)" style="fill: none; stroke: #008080; stroke-width: 1.5; stroke-linecap: square"/>
   </g>
   <g id="line2d_46">
    <path d="M 73.832727 229.532158 
L 94.165301 228.315393 
L 114.442322 226.210074 
L 134.719343 227.897852 
L 154.996364 233.315128 
L 175.328938 225.79715 
L 195.605959 226.200359 
L 215.882979 226.087298 
L 236.16 237.413256 
L 256.492574 233.915721 
L 276.769595 229.130377 
L 297.046616 227.897859 
L 317.323636 230.484975 
L 337.656211 233.81069 
L 357.933231 238.779787 
L 378.210252 241.326593 
L 398.487273 239.31596 
" clip-path="url(#pce150a3238)" style="fill: none; stroke: #ffd700; stroke-width: 1.5; stroke-linecap: square"/>
   </g>
   <g id="line2d_47">
    <path d="M 73.832727 231.74555 
L 94.165301 230.362519 
L 114.442322 221.986148 
L 134.719343 214.709133 
L 154.996364 220.683945 
L 175.328938 216.99722 
L 195.605959 210.738504 
L 215.882979 205.113799 
L 236.16 214.866996 
L 256.492574 225.64066 
L 276.769595 233.532199 
L 297.046616 244.190344 
L 317.323636 248.563798 
L 337.656211 241.358711 
L 357.933231 236.173206 
L 378.210252 235.013769 
L 398.487273 228.907477 
" clip-path="url(#pce150a3238)" style="fill: none; stroke-dasharray: 5.55,2.4; stroke-dashoffset: 0; stroke: #dc143c; stroke-width: 1.5"/>
   </g>
   <g id="patch_3">
    <path d="M 57.6 307.584 
L 57.6 41.472 
" style="fill: none; stroke: #000000; stroke-width: 0.8; stroke-linejoin: miter; stroke-linecap: square"/>
   </g>
   <g id="patch_4">
    <path d="M 414.72 307.584 
L 414.72 41.472 
" style="fill: none; stroke: #000000; stroke-width: 0.8; stroke-linejoin: miter; stroke-linecap: square"/>
   </g>
   <g id="patch_5">
    <path d="M 57.6 307.584 
L 414.72 307.584 
" style="fill: none; stroke: #000000; stroke-width: 0.8; stroke-linejoin: miter; stroke-linecap: square"/>
   </g>
   <g id="patch_6">
    <path d="M 57.6 41.472 
L 414.72 41.472 
" style="fill: none; stroke: #000000; stroke-width: 0.8; stroke-linejoin: miter; stroke-linecap: square"/>
   </g>
   <g id="text_19">
    <!-- Média Móvel (3 anos) da Taxa de Crescimento da Ind. extrativa -->
    <g transform="translate(46.647188 35.472) scale(0.12 -0.12)">
     <defs>
      <path id="DejaVuSans-4d" d="M 628 4666 
L 1569 4666 
L 2759 1491 
L 3956 4666 
L 4897 4666 
L 4897 0 
L 4281 0 
L 4281 4097 
L 3078 897 
L 2444 897 
L 1241 4097 
L 1241 0 
L 628 0 
L 628 4666 
z
" transform="scale(0.015625)"/>
      <path id="DejaVuSans-e9" d="M 3597 1894 
L 3597 1613 
L 953 1613 
Q 991 1019 1311 708 
Q 1631 397 2203 397 
Q 2534 397 2845 478 
Q 3156 559 3463 722 
L 3463 178 
Q 3153 47 2828 -22 
Q 2503 -91 2169 -91 
Q 1331 -91 842 396 
Q 353 884 353 1716 
Q 353 2575 817 3079 
Q 1281 3584 2069 3584 
Q 2775 3584 3186 3129 
Q 3597 2675 3597 1894 
z
M 3022 2063 
Q 3016 2534 2758 2815 
Q 2500 3097 2075 3097 
Q 1594 3097 1305 2825 
Q 1016 2553 972 2059 
L 3022 2063 
z
M 2466 5119 
L 3088 5119 
L 2070 3944 
L 1591 3944 
L 2466 5119 
z
" transform="scale(0.015625)"/>
      <path id="DejaVuSans-64" d="M 2906 2969 
L 2906 4863 
L 3481 4863 
L 3481 0 
L 2906 0 
L 2906 525 
Q 2725 213 2448 61 
Q 2172 -91 1784 -91 
Q 1150 -91 751 415 
Q 353 922 353 1747 
Q 353 2572 751 3078 
Q 1150 3584 1784 3584 
Q 2172 3584 2448 3432 
Q 2725 3281 2906 2969 
z
M 947 1747 
Q 947 1113 1208 752 
Q 1469 391 1925 391 
Q 2381 391 2643 752 
Q 2906 1113 2906 1747 
Q 2906 2381 2643 2742 
Q 2381 3103 1925 3103 
Q 1469 3103 1208 2742 
Q 947 2381 947 1747 
z
" transform="scale(0.015625)"/>
      <path id="DejaVuSans-f3" d="M 1959 3097 
Q 1497 3097 1228 2736 
Q 959 2375 959 1747 
Q 959 1119 1226 758 
Q 1494 397 1959 397 
Q 2419 397 2687 759 
Q 2956 1122 2956 1747 
Q 2956 2369 2687 2733 
Q 2419 3097 1959 3097 
z
M 1959 3584 
Q 2709 3584 3137 3096 
Q 3566 2609 3566 1747 
Q 3566 888 3137 398 
Q 2709 -91 1959 -91 
Q 1206 -91 779 398 
Q 353 888 353 1747 
Q 353 2609 779 3096 
Q 1206 3584 1959 3584 
z
M 2394 5119 
L 3016 5119 
L 1998 3944 
L 1519 3944 
L 2394 5119 
z
" transform="scale(0.015625)"/>
      <path id="DejaVuSans-76" d="M 191 3500 
L 800 3500 
L 1894 563 
L 2988 3500 
L 3597 3500 
L 2284 0 
L 1503 0 
L 191 3500 
z
" transform="scale(0.015625)"/>
      <path id="DejaVuSans-28" d="M 1984 4856 
Q 1566 4138 1362 3434 
Q 1159 2731 1159 2009 
Q 1159 1288 1364 580 
Q 1569 -128 1984 -844 
L 1484 -844 
Q 1016 -109 783 600 
Q 550 1309 550 2009 
Q 550 2706 781 3412 
Q 1013 4119 1484 4856 
L 1984 4856 
z
" transform="scale(0.015625)"/>
      <path id="DejaVuSans-33" d="M 2597 2516 
Q 3050 2419 3304 2112 
Q 3559 1806 3559 1356 
Q 3559 666 3084 287 
Q 2609 -91 1734 -91 
Q 1441 -91 1130 -33 
Q 819 25 488 141 
L 488 750 
Q 750 597 1062 519 
Q 1375 441 1716 441 
Q 2309 441 2620 675 
Q 2931 909 2931 1356 
Q 2931 1769 2642 2001 
Q 2353 2234 1838 2234 
L 1294 2234 
L 1294 2753 
L 1863 2753 
Q 2328 2753 2575 2939 
Q 2822 3125 2822 3475 
Q 2822 3834 2567 4026 
Q 2313 4219 1838 4219 
Q 1578 4219 1281 4162 
Q 984 4106 628 3988 
L 628 4550 
Q 988 4650 1302 4700 
Q 1616 4750 1894 4750 
Q 2613 4750 3031 4423 
Q 3450 4097 3450 3541 
Q 3450 3153 3228 2886 
Q 3006 2619 2597 2516 
z
" transform="scale(0.015625)"/>
      <path id="DejaVuSans-29" d="M 513 4856 
L 1013 4856 
Q 1481 4119 1714 3412 
Q 1947 2706 1947 2009 
Q 1947 1309 1714 600 
Q 1481 -109 1013 -844 
L 513 -844 
Q 928 -128 1133 580 
Q 1338 1288 1338 2009 
Q 1338 2731 1133 3434 
Q 928 4138 513 4856 
z
" transform="scale(0.015625)"/>
      <path id="DejaVuSans-54" d="M -19 4666 
L 3928 4666 
L 3928 4134 
L 2272 4134 
L 2272 0 
L 1638 0 
L 1638 4134 
L -19 4134 
L -19 4666 
z
" transform="scale(0.015625)"/>
      <path id="DejaVuSans-78" d="M 3513 3500 
L 2247 1797 
L 3578 0 
L 2900 0 
L 1881 1375 
L 863 0 
L 184 0 
L 1544 1831 
L 300 3500 
L 978 3500 
L 1906 2253 
L 2834 3500 
L 3513 3500 
z
" transform="scale(0.015625)"/>
      <path id="DejaVuSans-49" d="M 628 4666 
L 1259 4666 
L 1259 0 
L 628 0 
L 628 4666 
z
" transform="scale(0.015625)"/>
     </defs>
     <use xlink:href="#DejaVuSans-4d"/>
     <use xlink:href="#DejaVuSans-e9" x="86.279297"/>
     <use xlink:href="#DejaVuSans-64" x="147.802734"/>
     <use xlink:href="#DejaVuSans-69" x="211.279297"/>
     <use xlink:href="#DejaVuSans-61" x="239.0625"/>
     <use xlink:href="#DejaVuSans-20" x="300.341797"/>
     <use xlink:href="#DejaVuSans-4d" x="332.128906"/>
     <use xlink:href="#DejaVuSans-f3" x="418.408203"/>
     <use xlink:href="#DejaVuSans-76" x="479.589844"/>
     <use xlink:href="#DejaVuSans-65" x="538.769531"/>
     <use xlink:href="#DejaVuSans-6c" x="600.292969"/>
     <use xlink:href="#DejaVuSans-20" x="628.076172"/>
     <use xlink:href="#DejaVuSans-28" x="659.863281"/>
     <use xlink:href="#DejaVuSans-33" x="698.876953"/>
     <use xlink:href="#DejaVuSans-20" x="762.5"/>
     <use xlink:href="#DejaVuSans-61" x="794.287109"/>
     <use xlink:href="#DejaVuSans-6e" x="855.566406"/>
     <use xlink:href="#DejaVuSans-6f" x="918.945312"/>
     <use xlink:href="#DejaVuSans-73" x="980.126953"/>
     <use xlink:href="#DejaVuSans-29" x="1032.226562"/>
     <use xlink:href="#DejaVuSans-20" x="1071.240234"/>
     <use xlink:href="#DejaVuSans-64" x="1103.027344"/>
     <use xlink:href="#DejaVuSans-61" x="1166.503906"/>
     <use xlink:href="#DejaVuSans-20" x="1227.783203"/>
     <use xlink:href="#DejaVuSans-54" x="1259.570312"/>
     <use xlink:href="#DejaVuSans-61" x="1304.154297"/>
     <use xlink:href="#DejaVuSans-78" x="1365.433594"/>
     <use xlink:href="#DejaVuSans-61" x="1424.613281"/>
     <use xlink:href="#DejaVuSans-20" x="1485.892578"/>
     <use xlink:href="#DejaVuSans-64" x="1517.679688"/>
     <use xlink:href="#DejaVuSans-65" x="1581.15625"/>
     <use xlink:href="#DejaVuSans-20" x="1642.679688"/>
     <use xlink:href="#DejaVuSans-43" x="1674.466797"/>
     <use xlink:href="#DejaVuSans-72" x="1744.291016"/>
     <use xlink:href="#DejaVuSans-65" x="1783.154297"/>
     <use xlink:href="#DejaVuSans-73" x="1844.677734"/>
     <use xlink:href="#DejaVuSans-63" x="1896.777344"/>
     <use xlink:href="#DejaVuSans-69" x="1951.757812"/>
     <use xlink:href="#DejaVuSans-6d" x="1979.541016"/>
     <use xlink:href="#DejaVuSans-65" x="2076.953125"/>
     <use xlink:href="#DejaVuSans-6e" x="2138.476562"/>
     <use xlink:href="#DejaVuSans-74" x="2201.855469"/>
     <use xlink:href="#DejaVuSans-6f" x="2241.064453"/>
     <use xlink:href="#DejaVuSans-20" x="2302.246094"/>
     <use xlink:href="#DejaVuSans-64" x="2334.033203"/>
     <use xlink:href="#DejaVuSans-61" x="2397.509766"/>
     <use xlink:href="#DejaVuSans-20" x="2458.789062"/>
     <use xlink:href="#DejaVuSans-49" x="2490.576172"/>
     <use xlink:href="#DejaVuSans-6e" x="2520.068359"/>
     <use xlink:href="#DejaVuSans-64" x="2583.447266"/>
     <use xlink:href="#DejaVuSans-2e" x="2646.923828"/>
     <use xlink:href="#DejaVuSans-20" x="2678.710938"/>
     <use xlink:href="#DejaVuSans-65" x="2710.498047"/>
     <use xlink:href="#DejaVuSans-78" x="2770.271484"/>
     <use xlink:href="#DejaVuSans-74" x="2829.451172"/>
     <use xlink:href="#DejaVuSans-72" x="2868.660156"/>
     <use xlink:href="#DejaVuSans-61" x="2909.773438"/>
     <use xlink:href="#DejaVuSans-74" x="2971.052734"/>
     <use xlink:href="#DejaVuSans-69" x="3010.261719"/>
     <use xlink:href="#DejaVuSans-76" x="3038.044922"/>
     <use xlink:href="#DejaVuSans-61" x="3097.224609"/>
    </g>
   </g>
   <g id="legend_1">
    <g id="patch_7">
     <path d="M 314.084063 93.506375 
L 407.72 93.506375 
Q 409.72 93.506375 409.72 91.506375 
L 409.72 48.472 
Q 409.72 46.472 407.72 46.472 
L 314.084063 46.472 
Q 312.084063 46.472 312.084063 48.472 
L 312.084063 91.506375 
Q 312.084063 93.506375 314.084063 93.506375 
z
" style="fill: #ffffff; opacity: 0.8; stroke: #cccccc; stroke-linejoin: miter"/>
    </g>
    <g id="line2d_48">
     <path d="M 316.084063 54.570438 
L 326.084063 54.570438 
L 336.084063 54.570438 
" style="fill: none; stroke: #008080; stroke-width: 1.5; stroke-linecap: square"/>
    </g>
    <g id="text_20">
     <!-- RJ -->
     <g transform="translate(344.084063 58.070438) scale(0.1 -0.1)">
      <defs>
       <path id="DejaVuSans-52" d="M 2841 2188 
Q 3044 2119 3236 1894 
Q 3428 1669 3622 1275 
L 4263 0 
L 3584 0 
L 2988 1197 
Q 2756 1666 2539 1819 
Q 2322 1972 1947 1972 
L 1259 1972 
L 1259 0 
L 628 0 
L 628 4666 
L 2053 4666 
Q 2853 4666 3247 4331 
Q 3641 3997 3641 3322 
Q 3641 2881 3436 2590 
Q 3231 2300 2841 2188 
z
M 1259 4147 
L 1259 2491 
L 2053 2491 
Q 2509 2491 2742 2702 
Q 2975 2913 2975 3322 
Q 2975 3731 2742 3939 
Q 2509 4147 2053 4147 
L 1259 4147 
z
" transform="scale(0.015625)"/>
       <path id="DejaVuSans-4a" d="M 628 4666 
L 1259 4666 
L 1259 325 
Q 1259 -519 939 -900 
Q 619 -1281 -91 -1281 
L -331 -1281 
L -331 -750 
L -134 -750 
Q 284 -750 456 -515 
Q 628 -281 628 325 
L 628 4666 
z
" transform="scale(0.015625)"/>
      </defs>
      <use xlink:href="#DejaVuSans-52"/>
      <use xlink:href="#DejaVuSans-4a" x="69.482422"/>
     </g>
    </g>
    <g id="line2d_49">
     <path d="M 316.084063 69.248563 
L 326.084063 69.248563 
L 336.084063 69.248563 
" style="fill: none; stroke: #ffd700; stroke-width: 1.5; stroke-linecap: square"/>
    </g>
    <g id="text_21">
     <!-- BR -->
     <g transform="translate(344.084063 72.748563) scale(0.1 -0.1)">
      <defs>
       <path id="DejaVuSans-42" d="M 1259 2228 
L 1259 519 
L 2272 519 
Q 2781 519 3026 730 
Q 3272 941 3272 1375 
Q 3272 1813 3026 2020 
Q 2781 2228 2272 2228 
L 1259 2228 
z
M 1259 4147 
L 1259 2741 
L 2194 2741 
Q 2656 2741 2882 2914 
Q 3109 3088 3109 3444 
Q 3109 3797 2882 3972 
Q 2656 4147 2194 4147 
L 1259 4147 
z
M 628 4666 
L 2241 4666 
Q 2963 4666 3353 4366 
Q 3744 4066 3744 3513 
Q 3744 3084 3544 2831 
Q 3344 2578 2956 2516 
Q 3422 2416 3680 2098 
Q 3938 1781 3938 1306 
Q 3938 681 3513 340 
Q 3088 0 2303 0 
L 628 0 
L 628 4666 
z
" transform="scale(0.015625)"/>
      </defs>
      <use xlink:href="#DejaVuSans-42"/>
      <use xlink:href="#DejaVuSans-52" x="68.603516"/>
     </g>
    </g>
    <g id="line2d_50">
     <path d="M 316.084063 83.926688 
L 326.084063 83.926688 
L 336.084063 83.926688 
" style="fill: none; stroke-dasharray: 5.55,2.4; stroke-dashoffset: 0; stroke: #dc143c; stroke-width: 1.5"/>
    </g>
    <g id="text_22">
     <!-- Média Anual -->
     <g transform="translate(344.084063 87.426688) scale(0.1 -0.1)">
      <defs>
       <path id="DejaVuSans-75" d="M 544 1381 
L 544 3500 
L 1119 3500 
L 1119 1403 
Q 1119 906 1312 657 
Q 1506 409 1894 409 
Q 2359 409 2629 706 
Q 2900 1003 2900 1516 
L 2900 3500 
L 3475 3500 
L 3475 0 
L 2900 0 
L 2900 538 
Q 2691 219 2414 64 
Q 2138 -91 1772 -91 
Q 1169 -91 856 284 
Q 544 659 544 1381 
z
M 1991 3584 
L 1991 3584 
z
" transform="scale(0.015625)"/>
      </defs>
      <use xlink:href="#DejaVuSans-4d"/>
      <use xlink:href="#DejaVuSans-e9" x="86.279297"/>
      <use xlink:href="#DejaVuSans-64" x="147.802734"/>
      <use xlink:href="#DejaVuSans-69" x="211.279297"/>
      <use xlink:href="#DejaVuSans-61" x="239.0625"/>
      <use xlink:href="#DejaVuSans-20" x="300.341797"/>
      <use xlink:href="#DejaVuSans-41" x="332.128906"/>
      <use xlink:href="#DejaVuSans-6e" x="400.537109"/>
      <use xlink:href="#DejaVuSans-75" x="463.916016"/>
      <use xlink:href="#DejaVuSans-61" x="527.294922"/>
      <use xlink:href="#DejaVuSans-6c" x="588.574219"/>
     </g>
    </g>
   </g>
  </g>
 </g>
 <defs>
  <clipPath id="pce150a3238">
   <rect x="57.6" y="41.472" width="357.12" height="266.112"/>
  </clipPath>
 </defs>
</svg>
