<?xml version="1.0" encoding="utf-8" standalone="no"?>
<!DOCTYPE svg PUBLIC "-//W3C//DTD SVG 1.1//EN"
  "http://www.w3.org/Graphics/SVG/1.1/DTD/svg11.dtd">
<svg xmlns:xlink="http://www.w3.org/1999/xlink" width="460.8pt" height="345.6pt" viewBox="0 0 460.8 345.6" xmlns="http://www.w3.org/2000/svg" version="1.1">
 <metadata>
  <rdf:RDF xmlns:dc="http://purl.org/dc/elements/1.1/" xmlns:cc="http://creativecommons.org/ns#" xmlns:rdf="http://www.w3.org/1999/02/22-rdf-syntax-ns#">
   <cc:Work>
    <dc:type rdf:resource="http://purl.org/dc/dcmitype/StillImage"/>
    <dc:date>2024-09-06T15:44:04.408779</dc:date>
    <dc:format>image/svg+xml</dc:format>
    <dc:creator>
     <cc:Agent>
      <dc:title>Matplotlib v3.9.2, https://matplotlib.org/</dc:title>
     </cc:Agent>
    </dc:creator>
   </cc:Work>
  </rdf:RDF>
 </metadata>
 <defs>
  <style type="text/css">*{stroke-linejoin: round; stroke-linecap: butt}</style>
 </defs>
 <g id="figure_1">
  <g id="patch_1">
   <path d="M 0 345.6 
L 460.8 345.6 
L 460.8 0 
L 0 0 
z
" style="fill: #ffffff"/>
  </g>
  <g id="axes_1">
   <g id="patch_2">
    <path d="M 57.6 307.584 
L 414.72 307.584 
L 414.72 41.472 
L 57.6 41.472 
z
" style="fill: #ffffff"/>
   </g>
   <g id="matplotlib.axis_1">
    <g id="xtick_1">
     <g id="line2d_1">
      <defs>
       <path id="m253b99d5d3" d="M 0 0 
L 0 3.5 
" style="stroke: #000000; stroke-width: 0.8"/>
      </defs>
      <g>
       <use xlink:href="#m253b99d5d3" x="91.855375" y="307.584" style="stroke: #000000; stroke-width: 0.8"/>
      </g>
     </g>
     <g id="text_1">
      <!-- 2004 -->
      <g transform="translate(79.130375 322.182437) scale(0.1 -0.1)">
       <defs>
        <path id="DejaVuSans-32" d="M 1228 531 
L 3431 531 
L 3431 0 
L 469 0 
L 469 531 
Q 828 903 1448 1529 
Q 2069 2156 2228 2338 
Q 2531 2678 2651 2914 
Q 2772 3150 2772 3378 
Q 2772 3750 2511 3984 
Q 2250 4219 1831 4219 
Q 1534 4219 1204 4116 
Q 875 4013 500 3803 
L 500 4441 
Q 881 4594 1212 4672 
Q 1544 4750 1819 4750 
Q 2544 4750 2975 4387 
Q 3406 4025 3406 3419 
Q 3406 3131 3298 2873 
Q 3191 2616 2906 2266 
Q 2828 2175 2409 1742 
Q 1991 1309 1228 531 
z
" transform="scale(0.015625)"/>
        <path id="DejaVuSans-30" d="M 2034 4250 
Q 1547 4250 1301 3770 
Q 1056 3291 1056 2328 
Q 1056 1369 1301 889 
Q 1547 409 2034 409 
Q 2525 409 2770 889 
Q 3016 1369 3016 2328 
Q 3016 3291 2770 3770 
Q 2525 4250 2034 4250 
z
M 2034 4750 
Q 2819 4750 3233 4129 
Q 3647 3509 3647 2328 
Q 3647 1150 3233 529 
Q 2819 -91 2034 -91 
Q 1250 -91 836 529 
Q 422 1150 422 2328 
Q 422 3509 836 4129 
Q 1250 4750 2034 4750 
z
" transform="scale(0.015625)"/>
        <path id="DejaVuSans-34" d="M 2419 4116 
L 825 1625 
L 2419 1625 
L 2419 4116 
z
M 2253 4666 
L 3047 4666 
L 3047 1625 
L 3713 1625 
L 3713 1100 
L 3047 1100 
L 3047 0 
L 2419 0 
L 2419 1100 
L 313 1100 
L 313 1709 
L 2253 4666 
z
" transform="scale(0.015625)"/>
       </defs>
       <use xlink:href="#DejaVuSans-32"/>
       <use xlink:href="#DejaVuSans-30" x="63.623047"/>
       <use xlink:href="#DejaVuSans-30" x="127.246094"/>
       <use xlink:href="#DejaVuSans-34" x="190.869141"/>
      </g>
     </g>
    </g>
    <g id="xtick_2">
     <g id="line2d_2">
      <g>
       <use xlink:href="#m253b99d5d3" x="127.950048" y="307.584" style="stroke: #000000; stroke-width: 0.8"/>
      </g>
     </g>
     <g id="text_2">
      <!-- 2006 -->
      <g transform="translate(115.225048 322.182437) scale(0.1 -0.1)">
       <defs>
        <path id="DejaVuSans-36" d="M 2113 2584 
Q 1688 2584 1439 2293 
Q 1191 2003 1191 1497 
Q 1191 994 1439 701 
Q 1688 409 2113 409 
Q 2538 409 2786 701 
Q 3034 994 3034 1497 
Q 3034 2003 2786 2293 
Q 2538 2584 2113 2584 
z
M 3366 4563 
L 3366 3988 
Q 3128 4100 2886 4159 
Q 2644 4219 2406 4219 
Q 1781 4219 1451 3797 
Q 1122 3375 1075 2522 
Q 1259 2794 1537 2939 
Q 1816 3084 2150 3084 
Q 2853 3084 3261 2657 
Q 3669 2231 3669 1497 
Q 3669 778 3244 343 
Q 2819 -91 2113 -91 
Q 1303 -91 875 529 
Q 447 1150 447 2328 
Q 447 3434 972 4092 
Q 1497 4750 2381 4750 
Q 2619 4750 2861 4703 
Q 3103 4656 3366 4563 
z
" transform="scale(0.015625)"/>
       </defs>
       <use xlink:href="#DejaVuSans-32"/>
       <use xlink:href="#DejaVuSans-30" x="63.623047"/>
       <use xlink:href="#DejaVuSans-30" x="127.246094"/>
       <use xlink:href="#DejaVuSans-36" x="190.869141"/>
      </g>
     </g>
    </g>
    <g id="xtick_3">
     <g id="line2d_3">
      <g>
       <use xlink:href="#m253b99d5d3" x="163.995343" y="307.584" style="stroke: #000000; stroke-width: 0.8"/>
      </g>
     </g>
     <g id="text_3">
      <!-- 2008 -->
      <g transform="translate(151.270343 322.182437) scale(0.1 -0.1)">
       <defs>
        <path id="DejaVuSans-38" d="M 2034 2216 
Q 1584 2216 1326 1975 
Q 1069 1734 1069 1313 
Q 1069 891 1326 650 
Q 1584 409 2034 409 
Q 2484 409 2743 651 
Q 3003 894 3003 1313 
Q 3003 1734 2745 1975 
Q 2488 2216 2034 2216 
z
M 1403 2484 
Q 997 2584 770 2862 
Q 544 3141 544 3541 
Q 544 4100 942 4425 
Q 1341 4750 2034 4750 
Q 2731 4750 3128 4425 
Q 3525 4100 3525 3541 
Q 3525 3141 3298 2862 
Q 3072 2584 2669 2484 
Q 3125 2378 3379 2068 
Q 3634 1759 3634 1313 
Q 3634 634 3220 271 
Q 2806 -91 2034 -91 
Q 1263 -91 848 271 
Q 434 634 434 1313 
Q 434 1759 690 2068 
Q 947 2378 1403 2484 
z
M 1172 3481 
Q 1172 3119 1398 2916 
Q 1625 2713 2034 2713 
Q 2441 2713 2670 2916 
Q 2900 3119 2900 3481 
Q 2900 3844 2670 4047 
Q 2441 4250 2034 4250 
Q 1625 4250 1398 4047 
Q 1172 3844 1172 3481 
z
" transform="scale(0.015625)"/>
       </defs>
       <use xlink:href="#DejaVuSans-32"/>
       <use xlink:href="#DejaVuSans-30" x="63.623047"/>
       <use xlink:href="#DejaVuSans-30" x="127.246094"/>
       <use xlink:href="#DejaVuSans-38" x="190.869141"/>
      </g>
     </g>
    </g>
    <g id="xtick_4">
     <g id="line2d_4">
      <g>
       <use xlink:href="#m253b99d5d3" x="200.090016" y="307.584" style="stroke: #000000; stroke-width: 0.8"/>
      </g>
     </g>
     <g id="text_4">
      <!-- 2010 -->
      <g transform="translate(187.365016 322.182437) scale(0.1 -0.1)">
       <defs>
        <path id="DejaVuSans-31" d="M 794 531 
L 1825 531 
L 1825 4091 
L 703 3866 
L 703 4441 
L 1819 4666 
L 2450 4666 
L 2450 531 
L 3481 531 
L 3481 0 
L 794 0 
L 794 531 
z
" transform="scale(0.015625)"/>
       </defs>
       <use xlink:href="#DejaVuSans-32"/>
       <use xlink:href="#DejaVuSans-30" x="63.623047"/>
       <use xlink:href="#DejaVuSans-31" x="127.246094"/>
       <use xlink:href="#DejaVuSans-30" x="190.869141"/>
      </g>
     </g>
    </g>
    <g id="xtick_5">
     <g id="line2d_5">
      <g>
       <use xlink:href="#m253b99d5d3" x="236.135311" y="307.584" style="stroke: #000000; stroke-width: 0.8"/>
      </g>
     </g>
     <g id="text_5">
      <!-- 2012 -->
      <g transform="translate(223.410311 322.182437) scale(0.1 -0.1)">
       <use xlink:href="#DejaVuSans-32"/>
       <use xlink:href="#DejaVuSans-30" x="63.623047"/>
       <use xlink:href="#DejaVuSans-31" x="127.246094"/>
       <use xlink:href="#DejaVuSans-32" x="190.869141"/>
      </g>
     </g>
    </g>
    <g id="xtick_6">
     <g id="line2d_6">
      <g>
       <use xlink:href="#m253b99d5d3" x="272.229984" y="307.584" style="stroke: #000000; stroke-width: 0.8"/>
      </g>
     </g>
     <g id="text_6">
      <!-- 2014 -->
      <g transform="translate(259.504984 322.182437) scale(0.1 -0.1)">
       <use xlink:href="#DejaVuSans-32"/>
       <use xlink:href="#DejaVuSans-30" x="63.623047"/>
       <use xlink:href="#DejaVuSans-31" x="127.246094"/>
       <use xlink:href="#DejaVuSans-34" x="190.869141"/>
      </g>
     </g>
    </g>
    <g id="xtick_7">
     <g id="line2d_7">
      <g>
       <use xlink:href="#m253b99d5d3" x="308.27528" y="307.584" style="stroke: #000000; stroke-width: 0.8"/>
      </g>
     </g>
     <g id="text_7">
      <!-- 2016 -->
      <g transform="translate(295.55028 322.182437) scale(0.1 -0.1)">
       <use xlink:href="#DejaVuSans-32"/>
       <use xlink:href="#DejaVuSans-30" x="63.623047"/>
       <use xlink:href="#DejaVuSans-31" x="127.246094"/>
       <use xlink:href="#DejaVuSans-36" x="190.869141"/>
      </g>
     </g>
    </g>
    <g id="xtick_8">
     <g id="line2d_8">
      <g>
       <use xlink:href="#m253b99d5d3" x="344.369952" y="307.584" style="stroke: #000000; stroke-width: 0.8"/>
      </g>
     </g>
     <g id="text_8">
      <!-- 2018 -->
      <g transform="translate(331.644952 322.182437) scale(0.1 -0.1)">
       <use xlink:href="#DejaVuSans-32"/>
       <use xlink:href="#DejaVuSans-30" x="63.623047"/>
       <use xlink:href="#DejaVuSans-31" x="127.246094"/>
       <use xlink:href="#DejaVuSans-38" x="190.869141"/>
      </g>
     </g>
    </g>
    <g id="xtick_9">
     <g id="line2d_9">
      <g>
       <use xlink:href="#m253b99d5d3" x="380.415248" y="307.584" style="stroke: #000000; stroke-width: 0.8"/>
      </g>
     </g>
     <g id="text_9">
      <!-- 2020 -->
      <g transform="translate(367.690248 322.182437) scale(0.1 -0.1)">
       <use xlink:href="#DejaVuSans-32"/>
       <use xlink:href="#DejaVuSans-30" x="63.623047"/>
       <use xlink:href="#DejaVuSans-32" x="127.246094"/>
       <use xlink:href="#DejaVuSans-30" x="190.869141"/>
      </g>
     </g>
    </g>
    <g id="text_10">
     <!-- Ano -->
     <g transform="translate(226.511562 335.860562) scale(0.1 -0.1)">
      <defs>
       <path id="DejaVuSans-41" d="M 2188 4044 
L 1331 1722 
L 3047 1722 
L 2188 4044 
z
M 1831 4666 
L 2547 4666 
L 4325 0 
L 3669 0 
L 3244 1197 
L 1141 1197 
L 716 0 
L 50 0 
L 1831 4666 
z
" transform="scale(0.015625)"/>
       <path id="DejaVuSans-6e" d="M 3513 2113 
L 3513 0 
L 2938 0 
L 2938 2094 
Q 2938 2591 2744 2837 
Q 2550 3084 2163 3084 
Q 1697 3084 1428 2787 
Q 1159 2491 1159 1978 
L 1159 0 
L 581 0 
L 581 3500 
L 1159 3500 
L 1159 2956 
Q 1366 3272 1645 3428 
Q 1925 3584 2291 3584 
Q 2894 3584 3203 3211 
Q 3513 2838 3513 2113 
z
" transform="scale(0.015625)"/>
       <path id="DejaVuSans-6f" d="M 1959 3097 
Q 1497 3097 1228 2736 
Q 959 2375 959 1747 
Q 959 1119 1226 758 
Q 1494 397 1959 397 
Q 2419 397 2687 759 
Q 2956 1122 2956 1747 
Q 2956 2369 2687 2733 
Q 2419 3097 1959 3097 
z
M 1959 3584 
Q 2709 3584 3137 3096 
Q 3566 2609 3566 1747 
Q 3566 888 3137 398 
Q 2709 -91 1959 -91 
Q 1206 -91 779 398 
Q 353 888 353 1747 
Q 353 2609 779 3096 
Q 1206 3584 1959 3584 
z
" transform="scale(0.015625)"/>
      </defs>
      <use xlink:href="#DejaVuSans-41"/>
      <use xlink:href="#DejaVuSans-6e" x="68.408203"/>
      <use xlink:href="#DejaVuSans-6f" x="131.787109"/>
     </g>
    </g>
   </g>
   <g id="matplotlib.axis_2">
    <g id="ytick_1">
     <g id="line2d_10">
      <defs>
       <path id="m0e6fe2c45e" d="M 0 0 
L -3.5 0 
" style="stroke: #000000; stroke-width: 0.8"/>
      </defs>
      <g>
       <use xlink:href="#m0e6fe2c45e" x="57.6" y="285.934877" style="stroke: #000000; stroke-width: 0.8"/>
      </g>
     </g>
     <g id="text_11">
      <!-- −0.5 -->
      <g transform="translate(26.317187 289.734096) scale(0.1 -0.1)">
       <defs>
        <path id="DejaVuSans-2212" d="M 678 2272 
L 4684 2272 
L 4684 1741 
L 678 1741 
L 678 2272 
z
" transform="scale(0.015625)"/>
        <path id="DejaVuSans-2e" d="M 684 794 
L 1344 794 
L 1344 0 
L 684 0 
L 684 794 
z
" transform="scale(0.015625)"/>
        <path id="DejaVuSans-35" d="M 691 4666 
L 3169 4666 
L 3169 4134 
L 1269 4134 
L 1269 2991 
Q 1406 3038 1543 3061 
Q 1681 3084 1819 3084 
Q 2600 3084 3056 2656 
Q 3513 2228 3513 1497 
Q 3513 744 3044 326 
Q 2575 -91 1722 -91 
Q 1428 -91 1123 -41 
Q 819 9 494 109 
L 494 744 
Q 775 591 1075 516 
Q 1375 441 1709 441 
Q 2250 441 2565 725 
Q 2881 1009 2881 1497 
Q 2881 1984 2565 2268 
Q 2250 2553 1709 2553 
Q 1456 2553 1204 2497 
Q 953 2441 691 2322 
L 691 4666 
z
" transform="scale(0.015625)"/>
       </defs>
       <use xlink:href="#DejaVuSans-2212"/>
       <use xlink:href="#DejaVuSans-30" x="83.789062"/>
       <use xlink:href="#DejaVuSans-2e" x="147.412109"/>
       <use xlink:href="#DejaVuSans-35" x="179.199219"/>
      </g>
     </g>
    </g>
    <g id="ytick_2">
     <g id="line2d_11">
      <g>
       <use xlink:href="#m0e6fe2c45e" x="57.6" y="251.526652" style="stroke: #000000; stroke-width: 0.8"/>
      </g>
     </g>
     <g id="text_12">
      <!-- 0.0 -->
      <g transform="translate(34.696875 255.32587) scale(0.1 -0.1)">
       <use xlink:href="#DejaVuSans-30"/>
       <use xlink:href="#DejaVuSans-2e" x="63.623047"/>
       <use xlink:href="#DejaVuSans-30" x="95.410156"/>
      </g>
     </g>
    </g>
    <g id="ytick_3">
     <g id="line2d_12">
      <g>
       <use xlink:href="#m0e6fe2c45e" x="57.6" y="217.118426" style="stroke: #000000; stroke-width: 0.8"/>
      </g>
     </g>
     <g id="text_13">
      <!-- 0.5 -->
      <g transform="translate(34.696875 220.917645) scale(0.1 -0.1)">
       <use xlink:href="#DejaVuSans-30"/>
       <use xlink:href="#DejaVuSans-2e" x="63.623047"/>
       <use xlink:href="#DejaVuSans-35" x="95.410156"/>
      </g>
     </g>
    </g>
    <g id="ytick_4">
     <g id="line2d_13">
      <g>
       <use xlink:href="#m0e6fe2c45e" x="57.6" y="182.7102" style="stroke: #000000; stroke-width: 0.8"/>
      </g>
     </g>
     <g id="text_14">
      <!-- 1.0 -->
      <g transform="translate(34.696875 186.509419) scale(0.1 -0.1)">
       <use xlink:href="#DejaVuSans-31"/>
       <use xlink:href="#DejaVuSans-2e" x="63.623047"/>
       <use xlink:href="#DejaVuSans-30" x="95.410156"/>
      </g>
     </g>
    </g>
    <g id="ytick_5">
     <g id="line2d_14">
      <g>
       <use xlink:href="#m0e6fe2c45e" x="57.6" y="148.301975" style="stroke: #000000; stroke-width: 0.8"/>
      </g>
     </g>
     <g id="text_15">
      <!-- 1.5 -->
      <g transform="translate(34.696875 152.101193) scale(0.1 -0.1)">
       <use xlink:href="#DejaVuSans-31"/>
       <use xlink:href="#DejaVuSans-2e" x="63.623047"/>
       <use xlink:href="#DejaVuSans-35" x="95.410156"/>
      </g>
     </g>
    </g>
    <g id="ytick_6">
     <g id="line2d_15">
      <g>
       <use xlink:href="#m0e6fe2c45e" x="57.6" y="113.893749" style="stroke: #000000; stroke-width: 0.8"/>
      </g>
     </g>
     <g id="text_16">
      <!-- 2.0 -->
      <g transform="translate(34.696875 117.692968) scale(0.1 -0.1)">
       <use xlink:href="#DejaVuSans-32"/>
       <use xlink:href="#DejaVuSans-2e" x="63.623047"/>
       <use xlink:href="#DejaVuSans-30" x="95.410156"/>
      </g>
     </g>
    </g>
    <g id="ytick_7">
     <g id="line2d_16">
      <g>
       <use xlink:href="#m0e6fe2c45e" x="57.6" y="79.485523" style="stroke: #000000; stroke-width: 0.8"/>
      </g>
     </g>
     <g id="text_17">
      <!-- 2.5 -->
      <g transform="translate(34.696875 83.284742) scale(0.1 -0.1)">
       <use xlink:href="#DejaVuSans-32"/>
       <use xlink:href="#DejaVuSans-2e" x="63.623047"/>
       <use xlink:href="#DejaVuSans-35" x="95.410156"/>
      </g>
     </g>
    </g>
    <g id="ytick_8">
     <g id="line2d_17">
      <g>
       <use xlink:href="#m0e6fe2c45e" x="57.6" y="45.077297" style="stroke: #000000; stroke-width: 0.8"/>
      </g>
     </g>
     <g id="text_18">
      <!-- 3.0 -->
      <g transform="translate(34.696875 48.876516) scale(0.1 -0.1)">
       <defs>
        <path id="DejaVuSans-33" d="M 2597 2516 
Q 3050 2419 3304 2112 
Q 3559 1806 3559 1356 
Q 3559 666 3084 287 
Q 2609 -91 1734 -91 
Q 1441 -91 1130 -33 
Q 819 25 488 141 
L 488 750 
Q 750 597 1062 519 
Q 1375 441 1716 441 
Q 2309 441 2620 675 
Q 2931 909 2931 1356 
Q 2931 1769 2642 2001 
Q 2353 2234 1838 2234 
L 1294 2234 
L 1294 2753 
L 1863 2753 
Q 2328 2753 2575 2939 
Q 2822 3125 2822 3475 
Q 2822 3834 2567 4026 
Q 2313 4219 1838 4219 
Q 1578 4219 1281 4162 
Q 984 4106 628 3988 
L 628 4550 
Q 988 4650 1302 4700 
Q 1616 4750 1894 4750 
Q 2613 4750 3031 4423 
Q 3450 4097 3450 3541 
Q 3450 3153 3228 2886 
Q 3006 2619 2597 2516 
z
" transform="scale(0.015625)"/>
       </defs>
       <use xlink:href="#DejaVuSans-33"/>
       <use xlink:href="#DejaVuSans-2e" x="63.623047"/>
       <use xlink:href="#DejaVuSans-30" x="95.410156"/>
      </g>
     </g>
    </g>
    <g id="text_19">
     <!-- Crescimento real -->
     <g transform="translate(20.2375 216.978781) rotate(-90) scale(0.1 -0.1)">
      <defs>
       <path id="DejaVuSans-43" d="M 4122 4306 
L 4122 3641 
Q 3803 3938 3442 4084 
Q 3081 4231 2675 4231 
Q 1875 4231 1450 3742 
Q 1025 3253 1025 2328 
Q 1025 1406 1450 917 
Q 1875 428 2675 428 
Q 3081 428 3442 575 
Q 3803 722 4122 1019 
L 4122 359 
Q 3791 134 3420 21 
Q 3050 -91 2638 -91 
Q 1578 -91 968 557 
Q 359 1206 359 2328 
Q 359 3453 968 4101 
Q 1578 4750 2638 4750 
Q 3056 4750 3426 4639 
Q 3797 4528 4122 4306 
z
" transform="scale(0.015625)"/>
       <path id="DejaVuSans-72" d="M 2631 2963 
Q 2534 3019 2420 3045 
Q 2306 3072 2169 3072 
Q 1681 3072 1420 2755 
Q 1159 2438 1159 1844 
L 1159 0 
L 581 0 
L 581 3500 
L 1159 3500 
L 1159 2956 
Q 1341 3275 1631 3429 
Q 1922 3584 2338 3584 
Q 2397 3584 2469 3576 
Q 2541 3569 2628 3553 
L 2631 2963 
z
" transform="scale(0.015625)"/>
       <path id="DejaVuSans-65" d="M 3597 1894 
L 3597 1613 
L 953 1613 
Q 991 1019 1311 708 
Q 1631 397 2203 397 
Q 2534 397 2845 478 
Q 3156 559 3463 722 
L 3463 178 
Q 3153 47 2828 -22 
Q 2503 -91 2169 -91 
Q 1331 -91 842 396 
Q 353 884 353 1716 
Q 353 2575 817 3079 
Q 1281 3584 2069 3584 
Q 2775 3584 3186 3129 
Q 3597 2675 3597 1894 
z
M 3022 2063 
Q 3016 2534 2758 2815 
Q 2500 3097 2075 3097 
Q 1594 3097 1305 2825 
Q 1016 2553 972 2059 
L 3022 2063 
z
" transform="scale(0.015625)"/>
       <path id="DejaVuSans-73" d="M 2834 3397 
L 2834 2853 
Q 2591 2978 2328 3040 
Q 2066 3103 1784 3103 
Q 1356 3103 1142 2972 
Q 928 2841 928 2578 
Q 928 2378 1081 2264 
Q 1234 2150 1697 2047 
L 1894 2003 
Q 2506 1872 2764 1633 
Q 3022 1394 3022 966 
Q 3022 478 2636 193 
Q 2250 -91 1575 -91 
Q 1294 -91 989 -36 
Q 684 19 347 128 
L 347 722 
Q 666 556 975 473 
Q 1284 391 1588 391 
Q 1994 391 2212 530 
Q 2431 669 2431 922 
Q 2431 1156 2273 1281 
Q 2116 1406 1581 1522 
L 1381 1569 
Q 847 1681 609 1914 
Q 372 2147 372 2553 
Q 372 3047 722 3315 
Q 1072 3584 1716 3584 
Q 2034 3584 2315 3537 
Q 2597 3491 2834 3397 
z
" transform="scale(0.015625)"/>
       <path id="DejaVuSans-63" d="M 3122 3366 
L 3122 2828 
Q 2878 2963 2633 3030 
Q 2388 3097 2138 3097 
Q 1578 3097 1268 2742 
Q 959 2388 959 1747 
Q 959 1106 1268 751 
Q 1578 397 2138 397 
Q 2388 397 2633 464 
Q 2878 531 3122 666 
L 3122 134 
Q 2881 22 2623 -34 
Q 2366 -91 2075 -91 
Q 1284 -91 818 406 
Q 353 903 353 1747 
Q 353 2603 823 3093 
Q 1294 3584 2113 3584 
Q 2378 3584 2631 3529 
Q 2884 3475 3122 3366 
z
" transform="scale(0.015625)"/>
       <path id="DejaVuSans-69" d="M 603 3500 
L 1178 3500 
L 1178 0 
L 603 0 
L 603 3500 
z
M 603 4863 
L 1178 4863 
L 1178 4134 
L 603 4134 
L 603 4863 
z
" transform="scale(0.015625)"/>
       <path id="DejaVuSans-6d" d="M 3328 2828 
Q 3544 3216 3844 3400 
Q 4144 3584 4550 3584 
Q 5097 3584 5394 3201 
Q 5691 2819 5691 2113 
L 5691 0 
L 5113 0 
L 5113 2094 
Q 5113 2597 4934 2840 
Q 4756 3084 4391 3084 
Q 3944 3084 3684 2787 
Q 3425 2491 3425 1978 
L 3425 0 
L 2847 0 
L 2847 2094 
Q 2847 2600 2669 2842 
Q 2491 3084 2119 3084 
Q 1678 3084 1418 2786 
Q 1159 2488 1159 1978 
L 1159 0 
L 581 0 
L 581 3500 
L 1159 3500 
L 1159 2956 
Q 1356 3278 1631 3431 
Q 1906 3584 2284 3584 
Q 2666 3584 2933 3390 
Q 3200 3197 3328 2828 
z
" transform="scale(0.015625)"/>
       <path id="DejaVuSans-74" d="M 1172 4494 
L 1172 3500 
L 2356 3500 
L 2356 3053 
L 1172 3053 
L 1172 1153 
Q 1172 725 1289 603 
Q 1406 481 1766 481 
L 2356 481 
L 2356 0 
L 1766 0 
Q 1100 0 847 248 
Q 594 497 594 1153 
L 594 3053 
L 172 3053 
L 172 3500 
L 594 3500 
L 594 4494 
L 1172 4494 
z
" transform="scale(0.015625)"/>
       <path id="DejaVuSans-20" transform="scale(0.015625)"/>
       <path id="DejaVuSans-61" d="M 2194 1759 
Q 1497 1759 1228 1600 
Q 959 1441 959 1056 
Q 959 750 1161 570 
Q 1363 391 1709 391 
Q 2188 391 2477 730 
Q 2766 1069 2766 1631 
L 2766 1759 
L 2194 1759 
z
M 3341 1997 
L 3341 0 
L 2766 0 
L 2766 531 
Q 2569 213 2275 61 
Q 1981 -91 1556 -91 
Q 1019 -91 701 211 
Q 384 513 384 1019 
Q 384 1609 779 1909 
Q 1175 2209 1959 2209 
L 2766 2209 
L 2766 2266 
Q 2766 2663 2505 2880 
Q 2244 3097 1772 3097 
Q 1472 3097 1187 3025 
Q 903 2953 641 2809 
L 641 3341 
Q 956 3463 1253 3523 
Q 1550 3584 1831 3584 
Q 2591 3584 2966 3190 
Q 3341 2797 3341 1997 
z
" transform="scale(0.015625)"/>
       <path id="DejaVuSans-6c" d="M 603 4863 
L 1178 4863 
L 1178 0 
L 603 0 
L 603 4863 
z
" transform="scale(0.015625)"/>
      </defs>
      <use xlink:href="#DejaVuSans-43"/>
      <use xlink:href="#DejaVuSans-72" x="69.824219"/>
      <use xlink:href="#DejaVuSans-65" x="108.6875"/>
      <use xlink:href="#DejaVuSans-73" x="170.210938"/>
      <use xlink:href="#DejaVuSans-63" x="222.310547"/>
      <use xlink:href="#DejaVuSans-69" x="277.291016"/>
      <use xlink:href="#DejaVuSans-6d" x="305.074219"/>
      <use xlink:href="#DejaVuSans-65" x="402.486328"/>
      <use xlink:href="#DejaVuSans-6e" x="464.009766"/>
      <use xlink:href="#DejaVuSans-74" x="527.388672"/>
      <use xlink:href="#DejaVuSans-6f" x="566.597656"/>
      <use xlink:href="#DejaVuSans-20" x="627.779297"/>
      <use xlink:href="#DejaVuSans-72" x="659.566406"/>
      <use xlink:href="#DejaVuSans-65" x="698.429688"/>
      <use xlink:href="#DejaVuSans-61" x="759.953125"/>
      <use xlink:href="#DejaVuSans-6c" x="821.232422"/>
     </g>
    </g>
   </g>
   <g id="line2d_18">
    <path d="M 73.832727 237.025751 
L 91.855375 249.742556 
L 109.9274 250.33859 
L 127.950048 251.874888 
L 145.972695 214.341403 
L 163.995343 238.040512 
L 182.067368 249.096249 
L 200.090016 219.107149 
L 218.112664 235.361097 
L 236.135311 245.930348 
L 254.207336 270.250802 
L 272.229984 226.862749 
L 290.252632 265.40115 
L 308.27528 239.11407 
L 326.347305 260.411424 
L 344.369952 259.808329 
L 362.3926 148.625831 
L 380.415248 260.71163 
L 398.487273 251.422862 
" clip-path="url(#p81734607df)" style="fill: none; stroke: #dcdcdc; stroke-width: 1.5; stroke-linecap: square"/>
   </g>
   <g id="line2d_19">
    <path d="M 73.832727 250.617205 
L 91.855375 209.403004 
L 109.9274 249.166047 
L 127.950048 242.536543 
L 145.972695 255.482117 
L 163.995343 246.319928 
L 182.067368 260.136315 
L 200.090016 239.797944 
L 218.112664 243.69735 
L 236.135311 239.576688 
L 254.207336 239.155077 
L 272.229984 251.933809 
L 290.252632 272.401714 
L 308.27528 258.248164 
L 326.347305 246.733607 
L 344.369952 246.87869 
L 362.3926 248.677269 
L 380.415248 244.344935 
L 398.487273 238.669989 
" clip-path="url(#p81734607df)" style="fill: none; stroke: #dcdcdc; stroke-width: 1.5; stroke-linecap: square"/>
   </g>
   <g id="line2d_20">
    <path d="M 73.832727 250.214214 
L 91.855375 251.949717 
L 109.9274 259.012885 
L 127.950048 249.236253 
L 145.972695 245.013955 
L 163.995343 257.622264 
L 182.067368 255.189821 
L 200.090016 254.559739 
L 218.112664 259.742796 
L 236.135311 255.449087 
L 254.207336 235.257956 
L 272.229984 257.839699 
L 290.252632 261.366458 
L 308.27528 254.216666 
L 326.347305 252.351127 
L 344.369952 249.30268 
L 362.3926 244.589549 
L 380.415248 273.755516 
L 398.487273 253.331142 
" clip-path="url(#p81734607df)" style="fill: none; stroke: #dcdcdc; stroke-width: 1.5; stroke-linecap: square"/>
   </g>
   <g id="line2d_21">
    <path d="M 73.832727 251.115388 
L 91.855375 250.418897 
L 109.9274 256.869748 
L 127.950048 257.899137 
L 145.972695 254.667006 
L 163.995343 255.790525 
L 182.067368 254.572113 
L 200.090016 251.769332 
L 218.112664 246.016561 
L 236.135311 254.26405 
L 254.207336 252.652859 
L 272.229984 254.939424 
L 290.252632 253.620401 
L 308.27528 252.141095 
L 326.347305 264.086892 
L 344.369952 257.220795 
L 362.3926 254.775177 
L 380.415248 256.460448 
L 398.487273 251.590271 
" clip-path="url(#p81734607df)" style="fill: none; stroke: #dcdcdc; stroke-width: 1.5; stroke-linecap: square"/>
   </g>
   <g id="line2d_22">
    <path d="M 73.832727 244.280832 
L 91.855375 245.958322 
L 109.9274 267.130785 
L 127.950048 245.630503 
L 145.972695 247.072759 
L 163.995343 251.32809 
L 182.067368 255.763044 
L 200.090016 244.489871 
L 218.112664 53.568 
L 236.135311 277.305716 
L 254.207336 233.042567 
L 272.229984 247.851668 
L 290.252632 261.074756 
L 308.27528 260.242246 
L 326.347305 262.030466 
L 344.369952 244.339241 
L 362.3926 251.751765 
L 380.415248 254.915285 
L 398.487273 238.624679 
" clip-path="url(#p81734607df)" style="fill: none; stroke: #dcdcdc; stroke-width: 1.5; stroke-linecap: square"/>
   </g>
   <g id="line2d_23">
    <path d="M 73.832727 258.513899 
L 91.855375 256.378156 
L 109.9274 258.273022 
L 127.950048 232.57185 
L 145.972695 249.393662 
L 163.995343 217.375953 
L 182.067368 251.603988 
L 200.090016 241.386376 
L 218.112664 255.838605 
L 236.135311 232.960276 
L 254.207336 252.708132 
L 272.229984 261.669327 
L 290.252632 252.244389 
L 308.27528 264.392731 
L 326.347305 267.17157 
L 344.369952 245.309872 
L 362.3926 245.78671 
L 380.415248 254.578322 
L 398.487273 251.899986 
" clip-path="url(#p81734607df)" style="fill: none; stroke: #dcdcdc; stroke-width: 1.5; stroke-linecap: square"/>
   </g>
   <g id="line2d_24">
    <path d="M 73.832727 257.128988 
L 91.855375 238.998906 
L 109.9274 250.131382 
L 127.950048 250.603897 
L 145.972695 248.52312 
L 163.995343 259.744242 
L 182.067368 250.167672 
L 200.090016 257.402157 
L 218.112664 258.919585 
L 236.135311 253.447566 
L 254.207336 252.117211 
L 272.229984 248.071086 
L 290.252632 255.36926 
L 308.27528 254.174071 
L 326.347305 263.072117 
L 344.369952 257.873759 
L 362.3926 257.007613 
L 380.415248 252.363205 
L 398.487273 263.042796 
" clip-path="url(#p81734607df)" style="fill: none; stroke: #dcdcdc; stroke-width: 1.5; stroke-linecap: square"/>
   </g>
   <g id="line2d_25">
    <path d="M 73.832727 250.085341 
L 91.855375 251.437387 
L 109.9274 253.807995 
L 127.950048 250.250922 
L 145.972695 245.332334 
L 163.995343 247.706111 
L 182.067368 255.092465 
L 200.090016 253.38441 
L 218.112664 232.047263 
L 236.135311 256.725164 
L 254.207336 250.788031 
L 272.229984 248.881557 
L 290.252632 265.021146 
L 308.27528 257.828445 
L 326.347305 270.021814 
L 344.369952 265.199026 
L 362.3926 265.038448 
L 380.415248 263.395721 
L 398.487273 273.273205 
" clip-path="url(#p81734607df)" style="fill: none; stroke: #dcdcdc; stroke-width: 1.5; stroke-linecap: square"/>
   </g>
   <g id="line2d_26">
    <path d="M 73.832727 246.388594 
L 91.855375 248.527917 
L 109.9274 256.264086 
L 127.950048 255.157904 
L 145.972695 245.894247 
L 163.995343 251.016082 
L 182.067368 255.589554 
L 200.090016 241.466831 
L 218.112664 260.199062 
L 236.135311 246.382337 
L 254.207336 251.315407 
L 272.229984 253.02996 
L 290.252632 258.622855 
L 308.27528 258.85454 
L 326.347305 237.026907 
L 344.369952 244.180374 
L 362.3926 253.82603 
L 380.415248 254.089684 
L 398.487273 242.782066 
" clip-path="url(#p81734607df)" style="fill: none; stroke: #dcdcdc; stroke-width: 1.5; stroke-linecap: square"/>
   </g>
   <g id="line2d_27">
    <path d="M 73.832727 252.438518 
L 91.855375 243.732211 
L 109.9274 249.974927 
L 127.950048 239.7843 
L 145.972695 249.365129 
L 163.995343 241.54002 
L 182.067368 240.531665 
L 200.090016 217.837763 
L 218.112664 232.072512 
L 236.135311 252.321375 
L 254.207336 248.87179 
L 272.229984 255.95092 
L 290.252632 258.022495 
L 308.27528 251.987531 
L 326.347305 239.110223 
L 344.369952 255.029554 
L 362.3926 262.379978 
L 380.415248 262.692936 
L 398.487273 260.412904 
" clip-path="url(#p81734607df)" style="fill: none; stroke: #dcdcdc; stroke-width: 1.5; stroke-linecap: square"/>
   </g>
   <g id="line2d_28">
    <path d="M 73.832727 243.650147 
L 91.855375 243.844123 
L 109.9274 245.30459 
L 127.950048 244.070861 
L 145.972695 242.633054 
L 163.995343 251.246761 
L 182.067368 269.130015 
L 200.090016 224.602783 
L 218.112664 250.151795 
L 236.135311 251.80336 
L 254.207336 255.280667 
L 272.229984 250.334 
L 290.252632 248.652751 
L 308.27528 264.018892 
L 326.347305 243.885764 
L 344.369952 256.250669 
L 362.3926 282.941252 
L 380.415248 265.366708 
L 398.487273 238.462275 
" clip-path="url(#p81734607df)" style="fill: none; stroke: #dcdcdc; stroke-width: 1.5; stroke-linecap: square"/>
   </g>
   <g id="line2d_29">
    <path d="M 73.832727 235.12029 
L 91.855375 256.085601 
L 109.9274 252.531265 
L 127.950048 239.381494 
L 145.972695 231.481025 
L 163.995343 232.396846 
L 182.067368 275.589056 
L 200.090016 188.479962 
L 218.112664 233.873837 
L 236.135311 254.642033 
L 254.207336 252.903289 
L 272.229984 240.447257 
L 290.252632 247.890638 
L 308.27528 255.806127 
L 326.347305 253.704147 
L 344.369952 260.282623 
L 362.3926 271.929329 
L 380.415248 265.345407 
L 398.487273 258.500567 
" clip-path="url(#p81734607df)" style="fill: none; stroke: #dcdcdc; stroke-width: 1.5; stroke-linecap: square"/>
   </g>
   <g id="line2d_30">
    <path d="M 73.832727 251.050395 
L 91.855375 254.231718 
L 109.9274 243.598839 
L 127.950048 246.718254 
L 145.972695 252.918046 
L 163.995343 250.59532 
L 182.067368 246.347261 
L 200.090016 251.004518 
L 218.112664 255.756868 
L 236.135311 253.957103 
L 254.207336 256.622563 
L 272.229984 248.454188 
L 290.252632 248.284314 
L 308.27528 248.408104 
L 326.347305 252.170242 
L 344.369952 249.776803 
L 362.3926 241.133426 
L 380.415248 243.318566 
L 398.487273 249.251572 
" clip-path="url(#p81734607df)" style="fill: none; stroke: #dcdcdc; stroke-width: 1.5; stroke-linecap: square"/>
   </g>
   <g id="line2d_31">
    <path d="M 73.832727 255.524302 
L 91.855375 258.729903 
L 109.9274 242.776421 
L 127.950048 249.812434 
L 145.972695 247.089064 
L 163.995343 254.394572 
L 182.067368 247.110545 
L 200.090016 240.24241 
L 218.112664 217.092262 
L 236.135311 246.882619 
L 254.207336 218.152611 
L 272.229984 188.64051 
L 290.252632 224.47227 
L 308.27528 244.312436 
L 326.347305 249.892929 
L 344.369952 253.501131 
L 362.3926 255.418774 
L 380.415248 256.535488 
L 398.487273 249.493258 
" clip-path="url(#p81734607df)" style="fill: none; stroke: #dcdcdc; stroke-width: 1.5; stroke-linecap: square"/>
   </g>
   <g id="line2d_32">
    <path d="M 73.832727 229.527352 
L 91.855375 241.270011 
L 109.9274 255.611756 
L 127.950048 240.932381 
L 145.972695 242.977991 
L 163.995343 247.266302 
L 182.067368 249.758318 
L 200.090016 234.304124 
L 218.112664 250.755634 
L 236.135311 244.566257 
L 254.207336 243.710108 
L 272.229984 253.788718 
L 290.252632 259.786296 
L 308.27528 258.91527 
L 326.347305 252.738445 
L 344.369952 255.097551 
L 362.3926 250.347245 
L 380.415248 246.611224 
L 398.487273 248.11749 
" clip-path="url(#p81734607df)" style="fill: none; stroke: #dcdcdc; stroke-width: 1.5; stroke-linecap: square"/>
   </g>
   <g id="line2d_33">
    <path d="M 73.832727 255.797883 
L 91.855375 252.626077 
L 109.9274 252.782735 
L 127.950048 259.718744 
L 145.972695 229.75044 
L 163.995343 227.872667 
L 182.067368 248.251239 
L 200.090016 249.002576 
L 218.112664 247.694521 
L 236.135311 244.157152 
L 254.207336 239.611939 
L 272.229984 251.119621 
L 290.252632 257.809455 
L 308.27528 259.805453 
L 326.347305 259.224291 
L 344.369952 252.868545 
L 362.3926 252.652095 
L 380.415248 255.573279 
L 398.487273 244.518487 
" clip-path="url(#p81734607df)" style="fill: none; stroke: #dcdcdc; stroke-width: 1.5; stroke-linecap: square"/>
   </g>
   <g id="line2d_34">
    <path d="M 73.832727 248.13728 
L 91.855375 252.153789 
L 109.9274 251.813141 
L 127.950048 250.949862 
L 145.972695 256.824705 
L 163.995343 253.318007 
L 182.067368 251.529098 
L 200.090016 245.409074 
L 218.112664 252.465733 
L 236.135311 255.315713 
L 254.207336 246.127394 
L 272.229984 250.337406 
L 290.252632 253.624892 
L 308.27528 261.338062 
L 326.347305 256.979337 
L 344.369952 256.289969 
L 362.3926 253.527579 
L 380.415248 250.556712 
L 398.487273 248.930577 
" clip-path="url(#p81734607df)" style="fill: none; stroke: #dcdcdc; stroke-width: 1.5; stroke-linecap: square"/>
   </g>
   <g id="line2d_35">
    <path d="M 73.832727 244.883984 
L 91.855375 250.621812 
L 109.9274 234.958178 
L 127.950048 224.430788 
L 145.972695 254.023784 
L 163.995343 248.39991 
L 182.067368 254.709962 
L 200.090016 244.706846 
L 218.112664 245.571683 
L 236.135311 228.527854 
L 254.207336 234.388458 
L 272.229984 251.685941 
L 290.252632 256.240818 
L 308.27528 261.929666 
L 326.347305 248.420978 
L 344.369952 254.053975 
L 362.3926 295.488 
L 380.415248 269.80866 
L 398.487273 235.611613 
" clip-path="url(#p81734607df)" style="fill: none; stroke: #dcdcdc; stroke-width: 1.5; stroke-linecap: square"/>
   </g>
   <g id="line2d_36">
    <path d="M 73.832727 267.338359 
L 91.855375 236.521646 
L 109.9274 228.175811 
L 127.950048 249.784096 
L 145.972695 245.921543 
L 163.995343 257.6552 
L 182.067368 244.048655 
L 200.090016 246.785293 
L 218.112664 263.333289 
L 236.135311 244.924846 
L 254.207336 258.752189 
L 272.229984 282.150402 
L 290.252632 226.161223 
L 308.27528 259.253688 
L 326.347305 272.377398 
L 344.369952 151.498939 
L 362.3926 291.515149 
L 380.415248 176.042928 
L 398.487273 235.981145 
" clip-path="url(#p81734607df)" style="fill: none; stroke: #dcdcdc; stroke-width: 1.5; stroke-linecap: square"/>
   </g>
   <g id="line2d_37">
    <path d="M 73.832727 246.198647 
L 91.855375 246.542006 
L 109.9274 264.849742 
L 127.950048 249.250588 
L 145.972695 238.574173 
L 163.995343 236.163097 
L 182.067368 260.312497 
L 200.090016 236.621985 
L 218.112664 248.930044 
L 236.135311 236.938886 
L 254.207336 260.066706 
L 272.229984 251.279785 
L 290.252632 260.251329 
L 308.27528 259.464796 
L 326.347305 250.722493 
L 344.369952 247.606505 
L 362.3926 242.630955 
L 380.415248 245.137687 
L 398.487273 243.897562 
" clip-path="url(#p81734607df)" style="fill: none; stroke: #dcdcdc; stroke-width: 1.5; stroke-linecap: square"/>
   </g>
   <g id="line2d_38">
    <path d="M 73.832727 239.117285 
L 91.855375 244.588949 
L 109.9274 258.480308 
L 127.950048 256.855491 
L 145.972695 243.060879 
L 163.995343 239.711868 
L 182.067368 247.690512 
L 200.090016 246.387873 
L 218.112664 255.40203 
L 236.135311 256.07979 
L 254.207336 245.214132 
L 272.229984 249.360489 
L 290.252632 254.599018 
L 308.27528 263.143479 
L 326.347305 249.837838 
L 344.369952 253.298164 
L 362.3926 254.710268 
L 380.415248 253.569818 
L 398.487273 223.966602 
" clip-path="url(#p81734607df)" style="fill: none; stroke: #dcdcdc; stroke-width: 1.5; stroke-linecap: square"/>
   </g>
   <g id="line2d_39">
    <path d="M 73.832727 268.506604 
L 91.855375 258.697659 
L 109.9274 254.826109 
L 127.950048 261.974317 
L 145.972695 239.211105 
L 163.995343 225.915126 
L 182.067368 248.566757 
L 200.090016 255.838469 
L 218.112664 255.443153 
L 236.135311 243.810713 
L 254.207336 263.641033 
L 272.229984 256.544495 
L 290.252632 266.219967 
L 308.27528 260.129694 
L 326.347305 260.996974 
L 344.369952 226.350655 
L 362.3926 250.962754 
L 380.415248 257.118817 
L 398.487273 137.279963 
" clip-path="url(#p81734607df)" style="fill: none; stroke: #dcdcdc; stroke-width: 1.5; stroke-linecap: square"/>
   </g>
   <g id="line2d_40">
    <path d="M 73.832727 248.372936 
L 91.855375 251.849634 
L 109.9274 246.842263 
L 127.950048 247.036684 
L 145.972695 249.537571 
L 163.995343 248.695783 
L 182.067368 252.985938 
L 200.090016 241.281325 
L 218.112664 249.138587 
L 236.135311 252.861776 
L 254.207336 253.719497 
L 272.229984 245.297592 
L 290.252632 247.606508 
L 308.27528 252.365945 
L 326.347305 248.138765 
L 344.369952 251.25881 
L 362.3926 257.823009 
L 380.415248 250.935668 
L 398.487273 249.050731 
" clip-path="url(#p81734607df)" style="fill: none; stroke: #dcdcdc; stroke-width: 1.5; stroke-linecap: square"/>
   </g>
   <g id="line2d_41">
    <path d="M 73.832727 250.472246 
L 91.855375 243.414118 
L 109.9274 252.625243 
L 127.950048 255.763662 
L 145.972695 252.951021 
L 163.995343 257.892533 
L 182.067368 249.078113 
L 200.090016 239.262896 
L 218.112664 236.244712 
L 236.135311 246.632187 
L 254.207336 250.677342 
L 272.229984 255.511874 
L 290.252632 255.827874 
L 308.27528 260.327794 
L 326.347305 259.509451 
L 344.369952 247.001267 
L 362.3926 252.817773 
L 380.415248 254.741604 
L 398.487273 249.34535 
" clip-path="url(#p81734607df)" style="fill: none; stroke: #dcdcdc; stroke-width: 1.5; stroke-linecap: square"/>
   </g>
   <g id="line2d_42">
    <path d="M 73.832727 245.456144 
L 91.855375 286.081272 
L 109.9274 239.247009 
L 127.950048 253.291553 
L 145.972695 180.158024 
L 163.995343 260.422351 
L 182.067368 241.153962 
L 200.090016 163.180486 
L 218.112664 255.997662 
L 236.135311 231.05788 
L 254.207336 243.444136 
L 272.229984 243.72403 
L 290.252632 251.686116 
L 308.27528 268.517275 
L 326.347305 253.665429 
L 344.369952 259.631214 
L 362.3926 250.66253 
L 380.415248 246.131982 
L 398.487273 234.390912 
" clip-path="url(#p81734607df)" style="fill: none; stroke: #dcdcdc; stroke-width: 1.5; stroke-linecap: square"/>
   </g>
   <g id="line2d_43">
    <path d="M 73.832727 236.970902 
L 91.855375 242.065227 
L 109.9274 247.678555 
L 127.950048 243.414293 
L 145.972695 243.341536 
L 163.995343 244.265605 
L 182.067368 261.126824 
L 200.090016 234.022467 
L 218.112664 246.521438 
L 236.135311 252.768848 
L 254.207336 252.61465 
L 272.229984 243.440471 
L 290.252632 245.714591 
L 308.27528 248.673934 
L 326.347305 242.619549 
L 344.369952 244.613368 
L 362.3926 276.837908 
L 380.415248 250.258969 
L 398.487273 253.000145 
" clip-path="url(#p81734607df)" style="fill: none; stroke: #dcdcdc; stroke-width: 1.5; stroke-linecap: square"/>
   </g>
   <g id="line2d_44">
    <path d="M 73.832727 250.958217 
L 91.855375 251.217211 
L 109.9274 254.69837 
L 127.950048 249.183286 
L 145.972695 263.44361 
L 163.995343 247.40979 
L 182.067368 268.759893 
L 200.090016 207.312848 
L 218.112664 168.816583 
L 236.135311 220.767973 
L 254.207336 213.353151 
L 272.229984 248.286128 
L 290.252632 286.322636 
L 308.27528 274.722471 
L 326.347305 258.452462 
L 344.369952 253.363584 
L 362.3926 224.507183 
L 380.415248 254.832436 
L 398.487273 205.233753 
" clip-path="url(#p81734607df)" style="fill: none; stroke: #dcdcdc; stroke-width: 1.5; stroke-linecap: square"/>
   </g>
   <g id="line2d_45">
    <path d="M 73.832727 242.734184 
L 91.855375 256.246219 
L 109.9274 274.715806 
L 127.950048 217.165809 
L 145.972695 153.667452 
L 163.995343 188.459909 
L 182.067368 254.500131 
L 200.090016 235.430393 
L 218.112664 242.775737 
L 236.135311 251.429464 
L 254.207336 232.272459 
L 272.229984 251.608647 
L 290.252632 265.931745 
L 308.27528 269.055002 
L 326.347305 226.209378 
L 344.369952 252.352262 
L 362.3926 234.723567 
L 380.415248 250.786355 
L 398.487273 236.888188 
" clip-path="url(#p81734607df)" style="fill: none; stroke: #dcdcdc; stroke-width: 1.5; stroke-linecap: square"/>
   </g>
   <g id="line2d_46">
    <path d="M 73.832727 251.050395 
L 91.855375 254.231718 
L 109.9274 243.598839 
L 127.950048 246.718254 
L 145.972695 252.918046 
L 163.995343 250.59532 
L 182.067368 246.347261 
L 200.090016 251.004518 
L 218.112664 255.756868 
L 236.135311 253.957103 
L 254.207336 256.622563 
L 272.229984 248.454188 
L 290.252632 248.284314 
L 308.27528 248.408104 
L 326.347305 252.170242 
L 344.369952 249.776803 
L 362.3926 241.133426 
L 380.415248 243.318566 
L 398.487273 249.251572 
" clip-path="url(#p81734607df)" style="fill: none; stroke: #008080; stroke-width: 1.5; stroke-linecap: square"/>
   </g>
   <g id="line2d_47">
    <path d="M 73.832727 248.372936 
L 91.855375 251.849634 
L 109.9274 246.842263 
L 127.950048 247.036684 
L 145.972695 249.537571 
L 163.995343 248.695783 
L 182.067368 252.985938 
L 200.090016 241.281325 
L 218.112664 249.138587 
L 236.135311 252.861776 
L 254.207336 253.719497 
L 272.229984 245.297592 
L 290.252632 247.606508 
L 308.27528 252.365945 
L 326.347305 248.138765 
L 344.369952 251.25881 
L 362.3926 257.823009 
L 380.415248 250.935668 
L 398.487273 249.050731 
" clip-path="url(#p81734607df)" style="fill: none; stroke: #ffd700; stroke-width: 1.5; stroke-linecap: square"/>
   </g>
   <g id="line2d_48">
    <path d="M 73.832727 248.49085 
L 91.855375 248.943867 
L 109.9274 252.060865 
L 127.950048 246.972004 
L 145.972695 239.744933 
L 163.995343 244.069244 
L 182.067368 253.533545 
L 200.090016 235.696169 
L 218.112664 237.195919 
L 236.135311 247.356492 
L 254.207336 246.407135 
L 272.229984 249.027562 
L 290.252632 256.022984 
L 308.27528 258.111915 
L 326.347305 253.830491 
L 344.369952 248.110353 
L 362.3926 252.417191 
L 380.415248 252.557197 
L 398.487273 241.404421 
" clip-path="url(#p81734607df)" style="fill: none; stroke-dasharray: 5.55,2.4; stroke-dashoffset: 0; stroke: #dc143c; stroke-width: 1.5"/>
   </g>
   <g id="patch_3">
    <path d="M 57.6 307.584 
L 57.6 41.472 
" style="fill: none; stroke: #000000; stroke-width: 0.8; stroke-linejoin: miter; stroke-linecap: square"/>
   </g>
   <g id="patch_4">
    <path d="M 414.72 307.584 
L 414.72 41.472 
" style="fill: none; stroke: #000000; stroke-width: 0.8; stroke-linejoin: miter; stroke-linecap: square"/>
   </g>
   <g id="patch_5">
    <path d="M 57.6 307.584 
L 414.72 307.584 
" style="fill: none; stroke: #000000; stroke-width: 0.8; stroke-linejoin: miter; stroke-linecap: square"/>
   </g>
   <g id="patch_6">
    <path d="M 57.6 41.472 
L 414.72 41.472 
" style="fill: none; stroke: #000000; stroke-width: 0.8; stroke-linejoin: miter; stroke-linecap: square"/>
   </g>
   <g id="text_20">
    <!-- Taxa de Crescimento da Ind. extrativa -->
    <g transform="translate(122.222813 35.472) scale(0.12 -0.12)">
     <defs>
      <path id="DejaVuSans-54" d="M -19 4666 
L 3928 4666 
L 3928 4134 
L 2272 4134 
L 2272 0 
L 1638 0 
L 1638 4134 
L -19 4134 
L -19 4666 
z
" transform="scale(0.015625)"/>
      <path id="DejaVuSans-78" d="M 3513 3500 
L 2247 1797 
L 3578 0 
L 2900 0 
L 1881 1375 
L 863 0 
L 184 0 
L 1544 1831 
L 300 3500 
L 978 3500 
L 1906 2253 
L 2834 3500 
L 3513 3500 
z
" transform="scale(0.015625)"/>
      <path id="DejaVuSans-64" d="M 2906 2969 
L 2906 4863 
L 3481 4863 
L 3481 0 
L 2906 0 
L 2906 525 
Q 2725 213 2448 61 
Q 2172 -91 1784 -91 
Q 1150 -91 751 415 
Q 353 922 353 1747 
Q 353 2572 751 3078 
Q 1150 3584 1784 3584 
Q 2172 3584 2448 3432 
Q 2725 3281 2906 2969 
z
M 947 1747 
Q 947 1113 1208 752 
Q 1469 391 1925 391 
Q 2381 391 2643 752 
Q 2906 1113 2906 1747 
Q 2906 2381 2643 2742 
Q 2381 3103 1925 3103 
Q 1469 3103 1208 2742 
Q 947 2381 947 1747 
z
" transform="scale(0.015625)"/>
      <path id="DejaVuSans-49" d="M 628 4666 
L 1259 4666 
L 1259 0 
L 628 0 
L 628 4666 
z
" transform="scale(0.015625)"/>
      <path id="DejaVuSans-76" d="M 191 3500 
L 800 3500 
L 1894 563 
L 2988 3500 
L 3597 3500 
L 2284 0 
L 1503 0 
L 191 3500 
z
" transform="scale(0.015625)"/>
     </defs>
     <use xlink:href="#DejaVuSans-54"/>
     <use xlink:href="#DejaVuSans-61" x="44.583984"/>
     <use xlink:href="#DejaVuSans-78" x="105.863281"/>
     <use xlink:href="#DejaVuSans-61" x="165.042969"/>
     <use xlink:href="#DejaVuSans-20" x="226.322266"/>
     <use xlink:href="#DejaVuSans-64" x="258.109375"/>
     <use xlink:href="#DejaVuSans-65" x="321.585938"/>
     <use xlink:href="#DejaVuSans-20" x="383.109375"/>
     <use xlink:href="#DejaVuSans-43" x="414.896484"/>
     <use xlink:href="#DejaVuSans-72" x="484.720703"/>
     <use xlink:href="#DejaVuSans-65" x="523.583984"/>
     <use xlink:href="#DejaVuSans-73" x="585.107422"/>
     <use xlink:href="#DejaVuSans-63" x="637.207031"/>
     <use xlink:href="#DejaVuSans-69" x="692.1875"/>
     <use xlink:href="#DejaVuSans-6d" x="719.970703"/>
     <use xlink:href="#DejaVuSans-65" x="817.382812"/>
     <use xlink:href="#DejaVuSans-6e" x="878.90625"/>
     <use xlink:href="#DejaVuSans-74" x="942.285156"/>
     <use xlink:href="#DejaVuSans-6f" x="981.494141"/>
     <use xlink:href="#DejaVuSans-20" x="1042.675781"/>
     <use xlink:href="#DejaVuSans-64" x="1074.462891"/>
     <use xlink:href="#DejaVuSans-61" x="1137.939453"/>
     <use xlink:href="#DejaVuSans-20" x="1199.21875"/>
     <use xlink:href="#DejaVuSans-49" x="1231.005859"/>
     <use xlink:href="#DejaVuSans-6e" x="1260.498047"/>
     <use xlink:href="#DejaVuSans-64" x="1323.876953"/>
     <use xlink:href="#DejaVuSans-2e" x="1387.353516"/>
     <use xlink:href="#DejaVuSans-20" x="1419.140625"/>
     <use xlink:href="#DejaVuSans-65" x="1450.927734"/>
     <use xlink:href="#DejaVuSans-78" x="1510.701172"/>
     <use xlink:href="#DejaVuSans-74" x="1569.880859"/>
     <use xlink:href="#DejaVuSans-72" x="1609.089844"/>
     <use xlink:href="#DejaVuSans-61" x="1650.203125"/>
     <use xlink:href="#DejaVuSans-74" x="1711.482422"/>
     <use xlink:href="#DejaVuSans-69" x="1750.691406"/>
     <use xlink:href="#DejaVuSans-76" x="1778.474609"/>
     <use xlink:href="#DejaVuSans-61" x="1837.654297"/>
    </g>
   </g>
   <g id="legend_1">
    <g id="patch_7">
     <path d="M 314.084063 93.506375 
L 407.72 93.506375 
Q 409.72 93.506375 409.72 91.506375 
L 409.72 48.472 
Q 409.72 46.472 407.72 46.472 
L 314.084063 46.472 
Q 312.084063 46.472 312.084063 48.472 
L 312.084063 91.506375 
Q 312.084063 93.506375 314.084063 93.506375 
z
" style="fill: #ffffff; opacity: 0.8; stroke: #cccccc; stroke-linejoin: miter"/>
    </g>
    <g id="line2d_49">
     <path d="M 316.084063 54.570438 
L 326.084063 54.570438 
L 336.084063 54.570438 
" style="fill: none; stroke: #008080; stroke-width: 1.5; stroke-linecap: square"/>
    </g>
    <g id="text_21">
     <!-- RJ -->
     <g transform="translate(344.084063 58.070438) scale(0.1 -0.1)">
      <defs>
       <path id="DejaVuSans-52" d="M 2841 2188 
Q 3044 2119 3236 1894 
Q 3428 1669 3622 1275 
L 4263 0 
L 3584 0 
L 2988 1197 
Q 2756 1666 2539 1819 
Q 2322 1972 1947 1972 
L 1259 1972 
L 1259 0 
L 628 0 
L 628 4666 
L 2053 4666 
Q 2853 4666 3247 4331 
Q 3641 3997 3641 3322 
Q 3641 2881 3436 2590 
Q 3231 2300 2841 2188 
z
M 1259 4147 
L 1259 2491 
L 2053 2491 
Q 2509 2491 2742 2702 
Q 2975 2913 2975 3322 
Q 2975 3731 2742 3939 
Q 2509 4147 2053 4147 
L 1259 4147 
z
" transform="scale(0.015625)"/>
       <path id="DejaVuSans-4a" d="M 628 4666 
L 1259 4666 
L 1259 325 
Q 1259 -519 939 -900 
Q 619 -1281 -91 -1281 
L -331 -1281 
L -331 -750 
L -134 -750 
Q 284 -750 456 -515 
Q 628 -281 628 325 
L 628 4666 
z
" transform="scale(0.015625)"/>
      </defs>
      <use xlink:href="#DejaVuSans-52"/>
      <use xlink:href="#DejaVuSans-4a" x="69.482422"/>
     </g>
    </g>
    <g id="line2d_50">
     <path d="M 316.084063 69.248563 
L 326.084063 69.248563 
L 336.084063 69.248563 
" style="fill: none; stroke: #ffd700; stroke-width: 1.5; stroke-linecap: square"/>
    </g>
    <g id="text_22">
     <!-- BR -->
     <g transform="translate(344.084063 72.748563) scale(0.1 -0.1)">
      <defs>
       <path id="DejaVuSans-42" d="M 1259 2228 
L 1259 519 
L 2272 519 
Q 2781 519 3026 730 
Q 3272 941 3272 1375 
Q 3272 1813 3026 2020 
Q 2781 2228 2272 2228 
L 1259 2228 
z
M 1259 4147 
L 1259 2741 
L 2194 2741 
Q 2656 2741 2882 2914 
Q 3109 3088 3109 3444 
Q 3109 3797 2882 3972 
Q 2656 4147 2194 4147 
L 1259 4147 
z
M 628 4666 
L 2241 4666 
Q 2963 4666 3353 4366 
Q 3744 4066 3744 3513 
Q 3744 3084 3544 2831 
Q 3344 2578 2956 2516 
Q 3422 2416 3680 2098 
Q 3938 1781 3938 1306 
Q 3938 681 3513 340 
Q 3088 0 2303 0 
L 628 0 
L 628 4666 
z
" transform="scale(0.015625)"/>
      </defs>
      <use xlink:href="#DejaVuSans-42"/>
      <use xlink:href="#DejaVuSans-52" x="68.603516"/>
     </g>
    </g>
    <g id="line2d_51">
     <path d="M 316.084063 83.926688 
L 326.084063 83.926688 
L 336.084063 83.926688 
" style="fill: none; stroke-dasharray: 5.55,2.4; stroke-dashoffset: 0; stroke: #dc143c; stroke-width: 1.5"/>
    </g>
    <g id="text_23">
     <!-- Média Anual -->
     <g transform="translate(344.084063 87.426688) scale(0.1 -0.1)">
      <defs>
       <path id="DejaVuSans-4d" d="M 628 4666 
L 1569 4666 
L 2759 1491 
L 3956 4666 
L 4897 4666 
L 4897 0 
L 4281 0 
L 4281 4097 
L 3078 897 
L 2444 897 
L 1241 4097 
L 1241 0 
L 628 0 
L 628 4666 
z
" transform="scale(0.015625)"/>
       <path id="DejaVuSans-e9" d="M 3597 1894 
L 3597 1613 
L 953 1613 
Q 991 1019 1311 708 
Q 1631 397 2203 397 
Q 2534 397 2845 478 
Q 3156 559 3463 722 
L 3463 178 
Q 3153 47 2828 -22 
Q 2503 -91 2169 -91 
Q 1331 -91 842 396 
Q 353 884 353 1716 
Q 353 2575 817 3079 
Q 1281 3584 2069 3584 
Q 2775 3584 3186 3129 
Q 3597 2675 3597 1894 
z
M 3022 2063 
Q 3016 2534 2758 2815 
Q 2500 3097 2075 3097 
Q 1594 3097 1305 2825 
Q 1016 2553 972 2059 
L 3022 2063 
z
M 2466 5119 
L 3088 5119 
L 2070 3944 
L 1591 3944 
L 2466 5119 
z
" transform="scale(0.015625)"/>
       <path id="DejaVuSans-75" d="M 544 1381 
L 544 3500 
L 1119 3500 
L 1119 1403 
Q 1119 906 1312 657 
Q 1506 409 1894 409 
Q 2359 409 2629 706 
Q 2900 1003 2900 1516 
L 2900 3500 
L 3475 3500 
L 3475 0 
L 2900 0 
L 2900 538 
Q 2691 219 2414 64 
Q 2138 -91 1772 -91 
Q 1169 -91 856 284 
Q 544 659 544 1381 
z
M 1991 3584 
L 1991 3584 
z
" transform="scale(0.015625)"/>
      </defs>
      <use xlink:href="#DejaVuSans-4d"/>
      <use xlink:href="#DejaVuSans-e9" x="86.279297"/>
      <use xlink:href="#DejaVuSans-64" x="147.802734"/>
      <use xlink:href="#DejaVuSans-69" x="211.279297"/>
      <use xlink:href="#DejaVuSans-61" x="239.0625"/>
      <use xlink:href="#DejaVuSans-20" x="300.341797"/>
      <use xlink:href="#DejaVuSans-41" x="332.128906"/>
      <use xlink:href="#DejaVuSans-6e" x="400.537109"/>
      <use xlink:href="#DejaVuSans-75" x="463.916016"/>
      <use xlink:href="#DejaVuSans-61" x="527.294922"/>
      <use xlink:href="#DejaVuSans-6c" x="588.574219"/>
     </g>
    </g>
   </g>
  </g>
 </g>
 <defs>
  <clipPath id="p81734607df">
   <rect x="57.6" y="41.472" width="357.12" height="266.112"/>
  </clipPath>
 </defs>
</svg>
