<?xml version="1.0" encoding="utf-8" standalone="no"?>
<!DOCTYPE svg PUBLIC "-//W3C//DTD SVG 1.1//EN"
  "http://www.w3.org/Graphics/SVG/1.1/DTD/svg11.dtd">
<svg xmlns:xlink="http://www.w3.org/1999/xlink" width="460.8pt" height="345.6pt" viewBox="0 0 460.8 345.6" xmlns="http://www.w3.org/2000/svg" version="1.1">
 <metadata>
  <rdf:RDF xmlns:dc="http://purl.org/dc/elements/1.1/" xmlns:cc="http://creativecommons.org/ns#" xmlns:rdf="http://www.w3.org/1999/02/22-rdf-syntax-ns#">
   <cc:Work>
    <dc:type rdf:resource="http://purl.org/dc/dcmitype/StillImage"/>
    <dc:date>2024-09-12T08:29:48.171534</dc:date>
    <dc:format>image/svg+xml</dc:format>
    <dc:creator>
     <cc:Agent>
      <dc:title>Matplotlib v3.9.2, https://matplotlib.org/</dc:title>
     </cc:Agent>
    </dc:creator>
   </cc:Work>
  </rdf:RDF>
 </metadata>
 <defs>
  <style type="text/css">*{stroke-linejoin: round; stroke-linecap: butt}</style>
 </defs>
 <g id="figure_1">
  <g id="patch_1">
   <path d="M 0 345.6 
L 460.8 345.6 
L 460.8 0 
L 0 0 
z
" style="fill: #ffffff"/>
  </g>
  <g id="axes_1">
   <g id="patch_2">
    <path d="M 57.6 307.584 
L 414.72 307.584 
L 414.72 41.472 
L 57.6 41.472 
z
" style="fill: #ffffff"/>
   </g>
   <g id="matplotlib.axis_1">
    <g id="xtick_1">
     <g id="line2d_1">
      <defs>
       <path id="m2df7891715" d="M 0 0 
L 0 3.5 
" style="stroke: #000000; stroke-width: 0.8"/>
      </defs>
      <g>
       <use xlink:href="#m2df7891715" x="91.855375" y="307.584" style="stroke: #000000; stroke-width: 0.8"/>
      </g>
     </g>
     <g id="text_1">
      <!-- 2004 -->
      <g transform="translate(79.130375 322.182437) scale(0.1 -0.1)">
       <defs>
        <path id="DejaVuSans-32" d="M 1228 531 
L 3431 531 
L 3431 0 
L 469 0 
L 469 531 
Q 828 903 1448 1529 
Q 2069 2156 2228 2338 
Q 2531 2678 2651 2914 
Q 2772 3150 2772 3378 
Q 2772 3750 2511 3984 
Q 2250 4219 1831 4219 
Q 1534 4219 1204 4116 
Q 875 4013 500 3803 
L 500 4441 
Q 881 4594 1212 4672 
Q 1544 4750 1819 4750 
Q 2544 4750 2975 4387 
Q 3406 4025 3406 3419 
Q 3406 3131 3298 2873 
Q 3191 2616 2906 2266 
Q 2828 2175 2409 1742 
Q 1991 1309 1228 531 
z
" transform="scale(0.015625)"/>
        <path id="DejaVuSans-30" d="M 2034 4250 
Q 1547 4250 1301 3770 
Q 1056 3291 1056 2328 
Q 1056 1369 1301 889 
Q 1547 409 2034 409 
Q 2525 409 2770 889 
Q 3016 1369 3016 2328 
Q 3016 3291 2770 3770 
Q 2525 4250 2034 4250 
z
M 2034 4750 
Q 2819 4750 3233 4129 
Q 3647 3509 3647 2328 
Q 3647 1150 3233 529 
Q 2819 -91 2034 -91 
Q 1250 -91 836 529 
Q 422 1150 422 2328 
Q 422 3509 836 4129 
Q 1250 4750 2034 4750 
z
" transform="scale(0.015625)"/>
        <path id="DejaVuSans-34" d="M 2419 4116 
L 825 1625 
L 2419 1625 
L 2419 4116 
z
M 2253 4666 
L 3047 4666 
L 3047 1625 
L 3713 1625 
L 3713 1100 
L 3047 1100 
L 3047 0 
L 2419 0 
L 2419 1100 
L 313 1100 
L 313 1709 
L 2253 4666 
z
" transform="scale(0.015625)"/>
       </defs>
       <use xlink:href="#DejaVuSans-32"/>
       <use xlink:href="#DejaVuSans-30" x="63.623047"/>
       <use xlink:href="#DejaVuSans-30" x="127.246094"/>
       <use xlink:href="#DejaVuSans-34" x="190.869141"/>
      </g>
     </g>
    </g>
    <g id="xtick_2">
     <g id="line2d_2">
      <g>
       <use xlink:href="#m2df7891715" x="127.950048" y="307.584" style="stroke: #000000; stroke-width: 0.8"/>
      </g>
     </g>
     <g id="text_2">
      <!-- 2006 -->
      <g transform="translate(115.225048 322.182437) scale(0.1 -0.1)">
       <defs>
        <path id="DejaVuSans-36" d="M 2113 2584 
Q 1688 2584 1439 2293 
Q 1191 2003 1191 1497 
Q 1191 994 1439 701 
Q 1688 409 2113 409 
Q 2538 409 2786 701 
Q 3034 994 3034 1497 
Q 3034 2003 2786 2293 
Q 2538 2584 2113 2584 
z
M 3366 4563 
L 3366 3988 
Q 3128 4100 2886 4159 
Q 2644 4219 2406 4219 
Q 1781 4219 1451 3797 
Q 1122 3375 1075 2522 
Q 1259 2794 1537 2939 
Q 1816 3084 2150 3084 
Q 2853 3084 3261 2657 
Q 3669 2231 3669 1497 
Q 3669 778 3244 343 
Q 2819 -91 2113 -91 
Q 1303 -91 875 529 
Q 447 1150 447 2328 
Q 447 3434 972 4092 
Q 1497 4750 2381 4750 
Q 2619 4750 2861 4703 
Q 3103 4656 3366 4563 
z
" transform="scale(0.015625)"/>
       </defs>
       <use xlink:href="#DejaVuSans-32"/>
       <use xlink:href="#DejaVuSans-30" x="63.623047"/>
       <use xlink:href="#DejaVuSans-30" x="127.246094"/>
       <use xlink:href="#DejaVuSans-36" x="190.869141"/>
      </g>
     </g>
    </g>
    <g id="xtick_3">
     <g id="line2d_3">
      <g>
       <use xlink:href="#m2df7891715" x="163.995343" y="307.584" style="stroke: #000000; stroke-width: 0.8"/>
      </g>
     </g>
     <g id="text_3">
      <!-- 2008 -->
      <g transform="translate(151.270343 322.182437) scale(0.1 -0.1)">
       <defs>
        <path id="DejaVuSans-38" d="M 2034 2216 
Q 1584 2216 1326 1975 
Q 1069 1734 1069 1313 
Q 1069 891 1326 650 
Q 1584 409 2034 409 
Q 2484 409 2743 651 
Q 3003 894 3003 1313 
Q 3003 1734 2745 1975 
Q 2488 2216 2034 2216 
z
M 1403 2484 
Q 997 2584 770 2862 
Q 544 3141 544 3541 
Q 544 4100 942 4425 
Q 1341 4750 2034 4750 
Q 2731 4750 3128 4425 
Q 3525 4100 3525 3541 
Q 3525 3141 3298 2862 
Q 3072 2584 2669 2484 
Q 3125 2378 3379 2068 
Q 3634 1759 3634 1313 
Q 3634 634 3220 271 
Q 2806 -91 2034 -91 
Q 1263 -91 848 271 
Q 434 634 434 1313 
Q 434 1759 690 2068 
Q 947 2378 1403 2484 
z
M 1172 3481 
Q 1172 3119 1398 2916 
Q 1625 2713 2034 2713 
Q 2441 2713 2670 2916 
Q 2900 3119 2900 3481 
Q 2900 3844 2670 4047 
Q 2441 4250 2034 4250 
Q 1625 4250 1398 4047 
Q 1172 3844 1172 3481 
z
" transform="scale(0.015625)"/>
       </defs>
       <use xlink:href="#DejaVuSans-32"/>
       <use xlink:href="#DejaVuSans-30" x="63.623047"/>
       <use xlink:href="#DejaVuSans-30" x="127.246094"/>
       <use xlink:href="#DejaVuSans-38" x="190.869141"/>
      </g>
     </g>
    </g>
    <g id="xtick_4">
     <g id="line2d_4">
      <g>
       <use xlink:href="#m2df7891715" x="200.090016" y="307.584" style="stroke: #000000; stroke-width: 0.8"/>
      </g>
     </g>
     <g id="text_4">
      <!-- 2010 -->
      <g transform="translate(187.365016 322.182437) scale(0.1 -0.1)">
       <defs>
        <path id="DejaVuSans-31" d="M 794 531 
L 1825 531 
L 1825 4091 
L 703 3866 
L 703 4441 
L 1819 4666 
L 2450 4666 
L 2450 531 
L 3481 531 
L 3481 0 
L 794 0 
L 794 531 
z
" transform="scale(0.015625)"/>
       </defs>
       <use xlink:href="#DejaVuSans-32"/>
       <use xlink:href="#DejaVuSans-30" x="63.623047"/>
       <use xlink:href="#DejaVuSans-31" x="127.246094"/>
       <use xlink:href="#DejaVuSans-30" x="190.869141"/>
      </g>
     </g>
    </g>
    <g id="xtick_5">
     <g id="line2d_5">
      <g>
       <use xlink:href="#m2df7891715" x="236.135311" y="307.584" style="stroke: #000000; stroke-width: 0.8"/>
      </g>
     </g>
     <g id="text_5">
      <!-- 2012 -->
      <g transform="translate(223.410311 322.182437) scale(0.1 -0.1)">
       <use xlink:href="#DejaVuSans-32"/>
       <use xlink:href="#DejaVuSans-30" x="63.623047"/>
       <use xlink:href="#DejaVuSans-31" x="127.246094"/>
       <use xlink:href="#DejaVuSans-32" x="190.869141"/>
      </g>
     </g>
    </g>
    <g id="xtick_6">
     <g id="line2d_6">
      <g>
       <use xlink:href="#m2df7891715" x="272.229984" y="307.584" style="stroke: #000000; stroke-width: 0.8"/>
      </g>
     </g>
     <g id="text_6">
      <!-- 2014 -->
      <g transform="translate(259.504984 322.182437) scale(0.1 -0.1)">
       <use xlink:href="#DejaVuSans-32"/>
       <use xlink:href="#DejaVuSans-30" x="63.623047"/>
       <use xlink:href="#DejaVuSans-31" x="127.246094"/>
       <use xlink:href="#DejaVuSans-34" x="190.869141"/>
      </g>
     </g>
    </g>
    <g id="xtick_7">
     <g id="line2d_7">
      <g>
       <use xlink:href="#m2df7891715" x="308.27528" y="307.584" style="stroke: #000000; stroke-width: 0.8"/>
      </g>
     </g>
     <g id="text_7">
      <!-- 2016 -->
      <g transform="translate(295.55028 322.182437) scale(0.1 -0.1)">
       <use xlink:href="#DejaVuSans-32"/>
       <use xlink:href="#DejaVuSans-30" x="63.623047"/>
       <use xlink:href="#DejaVuSans-31" x="127.246094"/>
       <use xlink:href="#DejaVuSans-36" x="190.869141"/>
      </g>
     </g>
    </g>
    <g id="xtick_8">
     <g id="line2d_8">
      <g>
       <use xlink:href="#m2df7891715" x="344.369952" y="307.584" style="stroke: #000000; stroke-width: 0.8"/>
      </g>
     </g>
     <g id="text_8">
      <!-- 2018 -->
      <g transform="translate(331.644952 322.182437) scale(0.1 -0.1)">
       <use xlink:href="#DejaVuSans-32"/>
       <use xlink:href="#DejaVuSans-30" x="63.623047"/>
       <use xlink:href="#DejaVuSans-31" x="127.246094"/>
       <use xlink:href="#DejaVuSans-38" x="190.869141"/>
      </g>
     </g>
    </g>
    <g id="xtick_9">
     <g id="line2d_9">
      <g>
       <use xlink:href="#m2df7891715" x="380.415248" y="307.584" style="stroke: #000000; stroke-width: 0.8"/>
      </g>
     </g>
     <g id="text_9">
      <!-- 2020 -->
      <g transform="translate(367.690248 322.182437) scale(0.1 -0.1)">
       <use xlink:href="#DejaVuSans-32"/>
       <use xlink:href="#DejaVuSans-30" x="63.623047"/>
       <use xlink:href="#DejaVuSans-32" x="127.246094"/>
       <use xlink:href="#DejaVuSans-30" x="190.869141"/>
      </g>
     </g>
    </g>
    <g id="text_10">
     <!-- Ano -->
     <g transform="translate(226.511562 335.860562) scale(0.1 -0.1)">
      <defs>
       <path id="DejaVuSans-41" d="M 2188 4044 
L 1331 1722 
L 3047 1722 
L 2188 4044 
z
M 1831 4666 
L 2547 4666 
L 4325 0 
L 3669 0 
L 3244 1197 
L 1141 1197 
L 716 0 
L 50 0 
L 1831 4666 
z
" transform="scale(0.015625)"/>
       <path id="DejaVuSans-6e" d="M 3513 2113 
L 3513 0 
L 2938 0 
L 2938 2094 
Q 2938 2591 2744 2837 
Q 2550 3084 2163 3084 
Q 1697 3084 1428 2787 
Q 1159 2491 1159 1978 
L 1159 0 
L 581 0 
L 581 3500 
L 1159 3500 
L 1159 2956 
Q 1366 3272 1645 3428 
Q 1925 3584 2291 3584 
Q 2894 3584 3203 3211 
Q 3513 2838 3513 2113 
z
" transform="scale(0.015625)"/>
       <path id="DejaVuSans-6f" d="M 1959 3097 
Q 1497 3097 1228 2736 
Q 959 2375 959 1747 
Q 959 1119 1226 758 
Q 1494 397 1959 397 
Q 2419 397 2687 759 
Q 2956 1122 2956 1747 
Q 2956 2369 2687 2733 
Q 2419 3097 1959 3097 
z
M 1959 3584 
Q 2709 3584 3137 3096 
Q 3566 2609 3566 1747 
Q 3566 888 3137 398 
Q 2709 -91 1959 -91 
Q 1206 -91 779 398 
Q 353 888 353 1747 
Q 353 2609 779 3096 
Q 1206 3584 1959 3584 
z
" transform="scale(0.015625)"/>
      </defs>
      <use xlink:href="#DejaVuSans-41"/>
      <use xlink:href="#DejaVuSans-6e" x="68.408203"/>
      <use xlink:href="#DejaVuSans-6f" x="131.787109"/>
     </g>
    </g>
   </g>
   <g id="matplotlib.axis_2">
    <g id="ytick_1">
     <g id="line2d_10">
      <defs>
       <path id="m81b066e050" d="M 0 0 
L -3.5 0 
" style="stroke: #000000; stroke-width: 0.8"/>
      </defs>
      <g>
       <use xlink:href="#m81b066e050" x="57.6" y="307.584" style="stroke: #000000; stroke-width: 0.8"/>
      </g>
     </g>
     <g id="text_11">
      <!-- −0.15 -->
      <g transform="translate(19.954687 311.383219) scale(0.1 -0.1)">
       <defs>
        <path id="DejaVuSans-2212" d="M 678 2272 
L 4684 2272 
L 4684 1741 
L 678 1741 
L 678 2272 
z
" transform="scale(0.015625)"/>
        <path id="DejaVuSans-2e" d="M 684 794 
L 1344 794 
L 1344 0 
L 684 0 
L 684 794 
z
" transform="scale(0.015625)"/>
        <path id="DejaVuSans-35" d="M 691 4666 
L 3169 4666 
L 3169 4134 
L 1269 4134 
L 1269 2991 
Q 1406 3038 1543 3061 
Q 1681 3084 1819 3084 
Q 2600 3084 3056 2656 
Q 3513 2228 3513 1497 
Q 3513 744 3044 326 
Q 2575 -91 1722 -91 
Q 1428 -91 1123 -41 
Q 819 9 494 109 
L 494 744 
Q 775 591 1075 516 
Q 1375 441 1709 441 
Q 2250 441 2565 725 
Q 2881 1009 2881 1497 
Q 2881 1984 2565 2268 
Q 2250 2553 1709 2553 
Q 1456 2553 1204 2497 
Q 953 2441 691 2322 
L 691 4666 
z
" transform="scale(0.015625)"/>
       </defs>
       <use xlink:href="#DejaVuSans-2212"/>
       <use xlink:href="#DejaVuSans-30" x="83.789062"/>
       <use xlink:href="#DejaVuSans-2e" x="147.412109"/>
       <use xlink:href="#DejaVuSans-31" x="179.199219"/>
       <use xlink:href="#DejaVuSans-35" x="242.822266"/>
      </g>
     </g>
    </g>
    <g id="ytick_2">
     <g id="line2d_11">
      <g>
       <use xlink:href="#m81b066e050" x="57.6" y="269.568" style="stroke: #000000; stroke-width: 0.8"/>
      </g>
     </g>
     <g id="text_12">
      <!-- −0.10 -->
      <g transform="translate(19.954687 273.367219) scale(0.1 -0.1)">
       <use xlink:href="#DejaVuSans-2212"/>
       <use xlink:href="#DejaVuSans-30" x="83.789062"/>
       <use xlink:href="#DejaVuSans-2e" x="147.412109"/>
       <use xlink:href="#DejaVuSans-31" x="179.199219"/>
       <use xlink:href="#DejaVuSans-30" x="242.822266"/>
      </g>
     </g>
    </g>
    <g id="ytick_3">
     <g id="line2d_12">
      <g>
       <use xlink:href="#m81b066e050" x="57.6" y="231.552" style="stroke: #000000; stroke-width: 0.8"/>
      </g>
     </g>
     <g id="text_13">
      <!-- −0.05 -->
      <g transform="translate(19.954687 235.351219) scale(0.1 -0.1)">
       <use xlink:href="#DejaVuSans-2212"/>
       <use xlink:href="#DejaVuSans-30" x="83.789062"/>
       <use xlink:href="#DejaVuSans-2e" x="147.412109"/>
       <use xlink:href="#DejaVuSans-30" x="179.199219"/>
       <use xlink:href="#DejaVuSans-35" x="242.822266"/>
      </g>
     </g>
    </g>
    <g id="ytick_4">
     <g id="line2d_13">
      <g>
       <use xlink:href="#m81b066e050" x="57.6" y="193.536" style="stroke: #000000; stroke-width: 0.8"/>
      </g>
     </g>
     <g id="text_14">
      <!-- 0.00 -->
      <g transform="translate(28.334375 197.335219) scale(0.1 -0.1)">
       <use xlink:href="#DejaVuSans-30"/>
       <use xlink:href="#DejaVuSans-2e" x="63.623047"/>
       <use xlink:href="#DejaVuSans-30" x="95.410156"/>
       <use xlink:href="#DejaVuSans-30" x="159.033203"/>
      </g>
     </g>
    </g>
    <g id="ytick_5">
     <g id="line2d_14">
      <g>
       <use xlink:href="#m81b066e050" x="57.6" y="155.52" style="stroke: #000000; stroke-width: 0.8"/>
      </g>
     </g>
     <g id="text_15">
      <!-- 0.05 -->
      <g transform="translate(28.334375 159.319219) scale(0.1 -0.1)">
       <use xlink:href="#DejaVuSans-30"/>
       <use xlink:href="#DejaVuSans-2e" x="63.623047"/>
       <use xlink:href="#DejaVuSans-30" x="95.410156"/>
       <use xlink:href="#DejaVuSans-35" x="159.033203"/>
      </g>
     </g>
    </g>
    <g id="ytick_6">
     <g id="line2d_15">
      <g>
       <use xlink:href="#m81b066e050" x="57.6" y="117.504" style="stroke: #000000; stroke-width: 0.8"/>
      </g>
     </g>
     <g id="text_16">
      <!-- 0.10 -->
      <g transform="translate(28.334375 121.303219) scale(0.1 -0.1)">
       <use xlink:href="#DejaVuSans-30"/>
       <use xlink:href="#DejaVuSans-2e" x="63.623047"/>
       <use xlink:href="#DejaVuSans-31" x="95.410156"/>
       <use xlink:href="#DejaVuSans-30" x="159.033203"/>
      </g>
     </g>
    </g>
    <g id="ytick_7">
     <g id="line2d_16">
      <g>
       <use xlink:href="#m81b066e050" x="57.6" y="79.488" style="stroke: #000000; stroke-width: 0.8"/>
      </g>
     </g>
     <g id="text_17">
      <!-- 0.15 -->
      <g transform="translate(28.334375 83.287219) scale(0.1 -0.1)">
       <use xlink:href="#DejaVuSans-30"/>
       <use xlink:href="#DejaVuSans-2e" x="63.623047"/>
       <use xlink:href="#DejaVuSans-31" x="95.410156"/>
       <use xlink:href="#DejaVuSans-35" x="159.033203"/>
      </g>
     </g>
    </g>
    <g id="ytick_8">
     <g id="line2d_17">
      <g>
       <use xlink:href="#m81b066e050" x="57.6" y="41.472" style="stroke: #000000; stroke-width: 0.8"/>
      </g>
     </g>
     <g id="text_18">
      <!-- 0.20 -->
      <g transform="translate(28.334375 45.271219) scale(0.1 -0.1)">
       <use xlink:href="#DejaVuSans-30"/>
       <use xlink:href="#DejaVuSans-2e" x="63.623047"/>
       <use xlink:href="#DejaVuSans-32" x="95.410156"/>
       <use xlink:href="#DejaVuSans-30" x="159.033203"/>
      </g>
     </g>
    </g>
    <g id="text_19">
     <!-- Crescimento real -->
     <g transform="translate(13.875 216.978781) rotate(-90) scale(0.1 -0.1)">
      <defs>
       <path id="DejaVuSans-43" d="M 4122 4306 
L 4122 3641 
Q 3803 3938 3442 4084 
Q 3081 4231 2675 4231 
Q 1875 4231 1450 3742 
Q 1025 3253 1025 2328 
Q 1025 1406 1450 917 
Q 1875 428 2675 428 
Q 3081 428 3442 575 
Q 3803 722 4122 1019 
L 4122 359 
Q 3791 134 3420 21 
Q 3050 -91 2638 -91 
Q 1578 -91 968 557 
Q 359 1206 359 2328 
Q 359 3453 968 4101 
Q 1578 4750 2638 4750 
Q 3056 4750 3426 4639 
Q 3797 4528 4122 4306 
z
" transform="scale(0.015625)"/>
       <path id="DejaVuSans-72" d="M 2631 2963 
Q 2534 3019 2420 3045 
Q 2306 3072 2169 3072 
Q 1681 3072 1420 2755 
Q 1159 2438 1159 1844 
L 1159 0 
L 581 0 
L 581 3500 
L 1159 3500 
L 1159 2956 
Q 1341 3275 1631 3429 
Q 1922 3584 2338 3584 
Q 2397 3584 2469 3576 
Q 2541 3569 2628 3553 
L 2631 2963 
z
" transform="scale(0.015625)"/>
       <path id="DejaVuSans-65" d="M 3597 1894 
L 3597 1613 
L 953 1613 
Q 991 1019 1311 708 
Q 1631 397 2203 397 
Q 2534 397 2845 478 
Q 3156 559 3463 722 
L 3463 178 
Q 3153 47 2828 -22 
Q 2503 -91 2169 -91 
Q 1331 -91 842 396 
Q 353 884 353 1716 
Q 353 2575 817 3079 
Q 1281 3584 2069 3584 
Q 2775 3584 3186 3129 
Q 3597 2675 3597 1894 
z
M 3022 2063 
Q 3016 2534 2758 2815 
Q 2500 3097 2075 3097 
Q 1594 3097 1305 2825 
Q 1016 2553 972 2059 
L 3022 2063 
z
" transform="scale(0.015625)"/>
       <path id="DejaVuSans-73" d="M 2834 3397 
L 2834 2853 
Q 2591 2978 2328 3040 
Q 2066 3103 1784 3103 
Q 1356 3103 1142 2972 
Q 928 2841 928 2578 
Q 928 2378 1081 2264 
Q 1234 2150 1697 2047 
L 1894 2003 
Q 2506 1872 2764 1633 
Q 3022 1394 3022 966 
Q 3022 478 2636 193 
Q 2250 -91 1575 -91 
Q 1294 -91 989 -36 
Q 684 19 347 128 
L 347 722 
Q 666 556 975 473 
Q 1284 391 1588 391 
Q 1994 391 2212 530 
Q 2431 669 2431 922 
Q 2431 1156 2273 1281 
Q 2116 1406 1581 1522 
L 1381 1569 
Q 847 1681 609 1914 
Q 372 2147 372 2553 
Q 372 3047 722 3315 
Q 1072 3584 1716 3584 
Q 2034 3584 2315 3537 
Q 2597 3491 2834 3397 
z
" transform="scale(0.015625)"/>
       <path id="DejaVuSans-63" d="M 3122 3366 
L 3122 2828 
Q 2878 2963 2633 3030 
Q 2388 3097 2138 3097 
Q 1578 3097 1268 2742 
Q 959 2388 959 1747 
Q 959 1106 1268 751 
Q 1578 397 2138 397 
Q 2388 397 2633 464 
Q 2878 531 3122 666 
L 3122 134 
Q 2881 22 2623 -34 
Q 2366 -91 2075 -91 
Q 1284 -91 818 406 
Q 353 903 353 1747 
Q 353 2603 823 3093 
Q 1294 3584 2113 3584 
Q 2378 3584 2631 3529 
Q 2884 3475 3122 3366 
z
" transform="scale(0.015625)"/>
       <path id="DejaVuSans-69" d="M 603 3500 
L 1178 3500 
L 1178 0 
L 603 0 
L 603 3500 
z
M 603 4863 
L 1178 4863 
L 1178 4134 
L 603 4134 
L 603 4863 
z
" transform="scale(0.015625)"/>
       <path id="DejaVuSans-6d" d="M 3328 2828 
Q 3544 3216 3844 3400 
Q 4144 3584 4550 3584 
Q 5097 3584 5394 3201 
Q 5691 2819 5691 2113 
L 5691 0 
L 5113 0 
L 5113 2094 
Q 5113 2597 4934 2840 
Q 4756 3084 4391 3084 
Q 3944 3084 3684 2787 
Q 3425 2491 3425 1978 
L 3425 0 
L 2847 0 
L 2847 2094 
Q 2847 2600 2669 2842 
Q 2491 3084 2119 3084 
Q 1678 3084 1418 2786 
Q 1159 2488 1159 1978 
L 1159 0 
L 581 0 
L 581 3500 
L 1159 3500 
L 1159 2956 
Q 1356 3278 1631 3431 
Q 1906 3584 2284 3584 
Q 2666 3584 2933 3390 
Q 3200 3197 3328 2828 
z
" transform="scale(0.015625)"/>
       <path id="DejaVuSans-74" d="M 1172 4494 
L 1172 3500 
L 2356 3500 
L 2356 3053 
L 1172 3053 
L 1172 1153 
Q 1172 725 1289 603 
Q 1406 481 1766 481 
L 2356 481 
L 2356 0 
L 1766 0 
Q 1100 0 847 248 
Q 594 497 594 1153 
L 594 3053 
L 172 3053 
L 172 3500 
L 594 3500 
L 594 4494 
L 1172 4494 
z
" transform="scale(0.015625)"/>
       <path id="DejaVuSans-20" transform="scale(0.015625)"/>
       <path id="DejaVuSans-61" d="M 2194 1759 
Q 1497 1759 1228 1600 
Q 959 1441 959 1056 
Q 959 750 1161 570 
Q 1363 391 1709 391 
Q 2188 391 2477 730 
Q 2766 1069 2766 1631 
L 2766 1759 
L 2194 1759 
z
M 3341 1997 
L 3341 0 
L 2766 0 
L 2766 531 
Q 2569 213 2275 61 
Q 1981 -91 1556 -91 
Q 1019 -91 701 211 
Q 384 513 384 1019 
Q 384 1609 779 1909 
Q 1175 2209 1959 2209 
L 2766 2209 
L 2766 2266 
Q 2766 2663 2505 2880 
Q 2244 3097 1772 3097 
Q 1472 3097 1187 3025 
Q 903 2953 641 2809 
L 641 3341 
Q 956 3463 1253 3523 
Q 1550 3584 1831 3584 
Q 2591 3584 2966 3190 
Q 3341 2797 3341 1997 
z
" transform="scale(0.015625)"/>
       <path id="DejaVuSans-6c" d="M 603 4863 
L 1178 4863 
L 1178 0 
L 603 0 
L 603 4863 
z
" transform="scale(0.015625)"/>
      </defs>
      <use xlink:href="#DejaVuSans-43"/>
      <use xlink:href="#DejaVuSans-72" x="69.824219"/>
      <use xlink:href="#DejaVuSans-65" x="108.6875"/>
      <use xlink:href="#DejaVuSans-73" x="170.210938"/>
      <use xlink:href="#DejaVuSans-63" x="222.310547"/>
      <use xlink:href="#DejaVuSans-69" x="277.291016"/>
      <use xlink:href="#DejaVuSans-6d" x="305.074219"/>
      <use xlink:href="#DejaVuSans-65" x="402.486328"/>
      <use xlink:href="#DejaVuSans-6e" x="464.009766"/>
      <use xlink:href="#DejaVuSans-74" x="527.388672"/>
      <use xlink:href="#DejaVuSans-6f" x="566.597656"/>
      <use xlink:href="#DejaVuSans-20" x="627.779297"/>
      <use xlink:href="#DejaVuSans-72" x="659.566406"/>
      <use xlink:href="#DejaVuSans-65" x="698.429688"/>
      <use xlink:href="#DejaVuSans-61" x="759.953125"/>
      <use xlink:href="#DejaVuSans-6c" x="821.232422"/>
     </g>
    </g>
   </g>
   <g id="line2d_18">
    <path d="M 73.832727 128.244363 
L 91.855375 178.775812 
L 109.9274 165.271872 
L 127.950048 166.589467 
L 145.972695 126.438539 
L 163.995343 114.0342 
L 182.067368 187.221728 
L 200.090016 137.912825 
L 218.112664 101.042788 
L 236.135311 170.491949 
L 254.207336 126.519452 
L 272.229984 136.992675 
L 290.252632 267.427635 
L 308.27528 238.096008 
L 326.347305 220.406457 
L 344.369952 170.503711 
L 362.3926 186.549559 
L 380.415248 199.813078 
L 398.487273 121.155538 
" clip-path="url(#p18fc535a83)" style="fill: none; stroke: #dcdcdc; stroke-width: 1.5; stroke-linecap: square"/>
   </g>
   <g id="line2d_19">
    <path d="M 73.832727 200.210641 
L 90.951932 -1 
M 92.65034 -1 
L 109.9274 229.775798 
L 127.950048 146.725133 
L 145.917283 -1 
M 146.003832 -1 
L 163.995343 262.253661 
L 182.067368 27.070415 
L 200.090016 77.958831 
L 218.112664 164.131839 
L 236.135311 93.819818 
L 254.207336 148.453906 
L 272.229984 181.842975 
L 290.252632 245.431708 
L 308.27528 267.73314 
L 326.347305 222.761375 
L 344.369952 214.710686 
L 362.3926 179.061307 
L 380.415248 219.476389 
L 398.487273 112.542837 
" clip-path="url(#p18fc535a83)" style="fill: none; stroke: #dcdcdc; stroke-width: 1.5; stroke-linecap: square"/>
   </g>
   <g id="line2d_20">
    <path d="M 73.832727 223.618773 
L 91.855375 101.322795 
L 109.9274 207.18607 
L 127.950048 146.541039 
L 145.972695 162.505852 
L 163.995343 156.332587 
L 182.067368 190.238172 
L 200.090016 135.962165 
L 218.112664 216.719507 
L 236.135311 173.226928 
L 254.207336 115.3888 
L 272.229984 190.479797 
L 290.252632 235.518083 
L 308.27528 249.57609 
L 326.347305 215.173594 
L 344.369952 208.367458 
L 362.3926 180.647018 
L 380.415248 266.138868 
L 398.487273 117.782465 
" clip-path="url(#p18fc535a83)" style="fill: none; stroke: #dcdcdc; stroke-width: 1.5; stroke-linecap: square"/>
   </g>
   <g id="line2d_21">
    <path d="M 73.832727 189.742554 
L 91.855375 148.785979 
L 109.9274 218.248394 
L 127.950048 231.476745 
L 145.972695 181.035491 
L 163.995343 188.326499 
L 182.067368 221.380001 
L 200.090016 159.19259 
L 218.112664 116.176749 
L 236.135311 205.963106 
L 254.207336 194.98017 
L 272.229984 215.228146 
L 290.252632 222.471804 
L 308.27528 234.575761 
L 326.347305 240.397823 
L 344.369952 215.061933 
L 362.3926 198.951337 
L 380.415248 208.007523 
L 398.487273 133.066504 
" clip-path="url(#p18fc535a83)" style="fill: none; stroke: #dcdcdc; stroke-width: 1.5; stroke-linecap: square"/>
   </g>
   <g id="line2d_22">
    <path d="M 73.832727 128.824794 
L 91.855375 127.549001 
L 109.9274 244.342182 
L 127.950048 85.609871 
L 145.972695 159.148603 
L 163.995343 147.619878 
L 182.067368 133.039871 
L 200.090016 32.992231 
L 218.112664 94.370031 
L 236.135311 115.569047 
L 254.207336 139.197381 
L 272.229984 154.631117 
L 290.252632 227.423517 
L 308.27528 257.055502 
L 326.347305 227.597603 
L 344.369952 211.561514 
L 362.3926 210.328916 
L 380.415248 228.566821 
L 398.487273 120.769779 
" clip-path="url(#p18fc535a83)" style="fill: none; stroke: #dcdcdc; stroke-width: 1.5; stroke-linecap: square"/>
   </g>
   <g id="line2d_23">
    <path d="M 73.832727 282.370447 
L 91.855375 97.525697 
L 109.9274 183.021675 
L 127.950048 162.497761 
L 145.972695 126.851983 
L 163.995343 177.049487 
L 182.067368 192.41843 
L 200.090016 102.298833 
L 218.112664 140.969784 
L 236.135311 173.011918 
L 254.207336 184.71709 
L 272.229984 209.943892 
L 290.252632 260.822097 
L 308.27528 202.24061 
L 326.347305 182.616913 
L 344.369952 174.911744 
L 362.3926 190.040457 
L 380.415248 199.181687 
L 398.487273 213.520356 
" clip-path="url(#p18fc535a83)" style="fill: none; stroke: #dcdcdc; stroke-width: 1.5; stroke-linecap: square"/>
   </g>
   <g id="line2d_24">
    <path d="M 73.832727 238.439164 
L 91.855375 141.032365 
L 109.9274 173.319936 
L 127.950048 178.291927 
L 145.972695 136.312442 
L 163.995343 151.54671 
L 182.067368 194.239614 
L 200.090016 129.194611 
L 218.112664 79.556141 
L 236.135311 187.868011 
L 254.207336 253.71896 
L 272.229984 176.591675 
L 290.252632 255.894349 
L 308.27528 233.498827 
L 326.347305 241.182199 
L 344.369952 199.670131 
L 362.3926 215.221684 
L 380.415248 225.56943 
L 398.487273 135.720715 
" clip-path="url(#p18fc535a83)" style="fill: none; stroke: #dcdcdc; stroke-width: 1.5; stroke-linecap: square"/>
   </g>
   <g id="line2d_25">
    <path d="M 73.832727 206.727263 
L 91.855375 121.65519 
L 109.9274 171.351587 
L 127.950048 141.959499 
L 145.972695 134.846493 
L 163.995343 216.039938 
L 182.067368 145.830437 
L 200.090016 163.664388 
L 218.112664 87.420352 
L 236.135311 192.271478 
L 254.207336 256.798389 
L 272.229984 236.816886 
L 290.252632 267.384354 
L 308.27528 250.274874 
L 326.347305 282.739815 
L 344.369952 213.445375 
L 362.3926 145.882545 
L 380.415248 90.967389 
L 398.487273 128.541514 
" clip-path="url(#p18fc535a83)" style="fill: none; stroke: #dcdcdc; stroke-width: 1.5; stroke-linecap: square"/>
   </g>
   <g id="line2d_26">
    <path d="M 73.832727 141.822848 
L 91.855375 103.599285 
L 109.9274 169.308597 
L 127.950048 178.610148 
L 145.972695 152.243868 
L 163.995343 154.789237 
L 182.067368 220.540333 
L 200.090016 142.287841 
L 218.112664 183.906045 
L 236.135311 165.476952 
L 254.207336 189.038155 
L 272.229984 217.601349 
L 290.252632 253.405806 
L 308.27528 236.455409 
L 326.347305 215.45878 
L 344.369952 187.260974 
L 362.3926 192.626451 
L 380.415248 196.625913 
L 398.487273 205.511873 
" clip-path="url(#p18fc535a83)" style="fill: none; stroke: #dcdcdc; stroke-width: 1.5; stroke-linecap: square"/>
   </g>
   <g id="line2d_27">
    <path d="M 73.832727 208.886936 
L 89.016404 -1 
M 93.838453 -1 
L 109.9274 317.388423 
L 127.950048 141.643764 
L 145.972695 34.018432 
L 163.995343 157.940087 
L 182.067368 62.013986 
L 200.090016 40.471734 
L 218.112664 120.127986 
L 236.135311 185.172592 
L 254.207336 219.27658 
L 272.229984 185.066144 
L 290.252632 292.867173 
L 308.27528 284.686825 
L 326.347305 132.204455 
L 344.369952 156.890967 
L 362.3926 180.931779 
L 380.415248 235.521081 
L 398.487273 194.919553 
" clip-path="url(#p18fc535a83)" style="fill: none; stroke: #dcdcdc; stroke-width: 1.5; stroke-linecap: square"/>
   </g>
   <g id="line2d_28">
    <path d="M 73.832727 163.023802 
L 91.855375 153.59394 
L 109.9274 160.412297 
L 127.950048 177.746131 
L 145.972695 125.694969 
L 163.995343 181.240604 
L 182.067368 283.190426 
L 200.090016 88.703809 
L 218.112664 173.813754 
L 236.135311 193.827757 
L 254.207336 205.497052 
L 272.229984 215.485773 
L 290.252632 241.019008 
L 308.27528 237.371125 
L 326.347305 189.739038 
L 344.369952 195.765337 
L 362.3926 245.114811 
L 380.415248 230.301393 
L 398.487273 124.352681 
" clip-path="url(#p18fc535a83)" style="fill: none; stroke: #dcdcdc; stroke-width: 1.5; stroke-linecap: square"/>
   </g>
   <g id="line2d_29">
    <path d="M 73.832727 143.769283 
L 91.855375 173.592958 
L 109.9274 197.800002 
L 127.950048 115.66658 
L 145.972695 110.838838 
L 163.995343 86.678672 
L 182.067368 327.437158 
L 197.675485 -1 
M 206.134058 -1 
L 218.112664 99.696257 
L 236.135311 233.65159 
L 254.207336 206.350637 
L 272.229984 129.533455 
L 290.252632 172.412033 
L 308.27528 232.163863 
L 326.347305 195.540281 
L 344.369952 228.665129 
L 362.3926 314.806051 
L 380.415248 265.550291 
L 398.487273 161.744806 
" clip-path="url(#p18fc535a83)" style="fill: none; stroke: #dcdcdc; stroke-width: 1.5; stroke-linecap: square"/>
   </g>
   <g id="line2d_30">
    <path d="M 73.832727 211.428242 
L 91.855375 178.372138 
L 109.9274 169.59744 
L 127.950048 163.553831 
L 145.972695 186.798136 
L 163.995343 172.244127 
L 182.067368 179.546407 
L 200.090016 146.848999 
L 218.112664 195.953096 
L 236.135311 194.92962 
L 254.207336 211.483094 
L 272.229984 186.429863 
L 290.252632 202.152177 
L 308.27528 226.073207 
L 326.347305 217.261228 
L 344.369952 199.794883 
L 362.3926 157.874617 
L 380.415248 164.505922 
L 398.487273 143.123026 
" clip-path="url(#p18fc535a83)" style="fill: none; stroke: #dcdcdc; stroke-width: 1.5; stroke-linecap: square"/>
   </g>
   <g id="line2d_31">
    <path d="M 73.832727 206.918262 
L 91.855375 122.121484 
L 109.9274 169.987715 
L 127.950048 185.617218 
L 145.972695 144.339866 
L 163.995343 153.84685 
L 182.067368 244.358028 
L 200.090016 124.338144 
L 218.112664 167.231257 
L 236.135311 209.915053 
L 254.207336 162.200275 
L 272.229984 216.366365 
L 290.252632 249.309357 
L 308.27528 226.558141 
L 326.347305 195.73334 
L 344.369952 192.684484 
L 362.3926 194.761746 
L 380.415248 231.179139 
L 398.487273 167.434857 
" clip-path="url(#p18fc535a83)" style="fill: none; stroke: #dcdcdc; stroke-width: 1.5; stroke-linecap: square"/>
   </g>
   <g id="line2d_32">
    <path d="M 73.832727 181.968999 
L 91.855375 127.395899 
L 109.9274 196.633135 
L 127.950048 198.215803 
L 145.972695 139.73218 
L 163.995343 161.490242 
L 182.067368 214.951158 
L 200.090016 108.809551 
L 218.112664 128.853018 
L 236.135311 210.475219 
L 254.207336 159.069192 
L 272.229984 248.023055 
L 290.252632 245.212996 
L 308.27528 211.483775 
L 326.347305 195.216496 
L 344.369952 201.24577 
L 362.3926 176.751345 
L 380.415248 222.305118 
L 398.487273 136.546285 
" clip-path="url(#p18fc535a83)" style="fill: none; stroke: #dcdcdc; stroke-width: 1.5; stroke-linecap: square"/>
   </g>
   <g id="line2d_33">
    <path d="M 73.832727 203.82504 
L 91.855375 107.94275 
L 109.9274 203.687561 
L 127.950048 191.848174 
L 145.972695 133.359696 
L 163.995343 210.671612 
L 182.067368 225.798893 
L 200.090016 134.252263 
L 218.112664 173.40094 
L 236.135311 200.07118 
L 254.207336 168.763085 
L 272.229984 206.636221 
L 290.252632 236.610242 
L 308.27528 218.472774 
L 326.347305 183.216333 
L 344.369952 168.556582 
L 362.3926 178.632623 
L 380.415248 236.029961 
L 398.487273 129.732174 
" clip-path="url(#p18fc535a83)" style="fill: none; stroke: #dcdcdc; stroke-width: 1.5; stroke-linecap: square"/>
   </g>
   <g id="line2d_34">
    <path d="M 73.832727 190.444407 
L 91.855375 137.842585 
L 109.9274 214.005983 
L 127.950048 206.840479 
L 145.972695 142.839963 
L 163.995343 167.334412 
L 182.067368 254.123892 
L 200.090016 131.1614 
L 218.112664 160.864163 
L 236.135311 229.702381 
L 254.207336 137.581008 
L 272.229984 224.215022 
L 290.252632 275.281227 
L 308.27528 223.253803 
L 326.347305 206.934357 
L 344.369952 171.965638 
L 362.3926 192.02269 
L 380.415248 240.069608 
L 398.487273 131.653998 
" clip-path="url(#p18fc535a83)" style="fill: none; stroke: #dcdcdc; stroke-width: 1.5; stroke-linecap: square"/>
   </g>
   <g id="line2d_35">
    <path d="M 73.832727 156.513841 
L 91.855375 142.646245 
L 109.9274 179.9718 
L 127.950048 138.316406 
L 145.972695 147.888953 
L 163.995343 108.929219 
L 182.067368 153.053143 
L 200.090016 61.412955 
L 218.112664 148.557983 
L 236.135311 142.496137 
L 254.207336 139.89254 
L 272.229984 198.952498 
L 290.252632 226.762546 
L 308.27528 191.688875 
L 326.347305 182.327784 
L 344.369952 155.393038 
L 362.3926 194.531885 
L 380.415248 193.275428 
L 398.487273 186.234579 
" clip-path="url(#p18fc535a83)" style="fill: none; stroke: #dcdcdc; stroke-width: 1.5; stroke-linecap: square"/>
   </g>
   <g id="line2d_36">
    <path d="M 73.832727 331.508976 
L 84.3357 -1 
M 99.217943 -1 
L 109.9274 345.280691 
L 127.950048 58.017694 
L 145.972695 138.009684 
L 163.995343 105.149739 
L 182.067368 93.594162 
L 200.090016 235.577393 
L 218.112664 160.401055 
L 236.135311 160.925886 
L 254.207336 201.001928 
L 272.229984 147.978731 
L 290.252632 251.469025 
L 308.27528 223.922706 
L 326.347305 244.109782 
L 344.369952 224.020249 
L 362.3926 215.47737 
L 380.415248 249.052465 
L 398.487273 122.68733 
" clip-path="url(#p18fc535a83)" style="fill: none; stroke: #dcdcdc; stroke-width: 1.5; stroke-linecap: square"/>
   </g>
   <g id="line2d_37">
    <path d="M 73.832727 160.488892 
L 91.855375 97.867461 
L 109.9274 180.913063 
L 127.950048 163.637212 
L 145.972695 71.040946 
L 163.995343 164.47035 
L 182.067368 148.4059 
L 200.090016 148.933178 
L 218.112664 186.434928 
L 236.135311 127.043921 
L 254.207336 154.081569 
L 272.229984 179.031445 
L 290.252632 230.809838 
L 308.27528 227.254814 
L 326.347305 178.300924 
L 344.369952 161.435331 
L 362.3926 183.819038 
L 380.415248 227.448882 
L 398.487273 193.148098 
" clip-path="url(#p18fc535a83)" style="fill: none; stroke: #dcdcdc; stroke-width: 1.5; stroke-linecap: square"/>
   </g>
   <g id="line2d_38">
    <path d="M 73.832727 135.274346 
L 91.855375 109.658723 
L 109.9274 187.573326 
L 127.950048 180.442425 
L 145.972695 142.788424 
L 163.995343 160.128704 
L 182.067368 211.916768 
L 200.090016 87.145236 
L 218.112664 136.095886 
L 236.135311 183.733975 
L 254.207336 164.623956 
L 272.229984 176.593219 
L 290.252632 229.707665 
L 308.27528 227.64016 
L 326.347305 198.264382 
L 344.369952 202.407323 
L 362.3926 171.77631 
L 380.415248 190.488594 
L 398.487273 200.816764 
" clip-path="url(#p18fc535a83)" style="fill: none; stroke: #dcdcdc; stroke-width: 1.5; stroke-linecap: square"/>
   </g>
   <g id="line2d_39">
    <path d="M 73.832727 284.819773 
L 91.855375 150.412167 
L 109.9274 185.398186 
L 127.950048 199.751981 
L 145.972695 99.738637 
L 163.995343 130.245494 
L 182.067368 143.215258 
L 200.090016 119.789251 
L 218.112664 126.020483 
L 236.135311 180.930159 
L 254.207336 163.8546 
L 272.229984 245.541744 
L 290.252632 250.543243 
L 308.27528 229.125228 
L 326.347305 258.183372 
L 344.369952 173.153766 
L 362.3926 162.218657 
L 380.415248 199.742024 
L 398.487273 106.37971 
" clip-path="url(#p18fc535a83)" style="fill: none; stroke: #dcdcdc; stroke-width: 1.5; stroke-linecap: square"/>
   </g>
   <g id="line2d_40">
    <path d="M 73.832727 192.748109 
L 91.855375 131.076557 
L 109.9274 178.372296 
L 127.950048 178.280526 
L 145.972695 146.345471 
L 163.995343 162.365877 
L 182.067368 229.288447 
L 200.090016 115.959976 
L 218.112664 162.253963 
L 236.135311 199.031778 
L 254.207336 177.065808 
L 272.229984 205.003023 
L 290.252632 237.341862 
L 308.27528 228.254481 
L 326.347305 197.34315 
L 344.369952 188.084649 
L 362.3926 198.630429 
L 380.415248 216.124429 
L 398.487273 155.251515 
" clip-path="url(#p18fc535a83)" style="fill: none; stroke: #dcdcdc; stroke-width: 1.5; stroke-linecap: square"/>
   </g>
   <g id="line2d_41">
    <path d="M 73.832727 149.495137 
L 91.855375 84.155116 
L 109.9274 125.394811 
L 127.950048 191.648404 
L 145.972695 130.286152 
L 163.995343 185.251092 
L 182.067368 226.725964 
L 200.090016 85.647772 
L 218.112664 117.627021 
L 236.135311 196.60374 
L 254.207336 158.92524 
L 272.229984 235.072664 
L 290.252632 268.016785 
L 308.27528 274.958553 
L 326.347305 136.634627 
L 344.369952 131.380226 
L 362.3926 183.230146 
L 380.415248 188.399261 
L 398.487273 154.009296 
" clip-path="url(#p18fc535a83)" style="fill: none; stroke: #dcdcdc; stroke-width: 1.5; stroke-linecap: square"/>
   </g>
   <g id="line2d_42">
    <path d="M 73.832727 247.51116 
L 91.855375 141.283826 
L 109.9274 135.745482 
L 127.950048 34.988351 
L 145.646205 346.6 
M 146.412109 346.6 
L 163.995343 116.545385 
L 182.067368 66.764385 
L 200.090016 146.99231 
L 218.112664 203.119263 
L 236.135311 142.709696 
L 254.207336 128.481129 
L 272.229984 219.193151 
L 290.252632 235.789744 
L 308.27528 199.866667 
L 326.347305 214.877631 
L 344.369952 151.916912 
L 362.3926 167.692844 
L 380.415248 174.258431 
L 398.487273 111.688845 
" clip-path="url(#p18fc535a83)" style="fill: none; stroke: #dcdcdc; stroke-width: 1.5; stroke-linecap: square"/>
   </g>
   <g id="line2d_43">
    <path d="M 73.832727 121.389022 
L 91.855375 95.948949 
L 109.9274 175.887268 
L 127.950048 128.050296 
L 145.972695 187.612636 
L 163.995343 128.289685 
L 182.067368 260.326631 
L 200.090016 90.144299 
L 218.112664 148.247595 
L 236.135311 193.469179 
L 254.207336 182.323791 
L 272.229984 139.37252 
L 290.252632 190.923127 
L 308.27528 236.304372 
L 326.347305 159.880748 
L 344.369952 149.095171 
L 362.3926 293.840234 
L 380.415248 184.572249 
L 398.487273 184.282271 
" clip-path="url(#p18fc535a83)" style="fill: none; stroke: #dcdcdc; stroke-width: 1.5; stroke-linecap: square"/>
   </g>
   <g id="line2d_44">
    <path d="M 73.832727 160.476733 
L 91.855375 183.561264 
L 109.9274 55.407693 
L 127.950048 97.832503 
L 145.972695 242.415161 
L 163.995343 135.522024 
L 182.067368 261.180286 
L 200.090016 108.057961 
L 216.744829 -1 
M 237.271736 -1 
L 254.207336 155.938953 
L 272.229984 212.886115 
L 290.252632 316.757135 
L 308.27528 244.172862 
L 326.347305 156.41856 
L 344.369952 156.345709 
L 362.3926 181.028438 
L 380.415248 234.977332 
L 398.487273 170.660689 
" clip-path="url(#p18fc535a83)" style="fill: none; stroke: #dcdcdc; stroke-width: 1.5; stroke-linecap: square"/>
   </g>
   <g id="line2d_45">
    <path d="M 73.832727 120.485402 
L 91.855375 62.439489 
L 109.9274 210.644532 
L 127.950048 157.300395 
L 145.972695 112.588297 
L 163.995343 105.096808 
L 182.067368 181.720292 
L 197.539944 -1 
M 202.897259 -1 
L 218.112664 162.222505 
L 236.135311 147.049848 
L 254.207336 167.64581 
L 272.229984 159.081961 
L 290.252632 222.57899 
L 308.27528 210.502316 
L 326.347305 224.292254 
L 344.369952 203.990208 
L 362.3926 225.62902 
L 380.415248 203.771064 
L 398.487273 131.632137 
" clip-path="url(#p18fc535a83)" style="fill: none; stroke: #dcdcdc; stroke-width: 1.5; stroke-linecap: square"/>
   </g>
   <g id="line2d_46">
    <path d="M 73.832727 206.918262 
L 91.855375 122.121484 
L 109.9274 169.987715 
L 127.950048 185.617218 
L 145.972695 144.339866 
L 163.995343 153.84685 
L 182.067368 244.358028 
L 200.090016 124.338144 
L 218.112664 167.231257 
L 236.135311 209.915053 
L 254.207336 162.200275 
L 272.229984 216.366365 
L 290.252632 249.309357 
L 308.27528 226.558141 
L 326.347305 195.73334 
L 344.369952 192.684484 
L 362.3926 194.761746 
L 380.415248 231.179139 
L 398.487273 167.434857 
" clip-path="url(#p18fc535a83)" style="fill: none; stroke: #dcdcdc; stroke-width: 1.5; stroke-linecap: square"/>
   </g>
   <g id="line2d_47">
    <path d="M 73.832727 189.564041 
L 91.855375 103.635437 
L 109.9274 191.613167 
L 127.950048 154.422935 
L 145.972695 141.491401 
L 163.995343 155.521011 
L 182.067368 187.048212 
L 200.090016 105.808434 
L 218.112664 140.111247 
L 236.135311 170.328745 
L 254.207336 173.91862 
L 272.229984 194.281054 
L 290.252632 243.481543 
L 308.27528 233.148381 
L 326.347305 204.350746 
L 344.369952 185.933343 
L 362.3926 197.016625 
L 380.415248 211.325753 
L 398.487273 149.616988 
" clip-path="url(#p18fc535a83)" style="fill: none; stroke-dasharray: 5.55,2.4; stroke-dashoffset: 0; stroke: #dc143c; stroke-width: 1.5"/>
   </g>
   <g id="line2d_48">
    <path d="M 73.832727 192.748109 
L 91.855375 131.076557 
L 109.9274 178.372296 
L 127.950048 178.280526 
L 145.972695 146.345471 
L 163.995343 162.365877 
L 182.067368 229.288447 
L 200.090016 115.959976 
L 218.112664 162.253963 
L 236.135311 199.031778 
L 254.207336 177.065808 
L 272.229984 205.003023 
L 290.252632 237.341862 
L 308.27528 228.254481 
L 326.347305 197.34315 
L 344.369952 188.084649 
L 362.3926 198.630429 
L 380.415248 216.124429 
L 398.487273 155.251515 
" clip-path="url(#p18fc535a83)" style="fill: none; stroke: #ffd700; stroke-width: 1.5; stroke-linecap: square"/>
   </g>
   <g id="line2d_49">
    <path d="M 73.832727 211.428242 
L 91.855375 178.372138 
L 109.9274 169.59744 
L 127.950048 163.553831 
L 145.972695 186.798136 
L 163.995343 172.244127 
L 182.067368 179.546407 
L 200.090016 146.848999 
L 218.112664 195.953096 
L 236.135311 194.92962 
L 254.207336 211.483094 
L 272.229984 186.429863 
L 290.252632 202.152177 
L 308.27528 226.073207 
L 326.347305 217.261228 
L 344.369952 199.794883 
L 362.3926 157.874617 
L 380.415248 164.505922 
L 398.487273 143.123026 
" clip-path="url(#p18fc535a83)" style="fill: none; stroke: #008080; stroke-width: 1.5; stroke-linecap: square"/>
   </g>
   <g id="patch_3">
    <path d="M 57.6 307.584 
L 57.6 41.472 
" style="fill: none; stroke: #000000; stroke-width: 0.8; stroke-linejoin: miter; stroke-linecap: square"/>
   </g>
   <g id="patch_4">
    <path d="M 414.72 307.584 
L 414.72 41.472 
" style="fill: none; stroke: #000000; stroke-width: 0.8; stroke-linejoin: miter; stroke-linecap: square"/>
   </g>
   <g id="patch_5">
    <path d="M 57.6 307.584 
L 414.72 307.584 
" style="fill: none; stroke: #000000; stroke-width: 0.8; stroke-linejoin: miter; stroke-linecap: square"/>
   </g>
   <g id="patch_6">
    <path d="M 57.6 41.472 
L 414.72 41.472 
" style="fill: none; stroke: #000000; stroke-width: 0.8; stroke-linejoin: miter; stroke-linecap: square"/>
   </g>
   <g id="text_20">
    <!-- Taxa de Crescimento da Indústria (total) -->
    <g transform="translate(115.51875 35.472) scale(0.12 -0.12)">
     <defs>
      <path id="DejaVuSans-54" d="M -19 4666 
L 3928 4666 
L 3928 4134 
L 2272 4134 
L 2272 0 
L 1638 0 
L 1638 4134 
L -19 4134 
L -19 4666 
z
" transform="scale(0.015625)"/>
      <path id="DejaVuSans-78" d="M 3513 3500 
L 2247 1797 
L 3578 0 
L 2900 0 
L 1881 1375 
L 863 0 
L 184 0 
L 1544 1831 
L 300 3500 
L 978 3500 
L 1906 2253 
L 2834 3500 
L 3513 3500 
z
" transform="scale(0.015625)"/>
      <path id="DejaVuSans-64" d="M 2906 2969 
L 2906 4863 
L 3481 4863 
L 3481 0 
L 2906 0 
L 2906 525 
Q 2725 213 2448 61 
Q 2172 -91 1784 -91 
Q 1150 -91 751 415 
Q 353 922 353 1747 
Q 353 2572 751 3078 
Q 1150 3584 1784 3584 
Q 2172 3584 2448 3432 
Q 2725 3281 2906 2969 
z
M 947 1747 
Q 947 1113 1208 752 
Q 1469 391 1925 391 
Q 2381 391 2643 752 
Q 2906 1113 2906 1747 
Q 2906 2381 2643 2742 
Q 2381 3103 1925 3103 
Q 1469 3103 1208 2742 
Q 947 2381 947 1747 
z
" transform="scale(0.015625)"/>
      <path id="DejaVuSans-49" d="M 628 4666 
L 1259 4666 
L 1259 0 
L 628 0 
L 628 4666 
z
" transform="scale(0.015625)"/>
      <path id="DejaVuSans-fa" d="M 544 1381 
L 544 3500 
L 1119 3500 
L 1119 1403 
Q 1119 906 1312 657 
Q 1506 409 1894 409 
Q 2359 409 2629 706 
Q 2900 1003 2900 1516 
L 2900 3500 
L 3475 3500 
L 3475 0 
L 2900 0 
L 2900 538 
Q 2691 219 2414 64 
Q 2138 -91 1772 -91 
Q 1169 -91 856 284 
Q 544 659 544 1381 
z
M 1991 3584 
L 1991 3584 
z
M 2418 5119 
L 3040 5119 
L 2022 3944 
L 1543 3944 
L 2418 5119 
z
" transform="scale(0.015625)"/>
      <path id="DejaVuSans-28" d="M 1984 4856 
Q 1566 4138 1362 3434 
Q 1159 2731 1159 2009 
Q 1159 1288 1364 580 
Q 1569 -128 1984 -844 
L 1484 -844 
Q 1016 -109 783 600 
Q 550 1309 550 2009 
Q 550 2706 781 3412 
Q 1013 4119 1484 4856 
L 1984 4856 
z
" transform="scale(0.015625)"/>
      <path id="DejaVuSans-29" d="M 513 4856 
L 1013 4856 
Q 1481 4119 1714 3412 
Q 1947 2706 1947 2009 
Q 1947 1309 1714 600 
Q 1481 -109 1013 -844 
L 513 -844 
Q 928 -128 1133 580 
Q 1338 1288 1338 2009 
Q 1338 2731 1133 3434 
Q 928 4138 513 4856 
z
" transform="scale(0.015625)"/>
     </defs>
     <use xlink:href="#DejaVuSans-54"/>
     <use xlink:href="#DejaVuSans-61" x="44.583984"/>
     <use xlink:href="#DejaVuSans-78" x="105.863281"/>
     <use xlink:href="#DejaVuSans-61" x="165.042969"/>
     <use xlink:href="#DejaVuSans-20" x="226.322266"/>
     <use xlink:href="#DejaVuSans-64" x="258.109375"/>
     <use xlink:href="#DejaVuSans-65" x="321.585938"/>
     <use xlink:href="#DejaVuSans-20" x="383.109375"/>
     <use xlink:href="#DejaVuSans-43" x="414.896484"/>
     <use xlink:href="#DejaVuSans-72" x="484.720703"/>
     <use xlink:href="#DejaVuSans-65" x="523.583984"/>
     <use xlink:href="#DejaVuSans-73" x="585.107422"/>
     <use xlink:href="#DejaVuSans-63" x="637.207031"/>
     <use xlink:href="#DejaVuSans-69" x="692.1875"/>
     <use xlink:href="#DejaVuSans-6d" x="719.970703"/>
     <use xlink:href="#DejaVuSans-65" x="817.382812"/>
     <use xlink:href="#DejaVuSans-6e" x="878.90625"/>
     <use xlink:href="#DejaVuSans-74" x="942.285156"/>
     <use xlink:href="#DejaVuSans-6f" x="981.494141"/>
     <use xlink:href="#DejaVuSans-20" x="1042.675781"/>
     <use xlink:href="#DejaVuSans-64" x="1074.462891"/>
     <use xlink:href="#DejaVuSans-61" x="1137.939453"/>
     <use xlink:href="#DejaVuSans-20" x="1199.21875"/>
     <use xlink:href="#DejaVuSans-49" x="1231.005859"/>
     <use xlink:href="#DejaVuSans-6e" x="1260.498047"/>
     <use xlink:href="#DejaVuSans-64" x="1323.876953"/>
     <use xlink:href="#DejaVuSans-fa" x="1387.353516"/>
     <use xlink:href="#DejaVuSans-73" x="1450.732422"/>
     <use xlink:href="#DejaVuSans-74" x="1502.832031"/>
     <use xlink:href="#DejaVuSans-72" x="1542.041016"/>
     <use xlink:href="#DejaVuSans-69" x="1583.154297"/>
     <use xlink:href="#DejaVuSans-61" x="1610.9375"/>
     <use xlink:href="#DejaVuSans-20" x="1672.216797"/>
     <use xlink:href="#DejaVuSans-28" x="1704.003906"/>
     <use xlink:href="#DejaVuSans-74" x="1743.017578"/>
     <use xlink:href="#DejaVuSans-6f" x="1782.226562"/>
     <use xlink:href="#DejaVuSans-74" x="1843.408203"/>
     <use xlink:href="#DejaVuSans-61" x="1882.617188"/>
     <use xlink:href="#DejaVuSans-6c" x="1943.896484"/>
     <use xlink:href="#DejaVuSans-29" x="1971.679688"/>
    </g>
   </g>
   <g id="legend_1">
    <g id="patch_7">
     <path d="M 301.86375 108.1845 
L 407.72 108.1845 
Q 409.72 108.1845 409.72 106.1845 
L 409.72 48.472 
Q 409.72 46.472 407.72 46.472 
L 301.86375 46.472 
Q 299.86375 46.472 299.86375 48.472 
L 299.86375 106.1845 
Q 299.86375 108.1845 301.86375 108.1845 
z
" style="fill: #ffffff; opacity: 0.8; stroke: #cccccc; stroke-linejoin: miter"/>
    </g>
    <g id="line2d_50">
     <path d="M 303.86375 54.570438 
L 313.86375 54.570438 
L 323.86375 54.570438 
" style="fill: none; stroke: #dcdcdc; stroke-width: 1.5; stroke-linecap: square"/>
    </g>
    <g id="text_21">
     <!-- outros estados -->
     <g transform="translate(331.86375 58.070438) scale(0.1 -0.1)">
      <defs>
       <path id="DejaVuSans-75" d="M 544 1381 
L 544 3500 
L 1119 3500 
L 1119 1403 
Q 1119 906 1312 657 
Q 1506 409 1894 409 
Q 2359 409 2629 706 
Q 2900 1003 2900 1516 
L 2900 3500 
L 3475 3500 
L 3475 0 
L 2900 0 
L 2900 538 
Q 2691 219 2414 64 
Q 2138 -91 1772 -91 
Q 1169 -91 856 284 
Q 544 659 544 1381 
z
M 1991 3584 
L 1991 3584 
z
" transform="scale(0.015625)"/>
      </defs>
      <use xlink:href="#DejaVuSans-6f"/>
      <use xlink:href="#DejaVuSans-75" x="61.181641"/>
      <use xlink:href="#DejaVuSans-74" x="124.560547"/>
      <use xlink:href="#DejaVuSans-72" x="163.769531"/>
      <use xlink:href="#DejaVuSans-6f" x="202.632812"/>
      <use xlink:href="#DejaVuSans-73" x="263.814453"/>
      <use xlink:href="#DejaVuSans-20" x="315.914062"/>
      <use xlink:href="#DejaVuSans-65" x="347.701172"/>
      <use xlink:href="#DejaVuSans-73" x="409.224609"/>
      <use xlink:href="#DejaVuSans-74" x="461.324219"/>
      <use xlink:href="#DejaVuSans-61" x="500.533203"/>
      <use xlink:href="#DejaVuSans-64" x="561.8125"/>
      <use xlink:href="#DejaVuSans-6f" x="625.289062"/>
      <use xlink:href="#DejaVuSans-73" x="686.470703"/>
     </g>
    </g>
    <g id="line2d_51">
     <path d="M 303.86375 69.248563 
L 313.86375 69.248563 
L 323.86375 69.248563 
" style="fill: none; stroke-dasharray: 5.55,2.4; stroke-dashoffset: 0; stroke: #dc143c; stroke-width: 1.5"/>
    </g>
    <g id="text_22">
     <!-- Média estados -->
     <g transform="translate(331.86375 72.748563) scale(0.1 -0.1)">
      <defs>
       <path id="DejaVuSans-4d" d="M 628 4666 
L 1569 4666 
L 2759 1491 
L 3956 4666 
L 4897 4666 
L 4897 0 
L 4281 0 
L 4281 4097 
L 3078 897 
L 2444 897 
L 1241 4097 
L 1241 0 
L 628 0 
L 628 4666 
z
" transform="scale(0.015625)"/>
       <path id="DejaVuSans-e9" d="M 3597 1894 
L 3597 1613 
L 953 1613 
Q 991 1019 1311 708 
Q 1631 397 2203 397 
Q 2534 397 2845 478 
Q 3156 559 3463 722 
L 3463 178 
Q 3153 47 2828 -22 
Q 2503 -91 2169 -91 
Q 1331 -91 842 396 
Q 353 884 353 1716 
Q 353 2575 817 3079 
Q 1281 3584 2069 3584 
Q 2775 3584 3186 3129 
Q 3597 2675 3597 1894 
z
M 3022 2063 
Q 3016 2534 2758 2815 
Q 2500 3097 2075 3097 
Q 1594 3097 1305 2825 
Q 1016 2553 972 2059 
L 3022 2063 
z
M 2466 5119 
L 3088 5119 
L 2070 3944 
L 1591 3944 
L 2466 5119 
z
" transform="scale(0.015625)"/>
      </defs>
      <use xlink:href="#DejaVuSans-4d"/>
      <use xlink:href="#DejaVuSans-e9" x="86.279297"/>
      <use xlink:href="#DejaVuSans-64" x="147.802734"/>
      <use xlink:href="#DejaVuSans-69" x="211.279297"/>
      <use xlink:href="#DejaVuSans-61" x="239.0625"/>
      <use xlink:href="#DejaVuSans-20" x="300.341797"/>
      <use xlink:href="#DejaVuSans-65" x="332.128906"/>
      <use xlink:href="#DejaVuSans-73" x="393.652344"/>
      <use xlink:href="#DejaVuSans-74" x="445.751953"/>
      <use xlink:href="#DejaVuSans-61" x="484.960938"/>
      <use xlink:href="#DejaVuSans-64" x="546.240234"/>
      <use xlink:href="#DejaVuSans-6f" x="609.716797"/>
      <use xlink:href="#DejaVuSans-73" x="670.898438"/>
     </g>
    </g>
    <g id="line2d_52">
     <path d="M 303.86375 83.926688 
L 313.86375 83.926688 
L 323.86375 83.926688 
" style="fill: none; stroke: #ffd700; stroke-width: 1.5; stroke-linecap: square"/>
    </g>
    <g id="text_23">
     <!-- BR -->
     <g transform="translate(331.86375 87.426688) scale(0.1 -0.1)">
      <defs>
       <path id="DejaVuSans-42" d="M 1259 2228 
L 1259 519 
L 2272 519 
Q 2781 519 3026 730 
Q 3272 941 3272 1375 
Q 3272 1813 3026 2020 
Q 2781 2228 2272 2228 
L 1259 2228 
z
M 1259 4147 
L 1259 2741 
L 2194 2741 
Q 2656 2741 2882 2914 
Q 3109 3088 3109 3444 
Q 3109 3797 2882 3972 
Q 2656 4147 2194 4147 
L 1259 4147 
z
M 628 4666 
L 2241 4666 
Q 2963 4666 3353 4366 
Q 3744 4066 3744 3513 
Q 3744 3084 3544 2831 
Q 3344 2578 2956 2516 
Q 3422 2416 3680 2098 
Q 3938 1781 3938 1306 
Q 3938 681 3513 340 
Q 3088 0 2303 0 
L 628 0 
L 628 4666 
z
" transform="scale(0.015625)"/>
       <path id="DejaVuSans-52" d="M 2841 2188 
Q 3044 2119 3236 1894 
Q 3428 1669 3622 1275 
L 4263 0 
L 3584 0 
L 2988 1197 
Q 2756 1666 2539 1819 
Q 2322 1972 1947 1972 
L 1259 1972 
L 1259 0 
L 628 0 
L 628 4666 
L 2053 4666 
Q 2853 4666 3247 4331 
Q 3641 3997 3641 3322 
Q 3641 2881 3436 2590 
Q 3231 2300 2841 2188 
z
M 1259 4147 
L 1259 2491 
L 2053 2491 
Q 2509 2491 2742 2702 
Q 2975 2913 2975 3322 
Q 2975 3731 2742 3939 
Q 2509 4147 2053 4147 
L 1259 4147 
z
" transform="scale(0.015625)"/>
      </defs>
      <use xlink:href="#DejaVuSans-42"/>
      <use xlink:href="#DejaVuSans-52" x="68.603516"/>
     </g>
    </g>
    <g id="line2d_53">
     <path d="M 303.86375 98.604813 
L 313.86375 98.604813 
L 323.86375 98.604813 
" style="fill: none; stroke: #008080; stroke-width: 1.5; stroke-linecap: square"/>
    </g>
    <g id="text_24">
     <!-- RJ -->
     <g transform="translate(331.86375 102.104813) scale(0.1 -0.1)">
      <defs>
       <path id="DejaVuSans-4a" d="M 628 4666 
L 1259 4666 
L 1259 325 
Q 1259 -519 939 -900 
Q 619 -1281 -91 -1281 
L -331 -1281 
L -331 -750 
L -134 -750 
Q 284 -750 456 -515 
Q 628 -281 628 325 
L 628 4666 
z
" transform="scale(0.015625)"/>
      </defs>
      <use xlink:href="#DejaVuSans-52"/>
      <use xlink:href="#DejaVuSans-4a" x="69.482422"/>
     </g>
    </g>
   </g>
  </g>
 </g>
 <defs>
  <clipPath id="p18fc535a83">
   <rect x="57.6" y="41.472" width="357.12" height="266.112"/>
  </clipPath>
 </defs>
</svg>
