<?xml version="1.0" encoding="utf-8" standalone="no"?>
<!DOCTYPE svg PUBLIC "-//W3C//DTD SVG 1.1//EN"
  "http://www.w3.org/Graphics/SVG/1.1/DTD/svg11.dtd">
<svg xmlns:xlink="http://www.w3.org/1999/xlink" width="460.8pt" height="345.6pt" viewBox="0 0 460.8 345.6" xmlns="http://www.w3.org/2000/svg" version="1.1">
 <metadata>
  <rdf:RDF xmlns:dc="http://purl.org/dc/elements/1.1/" xmlns:cc="http://creativecommons.org/ns#" xmlns:rdf="http://www.w3.org/1999/02/22-rdf-syntax-ns#">
   <cc:Work>
    <dc:type rdf:resource="http://purl.org/dc/dcmitype/StillImage"/>
    <dc:date>2024-09-06T11:10:10.678305</dc:date>
    <dc:format>image/svg+xml</dc:format>
    <dc:creator>
     <cc:Agent>
      <dc:title>Matplotlib v3.9.2, https://matplotlib.org/</dc:title>
     </cc:Agent>
    </dc:creator>
   </cc:Work>
  </rdf:RDF>
 </metadata>
 <defs>
  <style type="text/css">*{stroke-linejoin: round; stroke-linecap: butt}</style>
 </defs>
 <g id="figure_1">
  <g id="patch_1">
   <path d="M 0 345.6 
L 460.8 345.6 
L 460.8 0 
L 0 0 
z
" style="fill: #ffffff"/>
  </g>
  <g id="axes_1">
   <g id="patch_2">
    <path d="M 57.6 307.584 
L 414.72 307.584 
L 414.72 41.472 
L 57.6 41.472 
z
" style="fill: #ffffff"/>
   </g>
   <g id="matplotlib.axis_1">
    <g id="xtick_1">
     <g id="line2d_1">
      <defs>
       <path id="md2ddc18a57" d="M 0 0 
L 0 3.5 
" style="stroke: #000000; stroke-width: 0.8"/>
      </defs>
      <g>
       <use xlink:href="#md2ddc18a57" x="91.855375" y="307.584" style="stroke: #000000; stroke-width: 0.8"/>
      </g>
     </g>
     <g id="text_1">
      <!-- 2004 -->
      <g transform="translate(79.130375 322.182437) scale(0.1 -0.1)">
       <defs>
        <path id="DejaVuSans-32" d="M 1228 531 
L 3431 531 
L 3431 0 
L 469 0 
L 469 531 
Q 828 903 1448 1529 
Q 2069 2156 2228 2338 
Q 2531 2678 2651 2914 
Q 2772 3150 2772 3378 
Q 2772 3750 2511 3984 
Q 2250 4219 1831 4219 
Q 1534 4219 1204 4116 
Q 875 4013 500 3803 
L 500 4441 
Q 881 4594 1212 4672 
Q 1544 4750 1819 4750 
Q 2544 4750 2975 4387 
Q 3406 4025 3406 3419 
Q 3406 3131 3298 2873 
Q 3191 2616 2906 2266 
Q 2828 2175 2409 1742 
Q 1991 1309 1228 531 
z
" transform="scale(0.015625)"/>
        <path id="DejaVuSans-30" d="M 2034 4250 
Q 1547 4250 1301 3770 
Q 1056 3291 1056 2328 
Q 1056 1369 1301 889 
Q 1547 409 2034 409 
Q 2525 409 2770 889 
Q 3016 1369 3016 2328 
Q 3016 3291 2770 3770 
Q 2525 4250 2034 4250 
z
M 2034 4750 
Q 2819 4750 3233 4129 
Q 3647 3509 3647 2328 
Q 3647 1150 3233 529 
Q 2819 -91 2034 -91 
Q 1250 -91 836 529 
Q 422 1150 422 2328 
Q 422 3509 836 4129 
Q 1250 4750 2034 4750 
z
" transform="scale(0.015625)"/>
        <path id="DejaVuSans-34" d="M 2419 4116 
L 825 1625 
L 2419 1625 
L 2419 4116 
z
M 2253 4666 
L 3047 4666 
L 3047 1625 
L 3713 1625 
L 3713 1100 
L 3047 1100 
L 3047 0 
L 2419 0 
L 2419 1100 
L 313 1100 
L 313 1709 
L 2253 4666 
z
" transform="scale(0.015625)"/>
       </defs>
       <use xlink:href="#DejaVuSans-32"/>
       <use xlink:href="#DejaVuSans-30" x="63.623047"/>
       <use xlink:href="#DejaVuSans-30" x="127.246094"/>
       <use xlink:href="#DejaVuSans-34" x="190.869141"/>
      </g>
     </g>
    </g>
    <g id="xtick_2">
     <g id="line2d_2">
      <g>
       <use xlink:href="#md2ddc18a57" x="127.950048" y="307.584" style="stroke: #000000; stroke-width: 0.8"/>
      </g>
     </g>
     <g id="text_2">
      <!-- 2006 -->
      <g transform="translate(115.225048 322.182437) scale(0.1 -0.1)">
       <defs>
        <path id="DejaVuSans-36" d="M 2113 2584 
Q 1688 2584 1439 2293 
Q 1191 2003 1191 1497 
Q 1191 994 1439 701 
Q 1688 409 2113 409 
Q 2538 409 2786 701 
Q 3034 994 3034 1497 
Q 3034 2003 2786 2293 
Q 2538 2584 2113 2584 
z
M 3366 4563 
L 3366 3988 
Q 3128 4100 2886 4159 
Q 2644 4219 2406 4219 
Q 1781 4219 1451 3797 
Q 1122 3375 1075 2522 
Q 1259 2794 1537 2939 
Q 1816 3084 2150 3084 
Q 2853 3084 3261 2657 
Q 3669 2231 3669 1497 
Q 3669 778 3244 343 
Q 2819 -91 2113 -91 
Q 1303 -91 875 529 
Q 447 1150 447 2328 
Q 447 3434 972 4092 
Q 1497 4750 2381 4750 
Q 2619 4750 2861 4703 
Q 3103 4656 3366 4563 
z
" transform="scale(0.015625)"/>
       </defs>
       <use xlink:href="#DejaVuSans-32"/>
       <use xlink:href="#DejaVuSans-30" x="63.623047"/>
       <use xlink:href="#DejaVuSans-30" x="127.246094"/>
       <use xlink:href="#DejaVuSans-36" x="190.869141"/>
      </g>
     </g>
    </g>
    <g id="xtick_3">
     <g id="line2d_3">
      <g>
       <use xlink:href="#md2ddc18a57" x="163.995343" y="307.584" style="stroke: #000000; stroke-width: 0.8"/>
      </g>
     </g>
     <g id="text_3">
      <!-- 2008 -->
      <g transform="translate(151.270343 322.182437) scale(0.1 -0.1)">
       <defs>
        <path id="DejaVuSans-38" d="M 2034 2216 
Q 1584 2216 1326 1975 
Q 1069 1734 1069 1313 
Q 1069 891 1326 650 
Q 1584 409 2034 409 
Q 2484 409 2743 651 
Q 3003 894 3003 1313 
Q 3003 1734 2745 1975 
Q 2488 2216 2034 2216 
z
M 1403 2484 
Q 997 2584 770 2862 
Q 544 3141 544 3541 
Q 544 4100 942 4425 
Q 1341 4750 2034 4750 
Q 2731 4750 3128 4425 
Q 3525 4100 3525 3541 
Q 3525 3141 3298 2862 
Q 3072 2584 2669 2484 
Q 3125 2378 3379 2068 
Q 3634 1759 3634 1313 
Q 3634 634 3220 271 
Q 2806 -91 2034 -91 
Q 1263 -91 848 271 
Q 434 634 434 1313 
Q 434 1759 690 2068 
Q 947 2378 1403 2484 
z
M 1172 3481 
Q 1172 3119 1398 2916 
Q 1625 2713 2034 2713 
Q 2441 2713 2670 2916 
Q 2900 3119 2900 3481 
Q 2900 3844 2670 4047 
Q 2441 4250 2034 4250 
Q 1625 4250 1398 4047 
Q 1172 3844 1172 3481 
z
" transform="scale(0.015625)"/>
       </defs>
       <use xlink:href="#DejaVuSans-32"/>
       <use xlink:href="#DejaVuSans-30" x="63.623047"/>
       <use xlink:href="#DejaVuSans-30" x="127.246094"/>
       <use xlink:href="#DejaVuSans-38" x="190.869141"/>
      </g>
     </g>
    </g>
    <g id="xtick_4">
     <g id="line2d_4">
      <g>
       <use xlink:href="#md2ddc18a57" x="200.090016" y="307.584" style="stroke: #000000; stroke-width: 0.8"/>
      </g>
     </g>
     <g id="text_4">
      <!-- 2010 -->
      <g transform="translate(187.365016 322.182437) scale(0.1 -0.1)">
       <defs>
        <path id="DejaVuSans-31" d="M 794 531 
L 1825 531 
L 1825 4091 
L 703 3866 
L 703 4441 
L 1819 4666 
L 2450 4666 
L 2450 531 
L 3481 531 
L 3481 0 
L 794 0 
L 794 531 
z
" transform="scale(0.015625)"/>
       </defs>
       <use xlink:href="#DejaVuSans-32"/>
       <use xlink:href="#DejaVuSans-30" x="63.623047"/>
       <use xlink:href="#DejaVuSans-31" x="127.246094"/>
       <use xlink:href="#DejaVuSans-30" x="190.869141"/>
      </g>
     </g>
    </g>
    <g id="xtick_5">
     <g id="line2d_5">
      <g>
       <use xlink:href="#md2ddc18a57" x="236.135311" y="307.584" style="stroke: #000000; stroke-width: 0.8"/>
      </g>
     </g>
     <g id="text_5">
      <!-- 2012 -->
      <g transform="translate(223.410311 322.182437) scale(0.1 -0.1)">
       <use xlink:href="#DejaVuSans-32"/>
       <use xlink:href="#DejaVuSans-30" x="63.623047"/>
       <use xlink:href="#DejaVuSans-31" x="127.246094"/>
       <use xlink:href="#DejaVuSans-32" x="190.869141"/>
      </g>
     </g>
    </g>
    <g id="xtick_6">
     <g id="line2d_6">
      <g>
       <use xlink:href="#md2ddc18a57" x="272.229984" y="307.584" style="stroke: #000000; stroke-width: 0.8"/>
      </g>
     </g>
     <g id="text_6">
      <!-- 2014 -->
      <g transform="translate(259.504984 322.182437) scale(0.1 -0.1)">
       <use xlink:href="#DejaVuSans-32"/>
       <use xlink:href="#DejaVuSans-30" x="63.623047"/>
       <use xlink:href="#DejaVuSans-31" x="127.246094"/>
       <use xlink:href="#DejaVuSans-34" x="190.869141"/>
      </g>
     </g>
    </g>
    <g id="xtick_7">
     <g id="line2d_7">
      <g>
       <use xlink:href="#md2ddc18a57" x="308.27528" y="307.584" style="stroke: #000000; stroke-width: 0.8"/>
      </g>
     </g>
     <g id="text_7">
      <!-- 2016 -->
      <g transform="translate(295.55028 322.182437) scale(0.1 -0.1)">
       <use xlink:href="#DejaVuSans-32"/>
       <use xlink:href="#DejaVuSans-30" x="63.623047"/>
       <use xlink:href="#DejaVuSans-31" x="127.246094"/>
       <use xlink:href="#DejaVuSans-36" x="190.869141"/>
      </g>
     </g>
    </g>
    <g id="xtick_8">
     <g id="line2d_8">
      <g>
       <use xlink:href="#md2ddc18a57" x="344.369952" y="307.584" style="stroke: #000000; stroke-width: 0.8"/>
      </g>
     </g>
     <g id="text_8">
      <!-- 2018 -->
      <g transform="translate(331.644952 322.182437) scale(0.1 -0.1)">
       <use xlink:href="#DejaVuSans-32"/>
       <use xlink:href="#DejaVuSans-30" x="63.623047"/>
       <use xlink:href="#DejaVuSans-31" x="127.246094"/>
       <use xlink:href="#DejaVuSans-38" x="190.869141"/>
      </g>
     </g>
    </g>
    <g id="xtick_9">
     <g id="line2d_9">
      <g>
       <use xlink:href="#md2ddc18a57" x="380.415248" y="307.584" style="stroke: #000000; stroke-width: 0.8"/>
      </g>
     </g>
     <g id="text_9">
      <!-- 2020 -->
      <g transform="translate(367.690248 322.182437) scale(0.1 -0.1)">
       <use xlink:href="#DejaVuSans-32"/>
       <use xlink:href="#DejaVuSans-30" x="63.623047"/>
       <use xlink:href="#DejaVuSans-32" x="127.246094"/>
       <use xlink:href="#DejaVuSans-30" x="190.869141"/>
      </g>
     </g>
    </g>
    <g id="text_10">
     <!-- Ano -->
     <g transform="translate(226.511562 335.860562) scale(0.1 -0.1)">
      <defs>
       <path id="DejaVuSans-41" d="M 2188 4044 
L 1331 1722 
L 3047 1722 
L 2188 4044 
z
M 1831 4666 
L 2547 4666 
L 4325 0 
L 3669 0 
L 3244 1197 
L 1141 1197 
L 716 0 
L 50 0 
L 1831 4666 
z
" transform="scale(0.015625)"/>
       <path id="DejaVuSans-6e" d="M 3513 2113 
L 3513 0 
L 2938 0 
L 2938 2094 
Q 2938 2591 2744 2837 
Q 2550 3084 2163 3084 
Q 1697 3084 1428 2787 
Q 1159 2491 1159 1978 
L 1159 0 
L 581 0 
L 581 3500 
L 1159 3500 
L 1159 2956 
Q 1366 3272 1645 3428 
Q 1925 3584 2291 3584 
Q 2894 3584 3203 3211 
Q 3513 2838 3513 2113 
z
" transform="scale(0.015625)"/>
       <path id="DejaVuSans-6f" d="M 1959 3097 
Q 1497 3097 1228 2736 
Q 959 2375 959 1747 
Q 959 1119 1226 758 
Q 1494 397 1959 397 
Q 2419 397 2687 759 
Q 2956 1122 2956 1747 
Q 2956 2369 2687 2733 
Q 2419 3097 1959 3097 
z
M 1959 3584 
Q 2709 3584 3137 3096 
Q 3566 2609 3566 1747 
Q 3566 888 3137 398 
Q 2709 -91 1959 -91 
Q 1206 -91 779 398 
Q 353 888 353 1747 
Q 353 2609 779 3096 
Q 1206 3584 1959 3584 
z
" transform="scale(0.015625)"/>
      </defs>
      <use xlink:href="#DejaVuSans-41"/>
      <use xlink:href="#DejaVuSans-6e" x="68.408203"/>
      <use xlink:href="#DejaVuSans-6f" x="131.787109"/>
     </g>
    </g>
   </g>
   <g id="matplotlib.axis_2">
    <g id="ytick_1">
     <g id="line2d_10">
      <defs>
       <path id="m3aa285d83a" d="M 0 0 
L -3.5 0 
" style="stroke: #000000; stroke-width: 0.8"/>
      </defs>
      <g>
       <use xlink:href="#m3aa285d83a" x="57.6" y="292.727212" style="stroke: #000000; stroke-width: 0.8"/>
      </g>
     </g>
     <g id="text_11">
      <!-- −0.2 -->
      <g transform="translate(26.317187 296.52643) scale(0.1 -0.1)">
       <defs>
        <path id="DejaVuSans-2212" d="M 678 2272 
L 4684 2272 
L 4684 1741 
L 678 1741 
L 678 2272 
z
" transform="scale(0.015625)"/>
        <path id="DejaVuSans-2e" d="M 684 794 
L 1344 794 
L 1344 0 
L 684 0 
L 684 794 
z
" transform="scale(0.015625)"/>
       </defs>
       <use xlink:href="#DejaVuSans-2212"/>
       <use xlink:href="#DejaVuSans-30" x="83.789062"/>
       <use xlink:href="#DejaVuSans-2e" x="147.412109"/>
       <use xlink:href="#DejaVuSans-32" x="179.199219"/>
      </g>
     </g>
    </g>
    <g id="ytick_2">
     <g id="line2d_11">
      <g>
       <use xlink:href="#m3aa285d83a" x="57.6" y="261.625906" style="stroke: #000000; stroke-width: 0.8"/>
      </g>
     </g>
     <g id="text_12">
      <!-- −0.1 -->
      <g transform="translate(26.317187 265.425125) scale(0.1 -0.1)">
       <use xlink:href="#DejaVuSans-2212"/>
       <use xlink:href="#DejaVuSans-30" x="83.789062"/>
       <use xlink:href="#DejaVuSans-2e" x="147.412109"/>
       <use xlink:href="#DejaVuSans-31" x="179.199219"/>
      </g>
     </g>
    </g>
    <g id="ytick_3">
     <g id="line2d_12">
      <g>
       <use xlink:href="#m3aa285d83a" x="57.6" y="230.5246" style="stroke: #000000; stroke-width: 0.8"/>
      </g>
     </g>
     <g id="text_13">
      <!-- 0.0 -->
      <g transform="translate(34.696875 234.323819) scale(0.1 -0.1)">
       <use xlink:href="#DejaVuSans-30"/>
       <use xlink:href="#DejaVuSans-2e" x="63.623047"/>
       <use xlink:href="#DejaVuSans-30" x="95.410156"/>
      </g>
     </g>
    </g>
    <g id="ytick_4">
     <g id="line2d_13">
      <g>
       <use xlink:href="#m3aa285d83a" x="57.6" y="199.423294" style="stroke: #000000; stroke-width: 0.8"/>
      </g>
     </g>
     <g id="text_14">
      <!-- 0.1 -->
      <g transform="translate(34.696875 203.222513) scale(0.1 -0.1)">
       <use xlink:href="#DejaVuSans-30"/>
       <use xlink:href="#DejaVuSans-2e" x="63.623047"/>
       <use xlink:href="#DejaVuSans-31" x="95.410156"/>
      </g>
     </g>
    </g>
    <g id="ytick_5">
     <g id="line2d_14">
      <g>
       <use xlink:href="#m3aa285d83a" x="57.6" y="168.321989" style="stroke: #000000; stroke-width: 0.8"/>
      </g>
     </g>
     <g id="text_15">
      <!-- 0.2 -->
      <g transform="translate(34.696875 172.121207) scale(0.1 -0.1)">
       <use xlink:href="#DejaVuSans-30"/>
       <use xlink:href="#DejaVuSans-2e" x="63.623047"/>
       <use xlink:href="#DejaVuSans-32" x="95.410156"/>
      </g>
     </g>
    </g>
    <g id="ytick_6">
     <g id="line2d_15">
      <g>
       <use xlink:href="#m3aa285d83a" x="57.6" y="137.220683" style="stroke: #000000; stroke-width: 0.8"/>
      </g>
     </g>
     <g id="text_16">
      <!-- 0.3 -->
      <g transform="translate(34.696875 141.019902) scale(0.1 -0.1)">
       <defs>
        <path id="DejaVuSans-33" d="M 2597 2516 
Q 3050 2419 3304 2112 
Q 3559 1806 3559 1356 
Q 3559 666 3084 287 
Q 2609 -91 1734 -91 
Q 1441 -91 1130 -33 
Q 819 25 488 141 
L 488 750 
Q 750 597 1062 519 
Q 1375 441 1716 441 
Q 2309 441 2620 675 
Q 2931 909 2931 1356 
Q 2931 1769 2642 2001 
Q 2353 2234 1838 2234 
L 1294 2234 
L 1294 2753 
L 1863 2753 
Q 2328 2753 2575 2939 
Q 2822 3125 2822 3475 
Q 2822 3834 2567 4026 
Q 2313 4219 1838 4219 
Q 1578 4219 1281 4162 
Q 984 4106 628 3988 
L 628 4550 
Q 988 4650 1302 4700 
Q 1616 4750 1894 4750 
Q 2613 4750 3031 4423 
Q 3450 4097 3450 3541 
Q 3450 3153 3228 2886 
Q 3006 2619 2597 2516 
z
" transform="scale(0.015625)"/>
       </defs>
       <use xlink:href="#DejaVuSans-30"/>
       <use xlink:href="#DejaVuSans-2e" x="63.623047"/>
       <use xlink:href="#DejaVuSans-33" x="95.410156"/>
      </g>
     </g>
    </g>
    <g id="ytick_7">
     <g id="line2d_16">
      <g>
       <use xlink:href="#m3aa285d83a" x="57.6" y="106.119377" style="stroke: #000000; stroke-width: 0.8"/>
      </g>
     </g>
     <g id="text_17">
      <!-- 0.4 -->
      <g transform="translate(34.696875 109.918596) scale(0.1 -0.1)">
       <use xlink:href="#DejaVuSans-30"/>
       <use xlink:href="#DejaVuSans-2e" x="63.623047"/>
       <use xlink:href="#DejaVuSans-34" x="95.410156"/>
      </g>
     </g>
    </g>
    <g id="ytick_8">
     <g id="line2d_17">
      <g>
       <use xlink:href="#m3aa285d83a" x="57.6" y="75.018071" style="stroke: #000000; stroke-width: 0.8"/>
      </g>
     </g>
     <g id="text_18">
      <!-- 0.5 -->
      <g transform="translate(34.696875 78.81729) scale(0.1 -0.1)">
       <defs>
        <path id="DejaVuSans-35" d="M 691 4666 
L 3169 4666 
L 3169 4134 
L 1269 4134 
L 1269 2991 
Q 1406 3038 1543 3061 
Q 1681 3084 1819 3084 
Q 2600 3084 3056 2656 
Q 3513 2228 3513 1497 
Q 3513 744 3044 326 
Q 2575 -91 1722 -91 
Q 1428 -91 1123 -41 
Q 819 9 494 109 
L 494 744 
Q 775 591 1075 516 
Q 1375 441 1709 441 
Q 2250 441 2565 725 
Q 2881 1009 2881 1497 
Q 2881 1984 2565 2268 
Q 2250 2553 1709 2553 
Q 1456 2553 1204 2497 
Q 953 2441 691 2322 
L 691 4666 
z
" transform="scale(0.015625)"/>
       </defs>
       <use xlink:href="#DejaVuSans-30"/>
       <use xlink:href="#DejaVuSans-2e" x="63.623047"/>
       <use xlink:href="#DejaVuSans-35" x="95.410156"/>
      </g>
     </g>
    </g>
    <g id="ytick_9">
     <g id="line2d_18">
      <g>
       <use xlink:href="#m3aa285d83a" x="57.6" y="43.916765" style="stroke: #000000; stroke-width: 0.8"/>
      </g>
     </g>
     <g id="text_19">
      <!-- 0.6 -->
      <g transform="translate(34.696875 47.715984) scale(0.1 -0.1)">
       <use xlink:href="#DejaVuSans-30"/>
       <use xlink:href="#DejaVuSans-2e" x="63.623047"/>
       <use xlink:href="#DejaVuSans-36" x="95.410156"/>
      </g>
     </g>
    </g>
    <g id="text_20">
     <!-- Crescimento real -->
     <g transform="translate(20.2375 216.978781) rotate(-90) scale(0.1 -0.1)">
      <defs>
       <path id="DejaVuSans-43" d="M 4122 4306 
L 4122 3641 
Q 3803 3938 3442 4084 
Q 3081 4231 2675 4231 
Q 1875 4231 1450 3742 
Q 1025 3253 1025 2328 
Q 1025 1406 1450 917 
Q 1875 428 2675 428 
Q 3081 428 3442 575 
Q 3803 722 4122 1019 
L 4122 359 
Q 3791 134 3420 21 
Q 3050 -91 2638 -91 
Q 1578 -91 968 557 
Q 359 1206 359 2328 
Q 359 3453 968 4101 
Q 1578 4750 2638 4750 
Q 3056 4750 3426 4639 
Q 3797 4528 4122 4306 
z
" transform="scale(0.015625)"/>
       <path id="DejaVuSans-72" d="M 2631 2963 
Q 2534 3019 2420 3045 
Q 2306 3072 2169 3072 
Q 1681 3072 1420 2755 
Q 1159 2438 1159 1844 
L 1159 0 
L 581 0 
L 581 3500 
L 1159 3500 
L 1159 2956 
Q 1341 3275 1631 3429 
Q 1922 3584 2338 3584 
Q 2397 3584 2469 3576 
Q 2541 3569 2628 3553 
L 2631 2963 
z
" transform="scale(0.015625)"/>
       <path id="DejaVuSans-65" d="M 3597 1894 
L 3597 1613 
L 953 1613 
Q 991 1019 1311 708 
Q 1631 397 2203 397 
Q 2534 397 2845 478 
Q 3156 559 3463 722 
L 3463 178 
Q 3153 47 2828 -22 
Q 2503 -91 2169 -91 
Q 1331 -91 842 396 
Q 353 884 353 1716 
Q 353 2575 817 3079 
Q 1281 3584 2069 3584 
Q 2775 3584 3186 3129 
Q 3597 2675 3597 1894 
z
M 3022 2063 
Q 3016 2534 2758 2815 
Q 2500 3097 2075 3097 
Q 1594 3097 1305 2825 
Q 1016 2553 972 2059 
L 3022 2063 
z
" transform="scale(0.015625)"/>
       <path id="DejaVuSans-73" d="M 2834 3397 
L 2834 2853 
Q 2591 2978 2328 3040 
Q 2066 3103 1784 3103 
Q 1356 3103 1142 2972 
Q 928 2841 928 2578 
Q 928 2378 1081 2264 
Q 1234 2150 1697 2047 
L 1894 2003 
Q 2506 1872 2764 1633 
Q 3022 1394 3022 966 
Q 3022 478 2636 193 
Q 2250 -91 1575 -91 
Q 1294 -91 989 -36 
Q 684 19 347 128 
L 347 722 
Q 666 556 975 473 
Q 1284 391 1588 391 
Q 1994 391 2212 530 
Q 2431 669 2431 922 
Q 2431 1156 2273 1281 
Q 2116 1406 1581 1522 
L 1381 1569 
Q 847 1681 609 1914 
Q 372 2147 372 2553 
Q 372 3047 722 3315 
Q 1072 3584 1716 3584 
Q 2034 3584 2315 3537 
Q 2597 3491 2834 3397 
z
" transform="scale(0.015625)"/>
       <path id="DejaVuSans-63" d="M 3122 3366 
L 3122 2828 
Q 2878 2963 2633 3030 
Q 2388 3097 2138 3097 
Q 1578 3097 1268 2742 
Q 959 2388 959 1747 
Q 959 1106 1268 751 
Q 1578 397 2138 397 
Q 2388 397 2633 464 
Q 2878 531 3122 666 
L 3122 134 
Q 2881 22 2623 -34 
Q 2366 -91 2075 -91 
Q 1284 -91 818 406 
Q 353 903 353 1747 
Q 353 2603 823 3093 
Q 1294 3584 2113 3584 
Q 2378 3584 2631 3529 
Q 2884 3475 3122 3366 
z
" transform="scale(0.015625)"/>
       <path id="DejaVuSans-69" d="M 603 3500 
L 1178 3500 
L 1178 0 
L 603 0 
L 603 3500 
z
M 603 4863 
L 1178 4863 
L 1178 4134 
L 603 4134 
L 603 4863 
z
" transform="scale(0.015625)"/>
       <path id="DejaVuSans-6d" d="M 3328 2828 
Q 3544 3216 3844 3400 
Q 4144 3584 4550 3584 
Q 5097 3584 5394 3201 
Q 5691 2819 5691 2113 
L 5691 0 
L 5113 0 
L 5113 2094 
Q 5113 2597 4934 2840 
Q 4756 3084 4391 3084 
Q 3944 3084 3684 2787 
Q 3425 2491 3425 1978 
L 3425 0 
L 2847 0 
L 2847 2094 
Q 2847 2600 2669 2842 
Q 2491 3084 2119 3084 
Q 1678 3084 1418 2786 
Q 1159 2488 1159 1978 
L 1159 0 
L 581 0 
L 581 3500 
L 1159 3500 
L 1159 2956 
Q 1356 3278 1631 3431 
Q 1906 3584 2284 3584 
Q 2666 3584 2933 3390 
Q 3200 3197 3328 2828 
z
" transform="scale(0.015625)"/>
       <path id="DejaVuSans-74" d="M 1172 4494 
L 1172 3500 
L 2356 3500 
L 2356 3053 
L 1172 3053 
L 1172 1153 
Q 1172 725 1289 603 
Q 1406 481 1766 481 
L 2356 481 
L 2356 0 
L 1766 0 
Q 1100 0 847 248 
Q 594 497 594 1153 
L 594 3053 
L 172 3053 
L 172 3500 
L 594 3500 
L 594 4494 
L 1172 4494 
z
" transform="scale(0.015625)"/>
       <path id="DejaVuSans-20" transform="scale(0.015625)"/>
       <path id="DejaVuSans-61" d="M 2194 1759 
Q 1497 1759 1228 1600 
Q 959 1441 959 1056 
Q 959 750 1161 570 
Q 1363 391 1709 391 
Q 2188 391 2477 730 
Q 2766 1069 2766 1631 
L 2766 1759 
L 2194 1759 
z
M 3341 1997 
L 3341 0 
L 2766 0 
L 2766 531 
Q 2569 213 2275 61 
Q 1981 -91 1556 -91 
Q 1019 -91 701 211 
Q 384 513 384 1019 
Q 384 1609 779 1909 
Q 1175 2209 1959 2209 
L 2766 2209 
L 2766 2266 
Q 2766 2663 2505 2880 
Q 2244 3097 1772 3097 
Q 1472 3097 1187 3025 
Q 903 2953 641 2809 
L 641 3341 
Q 956 3463 1253 3523 
Q 1550 3584 1831 3584 
Q 2591 3584 2966 3190 
Q 3341 2797 3341 1997 
z
" transform="scale(0.015625)"/>
       <path id="DejaVuSans-6c" d="M 603 4863 
L 1178 4863 
L 1178 0 
L 603 0 
L 603 4863 
z
" transform="scale(0.015625)"/>
      </defs>
      <use xlink:href="#DejaVuSans-43"/>
      <use xlink:href="#DejaVuSans-72" x="69.824219"/>
      <use xlink:href="#DejaVuSans-65" x="108.6875"/>
      <use xlink:href="#DejaVuSans-73" x="170.210938"/>
      <use xlink:href="#DejaVuSans-63" x="222.310547"/>
      <use xlink:href="#DejaVuSans-69" x="277.291016"/>
      <use xlink:href="#DejaVuSans-6d" x="305.074219"/>
      <use xlink:href="#DejaVuSans-65" x="402.486328"/>
      <use xlink:href="#DejaVuSans-6e" x="464.009766"/>
      <use xlink:href="#DejaVuSans-74" x="527.388672"/>
      <use xlink:href="#DejaVuSans-6f" x="566.597656"/>
      <use xlink:href="#DejaVuSans-20" x="627.779297"/>
      <use xlink:href="#DejaVuSans-72" x="659.566406"/>
      <use xlink:href="#DejaVuSans-65" x="698.429688"/>
      <use xlink:href="#DejaVuSans-61" x="759.953125"/>
      <use xlink:href="#DejaVuSans-6c" x="821.232422"/>
     </g>
    </g>
   </g>
   <g id="line2d_19">
    <path d="M 73.832727 203.816699 
L 91.855375 224.486864 
L 109.9274 218.963004 
L 127.950048 219.501973 
L 145.972695 203.078016 
L 163.995343 198.003954 
L 182.067368 227.941712 
L 200.090016 207.771636 
L 218.112664 192.689746 
L 236.135311 221.098305 
L 254.207336 203.111114 
L 272.229984 207.395244 
L 290.252632 260.750378 
L 308.27528 248.752115 
L 326.347305 241.516107 
L 344.369952 221.103116 
L 362.3926 227.666758 
L 380.415248 233.092273 
L 398.487273 200.916976 
" clip-path="url(#p97c515b1bd)" style="fill: none; stroke: #dcdcdc; stroke-width: 1.5; stroke-linecap: square"/>
   </g>
   <g id="line2d_20">
    <path d="M 73.832727 233.254898 
L 91.855375 146.604978 
L 109.9274 245.348688 
L 127.950048 211.376359 
L 145.972695 150.762222 
L 163.995343 258.633936 
L 182.067368 162.430941 
L 200.090016 183.247127 
L 218.112664 218.496667 
L 236.135311 189.73515 
L 254.207336 212.083523 
L 272.229984 225.741504 
L 290.252632 251.752824 
L 308.27528 260.875346 
L 326.347305 242.4794 
L 344.369952 239.186221 
L 362.3926 224.603648 
L 380.415248 241.135658 
L 398.487273 197.393903 
" clip-path="url(#p97c515b1bd)" style="fill: none; stroke: #dcdcdc; stroke-width: 1.5; stroke-linecap: square"/>
   </g>
   <g id="line2d_21">
    <path d="M 73.832727 242.830123 
L 91.855375 192.804284 
L 109.9274 236.108236 
L 127.950048 211.301054 
L 145.972695 217.831548 
L 163.995343 215.30634 
L 182.067368 229.175606 
L 200.090016 206.973708 
L 218.112664 240.007941 
L 236.135311 222.217063 
L 254.207336 198.55806 
L 272.229984 229.274443 
L 290.252632 247.697601 
L 308.27528 253.448106 
L 326.347305 239.375577 
L 344.369952 236.591489 
L 362.3926 225.252291 
L 380.415248 260.223201 
L 398.487273 199.537202 
" clip-path="url(#p97c515b1bd)" style="fill: none; stroke: #dcdcdc; stroke-width: 1.5; stroke-linecap: square"/>
   </g>
   <g id="line2d_22">
    <path d="M 73.832727 228.97287 
L 91.855375 212.219359 
L 109.9274 240.63334 
L 127.950048 246.04447 
L 145.972695 225.411198 
L 163.995343 228.393625 
L 182.067368 241.914341 
L 200.090016 216.47624 
L 218.112664 198.880375 
L 236.135311 235.607976 
L 254.207336 231.115346 
L 272.229984 239.397891 
L 290.252632 242.360949 
L 308.27528 247.312139 
L 326.347305 249.693685 
L 344.369952 239.329901 
L 362.3926 232.739773 
L 380.415248 236.444256 
L 398.487273 205.789222 
" clip-path="url(#p97c515b1bd)" style="fill: none; stroke: #dcdcdc; stroke-width: 1.5; stroke-linecap: square"/>
   </g>
   <g id="line2d_23">
    <path d="M 73.832727 204.054127 
L 91.855375 203.532257 
L 109.9274 251.307147 
L 127.950048 186.376826 
L 145.972695 216.458247 
L 163.995343 211.742359 
L 182.067368 205.778328 
L 200.090016 164.853293 
L 218.112664 189.960218 
L 236.135311 198.631791 
L 254.207336 208.297091 
L 272.229984 214.610345 
L 290.252632 244.386474 
L 308.27528 256.5076 
L 326.347305 244.457685 
L 344.369952 237.898035 
L 362.3926 237.393834 
L 380.415248 244.854149 
L 398.487273 200.759179 
" clip-path="url(#p97c515b1bd)" style="fill: none; stroke: #dcdcdc; stroke-width: 1.5; stroke-linecap: square"/>
   </g>
   <g id="line2d_24">
    <path d="M 73.832727 266.862817 
L 91.855375 191.25106 
L 109.9274 226.223658 
L 127.950048 217.828239 
L 145.972695 203.247138 
L 163.995343 223.780702 
L 182.067368 230.067452 
L 200.090016 193.203538 
L 218.112664 209.022102 
L 236.135311 222.129112 
L 254.207336 226.917177 
L 272.229984 237.236338 
L 290.252632 258.048346 
L 308.27528 234.085268 
L 326.347305 226.058088 
L 344.369952 222.906246 
L 362.3926 229.094729 
L 380.415248 232.833999 
L 398.487273 238.69931 
" clip-path="url(#p97c515b1bd)" style="fill: none; stroke: #dcdcdc; stroke-width: 1.5; stroke-linecap: square"/>
   </g>
   <g id="line2d_25">
    <path d="M 73.832727 248.892485 
L 91.855375 209.047701 
L 109.9274 222.255109 
L 127.950048 224.288929 
L 145.972695 207.11699 
L 163.995343 213.348651 
L 182.067368 230.812417 
L 200.090016 204.205403 
L 218.112664 183.900515 
L 236.135311 228.206078 
L 254.207336 255.142769 
L 272.229984 223.593431 
L 290.252632 256.032624 
L 308.27528 246.871613 
L 326.347305 250.014538 
L 344.369952 233.0338 
L 362.3926 239.395248 
L 380.415248 243.62805 
L 398.487273 206.874941 
" clip-path="url(#p97c515b1bd)" style="fill: none; stroke: #dcdcdc; stroke-width: 1.5; stroke-linecap: square"/>
   </g>
   <g id="line2d_26">
    <path d="M 73.832727 235.920558 
L 91.855375 201.121362 
L 109.9274 221.449945 
L 127.950048 209.42695 
L 145.972695 206.517336 
L 163.995343 239.729959 
L 182.067368 211.010378 
L 200.090016 218.305454 
L 218.112664 187.117414 
L 236.135311 230.007341 
L 254.207336 256.402426 
L 272.229984 248.228884 
L 290.252632 260.732673 
L 308.27528 253.733947 
L 326.347305 267.013909 
L 344.369952 238.668639 
L 362.3926 211.031694 
L 380.415248 188.568348 
L 398.487273 203.93825 
" clip-path="url(#p97c515b1bd)" style="fill: none; stroke: #dcdcdc; stroke-width: 1.5; stroke-linecap: square"/>
   </g>
   <g id="line2d_27">
    <path d="M 73.832727 209.371052 
L 91.855375 193.735495 
L 109.9274 220.614248 
L 127.950048 224.419099 
L 145.972695 213.633828 
L 163.995343 214.675025 
L 182.067368 241.57087 
L 200.090016 209.56126 
L 218.112664 226.585414 
L 236.135311 219.046893 
L 254.207336 228.684732 
L 272.229984 240.368663 
L 290.252632 255.014672 
L 308.27528 248.081019 
L 326.347305 239.492233 
L 344.369952 227.957766 
L 362.3926 230.152544 
L 380.415248 231.788546 
L 398.487273 235.423397 
" clip-path="url(#p97c515b1bd)" style="fill: none; stroke: #dcdcdc; stroke-width: 1.5; stroke-linecap: square"/>
   </g>
   <g id="line2d_28">
    <path d="M 73.832727 236.803985 
L 91.855375 134.895754 
L 109.9274 281.187112 
L 127.950048 209.297797 
L 145.972695 165.273066 
L 163.995343 215.963897 
L 182.067368 176.7248 
L 200.090016 167.912824 
L 218.112664 200.49665 
L 236.135311 227.103502 
L 254.207336 241.053925 
L 272.229984 227.059959 
L 290.252632 271.15656 
L 308.27528 267.810344 
L 326.347305 205.436596 
L 344.369952 215.534749 
L 362.3926 225.368775 
L 380.415248 247.698827 
L 398.487273 231.09055 
" clip-path="url(#p97c515b1bd)" style="fill: none; stroke: #dcdcdc; stroke-width: 1.5; stroke-linecap: square"/>
   </g>
   <g id="line2d_29">
    <path d="M 73.832727 218.043419 
L 91.855375 214.186082 
L 109.9274 216.975168 
L 127.950048 224.065668 
L 145.972695 202.773855 
L 163.995343 225.495101 
L 182.067368 267.198234 
L 200.090016 187.642419 
L 218.112664 222.457107 
L 236.135311 230.643945 
L 254.207336 235.417334 
L 272.229984 239.503275 
L 290.252632 249.947784 
L 308.27528 248.455598 
L 326.347305 228.971432 
L 344.369952 231.436523 
L 362.3926 251.623195 
L 380.415248 245.563685 
L 398.487273 202.224785 
" clip-path="url(#p97c515b1bd)" style="fill: none; stroke: #dcdcdc; stroke-width: 1.5; stroke-linecap: square"/>
   </g>
   <g id="line2d_30">
    <path d="M 73.832727 210.167252 
L 91.855375 222.36679 
L 109.9274 232.268813 
L 127.950048 198.671688 
L 145.972695 196.696873 
L 163.995343 186.814025 
L 182.067368 285.297602 
L 200.090016 130.165177 
L 218.112664 192.138939 
L 236.135311 246.934102 
L 254.207336 235.766498 
L 272.229984 204.344009 
L 290.252632 221.883726 
L 308.27528 246.325539 
L 326.347305 231.344462 
L 344.369952 244.894363 
L 362.3926 280.130778 
L 380.415248 259.98244 
L 398.487273 217.520238 
" clip-path="url(#p97c515b1bd)" style="fill: none; stroke: #dcdcdc; stroke-width: 1.5; stroke-linecap: square"/>
   </g>
   <g id="line2d_31">
    <path d="M 73.832727 237.84352 
L 91.855375 224.321739 
L 109.9274 220.732401 
L 127.950048 218.26023 
L 145.972695 227.76844 
L 163.995343 221.815043 
L 182.067368 224.80208 
L 200.090016 211.427027 
L 218.112664 231.513326 
L 236.135311 231.094668 
L 254.207336 237.865957 
L 272.229984 227.617796 
L 290.252632 234.049094 
L 308.27528 243.834123 
L 326.347305 240.229534 
L 344.369952 233.084831 
L 362.3926 215.937116 
L 380.415248 218.649688 
L 398.487273 209.902897 
" clip-path="url(#p97c515b1bd)" style="fill: none; stroke: #dcdcdc; stroke-width: 1.5; stroke-linecap: square"/>
   </g>
   <g id="line2d_32">
    <path d="M 73.832727 235.998688 
L 91.855375 201.312102 
L 109.9274 220.892045 
L 127.950048 227.285379 
L 145.972695 210.400652 
L 163.995343 214.289536 
L 182.067368 251.313629 
L 200.090016 202.218838 
L 218.112664 219.764501 
L 236.135311 237.224541 
L 254.207336 217.70655 
L 272.229984 239.863486 
L 290.252632 253.338997 
L 308.27528 244.032488 
L 326.347305 231.423434 
L 344.369952 230.176283 
L 362.3926 231.025998 
L 380.415248 245.922732 
L 398.487273 219.847785 
" clip-path="url(#p97c515b1bd)" style="fill: none; stroke: #dcdcdc; stroke-width: 1.5; stroke-linecap: square"/>
   </g>
   <g id="line2d_33">
    <path d="M 73.832727 225.793055 
L 91.855375 203.46963 
L 109.9274 231.7915 
L 127.950048 232.438899 
L 145.972695 208.515853 
L 163.995343 217.416108 
L 182.067368 239.284588 
L 200.090016 195.866782 
L 218.112664 204.065672 
L 236.135311 237.45368 
L 254.207336 216.425764 
L 272.229984 252.812828 
L 290.252632 251.663358 
L 308.27528 237.866236 
L 326.347305 231.212016 
L 344.369952 233.678324 
L 362.3926 223.658745 
L 380.415248 242.292766 
L 398.487273 207.212645 
" clip-path="url(#p97c515b1bd)" style="fill: none; stroke: #dcdcdc; stroke-width: 1.5; stroke-linecap: square"/>
   </g>
   <g id="line2d_34">
    <path d="M 73.832727 234.733388 
L 91.855375 195.512213 
L 109.9274 234.677152 
L 127.950048 229.834186 
L 145.972695 205.909154 
L 163.995343 237.534016 
L 182.067368 243.721913 
L 200.090016 206.274263 
L 218.112664 222.288244 
L 236.135311 233.197851 
L 254.207336 220.391104 
L 272.229984 235.883317 
L 290.252632 248.144354 
L 308.27528 240.725124 
L 326.347305 226.303284 
L 344.369952 220.306632 
L 362.3926 224.428292 
L 380.415248 247.906988 
L 398.487273 204.425296 
" clip-path="url(#p97c515b1bd)" style="fill: none; stroke: #dcdcdc; stroke-width: 1.5; stroke-linecap: square"/>
   </g>
   <g id="line2d_35">
    <path d="M 73.832727 229.259967 
L 91.855375 207.742904 
L 109.9274 238.897959 
L 127.950048 235.96687 
L 145.972695 209.787109 
L 163.995343 219.806697 
L 182.067368 255.308409 
L 200.090016 205.009928 
L 218.112664 217.160006 
L 236.135311 245.318656 
L 254.207336 207.635904 
L 272.229984 243.074022 
L 290.252632 263.962933 
L 308.27528 242.68083 
L 326.347305 236.005271 
L 344.369952 221.701125 
L 362.3926 229.905572 
L 380.415248 249.559427 
L 398.487273 205.211428 
" clip-path="url(#p97c515b1bd)" style="fill: none; stroke: #dcdcdc; stroke-width: 1.5; stroke-linecap: square"/>
   </g>
   <g id="line2d_36">
    <path d="M 73.832727 215.380483 
L 91.855375 209.707867 
L 109.9274 224.97609 
L 127.950048 207.936723 
L 145.972695 211.852426 
L 163.995343 195.915733 
L 182.067368 213.964866 
L 200.090016 176.478946 
L 218.112664 212.126096 
L 236.135311 209.646465 
L 254.207336 208.581449 
L 272.229984 232.740248 
L 290.252632 244.116101 
L 308.27528 229.769024 
L 326.347305 225.939818 
L 344.369952 214.922013 
L 362.3926 230.931972 
L 380.415248 230.418012 
L 398.487273 227.537914 
" clip-path="url(#p97c515b1bd)" style="fill: none; stroke: #dcdcdc; stroke-width: 1.5; stroke-linecap: square"/>
   </g>
   <g id="line2d_37">
    <path d="M 73.832727 286.963201 
L 91.855375 53.568 
L 109.9274 292.596597 
L 127.950048 175.090095 
L 145.972695 207.811257 
L 163.995343 194.369716 
L 182.067368 189.642844 
L 200.090016 247.721862 
L 218.112664 216.970569 
L 236.135311 217.185255 
L 254.207336 233.578579 
L 272.229984 211.88915 
L 290.252632 254.222421 
L 308.27528 242.954448 
L 326.347305 251.212083 
L 344.369952 242.994349 
L 362.3926 239.499837 
L 380.415248 253.233914 
L 398.487273 201.543564 
" clip-path="url(#p97c515b1bd)" style="fill: none; stroke: #dcdcdc; stroke-width: 1.5; stroke-linecap: square"/>
   </g>
   <g id="line2d_38">
    <path d="M 73.832727 217.0065 
L 91.855375 191.39086 
L 109.9274 225.361118 
L 127.950048 218.294337 
L 145.972695 180.417328 
L 163.995343 218.635137 
L 182.067368 212.063886 
L 200.090016 212.279572 
L 218.112664 227.619868 
L 236.135311 203.325651 
L 254.207336 214.385549 
L 272.229984 224.591432 
L 290.252632 245.771668 
L 308.27528 244.317466 
L 326.347305 224.292609 
L 344.369952 217.393646 
L 362.3926 226.549824 
L 380.415248 244.39685 
L 398.487273 230.365927 
" clip-path="url(#p97c515b1bd)" style="fill: none; stroke: #dcdcdc; stroke-width: 1.5; stroke-linecap: square"/>
   </g>
   <g id="line2d_39">
    <path d="M 73.832727 206.692352 
L 91.855375 196.214141 
L 109.9274 228.085536 
L 127.950048 225.168602 
L 145.972695 209.766026 
L 163.995343 216.859163 
L 182.067368 238.043354 
L 200.090016 187.004876 
L 218.112664 207.028407 
L 236.135311 226.515028 
L 254.207336 218.69797 
L 272.229984 223.594063 
L 290.252632 245.320818 
L 308.27528 244.475093 
L 326.347305 232.458771 
L 344.369952 234.153464 
L 362.3926 221.62368 
L 380.415248 229.278042 
L 398.487273 233.502837 
" clip-path="url(#p97c515b1bd)" style="fill: none; stroke: #dcdcdc; stroke-width: 1.5; stroke-linecap: square"/>
   </g>
   <g id="line2d_40">
    <path d="M 73.832727 267.864727 
L 91.855375 212.88456 
L 109.9274 227.195783 
L 127.950048 233.067281 
L 145.972695 192.156275 
L 163.995343 204.635272 
L 182.067368 209.940625 
L 200.090016 200.358089 
L 218.112664 202.907008 
L 236.135311 225.368112 
L 254.207336 218.383261 
L 272.229984 251.797834 
L 290.252632 253.843725 
L 308.27528 245.082569 
L 326.347305 256.968961 
L 344.369952 222.187136 
L 362.3926 217.714069 
L 380.415248 233.063208 
L 398.487273 194.872843 
" clip-path="url(#p97c515b1bd)" style="fill: none; stroke: #dcdcdc; stroke-width: 1.5; stroke-linecap: square"/>
   </g>
   <g id="line2d_41">
    <path d="M 73.832727 230.202309 
L 91.855375 204.975223 
L 109.9274 224.321804 
L 127.950048 224.284265 
L 145.972695 211.221056 
L 163.995343 217.774291 
L 182.067368 245.149334 
L 200.090016 198.791703 
L 218.112664 217.728512 
L 236.135311 232.772678 
L 254.207336 223.787378 
L 272.229984 235.215249 
L 290.252632 248.443628 
L 308.27528 244.726385 
L 326.347305 232.081936 
L 344.369952 228.294695 
L 362.3926 232.608504 
L 380.415248 239.76452 
L 398.487273 214.864122 
" clip-path="url(#p97c515b1bd)" style="fill: none; stroke: #dcdcdc; stroke-width: 1.5; stroke-linecap: square"/>
   </g>
   <g id="line2d_42">
    <path d="M 73.832727 212.509444 
L 91.855375 185.781751 
L 109.9274 202.651074 
L 127.950048 229.752469 
L 145.972695 204.651904 
L 163.995343 227.135613 
L 182.067368 244.101136 
L 200.090016 186.39233 
L 218.112664 199.473617 
L 236.135311 231.779476 
L 254.207336 216.366879 
L 272.229984 247.5154 
L 290.252632 260.991373 
L 308.27528 263.830941 
L 326.347305 207.248782 
L 344.369952 205.099441 
L 362.3926 226.308934 
L 380.415248 228.423389 
L 398.487273 214.355986 
" clip-path="url(#p97c515b1bd)" style="fill: none; stroke: #dcdcdc; stroke-width: 1.5; stroke-linecap: square"/>
   </g>
   <g id="line2d_43">
    <path d="M 73.832727 252.603435 
L 91.855375 209.150562 
L 109.9274 206.885072 
L 127.950048 165.669816 
L 145.972695 295.488 
L 163.995343 199.031168 
L 182.067368 178.667977 
L 200.090016 211.485649 
L 218.112664 234.444686 
L 236.135311 209.733822 
L 254.207336 203.913549 
L 272.229984 241.019798 
L 290.252632 247.808725 
L 308.27528 233.114194 
L 326.347305 239.254511 
L 344.369952 213.500084 
L 362.3926 219.953316 
L 380.415248 222.639005 
L 398.487273 197.044573 
" clip-path="url(#p97c515b1bd)" style="fill: none; stroke: #dcdcdc; stroke-width: 1.5; stroke-linecap: square"/>
   </g>
   <g id="line2d_44">
    <path d="M 73.832727 201.012484 
L 91.855375 190.606083 
L 109.9274 223.30529 
L 127.950048 203.737315 
L 145.972695 228.101616 
L 163.995343 203.835238 
L 182.067368 257.845673 
L 200.090016 188.231659 
L 218.112664 211.99913 
L 236.135311 230.497267 
L 254.207336 225.938185 
L 272.229984 208.368732 
L 290.252632 229.45579 
L 308.27528 248.019237 
L 326.347305 216.757735 
L 344.369952 212.345836 
L 362.3926 271.554596 
L 380.415248 226.857929 
L 398.487273 226.739312 
" clip-path="url(#p97c515b1bd)" style="fill: none; stroke: #dcdcdc; stroke-width: 1.5; stroke-linecap: square"/>
   </g>
   <g id="line2d_45">
    <path d="M 73.832727 217.001526 
L 91.855375 226.44438 
L 109.9274 174.02246 
L 127.950048 191.376561 
L 145.972695 250.518888 
L 163.995343 206.793666 
L 182.067368 258.194865 
L 200.090016 195.559341 
L 218.112664 147.284772 
L 236.135311 146.640809 
L 254.207336 215.145322 
L 272.229984 238.43987 
L 290.252632 280.92888 
L 308.27528 251.237886 
L 326.347305 215.341508 
L 344.369952 215.311708 
L 362.3926 225.408314 
L 380.415248 247.476404 
L 398.487273 221.167329 
" clip-path="url(#p97c515b1bd)" style="fill: none; stroke: #dcdcdc; stroke-width: 1.5; stroke-linecap: square"/>
   </g>
   <g id="line2d_46">
    <path d="M 73.832727 200.642853 
L 91.855375 176.898855 
L 109.9274 237.522939 
L 127.950048 215.702227 
L 145.972695 197.412499 
L 163.995343 194.348065 
L 182.067368 225.69132 
L 200.090016 138.630058 
L 218.112664 217.715644 
L 236.135311 211.509185 
L 254.207336 219.934076 
L 272.229984 216.430987 
L 290.252632 242.404794 
L 308.27528 237.464765 
L 326.347305 243.105614 
L 344.369952 234.800951 
L 362.3926 243.652426 
L 380.415248 234.711309 
L 398.487273 205.202486 
" clip-path="url(#p97c515b1bd)" style="fill: none; stroke: #dcdcdc; stroke-width: 1.5; stroke-linecap: square"/>
   </g>
   <g id="line2d_47">
    <path d="M 73.832727 237.84352 
L 91.855375 224.321739 
L 109.9274 220.732401 
L 127.950048 218.26023 
L 145.972695 227.76844 
L 163.995343 221.815043 
L 182.067368 224.80208 
L 200.090016 211.427027 
L 218.112664 231.513326 
L 236.135311 231.094668 
L 254.207336 237.865957 
L 272.229984 227.617796 
L 290.252632 234.049094 
L 308.27528 243.834123 
L 326.347305 240.229534 
L 344.369952 233.084831 
L 362.3926 215.937116 
L 380.415248 218.649688 
L 398.487273 209.902897 
" clip-path="url(#p97c515b1bd)" style="fill: none; stroke: #008080; stroke-width: 1.5; stroke-linecap: square"/>
   </g>
   <g id="line2d_48">
    <path d="M 73.832727 230.202309 
L 91.855375 204.975223 
L 109.9274 224.321804 
L 127.950048 224.284265 
L 145.972695 211.221056 
L 163.995343 217.774291 
L 182.067368 245.149334 
L 200.090016 198.791703 
L 218.112664 217.728512 
L 236.135311 232.772678 
L 254.207336 223.787378 
L 272.229984 235.215249 
L 290.252632 248.443628 
L 308.27528 244.726385 
L 326.347305 232.081936 
L 344.369952 228.294695 
L 362.3926 232.608504 
L 380.415248 239.76452 
L 398.487273 214.864122 
" clip-path="url(#p97c515b1bd)" style="fill: none; stroke: #ffd700; stroke-width: 1.5; stroke-linecap: square"/>
   </g>
   <g id="line2d_49">
    <path d="M 73.832727 228.899848 
L 91.855375 193.750283 
L 109.9274 229.738055 
L 127.950048 214.525187 
L 145.972695 209.235472 
L 163.995343 214.974361 
L 182.067368 227.870735 
L 200.090016 194.639159 
L 218.112664 208.670912 
L 236.135311 221.031545 
L 254.207336 222.500004 
L 272.229984 230.829369 
L 290.252632 250.955098 
L 308.27528 246.728261 
L 326.347305 234.948431 
L 344.369952 227.414691 
L 362.3926 231.948369 
L 380.415248 237.801596 
L 398.487273 212.559288 
" clip-path="url(#p97c515b1bd)" style="fill: none; stroke-dasharray: 5.55,2.4; stroke-dashoffset: 0; stroke: #dc143c; stroke-width: 1.5"/>
   </g>
   <g id="patch_3">
    <path d="M 57.6 307.584 
L 57.6 41.472 
" style="fill: none; stroke: #000000; stroke-width: 0.8; stroke-linejoin: miter; stroke-linecap: square"/>
   </g>
   <g id="patch_4">
    <path d="M 414.72 307.584 
L 414.72 41.472 
" style="fill: none; stroke: #000000; stroke-width: 0.8; stroke-linejoin: miter; stroke-linecap: square"/>
   </g>
   <g id="patch_5">
    <path d="M 57.6 307.584 
L 414.72 307.584 
" style="fill: none; stroke: #000000; stroke-width: 0.8; stroke-linejoin: miter; stroke-linecap: square"/>
   </g>
   <g id="patch_6">
    <path d="M 57.6 41.472 
L 414.72 41.472 
" style="fill: none; stroke: #000000; stroke-width: 0.8; stroke-linejoin: miter; stroke-linecap: square"/>
   </g>
   <g id="text_21">
    <!-- Taxa de Crescimento da Indústria Geral -->
    <g transform="translate(117.76875 35.472) scale(0.12 -0.12)">
     <defs>
      <path id="DejaVuSans-54" d="M -19 4666 
L 3928 4666 
L 3928 4134 
L 2272 4134 
L 2272 0 
L 1638 0 
L 1638 4134 
L -19 4134 
L -19 4666 
z
" transform="scale(0.015625)"/>
      <path id="DejaVuSans-78" d="M 3513 3500 
L 2247 1797 
L 3578 0 
L 2900 0 
L 1881 1375 
L 863 0 
L 184 0 
L 1544 1831 
L 300 3500 
L 978 3500 
L 1906 2253 
L 2834 3500 
L 3513 3500 
z
" transform="scale(0.015625)"/>
      <path id="DejaVuSans-64" d="M 2906 2969 
L 2906 4863 
L 3481 4863 
L 3481 0 
L 2906 0 
L 2906 525 
Q 2725 213 2448 61 
Q 2172 -91 1784 -91 
Q 1150 -91 751 415 
Q 353 922 353 1747 
Q 353 2572 751 3078 
Q 1150 3584 1784 3584 
Q 2172 3584 2448 3432 
Q 2725 3281 2906 2969 
z
M 947 1747 
Q 947 1113 1208 752 
Q 1469 391 1925 391 
Q 2381 391 2643 752 
Q 2906 1113 2906 1747 
Q 2906 2381 2643 2742 
Q 2381 3103 1925 3103 
Q 1469 3103 1208 2742 
Q 947 2381 947 1747 
z
" transform="scale(0.015625)"/>
      <path id="DejaVuSans-49" d="M 628 4666 
L 1259 4666 
L 1259 0 
L 628 0 
L 628 4666 
z
" transform="scale(0.015625)"/>
      <path id="DejaVuSans-fa" d="M 544 1381 
L 544 3500 
L 1119 3500 
L 1119 1403 
Q 1119 906 1312 657 
Q 1506 409 1894 409 
Q 2359 409 2629 706 
Q 2900 1003 2900 1516 
L 2900 3500 
L 3475 3500 
L 3475 0 
L 2900 0 
L 2900 538 
Q 2691 219 2414 64 
Q 2138 -91 1772 -91 
Q 1169 -91 856 284 
Q 544 659 544 1381 
z
M 1991 3584 
L 1991 3584 
z
M 2418 5119 
L 3040 5119 
L 2022 3944 
L 1543 3944 
L 2418 5119 
z
" transform="scale(0.015625)"/>
      <path id="DejaVuSans-47" d="M 3809 666 
L 3809 1919 
L 2778 1919 
L 2778 2438 
L 4434 2438 
L 4434 434 
Q 4069 175 3628 42 
Q 3188 -91 2688 -91 
Q 1594 -91 976 548 
Q 359 1188 359 2328 
Q 359 3472 976 4111 
Q 1594 4750 2688 4750 
Q 3144 4750 3555 4637 
Q 3966 4525 4313 4306 
L 4313 3634 
Q 3963 3931 3569 4081 
Q 3175 4231 2741 4231 
Q 1884 4231 1454 3753 
Q 1025 3275 1025 2328 
Q 1025 1384 1454 906 
Q 1884 428 2741 428 
Q 3075 428 3337 486 
Q 3600 544 3809 666 
z
" transform="scale(0.015625)"/>
     </defs>
     <use xlink:href="#DejaVuSans-54"/>
     <use xlink:href="#DejaVuSans-61" x="44.583984"/>
     <use xlink:href="#DejaVuSans-78" x="105.863281"/>
     <use xlink:href="#DejaVuSans-61" x="165.042969"/>
     <use xlink:href="#DejaVuSans-20" x="226.322266"/>
     <use xlink:href="#DejaVuSans-64" x="258.109375"/>
     <use xlink:href="#DejaVuSans-65" x="321.585938"/>
     <use xlink:href="#DejaVuSans-20" x="383.109375"/>
     <use xlink:href="#DejaVuSans-43" x="414.896484"/>
     <use xlink:href="#DejaVuSans-72" x="484.720703"/>
     <use xlink:href="#DejaVuSans-65" x="523.583984"/>
     <use xlink:href="#DejaVuSans-73" x="585.107422"/>
     <use xlink:href="#DejaVuSans-63" x="637.207031"/>
     <use xlink:href="#DejaVuSans-69" x="692.1875"/>
     <use xlink:href="#DejaVuSans-6d" x="719.970703"/>
     <use xlink:href="#DejaVuSans-65" x="817.382812"/>
     <use xlink:href="#DejaVuSans-6e" x="878.90625"/>
     <use xlink:href="#DejaVuSans-74" x="942.285156"/>
     <use xlink:href="#DejaVuSans-6f" x="981.494141"/>
     <use xlink:href="#DejaVuSans-20" x="1042.675781"/>
     <use xlink:href="#DejaVuSans-64" x="1074.462891"/>
     <use xlink:href="#DejaVuSans-61" x="1137.939453"/>
     <use xlink:href="#DejaVuSans-20" x="1199.21875"/>
     <use xlink:href="#DejaVuSans-49" x="1231.005859"/>
     <use xlink:href="#DejaVuSans-6e" x="1260.498047"/>
     <use xlink:href="#DejaVuSans-64" x="1323.876953"/>
     <use xlink:href="#DejaVuSans-fa" x="1387.353516"/>
     <use xlink:href="#DejaVuSans-73" x="1450.732422"/>
     <use xlink:href="#DejaVuSans-74" x="1502.832031"/>
     <use xlink:href="#DejaVuSans-72" x="1542.041016"/>
     <use xlink:href="#DejaVuSans-69" x="1583.154297"/>
     <use xlink:href="#DejaVuSans-61" x="1610.9375"/>
     <use xlink:href="#DejaVuSans-20" x="1672.216797"/>
     <use xlink:href="#DejaVuSans-47" x="1704.003906"/>
     <use xlink:href="#DejaVuSans-65" x="1781.494141"/>
     <use xlink:href="#DejaVuSans-72" x="1843.017578"/>
     <use xlink:href="#DejaVuSans-61" x="1884.130859"/>
     <use xlink:href="#DejaVuSans-6c" x="1945.410156"/>
    </g>
   </g>
   <g id="legend_1">
    <g id="patch_7">
     <path d="M 314.084063 93.506375 
L 407.72 93.506375 
Q 409.72 93.506375 409.72 91.506375 
L 409.72 48.472 
Q 409.72 46.472 407.72 46.472 
L 314.084063 46.472 
Q 312.084063 46.472 312.084063 48.472 
L 312.084063 91.506375 
Q 312.084063 93.506375 314.084063 93.506375 
z
" style="fill: #ffffff; opacity: 0.8; stroke: #cccccc; stroke-linejoin: miter"/>
    </g>
    <g id="line2d_50">
     <path d="M 316.084063 54.570438 
L 326.084063 54.570438 
L 336.084063 54.570438 
" style="fill: none; stroke: #008080; stroke-width: 1.5; stroke-linecap: square"/>
    </g>
    <g id="text_22">
     <!-- RJ -->
     <g transform="translate(344.084063 58.070438) scale(0.1 -0.1)">
      <defs>
       <path id="DejaVuSans-52" d="M 2841 2188 
Q 3044 2119 3236 1894 
Q 3428 1669 3622 1275 
L 4263 0 
L 3584 0 
L 2988 1197 
Q 2756 1666 2539 1819 
Q 2322 1972 1947 1972 
L 1259 1972 
L 1259 0 
L 628 0 
L 628 4666 
L 2053 4666 
Q 2853 4666 3247 4331 
Q 3641 3997 3641 3322 
Q 3641 2881 3436 2590 
Q 3231 2300 2841 2188 
z
M 1259 4147 
L 1259 2491 
L 2053 2491 
Q 2509 2491 2742 2702 
Q 2975 2913 2975 3322 
Q 2975 3731 2742 3939 
Q 2509 4147 2053 4147 
L 1259 4147 
z
" transform="scale(0.015625)"/>
       <path id="DejaVuSans-4a" d="M 628 4666 
L 1259 4666 
L 1259 325 
Q 1259 -519 939 -900 
Q 619 -1281 -91 -1281 
L -331 -1281 
L -331 -750 
L -134 -750 
Q 284 -750 456 -515 
Q 628 -281 628 325 
L 628 4666 
z
" transform="scale(0.015625)"/>
      </defs>
      <use xlink:href="#DejaVuSans-52"/>
      <use xlink:href="#DejaVuSans-4a" x="69.482422"/>
     </g>
    </g>
    <g id="line2d_51">
     <path d="M 316.084063 69.248563 
L 326.084063 69.248563 
L 336.084063 69.248563 
" style="fill: none; stroke: #ffd700; stroke-width: 1.5; stroke-linecap: square"/>
    </g>
    <g id="text_23">
     <!-- BR -->
     <g transform="translate(344.084063 72.748563) scale(0.1 -0.1)">
      <defs>
       <path id="DejaVuSans-42" d="M 1259 2228 
L 1259 519 
L 2272 519 
Q 2781 519 3026 730 
Q 3272 941 3272 1375 
Q 3272 1813 3026 2020 
Q 2781 2228 2272 2228 
L 1259 2228 
z
M 1259 4147 
L 1259 2741 
L 2194 2741 
Q 2656 2741 2882 2914 
Q 3109 3088 3109 3444 
Q 3109 3797 2882 3972 
Q 2656 4147 2194 4147 
L 1259 4147 
z
M 628 4666 
L 2241 4666 
Q 2963 4666 3353 4366 
Q 3744 4066 3744 3513 
Q 3744 3084 3544 2831 
Q 3344 2578 2956 2516 
Q 3422 2416 3680 2098 
Q 3938 1781 3938 1306 
Q 3938 681 3513 340 
Q 3088 0 2303 0 
L 628 0 
L 628 4666 
z
" transform="scale(0.015625)"/>
      </defs>
      <use xlink:href="#DejaVuSans-42"/>
      <use xlink:href="#DejaVuSans-52" x="68.603516"/>
     </g>
    </g>
    <g id="line2d_52">
     <path d="M 316.084063 83.926688 
L 326.084063 83.926688 
L 336.084063 83.926688 
" style="fill: none; stroke-dasharray: 5.55,2.4; stroke-dashoffset: 0; stroke: #dc143c; stroke-width: 1.5"/>
    </g>
    <g id="text_24">
     <!-- Média Anual -->
     <g transform="translate(344.084063 87.426688) scale(0.1 -0.1)">
      <defs>
       <path id="DejaVuSans-4d" d="M 628 4666 
L 1569 4666 
L 2759 1491 
L 3956 4666 
L 4897 4666 
L 4897 0 
L 4281 0 
L 4281 4097 
L 3078 897 
L 2444 897 
L 1241 4097 
L 1241 0 
L 628 0 
L 628 4666 
z
" transform="scale(0.015625)"/>
       <path id="DejaVuSans-e9" d="M 3597 1894 
L 3597 1613 
L 953 1613 
Q 991 1019 1311 708 
Q 1631 397 2203 397 
Q 2534 397 2845 478 
Q 3156 559 3463 722 
L 3463 178 
Q 3153 47 2828 -22 
Q 2503 -91 2169 -91 
Q 1331 -91 842 396 
Q 353 884 353 1716 
Q 353 2575 817 3079 
Q 1281 3584 2069 3584 
Q 2775 3584 3186 3129 
Q 3597 2675 3597 1894 
z
M 3022 2063 
Q 3016 2534 2758 2815 
Q 2500 3097 2075 3097 
Q 1594 3097 1305 2825 
Q 1016 2553 972 2059 
L 3022 2063 
z
M 2466 5119 
L 3088 5119 
L 2070 3944 
L 1591 3944 
L 2466 5119 
z
" transform="scale(0.015625)"/>
       <path id="DejaVuSans-75" d="M 544 1381 
L 544 3500 
L 1119 3500 
L 1119 1403 
Q 1119 906 1312 657 
Q 1506 409 1894 409 
Q 2359 409 2629 706 
Q 2900 1003 2900 1516 
L 2900 3500 
L 3475 3500 
L 3475 0 
L 2900 0 
L 2900 538 
Q 2691 219 2414 64 
Q 2138 -91 1772 -91 
Q 1169 -91 856 284 
Q 544 659 544 1381 
z
M 1991 3584 
L 1991 3584 
z
" transform="scale(0.015625)"/>
      </defs>
      <use xlink:href="#DejaVuSans-4d"/>
      <use xlink:href="#DejaVuSans-e9" x="86.279297"/>
      <use xlink:href="#DejaVuSans-64" x="147.802734"/>
      <use xlink:href="#DejaVuSans-69" x="211.279297"/>
      <use xlink:href="#DejaVuSans-61" x="239.0625"/>
      <use xlink:href="#DejaVuSans-20" x="300.341797"/>
      <use xlink:href="#DejaVuSans-41" x="332.128906"/>
      <use xlink:href="#DejaVuSans-6e" x="400.537109"/>
      <use xlink:href="#DejaVuSans-75" x="463.916016"/>
      <use xlink:href="#DejaVuSans-61" x="527.294922"/>
      <use xlink:href="#DejaVuSans-6c" x="588.574219"/>
     </g>
    </g>
   </g>
  </g>
 </g>
 <defs>
  <clipPath id="p97c515b1bd">
   <rect x="57.6" y="41.472" width="357.12" height="266.112"/>
  </clipPath>
 </defs>
</svg>
