<?xml version="1.0" encoding="utf-8" standalone="no"?>
<!DOCTYPE svg PUBLIC "-//W3C//DTD SVG 1.1//EN"
  "http://www.w3.org/Graphics/SVG/1.1/DTD/svg11.dtd">
<svg xmlns:xlink="http://www.w3.org/1999/xlink" width="460.8pt" height="345.6pt" viewBox="0 0 460.8 345.6" xmlns="http://www.w3.org/2000/svg" version="1.1">
 <metadata>
  <rdf:RDF xmlns:dc="http://purl.org/dc/elements/1.1/" xmlns:cc="http://creativecommons.org/ns#" xmlns:rdf="http://www.w3.org/1999/02/22-rdf-syntax-ns#">
   <cc:Work>
    <dc:type rdf:resource="http://purl.org/dc/dcmitype/StillImage"/>
    <dc:date>2024-09-12T08:29:47.016955</dc:date>
    <dc:format>image/svg+xml</dc:format>
    <dc:creator>
     <cc:Agent>
      <dc:title>Matplotlib v3.9.2, https://matplotlib.org/</dc:title>
     </cc:Agent>
    </dc:creator>
   </cc:Work>
  </rdf:RDF>
 </metadata>
 <defs>
  <style type="text/css">*{stroke-linejoin: round; stroke-linecap: butt}</style>
 </defs>
 <g id="figure_1">
  <g id="patch_1">
   <path d="M 0 345.6 
L 460.8 345.6 
L 460.8 0 
L 0 0 
z
" style="fill: #ffffff"/>
  </g>
  <g id="axes_1">
   <g id="patch_2">
    <path d="M 57.6 307.584 
L 414.72 307.584 
L 414.72 41.472 
L 57.6 41.472 
z
" style="fill: #ffffff"/>
   </g>
   <g id="matplotlib.axis_1">
    <g id="xtick_1">
     <g id="line2d_1">
      <defs>
       <path id="m605abc19dd" d="M 0 0 
L 0 3.5 
" style="stroke: #000000; stroke-width: 0.8"/>
      </defs>
      <g>
       <use xlink:href="#m605abc19dd" x="91.855375" y="307.584" style="stroke: #000000; stroke-width: 0.8"/>
      </g>
     </g>
     <g id="text_1">
      <!-- 2004 -->
      <g transform="translate(79.130375 322.182437) scale(0.1 -0.1)">
       <defs>
        <path id="DejaVuSans-32" d="M 1228 531 
L 3431 531 
L 3431 0 
L 469 0 
L 469 531 
Q 828 903 1448 1529 
Q 2069 2156 2228 2338 
Q 2531 2678 2651 2914 
Q 2772 3150 2772 3378 
Q 2772 3750 2511 3984 
Q 2250 4219 1831 4219 
Q 1534 4219 1204 4116 
Q 875 4013 500 3803 
L 500 4441 
Q 881 4594 1212 4672 
Q 1544 4750 1819 4750 
Q 2544 4750 2975 4387 
Q 3406 4025 3406 3419 
Q 3406 3131 3298 2873 
Q 3191 2616 2906 2266 
Q 2828 2175 2409 1742 
Q 1991 1309 1228 531 
z
" transform="scale(0.015625)"/>
        <path id="DejaVuSans-30" d="M 2034 4250 
Q 1547 4250 1301 3770 
Q 1056 3291 1056 2328 
Q 1056 1369 1301 889 
Q 1547 409 2034 409 
Q 2525 409 2770 889 
Q 3016 1369 3016 2328 
Q 3016 3291 2770 3770 
Q 2525 4250 2034 4250 
z
M 2034 4750 
Q 2819 4750 3233 4129 
Q 3647 3509 3647 2328 
Q 3647 1150 3233 529 
Q 2819 -91 2034 -91 
Q 1250 -91 836 529 
Q 422 1150 422 2328 
Q 422 3509 836 4129 
Q 1250 4750 2034 4750 
z
" transform="scale(0.015625)"/>
        <path id="DejaVuSans-34" d="M 2419 4116 
L 825 1625 
L 2419 1625 
L 2419 4116 
z
M 2253 4666 
L 3047 4666 
L 3047 1625 
L 3713 1625 
L 3713 1100 
L 3047 1100 
L 3047 0 
L 2419 0 
L 2419 1100 
L 313 1100 
L 313 1709 
L 2253 4666 
z
" transform="scale(0.015625)"/>
       </defs>
       <use xlink:href="#DejaVuSans-32"/>
       <use xlink:href="#DejaVuSans-30" x="63.623047"/>
       <use xlink:href="#DejaVuSans-30" x="127.246094"/>
       <use xlink:href="#DejaVuSans-34" x="190.869141"/>
      </g>
     </g>
    </g>
    <g id="xtick_2">
     <g id="line2d_2">
      <g>
       <use xlink:href="#m605abc19dd" x="127.950048" y="307.584" style="stroke: #000000; stroke-width: 0.8"/>
      </g>
     </g>
     <g id="text_2">
      <!-- 2006 -->
      <g transform="translate(115.225048 322.182437) scale(0.1 -0.1)">
       <defs>
        <path id="DejaVuSans-36" d="M 2113 2584 
Q 1688 2584 1439 2293 
Q 1191 2003 1191 1497 
Q 1191 994 1439 701 
Q 1688 409 2113 409 
Q 2538 409 2786 701 
Q 3034 994 3034 1497 
Q 3034 2003 2786 2293 
Q 2538 2584 2113 2584 
z
M 3366 4563 
L 3366 3988 
Q 3128 4100 2886 4159 
Q 2644 4219 2406 4219 
Q 1781 4219 1451 3797 
Q 1122 3375 1075 2522 
Q 1259 2794 1537 2939 
Q 1816 3084 2150 3084 
Q 2853 3084 3261 2657 
Q 3669 2231 3669 1497 
Q 3669 778 3244 343 
Q 2819 -91 2113 -91 
Q 1303 -91 875 529 
Q 447 1150 447 2328 
Q 447 3434 972 4092 
Q 1497 4750 2381 4750 
Q 2619 4750 2861 4703 
Q 3103 4656 3366 4563 
z
" transform="scale(0.015625)"/>
       </defs>
       <use xlink:href="#DejaVuSans-32"/>
       <use xlink:href="#DejaVuSans-30" x="63.623047"/>
       <use xlink:href="#DejaVuSans-30" x="127.246094"/>
       <use xlink:href="#DejaVuSans-36" x="190.869141"/>
      </g>
     </g>
    </g>
    <g id="xtick_3">
     <g id="line2d_3">
      <g>
       <use xlink:href="#m605abc19dd" x="163.995343" y="307.584" style="stroke: #000000; stroke-width: 0.8"/>
      </g>
     </g>
     <g id="text_3">
      <!-- 2008 -->
      <g transform="translate(151.270343 322.182437) scale(0.1 -0.1)">
       <defs>
        <path id="DejaVuSans-38" d="M 2034 2216 
Q 1584 2216 1326 1975 
Q 1069 1734 1069 1313 
Q 1069 891 1326 650 
Q 1584 409 2034 409 
Q 2484 409 2743 651 
Q 3003 894 3003 1313 
Q 3003 1734 2745 1975 
Q 2488 2216 2034 2216 
z
M 1403 2484 
Q 997 2584 770 2862 
Q 544 3141 544 3541 
Q 544 4100 942 4425 
Q 1341 4750 2034 4750 
Q 2731 4750 3128 4425 
Q 3525 4100 3525 3541 
Q 3525 3141 3298 2862 
Q 3072 2584 2669 2484 
Q 3125 2378 3379 2068 
Q 3634 1759 3634 1313 
Q 3634 634 3220 271 
Q 2806 -91 2034 -91 
Q 1263 -91 848 271 
Q 434 634 434 1313 
Q 434 1759 690 2068 
Q 947 2378 1403 2484 
z
M 1172 3481 
Q 1172 3119 1398 2916 
Q 1625 2713 2034 2713 
Q 2441 2713 2670 2916 
Q 2900 3119 2900 3481 
Q 2900 3844 2670 4047 
Q 2441 4250 2034 4250 
Q 1625 4250 1398 4047 
Q 1172 3844 1172 3481 
z
" transform="scale(0.015625)"/>
       </defs>
       <use xlink:href="#DejaVuSans-32"/>
       <use xlink:href="#DejaVuSans-30" x="63.623047"/>
       <use xlink:href="#DejaVuSans-30" x="127.246094"/>
       <use xlink:href="#DejaVuSans-38" x="190.869141"/>
      </g>
     </g>
    </g>
    <g id="xtick_4">
     <g id="line2d_4">
      <g>
       <use xlink:href="#m605abc19dd" x="200.090016" y="307.584" style="stroke: #000000; stroke-width: 0.8"/>
      </g>
     </g>
     <g id="text_4">
      <!-- 2010 -->
      <g transform="translate(187.365016 322.182437) scale(0.1 -0.1)">
       <defs>
        <path id="DejaVuSans-31" d="M 794 531 
L 1825 531 
L 1825 4091 
L 703 3866 
L 703 4441 
L 1819 4666 
L 2450 4666 
L 2450 531 
L 3481 531 
L 3481 0 
L 794 0 
L 794 531 
z
" transform="scale(0.015625)"/>
       </defs>
       <use xlink:href="#DejaVuSans-32"/>
       <use xlink:href="#DejaVuSans-30" x="63.623047"/>
       <use xlink:href="#DejaVuSans-31" x="127.246094"/>
       <use xlink:href="#DejaVuSans-30" x="190.869141"/>
      </g>
     </g>
    </g>
    <g id="xtick_5">
     <g id="line2d_5">
      <g>
       <use xlink:href="#m605abc19dd" x="236.135311" y="307.584" style="stroke: #000000; stroke-width: 0.8"/>
      </g>
     </g>
     <g id="text_5">
      <!-- 2012 -->
      <g transform="translate(223.410311 322.182437) scale(0.1 -0.1)">
       <use xlink:href="#DejaVuSans-32"/>
       <use xlink:href="#DejaVuSans-30" x="63.623047"/>
       <use xlink:href="#DejaVuSans-31" x="127.246094"/>
       <use xlink:href="#DejaVuSans-32" x="190.869141"/>
      </g>
     </g>
    </g>
    <g id="xtick_6">
     <g id="line2d_6">
      <g>
       <use xlink:href="#m605abc19dd" x="272.229984" y="307.584" style="stroke: #000000; stroke-width: 0.8"/>
      </g>
     </g>
     <g id="text_6">
      <!-- 2014 -->
      <g transform="translate(259.504984 322.182437) scale(0.1 -0.1)">
       <use xlink:href="#DejaVuSans-32"/>
       <use xlink:href="#DejaVuSans-30" x="63.623047"/>
       <use xlink:href="#DejaVuSans-31" x="127.246094"/>
       <use xlink:href="#DejaVuSans-34" x="190.869141"/>
      </g>
     </g>
    </g>
    <g id="xtick_7">
     <g id="line2d_7">
      <g>
       <use xlink:href="#m605abc19dd" x="308.27528" y="307.584" style="stroke: #000000; stroke-width: 0.8"/>
      </g>
     </g>
     <g id="text_7">
      <!-- 2016 -->
      <g transform="translate(295.55028 322.182437) scale(0.1 -0.1)">
       <use xlink:href="#DejaVuSans-32"/>
       <use xlink:href="#DejaVuSans-30" x="63.623047"/>
       <use xlink:href="#DejaVuSans-31" x="127.246094"/>
       <use xlink:href="#DejaVuSans-36" x="190.869141"/>
      </g>
     </g>
    </g>
    <g id="xtick_8">
     <g id="line2d_8">
      <g>
       <use xlink:href="#m605abc19dd" x="344.369952" y="307.584" style="stroke: #000000; stroke-width: 0.8"/>
      </g>
     </g>
     <g id="text_8">
      <!-- 2018 -->
      <g transform="translate(331.644952 322.182437) scale(0.1 -0.1)">
       <use xlink:href="#DejaVuSans-32"/>
       <use xlink:href="#DejaVuSans-30" x="63.623047"/>
       <use xlink:href="#DejaVuSans-31" x="127.246094"/>
       <use xlink:href="#DejaVuSans-38" x="190.869141"/>
      </g>
     </g>
    </g>
    <g id="xtick_9">
     <g id="line2d_9">
      <g>
       <use xlink:href="#m605abc19dd" x="380.415248" y="307.584" style="stroke: #000000; stroke-width: 0.8"/>
      </g>
     </g>
     <g id="text_9">
      <!-- 2020 -->
      <g transform="translate(367.690248 322.182437) scale(0.1 -0.1)">
       <use xlink:href="#DejaVuSans-32"/>
       <use xlink:href="#DejaVuSans-30" x="63.623047"/>
       <use xlink:href="#DejaVuSans-32" x="127.246094"/>
       <use xlink:href="#DejaVuSans-30" x="190.869141"/>
      </g>
     </g>
    </g>
    <g id="text_10">
     <!-- Ano -->
     <g transform="translate(226.511562 335.860562) scale(0.1 -0.1)">
      <defs>
       <path id="DejaVuSans-41" d="M 2188 4044 
L 1331 1722 
L 3047 1722 
L 2188 4044 
z
M 1831 4666 
L 2547 4666 
L 4325 0 
L 3669 0 
L 3244 1197 
L 1141 1197 
L 716 0 
L 50 0 
L 1831 4666 
z
" transform="scale(0.015625)"/>
       <path id="DejaVuSans-6e" d="M 3513 2113 
L 3513 0 
L 2938 0 
L 2938 2094 
Q 2938 2591 2744 2837 
Q 2550 3084 2163 3084 
Q 1697 3084 1428 2787 
Q 1159 2491 1159 1978 
L 1159 0 
L 581 0 
L 581 3500 
L 1159 3500 
L 1159 2956 
Q 1366 3272 1645 3428 
Q 1925 3584 2291 3584 
Q 2894 3584 3203 3211 
Q 3513 2838 3513 2113 
z
" transform="scale(0.015625)"/>
       <path id="DejaVuSans-6f" d="M 1959 3097 
Q 1497 3097 1228 2736 
Q 959 2375 959 1747 
Q 959 1119 1226 758 
Q 1494 397 1959 397 
Q 2419 397 2687 759 
Q 2956 1122 2956 1747 
Q 2956 2369 2687 2733 
Q 2419 3097 1959 3097 
z
M 1959 3584 
Q 2709 3584 3137 3096 
Q 3566 2609 3566 1747 
Q 3566 888 3137 398 
Q 2709 -91 1959 -91 
Q 1206 -91 779 398 
Q 353 888 353 1747 
Q 353 2609 779 3096 
Q 1206 3584 1959 3584 
z
" transform="scale(0.015625)"/>
      </defs>
      <use xlink:href="#DejaVuSans-41"/>
      <use xlink:href="#DejaVuSans-6e" x="68.408203"/>
      <use xlink:href="#DejaVuSans-6f" x="131.787109"/>
     </g>
    </g>
   </g>
   <g id="matplotlib.axis_2">
    <g id="ytick_1">
     <g id="line2d_10">
      <defs>
       <path id="m9ccd42bc03" d="M 0 0 
L -3.5 0 
" style="stroke: #000000; stroke-width: 0.8"/>
      </defs>
      <g>
       <use xlink:href="#m9ccd42bc03" x="57.6" y="307.584" style="stroke: #000000; stroke-width: 0.8"/>
      </g>
     </g>
     <g id="text_11">
      <!-- −0.100 -->
      <g transform="translate(13.592188 311.383219) scale(0.1 -0.1)">
       <defs>
        <path id="DejaVuSans-2212" d="M 678 2272 
L 4684 2272 
L 4684 1741 
L 678 1741 
L 678 2272 
z
" transform="scale(0.015625)"/>
        <path id="DejaVuSans-2e" d="M 684 794 
L 1344 794 
L 1344 0 
L 684 0 
L 684 794 
z
" transform="scale(0.015625)"/>
       </defs>
       <use xlink:href="#DejaVuSans-2212"/>
       <use xlink:href="#DejaVuSans-30" x="83.789062"/>
       <use xlink:href="#DejaVuSans-2e" x="147.412109"/>
       <use xlink:href="#DejaVuSans-31" x="179.199219"/>
       <use xlink:href="#DejaVuSans-30" x="242.822266"/>
       <use xlink:href="#DejaVuSans-30" x="306.445312"/>
      </g>
     </g>
    </g>
    <g id="ytick_2">
     <g id="line2d_11">
      <g>
       <use xlink:href="#m9ccd42bc03" x="57.6" y="274.32" style="stroke: #000000; stroke-width: 0.8"/>
      </g>
     </g>
     <g id="text_12">
      <!-- −0.075 -->
      <g transform="translate(13.592188 278.119219) scale(0.1 -0.1)">
       <defs>
        <path id="DejaVuSans-37" d="M 525 4666 
L 3525 4666 
L 3525 4397 
L 1831 0 
L 1172 0 
L 2766 4134 
L 525 4134 
L 525 4666 
z
" transform="scale(0.015625)"/>
        <path id="DejaVuSans-35" d="M 691 4666 
L 3169 4666 
L 3169 4134 
L 1269 4134 
L 1269 2991 
Q 1406 3038 1543 3061 
Q 1681 3084 1819 3084 
Q 2600 3084 3056 2656 
Q 3513 2228 3513 1497 
Q 3513 744 3044 326 
Q 2575 -91 1722 -91 
Q 1428 -91 1123 -41 
Q 819 9 494 109 
L 494 744 
Q 775 591 1075 516 
Q 1375 441 1709 441 
Q 2250 441 2565 725 
Q 2881 1009 2881 1497 
Q 2881 1984 2565 2268 
Q 2250 2553 1709 2553 
Q 1456 2553 1204 2497 
Q 953 2441 691 2322 
L 691 4666 
z
" transform="scale(0.015625)"/>
       </defs>
       <use xlink:href="#DejaVuSans-2212"/>
       <use xlink:href="#DejaVuSans-30" x="83.789062"/>
       <use xlink:href="#DejaVuSans-2e" x="147.412109"/>
       <use xlink:href="#DejaVuSans-30" x="179.199219"/>
       <use xlink:href="#DejaVuSans-37" x="242.822266"/>
       <use xlink:href="#DejaVuSans-35" x="306.445312"/>
      </g>
     </g>
    </g>
    <g id="ytick_3">
     <g id="line2d_12">
      <g>
       <use xlink:href="#m9ccd42bc03" x="57.6" y="241.056" style="stroke: #000000; stroke-width: 0.8"/>
      </g>
     </g>
     <g id="text_13">
      <!-- −0.050 -->
      <g transform="translate(13.592188 244.855219) scale(0.1 -0.1)">
       <use xlink:href="#DejaVuSans-2212"/>
       <use xlink:href="#DejaVuSans-30" x="83.789062"/>
       <use xlink:href="#DejaVuSans-2e" x="147.412109"/>
       <use xlink:href="#DejaVuSans-30" x="179.199219"/>
       <use xlink:href="#DejaVuSans-35" x="242.822266"/>
       <use xlink:href="#DejaVuSans-30" x="306.445312"/>
      </g>
     </g>
    </g>
    <g id="ytick_4">
     <g id="line2d_13">
      <g>
       <use xlink:href="#m9ccd42bc03" x="57.6" y="207.792" style="stroke: #000000; stroke-width: 0.8"/>
      </g>
     </g>
     <g id="text_14">
      <!-- −0.025 -->
      <g transform="translate(13.592188 211.591219) scale(0.1 -0.1)">
       <use xlink:href="#DejaVuSans-2212"/>
       <use xlink:href="#DejaVuSans-30" x="83.789062"/>
       <use xlink:href="#DejaVuSans-2e" x="147.412109"/>
       <use xlink:href="#DejaVuSans-30" x="179.199219"/>
       <use xlink:href="#DejaVuSans-32" x="242.822266"/>
       <use xlink:href="#DejaVuSans-35" x="306.445312"/>
      </g>
     </g>
    </g>
    <g id="ytick_5">
     <g id="line2d_14">
      <g>
       <use xlink:href="#m9ccd42bc03" x="57.6" y="174.528" style="stroke: #000000; stroke-width: 0.8"/>
      </g>
     </g>
     <g id="text_15">
      <!-- 0.000 -->
      <g transform="translate(21.971875 178.327219) scale(0.1 -0.1)">
       <use xlink:href="#DejaVuSans-30"/>
       <use xlink:href="#DejaVuSans-2e" x="63.623047"/>
       <use xlink:href="#DejaVuSans-30" x="95.410156"/>
       <use xlink:href="#DejaVuSans-30" x="159.033203"/>
       <use xlink:href="#DejaVuSans-30" x="222.65625"/>
      </g>
     </g>
    </g>
    <g id="ytick_6">
     <g id="line2d_15">
      <g>
       <use xlink:href="#m9ccd42bc03" x="57.6" y="141.264" style="stroke: #000000; stroke-width: 0.8"/>
      </g>
     </g>
     <g id="text_16">
      <!-- 0.025 -->
      <g transform="translate(21.971875 145.063219) scale(0.1 -0.1)">
       <use xlink:href="#DejaVuSans-30"/>
       <use xlink:href="#DejaVuSans-2e" x="63.623047"/>
       <use xlink:href="#DejaVuSans-30" x="95.410156"/>
       <use xlink:href="#DejaVuSans-32" x="159.033203"/>
       <use xlink:href="#DejaVuSans-35" x="222.65625"/>
      </g>
     </g>
    </g>
    <g id="ytick_7">
     <g id="line2d_16">
      <g>
       <use xlink:href="#m9ccd42bc03" x="57.6" y="108" style="stroke: #000000; stroke-width: 0.8"/>
      </g>
     </g>
     <g id="text_17">
      <!-- 0.050 -->
      <g transform="translate(21.971875 111.799219) scale(0.1 -0.1)">
       <use xlink:href="#DejaVuSans-30"/>
       <use xlink:href="#DejaVuSans-2e" x="63.623047"/>
       <use xlink:href="#DejaVuSans-30" x="95.410156"/>
       <use xlink:href="#DejaVuSans-35" x="159.033203"/>
       <use xlink:href="#DejaVuSans-30" x="222.65625"/>
      </g>
     </g>
    </g>
    <g id="ytick_8">
     <g id="line2d_17">
      <g>
       <use xlink:href="#m9ccd42bc03" x="57.6" y="74.736" style="stroke: #000000; stroke-width: 0.8"/>
      </g>
     </g>
     <g id="text_18">
      <!-- 0.075 -->
      <g transform="translate(21.971875 78.535219) scale(0.1 -0.1)">
       <use xlink:href="#DejaVuSans-30"/>
       <use xlink:href="#DejaVuSans-2e" x="63.623047"/>
       <use xlink:href="#DejaVuSans-30" x="95.410156"/>
       <use xlink:href="#DejaVuSans-37" x="159.033203"/>
       <use xlink:href="#DejaVuSans-35" x="222.65625"/>
      </g>
     </g>
    </g>
    <g id="ytick_9">
     <g id="line2d_18">
      <g>
       <use xlink:href="#m9ccd42bc03" x="57.6" y="41.472" style="stroke: #000000; stroke-width: 0.8"/>
      </g>
     </g>
     <g id="text_19">
      <!-- 0.100 -->
      <g transform="translate(21.971875 45.271219) scale(0.1 -0.1)">
       <use xlink:href="#DejaVuSans-30"/>
       <use xlink:href="#DejaVuSans-2e" x="63.623047"/>
       <use xlink:href="#DejaVuSans-31" x="95.410156"/>
       <use xlink:href="#DejaVuSans-30" x="159.033203"/>
       <use xlink:href="#DejaVuSans-30" x="222.65625"/>
      </g>
     </g>
    </g>
    <g id="text_20">
     <!-- Crescimento real -->
     <g transform="translate(7.5125 216.978781) rotate(-90) scale(0.1 -0.1)">
      <defs>
       <path id="DejaVuSans-43" d="M 4122 4306 
L 4122 3641 
Q 3803 3938 3442 4084 
Q 3081 4231 2675 4231 
Q 1875 4231 1450 3742 
Q 1025 3253 1025 2328 
Q 1025 1406 1450 917 
Q 1875 428 2675 428 
Q 3081 428 3442 575 
Q 3803 722 4122 1019 
L 4122 359 
Q 3791 134 3420 21 
Q 3050 -91 2638 -91 
Q 1578 -91 968 557 
Q 359 1206 359 2328 
Q 359 3453 968 4101 
Q 1578 4750 2638 4750 
Q 3056 4750 3426 4639 
Q 3797 4528 4122 4306 
z
" transform="scale(0.015625)"/>
       <path id="DejaVuSans-72" d="M 2631 2963 
Q 2534 3019 2420 3045 
Q 2306 3072 2169 3072 
Q 1681 3072 1420 2755 
Q 1159 2438 1159 1844 
L 1159 0 
L 581 0 
L 581 3500 
L 1159 3500 
L 1159 2956 
Q 1341 3275 1631 3429 
Q 1922 3584 2338 3584 
Q 2397 3584 2469 3576 
Q 2541 3569 2628 3553 
L 2631 2963 
z
" transform="scale(0.015625)"/>
       <path id="DejaVuSans-65" d="M 3597 1894 
L 3597 1613 
L 953 1613 
Q 991 1019 1311 708 
Q 1631 397 2203 397 
Q 2534 397 2845 478 
Q 3156 559 3463 722 
L 3463 178 
Q 3153 47 2828 -22 
Q 2503 -91 2169 -91 
Q 1331 -91 842 396 
Q 353 884 353 1716 
Q 353 2575 817 3079 
Q 1281 3584 2069 3584 
Q 2775 3584 3186 3129 
Q 3597 2675 3597 1894 
z
M 3022 2063 
Q 3016 2534 2758 2815 
Q 2500 3097 2075 3097 
Q 1594 3097 1305 2825 
Q 1016 2553 972 2059 
L 3022 2063 
z
" transform="scale(0.015625)"/>
       <path id="DejaVuSans-73" d="M 2834 3397 
L 2834 2853 
Q 2591 2978 2328 3040 
Q 2066 3103 1784 3103 
Q 1356 3103 1142 2972 
Q 928 2841 928 2578 
Q 928 2378 1081 2264 
Q 1234 2150 1697 2047 
L 1894 2003 
Q 2506 1872 2764 1633 
Q 3022 1394 3022 966 
Q 3022 478 2636 193 
Q 2250 -91 1575 -91 
Q 1294 -91 989 -36 
Q 684 19 347 128 
L 347 722 
Q 666 556 975 473 
Q 1284 391 1588 391 
Q 1994 391 2212 530 
Q 2431 669 2431 922 
Q 2431 1156 2273 1281 
Q 2116 1406 1581 1522 
L 1381 1569 
Q 847 1681 609 1914 
Q 372 2147 372 2553 
Q 372 3047 722 3315 
Q 1072 3584 1716 3584 
Q 2034 3584 2315 3537 
Q 2597 3491 2834 3397 
z
" transform="scale(0.015625)"/>
       <path id="DejaVuSans-63" d="M 3122 3366 
L 3122 2828 
Q 2878 2963 2633 3030 
Q 2388 3097 2138 3097 
Q 1578 3097 1268 2742 
Q 959 2388 959 1747 
Q 959 1106 1268 751 
Q 1578 397 2138 397 
Q 2388 397 2633 464 
Q 2878 531 3122 666 
L 3122 134 
Q 2881 22 2623 -34 
Q 2366 -91 2075 -91 
Q 1284 -91 818 406 
Q 353 903 353 1747 
Q 353 2603 823 3093 
Q 1294 3584 2113 3584 
Q 2378 3584 2631 3529 
Q 2884 3475 3122 3366 
z
" transform="scale(0.015625)"/>
       <path id="DejaVuSans-69" d="M 603 3500 
L 1178 3500 
L 1178 0 
L 603 0 
L 603 3500 
z
M 603 4863 
L 1178 4863 
L 1178 4134 
L 603 4134 
L 603 4863 
z
" transform="scale(0.015625)"/>
       <path id="DejaVuSans-6d" d="M 3328 2828 
Q 3544 3216 3844 3400 
Q 4144 3584 4550 3584 
Q 5097 3584 5394 3201 
Q 5691 2819 5691 2113 
L 5691 0 
L 5113 0 
L 5113 2094 
Q 5113 2597 4934 2840 
Q 4756 3084 4391 3084 
Q 3944 3084 3684 2787 
Q 3425 2491 3425 1978 
L 3425 0 
L 2847 0 
L 2847 2094 
Q 2847 2600 2669 2842 
Q 2491 3084 2119 3084 
Q 1678 3084 1418 2786 
Q 1159 2488 1159 1978 
L 1159 0 
L 581 0 
L 581 3500 
L 1159 3500 
L 1159 2956 
Q 1356 3278 1631 3431 
Q 1906 3584 2284 3584 
Q 2666 3584 2933 3390 
Q 3200 3197 3328 2828 
z
" transform="scale(0.015625)"/>
       <path id="DejaVuSans-74" d="M 1172 4494 
L 1172 3500 
L 2356 3500 
L 2356 3053 
L 1172 3053 
L 1172 1153 
Q 1172 725 1289 603 
Q 1406 481 1766 481 
L 2356 481 
L 2356 0 
L 1766 0 
Q 1100 0 847 248 
Q 594 497 594 1153 
L 594 3053 
L 172 3053 
L 172 3500 
L 594 3500 
L 594 4494 
L 1172 4494 
z
" transform="scale(0.015625)"/>
       <path id="DejaVuSans-20" transform="scale(0.015625)"/>
       <path id="DejaVuSans-61" d="M 2194 1759 
Q 1497 1759 1228 1600 
Q 959 1441 959 1056 
Q 959 750 1161 570 
Q 1363 391 1709 391 
Q 2188 391 2477 730 
Q 2766 1069 2766 1631 
L 2766 1759 
L 2194 1759 
z
M 3341 1997 
L 3341 0 
L 2766 0 
L 2766 531 
Q 2569 213 2275 61 
Q 1981 -91 1556 -91 
Q 1019 -91 701 211 
Q 384 513 384 1019 
Q 384 1609 779 1909 
Q 1175 2209 1959 2209 
L 2766 2209 
L 2766 2266 
Q 2766 2663 2505 2880 
Q 2244 3097 1772 3097 
Q 1472 3097 1187 3025 
Q 903 2953 641 2809 
L 641 3341 
Q 956 3463 1253 3523 
Q 1550 3584 1831 3584 
Q 2591 3584 2966 3190 
Q 3341 2797 3341 1997 
z
" transform="scale(0.015625)"/>
       <path id="DejaVuSans-6c" d="M 603 4863 
L 1178 4863 
L 1178 0 
L 603 0 
L 603 4863 
z
" transform="scale(0.015625)"/>
      </defs>
      <use xlink:href="#DejaVuSans-43"/>
      <use xlink:href="#DejaVuSans-72" x="69.824219"/>
      <use xlink:href="#DejaVuSans-65" x="108.6875"/>
      <use xlink:href="#DejaVuSans-73" x="170.210938"/>
      <use xlink:href="#DejaVuSans-63" x="222.310547"/>
      <use xlink:href="#DejaVuSans-69" x="277.291016"/>
      <use xlink:href="#DejaVuSans-6d" x="305.074219"/>
      <use xlink:href="#DejaVuSans-65" x="402.486328"/>
      <use xlink:href="#DejaVuSans-6e" x="464.009766"/>
      <use xlink:href="#DejaVuSans-74" x="527.388672"/>
      <use xlink:href="#DejaVuSans-6f" x="566.597656"/>
      <use xlink:href="#DejaVuSans-20" x="627.779297"/>
      <use xlink:href="#DejaVuSans-72" x="659.566406"/>
      <use xlink:href="#DejaVuSans-65" x="698.429688"/>
      <use xlink:href="#DejaVuSans-61" x="759.953125"/>
      <use xlink:href="#DejaVuSans-6c" x="821.232422"/>
     </g>
    </g>
   </g>
   <g id="line2d_19">
    <path d="M 73.832727 108.967656 
L 91.855375 79.307972 
L 109.9274 100.954317 
L 127.950048 131.016178 
L 145.972695 86.503845 
L 163.995343 115.086787 
L 182.067368 166.711397 
L 200.090016 71.85325 
L 218.112664 97.004225 
L 236.135311 125.622427 
L 254.207336 108.842218 
L 272.229984 128.593796 
L 290.252632 225.490023 
L 308.27528 248.420226 
L 326.347305 102.205472 
L 344.369952 139.402477 
L 362.3926 167.037228 
L 380.415248 203.08216 
L 398.487273 90.074606 
" clip-path="url(#pc10a1664ac)" style="fill: none; stroke: #dcdcdc; stroke-width: 1.5; stroke-linecap: square"/>
   </g>
   <g id="line2d_20">
    <path d="M 73.832727 94.054328 
L 91.855375 78.93406 
L 109.9274 121.284425 
L 127.950048 110.396898 
L 145.972695 104.387145 
L 163.995343 96.184245 
L 182.067368 96.065054 
L 200.090016 127.288984 
L 218.112664 109.484513 
L 236.135311 114.789119 
L 254.207336 150.339551 
L 272.229984 110.324467 
L 290.252632 189.449228 
L 308.27528 259.606823 
L 326.347305 71.249116 
L 344.369952 146.546625 
L 362.3926 183.501203 
L 380.415248 222.777521 
L 398.487273 96.890049 
" clip-path="url(#pc10a1664ac)" style="fill: none; stroke: #dcdcdc; stroke-width: 1.5; stroke-linecap: square"/>
   </g>
   <g id="line2d_21">
    <path d="M 73.832727 154.66859 
L 91.855375 110.112499 
L 109.9274 143.430026 
L 127.950048 67.823385 
L 145.972695 138.801745 
L 163.995343 73.934201 
L 182.067368 172.133584 
L 200.090016 93.338007 
L 218.112664 119.385098 
L 236.135311 163.095341 
L 254.207336 115.778312 
L 272.229984 123.983775 
L 290.252632 216.572581 
L 308.27528 224.67358 
L 326.347305 154.516736 
L 344.369952 153.533305 
L 362.3926 148.715261 
L 380.415248 246.373665 
L 398.487273 113.157867 
" clip-path="url(#pc10a1664ac)" style="fill: none; stroke: #dcdcdc; stroke-width: 1.5; stroke-linecap: square"/>
   </g>
   <g id="line2d_22">
    <path d="M 73.832727 141.639314 
L 91.855375 118.66018 
L 109.9274 149.586209 
L 127.950048 137.673425 
L 145.972695 137.10799 
L 163.995343 121.454801 
L 182.067368 158.205249 
L 200.090016 124.881487 
L 218.112664 113.128344 
L 236.135311 162.905902 
L 254.207336 130.987851 
L 272.229984 159.68376 
L 290.252632 201.459086 
L 308.27528 226.479856 
L 326.347305 167.600419 
L 344.369952 150.433231 
L 362.3926 156.837177 
L 380.415248 238.416021 
L 398.487273 106.940717 
" clip-path="url(#pc10a1664ac)" style="fill: none; stroke: #dcdcdc; stroke-width: 1.5; stroke-linecap: square"/>
   </g>
   <g id="line2d_23">
    <path d="M 73.832727 105.957857 
L 91.855375 128.404872 
L 109.9274 144.748282 
L 127.950048 77.91517 
L 145.972695 148.647944 
L 163.995343 118.93781 
L 182.067368 155.518899 
L 200.090016 46.312767 
L 218.112664 99.837522 
L 236.135311 129.211361 
L 254.207336 103.20031 
L 272.229984 146.381834 
L 290.252632 205.758637 
L 308.27528 211.470066 
L 326.347305 173.884527 
L 344.369952 158.940924 
L 362.3926 166.747301 
L 380.415248 230.563627 
L 398.487273 95.22983 
" clip-path="url(#pc10a1664ac)" style="fill: none; stroke: #dcdcdc; stroke-width: 1.5; stroke-linecap: square"/>
   </g>
   <g id="line2d_24">
    <path d="M 73.832727 212.247738 
L 91.855375 105.049914 
L 109.9274 122.760978 
L 127.950048 115.325895 
L 145.972695 108.228532 
L 163.995343 113.908 
L 182.067368 153.84059 
L 200.090016 87.848104 
L 218.112664 115.097108 
L 236.135311 128.390703 
L 254.207336 136.582895 
L 272.229984 156.00157 
L 290.252632 237.015068 
L 308.27528 213.189082 
L 326.347305 151.665487 
L 344.369952 146.549701 
L 362.3926 163.744185 
L 380.415248 229.139404 
L 398.487273 135.701037 
" clip-path="url(#pc10a1664ac)" style="fill: none; stroke: #dcdcdc; stroke-width: 1.5; stroke-linecap: square"/>
   </g>
   <g id="line2d_25">
    <path d="M 73.832727 191.707925 
L 91.855375 93.988313 
L 109.9274 135.025412 
L 127.950048 142.898995 
L 145.972695 108.748664 
L 163.995343 83.713085 
L 182.067368 162.8791 
L 200.090016 109.734434 
L 218.112664 116.826582 
L 236.135311 153.126106 
L 254.207336 167.773857 
L 272.229984 112.694326 
L 290.252632 208.925164 
L 308.27528 189.534652 
L 326.347305 127.046637 
L 344.369952 158.558024 
L 362.3926 145.455544 
L 380.415248 231.693347 
L 398.487273 90.431788 
" clip-path="url(#pc10a1664ac)" style="fill: none; stroke: #dcdcdc; stroke-width: 1.5; stroke-linecap: square"/>
   </g>
   <g id="line2d_26">
    <path d="M 73.832727 138.86879 
L 91.855375 89.125058 
L 109.9274 120.324106 
L 127.950048 121.272664 
L 145.972695 92.902216 
L 163.995343 141.526484 
L 182.067368 118.436373 
L 200.090016 102.922957 
L 218.112664 111.275756 
L 236.135311 161.344739 
L 254.207336 158.958325 
L 272.229984 166.408481 
L 290.252632 217.728073 
L 308.27528 238.617848 
L 326.347305 188.013562 
L 344.369952 198.87573 
L 362.3926 127.069364 
L 380.415248 185.43667 
L 398.487273 119.106079 
" clip-path="url(#pc10a1664ac)" style="fill: none; stroke: #dcdcdc; stroke-width: 1.5; stroke-linecap: square"/>
   </g>
   <g id="line2d_27">
    <path d="M 73.832727 143.965644 
L 91.855375 52.44495 
L 109.9274 123.781948 
L 127.950048 138.540183 
L 145.972695 110.894601 
L 163.995343 108.86926 
L 182.067368 173.857397 
L 200.090016 100.293616 
L 218.112664 148.212499 
L 236.135311 142.519587 
L 254.207336 161.324504 
L 272.229984 146.0101 
L 290.252632 214.074504 
L 308.27528 254.342416 
L 326.347305 174.75166 
L 344.369952 141.434779 
L 362.3926 166.08722 
L 380.415248 231.802978 
L 398.487273 130.926667 
" clip-path="url(#pc10a1664ac)" style="fill: none; stroke: #dcdcdc; stroke-width: 1.5; stroke-linecap: square"/>
   </g>
   <g id="line2d_28">
    <path d="M 73.832727 135.128199 
L 91.855375 5.951896 
L 109.9274 163.396781 
L 127.950048 117.409668 
L 145.972695 83.938008 
L 163.995343 155.675528 
L 182.067368 86.909159 
L 200.090016 24.552363 
L 218.112664 111.797537 
L 236.135311 136.447161 
L 254.207336 161.192 
L 272.229984 136.023993 
L 290.252632 218.734356 
L 308.27528 225.151967 
L 326.347305 104.241046 
L 344.369952 134.525762 
L 362.3926 163.781799 
L 380.415248 230.269188 
L 398.487273 117.325985 
" clip-path="url(#pc10a1664ac)" style="fill: none; stroke: #dcdcdc; stroke-width: 1.5; stroke-linecap: square"/>
   </g>
   <g id="line2d_29">
    <path d="M 73.832727 146.824392 
L 91.855375 95.014904 
L 109.9274 123.068165 
L 127.950048 127.306222 
L 145.972695 105.893765 
L 163.995343 115.422972 
L 182.067368 224.143636 
L 200.090016 60.688359 
L 218.112664 143.980865 
L 236.135311 133.527877 
L 254.207336 169.389175 
L 272.229984 185.582286 
L 290.252632 228.01325 
L 308.27528 200.205585 
L 326.347305 154.008018 
L 344.369952 156.153509 
L 362.3926 181.133502 
L 380.415248 216.033966 
L 398.487273 99.36797 
" clip-path="url(#pc10a1664ac)" style="fill: none; stroke: #dcdcdc; stroke-width: 1.5; stroke-linecap: square"/>
   </g>
   <g id="line2d_30">
    <path d="M 73.832727 132.912347 
L 91.855375 118.764887 
L 109.9274 130.533689 
L 127.950048 67.92297 
L 145.972695 82.984075 
L 163.995343 65.453284 
L 182.067368 269.21204 
L 198.826487 -1 
M 204.246004 -1 
L 218.112664 66.972956 
L 236.135311 179.957671 
L 254.207336 173.95358 
L 272.229984 122.805206 
L 290.252632 198.614187 
L 308.27528 237.308169 
L 326.347305 169.435563 
L 344.369952 135.300655 
L 362.3926 230.943027 
L 380.415248 234.403241 
L 398.487273 109.512403 
" clip-path="url(#pc10a1664ac)" style="fill: none; stroke: #dcdcdc; stroke-width: 1.5; stroke-linecap: square"/>
   </g>
   <g id="line2d_31">
    <path d="M 73.832727 186.639432 
L 91.855375 137.055707 
L 109.9274 140.271353 
L 127.950048 122.730248 
L 145.972695 133.873227 
L 163.995343 128.874707 
L 182.067368 146.148697 
L 200.090016 117.30497 
L 218.112664 145.103075 
L 236.135311 153.004343 
L 254.207336 160.651014 
L 272.229984 155.110513 
L 290.252632 205.172234 
L 308.27528 227.099206 
L 326.347305 198.909635 
L 344.369952 161.230662 
L 362.3926 168.439637 
L 380.415248 208.55156 
L 398.487273 118.355083 
" clip-path="url(#pc10a1664ac)" style="fill: none; stroke: #dcdcdc; stroke-width: 1.5; stroke-linecap: square"/>
   </g>
   <g id="line2d_32">
    <path d="M 73.832727 180.69882 
L 91.855375 93.668028 
L 109.9274 121.730034 
L 127.950048 127.704248 
L 145.972695 78.271422 
L 163.995343 97.068749 
L 182.067368 175.882315 
L 200.090016 81.901266 
L 218.112664 126.589929 
L 236.135311 159.050636 
L 254.207336 138.93217 
L 272.229984 191.176419 
L 290.252632 222.547177 
L 308.27528 207.775527 
L 326.347305 173.278544 
L 344.369952 155.322695 
L 362.3926 153.974966 
L 380.415248 219.040207 
L 398.487273 117.016374 
" clip-path="url(#pc10a1664ac)" style="fill: none; stroke: #dcdcdc; stroke-width: 1.5; stroke-linecap: square"/>
   </g>
   <g id="line2d_33">
    <path d="M 73.832727 120.753324 
L 91.855375 106.279009 
L 109.9274 169.586146 
L 127.950048 149.901868 
L 145.972695 81.079296 
L 163.995343 125.609266 
L 182.067368 199.065745 
L 200.090016 46.547434 
L 218.112664 121.02791 
L 236.135311 178.767106 
L 254.207336 101.997788 
L 272.229984 196.233178 
L 290.252632 214.835272 
L 308.27528 203.980405 
L 326.347305 148.567132 
L 344.369952 158.611095 
L 362.3926 166.19488 
L 380.415248 198.354944 
L 398.487273 132.25415 
" clip-path="url(#pc10a1664ac)" style="fill: none; stroke: #dcdcdc; stroke-width: 1.5; stroke-linecap: square"/>
   </g>
   <g id="line2d_34">
    <path d="M 73.832727 143.622277 
L 91.855375 77.047589 
L 109.9274 149.463741 
L 127.950048 142.703142 
L 145.972695 94.534983 
L 163.995343 157.097852 
L 182.067368 177.438579 
L 200.090016 107.077862 
L 218.112664 130.252515 
L 236.135311 155.438222 
L 254.207336 128.51829 
L 272.229984 143.271997 
L 290.252632 224.257186 
L 308.27528 191.585099 
L 326.347305 126.37934 
L 344.369952 128.75235 
L 362.3926 129.492506 
L 380.415248 208.703988 
L 398.487273 91.338836 
" clip-path="url(#pc10a1664ac)" style="fill: none; stroke: #dcdcdc; stroke-width: 1.5; stroke-linecap: square"/>
   </g>
   <g id="line2d_35">
    <path d="M 73.832727 144.899526 
L 91.855375 133.789072 
L 109.9274 214.001992 
L 127.950048 118.711582 
L 145.972695 89.011429 
L 163.995343 141.43496 
L 182.067368 190.373777 
L 200.090016 86.154649 
L 218.112664 116.633361 
L 236.135311 208.301765 
L 254.207336 61.862514 
L 272.229984 180.175451 
L 290.252632 229.491298 
L 308.27528 201.469124 
L 326.347305 150.377907 
L 344.369952 151.315254 
L 362.3926 163.396035 
L 380.415248 272.318369 
L 398.487273 47.864296 
" clip-path="url(#pc10a1664ac)" style="fill: none; stroke: #dcdcdc; stroke-width: 1.5; stroke-linecap: square"/>
   </g>
   <g id="line2d_36">
    <path d="M 73.832727 84.793182 
L 91.855375 194.639099 
L 109.9274 144.418614 
L 127.950048 101.084598 
L 145.972695 118.299097 
L 163.995343 112.145744 
L 182.067368 166.909058 
L 200.090016 23.187014 
L 218.112664 133.714378 
L 236.135311 97.688037 
L 254.207336 87.795212 
L 272.229984 141.36092 
L 290.252632 176.74079 
L 308.27528 206.038405 
L 326.347305 105.857731 
L 344.369952 140.844552 
L 362.3926 184.921797 
L 380.415248 171.018381 
L 398.487273 170.422817 
" clip-path="url(#pc10a1664ac)" style="fill: none; stroke: #dcdcdc; stroke-width: 1.5; stroke-linecap: square"/>
   </g>
   <g id="line2d_37">
    <path d="M 73.832727 141.00081 
L 91.855375 5.468098 
L 109.9274 142.568601 
L 127.950048 89.639798 
L 145.972695 118.868599 
L 163.995343 100.178522 
L 182.067368 146.131102 
L 200.090016 81.01345 
L 218.112664 123.135961 
L 236.135311 102.844502 
L 254.207336 137.473448 
L 272.229984 120.51715 
L 290.252632 198.46702 
L 308.27528 204.613926 
L 326.347305 173.288444 
L 344.369952 171.321455 
L 362.3926 177.512743 
L 380.415248 234.200748 
L 398.487273 84.000462 
" clip-path="url(#pc10a1664ac)" style="fill: none; stroke: #dcdcdc; stroke-width: 1.5; stroke-linecap: square"/>
   </g>
   <g id="line2d_38">
    <path d="M 73.832727 110.848786 
L 89.164053 -1 
M 94.475201 -1 
L 109.9274 114.807069 
L 127.950048 205.111372 
L 145.972695 9.753425 
L 163.995343 80.991231 
L 182.067368 151.992579 
L 200.090016 99.011085 
L 218.112664 104.146082 
L 236.135311 31.352933 
L 254.207336 127.323713 
L 272.229984 120.563754 
L 290.252632 198.283125 
L 308.27528 259.790969 
L 326.347305 8.771934 
L 344.369952 117.331091 
L 362.3926 123.073401 
L 380.415248 173.7629 
L 398.487273 176.683791 
" clip-path="url(#pc10a1664ac)" style="fill: none; stroke: #dcdcdc; stroke-width: 1.5; stroke-linecap: square"/>
   </g>
   <g id="line2d_39">
    <path d="M 73.832727 112.174887 
L 91.855375 86.831069 
L 109.9274 130.952153 
L 127.950048 139.115077 
L 145.972695 101.710894 
L 163.995343 94.597442 
L 182.067368 172.158871 
L 200.090016 59.763939 
L 218.112664 97.645755 
L 236.135311 116.33991 
L 254.207336 130.121237 
L 272.229984 154.244417 
L 290.252632 229.007455 
L 308.27528 214.974094 
L 326.347305 137.656887 
L 344.369952 154.742034 
L 362.3926 147.104928 
L 380.415248 190.153863 
L 398.487273 142.169893 
" clip-path="url(#pc10a1664ac)" style="fill: none; stroke: #dcdcdc; stroke-width: 1.5; stroke-linecap: square"/>
   </g>
   <g id="line2d_40">
    <path d="M 73.832727 161.616106 
L 91.855375 108.312848 
L 109.9274 103.511848 
L 127.950048 105.110181 
L 145.972695 93.560667 
L 163.995343 121.747412 
L 182.067368 108.487458 
L 200.090016 124.365626 
L 218.112664 127.265952 
L 236.135311 167.128797 
L 254.207336 125.276593 
L 272.229984 148.336933 
L 290.252632 182.313378 
L 308.27528 170.630909 
L 326.347305 169.385712 
L 344.369952 154.036188 
L 362.3926 149.814419 
L 380.415248 208.934023 
L 398.487273 138.642471 
" clip-path="url(#pc10a1664ac)" style="fill: none; stroke: #dcdcdc; stroke-width: 1.5; stroke-linecap: square"/>
   </g>
   <g id="line2d_41">
    <path d="M 73.832727 158.20597 
L 91.855375 99.26228 
L 109.9274 134.424935 
L 127.950048 125.480688 
L 145.972695 97.366054 
L 163.995343 112.302951 
L 182.067368 175.816701 
L 200.090016 81.705641 
L 218.112664 124.723246 
L 236.135311 153.080385 
L 254.207336 136.264308 
L 272.229984 168.39407 
L 290.252632 216.441678 
L 308.27528 213.116194 
L 326.347305 157.839971 
L 344.369952 151.161729 
L 362.3926 161.503402 
L 380.415248 216.894115 
L 398.487273 114.134525 
" clip-path="url(#pc10a1664ac)" style="fill: none; stroke: #dcdcdc; stroke-width: 1.5; stroke-linecap: square"/>
   </g>
   <g id="line2d_42">
    <path d="M 73.832727 112.740035 
L 91.855375 36.132245 
L 109.9274 60.045465 
L 127.950048 141.908133 
L 145.972695 110.79716 
L 163.995343 148.721404 
L 182.067368 170.209202 
L 200.090016 54.774328 
L 218.112664 38.018494 
L 236.135311 163.976151 
L 254.207336 122.077194 
L 272.229984 180.015977 
L 290.252632 233.204787 
L 308.27528 253.857497 
L 326.347305 109.943084 
L 344.369952 109.745293 
L 362.3926 149.998736 
L 380.415248 200.001323 
L 398.487273 102.262194 
" clip-path="url(#pc10a1664ac)" style="fill: none; stroke: #dcdcdc; stroke-width: 1.5; stroke-linecap: square"/>
   </g>
   <g id="line2d_43">
    <path d="M 73.832727 147.80356 
L 91.855375 81.267526 
L 109.9274 82.029651 
L 127.950048 61.807437 
L 145.972695 194.921024 
L 163.995343 92.578354 
L 182.067368 101.751537 
L 200.090016 63.793212 
L 218.112664 134.345384 
L 236.135311 117.167377 
L 254.207336 104.260671 
L 272.229984 149.520457 
L 290.252632 182.962609 
L 308.27528 171.328529 
L 326.347305 139.435242 
L 344.369952 106.497795 
L 362.3926 126.54419 
L 380.415248 167.108264 
L 398.487273 65.527999 
" clip-path="url(#pc10a1664ac)" style="fill: none; stroke: #dcdcdc; stroke-width: 1.5; stroke-linecap: square"/>
   </g>
   <g id="line2d_44">
    <path d="M 73.832727 83.496082 
L 91.855375 62.869909 
L 109.9274 120.021689 
L 127.950048 90.204214 
L 145.972695 148.222307 
L 163.995343 117.218907 
L 182.067368 219.814318 
L 200.090016 59.117122 
L 218.112664 118.583362 
L 236.135311 136.753218 
L 254.207336 141.686724 
L 272.229984 121.018794 
L 290.252632 183.248726 
L 308.27528 221.984008 
L 326.347305 131.514283 
L 344.369952 133.731699 
L 362.3926 214.878014 
L 380.415248 176.278449 
L 398.487273 125.174053 
" clip-path="url(#pc10a1664ac)" style="fill: none; stroke: #dcdcdc; stroke-width: 1.5; stroke-linecap: square"/>
   </g>
   <g id="line2d_45">
    <path d="M 73.832727 68.211452 
L 91.855375 88.112514 
L 109.9274 95.171794 
L 127.950048 86.402913 
L 145.972695 118.415841 
L 163.995343 136.799569 
L 182.067368 141.209462 
L 200.090016 60.064691 
L 218.112664 125.481035 
L 236.135311 54.975318 
L 254.207336 129.835989 
L 272.229984 153.472455 
L 290.252632 244.944365 
L 308.27528 233.059772 
L 326.347305 152.777655 
L 344.369952 141.508806 
L 362.3926 149.820429 
L 380.415248 218.064548 
L 398.487273 110.668332 
" clip-path="url(#pc10a1664ac)" style="fill: none; stroke: #dcdcdc; stroke-width: 1.5; stroke-linecap: square"/>
   </g>
   <g id="line2d_46">
    <path d="M 73.832727 56.212972 
L 91.855375 84.387379 
L 109.9274 126.916034 
L 127.950048 129.679138 
L 145.972695 110.216091 
L 163.995343 105.905099 
L 182.067368 138.059822 
L 195.95432 -1 
M 207.342797 -1 
L 218.112664 60.496317 
L 236.135311 115.100405 
L 254.207336 142.748245 
L 272.229984 96.788078 
L 290.252632 180.413436 
L 308.27528 227.5054 
L 326.347305 129.960976 
L 344.369952 148.021436 
L 362.3926 105.079179 
L 380.415248 213.389892 
L 398.487273 44.808047 
" clip-path="url(#pc10a1664ac)" style="fill: none; stroke: #dcdcdc; stroke-width: 1.5; stroke-linecap: square"/>
   </g>
   <g id="line2d_47">
    <path d="M 73.832727 131.942742 
L 91.855375 87.073527 
L 109.9274 129.421871 
L 127.950048 117.307985 
L 145.972695 107.799037 
L 163.995343 113.745766 
L 182.067368 160.872037 
L 200.090016 72.222412 
L 218.112664 113.164538 
L 236.135311 136.623212 
L 254.207336 132.551236 
L 272.229984 146.159262 
L 290.252632 209.915667 
L 308.27528 219.433079 
L 326.347305 140.545287 
L 344.369952 146.417301 
L 362.3926 159.677729 
L 380.415248 213.328639 
L 398.487273 110.068659 
" clip-path="url(#pc10a1664ac)" style="fill: none; stroke-dasharray: 5.55,2.4; stroke-dashoffset: 0; stroke: #dc143c; stroke-width: 1.5"/>
   </g>
   <g id="line2d_48">
    <path d="M 73.832727 180.69882 
L 91.855375 93.668028 
L 109.9274 121.730034 
L 127.950048 127.704248 
L 145.972695 78.271422 
L 163.995343 97.068749 
L 182.067368 175.882315 
L 200.090016 81.901266 
L 218.112664 126.589929 
L 236.135311 159.050636 
L 254.207336 138.93217 
L 272.229984 191.176419 
L 290.252632 222.547177 
L 308.27528 207.775527 
L 326.347305 173.278544 
L 344.369952 155.322695 
L 362.3926 153.974966 
L 380.415248 219.040207 
L 398.487273 117.016374 
" clip-path="url(#pc10a1664ac)" style="fill: none; stroke: #dcdcdc; stroke-width: 1.5; stroke-linecap: square"/>
   </g>
   <g id="line2d_49">
    <path d="M 73.832727 158.20597 
L 91.855375 99.26228 
L 109.9274 134.424935 
L 127.950048 125.480688 
L 145.972695 97.366054 
L 163.995343 112.302951 
L 182.067368 175.816701 
L 200.090016 81.705641 
L 218.112664 124.723246 
L 236.135311 153.080385 
L 254.207336 136.264308 
L 272.229984 168.39407 
L 290.252632 216.441678 
L 308.27528 213.116194 
L 326.347305 157.839971 
L 344.369952 151.161729 
L 362.3926 161.503402 
L 380.415248 216.894115 
L 398.487273 114.134525 
" clip-path="url(#pc10a1664ac)" style="fill: none; stroke: #ffd700; stroke-width: 1.5; stroke-linecap: square"/>
   </g>
   <g id="line2d_50">
    <path d="M 73.832727 186.639432 
L 91.855375 137.055707 
L 109.9274 140.271353 
L 127.950048 122.730248 
L 145.972695 133.873227 
L 163.995343 128.874707 
L 182.067368 146.148697 
L 200.090016 117.30497 
L 218.112664 145.103075 
L 236.135311 153.004343 
L 254.207336 160.651014 
L 272.229984 155.110513 
L 290.252632 205.172234 
L 308.27528 227.099206 
L 326.347305 198.909635 
L 344.369952 161.230662 
L 362.3926 168.439637 
L 380.415248 208.55156 
L 398.487273 118.355083 
" clip-path="url(#pc10a1664ac)" style="fill: none; stroke: #008080; stroke-width: 1.5; stroke-linecap: square"/>
   </g>
   <g id="patch_3">
    <path d="M 57.6 307.584 
L 57.6 41.472 
" style="fill: none; stroke: #000000; stroke-width: 0.8; stroke-linejoin: miter; stroke-linecap: square"/>
   </g>
   <g id="patch_4">
    <path d="M 414.72 307.584 
L 414.72 41.472 
" style="fill: none; stroke: #000000; stroke-width: 0.8; stroke-linejoin: miter; stroke-linecap: square"/>
   </g>
   <g id="patch_5">
    <path d="M 57.6 307.584 
L 414.72 307.584 
" style="fill: none; stroke: #000000; stroke-width: 0.8; stroke-linejoin: miter; stroke-linecap: square"/>
   </g>
   <g id="patch_6">
    <path d="M 57.6 41.472 
L 414.72 41.472 
" style="fill: none; stroke: #000000; stroke-width: 0.8; stroke-linejoin: miter; stroke-linecap: square"/>
   </g>
   <g id="text_21">
    <!-- Taxa de Crescimento do PIB -->
    <g transform="translate(152.800313 35.472) scale(0.12 -0.12)">
     <defs>
      <path id="DejaVuSans-54" d="M -19 4666 
L 3928 4666 
L 3928 4134 
L 2272 4134 
L 2272 0 
L 1638 0 
L 1638 4134 
L -19 4134 
L -19 4666 
z
" transform="scale(0.015625)"/>
      <path id="DejaVuSans-78" d="M 3513 3500 
L 2247 1797 
L 3578 0 
L 2900 0 
L 1881 1375 
L 863 0 
L 184 0 
L 1544 1831 
L 300 3500 
L 978 3500 
L 1906 2253 
L 2834 3500 
L 3513 3500 
z
" transform="scale(0.015625)"/>
      <path id="DejaVuSans-64" d="M 2906 2969 
L 2906 4863 
L 3481 4863 
L 3481 0 
L 2906 0 
L 2906 525 
Q 2725 213 2448 61 
Q 2172 -91 1784 -91 
Q 1150 -91 751 415 
Q 353 922 353 1747 
Q 353 2572 751 3078 
Q 1150 3584 1784 3584 
Q 2172 3584 2448 3432 
Q 2725 3281 2906 2969 
z
M 947 1747 
Q 947 1113 1208 752 
Q 1469 391 1925 391 
Q 2381 391 2643 752 
Q 2906 1113 2906 1747 
Q 2906 2381 2643 2742 
Q 2381 3103 1925 3103 
Q 1469 3103 1208 2742 
Q 947 2381 947 1747 
z
" transform="scale(0.015625)"/>
      <path id="DejaVuSans-50" d="M 1259 4147 
L 1259 2394 
L 2053 2394 
Q 2494 2394 2734 2622 
Q 2975 2850 2975 3272 
Q 2975 3691 2734 3919 
Q 2494 4147 2053 4147 
L 1259 4147 
z
M 628 4666 
L 2053 4666 
Q 2838 4666 3239 4311 
Q 3641 3956 3641 3272 
Q 3641 2581 3239 2228 
Q 2838 1875 2053 1875 
L 1259 1875 
L 1259 0 
L 628 0 
L 628 4666 
z
" transform="scale(0.015625)"/>
      <path id="DejaVuSans-49" d="M 628 4666 
L 1259 4666 
L 1259 0 
L 628 0 
L 628 4666 
z
" transform="scale(0.015625)"/>
      <path id="DejaVuSans-42" d="M 1259 2228 
L 1259 519 
L 2272 519 
Q 2781 519 3026 730 
Q 3272 941 3272 1375 
Q 3272 1813 3026 2020 
Q 2781 2228 2272 2228 
L 1259 2228 
z
M 1259 4147 
L 1259 2741 
L 2194 2741 
Q 2656 2741 2882 2914 
Q 3109 3088 3109 3444 
Q 3109 3797 2882 3972 
Q 2656 4147 2194 4147 
L 1259 4147 
z
M 628 4666 
L 2241 4666 
Q 2963 4666 3353 4366 
Q 3744 4066 3744 3513 
Q 3744 3084 3544 2831 
Q 3344 2578 2956 2516 
Q 3422 2416 3680 2098 
Q 3938 1781 3938 1306 
Q 3938 681 3513 340 
Q 3088 0 2303 0 
L 628 0 
L 628 4666 
z
" transform="scale(0.015625)"/>
     </defs>
     <use xlink:href="#DejaVuSans-54"/>
     <use xlink:href="#DejaVuSans-61" x="44.583984"/>
     <use xlink:href="#DejaVuSans-78" x="105.863281"/>
     <use xlink:href="#DejaVuSans-61" x="165.042969"/>
     <use xlink:href="#DejaVuSans-20" x="226.322266"/>
     <use xlink:href="#DejaVuSans-64" x="258.109375"/>
     <use xlink:href="#DejaVuSans-65" x="321.585938"/>
     <use xlink:href="#DejaVuSans-20" x="383.109375"/>
     <use xlink:href="#DejaVuSans-43" x="414.896484"/>
     <use xlink:href="#DejaVuSans-72" x="484.720703"/>
     <use xlink:href="#DejaVuSans-65" x="523.583984"/>
     <use xlink:href="#DejaVuSans-73" x="585.107422"/>
     <use xlink:href="#DejaVuSans-63" x="637.207031"/>
     <use xlink:href="#DejaVuSans-69" x="692.1875"/>
     <use xlink:href="#DejaVuSans-6d" x="719.970703"/>
     <use xlink:href="#DejaVuSans-65" x="817.382812"/>
     <use xlink:href="#DejaVuSans-6e" x="878.90625"/>
     <use xlink:href="#DejaVuSans-74" x="942.285156"/>
     <use xlink:href="#DejaVuSans-6f" x="981.494141"/>
     <use xlink:href="#DejaVuSans-20" x="1042.675781"/>
     <use xlink:href="#DejaVuSans-64" x="1074.462891"/>
     <use xlink:href="#DejaVuSans-6f" x="1137.939453"/>
     <use xlink:href="#DejaVuSans-20" x="1199.121094"/>
     <use xlink:href="#DejaVuSans-50" x="1230.908203"/>
     <use xlink:href="#DejaVuSans-49" x="1291.210938"/>
     <use xlink:href="#DejaVuSans-42" x="1320.703125"/>
    </g>
   </g>
   <g id="legend_1">
    <g id="patch_7">
     <path d="M 64.6 302.584 
L 170.45625 302.584 
Q 172.45625 302.584 172.45625 300.584 
L 172.45625 242.8715 
Q 172.45625 240.8715 170.45625 240.8715 
L 64.6 240.8715 
Q 62.6 240.8715 62.6 242.8715 
L 62.6 300.584 
Q 62.6 302.584 64.6 302.584 
z
" style="fill: #ffffff; opacity: 0.8; stroke: #cccccc; stroke-linejoin: miter"/>
    </g>
    <g id="line2d_51">
     <path d="M 66.6 248.969937 
L 76.6 248.969937 
L 86.6 248.969937 
" style="fill: none; stroke-dasharray: 5.55,2.4; stroke-dashoffset: 0; stroke: #dc143c; stroke-width: 1.5"/>
    </g>
    <g id="text_22">
     <!-- Média estados -->
     <g transform="translate(94.6 252.469937) scale(0.1 -0.1)">
      <defs>
       <path id="DejaVuSans-4d" d="M 628 4666 
L 1569 4666 
L 2759 1491 
L 3956 4666 
L 4897 4666 
L 4897 0 
L 4281 0 
L 4281 4097 
L 3078 897 
L 2444 897 
L 1241 4097 
L 1241 0 
L 628 0 
L 628 4666 
z
" transform="scale(0.015625)"/>
       <path id="DejaVuSans-e9" d="M 3597 1894 
L 3597 1613 
L 953 1613 
Q 991 1019 1311 708 
Q 1631 397 2203 397 
Q 2534 397 2845 478 
Q 3156 559 3463 722 
L 3463 178 
Q 3153 47 2828 -22 
Q 2503 -91 2169 -91 
Q 1331 -91 842 396 
Q 353 884 353 1716 
Q 353 2575 817 3079 
Q 1281 3584 2069 3584 
Q 2775 3584 3186 3129 
Q 3597 2675 3597 1894 
z
M 3022 2063 
Q 3016 2534 2758 2815 
Q 2500 3097 2075 3097 
Q 1594 3097 1305 2825 
Q 1016 2553 972 2059 
L 3022 2063 
z
M 2466 5119 
L 3088 5119 
L 2070 3944 
L 1591 3944 
L 2466 5119 
z
" transform="scale(0.015625)"/>
      </defs>
      <use xlink:href="#DejaVuSans-4d"/>
      <use xlink:href="#DejaVuSans-e9" x="86.279297"/>
      <use xlink:href="#DejaVuSans-64" x="147.802734"/>
      <use xlink:href="#DejaVuSans-69" x="211.279297"/>
      <use xlink:href="#DejaVuSans-61" x="239.0625"/>
      <use xlink:href="#DejaVuSans-20" x="300.341797"/>
      <use xlink:href="#DejaVuSans-65" x="332.128906"/>
      <use xlink:href="#DejaVuSans-73" x="393.652344"/>
      <use xlink:href="#DejaVuSans-74" x="445.751953"/>
      <use xlink:href="#DejaVuSans-61" x="484.960938"/>
      <use xlink:href="#DejaVuSans-64" x="546.240234"/>
      <use xlink:href="#DejaVuSans-6f" x="609.716797"/>
      <use xlink:href="#DejaVuSans-73" x="670.898438"/>
     </g>
    </g>
    <g id="line2d_52">
     <path d="M 66.6 263.648062 
L 76.6 263.648062 
L 86.6 263.648062 
" style="fill: none; stroke: #dcdcdc; stroke-width: 1.5; stroke-linecap: square"/>
    </g>
    <g id="text_23">
     <!-- outros estados -->
     <g transform="translate(94.6 267.148062) scale(0.1 -0.1)">
      <defs>
       <path id="DejaVuSans-75" d="M 544 1381 
L 544 3500 
L 1119 3500 
L 1119 1403 
Q 1119 906 1312 657 
Q 1506 409 1894 409 
Q 2359 409 2629 706 
Q 2900 1003 2900 1516 
L 2900 3500 
L 3475 3500 
L 3475 0 
L 2900 0 
L 2900 538 
Q 2691 219 2414 64 
Q 2138 -91 1772 -91 
Q 1169 -91 856 284 
Q 544 659 544 1381 
z
M 1991 3584 
L 1991 3584 
z
" transform="scale(0.015625)"/>
      </defs>
      <use xlink:href="#DejaVuSans-6f"/>
      <use xlink:href="#DejaVuSans-75" x="61.181641"/>
      <use xlink:href="#DejaVuSans-74" x="124.560547"/>
      <use xlink:href="#DejaVuSans-72" x="163.769531"/>
      <use xlink:href="#DejaVuSans-6f" x="202.632812"/>
      <use xlink:href="#DejaVuSans-73" x="263.814453"/>
      <use xlink:href="#DejaVuSans-20" x="315.914062"/>
      <use xlink:href="#DejaVuSans-65" x="347.701172"/>
      <use xlink:href="#DejaVuSans-73" x="409.224609"/>
      <use xlink:href="#DejaVuSans-74" x="461.324219"/>
      <use xlink:href="#DejaVuSans-61" x="500.533203"/>
      <use xlink:href="#DejaVuSans-64" x="561.8125"/>
      <use xlink:href="#DejaVuSans-6f" x="625.289062"/>
      <use xlink:href="#DejaVuSans-73" x="686.470703"/>
     </g>
    </g>
    <g id="line2d_53">
     <path d="M 66.6 278.326187 
L 76.6 278.326187 
L 86.6 278.326187 
" style="fill: none; stroke: #ffd700; stroke-width: 1.5; stroke-linecap: square"/>
    </g>
    <g id="text_24">
     <!-- BR -->
     <g transform="translate(94.6 281.826187) scale(0.1 -0.1)">
      <defs>
       <path id="DejaVuSans-52" d="M 2841 2188 
Q 3044 2119 3236 1894 
Q 3428 1669 3622 1275 
L 4263 0 
L 3584 0 
L 2988 1197 
Q 2756 1666 2539 1819 
Q 2322 1972 1947 1972 
L 1259 1972 
L 1259 0 
L 628 0 
L 628 4666 
L 2053 4666 
Q 2853 4666 3247 4331 
Q 3641 3997 3641 3322 
Q 3641 2881 3436 2590 
Q 3231 2300 2841 2188 
z
M 1259 4147 
L 1259 2491 
L 2053 2491 
Q 2509 2491 2742 2702 
Q 2975 2913 2975 3322 
Q 2975 3731 2742 3939 
Q 2509 4147 2053 4147 
L 1259 4147 
z
" transform="scale(0.015625)"/>
      </defs>
      <use xlink:href="#DejaVuSans-42"/>
      <use xlink:href="#DejaVuSans-52" x="68.603516"/>
     </g>
    </g>
    <g id="line2d_54">
     <path d="M 66.6 293.004312 
L 76.6 293.004312 
L 86.6 293.004312 
" style="fill: none; stroke: #008080; stroke-width: 1.5; stroke-linecap: square"/>
    </g>
    <g id="text_25">
     <!-- RJ -->
     <g transform="translate(94.6 296.504312) scale(0.1 -0.1)">
      <defs>
       <path id="DejaVuSans-4a" d="M 628 4666 
L 1259 4666 
L 1259 325 
Q 1259 -519 939 -900 
Q 619 -1281 -91 -1281 
L -331 -1281 
L -331 -750 
L -134 -750 
Q 284 -750 456 -515 
Q 628 -281 628 325 
L 628 4666 
z
" transform="scale(0.015625)"/>
      </defs>
      <use xlink:href="#DejaVuSans-52"/>
      <use xlink:href="#DejaVuSans-4a" x="69.482422"/>
     </g>
    </g>
   </g>
  </g>
 </g>
 <defs>
  <clipPath id="pc10a1664ac">
   <rect x="57.6" y="41.472" width="357.12" height="266.112"/>
  </clipPath>
 </defs>
</svg>
