<?xml version="1.0" encoding="utf-8" standalone="no"?>
<!DOCTYPE svg PUBLIC "-//W3C//DTD SVG 1.1//EN"
  "http://www.w3.org/Graphics/SVG/1.1/DTD/svg11.dtd">
<svg xmlns:xlink="http://www.w3.org/1999/xlink" width="460.8pt" height="345.6pt" viewBox="0 0 460.8 345.6" xmlns="http://www.w3.org/2000/svg" version="1.1">
 <metadata>
  <rdf:RDF xmlns:dc="http://purl.org/dc/elements/1.1/" xmlns:cc="http://creativecommons.org/ns#" xmlns:rdf="http://www.w3.org/1999/02/22-rdf-syntax-ns#">
   <cc:Work>
    <dc:type rdf:resource="http://purl.org/dc/dcmitype/StillImage"/>
    <dc:date>2024-09-12T14:25:08.787759</dc:date>
    <dc:format>image/svg+xml</dc:format>
    <dc:creator>
     <cc:Agent>
      <dc:title>Matplotlib v3.9.2, https://matplotlib.org/</dc:title>
     </cc:Agent>
    </dc:creator>
   </cc:Work>
  </rdf:RDF>
 </metadata>
 <defs>
  <style type="text/css">*{stroke-linejoin: round; stroke-linecap: butt}</style>
 </defs>
 <g id="figure_1">
  <g id="patch_1">
   <path d="M 0 345.6 
L 460.8 345.6 
L 460.8 0 
L 0 0 
z
" style="fill: #ffffff"/>
  </g>
  <g id="axes_1">
   <g id="patch_2">
    <path d="M 57.6 307.584 
L 414.72 307.584 
L 414.72 41.472 
L 57.6 41.472 
z
" style="fill: #ffffff"/>
   </g>
   <g id="matplotlib.axis_1">
    <g id="xtick_1">
     <g id="line2d_1">
      <defs>
       <path id="m87f1716b37" d="M 0 0 
L 0 3.5 
" style="stroke: #000000; stroke-width: 0.8"/>
      </defs>
      <g>
       <use xlink:href="#m87f1716b37" x="73.832727" y="307.584" style="stroke: #000000; stroke-width: 0.8"/>
      </g>
     </g>
     <g id="text_1">
      <!-- 2004 -->
      <g transform="translate(61.107727 322.182437) scale(0.1 -0.1)">
       <defs>
        <path id="DejaVuSans-32" d="M 1228 531 
L 3431 531 
L 3431 0 
L 469 0 
L 469 531 
Q 828 903 1448 1529 
Q 2069 2156 2228 2338 
Q 2531 2678 2651 2914 
Q 2772 3150 2772 3378 
Q 2772 3750 2511 3984 
Q 2250 4219 1831 4219 
Q 1534 4219 1204 4116 
Q 875 4013 500 3803 
L 500 4441 
Q 881 4594 1212 4672 
Q 1544 4750 1819 4750 
Q 2544 4750 2975 4387 
Q 3406 4025 3406 3419 
Q 3406 3131 3298 2873 
Q 3191 2616 2906 2266 
Q 2828 2175 2409 1742 
Q 1991 1309 1228 531 
z
" transform="scale(0.015625)"/>
        <path id="DejaVuSans-30" d="M 2034 4250 
Q 1547 4250 1301 3770 
Q 1056 3291 1056 2328 
Q 1056 1369 1301 889 
Q 1547 409 2034 409 
Q 2525 409 2770 889 
Q 3016 1369 3016 2328 
Q 3016 3291 2770 3770 
Q 2525 4250 2034 4250 
z
M 2034 4750 
Q 2819 4750 3233 4129 
Q 3647 3509 3647 2328 
Q 3647 1150 3233 529 
Q 2819 -91 2034 -91 
Q 1250 -91 836 529 
Q 422 1150 422 2328 
Q 422 3509 836 4129 
Q 1250 4750 2034 4750 
z
" transform="scale(0.015625)"/>
        <path id="DejaVuSans-34" d="M 2419 4116 
L 825 1625 
L 2419 1625 
L 2419 4116 
z
M 2253 4666 
L 3047 4666 
L 3047 1625 
L 3713 1625 
L 3713 1100 
L 3047 1100 
L 3047 0 
L 2419 0 
L 2419 1100 
L 313 1100 
L 313 1709 
L 2253 4666 
z
" transform="scale(0.015625)"/>
       </defs>
       <use xlink:href="#DejaVuSans-32"/>
       <use xlink:href="#DejaVuSans-30" x="63.623047"/>
       <use xlink:href="#DejaVuSans-30" x="127.246094"/>
       <use xlink:href="#DejaVuSans-34" x="190.869141"/>
      </g>
     </g>
    </g>
    <g id="xtick_2">
     <g id="line2d_2">
      <g>
       <use xlink:href="#m87f1716b37" x="112.048906" y="307.584" style="stroke: #000000; stroke-width: 0.8"/>
      </g>
     </g>
     <g id="text_2">
      <!-- 2006 -->
      <g transform="translate(99.323906 322.182437) scale(0.1 -0.1)">
       <defs>
        <path id="DejaVuSans-36" d="M 2113 2584 
Q 1688 2584 1439 2293 
Q 1191 2003 1191 1497 
Q 1191 994 1439 701 
Q 1688 409 2113 409 
Q 2538 409 2786 701 
Q 3034 994 3034 1497 
Q 3034 2003 2786 2293 
Q 2538 2584 2113 2584 
z
M 3366 4563 
L 3366 3988 
Q 3128 4100 2886 4159 
Q 2644 4219 2406 4219 
Q 1781 4219 1451 3797 
Q 1122 3375 1075 2522 
Q 1259 2794 1537 2939 
Q 1816 3084 2150 3084 
Q 2853 3084 3261 2657 
Q 3669 2231 3669 1497 
Q 3669 778 3244 343 
Q 2819 -91 2113 -91 
Q 1303 -91 875 529 
Q 447 1150 447 2328 
Q 447 3434 972 4092 
Q 1497 4750 2381 4750 
Q 2619 4750 2861 4703 
Q 3103 4656 3366 4563 
z
" transform="scale(0.015625)"/>
       </defs>
       <use xlink:href="#DejaVuSans-32"/>
       <use xlink:href="#DejaVuSans-30" x="63.623047"/>
       <use xlink:href="#DejaVuSans-30" x="127.246094"/>
       <use xlink:href="#DejaVuSans-36" x="190.869141"/>
      </g>
     </g>
    </g>
    <g id="xtick_3">
     <g id="line2d_3">
      <g>
       <use xlink:href="#m87f1716b37" x="150.212806" y="307.584" style="stroke: #000000; stroke-width: 0.8"/>
      </g>
     </g>
     <g id="text_3">
      <!-- 2008 -->
      <g transform="translate(137.487806 322.182437) scale(0.1 -0.1)">
       <defs>
        <path id="DejaVuSans-38" d="M 2034 2216 
Q 1584 2216 1326 1975 
Q 1069 1734 1069 1313 
Q 1069 891 1326 650 
Q 1584 409 2034 409 
Q 2484 409 2743 651 
Q 3003 894 3003 1313 
Q 3003 1734 2745 1975 
Q 2488 2216 2034 2216 
z
M 1403 2484 
Q 997 2584 770 2862 
Q 544 3141 544 3541 
Q 544 4100 942 4425 
Q 1341 4750 2034 4750 
Q 2731 4750 3128 4425 
Q 3525 4100 3525 3541 
Q 3525 3141 3298 2862 
Q 3072 2584 2669 2484 
Q 3125 2378 3379 2068 
Q 3634 1759 3634 1313 
Q 3634 634 3220 271 
Q 2806 -91 2034 -91 
Q 1263 -91 848 271 
Q 434 634 434 1313 
Q 434 1759 690 2068 
Q 947 2378 1403 2484 
z
M 1172 3481 
Q 1172 3119 1398 2916 
Q 1625 2713 2034 2713 
Q 2441 2713 2670 2916 
Q 2900 3119 2900 3481 
Q 2900 3844 2670 4047 
Q 2441 4250 2034 4250 
Q 1625 4250 1398 4047 
Q 1172 3844 1172 3481 
z
" transform="scale(0.015625)"/>
       </defs>
       <use xlink:href="#DejaVuSans-32"/>
       <use xlink:href="#DejaVuSans-30" x="63.623047"/>
       <use xlink:href="#DejaVuSans-30" x="127.246094"/>
       <use xlink:href="#DejaVuSans-38" x="190.869141"/>
      </g>
     </g>
    </g>
    <g id="xtick_4">
     <g id="line2d_4">
      <g>
       <use xlink:href="#m87f1716b37" x="188.428986" y="307.584" style="stroke: #000000; stroke-width: 0.8"/>
      </g>
     </g>
     <g id="text_4">
      <!-- 2010 -->
      <g transform="translate(175.703986 322.182437) scale(0.1 -0.1)">
       <defs>
        <path id="DejaVuSans-31" d="M 794 531 
L 1825 531 
L 1825 4091 
L 703 3866 
L 703 4441 
L 1819 4666 
L 2450 4666 
L 2450 531 
L 3481 531 
L 3481 0 
L 794 0 
L 794 531 
z
" transform="scale(0.015625)"/>
       </defs>
       <use xlink:href="#DejaVuSans-32"/>
       <use xlink:href="#DejaVuSans-30" x="63.623047"/>
       <use xlink:href="#DejaVuSans-31" x="127.246094"/>
       <use xlink:href="#DejaVuSans-30" x="190.869141"/>
      </g>
     </g>
    </g>
    <g id="xtick_5">
     <g id="line2d_5">
      <g>
       <use xlink:href="#m87f1716b37" x="226.592885" y="307.584" style="stroke: #000000; stroke-width: 0.8"/>
      </g>
     </g>
     <g id="text_5">
      <!-- 2012 -->
      <g transform="translate(213.867885 322.182437) scale(0.1 -0.1)">
       <use xlink:href="#DejaVuSans-32"/>
       <use xlink:href="#DejaVuSans-30" x="63.623047"/>
       <use xlink:href="#DejaVuSans-31" x="127.246094"/>
       <use xlink:href="#DejaVuSans-32" x="190.869141"/>
      </g>
     </g>
    </g>
    <g id="xtick_6">
     <g id="line2d_6">
      <g>
       <use xlink:href="#m87f1716b37" x="264.809065" y="307.584" style="stroke: #000000; stroke-width: 0.8"/>
      </g>
     </g>
     <g id="text_6">
      <!-- 2014 -->
      <g transform="translate(252.084065 322.182437) scale(0.1 -0.1)">
       <use xlink:href="#DejaVuSans-32"/>
       <use xlink:href="#DejaVuSans-30" x="63.623047"/>
       <use xlink:href="#DejaVuSans-31" x="127.246094"/>
       <use xlink:href="#DejaVuSans-34" x="190.869141"/>
      </g>
     </g>
    </g>
    <g id="xtick_7">
     <g id="line2d_7">
      <g>
       <use xlink:href="#m87f1716b37" x="302.972964" y="307.584" style="stroke: #000000; stroke-width: 0.8"/>
      </g>
     </g>
     <g id="text_7">
      <!-- 2016 -->
      <g transform="translate(290.247964 322.182437) scale(0.1 -0.1)">
       <use xlink:href="#DejaVuSans-32"/>
       <use xlink:href="#DejaVuSans-30" x="63.623047"/>
       <use xlink:href="#DejaVuSans-31" x="127.246094"/>
       <use xlink:href="#DejaVuSans-36" x="190.869141"/>
      </g>
     </g>
    </g>
    <g id="xtick_8">
     <g id="line2d_8">
      <g>
       <use xlink:href="#m87f1716b37" x="341.189144" y="307.584" style="stroke: #000000; stroke-width: 0.8"/>
      </g>
     </g>
     <g id="text_8">
      <!-- 2018 -->
      <g transform="translate(328.464144 322.182437) scale(0.1 -0.1)">
       <use xlink:href="#DejaVuSans-32"/>
       <use xlink:href="#DejaVuSans-30" x="63.623047"/>
       <use xlink:href="#DejaVuSans-31" x="127.246094"/>
       <use xlink:href="#DejaVuSans-38" x="190.869141"/>
      </g>
     </g>
    </g>
    <g id="xtick_9">
     <g id="line2d_9">
      <g>
       <use xlink:href="#m87f1716b37" x="379.353043" y="307.584" style="stroke: #000000; stroke-width: 0.8"/>
      </g>
     </g>
     <g id="text_9">
      <!-- 2020 -->
      <g transform="translate(366.628043 322.182437) scale(0.1 -0.1)">
       <use xlink:href="#DejaVuSans-32"/>
       <use xlink:href="#DejaVuSans-30" x="63.623047"/>
       <use xlink:href="#DejaVuSans-32" x="127.246094"/>
       <use xlink:href="#DejaVuSans-30" x="190.869141"/>
      </g>
     </g>
    </g>
    <g id="text_10">
     <!-- Ano -->
     <g transform="translate(226.511562 335.860562) scale(0.1 -0.1)">
      <defs>
       <path id="DejaVuSans-41" d="M 2188 4044 
L 1331 1722 
L 3047 1722 
L 2188 4044 
z
M 1831 4666 
L 2547 4666 
L 4325 0 
L 3669 0 
L 3244 1197 
L 1141 1197 
L 716 0 
L 50 0 
L 1831 4666 
z
" transform="scale(0.015625)"/>
       <path id="DejaVuSans-6e" d="M 3513 2113 
L 3513 0 
L 2938 0 
L 2938 2094 
Q 2938 2591 2744 2837 
Q 2550 3084 2163 3084 
Q 1697 3084 1428 2787 
Q 1159 2491 1159 1978 
L 1159 0 
L 581 0 
L 581 3500 
L 1159 3500 
L 1159 2956 
Q 1366 3272 1645 3428 
Q 1925 3584 2291 3584 
Q 2894 3584 3203 3211 
Q 3513 2838 3513 2113 
z
" transform="scale(0.015625)"/>
       <path id="DejaVuSans-6f" d="M 1959 3097 
Q 1497 3097 1228 2736 
Q 959 2375 959 1747 
Q 959 1119 1226 758 
Q 1494 397 1959 397 
Q 2419 397 2687 759 
Q 2956 1122 2956 1747 
Q 2956 2369 2687 2733 
Q 2419 3097 1959 3097 
z
M 1959 3584 
Q 2709 3584 3137 3096 
Q 3566 2609 3566 1747 
Q 3566 888 3137 398 
Q 2709 -91 1959 -91 
Q 1206 -91 779 398 
Q 353 888 353 1747 
Q 353 2609 779 3096 
Q 1206 3584 1959 3584 
z
" transform="scale(0.015625)"/>
      </defs>
      <use xlink:href="#DejaVuSans-41"/>
      <use xlink:href="#DejaVuSans-6e" x="68.408203"/>
      <use xlink:href="#DejaVuSans-6f" x="131.787109"/>
     </g>
    </g>
   </g>
   <g id="matplotlib.axis_2">
    <g id="ytick_1">
     <g id="line2d_10">
      <defs>
       <path id="mcd3dbe2cb1" d="M 0 0 
L -3.5 0 
" style="stroke: #000000; stroke-width: 0.8"/>
      </defs>
      <g>
       <use xlink:href="#mcd3dbe2cb1" x="57.6" y="289.8432" style="stroke: #000000; stroke-width: 0.8"/>
      </g>
     </g>
     <g id="text_11">
      <!-- −0.04 -->
      <g transform="translate(19.954687 293.642419) scale(0.1 -0.1)">
       <defs>
        <path id="DejaVuSans-2212" d="M 678 2272 
L 4684 2272 
L 4684 1741 
L 678 1741 
L 678 2272 
z
" transform="scale(0.015625)"/>
        <path id="DejaVuSans-2e" d="M 684 794 
L 1344 794 
L 1344 0 
L 684 0 
L 684 794 
z
" transform="scale(0.015625)"/>
       </defs>
       <use xlink:href="#DejaVuSans-2212"/>
       <use xlink:href="#DejaVuSans-30" x="83.789062"/>
       <use xlink:href="#DejaVuSans-2e" x="147.412109"/>
       <use xlink:href="#DejaVuSans-30" x="179.199219"/>
       <use xlink:href="#DejaVuSans-34" x="242.822266"/>
      </g>
     </g>
    </g>
    <g id="ytick_2">
     <g id="line2d_11">
      <g>
       <use xlink:href="#mcd3dbe2cb1" x="57.6" y="254.3616" style="stroke: #000000; stroke-width: 0.8"/>
      </g>
     </g>
     <g id="text_12">
      <!-- −0.02 -->
      <g transform="translate(19.954687 258.160819) scale(0.1 -0.1)">
       <use xlink:href="#DejaVuSans-2212"/>
       <use xlink:href="#DejaVuSans-30" x="83.789062"/>
       <use xlink:href="#DejaVuSans-2e" x="147.412109"/>
       <use xlink:href="#DejaVuSans-30" x="179.199219"/>
       <use xlink:href="#DejaVuSans-32" x="242.822266"/>
      </g>
     </g>
    </g>
    <g id="ytick_3">
     <g id="line2d_12">
      <g>
       <use xlink:href="#mcd3dbe2cb1" x="57.6" y="218.88" style="stroke: #000000; stroke-width: 0.8"/>
      </g>
     </g>
     <g id="text_13">
      <!-- 0.00 -->
      <g transform="translate(28.334375 222.679219) scale(0.1 -0.1)">
       <use xlink:href="#DejaVuSans-30"/>
       <use xlink:href="#DejaVuSans-2e" x="63.623047"/>
       <use xlink:href="#DejaVuSans-30" x="95.410156"/>
       <use xlink:href="#DejaVuSans-30" x="159.033203"/>
      </g>
     </g>
    </g>
    <g id="ytick_4">
     <g id="line2d_13">
      <g>
       <use xlink:href="#mcd3dbe2cb1" x="57.6" y="183.3984" style="stroke: #000000; stroke-width: 0.8"/>
      </g>
     </g>
     <g id="text_14">
      <!-- 0.02 -->
      <g transform="translate(28.334375 187.197619) scale(0.1 -0.1)">
       <use xlink:href="#DejaVuSans-30"/>
       <use xlink:href="#DejaVuSans-2e" x="63.623047"/>
       <use xlink:href="#DejaVuSans-30" x="95.410156"/>
       <use xlink:href="#DejaVuSans-32" x="159.033203"/>
      </g>
     </g>
    </g>
    <g id="ytick_5">
     <g id="line2d_14">
      <g>
       <use xlink:href="#mcd3dbe2cb1" x="57.6" y="147.9168" style="stroke: #000000; stroke-width: 0.8"/>
      </g>
     </g>
     <g id="text_15">
      <!-- 0.04 -->
      <g transform="translate(28.334375 151.716019) scale(0.1 -0.1)">
       <use xlink:href="#DejaVuSans-30"/>
       <use xlink:href="#DejaVuSans-2e" x="63.623047"/>
       <use xlink:href="#DejaVuSans-30" x="95.410156"/>
       <use xlink:href="#DejaVuSans-34" x="159.033203"/>
      </g>
     </g>
    </g>
    <g id="ytick_6">
     <g id="line2d_15">
      <g>
       <use xlink:href="#mcd3dbe2cb1" x="57.6" y="112.4352" style="stroke: #000000; stroke-width: 0.8"/>
      </g>
     </g>
     <g id="text_16">
      <!-- 0.06 -->
      <g transform="translate(28.334375 116.234419) scale(0.1 -0.1)">
       <use xlink:href="#DejaVuSans-30"/>
       <use xlink:href="#DejaVuSans-2e" x="63.623047"/>
       <use xlink:href="#DejaVuSans-30" x="95.410156"/>
       <use xlink:href="#DejaVuSans-36" x="159.033203"/>
      </g>
     </g>
    </g>
    <g id="ytick_7">
     <g id="line2d_16">
      <g>
       <use xlink:href="#mcd3dbe2cb1" x="57.6" y="76.9536" style="stroke: #000000; stroke-width: 0.8"/>
      </g>
     </g>
     <g id="text_17">
      <!-- 0.08 -->
      <g transform="translate(28.334375 80.752819) scale(0.1 -0.1)">
       <use xlink:href="#DejaVuSans-30"/>
       <use xlink:href="#DejaVuSans-2e" x="63.623047"/>
       <use xlink:href="#DejaVuSans-30" x="95.410156"/>
       <use xlink:href="#DejaVuSans-38" x="159.033203"/>
      </g>
     </g>
    </g>
    <g id="ytick_8">
     <g id="line2d_17">
      <g>
       <use xlink:href="#mcd3dbe2cb1" x="57.6" y="41.472" style="stroke: #000000; stroke-width: 0.8"/>
      </g>
     </g>
     <g id="text_18">
      <!-- 0.10 -->
      <g transform="translate(28.334375 45.271219) scale(0.1 -0.1)">
       <use xlink:href="#DejaVuSans-30"/>
       <use xlink:href="#DejaVuSans-2e" x="63.623047"/>
       <use xlink:href="#DejaVuSans-31" x="95.410156"/>
       <use xlink:href="#DejaVuSans-30" x="159.033203"/>
      </g>
     </g>
    </g>
    <g id="text_19">
     <!-- Crescimento real -->
     <g transform="translate(13.875 216.978781) rotate(-90) scale(0.1 -0.1)">
      <defs>
       <path id="DejaVuSans-43" d="M 4122 4306 
L 4122 3641 
Q 3803 3938 3442 4084 
Q 3081 4231 2675 4231 
Q 1875 4231 1450 3742 
Q 1025 3253 1025 2328 
Q 1025 1406 1450 917 
Q 1875 428 2675 428 
Q 3081 428 3442 575 
Q 3803 722 4122 1019 
L 4122 359 
Q 3791 134 3420 21 
Q 3050 -91 2638 -91 
Q 1578 -91 968 557 
Q 359 1206 359 2328 
Q 359 3453 968 4101 
Q 1578 4750 2638 4750 
Q 3056 4750 3426 4639 
Q 3797 4528 4122 4306 
z
" transform="scale(0.015625)"/>
       <path id="DejaVuSans-72" d="M 2631 2963 
Q 2534 3019 2420 3045 
Q 2306 3072 2169 3072 
Q 1681 3072 1420 2755 
Q 1159 2438 1159 1844 
L 1159 0 
L 581 0 
L 581 3500 
L 1159 3500 
L 1159 2956 
Q 1341 3275 1631 3429 
Q 1922 3584 2338 3584 
Q 2397 3584 2469 3576 
Q 2541 3569 2628 3553 
L 2631 2963 
z
" transform="scale(0.015625)"/>
       <path id="DejaVuSans-65" d="M 3597 1894 
L 3597 1613 
L 953 1613 
Q 991 1019 1311 708 
Q 1631 397 2203 397 
Q 2534 397 2845 478 
Q 3156 559 3463 722 
L 3463 178 
Q 3153 47 2828 -22 
Q 2503 -91 2169 -91 
Q 1331 -91 842 396 
Q 353 884 353 1716 
Q 353 2575 817 3079 
Q 1281 3584 2069 3584 
Q 2775 3584 3186 3129 
Q 3597 2675 3597 1894 
z
M 3022 2063 
Q 3016 2534 2758 2815 
Q 2500 3097 2075 3097 
Q 1594 3097 1305 2825 
Q 1016 2553 972 2059 
L 3022 2063 
z
" transform="scale(0.015625)"/>
       <path id="DejaVuSans-73" d="M 2834 3397 
L 2834 2853 
Q 2591 2978 2328 3040 
Q 2066 3103 1784 3103 
Q 1356 3103 1142 2972 
Q 928 2841 928 2578 
Q 928 2378 1081 2264 
Q 1234 2150 1697 2047 
L 1894 2003 
Q 2506 1872 2764 1633 
Q 3022 1394 3022 966 
Q 3022 478 2636 193 
Q 2250 -91 1575 -91 
Q 1294 -91 989 -36 
Q 684 19 347 128 
L 347 722 
Q 666 556 975 473 
Q 1284 391 1588 391 
Q 1994 391 2212 530 
Q 2431 669 2431 922 
Q 2431 1156 2273 1281 
Q 2116 1406 1581 1522 
L 1381 1569 
Q 847 1681 609 1914 
Q 372 2147 372 2553 
Q 372 3047 722 3315 
Q 1072 3584 1716 3584 
Q 2034 3584 2315 3537 
Q 2597 3491 2834 3397 
z
" transform="scale(0.015625)"/>
       <path id="DejaVuSans-63" d="M 3122 3366 
L 3122 2828 
Q 2878 2963 2633 3030 
Q 2388 3097 2138 3097 
Q 1578 3097 1268 2742 
Q 959 2388 959 1747 
Q 959 1106 1268 751 
Q 1578 397 2138 397 
Q 2388 397 2633 464 
Q 2878 531 3122 666 
L 3122 134 
Q 2881 22 2623 -34 
Q 2366 -91 2075 -91 
Q 1284 -91 818 406 
Q 353 903 353 1747 
Q 353 2603 823 3093 
Q 1294 3584 2113 3584 
Q 2378 3584 2631 3529 
Q 2884 3475 3122 3366 
z
" transform="scale(0.015625)"/>
       <path id="DejaVuSans-69" d="M 603 3500 
L 1178 3500 
L 1178 0 
L 603 0 
L 603 3500 
z
M 603 4863 
L 1178 4863 
L 1178 4134 
L 603 4134 
L 603 4863 
z
" transform="scale(0.015625)"/>
       <path id="DejaVuSans-6d" d="M 3328 2828 
Q 3544 3216 3844 3400 
Q 4144 3584 4550 3584 
Q 5097 3584 5394 3201 
Q 5691 2819 5691 2113 
L 5691 0 
L 5113 0 
L 5113 2094 
Q 5113 2597 4934 2840 
Q 4756 3084 4391 3084 
Q 3944 3084 3684 2787 
Q 3425 2491 3425 1978 
L 3425 0 
L 2847 0 
L 2847 2094 
Q 2847 2600 2669 2842 
Q 2491 3084 2119 3084 
Q 1678 3084 1418 2786 
Q 1159 2488 1159 1978 
L 1159 0 
L 581 0 
L 581 3500 
L 1159 3500 
L 1159 2956 
Q 1356 3278 1631 3431 
Q 1906 3584 2284 3584 
Q 2666 3584 2933 3390 
Q 3200 3197 3328 2828 
z
" transform="scale(0.015625)"/>
       <path id="DejaVuSans-74" d="M 1172 4494 
L 1172 3500 
L 2356 3500 
L 2356 3053 
L 1172 3053 
L 1172 1153 
Q 1172 725 1289 603 
Q 1406 481 1766 481 
L 2356 481 
L 2356 0 
L 1766 0 
Q 1100 0 847 248 
Q 594 497 594 1153 
L 594 3053 
L 172 3053 
L 172 3500 
L 594 3500 
L 594 4494 
L 1172 4494 
z
" transform="scale(0.015625)"/>
       <path id="DejaVuSans-20" transform="scale(0.015625)"/>
       <path id="DejaVuSans-61" d="M 2194 1759 
Q 1497 1759 1228 1600 
Q 959 1441 959 1056 
Q 959 750 1161 570 
Q 1363 391 1709 391 
Q 2188 391 2477 730 
Q 2766 1069 2766 1631 
L 2766 1759 
L 2194 1759 
z
M 3341 1997 
L 3341 0 
L 2766 0 
L 2766 531 
Q 2569 213 2275 61 
Q 1981 -91 1556 -91 
Q 1019 -91 701 211 
Q 384 513 384 1019 
Q 384 1609 779 1909 
Q 1175 2209 1959 2209 
L 2766 2209 
L 2766 2266 
Q 2766 2663 2505 2880 
Q 2244 3097 1772 3097 
Q 1472 3097 1187 3025 
Q 903 2953 641 2809 
L 641 3341 
Q 956 3463 1253 3523 
Q 1550 3584 1831 3584 
Q 2591 3584 2966 3190 
Q 3341 2797 3341 1997 
z
" transform="scale(0.015625)"/>
       <path id="DejaVuSans-6c" d="M 603 4863 
L 1178 4863 
L 1178 0 
L 603 0 
L 603 4863 
z
" transform="scale(0.015625)"/>
      </defs>
      <use xlink:href="#DejaVuSans-43"/>
      <use xlink:href="#DejaVuSans-72" x="69.824219"/>
      <use xlink:href="#DejaVuSans-65" x="108.6875"/>
      <use xlink:href="#DejaVuSans-73" x="170.210938"/>
      <use xlink:href="#DejaVuSans-63" x="222.310547"/>
      <use xlink:href="#DejaVuSans-69" x="277.291016"/>
      <use xlink:href="#DejaVuSans-6d" x="305.074219"/>
      <use xlink:href="#DejaVuSans-65" x="402.486328"/>
      <use xlink:href="#DejaVuSans-6e" x="464.009766"/>
      <use xlink:href="#DejaVuSans-74" x="527.388672"/>
      <use xlink:href="#DejaVuSans-6f" x="566.597656"/>
      <use xlink:href="#DejaVuSans-20" x="627.779297"/>
      <use xlink:href="#DejaVuSans-72" x="659.566406"/>
      <use xlink:href="#DejaVuSans-65" x="698.429688"/>
      <use xlink:href="#DejaVuSans-61" x="759.953125"/>
      <use xlink:href="#DejaVuSans-6c" x="821.232422"/>
     </g>
    </g>
   </g>
   <g id="line2d_18">
    <path d="M 73.832727 111.693085 
L 92.966957 114.722642 
L 112.048906 124.521985 
L 131.130856 127.720151 
L 150.212806 134.001249 
L 169.347036 149.865791 
L 188.428986 143.354415 
L 207.510935 135.317721 
L 226.592885 117.055957 
L 245.727115 133.495498 
L 264.809065 147.535308 
L 283.891014 191.920906 
L 302.972964 253.955576 
L 322.107194 242.227432 
L 341.189144 203.9663 
L 360.271094 167.796079 
L 379.353043 212.630162 
L 398.487273 190.706664 
" clip-path="url(#p66880ee0e3)" style="fill: none; stroke: #dcdcdc; stroke-width: 1.5; stroke-linecap: square"/>
   </g>
   <g id="line2d_19">
    <path d="M 73.832727 101.501592 
L 92.966957 116.963917 
L 112.048906 124.227281 
L 131.130856 135.539764 
L 150.212806 124.384128 
L 169.347036 118.01442 
L 188.428986 128.193015 
L 207.510935 134.104245 
L 226.592885 142.426052 
L 245.727115 152.670748 
L 264.809065 153.044061 
L 283.891014 186.226331 
L 302.972964 234.789563 
L 322.107194 217.422741 
L 341.189144 198.354917 
L 360.271094 164.530198 
L 379.353043 231.876155 
L 398.487273 209.806566 
" clip-path="url(#p66880ee0e3)" style="fill: none; stroke: #dcdcdc; stroke-width: 1.5; stroke-linecap: square"/>
   </g>
   <g id="line2d_20">
    <path d="M 73.832727 162.696726 
L 92.966957 167.603162 
L 112.048906 129.005293 
L 131.130856 141.756069 
L 150.212806 110.869036 
L 169.347036 157.229124 
L 188.428986 137.023019 
L 207.510935 157.223417 
L 226.592885 153.20642 
L 245.727115 163.179889 
L 264.809065 165.223745 
L 283.891014 188.991408 
L 302.972964 237.389305 
L 322.107194 250.95951 
L 341.189144 222.942054 
L 360.271094 189.182801 
L 379.353043 230.008103 
L 398.487273 212.063464 
" clip-path="url(#p66880ee0e3)" style="fill: none; stroke: #dcdcdc; stroke-width: 1.5; stroke-linecap: square"/>
   </g>
   <g id="line2d_21">
    <path d="M 73.832727 159.708996 
L 92.966957 168.347424 
L 112.048906 166.584806 
L 131.130856 174.783833 
L 150.212806 162.280985 
L 169.347036 171.40624 
L 188.428986 165.972239 
L 207.510935 162.271591 
L 226.592885 164.36077 
L 245.727115 167.07471 
L 264.809065 187.766006 
L 283.891014 204.900754 
L 302.972964 247.341645 
L 322.107194 250.860161 
L 341.189144 228.182003 
L 360.271094 197.229701 
L 379.353043 228.703302 
L 398.487273 209.373295 
" clip-path="url(#p66880ee0e3)" style="fill: none; stroke: #dcdcdc; stroke-width: 1.5; stroke-linecap: square"/>
   </g>
   <g id="line2d_22">
    <path d="M 73.832727 142.417819 
L 92.966957 154.669783 
L 112.048906 142.206367 
L 131.130856 151.203287 
L 150.212806 139.731967 
L 169.347036 174.222513 
L 188.428986 128.740212 
L 207.510935 120.251195 
L 226.592885 108.558956 
L 245.727115 133.842308 
L 264.809065 154.528669 
L 283.891014 188.549681 
L 302.972964 236.669572 
L 322.107194 248.892991 
L 341.189144 228.085119 
L 360.271094 208.208334 
L 379.353043 233.399045 
L 398.487273 205.083003 
" clip-path="url(#p66880ee0e3)" style="fill: none; stroke: #dcdcdc; stroke-width: 1.5; stroke-linecap: square"/>
   </g>
   <g id="line2d_23">
    <path d="M 73.832727 197.707768 
L 92.966957 181.757613 
L 112.048906 138.681238 
L 131.130856 140.093958 
L 150.212806 136.159301 
L 169.347036 153.276943 
L 188.428986 144.218975 
L 207.510935 144.747468 
L 226.592885 133.436407 
L 245.727115 155.096314 
L 264.809065 173.276075 
L 283.891014 221.55357 
L 302.972964 255.600765 
L 322.107194 253.673616 
L 341.189144 213.466786 
L 360.271094 191.491276 
L 379.353043 225.924129 
L 398.487273 221.1025 
" clip-path="url(#p66880ee0e3)" style="fill: none; stroke: #dcdcdc; stroke-width: 1.5; stroke-linecap: square"/>
   </g>
   <g id="line2d_24">
    <path d="M 73.832727 176.640159 
L 92.966957 173.1634 
L 112.048906 151.470542 
L 131.130856 158.030698 
L 150.212806 135.22522 
L 169.347036 144.105266 
L 188.428986 144.543386 
L 207.510935 159.260496 
L 226.592885 154.925832 
L 245.727115 180.721131 
L 264.809065 178.884573 
L 283.891014 203.684154 
L 302.972964 213.355619 
L 322.107194 219.734424 
L 341.189144 197.349028 
L 360.271094 177.758313 
L 379.353043 224.267962 
L 398.487273 193.989635 
" clip-path="url(#p66880ee0e3)" style="fill: none; stroke: #dcdcdc; stroke-width: 1.5; stroke-linecap: square"/>
   </g>
   <g id="line2d_25">
    <path d="M 73.832727 138.171899 
L 92.966957 140.98398 
L 112.048906 133.163479 
L 131.130856 134.842216 
L 150.212806 144.265495 
L 169.347036 143.004921 
L 188.428986 147.458584 
L 207.510935 134.013816 
L 226.592885 153.084201 
L 245.727115 177.988809 
L 264.809065 202.492243 
L 283.891014 227.551502 
L 302.972964 262.955735 
L 322.107194 272.557993 
L 341.189144 264.179174 
L 360.271094 214.60207 
L 379.353043 213.456784 
L 398.487273 178.003606 
" clip-path="url(#p66880ee0e3)" style="fill: none; stroke: #dcdcdc; stroke-width: 1.5; stroke-linecap: square"/>
   </g>
   <g id="line2d_26">
    <path d="M 73.832727 117.116396 
L 92.966957 128.483797 
L 112.048906 126.07248 
L 131.130856 152.050103 
L 150.212806 145.422242 
L 169.347036 161.118781 
L 188.428986 156.407233 
L 207.510935 173.893117 
L 226.592885 159.965201 
L 245.727115 187.09004 
L 264.809065 186.111196 
L 283.891014 217.913382 
L 302.972964 259.254676 
L 322.107194 272.028703 
L 341.189144 239.74438 
L 360.271094 200.519849 
L 379.353043 225.87599 
L 398.487273 221.205718 
" clip-path="url(#p66880ee0e3)" style="fill: none; stroke: #dcdcdc; stroke-width: 1.5; stroke-linecap: square"/>
   </g>
   <g id="line2d_27">
    <path d="M 73.832727 80.229397 
L 92.966957 121.499056 
L 112.048906 113.624153 
L 131.130856 148.284648 
L 150.212806 144.85298 
L 169.347036 131.297198 
L 188.428986 104.903578 
L 207.510935 85.402248 
L 226.592885 107.419138 
L 245.727115 168.147866 
L 264.809065 178.91518 
L 283.891014 215.487266 
L 302.972964 243.913919 
L 322.107194 229.788164 
L 341.189144 192.362123 
L 360.271094 165.086492 
L 379.353043 221.099 
L 398.487273 213.454654 
" clip-path="url(#p66880ee0e3)" style="fill: none; stroke: #dcdcdc; stroke-width: 1.5; stroke-linecap: square"/>
   </g>
   <g id="line2d_28">
    <path d="M 73.832727 147.402198 
L 92.966957 148.357094 
L 112.048906 139.682352 
L 131.130856 144.517401 
L 150.212806 141.119538 
L 169.347036 184.158388 
L 188.428986 164.067097 
L 207.510935 176.759494 
L 226.592885 136.485823 
L 245.727115 184.797296 
L 264.809065 203.286817 
L 283.891014 245.280316 
L 302.972964 258.976498 
L 322.107194 244.94349 
L 341.189144 213.005827 
L 360.271094 204.529346 
L 379.353043 232.096434 
L 398.487273 206.858417 
" clip-path="url(#p66880ee0e3)" style="fill: none; stroke: #dcdcdc; stroke-width: 1.5; stroke-linecap: square"/>
   </g>
   <g id="line2d_29">
    <path d="M 73.832727 153.960823 
L 92.966957 156.047521 
L 112.048906 127.163354 
L 131.130856 111.260771 
L 150.212806 82.336146 
L 169.347036 171.797955 
L 188.428986 125.417373 
L 207.510935 126.092783 
L 226.592885 86.424175 
L 245.727115 173.235648 
L 264.809065 198.049981 
L 283.891014 206.341766 
L 302.972964 234.499361 
L 322.107194 255.223964 
L 341.189144 227.084616 
L 360.271094 224.255664 
L 379.353043 253.130187 
L 398.487273 241.668742 
" clip-path="url(#p66880ee0e3)" style="fill: none; stroke: #dcdcdc; stroke-width: 1.5; stroke-linecap: square"/>
   </g>
   <g id="line2d_30">
    <path d="M 73.832727 201.972759 
L 92.966957 192.383329 
L 112.048906 163.979248 
L 131.130856 162.564813 
L 150.212806 157.499637 
L 169.347036 167.907836 
L 188.428986 160.544166 
L 207.510935 167.756774 
L 226.592885 170.803728 
L 245.727115 190.068637 
L 264.809065 194.516387 
L 283.891014 217.702116 
L 302.972964 247.234646 
L 322.107194 266.700922 
L 341.189144 247.171335 
L 360.271094 221.100415 
L 379.353043 225.385715 
L 398.487273 206.329902 
" clip-path="url(#p66880ee0e3)" style="fill: none; stroke: #dcdcdc; stroke-width: 1.5; stroke-linecap: square"/>
   </g>
   <g id="line2d_31">
    <path d="M 73.832727 169.087232 
L 92.966957 162.219059 
L 112.048906 138.665916 
L 131.130856 131.82298 
L 150.212806 120.862408 
L 169.347036 142.274883 
L 188.428986 143.888147 
L 207.510935 157.008671 
L 226.592885 149.527925 
L 245.727115 174.874993 
L 264.809065 203.5801 
L 283.891014 231.800785 
L 302.972964 262.397832 
L 322.107194 254.443221 
L 341.189144 224.565673 
L 360.271094 200.654313 
L 379.353043 220.99283 
L 398.487273 203.967799 
" clip-path="url(#p66880ee0e3)" style="fill: none; stroke: #dcdcdc; stroke-width: 1.5; stroke-linecap: square"/>
   </g>
   <g id="line2d_32">
    <path d="M 73.832727 137.530889 
L 92.966957 162.45088 
L 112.048906 175.405788 
L 131.130856 164.205916 
L 150.212806 144.660636 
L 169.347036 166.511248 
L 188.428986 151.163753 
L 207.510935 149.127595 
L 226.592885 140.105978 
L 245.727115 164.75058 
L 264.809065 198.175143 
L 283.891014 214.205439 
L 302.972964 259.531047 
L 322.107194 238.346138 
L 341.189144 213.357614 
L 360.271094 196.564048 
L 379.353043 218.691964 
L 398.487273 206.977766 
" clip-path="url(#p66880ee0e3)" style="fill: none; stroke: #dcdcdc; stroke-width: 1.5; stroke-linecap: square"/>
   </g>
   <g id="line2d_33">
    <path d="M 73.832727 133.289244 
L 92.966957 150.679825 
L 112.048906 150.271321 
L 131.130856 158.043496 
L 150.212806 161.436434 
L 169.347036 176.874406 
L 188.428986 182.449019 
L 207.510935 170.517758 
L 226.592885 160.739822 
L 245.727115 170.268901 
L 264.809065 176.055337 
L 283.891014 206.641543 
L 302.972964 234.671236 
L 322.107194 227.163389 
L 341.189144 184.716795 
L 360.271094 157.120087 
L 379.353043 193.708819 
L 398.487273 177.080591 
" clip-path="url(#p66880ee0e3)" style="fill: none; stroke: #dcdcdc; stroke-width: 1.5; stroke-linecap: square"/>
   </g>
   <g id="line2d_34">
    <path d="M 73.832727 171.968399 
L 92.966957 205.149596 
L 112.048906 193.510509 
L 131.130856 173.609335 
L 150.212806 141.35732 
L 169.347036 173.207185 
L 188.428986 171.937505 
L 207.510935 160.914572 
L 226.592885 168.882567 
L 245.727115 158.086062 
L 264.809065 186.326991 
L 283.891014 195.744561 
L 302.972964 257.791944 
L 322.107194 244.548591 
L 341.189144 209.803682 
L 360.271094 192.882309 
L 379.353043 247.078071 
L 398.487273 201.099867 
" clip-path="url(#p66880ee0e3)" style="fill: none; stroke: #dcdcdc; stroke-width: 1.5; stroke-linecap: square"/>
   </g>
   <g id="line2d_35">
    <path d="M 73.832727 172.464187 
L 92.966957 174.554176 
L 112.048906 181.794805 
L 131.130856 147.865915 
L 150.212806 133.522417 
L 169.347036 162.777733 
L 188.428986 120.505696 
L 207.510935 130.091756 
L 226.592885 99.326857 
L 245.727115 128.041612 
L 264.809065 131.440075 
L 283.891014 166.574632 
L 302.972964 219.127163 
L 322.107194 203.347967 
L 341.189144 187.394084 
L 360.271094 178.008924 
L 379.353043 206.969213 
L 398.487273 220.115109 
" clip-path="url(#p66880ee0e3)" style="fill: none; stroke: #dcdcdc; stroke-width: 1.5; stroke-linecap: square"/>
   </g>
   <g id="line2d_36">
    <path d="M 73.832727 83.821938 
L 92.966957 114.637115 
L 112.048906 91.809999 
L 131.130856 142.210221 
L 150.212806 123.370186 
L 169.347036 148.477432 
L 188.428986 131.652922 
L 207.510935 141.856228 
L 226.592885 122.617739 
L 245.727115 147.711072 
L 264.809065 146.547155 
L 283.891014 189.046052 
L 302.972964 218.886265 
L 322.107194 242.340173 
L 341.189144 230.275478 
L 360.271094 218.230508 
L 379.353043 245.302643 
L 398.487273 206.493313 
" clip-path="url(#p66880ee0e3)" style="fill: none; stroke: #dcdcdc; stroke-width: 1.5; stroke-linecap: square"/>
   </g>
   <g id="line2d_37">
    <path d="M 73.832727 46.318937 
L 92.966957 77.296656 
L 112.048906 119.191138 
L 131.130856 132.696829 
L 150.212806 117.667568 
L 169.347036 94.059216 
L 188.428986 133.729287 
L 207.510935 144.020331 
L 226.592885 90.402711 
L 245.727115 102.986102 
L 264.809065 110.282845 
L 283.891014 184.474041 
L 302.972964 243.348377 
L 322.107194 193.663124 
L 341.189144 157.684442 
L 360.271094 96.921079 
L 379.353043 170.250397 
L 398.487273 196.629374 
" clip-path="url(#p66880ee0e3)" style="fill: none; stroke: #dcdcdc; stroke-width: 1.5; stroke-linecap: square"/>
   </g>
   <g id="line2d_38">
    <path d="M 73.832727 118.846638 
L 92.966957 132.824049 
L 112.048906 144.797466 
L 131.130856 151.410722 
L 150.212806 135.253072 
L 169.347036 149.939203 
L 188.428986 131.296112 
L 207.510935 132.650918 
L 226.592885 107.842491 
L 245.727115 139.112401 
L 264.809065 164.267361 
L 283.891014 214.341826 
L 302.972964 252.054207 
L 322.107194 244.681972 
L 341.189144 211.675118 
L 360.271094 181.511044 
L 379.353043 204.843034 
L 398.487273 199.255415 
" clip-path="url(#p66880ee0e3)" style="fill: none; stroke: #dcdcdc; stroke-width: 1.5; stroke-linecap: square"/>
   </g>
   <g id="line2d_39">
    <path d="M 73.832727 166.128636 
L 92.966957 152.14969 
L 112.048906 127.035945 
L 131.130856 120.47942 
L 150.212806 128.584115 
L 169.347036 130.085127 
L 188.428986 143.77622 
L 207.510935 146.228905 
L 226.592885 172.291722 
L 245.727115 172.696596 
L 264.809065 182.061477 
L 283.891014 188.81018 
L 302.972964 208.967653 
L 322.107194 218.322666 
L 341.189144 205.755026 
L 360.271094 196.503253 
L 379.353043 214.08028 
L 398.487273 207.238628 
" clip-path="url(#p66880ee0e3)" style="fill: none; stroke: #dcdcdc; stroke-width: 1.5; stroke-linecap: square"/>
   </g>
   <g id="line2d_40">
    <path d="M 73.832727 157.8215 
L 92.966957 160.350749 
L 112.048906 145.806179 
L 131.130856 144.963412 
L 150.212806 135.131419 
L 169.347036 157.502981 
L 188.428986 150.542797 
L 207.510935 156.062928 
L 226.592885 145.957899 
L 245.727115 170.206195 
L 264.809065 189.61545 
L 283.891014 217.776025 
L 302.972964 251.932418 
L 322.107194 247.241708 
L 341.189144 218.228397 
L 360.271094 195.289379 
L 379.353043 221.535665 
L 398.487273 205.07913 
" clip-path="url(#p66880ee0e3)" style="fill: none; stroke: #dcdcdc; stroke-width: 1.5; stroke-linecap: square"/>
   </g>
   <g id="line2d_41">
    <path d="M 73.832727 85.424186 
L 92.966957 79.028331 
L 112.048906 91.99193 
L 131.130856 125.176337 
L 150.212806 164.587865 
L 169.347036 177.166118 
L 188.428986 152.267082 
L 207.510935 103.065789 
L 226.592885 100.295544 
L 245.727115 130.207928 
L 264.809065 193.317921 
L 283.891014 224.086203 
L 302.972964 282.655227 
L 322.107194 251.511719 
L 341.189144 196.640833 
L 360.271094 150.481384 
L 379.353043 190.507268 
L 398.487273 187.181446 
" clip-path="url(#p66880ee0e3)" style="fill: none; stroke: #dcdcdc; stroke-width: 1.5; stroke-linecap: square"/>
   </g>
   <g id="line2d_42">
    <path d="M 73.832727 138.890057 
L 92.966957 124.442994 
L 112.048906 86.222495 
L 131.130856 136.735161 
L 150.212806 141.423474 
L 169.347036 159.176407 
L 188.428986 100.89738 
L 207.510935 119.460504 
L 226.592885 126.311988 
L 245.727115 144.297526 
L 264.809065 151.042003 
L 283.891014 180.284328 
L 302.972964 210.092265 
L 322.107194 205.609946 
L 341.189144 171.625585 
L 360.271094 151.721434 
L 379.353043 164.020555 
L 398.487273 145.811757 
" clip-path="url(#p66880ee0e3)" style="fill: none; stroke: #dcdcdc; stroke-width: 1.5; stroke-linecap: square"/>
   </g>
   <g id="line2d_43">
    <path d="M 73.832727 83.753327 
L 92.966957 104.570524 
L 112.048906 107.551916 
L 131.130856 145.486315 
L 150.212806 144.240634 
L 169.347036 201.845125 
L 188.428986 162.242821 
L 207.510935 162.849245 
L 226.592885 125.933201 
L 245.727115 162.630802 
L 264.809065 163.713216 
L 283.891014 184.377886 
L 302.972964 220.065568 
L 322.107194 224.73023 
L 341.189144 202.722662 
L 360.271094 199.564443 
L 379.353043 219.459627 
L 398.487273 215.656229 
" clip-path="url(#p66880ee0e3)" style="fill: none; stroke: #dcdcdc; stroke-width: 1.5; stroke-linecap: square"/>
   </g>
   <g id="line2d_44">
    <path d="M 73.832727 90.391977 
L 92.966957 97.951893 
L 112.048906 106.036987 
L 131.130856 119.505133 
L 150.212806 138.006366 
L 169.347036 162.364832 
L 188.428986 136.430988 
L 207.510935 131.400528 
L 226.592885 93.074242 
L 245.727115 124.083707 
L 264.809065 136.524339 
L 283.891014 220.955026 
L 302.972964 266.832263 
L 322.107194 266.523463 
L 341.189144 220.552103 
L 360.271094 183.55684 
L 379.353043 212.573237 
L 398.487273 198.86636 
" clip-path="url(#p66880ee0e3)" style="fill: none; stroke: #dcdcdc; stroke-width: 1.5; stroke-linecap: square"/>
   </g>
   <g id="line2d_45">
    <path d="M 73.832727 79.909567 
L 92.966957 105.072171 
L 112.048906 137.7238 
L 131.130856 149.203228 
L 150.212806 139.865034 
L 169.347036 143.589783 
L 188.428986 75.754351 
L 207.510935 55.57267 
L 226.592885 45.368485 
L 245.727115 127.662652 
L 264.809065 143.792324 
L 283.891014 172.820337 
L 302.972964 210.490184 
L 322.107194 225.233694 
L 341.189144 210.83725 
L 360.271094 156.425596 
L 379.353043 193.505115 
L 398.487273 147.632497 
" clip-path="url(#p66880ee0e3)" style="fill: none; stroke: #dcdcdc; stroke-width: 1.5; stroke-linecap: square"/>
   </g>
   <g id="line2d_46">
    <path d="M 73.832727 169.087232 
L 92.966957 162.219059 
L 112.048906 138.665916 
L 131.130856 131.82298 
L 150.212806 120.862408 
L 169.347036 142.274883 
L 188.428986 143.888147 
L 207.510935 157.008671 
L 226.592885 149.527925 
L 245.727115 174.874993 
L 264.809065 203.5801 
L 283.891014 231.800785 
L 302.972964 262.397832 
L 322.107194 254.443221 
L 341.189144 224.565673 
L 360.271094 200.654313 
L 379.353043 220.99283 
L 398.487273 203.967799 
" clip-path="url(#p66880ee0e3)" style="fill: none; stroke: #dcdcdc; stroke-width: 1.5; stroke-linecap: square"/>
   </g>
   <g id="line2d_47">
    <path d="M 73.832727 132.186846 
L 92.966957 141.037395 
L 112.048906 134.533059 
L 131.130856 143.744397 
L 150.212806 136.777239 
L 169.347036 156.13904 
L 188.428986 140.327206 
L 207.510935 140.068883 
L 226.592885 129.291627 
L 245.727115 156.104438 
L 264.809065 170.76876 
L 283.891014 203.343185 
L 302.972964 241.957337 
L 322.107194 239.462237 
L 341.189144 211.240741 
L 360.271094 184.682807 
L 379.353043 217.030964 
L 398.487273 200.876012 
" clip-path="url(#p66880ee0e3)" style="fill: none; stroke-dasharray: 5.55,2.4; stroke-dashoffset: 0; stroke: #dc143c; stroke-width: 1.5"/>
   </g>
   <g id="line2d_48">
    <path d="M 73.832727 157.8215 
L 92.966957 160.350749 
L 112.048906 145.806179 
L 131.130856 144.963412 
L 150.212806 135.131419 
L 169.347036 157.502981 
L 188.428986 150.542797 
L 207.510935 156.062928 
L 226.592885 145.957899 
L 245.727115 170.206195 
L 264.809065 189.61545 
L 283.891014 217.776025 
L 302.972964 251.932418 
L 322.107194 247.241708 
L 341.189144 218.228397 
L 360.271094 195.289379 
L 379.353043 221.535665 
L 398.487273 205.07913 
" clip-path="url(#p66880ee0e3)" style="fill: none; stroke: #ffd700; stroke-width: 1.5; stroke-linecap: square"/>
   </g>
   <g id="line2d_49">
    <path d="M 73.832727 201.972759 
L 92.966957 192.383329 
L 112.048906 163.979248 
L 131.130856 162.564813 
L 150.212806 157.499637 
L 169.347036 167.907836 
L 188.428986 160.544166 
L 207.510935 167.756774 
L 226.592885 170.803728 
L 245.727115 190.068637 
L 264.809065 194.516387 
L 283.891014 217.702116 
L 302.972964 247.234646 
L 322.107194 266.700922 
L 341.189144 247.171335 
L 360.271094 221.100415 
L 379.353043 225.385715 
L 398.487273 206.329902 
" clip-path="url(#p66880ee0e3)" style="fill: none; stroke: #008080; stroke-width: 1.5; stroke-linecap: square"/>
   </g>
   <g id="patch_3">
    <path d="M 57.6 307.584 
L 57.6 41.472 
" style="fill: none; stroke: #000000; stroke-width: 0.8; stroke-linejoin: miter; stroke-linecap: square"/>
   </g>
   <g id="patch_4">
    <path d="M 414.72 307.584 
L 414.72 41.472 
" style="fill: none; stroke: #000000; stroke-width: 0.8; stroke-linejoin: miter; stroke-linecap: square"/>
   </g>
   <g id="patch_5">
    <path d="M 57.6 307.584 
L 414.72 307.584 
" style="fill: none; stroke: #000000; stroke-width: 0.8; stroke-linejoin: miter; stroke-linecap: square"/>
   </g>
   <g id="patch_6">
    <path d="M 57.6 41.472 
L 414.72 41.472 
" style="fill: none; stroke: #000000; stroke-width: 0.8; stroke-linejoin: miter; stroke-linecap: square"/>
   </g>
   <g id="text_20">
    <!-- Média Móvel (3 anos) da taxa de Crescimento do PIB -->
    <g transform="translate(77.547188 35.472) scale(0.12 -0.12)">
     <defs>
      <path id="DejaVuSans-4d" d="M 628 4666 
L 1569 4666 
L 2759 1491 
L 3956 4666 
L 4897 4666 
L 4897 0 
L 4281 0 
L 4281 4097 
L 3078 897 
L 2444 897 
L 1241 4097 
L 1241 0 
L 628 0 
L 628 4666 
z
" transform="scale(0.015625)"/>
      <path id="DejaVuSans-e9" d="M 3597 1894 
L 3597 1613 
L 953 1613 
Q 991 1019 1311 708 
Q 1631 397 2203 397 
Q 2534 397 2845 478 
Q 3156 559 3463 722 
L 3463 178 
Q 3153 47 2828 -22 
Q 2503 -91 2169 -91 
Q 1331 -91 842 396 
Q 353 884 353 1716 
Q 353 2575 817 3079 
Q 1281 3584 2069 3584 
Q 2775 3584 3186 3129 
Q 3597 2675 3597 1894 
z
M 3022 2063 
Q 3016 2534 2758 2815 
Q 2500 3097 2075 3097 
Q 1594 3097 1305 2825 
Q 1016 2553 972 2059 
L 3022 2063 
z
M 2466 5119 
L 3088 5119 
L 2070 3944 
L 1591 3944 
L 2466 5119 
z
" transform="scale(0.015625)"/>
      <path id="DejaVuSans-64" d="M 2906 2969 
L 2906 4863 
L 3481 4863 
L 3481 0 
L 2906 0 
L 2906 525 
Q 2725 213 2448 61 
Q 2172 -91 1784 -91 
Q 1150 -91 751 415 
Q 353 922 353 1747 
Q 353 2572 751 3078 
Q 1150 3584 1784 3584 
Q 2172 3584 2448 3432 
Q 2725 3281 2906 2969 
z
M 947 1747 
Q 947 1113 1208 752 
Q 1469 391 1925 391 
Q 2381 391 2643 752 
Q 2906 1113 2906 1747 
Q 2906 2381 2643 2742 
Q 2381 3103 1925 3103 
Q 1469 3103 1208 2742 
Q 947 2381 947 1747 
z
" transform="scale(0.015625)"/>
      <path id="DejaVuSans-f3" d="M 1959 3097 
Q 1497 3097 1228 2736 
Q 959 2375 959 1747 
Q 959 1119 1226 758 
Q 1494 397 1959 397 
Q 2419 397 2687 759 
Q 2956 1122 2956 1747 
Q 2956 2369 2687 2733 
Q 2419 3097 1959 3097 
z
M 1959 3584 
Q 2709 3584 3137 3096 
Q 3566 2609 3566 1747 
Q 3566 888 3137 398 
Q 2709 -91 1959 -91 
Q 1206 -91 779 398 
Q 353 888 353 1747 
Q 353 2609 779 3096 
Q 1206 3584 1959 3584 
z
M 2394 5119 
L 3016 5119 
L 1998 3944 
L 1519 3944 
L 2394 5119 
z
" transform="scale(0.015625)"/>
      <path id="DejaVuSans-76" d="M 191 3500 
L 800 3500 
L 1894 563 
L 2988 3500 
L 3597 3500 
L 2284 0 
L 1503 0 
L 191 3500 
z
" transform="scale(0.015625)"/>
      <path id="DejaVuSans-28" d="M 1984 4856 
Q 1566 4138 1362 3434 
Q 1159 2731 1159 2009 
Q 1159 1288 1364 580 
Q 1569 -128 1984 -844 
L 1484 -844 
Q 1016 -109 783 600 
Q 550 1309 550 2009 
Q 550 2706 781 3412 
Q 1013 4119 1484 4856 
L 1984 4856 
z
" transform="scale(0.015625)"/>
      <path id="DejaVuSans-33" d="M 2597 2516 
Q 3050 2419 3304 2112 
Q 3559 1806 3559 1356 
Q 3559 666 3084 287 
Q 2609 -91 1734 -91 
Q 1441 -91 1130 -33 
Q 819 25 488 141 
L 488 750 
Q 750 597 1062 519 
Q 1375 441 1716 441 
Q 2309 441 2620 675 
Q 2931 909 2931 1356 
Q 2931 1769 2642 2001 
Q 2353 2234 1838 2234 
L 1294 2234 
L 1294 2753 
L 1863 2753 
Q 2328 2753 2575 2939 
Q 2822 3125 2822 3475 
Q 2822 3834 2567 4026 
Q 2313 4219 1838 4219 
Q 1578 4219 1281 4162 
Q 984 4106 628 3988 
L 628 4550 
Q 988 4650 1302 4700 
Q 1616 4750 1894 4750 
Q 2613 4750 3031 4423 
Q 3450 4097 3450 3541 
Q 3450 3153 3228 2886 
Q 3006 2619 2597 2516 
z
" transform="scale(0.015625)"/>
      <path id="DejaVuSans-29" d="M 513 4856 
L 1013 4856 
Q 1481 4119 1714 3412 
Q 1947 2706 1947 2009 
Q 1947 1309 1714 600 
Q 1481 -109 1013 -844 
L 513 -844 
Q 928 -128 1133 580 
Q 1338 1288 1338 2009 
Q 1338 2731 1133 3434 
Q 928 4138 513 4856 
z
" transform="scale(0.015625)"/>
      <path id="DejaVuSans-78" d="M 3513 3500 
L 2247 1797 
L 3578 0 
L 2900 0 
L 1881 1375 
L 863 0 
L 184 0 
L 1544 1831 
L 300 3500 
L 978 3500 
L 1906 2253 
L 2834 3500 
L 3513 3500 
z
" transform="scale(0.015625)"/>
      <path id="DejaVuSans-50" d="M 1259 4147 
L 1259 2394 
L 2053 2394 
Q 2494 2394 2734 2622 
Q 2975 2850 2975 3272 
Q 2975 3691 2734 3919 
Q 2494 4147 2053 4147 
L 1259 4147 
z
M 628 4666 
L 2053 4666 
Q 2838 4666 3239 4311 
Q 3641 3956 3641 3272 
Q 3641 2581 3239 2228 
Q 2838 1875 2053 1875 
L 1259 1875 
L 1259 0 
L 628 0 
L 628 4666 
z
" transform="scale(0.015625)"/>
      <path id="DejaVuSans-49" d="M 628 4666 
L 1259 4666 
L 1259 0 
L 628 0 
L 628 4666 
z
" transform="scale(0.015625)"/>
      <path id="DejaVuSans-42" d="M 1259 2228 
L 1259 519 
L 2272 519 
Q 2781 519 3026 730 
Q 3272 941 3272 1375 
Q 3272 1813 3026 2020 
Q 2781 2228 2272 2228 
L 1259 2228 
z
M 1259 4147 
L 1259 2741 
L 2194 2741 
Q 2656 2741 2882 2914 
Q 3109 3088 3109 3444 
Q 3109 3797 2882 3972 
Q 2656 4147 2194 4147 
L 1259 4147 
z
M 628 4666 
L 2241 4666 
Q 2963 4666 3353 4366 
Q 3744 4066 3744 3513 
Q 3744 3084 3544 2831 
Q 3344 2578 2956 2516 
Q 3422 2416 3680 2098 
Q 3938 1781 3938 1306 
Q 3938 681 3513 340 
Q 3088 0 2303 0 
L 628 0 
L 628 4666 
z
" transform="scale(0.015625)"/>
     </defs>
     <use xlink:href="#DejaVuSans-4d"/>
     <use xlink:href="#DejaVuSans-e9" x="86.279297"/>
     <use xlink:href="#DejaVuSans-64" x="147.802734"/>
     <use xlink:href="#DejaVuSans-69" x="211.279297"/>
     <use xlink:href="#DejaVuSans-61" x="239.0625"/>
     <use xlink:href="#DejaVuSans-20" x="300.341797"/>
     <use xlink:href="#DejaVuSans-4d" x="332.128906"/>
     <use xlink:href="#DejaVuSans-f3" x="418.408203"/>
     <use xlink:href="#DejaVuSans-76" x="479.589844"/>
     <use xlink:href="#DejaVuSans-65" x="538.769531"/>
     <use xlink:href="#DejaVuSans-6c" x="600.292969"/>
     <use xlink:href="#DejaVuSans-20" x="628.076172"/>
     <use xlink:href="#DejaVuSans-28" x="659.863281"/>
     <use xlink:href="#DejaVuSans-33" x="698.876953"/>
     <use xlink:href="#DejaVuSans-20" x="762.5"/>
     <use xlink:href="#DejaVuSans-61" x="794.287109"/>
     <use xlink:href="#DejaVuSans-6e" x="855.566406"/>
     <use xlink:href="#DejaVuSans-6f" x="918.945312"/>
     <use xlink:href="#DejaVuSans-73" x="980.126953"/>
     <use xlink:href="#DejaVuSans-29" x="1032.226562"/>
     <use xlink:href="#DejaVuSans-20" x="1071.240234"/>
     <use xlink:href="#DejaVuSans-64" x="1103.027344"/>
     <use xlink:href="#DejaVuSans-61" x="1166.503906"/>
     <use xlink:href="#DejaVuSans-20" x="1227.783203"/>
     <use xlink:href="#DejaVuSans-74" x="1259.570312"/>
     <use xlink:href="#DejaVuSans-61" x="1298.779297"/>
     <use xlink:href="#DejaVuSans-78" x="1360.058594"/>
     <use xlink:href="#DejaVuSans-61" x="1419.238281"/>
     <use xlink:href="#DejaVuSans-20" x="1480.517578"/>
     <use xlink:href="#DejaVuSans-64" x="1512.304688"/>
     <use xlink:href="#DejaVuSans-65" x="1575.78125"/>
     <use xlink:href="#DejaVuSans-20" x="1637.304688"/>
     <use xlink:href="#DejaVuSans-43" x="1669.091797"/>
     <use xlink:href="#DejaVuSans-72" x="1738.916016"/>
     <use xlink:href="#DejaVuSans-65" x="1777.779297"/>
     <use xlink:href="#DejaVuSans-73" x="1839.302734"/>
     <use xlink:href="#DejaVuSans-63" x="1891.402344"/>
     <use xlink:href="#DejaVuSans-69" x="1946.382812"/>
     <use xlink:href="#DejaVuSans-6d" x="1974.166016"/>
     <use xlink:href="#DejaVuSans-65" x="2071.578125"/>
     <use xlink:href="#DejaVuSans-6e" x="2133.101562"/>
     <use xlink:href="#DejaVuSans-74" x="2196.480469"/>
     <use xlink:href="#DejaVuSans-6f" x="2235.689453"/>
     <use xlink:href="#DejaVuSans-20" x="2296.871094"/>
     <use xlink:href="#DejaVuSans-64" x="2328.658203"/>
     <use xlink:href="#DejaVuSans-6f" x="2392.134766"/>
     <use xlink:href="#DejaVuSans-20" x="2453.316406"/>
     <use xlink:href="#DejaVuSans-50" x="2485.103516"/>
     <use xlink:href="#DejaVuSans-49" x="2545.40625"/>
     <use xlink:href="#DejaVuSans-42" x="2574.898438"/>
    </g>
   </g>
   <g id="legend_1">
    <g id="patch_7">
     <path d="M 64.6 302.584 
L 172.209375 302.584 
Q 174.209375 302.584 174.209375 300.584 
L 174.209375 242.8715 
Q 174.209375 240.8715 172.209375 240.8715 
L 64.6 240.8715 
Q 62.6 240.8715 62.6 242.8715 
L 62.6 300.584 
Q 62.6 302.584 64.6 302.584 
z
" style="fill: #ffffff; opacity: 0.8; stroke: #cccccc; stroke-linejoin: miter"/>
    </g>
    <g id="line2d_50">
     <path d="M 66.6 248.969937 
L 76.6 248.969937 
L 86.6 248.969937 
" style="fill: none; stroke: #dcdcdc; stroke-width: 1.5; stroke-linecap: square"/>
    </g>
    <g id="text_21">
     <!-- Outros estados -->
     <g transform="translate(94.6 252.469937) scale(0.1 -0.1)">
      <defs>
       <path id="DejaVuSans-4f" d="M 2522 4238 
Q 1834 4238 1429 3725 
Q 1025 3213 1025 2328 
Q 1025 1447 1429 934 
Q 1834 422 2522 422 
Q 3209 422 3611 934 
Q 4013 1447 4013 2328 
Q 4013 3213 3611 3725 
Q 3209 4238 2522 4238 
z
M 2522 4750 
Q 3503 4750 4090 4092 
Q 4678 3434 4678 2328 
Q 4678 1225 4090 567 
Q 3503 -91 2522 -91 
Q 1538 -91 948 565 
Q 359 1222 359 2328 
Q 359 3434 948 4092 
Q 1538 4750 2522 4750 
z
" transform="scale(0.015625)"/>
       <path id="DejaVuSans-75" d="M 544 1381 
L 544 3500 
L 1119 3500 
L 1119 1403 
Q 1119 906 1312 657 
Q 1506 409 1894 409 
Q 2359 409 2629 706 
Q 2900 1003 2900 1516 
L 2900 3500 
L 3475 3500 
L 3475 0 
L 2900 0 
L 2900 538 
Q 2691 219 2414 64 
Q 2138 -91 1772 -91 
Q 1169 -91 856 284 
Q 544 659 544 1381 
z
M 1991 3584 
L 1991 3584 
z
" transform="scale(0.015625)"/>
      </defs>
      <use xlink:href="#DejaVuSans-4f"/>
      <use xlink:href="#DejaVuSans-75" x="78.710938"/>
      <use xlink:href="#DejaVuSans-74" x="142.089844"/>
      <use xlink:href="#DejaVuSans-72" x="181.298828"/>
      <use xlink:href="#DejaVuSans-6f" x="220.162109"/>
      <use xlink:href="#DejaVuSans-73" x="281.34375"/>
      <use xlink:href="#DejaVuSans-20" x="333.443359"/>
      <use xlink:href="#DejaVuSans-65" x="365.230469"/>
      <use xlink:href="#DejaVuSans-73" x="426.753906"/>
      <use xlink:href="#DejaVuSans-74" x="478.853516"/>
      <use xlink:href="#DejaVuSans-61" x="518.0625"/>
      <use xlink:href="#DejaVuSans-64" x="579.341797"/>
      <use xlink:href="#DejaVuSans-6f" x="642.818359"/>
      <use xlink:href="#DejaVuSans-73" x="704"/>
     </g>
    </g>
    <g id="line2d_51">
     <path d="M 66.6 263.648062 
L 76.6 263.648062 
L 86.6 263.648062 
" style="fill: none; stroke-dasharray: 5.55,2.4; stroke-dashoffset: 0; stroke: #dc143c; stroke-width: 1.5"/>
    </g>
    <g id="text_22">
     <!-- Média estados -->
     <g transform="translate(94.6 267.148062) scale(0.1 -0.1)">
      <use xlink:href="#DejaVuSans-4d"/>
      <use xlink:href="#DejaVuSans-e9" x="86.279297"/>
      <use xlink:href="#DejaVuSans-64" x="147.802734"/>
      <use xlink:href="#DejaVuSans-69" x="211.279297"/>
      <use xlink:href="#DejaVuSans-61" x="239.0625"/>
      <use xlink:href="#DejaVuSans-20" x="300.341797"/>
      <use xlink:href="#DejaVuSans-65" x="332.128906"/>
      <use xlink:href="#DejaVuSans-73" x="393.652344"/>
      <use xlink:href="#DejaVuSans-74" x="445.751953"/>
      <use xlink:href="#DejaVuSans-61" x="484.960938"/>
      <use xlink:href="#DejaVuSans-64" x="546.240234"/>
      <use xlink:href="#DejaVuSans-6f" x="609.716797"/>
      <use xlink:href="#DejaVuSans-73" x="670.898438"/>
     </g>
    </g>
    <g id="line2d_52">
     <path d="M 66.6 278.326187 
L 76.6 278.326187 
L 86.6 278.326187 
" style="fill: none; stroke: #ffd700; stroke-width: 1.5; stroke-linecap: square"/>
    </g>
    <g id="text_23">
     <!-- BR -->
     <g transform="translate(94.6 281.826187) scale(0.1 -0.1)">
      <defs>
       <path id="DejaVuSans-52" d="M 2841 2188 
Q 3044 2119 3236 1894 
Q 3428 1669 3622 1275 
L 4263 0 
L 3584 0 
L 2988 1197 
Q 2756 1666 2539 1819 
Q 2322 1972 1947 1972 
L 1259 1972 
L 1259 0 
L 628 0 
L 628 4666 
L 2053 4666 
Q 2853 4666 3247 4331 
Q 3641 3997 3641 3322 
Q 3641 2881 3436 2590 
Q 3231 2300 2841 2188 
z
M 1259 4147 
L 1259 2491 
L 2053 2491 
Q 2509 2491 2742 2702 
Q 2975 2913 2975 3322 
Q 2975 3731 2742 3939 
Q 2509 4147 2053 4147 
L 1259 4147 
z
" transform="scale(0.015625)"/>
      </defs>
      <use xlink:href="#DejaVuSans-42"/>
      <use xlink:href="#DejaVuSans-52" x="68.603516"/>
     </g>
    </g>
    <g id="line2d_53">
     <path d="M 66.6 293.004312 
L 76.6 293.004312 
L 86.6 293.004312 
" style="fill: none; stroke: #008080; stroke-width: 1.5; stroke-linecap: square"/>
    </g>
    <g id="text_24">
     <!-- RJ -->
     <g transform="translate(94.6 296.504312) scale(0.1 -0.1)">
      <defs>
       <path id="DejaVuSans-4a" d="M 628 4666 
L 1259 4666 
L 1259 325 
Q 1259 -519 939 -900 
Q 619 -1281 -91 -1281 
L -331 -1281 
L -331 -750 
L -134 -750 
Q 284 -750 456 -515 
Q 628 -281 628 325 
L 628 4666 
z
" transform="scale(0.015625)"/>
      </defs>
      <use xlink:href="#DejaVuSans-52"/>
      <use xlink:href="#DejaVuSans-4a" x="69.482422"/>
     </g>
    </g>
   </g>
  </g>
 </g>
 <defs>
  <clipPath id="p66880ee0e3">
   <rect x="57.6" y="41.472" width="357.12" height="266.112"/>
  </clipPath>
 </defs>
</svg>
