<?xml version="1.0" encoding="utf-8" standalone="no"?>
<!DOCTYPE svg PUBLIC "-//W3C//DTD SVG 1.1//EN"
  "http://www.w3.org/Graphics/SVG/1.1/DTD/svg11.dtd">
<svg xmlns:xlink="http://www.w3.org/1999/xlink" width="460.8pt" height="345.6pt" viewBox="0 0 460.8 345.6" xmlns="http://www.w3.org/2000/svg" version="1.1">
 <metadata>
  <rdf:RDF xmlns:dc="http://purl.org/dc/elements/1.1/" xmlns:cc="http://creativecommons.org/ns#" xmlns:rdf="http://www.w3.org/1999/02/22-rdf-syntax-ns#">
   <cc:Work>
    <dc:type rdf:resource="http://purl.org/dc/dcmitype/StillImage"/>
    <dc:date>2024-09-06T15:44:02.921008</dc:date>
    <dc:format>image/svg+xml</dc:format>
    <dc:creator>
     <cc:Agent>
      <dc:title>Matplotlib v3.9.2, https://matplotlib.org/</dc:title>
     </cc:Agent>
    </dc:creator>
   </cc:Work>
  </rdf:RDF>
 </metadata>
 <defs>
  <style type="text/css">*{stroke-linejoin: round; stroke-linecap: butt}</style>
 </defs>
 <g id="figure_1">
  <g id="patch_1">
   <path d="M 0 345.6 
L 460.8 345.6 
L 460.8 0 
L 0 0 
z
" style="fill: #ffffff"/>
  </g>
  <g id="axes_1">
   <g id="patch_2">
    <path d="M 57.6 307.584 
L 414.72 307.584 
L 414.72 41.472 
L 57.6 41.472 
z
" style="fill: #ffffff"/>
   </g>
   <g id="matplotlib.axis_1">
    <g id="xtick_1">
     <g id="line2d_1">
      <defs>
       <path id="m183ebb2d79" d="M 0 0 
L 0 3.5 
" style="stroke: #000000; stroke-width: 0.8"/>
      </defs>
      <g>
       <use xlink:href="#m183ebb2d79" x="73.832727" y="307.584" style="stroke: #000000; stroke-width: 0.8"/>
      </g>
     </g>
     <g id="text_1">
      <!-- 2004 -->
      <g transform="translate(61.107727 322.182437) scale(0.1 -0.1)">
       <defs>
        <path id="DejaVuSans-32" d="M 1228 531 
L 3431 531 
L 3431 0 
L 469 0 
L 469 531 
Q 828 903 1448 1529 
Q 2069 2156 2228 2338 
Q 2531 2678 2651 2914 
Q 2772 3150 2772 3378 
Q 2772 3750 2511 3984 
Q 2250 4219 1831 4219 
Q 1534 4219 1204 4116 
Q 875 4013 500 3803 
L 500 4441 
Q 881 4594 1212 4672 
Q 1544 4750 1819 4750 
Q 2544 4750 2975 4387 
Q 3406 4025 3406 3419 
Q 3406 3131 3298 2873 
Q 3191 2616 2906 2266 
Q 2828 2175 2409 1742 
Q 1991 1309 1228 531 
z
" transform="scale(0.015625)"/>
        <path id="DejaVuSans-30" d="M 2034 4250 
Q 1547 4250 1301 3770 
Q 1056 3291 1056 2328 
Q 1056 1369 1301 889 
Q 1547 409 2034 409 
Q 2525 409 2770 889 
Q 3016 1369 3016 2328 
Q 3016 3291 2770 3770 
Q 2525 4250 2034 4250 
z
M 2034 4750 
Q 2819 4750 3233 4129 
Q 3647 3509 3647 2328 
Q 3647 1150 3233 529 
Q 2819 -91 2034 -91 
Q 1250 -91 836 529 
Q 422 1150 422 2328 
Q 422 3509 836 4129 
Q 1250 4750 2034 4750 
z
" transform="scale(0.015625)"/>
        <path id="DejaVuSans-34" d="M 2419 4116 
L 825 1625 
L 2419 1625 
L 2419 4116 
z
M 2253 4666 
L 3047 4666 
L 3047 1625 
L 3713 1625 
L 3713 1100 
L 3047 1100 
L 3047 0 
L 2419 0 
L 2419 1100 
L 313 1100 
L 313 1709 
L 2253 4666 
z
" transform="scale(0.015625)"/>
       </defs>
       <use xlink:href="#DejaVuSans-32"/>
       <use xlink:href="#DejaVuSans-30" x="63.623047"/>
       <use xlink:href="#DejaVuSans-30" x="127.246094"/>
       <use xlink:href="#DejaVuSans-34" x="190.869141"/>
      </g>
     </g>
    </g>
    <g id="xtick_2">
     <g id="line2d_2">
      <g>
       <use xlink:href="#m183ebb2d79" x="114.442322" y="307.584" style="stroke: #000000; stroke-width: 0.8"/>
      </g>
     </g>
     <g id="text_2">
      <!-- 2006 -->
      <g transform="translate(101.717322 322.182437) scale(0.1 -0.1)">
       <defs>
        <path id="DejaVuSans-36" d="M 2113 2584 
Q 1688 2584 1439 2293 
Q 1191 2003 1191 1497 
Q 1191 994 1439 701 
Q 1688 409 2113 409 
Q 2538 409 2786 701 
Q 3034 994 3034 1497 
Q 3034 2003 2786 2293 
Q 2538 2584 2113 2584 
z
M 3366 4563 
L 3366 3988 
Q 3128 4100 2886 4159 
Q 2644 4219 2406 4219 
Q 1781 4219 1451 3797 
Q 1122 3375 1075 2522 
Q 1259 2794 1537 2939 
Q 1816 3084 2150 3084 
Q 2853 3084 3261 2657 
Q 3669 2231 3669 1497 
Q 3669 778 3244 343 
Q 2819 -91 2113 -91 
Q 1303 -91 875 529 
Q 447 1150 447 2328 
Q 447 3434 972 4092 
Q 1497 4750 2381 4750 
Q 2619 4750 2861 4703 
Q 3103 4656 3366 4563 
z
" transform="scale(0.015625)"/>
       </defs>
       <use xlink:href="#DejaVuSans-32"/>
       <use xlink:href="#DejaVuSans-30" x="63.623047"/>
       <use xlink:href="#DejaVuSans-30" x="127.246094"/>
       <use xlink:href="#DejaVuSans-36" x="190.869141"/>
      </g>
     </g>
    </g>
    <g id="xtick_3">
     <g id="line2d_3">
      <g>
       <use xlink:href="#m183ebb2d79" x="154.996364" y="307.584" style="stroke: #000000; stroke-width: 0.8"/>
      </g>
     </g>
     <g id="text_3">
      <!-- 2008 -->
      <g transform="translate(142.271364 322.182437) scale(0.1 -0.1)">
       <defs>
        <path id="DejaVuSans-38" d="M 2034 2216 
Q 1584 2216 1326 1975 
Q 1069 1734 1069 1313 
Q 1069 891 1326 650 
Q 1584 409 2034 409 
Q 2484 409 2743 651 
Q 3003 894 3003 1313 
Q 3003 1734 2745 1975 
Q 2488 2216 2034 2216 
z
M 1403 2484 
Q 997 2584 770 2862 
Q 544 3141 544 3541 
Q 544 4100 942 4425 
Q 1341 4750 2034 4750 
Q 2731 4750 3128 4425 
Q 3525 4100 3525 3541 
Q 3525 3141 3298 2862 
Q 3072 2584 2669 2484 
Q 3125 2378 3379 2068 
Q 3634 1759 3634 1313 
Q 3634 634 3220 271 
Q 2806 -91 2034 -91 
Q 1263 -91 848 271 
Q 434 634 434 1313 
Q 434 1759 690 2068 
Q 947 2378 1403 2484 
z
M 1172 3481 
Q 1172 3119 1398 2916 
Q 1625 2713 2034 2713 
Q 2441 2713 2670 2916 
Q 2900 3119 2900 3481 
Q 2900 3844 2670 4047 
Q 2441 4250 2034 4250 
Q 1625 4250 1398 4047 
Q 1172 3844 1172 3481 
z
" transform="scale(0.015625)"/>
       </defs>
       <use xlink:href="#DejaVuSans-32"/>
       <use xlink:href="#DejaVuSans-30" x="63.623047"/>
       <use xlink:href="#DejaVuSans-30" x="127.246094"/>
       <use xlink:href="#DejaVuSans-38" x="190.869141"/>
      </g>
     </g>
    </g>
    <g id="xtick_4">
     <g id="line2d_4">
      <g>
       <use xlink:href="#m183ebb2d79" x="195.605959" y="307.584" style="stroke: #000000; stroke-width: 0.8"/>
      </g>
     </g>
     <g id="text_4">
      <!-- 2010 -->
      <g transform="translate(182.880959 322.182437) scale(0.1 -0.1)">
       <defs>
        <path id="DejaVuSans-31" d="M 794 531 
L 1825 531 
L 1825 4091 
L 703 3866 
L 703 4441 
L 1819 4666 
L 2450 4666 
L 2450 531 
L 3481 531 
L 3481 0 
L 794 0 
L 794 531 
z
" transform="scale(0.015625)"/>
       </defs>
       <use xlink:href="#DejaVuSans-32"/>
       <use xlink:href="#DejaVuSans-30" x="63.623047"/>
       <use xlink:href="#DejaVuSans-31" x="127.246094"/>
       <use xlink:href="#DejaVuSans-30" x="190.869141"/>
      </g>
     </g>
    </g>
    <g id="xtick_5">
     <g id="line2d_5">
      <g>
       <use xlink:href="#m183ebb2d79" x="236.16" y="307.584" style="stroke: #000000; stroke-width: 0.8"/>
      </g>
     </g>
     <g id="text_5">
      <!-- 2012 -->
      <g transform="translate(223.435 322.182437) scale(0.1 -0.1)">
       <use xlink:href="#DejaVuSans-32"/>
       <use xlink:href="#DejaVuSans-30" x="63.623047"/>
       <use xlink:href="#DejaVuSans-31" x="127.246094"/>
       <use xlink:href="#DejaVuSans-32" x="190.869141"/>
      </g>
     </g>
    </g>
    <g id="xtick_6">
     <g id="line2d_6">
      <g>
       <use xlink:href="#m183ebb2d79" x="276.769595" y="307.584" style="stroke: #000000; stroke-width: 0.8"/>
      </g>
     </g>
     <g id="text_6">
      <!-- 2014 -->
      <g transform="translate(264.044595 322.182437) scale(0.1 -0.1)">
       <use xlink:href="#DejaVuSans-32"/>
       <use xlink:href="#DejaVuSans-30" x="63.623047"/>
       <use xlink:href="#DejaVuSans-31" x="127.246094"/>
       <use xlink:href="#DejaVuSans-34" x="190.869141"/>
      </g>
     </g>
    </g>
    <g id="xtick_7">
     <g id="line2d_7">
      <g>
       <use xlink:href="#m183ebb2d79" x="317.323636" y="307.584" style="stroke: #000000; stroke-width: 0.8"/>
      </g>
     </g>
     <g id="text_7">
      <!-- 2016 -->
      <g transform="translate(304.598636 322.182437) scale(0.1 -0.1)">
       <use xlink:href="#DejaVuSans-32"/>
       <use xlink:href="#DejaVuSans-30" x="63.623047"/>
       <use xlink:href="#DejaVuSans-31" x="127.246094"/>
       <use xlink:href="#DejaVuSans-36" x="190.869141"/>
      </g>
     </g>
    </g>
    <g id="xtick_8">
     <g id="line2d_8">
      <g>
       <use xlink:href="#m183ebb2d79" x="357.933231" y="307.584" style="stroke: #000000; stroke-width: 0.8"/>
      </g>
     </g>
     <g id="text_8">
      <!-- 2018 -->
      <g transform="translate(345.208231 322.182437) scale(0.1 -0.1)">
       <use xlink:href="#DejaVuSans-32"/>
       <use xlink:href="#DejaVuSans-30" x="63.623047"/>
       <use xlink:href="#DejaVuSans-31" x="127.246094"/>
       <use xlink:href="#DejaVuSans-38" x="190.869141"/>
      </g>
     </g>
    </g>
    <g id="xtick_9">
     <g id="line2d_9">
      <g>
       <use xlink:href="#m183ebb2d79" x="398.487273" y="307.584" style="stroke: #000000; stroke-width: 0.8"/>
      </g>
     </g>
     <g id="text_9">
      <!-- 2020 -->
      <g transform="translate(385.762273 322.182437) scale(0.1 -0.1)">
       <use xlink:href="#DejaVuSans-32"/>
       <use xlink:href="#DejaVuSans-30" x="63.623047"/>
       <use xlink:href="#DejaVuSans-32" x="127.246094"/>
       <use xlink:href="#DejaVuSans-30" x="190.869141"/>
      </g>
     </g>
    </g>
    <g id="text_10">
     <!-- Ano -->
     <g transform="translate(226.511562 335.860562) scale(0.1 -0.1)">
      <defs>
       <path id="DejaVuSans-41" d="M 2188 4044 
L 1331 1722 
L 3047 1722 
L 2188 4044 
z
M 1831 4666 
L 2547 4666 
L 4325 0 
L 3669 0 
L 3244 1197 
L 1141 1197 
L 716 0 
L 50 0 
L 1831 4666 
z
" transform="scale(0.015625)"/>
       <path id="DejaVuSans-6e" d="M 3513 2113 
L 3513 0 
L 2938 0 
L 2938 2094 
Q 2938 2591 2744 2837 
Q 2550 3084 2163 3084 
Q 1697 3084 1428 2787 
Q 1159 2491 1159 1978 
L 1159 0 
L 581 0 
L 581 3500 
L 1159 3500 
L 1159 2956 
Q 1366 3272 1645 3428 
Q 1925 3584 2291 3584 
Q 2894 3584 3203 3211 
Q 3513 2838 3513 2113 
z
" transform="scale(0.015625)"/>
       <path id="DejaVuSans-6f" d="M 1959 3097 
Q 1497 3097 1228 2736 
Q 959 2375 959 1747 
Q 959 1119 1226 758 
Q 1494 397 1959 397 
Q 2419 397 2687 759 
Q 2956 1122 2956 1747 
Q 2956 2369 2687 2733 
Q 2419 3097 1959 3097 
z
M 1959 3584 
Q 2709 3584 3137 3096 
Q 3566 2609 3566 1747 
Q 3566 888 3137 398 
Q 2709 -91 1959 -91 
Q 1206 -91 779 398 
Q 353 888 353 1747 
Q 353 2609 779 3096 
Q 1206 3584 1959 3584 
z
" transform="scale(0.015625)"/>
      </defs>
      <use xlink:href="#DejaVuSans-41"/>
      <use xlink:href="#DejaVuSans-6e" x="68.408203"/>
      <use xlink:href="#DejaVuSans-6f" x="131.787109"/>
     </g>
    </g>
   </g>
   <g id="matplotlib.axis_2">
    <g id="ytick_1">
     <g id="line2d_10">
      <defs>
       <path id="m54c7cf8c80" d="M 0 0 
L -3.5 0 
" style="stroke: #000000; stroke-width: 0.8"/>
      </defs>
      <g>
       <use xlink:href="#m54c7cf8c80" x="57.6" y="302.816325" style="stroke: #000000; stroke-width: 0.8"/>
      </g>
     </g>
     <g id="text_11">
      <!-- −0.04 -->
      <g transform="translate(19.954687 306.615544) scale(0.1 -0.1)">
       <defs>
        <path id="DejaVuSans-2212" d="M 678 2272 
L 4684 2272 
L 4684 1741 
L 678 1741 
L 678 2272 
z
" transform="scale(0.015625)"/>
        <path id="DejaVuSans-2e" d="M 684 794 
L 1344 794 
L 1344 0 
L 684 0 
L 684 794 
z
" transform="scale(0.015625)"/>
       </defs>
       <use xlink:href="#DejaVuSans-2212"/>
       <use xlink:href="#DejaVuSans-30" x="83.789062"/>
       <use xlink:href="#DejaVuSans-2e" x="147.412109"/>
       <use xlink:href="#DejaVuSans-30" x="179.199219"/>
       <use xlink:href="#DejaVuSans-34" x="242.822266"/>
      </g>
     </g>
    </g>
    <g id="ytick_2">
     <g id="line2d_11">
      <g>
       <use xlink:href="#m54c7cf8c80" x="57.6" y="266.641912" style="stroke: #000000; stroke-width: 0.8"/>
      </g>
     </g>
     <g id="text_12">
      <!-- −0.02 -->
      <g transform="translate(19.954687 270.44113) scale(0.1 -0.1)">
       <use xlink:href="#DejaVuSans-2212"/>
       <use xlink:href="#DejaVuSans-30" x="83.789062"/>
       <use xlink:href="#DejaVuSans-2e" x="147.412109"/>
       <use xlink:href="#DejaVuSans-30" x="179.199219"/>
       <use xlink:href="#DejaVuSans-32" x="242.822266"/>
      </g>
     </g>
    </g>
    <g id="ytick_3">
     <g id="line2d_12">
      <g>
       <use xlink:href="#m54c7cf8c80" x="57.6" y="230.467498" style="stroke: #000000; stroke-width: 0.8"/>
      </g>
     </g>
     <g id="text_13">
      <!-- 0.00 -->
      <g transform="translate(28.334375 234.266717) scale(0.1 -0.1)">
       <use xlink:href="#DejaVuSans-30"/>
       <use xlink:href="#DejaVuSans-2e" x="63.623047"/>
       <use xlink:href="#DejaVuSans-30" x="95.410156"/>
       <use xlink:href="#DejaVuSans-30" x="159.033203"/>
      </g>
     </g>
    </g>
    <g id="ytick_4">
     <g id="line2d_13">
      <g>
       <use xlink:href="#m54c7cf8c80" x="57.6" y="194.293085" style="stroke: #000000; stroke-width: 0.8"/>
      </g>
     </g>
     <g id="text_14">
      <!-- 0.02 -->
      <g transform="translate(28.334375 198.092304) scale(0.1 -0.1)">
       <use xlink:href="#DejaVuSans-30"/>
       <use xlink:href="#DejaVuSans-2e" x="63.623047"/>
       <use xlink:href="#DejaVuSans-30" x="95.410156"/>
       <use xlink:href="#DejaVuSans-32" x="159.033203"/>
      </g>
     </g>
    </g>
    <g id="ytick_5">
     <g id="line2d_14">
      <g>
       <use xlink:href="#m54c7cf8c80" x="57.6" y="158.118672" style="stroke: #000000; stroke-width: 0.8"/>
      </g>
     </g>
     <g id="text_15">
      <!-- 0.04 -->
      <g transform="translate(28.334375 161.917891) scale(0.1 -0.1)">
       <use xlink:href="#DejaVuSans-30"/>
       <use xlink:href="#DejaVuSans-2e" x="63.623047"/>
       <use xlink:href="#DejaVuSans-30" x="95.410156"/>
       <use xlink:href="#DejaVuSans-34" x="159.033203"/>
      </g>
     </g>
    </g>
    <g id="ytick_6">
     <g id="line2d_15">
      <g>
       <use xlink:href="#m54c7cf8c80" x="57.6" y="121.944259" style="stroke: #000000; stroke-width: 0.8"/>
      </g>
     </g>
     <g id="text_16">
      <!-- 0.06 -->
      <g transform="translate(28.334375 125.743477) scale(0.1 -0.1)">
       <use xlink:href="#DejaVuSans-30"/>
       <use xlink:href="#DejaVuSans-2e" x="63.623047"/>
       <use xlink:href="#DejaVuSans-30" x="95.410156"/>
       <use xlink:href="#DejaVuSans-36" x="159.033203"/>
      </g>
     </g>
    </g>
    <g id="ytick_7">
     <g id="line2d_16">
      <g>
       <use xlink:href="#m54c7cf8c80" x="57.6" y="85.769845" style="stroke: #000000; stroke-width: 0.8"/>
      </g>
     </g>
     <g id="text_17">
      <!-- 0.08 -->
      <g transform="translate(28.334375 89.569064) scale(0.1 -0.1)">
       <use xlink:href="#DejaVuSans-30"/>
       <use xlink:href="#DejaVuSans-2e" x="63.623047"/>
       <use xlink:href="#DejaVuSans-30" x="95.410156"/>
       <use xlink:href="#DejaVuSans-38" x="159.033203"/>
      </g>
     </g>
    </g>
    <g id="ytick_8">
     <g id="line2d_17">
      <g>
       <use xlink:href="#m54c7cf8c80" x="57.6" y="49.595432" style="stroke: #000000; stroke-width: 0.8"/>
      </g>
     </g>
     <g id="text_18">
      <!-- 0.10 -->
      <g transform="translate(28.334375 53.394651) scale(0.1 -0.1)">
       <use xlink:href="#DejaVuSans-30"/>
       <use xlink:href="#DejaVuSans-2e" x="63.623047"/>
       <use xlink:href="#DejaVuSans-31" x="95.410156"/>
       <use xlink:href="#DejaVuSans-30" x="159.033203"/>
      </g>
     </g>
    </g>
    <g id="text_19">
     <!-- Crescimento real -->
     <g transform="translate(13.875 216.978781) rotate(-90) scale(0.1 -0.1)">
      <defs>
       <path id="DejaVuSans-43" d="M 4122 4306 
L 4122 3641 
Q 3803 3938 3442 4084 
Q 3081 4231 2675 4231 
Q 1875 4231 1450 3742 
Q 1025 3253 1025 2328 
Q 1025 1406 1450 917 
Q 1875 428 2675 428 
Q 3081 428 3442 575 
Q 3803 722 4122 1019 
L 4122 359 
Q 3791 134 3420 21 
Q 3050 -91 2638 -91 
Q 1578 -91 968 557 
Q 359 1206 359 2328 
Q 359 3453 968 4101 
Q 1578 4750 2638 4750 
Q 3056 4750 3426 4639 
Q 3797 4528 4122 4306 
z
" transform="scale(0.015625)"/>
       <path id="DejaVuSans-72" d="M 2631 2963 
Q 2534 3019 2420 3045 
Q 2306 3072 2169 3072 
Q 1681 3072 1420 2755 
Q 1159 2438 1159 1844 
L 1159 0 
L 581 0 
L 581 3500 
L 1159 3500 
L 1159 2956 
Q 1341 3275 1631 3429 
Q 1922 3584 2338 3584 
Q 2397 3584 2469 3576 
Q 2541 3569 2628 3553 
L 2631 2963 
z
" transform="scale(0.015625)"/>
       <path id="DejaVuSans-65" d="M 3597 1894 
L 3597 1613 
L 953 1613 
Q 991 1019 1311 708 
Q 1631 397 2203 397 
Q 2534 397 2845 478 
Q 3156 559 3463 722 
L 3463 178 
Q 3153 47 2828 -22 
Q 2503 -91 2169 -91 
Q 1331 -91 842 396 
Q 353 884 353 1716 
Q 353 2575 817 3079 
Q 1281 3584 2069 3584 
Q 2775 3584 3186 3129 
Q 3597 2675 3597 1894 
z
M 3022 2063 
Q 3016 2534 2758 2815 
Q 2500 3097 2075 3097 
Q 1594 3097 1305 2825 
Q 1016 2553 972 2059 
L 3022 2063 
z
" transform="scale(0.015625)"/>
       <path id="DejaVuSans-73" d="M 2834 3397 
L 2834 2853 
Q 2591 2978 2328 3040 
Q 2066 3103 1784 3103 
Q 1356 3103 1142 2972 
Q 928 2841 928 2578 
Q 928 2378 1081 2264 
Q 1234 2150 1697 2047 
L 1894 2003 
Q 2506 1872 2764 1633 
Q 3022 1394 3022 966 
Q 3022 478 2636 193 
Q 2250 -91 1575 -91 
Q 1294 -91 989 -36 
Q 684 19 347 128 
L 347 722 
Q 666 556 975 473 
Q 1284 391 1588 391 
Q 1994 391 2212 530 
Q 2431 669 2431 922 
Q 2431 1156 2273 1281 
Q 2116 1406 1581 1522 
L 1381 1569 
Q 847 1681 609 1914 
Q 372 2147 372 2553 
Q 372 3047 722 3315 
Q 1072 3584 1716 3584 
Q 2034 3584 2315 3537 
Q 2597 3491 2834 3397 
z
" transform="scale(0.015625)"/>
       <path id="DejaVuSans-63" d="M 3122 3366 
L 3122 2828 
Q 2878 2963 2633 3030 
Q 2388 3097 2138 3097 
Q 1578 3097 1268 2742 
Q 959 2388 959 1747 
Q 959 1106 1268 751 
Q 1578 397 2138 397 
Q 2388 397 2633 464 
Q 2878 531 3122 666 
L 3122 134 
Q 2881 22 2623 -34 
Q 2366 -91 2075 -91 
Q 1284 -91 818 406 
Q 353 903 353 1747 
Q 353 2603 823 3093 
Q 1294 3584 2113 3584 
Q 2378 3584 2631 3529 
Q 2884 3475 3122 3366 
z
" transform="scale(0.015625)"/>
       <path id="DejaVuSans-69" d="M 603 3500 
L 1178 3500 
L 1178 0 
L 603 0 
L 603 3500 
z
M 603 4863 
L 1178 4863 
L 1178 4134 
L 603 4134 
L 603 4863 
z
" transform="scale(0.015625)"/>
       <path id="DejaVuSans-6d" d="M 3328 2828 
Q 3544 3216 3844 3400 
Q 4144 3584 4550 3584 
Q 5097 3584 5394 3201 
Q 5691 2819 5691 2113 
L 5691 0 
L 5113 0 
L 5113 2094 
Q 5113 2597 4934 2840 
Q 4756 3084 4391 3084 
Q 3944 3084 3684 2787 
Q 3425 2491 3425 1978 
L 3425 0 
L 2847 0 
L 2847 2094 
Q 2847 2600 2669 2842 
Q 2491 3084 2119 3084 
Q 1678 3084 1418 2786 
Q 1159 2488 1159 1978 
L 1159 0 
L 581 0 
L 581 3500 
L 1159 3500 
L 1159 2956 
Q 1356 3278 1631 3431 
Q 1906 3584 2284 3584 
Q 2666 3584 2933 3390 
Q 3200 3197 3328 2828 
z
" transform="scale(0.015625)"/>
       <path id="DejaVuSans-74" d="M 1172 4494 
L 1172 3500 
L 2356 3500 
L 2356 3053 
L 1172 3053 
L 1172 1153 
Q 1172 725 1289 603 
Q 1406 481 1766 481 
L 2356 481 
L 2356 0 
L 1766 0 
Q 1100 0 847 248 
Q 594 497 594 1153 
L 594 3053 
L 172 3053 
L 172 3500 
L 594 3500 
L 594 4494 
L 1172 4494 
z
" transform="scale(0.015625)"/>
       <path id="DejaVuSans-20" transform="scale(0.015625)"/>
       <path id="DejaVuSans-61" d="M 2194 1759 
Q 1497 1759 1228 1600 
Q 959 1441 959 1056 
Q 959 750 1161 570 
Q 1363 391 1709 391 
Q 2188 391 2477 730 
Q 2766 1069 2766 1631 
L 2766 1759 
L 2194 1759 
z
M 3341 1997 
L 3341 0 
L 2766 0 
L 2766 531 
Q 2569 213 2275 61 
Q 1981 -91 1556 -91 
Q 1019 -91 701 211 
Q 384 513 384 1019 
Q 384 1609 779 1909 
Q 1175 2209 1959 2209 
L 2766 2209 
L 2766 2266 
Q 2766 2663 2505 2880 
Q 2244 3097 1772 3097 
Q 1472 3097 1187 3025 
Q 903 2953 641 2809 
L 641 3341 
Q 956 3463 1253 3523 
Q 1550 3584 1831 3584 
Q 2591 3584 2966 3190 
Q 3341 2797 3341 1997 
z
" transform="scale(0.015625)"/>
       <path id="DejaVuSans-6c" d="M 603 4863 
L 1178 4863 
L 1178 0 
L 603 0 
L 603 4863 
z
" transform="scale(0.015625)"/>
      </defs>
      <use xlink:href="#DejaVuSans-43"/>
      <use xlink:href="#DejaVuSans-72" x="69.824219"/>
      <use xlink:href="#DejaVuSans-65" x="108.6875"/>
      <use xlink:href="#DejaVuSans-73" x="170.210938"/>
      <use xlink:href="#DejaVuSans-63" x="222.310547"/>
      <use xlink:href="#DejaVuSans-69" x="277.291016"/>
      <use xlink:href="#DejaVuSans-6d" x="305.074219"/>
      <use xlink:href="#DejaVuSans-65" x="402.486328"/>
      <use xlink:href="#DejaVuSans-6e" x="464.009766"/>
      <use xlink:href="#DejaVuSans-74" x="527.388672"/>
      <use xlink:href="#DejaVuSans-6f" x="566.597656"/>
      <use xlink:href="#DejaVuSans-20" x="627.779297"/>
      <use xlink:href="#DejaVuSans-72" x="659.566406"/>
      <use xlink:href="#DejaVuSans-65" x="698.429688"/>
      <use xlink:href="#DejaVuSans-61" x="759.953125"/>
      <use xlink:href="#DejaVuSans-6c" x="821.232422"/>
     </g>
    </g>
   </g>
   <g id="line2d_18">
    <path d="M 73.832727 124.276365 
L 94.165301 134.26705 
L 114.442322 137.527664 
L 134.719343 143.931406 
L 154.996364 160.105719 
L 175.328938 153.467202 
L 195.605959 145.273583 
L 215.882979 126.65524 
L 236.16 143.41578 
L 256.492574 157.72973 
L 276.769595 202.982001 
L 297.046616 266.22796 
L 317.323636 254.270812 
L 337.656211 215.262594 
L 357.933231 178.386113 
L 378.210252 224.095626 
L 398.487273 201.74405 
" clip-path="url(#p7a65ace2c0)" style="fill: none; stroke: #dcdcdc; stroke-width: 1.5; stroke-linecap: square"/>
   </g>
   <g id="line2d_19">
    <path d="M 73.832727 126.561403 
L 94.165301 133.966592 
L 114.442322 145.499962 
L 134.719343 134.126501 
L 154.996364 127.632418 
L 175.328938 138.00976 
L 195.605959 144.036413 
L 215.882979 152.520712 
L 236.16 162.965446 
L 256.492574 163.346047 
L 276.769595 197.176235 
L 297.046616 246.687712 
L 317.323636 228.981785 
L 337.656211 209.541643 
L 357.933231 175.056462 
L 378.210252 243.717417 
L 398.487273 221.216897 
" clip-path="url(#p7a65ace2c0)" style="fill: none; stroke: #dcdcdc; stroke-width: 1.5; stroke-linecap: square"/>
   </g>
   <g id="line2d_20">
    <path d="M 73.832727 178.18943 
L 94.165301 138.837899 
L 114.442322 151.837647 
L 134.719343 120.347514 
L 154.996364 167.612829 
L 175.328938 147.012179 
L 195.605959 167.60701 
L 215.882979 163.511577 
L 236.16 173.679788 
L 256.492574 175.763552 
L 276.769595 199.995302 
L 297.046616 249.338216 
L 317.323636 263.173392 
L 337.656211 234.608868 
L 357.933231 200.190432 
L 378.210252 241.812889 
L 398.487273 223.517863 
" clip-path="url(#p7a65ace2c0)" style="fill: none; stroke: #dcdcdc; stroke-width: 1.5; stroke-linecap: square"/>
   </g>
   <g id="line2d_21">
    <path d="M 73.832727 178.948224 
L 94.165301 177.151189 
L 114.442322 185.51031 
L 134.719343 172.763331 
L 154.996364 182.066766 
L 175.328938 176.526661 
L 195.605959 172.753754 
L 215.882979 174.883726 
L 236.16 177.650659 
L 256.492574 198.745973 
L 276.769595 216.215294 
L 297.046616 259.484886 
L 317.323636 263.072103 
L 337.656211 239.951132 
L 357.933231 208.394456 
L 378.210252 240.48261 
L 398.487273 220.775166 
" clip-path="url(#p7a65ace2c0)" style="fill: none; stroke: #dcdcdc; stroke-width: 1.5; stroke-linecap: square"/>
   </g>
   <g id="line2d_22">
    <path d="M 73.832727 165.003513 
L 94.165301 152.296737 
L 114.442322 161.469331 
L 134.719343 149.774022 
L 154.996364 184.938029 
L 175.328938 138.567642 
L 195.605959 129.912868 
L 215.882979 117.992327 
L 236.16 143.769361 
L 256.492574 164.859644 
L 276.769595 199.54495 
L 297.046616 248.60443 
L 317.323636 261.066523 
L 337.656211 239.852356 
L 357.933231 219.587458 
L 378.210252 245.270042 
L 398.487273 216.401102 
" clip-path="url(#p7a65ace2c0)" style="fill: none; stroke: #dcdcdc; stroke-width: 1.5; stroke-linecap: square"/>
   </g>
   <g id="line2d_23">
    <path d="M 73.832727 192.620261 
L 94.165301 148.702777 
L 114.442322 150.143081 
L 134.719343 146.131596 
L 154.996364 163.583477 
L 175.328938 154.348644 
L 195.605959 154.887455 
L 215.882979 143.355535 
L 236.16 165.438373 
L 256.492574 183.973112 
L 276.769595 233.193273 
L 297.046616 267.905272 
L 317.323636 265.940494 
L 337.656211 224.948586 
L 357.933231 202.543983 
L 378.210252 237.649171 
L 398.487273 232.733395 
" clip-path="url(#p7a65ace2c0)" style="fill: none; stroke: #dcdcdc; stroke-width: 1.5; stroke-linecap: square"/>
   </g>
   <g id="line2d_24">
    <path d="M 73.832727 183.858237 
L 94.165301 161.741805 
L 114.442322 168.430054 
L 134.719343 145.179276 
L 154.996364 154.232714 
L 175.328938 154.679389 
L 195.605959 169.683865 
L 215.882979 165.264562 
L 236.16 191.56354 
L 256.492574 189.691122 
L 276.769595 214.974939 
L 297.046616 224.835248 
L 317.323636 231.338606 
L 337.656211 208.516113 
L 357.933231 188.54287 
L 378.210252 235.960666 
L 398.487273 205.091125 
" clip-path="url(#p7a65ace2c0)" style="fill: none; stroke: #dcdcdc; stroke-width: 1.5; stroke-linecap: square"/>
   </g>
   <g id="line2d_25">
    <path d="M 73.832727 151.050482 
L 94.165301 143.077278 
L 114.442322 144.788794 
L 134.719343 154.396071 
L 154.996364 153.110883 
L 175.328938 157.651508 
L 195.605959 143.944218 
L 215.882979 163.386972 
L 236.16 188.777867 
L 256.492574 213.759754 
L 276.769595 239.30832 
L 297.046616 275.403855 
L 317.323636 285.193607 
L 337.656211 276.651183 
L 357.933231 226.106037 
L 378.210252 224.938389 
L 398.487273 188.792952 
" clip-path="url(#p7a65ace2c0)" style="fill: none; stroke: #dcdcdc; stroke-width: 1.5; stroke-linecap: square"/>
   </g>
   <g id="line2d_26">
    <path d="M 73.832727 138.30622 
L 94.165301 135.84782 
L 114.442322 162.332682 
L 134.719343 155.575405 
L 154.996364 171.578435 
L 175.328938 166.774889 
L 195.605959 184.602202 
L 215.882979 170.40233 
L 236.16 198.056808 
L 256.492574 197.058851 
L 276.769595 229.482006 
L 297.046616 271.63053 
L 317.323636 284.653982 
L 337.656211 251.739276 
L 357.933231 211.748847 
L 378.210252 237.600092 
L 398.487273 232.838628 
" clip-path="url(#p7a65ace2c0)" style="fill: none; stroke: #dcdcdc; stroke-width: 1.5; stroke-linecap: square"/>
   </g>
   <g id="line2d_27">
    <path d="M 73.832727 131.185096 
L 94.165301 123.156427 
L 114.442322 158.493702 
L 134.719343 154.995027 
L 154.996364 141.174555 
L 175.328938 114.265574 
L 195.605959 94.383462 
L 215.882979 116.830253 
L 236.16 178.744769 
L 256.492574 189.722326 
L 276.769595 227.008518 
L 297.046616 255.990229 
L 317.323636 241.588655 
L 337.656211 203.431833 
L 357.933231 175.623619 
L 378.210252 232.729826 
L 398.487273 224.936217 
" clip-path="url(#p7a65ace2c0)" style="fill: none; stroke: #dcdcdc; stroke-width: 1.5; stroke-linecap: square"/>
   </g>
   <g id="line2d_28">
    <path d="M 73.832727 158.567563 
L 94.165301 149.723438 
L 114.442322 154.652897 
L 134.719343 151.188686 
L 154.996364 195.067913 
L 175.328938 174.584319 
L 195.605959 187.524547 
L 215.882979 146.464493 
L 236.16 195.719296 
L 256.492574 214.569843 
L 276.769595 257.383307 
L 297.046616 271.34692 
L 317.323636 257.039904 
L 337.656211 224.478627 
L 357.933231 215.836634 
L 378.210252 243.941996 
L 398.487273 218.211182 
" clip-path="url(#p7a65ace2c0)" style="fill: none; stroke: #dcdcdc; stroke-width: 1.5; stroke-linecap: square"/>
   </g>
   <g id="line2d_29">
    <path d="M 73.832727 166.408154 
L 94.165301 136.959994 
L 114.442322 120.746897 
L 134.719343 91.257491 
L 154.996364 182.46613 
L 175.328938 135.179922 
L 195.605959 135.86852 
L 215.882979 95.425343 
L 236.16 183.931895 
L 256.492574 209.230752 
L 276.769595 217.684443 
L 297.046616 246.391843 
L 317.323636 267.521114 
L 337.656211 238.832318 
L 357.933231 235.948127 
L 378.210252 265.386455 
L 398.487273 253.701213 
" clip-path="url(#p7a65ace2c0)" style="fill: none; stroke: #dcdcdc; stroke-width: 1.5; stroke-linecap: square"/>
   </g>
   <g id="line2d_30">
    <path d="M 73.832727 203.453454 
L 94.165301 174.494755 
L 114.442322 173.052701 
L 134.719343 167.888623 
L 154.996364 178.500053 
L 175.328938 170.9926 
L 195.605959 178.346041 
L 215.882979 181.45249 
L 236.16 201.093565 
L 256.492574 205.628162 
L 276.769595 229.266615 
L 297.046616 259.375797 
L 317.323636 279.222171 
L 337.656211 259.31125 
L 357.933231 232.73127 
L 378.210252 237.100244 
L 398.487273 217.672348 
" clip-path="url(#p7a65ace2c0)" style="fill: none; stroke: #dcdcdc; stroke-width: 1.5; stroke-linecap: square"/>
   </g>
   <g id="line2d_31">
    <path d="M 73.832727 172.700197 
L 94.165301 148.687155 
L 114.442322 141.710604 
L 134.719343 130.536017 
L 154.996364 152.36659 
L 175.328938 154.011355 
L 195.605959 167.388071 
L 215.882979 159.761256 
L 236.16 185.603251 
L 256.492574 214.868853 
L 276.769595 243.640574 
L 297.046616 274.835059 
L 317.323636 266.725127 
L 337.656211 236.26419 
L 357.933231 211.885937 
L 378.210252 232.621584 
L 398.487273 215.264122 
" clip-path="url(#p7a65ace2c0)" style="fill: none; stroke: #dcdcdc; stroke-width: 1.5; stroke-linecap: square"/>
   </g>
   <g id="line2d_32">
    <path d="M 73.832727 172.936544 
L 94.165301 186.14441 
L 114.442322 174.725849 
L 134.719343 154.798928 
L 154.996364 177.076194 
L 175.328938 161.429025 
L 195.605959 159.353109 
L 215.882979 150.155336 
L 236.16 175.281148 
L 256.492574 209.358359 
L 276.769595 225.701662 
L 297.046616 271.912297 
L 317.323636 250.313732 
L 337.656211 224.837283 
L 357.933231 207.715805 
L 378.210252 230.275791 
L 398.487273 218.332862 
" clip-path="url(#p7a65ace2c0)" style="fill: none; stroke: #dcdcdc; stroke-width: 1.5; stroke-linecap: square"/>
   </g>
   <g id="line2d_33">
    <path d="M 73.832727 160.935648 
L 94.165301 160.519167 
L 114.442322 168.443102 
L 134.719343 171.902291 
L 154.996364 187.641704 
L 175.328938 193.325167 
L 195.605959 181.160936 
L 215.882979 171.192076 
L 236.16 180.90722 
L 256.492574 186.806642 
L 276.769595 217.990074 
L 297.046616 246.567074 
L 317.323636 238.912629 
L 337.656211 195.637223 
L 357.933231 167.501662 
L 378.210252 204.804825 
L 398.487273 187.851915 
" clip-path="url(#p7a65ace2c0)" style="fill: none; stroke: #dcdcdc; stroke-width: 1.5; stroke-linecap: square"/>
   </g>
   <g id="line2d_34">
    <path d="M 73.832727 216.468994 
L 94.165301 204.602643 
L 114.442322 184.312879 
L 134.719343 151.431112 
L 154.996364 183.902877 
L 175.328938 182.608405 
L 195.605959 171.370238 
L 215.882979 179.493816 
L 236.16 168.486499 
L 256.492574 197.27886 
L 276.769595 206.880318 
L 297.046616 270.139236 
L 317.323636 256.637294 
L 337.656211 221.213957 
L 357.933231 203.962177 
L 378.210252 259.216164 
L 398.487273 212.340191 
" clip-path="url(#p7a65ace2c0)" style="fill: none; stroke: #dcdcdc; stroke-width: 1.5; stroke-linecap: square"/>
   </g>
   <g id="line2d_35">
    <path d="M 73.832727 185.276169 
L 94.165301 192.658178 
L 114.442322 158.066794 
L 134.719343 143.443225 
L 154.996364 173.269779 
L 175.328938 130.172339 
L 195.605959 139.945576 
L 215.882979 108.579963 
L 236.16 137.855401 
L 256.492574 141.320223 
L 276.769595 177.140817 
L 297.046616 230.719487 
L 317.323636 214.632188 
L 337.656211 198.366788 
L 357.933231 188.798375 
L 378.210252 218.324142 
L 398.487273 231.726724 
" clip-path="url(#p7a65ace2c0)" style="fill: none; stroke: #dcdcdc; stroke-width: 1.5; stroke-linecap: square"/>
   </g>
   <g id="line2d_36">
    <path d="M 73.832727 124.189168 
L 94.165301 100.91633 
L 114.442322 152.300667 
L 134.719343 133.092761 
L 154.996364 158.690251 
L 175.328938 141.537225 
L 195.605959 151.939761 
L 215.882979 132.325622 
L 236.16 157.908926 
L 256.492574 156.722284 
L 276.769595 200.051013 
L 297.046616 230.473885 
L 317.323636 254.385755 
L 337.656211 242.085484 
L 357.933231 229.805324 
L 378.210252 257.406069 
L 398.487273 217.838949 
" clip-path="url(#p7a65ace2c0)" style="fill: none; stroke: #dcdcdc; stroke-width: 1.5; stroke-linecap: square"/>
   </g>
   <g id="line2d_37">
    <path d="M 73.832727 86.119599 
L 94.165301 128.832113 
L 114.442322 142.601516 
L 134.719343 127.278794 
L 154.996364 103.209465 
L 175.328938 143.654134 
L 195.605959 154.146121 
L 215.882979 99.481564 
L 236.16 112.310657 
L 256.492574 119.749877 
L 276.769595 195.389729 
L 297.046616 255.413644 
L 317.323636 204.758238 
L 337.656211 168.077037 
L 357.933231 106.127209 
L 378.210252 180.888354 
L 398.487273 207.782407 
" clip-path="url(#p7a65ace2c0)" style="fill: none; stroke: #dcdcdc; stroke-width: 1.5; stroke-linecap: square"/>
   </g>
   <g id="line2d_38">
    <path d="M 73.832727 142.73122 
L 94.165301 154.93843 
L 114.442322 161.680816 
L 134.719343 145.207673 
L 154.996364 160.180564 
L 175.328938 141.173449 
L 195.605959 142.554708 
L 215.882979 117.261872 
L 236.16 149.142358 
L 256.492574 174.788494 
L 276.769595 225.840712 
L 297.046616 264.289465 
L 317.323636 256.773279 
L 337.656211 223.121934 
L 357.933231 192.368877 
L 378.210252 216.156446 
L 398.487273 210.459724 
" clip-path="url(#p7a65ace2c0)" style="fill: none; stroke: #dcdcdc; stroke-width: 1.5; stroke-linecap: square"/>
   </g>
   <g id="line2d_39">
    <path d="M 73.832727 162.434213 
L 94.165301 136.830097 
L 114.442322 130.14555 
L 134.719343 138.408497 
L 154.996364 139.938818 
L 175.328938 153.897243 
L 195.605959 156.397819 
L 215.882979 182.969538 
L 236.16 183.382318 
L 256.492574 192.930057 
L 276.769595 199.810535 
L 297.046616 220.361603 
L 317.323636 229.899282 
L 337.656211 217.086247 
L 357.933231 207.653823 
L 378.210252 225.57406 
L 398.487273 218.598818 
" clip-path="url(#p7a65ace2c0)" style="fill: none; stroke: #dcdcdc; stroke-width: 1.5; stroke-linecap: square"/>
   </g>
   <g id="line2d_40">
    <path d="M 73.832727 170.795406 
L 94.165301 155.966839 
L 114.442322 155.107616 
L 134.719343 145.083644 
L 154.996364 167.892032 
L 175.328938 160.795944 
L 195.605959 166.423861 
L 215.882979 156.121521 
L 236.16 180.84329 
L 256.492574 200.63153 
L 276.769595 229.341967 
L 297.046616 264.165298 
L 317.323636 259.382997 
L 337.656211 229.803173 
L 357.933231 206.416247 
L 378.210252 233.175018 
L 398.487273 216.397153 
" clip-path="url(#p7a65ace2c0)" style="fill: none; stroke: #dcdcdc; stroke-width: 1.5; stroke-linecap: square"/>
   </g>
   <g id="line2d_41">
    <path d="M 73.832727 87.885087 
L 94.165301 101.101814 
L 114.442322 134.934179 
L 134.719343 175.115256 
L 154.996364 187.939112 
L 175.328938 162.553897 
L 195.605959 112.3919 
L 215.882979 109.567563 
L 236.16 140.064017 
L 256.492574 204.406294 
L 276.769595 235.775358 
L 297.046616 295.488 
L 317.323636 263.736384 
L 337.656211 207.79409 
L 357.933231 160.733332 
L 378.210252 201.540761 
L 398.487273 198.149999 
" clip-path="url(#p7a65ace2c0)" style="fill: none; stroke: #dcdcdc; stroke-width: 1.5; stroke-linecap: square"/>
   </g>
   <g id="line2d_42">
    <path d="M 73.832727 134.186517 
L 94.165301 95.219725 
L 114.442322 146.7187 
L 134.719343 151.498557 
L 154.996364 169.598134 
L 175.328938 110.181151 
L 195.605959 129.106738 
L 215.882979 136.092005 
L 236.16 154.428728 
L 256.492574 161.304897 
L 276.769595 191.118208 
L 297.046616 221.508174 
L 317.323636 216.938334 
L 337.656211 182.290394 
L 357.933231 161.997596 
L 378.210252 174.536869 
L 398.487273 155.972526 
" clip-path="url(#p7a65ace2c0)" style="fill: none; stroke: #dcdcdc; stroke-width: 1.5; stroke-linecap: square"/>
   </g>
   <g id="line2d_43">
    <path d="M 73.832727 113.926018 
L 94.165301 116.965624 
L 114.442322 155.64073 
L 134.719343 154.370725 
L 154.996364 213.100001 
L 175.328938 172.724422 
L 195.605959 173.342688 
L 215.882979 135.705821 
L 236.16 173.119979 
L 256.492574 174.223528 
L 276.769595 195.291697 
L 297.046616 231.676216 
L 317.323636 236.43196 
L 337.656211 213.994673 
L 357.933231 210.774786 
L 378.210252 231.058444 
L 398.487273 227.18078 
" clip-path="url(#p7a65ace2c0)" style="fill: none; stroke: #dcdcdc; stroke-width: 1.5; stroke-linecap: square"/>
   </g>
   <g id="line2d_44">
    <path d="M 73.832727 107.178151 
L 94.165301 115.421114 
L 114.442322 129.152239 
L 134.719343 148.014727 
L 154.996364 172.848816 
L 175.328938 146.408588 
L 195.605959 141.279903 
L 215.882979 102.205259 
L 236.16 133.820215 
L 256.492574 146.503762 
L 276.769595 232.583042 
L 297.046616 279.356077 
L 317.323636 279.041247 
L 337.656211 232.172251 
L 357.933231 194.454619 
L 378.210252 224.037589 
L 398.487273 210.063072 
" clip-path="url(#p7a65ace2c0)" style="fill: none; stroke: #dcdcdc; stroke-width: 1.5; stroke-linecap: square"/>
   </g>
   <g id="line2d_45">
    <path d="M 73.832727 114.437459 
L 94.165301 147.726643 
L 114.442322 159.430218 
L 134.719343 149.909687 
L 154.996364 153.707165 
L 175.328938 84.54718 
L 195.605959 63.971432 
L 215.882979 53.568 
L 236.16 137.469042 
L 256.492574 153.913661 
L 276.769595 183.508475 
L 297.046616 221.913863 
L 317.323636 236.945255 
L 337.656211 222.267706 
L 357.933231 166.793611 
L 378.210252 204.597143 
L 398.487273 157.828818 
" clip-path="url(#p7a65ace2c0)" style="fill: none; stroke: #dcdcdc; stroke-width: 1.5; stroke-linecap: square"/>
   </g>
   <g id="line2d_46">
    <path d="M 73.832727 203.453454 
L 94.165301 174.494755 
L 114.442322 173.052701 
L 134.719343 167.888623 
L 154.996364 178.500053 
L 175.328938 170.9926 
L 195.605959 178.346041 
L 215.882979 181.45249 
L 236.16 201.093565 
L 256.492574 205.628162 
L 276.769595 229.266615 
L 297.046616 259.375797 
L 317.323636 279.222171 
L 337.656211 259.31125 
L 357.933231 232.73127 
L 378.210252 237.100244 
L 398.487273 217.672348 
" clip-path="url(#p7a65ace2c0)" style="fill: none; stroke: #008080; stroke-width: 1.5; stroke-linecap: square"/>
   </g>
   <g id="line2d_47">
    <path d="M 73.832727 170.795406 
L 94.165301 155.966839 
L 114.442322 155.107616 
L 134.719343 145.083644 
L 154.996364 167.892032 
L 175.328938 160.795944 
L 195.605959 166.423861 
L 215.882979 156.121521 
L 236.16 180.84329 
L 256.492574 200.63153 
L 276.769595 229.341967 
L 297.046616 264.165298 
L 317.323636 259.382997 
L 337.656211 229.803173 
L 357.933231 206.416247 
L 378.210252 233.175018 
L 398.487273 216.397153 
" clip-path="url(#p7a65ace2c0)" style="fill: none; stroke: #ffd700; stroke-width: 1.5; stroke-linecap: square"/>
   </g>
   <g id="line2d_48">
    <path d="M 73.832727 151.10494 
L 94.165301 144.4736 
L 114.442322 153.864799 
L 134.719343 146.7616 
L 154.996364 166.501459 
L 175.328938 150.380884 
L 195.605959 150.117516 
L 215.882979 139.129824 
L 236.16 166.466182 
L 256.492574 181.416839 
L 276.769595 214.627312 
L 297.046616 253.995444 
L 317.323636 251.451624 
L 337.656211 222.679075 
L 357.933231 195.602572 
L 378.210252 228.582358 
L 398.487273 212.111965 
" clip-path="url(#p7a65ace2c0)" style="fill: none; stroke-dasharray: 5.55,2.4; stroke-dashoffset: 0; stroke: #dc143c; stroke-width: 1.5"/>
   </g>
   <g id="patch_3">
    <path d="M 57.6 307.584 
L 57.6 41.472 
" style="fill: none; stroke: #000000; stroke-width: 0.8; stroke-linejoin: miter; stroke-linecap: square"/>
   </g>
   <g id="patch_4">
    <path d="M 414.72 307.584 
L 414.72 41.472 
" style="fill: none; stroke: #000000; stroke-width: 0.8; stroke-linejoin: miter; stroke-linecap: square"/>
   </g>
   <g id="patch_5">
    <path d="M 57.6 307.584 
L 414.72 307.584 
" style="fill: none; stroke: #000000; stroke-width: 0.8; stroke-linejoin: miter; stroke-linecap: square"/>
   </g>
   <g id="patch_6">
    <path d="M 57.6 41.472 
L 414.72 41.472 
" style="fill: none; stroke: #000000; stroke-width: 0.8; stroke-linejoin: miter; stroke-linecap: square"/>
   </g>
   <g id="text_20">
    <!-- Média Movel (3 anos) da taxa de Crescimento do PIB -->
    <g transform="translate(77.547188 35.472) scale(0.12 -0.12)">
     <defs>
      <path id="DejaVuSans-4d" d="M 628 4666 
L 1569 4666 
L 2759 1491 
L 3956 4666 
L 4897 4666 
L 4897 0 
L 4281 0 
L 4281 4097 
L 3078 897 
L 2444 897 
L 1241 4097 
L 1241 0 
L 628 0 
L 628 4666 
z
" transform="scale(0.015625)"/>
      <path id="DejaVuSans-e9" d="M 3597 1894 
L 3597 1613 
L 953 1613 
Q 991 1019 1311 708 
Q 1631 397 2203 397 
Q 2534 397 2845 478 
Q 3156 559 3463 722 
L 3463 178 
Q 3153 47 2828 -22 
Q 2503 -91 2169 -91 
Q 1331 -91 842 396 
Q 353 884 353 1716 
Q 353 2575 817 3079 
Q 1281 3584 2069 3584 
Q 2775 3584 3186 3129 
Q 3597 2675 3597 1894 
z
M 3022 2063 
Q 3016 2534 2758 2815 
Q 2500 3097 2075 3097 
Q 1594 3097 1305 2825 
Q 1016 2553 972 2059 
L 3022 2063 
z
M 2466 5119 
L 3088 5119 
L 2070 3944 
L 1591 3944 
L 2466 5119 
z
" transform="scale(0.015625)"/>
      <path id="DejaVuSans-64" d="M 2906 2969 
L 2906 4863 
L 3481 4863 
L 3481 0 
L 2906 0 
L 2906 525 
Q 2725 213 2448 61 
Q 2172 -91 1784 -91 
Q 1150 -91 751 415 
Q 353 922 353 1747 
Q 353 2572 751 3078 
Q 1150 3584 1784 3584 
Q 2172 3584 2448 3432 
Q 2725 3281 2906 2969 
z
M 947 1747 
Q 947 1113 1208 752 
Q 1469 391 1925 391 
Q 2381 391 2643 752 
Q 2906 1113 2906 1747 
Q 2906 2381 2643 2742 
Q 2381 3103 1925 3103 
Q 1469 3103 1208 2742 
Q 947 2381 947 1747 
z
" transform="scale(0.015625)"/>
      <path id="DejaVuSans-76" d="M 191 3500 
L 800 3500 
L 1894 563 
L 2988 3500 
L 3597 3500 
L 2284 0 
L 1503 0 
L 191 3500 
z
" transform="scale(0.015625)"/>
      <path id="DejaVuSans-28" d="M 1984 4856 
Q 1566 4138 1362 3434 
Q 1159 2731 1159 2009 
Q 1159 1288 1364 580 
Q 1569 -128 1984 -844 
L 1484 -844 
Q 1016 -109 783 600 
Q 550 1309 550 2009 
Q 550 2706 781 3412 
Q 1013 4119 1484 4856 
L 1984 4856 
z
" transform="scale(0.015625)"/>
      <path id="DejaVuSans-33" d="M 2597 2516 
Q 3050 2419 3304 2112 
Q 3559 1806 3559 1356 
Q 3559 666 3084 287 
Q 2609 -91 1734 -91 
Q 1441 -91 1130 -33 
Q 819 25 488 141 
L 488 750 
Q 750 597 1062 519 
Q 1375 441 1716 441 
Q 2309 441 2620 675 
Q 2931 909 2931 1356 
Q 2931 1769 2642 2001 
Q 2353 2234 1838 2234 
L 1294 2234 
L 1294 2753 
L 1863 2753 
Q 2328 2753 2575 2939 
Q 2822 3125 2822 3475 
Q 2822 3834 2567 4026 
Q 2313 4219 1838 4219 
Q 1578 4219 1281 4162 
Q 984 4106 628 3988 
L 628 4550 
Q 988 4650 1302 4700 
Q 1616 4750 1894 4750 
Q 2613 4750 3031 4423 
Q 3450 4097 3450 3541 
Q 3450 3153 3228 2886 
Q 3006 2619 2597 2516 
z
" transform="scale(0.015625)"/>
      <path id="DejaVuSans-29" d="M 513 4856 
L 1013 4856 
Q 1481 4119 1714 3412 
Q 1947 2706 1947 2009 
Q 1947 1309 1714 600 
Q 1481 -109 1013 -844 
L 513 -844 
Q 928 -128 1133 580 
Q 1338 1288 1338 2009 
Q 1338 2731 1133 3434 
Q 928 4138 513 4856 
z
" transform="scale(0.015625)"/>
      <path id="DejaVuSans-78" d="M 3513 3500 
L 2247 1797 
L 3578 0 
L 2900 0 
L 1881 1375 
L 863 0 
L 184 0 
L 1544 1831 
L 300 3500 
L 978 3500 
L 1906 2253 
L 2834 3500 
L 3513 3500 
z
" transform="scale(0.015625)"/>
      <path id="DejaVuSans-50" d="M 1259 4147 
L 1259 2394 
L 2053 2394 
Q 2494 2394 2734 2622 
Q 2975 2850 2975 3272 
Q 2975 3691 2734 3919 
Q 2494 4147 2053 4147 
L 1259 4147 
z
M 628 4666 
L 2053 4666 
Q 2838 4666 3239 4311 
Q 3641 3956 3641 3272 
Q 3641 2581 3239 2228 
Q 2838 1875 2053 1875 
L 1259 1875 
L 1259 0 
L 628 0 
L 628 4666 
z
" transform="scale(0.015625)"/>
      <path id="DejaVuSans-49" d="M 628 4666 
L 1259 4666 
L 1259 0 
L 628 0 
L 628 4666 
z
" transform="scale(0.015625)"/>
      <path id="DejaVuSans-42" d="M 1259 2228 
L 1259 519 
L 2272 519 
Q 2781 519 3026 730 
Q 3272 941 3272 1375 
Q 3272 1813 3026 2020 
Q 2781 2228 2272 2228 
L 1259 2228 
z
M 1259 4147 
L 1259 2741 
L 2194 2741 
Q 2656 2741 2882 2914 
Q 3109 3088 3109 3444 
Q 3109 3797 2882 3972 
Q 2656 4147 2194 4147 
L 1259 4147 
z
M 628 4666 
L 2241 4666 
Q 2963 4666 3353 4366 
Q 3744 4066 3744 3513 
Q 3744 3084 3544 2831 
Q 3344 2578 2956 2516 
Q 3422 2416 3680 2098 
Q 3938 1781 3938 1306 
Q 3938 681 3513 340 
Q 3088 0 2303 0 
L 628 0 
L 628 4666 
z
" transform="scale(0.015625)"/>
     </defs>
     <use xlink:href="#DejaVuSans-4d"/>
     <use xlink:href="#DejaVuSans-e9" x="86.279297"/>
     <use xlink:href="#DejaVuSans-64" x="147.802734"/>
     <use xlink:href="#DejaVuSans-69" x="211.279297"/>
     <use xlink:href="#DejaVuSans-61" x="239.0625"/>
     <use xlink:href="#DejaVuSans-20" x="300.341797"/>
     <use xlink:href="#DejaVuSans-4d" x="332.128906"/>
     <use xlink:href="#DejaVuSans-6f" x="418.408203"/>
     <use xlink:href="#DejaVuSans-76" x="479.589844"/>
     <use xlink:href="#DejaVuSans-65" x="538.769531"/>
     <use xlink:href="#DejaVuSans-6c" x="600.292969"/>
     <use xlink:href="#DejaVuSans-20" x="628.076172"/>
     <use xlink:href="#DejaVuSans-28" x="659.863281"/>
     <use xlink:href="#DejaVuSans-33" x="698.876953"/>
     <use xlink:href="#DejaVuSans-20" x="762.5"/>
     <use xlink:href="#DejaVuSans-61" x="794.287109"/>
     <use xlink:href="#DejaVuSans-6e" x="855.566406"/>
     <use xlink:href="#DejaVuSans-6f" x="918.945312"/>
     <use xlink:href="#DejaVuSans-73" x="980.126953"/>
     <use xlink:href="#DejaVuSans-29" x="1032.226562"/>
     <use xlink:href="#DejaVuSans-20" x="1071.240234"/>
     <use xlink:href="#DejaVuSans-64" x="1103.027344"/>
     <use xlink:href="#DejaVuSans-61" x="1166.503906"/>
     <use xlink:href="#DejaVuSans-20" x="1227.783203"/>
     <use xlink:href="#DejaVuSans-74" x="1259.570312"/>
     <use xlink:href="#DejaVuSans-61" x="1298.779297"/>
     <use xlink:href="#DejaVuSans-78" x="1360.058594"/>
     <use xlink:href="#DejaVuSans-61" x="1419.238281"/>
     <use xlink:href="#DejaVuSans-20" x="1480.517578"/>
     <use xlink:href="#DejaVuSans-64" x="1512.304688"/>
     <use xlink:href="#DejaVuSans-65" x="1575.78125"/>
     <use xlink:href="#DejaVuSans-20" x="1637.304688"/>
     <use xlink:href="#DejaVuSans-43" x="1669.091797"/>
     <use xlink:href="#DejaVuSans-72" x="1738.916016"/>
     <use xlink:href="#DejaVuSans-65" x="1777.779297"/>
     <use xlink:href="#DejaVuSans-73" x="1839.302734"/>
     <use xlink:href="#DejaVuSans-63" x="1891.402344"/>
     <use xlink:href="#DejaVuSans-69" x="1946.382812"/>
     <use xlink:href="#DejaVuSans-6d" x="1974.166016"/>
     <use xlink:href="#DejaVuSans-65" x="2071.578125"/>
     <use xlink:href="#DejaVuSans-6e" x="2133.101562"/>
     <use xlink:href="#DejaVuSans-74" x="2196.480469"/>
     <use xlink:href="#DejaVuSans-6f" x="2235.689453"/>
     <use xlink:href="#DejaVuSans-20" x="2296.871094"/>
     <use xlink:href="#DejaVuSans-64" x="2328.658203"/>
     <use xlink:href="#DejaVuSans-6f" x="2392.134766"/>
     <use xlink:href="#DejaVuSans-20" x="2453.316406"/>
     <use xlink:href="#DejaVuSans-50" x="2485.103516"/>
     <use xlink:href="#DejaVuSans-49" x="2545.40625"/>
     <use xlink:href="#DejaVuSans-42" x="2574.898438"/>
    </g>
   </g>
   <g id="legend_1">
    <g id="patch_7">
     <path d="M 303.418438 93.506375 
L 407.72 93.506375 
Q 409.72 93.506375 409.72 91.506375 
L 409.72 48.472 
Q 409.72 46.472 407.72 46.472 
L 303.418438 46.472 
Q 301.418438 46.472 301.418438 48.472 
L 301.418438 91.506375 
Q 301.418438 93.506375 303.418438 93.506375 
z
" style="fill: #ffffff; opacity: 0.8; stroke: #cccccc; stroke-linejoin: miter"/>
    </g>
    <g id="line2d_49">
     <path d="M 305.418438 54.570438 
L 315.418438 54.570438 
L 325.418438 54.570438 
" style="fill: none; stroke: #008080; stroke-width: 1.5; stroke-linecap: square"/>
    </g>
    <g id="text_21">
     <!-- RJ -->
     <g transform="translate(333.418438 58.070438) scale(0.1 -0.1)">
      <defs>
       <path id="DejaVuSans-52" d="M 2841 2188 
Q 3044 2119 3236 1894 
Q 3428 1669 3622 1275 
L 4263 0 
L 3584 0 
L 2988 1197 
Q 2756 1666 2539 1819 
Q 2322 1972 1947 1972 
L 1259 1972 
L 1259 0 
L 628 0 
L 628 4666 
L 2053 4666 
Q 2853 4666 3247 4331 
Q 3641 3997 3641 3322 
Q 3641 2881 3436 2590 
Q 3231 2300 2841 2188 
z
M 1259 4147 
L 1259 2491 
L 2053 2491 
Q 2509 2491 2742 2702 
Q 2975 2913 2975 3322 
Q 2975 3731 2742 3939 
Q 2509 4147 2053 4147 
L 1259 4147 
z
" transform="scale(0.015625)"/>
       <path id="DejaVuSans-4a" d="M 628 4666 
L 1259 4666 
L 1259 325 
Q 1259 -519 939 -900 
Q 619 -1281 -91 -1281 
L -331 -1281 
L -331 -750 
L -134 -750 
Q 284 -750 456 -515 
Q 628 -281 628 325 
L 628 4666 
z
" transform="scale(0.015625)"/>
      </defs>
      <use xlink:href="#DejaVuSans-52"/>
      <use xlink:href="#DejaVuSans-4a" x="69.482422"/>
     </g>
    </g>
    <g id="line2d_50">
     <path d="M 305.418438 69.248563 
L 315.418438 69.248563 
L 325.418438 69.248563 
" style="fill: none; stroke: #ffd700; stroke-width: 1.5; stroke-linecap: square"/>
    </g>
    <g id="text_22">
     <!-- BR -->
     <g transform="translate(333.418438 72.748563) scale(0.1 -0.1)">
      <use xlink:href="#DejaVuSans-42"/>
      <use xlink:href="#DejaVuSans-52" x="68.603516"/>
     </g>
    </g>
    <g id="line2d_51">
     <path d="M 305.418438 83.926688 
L 315.418438 83.926688 
L 325.418438 83.926688 
" style="fill: none; stroke-dasharray: 5.55,2.4; stroke-dashoffset: 0; stroke: #dc143c; stroke-width: 1.5"/>
    </g>
    <g id="text_23">
     <!-- Média estados -->
     <g transform="translate(333.418438 87.426688) scale(0.1 -0.1)">
      <use xlink:href="#DejaVuSans-4d"/>
      <use xlink:href="#DejaVuSans-e9" x="86.279297"/>
      <use xlink:href="#DejaVuSans-64" x="147.802734"/>
      <use xlink:href="#DejaVuSans-69" x="211.279297"/>
      <use xlink:href="#DejaVuSans-61" x="239.0625"/>
      <use xlink:href="#DejaVuSans-20" x="300.341797"/>
      <use xlink:href="#DejaVuSans-65" x="332.128906"/>
      <use xlink:href="#DejaVuSans-73" x="393.652344"/>
      <use xlink:href="#DejaVuSans-74" x="445.751953"/>
      <use xlink:href="#DejaVuSans-61" x="484.960938"/>
      <use xlink:href="#DejaVuSans-64" x="546.240234"/>
      <use xlink:href="#DejaVuSans-6f" x="609.716797"/>
      <use xlink:href="#DejaVuSans-73" x="670.898438"/>
     </g>
    </g>
   </g>
  </g>
 </g>
 <defs>
  <clipPath id="p7a65ace2c0">
   <rect x="57.6" y="41.472" width="357.12" height="266.112"/>
  </clipPath>
 </defs>
</svg>
