<?xml version="1.0" encoding="utf-8" standalone="no"?>
<!DOCTYPE svg PUBLIC "-//W3C//DTD SVG 1.1//EN"
  "http://www.w3.org/Graphics/SVG/1.1/DTD/svg11.dtd">
<svg xmlns:xlink="http://www.w3.org/1999/xlink" width="460.8pt" height="345.6pt" viewBox="0 0 460.8 345.6" xmlns="http://www.w3.org/2000/svg" version="1.1">
 <metadata>
  <rdf:RDF xmlns:dc="http://purl.org/dc/elements/1.1/" xmlns:cc="http://creativecommons.org/ns#" xmlns:rdf="http://www.w3.org/1999/02/22-rdf-syntax-ns#">
   <cc:Work>
    <dc:type rdf:resource="http://purl.org/dc/dcmitype/StillImage"/>
    <dc:date>2024-09-06T15:44:04.094149</dc:date>
    <dc:format>image/svg+xml</dc:format>
    <dc:creator>
     <cc:Agent>
      <dc:title>Matplotlib v3.9.2, https://matplotlib.org/</dc:title>
     </cc:Agent>
    </dc:creator>
   </cc:Work>
  </rdf:RDF>
 </metadata>
 <defs>
  <style type="text/css">*{stroke-linejoin: round; stroke-linecap: butt}</style>
 </defs>
 <g id="figure_1">
  <g id="patch_1">
   <path d="M 0 345.6 
L 460.8 345.6 
L 460.8 0 
L 0 0 
z
" style="fill: #ffffff"/>
  </g>
  <g id="axes_1">
   <g id="patch_2">
    <path d="M 57.6 307.584 
L 414.72 307.584 
L 414.72 41.472 
L 57.6 41.472 
z
" style="fill: #ffffff"/>
   </g>
   <g id="matplotlib.axis_1">
    <g id="xtick_1">
     <g id="line2d_1">
      <defs>
       <path id="m16c78482d1" d="M 0 0 
L 0 3.5 
" style="stroke: #000000; stroke-width: 0.8"/>
      </defs>
      <g>
       <use xlink:href="#m16c78482d1" x="73.832727" y="307.584" style="stroke: #000000; stroke-width: 0.8"/>
      </g>
     </g>
     <g id="text_1">
      <!-- 2004 -->
      <g transform="translate(61.107727 322.182437) scale(0.1 -0.1)">
       <defs>
        <path id="DejaVuSans-32" d="M 1228 531 
L 3431 531 
L 3431 0 
L 469 0 
L 469 531 
Q 828 903 1448 1529 
Q 2069 2156 2228 2338 
Q 2531 2678 2651 2914 
Q 2772 3150 2772 3378 
Q 2772 3750 2511 3984 
Q 2250 4219 1831 4219 
Q 1534 4219 1204 4116 
Q 875 4013 500 3803 
L 500 4441 
Q 881 4594 1212 4672 
Q 1544 4750 1819 4750 
Q 2544 4750 2975 4387 
Q 3406 4025 3406 3419 
Q 3406 3131 3298 2873 
Q 3191 2616 2906 2266 
Q 2828 2175 2409 1742 
Q 1991 1309 1228 531 
z
" transform="scale(0.015625)"/>
        <path id="DejaVuSans-30" d="M 2034 4250 
Q 1547 4250 1301 3770 
Q 1056 3291 1056 2328 
Q 1056 1369 1301 889 
Q 1547 409 2034 409 
Q 2525 409 2770 889 
Q 3016 1369 3016 2328 
Q 3016 3291 2770 3770 
Q 2525 4250 2034 4250 
z
M 2034 4750 
Q 2819 4750 3233 4129 
Q 3647 3509 3647 2328 
Q 3647 1150 3233 529 
Q 2819 -91 2034 -91 
Q 1250 -91 836 529 
Q 422 1150 422 2328 
Q 422 3509 836 4129 
Q 1250 4750 2034 4750 
z
" transform="scale(0.015625)"/>
        <path id="DejaVuSans-34" d="M 2419 4116 
L 825 1625 
L 2419 1625 
L 2419 4116 
z
M 2253 4666 
L 3047 4666 
L 3047 1625 
L 3713 1625 
L 3713 1100 
L 3047 1100 
L 3047 0 
L 2419 0 
L 2419 1100 
L 313 1100 
L 313 1709 
L 2253 4666 
z
" transform="scale(0.015625)"/>
       </defs>
       <use xlink:href="#DejaVuSans-32"/>
       <use xlink:href="#DejaVuSans-30" x="63.623047"/>
       <use xlink:href="#DejaVuSans-30" x="127.246094"/>
       <use xlink:href="#DejaVuSans-34" x="190.869141"/>
      </g>
     </g>
    </g>
    <g id="xtick_2">
     <g id="line2d_2">
      <g>
       <use xlink:href="#m16c78482d1" x="114.442322" y="307.584" style="stroke: #000000; stroke-width: 0.8"/>
      </g>
     </g>
     <g id="text_2">
      <!-- 2006 -->
      <g transform="translate(101.717322 322.182437) scale(0.1 -0.1)">
       <defs>
        <path id="DejaVuSans-36" d="M 2113 2584 
Q 1688 2584 1439 2293 
Q 1191 2003 1191 1497 
Q 1191 994 1439 701 
Q 1688 409 2113 409 
Q 2538 409 2786 701 
Q 3034 994 3034 1497 
Q 3034 2003 2786 2293 
Q 2538 2584 2113 2584 
z
M 3366 4563 
L 3366 3988 
Q 3128 4100 2886 4159 
Q 2644 4219 2406 4219 
Q 1781 4219 1451 3797 
Q 1122 3375 1075 2522 
Q 1259 2794 1537 2939 
Q 1816 3084 2150 3084 
Q 2853 3084 3261 2657 
Q 3669 2231 3669 1497 
Q 3669 778 3244 343 
Q 2819 -91 2113 -91 
Q 1303 -91 875 529 
Q 447 1150 447 2328 
Q 447 3434 972 4092 
Q 1497 4750 2381 4750 
Q 2619 4750 2861 4703 
Q 3103 4656 3366 4563 
z
" transform="scale(0.015625)"/>
       </defs>
       <use xlink:href="#DejaVuSans-32"/>
       <use xlink:href="#DejaVuSans-30" x="63.623047"/>
       <use xlink:href="#DejaVuSans-30" x="127.246094"/>
       <use xlink:href="#DejaVuSans-36" x="190.869141"/>
      </g>
     </g>
    </g>
    <g id="xtick_3">
     <g id="line2d_3">
      <g>
       <use xlink:href="#m16c78482d1" x="154.996364" y="307.584" style="stroke: #000000; stroke-width: 0.8"/>
      </g>
     </g>
     <g id="text_3">
      <!-- 2008 -->
      <g transform="translate(142.271364 322.182437) scale(0.1 -0.1)">
       <defs>
        <path id="DejaVuSans-38" d="M 2034 2216 
Q 1584 2216 1326 1975 
Q 1069 1734 1069 1313 
Q 1069 891 1326 650 
Q 1584 409 2034 409 
Q 2484 409 2743 651 
Q 3003 894 3003 1313 
Q 3003 1734 2745 1975 
Q 2488 2216 2034 2216 
z
M 1403 2484 
Q 997 2584 770 2862 
Q 544 3141 544 3541 
Q 544 4100 942 4425 
Q 1341 4750 2034 4750 
Q 2731 4750 3128 4425 
Q 3525 4100 3525 3541 
Q 3525 3141 3298 2862 
Q 3072 2584 2669 2484 
Q 3125 2378 3379 2068 
Q 3634 1759 3634 1313 
Q 3634 634 3220 271 
Q 2806 -91 2034 -91 
Q 1263 -91 848 271 
Q 434 634 434 1313 
Q 434 1759 690 2068 
Q 947 2378 1403 2484 
z
M 1172 3481 
Q 1172 3119 1398 2916 
Q 1625 2713 2034 2713 
Q 2441 2713 2670 2916 
Q 2900 3119 2900 3481 
Q 2900 3844 2670 4047 
Q 2441 4250 2034 4250 
Q 1625 4250 1398 4047 
Q 1172 3844 1172 3481 
z
" transform="scale(0.015625)"/>
       </defs>
       <use xlink:href="#DejaVuSans-32"/>
       <use xlink:href="#DejaVuSans-30" x="63.623047"/>
       <use xlink:href="#DejaVuSans-30" x="127.246094"/>
       <use xlink:href="#DejaVuSans-38" x="190.869141"/>
      </g>
     </g>
    </g>
    <g id="xtick_4">
     <g id="line2d_4">
      <g>
       <use xlink:href="#m16c78482d1" x="195.605959" y="307.584" style="stroke: #000000; stroke-width: 0.8"/>
      </g>
     </g>
     <g id="text_4">
      <!-- 2010 -->
      <g transform="translate(182.880959 322.182437) scale(0.1 -0.1)">
       <defs>
        <path id="DejaVuSans-31" d="M 794 531 
L 1825 531 
L 1825 4091 
L 703 3866 
L 703 4441 
L 1819 4666 
L 2450 4666 
L 2450 531 
L 3481 531 
L 3481 0 
L 794 0 
L 794 531 
z
" transform="scale(0.015625)"/>
       </defs>
       <use xlink:href="#DejaVuSans-32"/>
       <use xlink:href="#DejaVuSans-30" x="63.623047"/>
       <use xlink:href="#DejaVuSans-31" x="127.246094"/>
       <use xlink:href="#DejaVuSans-30" x="190.869141"/>
      </g>
     </g>
    </g>
    <g id="xtick_5">
     <g id="line2d_5">
      <g>
       <use xlink:href="#m16c78482d1" x="236.16" y="307.584" style="stroke: #000000; stroke-width: 0.8"/>
      </g>
     </g>
     <g id="text_5">
      <!-- 2012 -->
      <g transform="translate(223.435 322.182437) scale(0.1 -0.1)">
       <use xlink:href="#DejaVuSans-32"/>
       <use xlink:href="#DejaVuSans-30" x="63.623047"/>
       <use xlink:href="#DejaVuSans-31" x="127.246094"/>
       <use xlink:href="#DejaVuSans-32" x="190.869141"/>
      </g>
     </g>
    </g>
    <g id="xtick_6">
     <g id="line2d_6">
      <g>
       <use xlink:href="#m16c78482d1" x="276.769595" y="307.584" style="stroke: #000000; stroke-width: 0.8"/>
      </g>
     </g>
     <g id="text_6">
      <!-- 2014 -->
      <g transform="translate(264.044595 322.182437) scale(0.1 -0.1)">
       <use xlink:href="#DejaVuSans-32"/>
       <use xlink:href="#DejaVuSans-30" x="63.623047"/>
       <use xlink:href="#DejaVuSans-31" x="127.246094"/>
       <use xlink:href="#DejaVuSans-34" x="190.869141"/>
      </g>
     </g>
    </g>
    <g id="xtick_7">
     <g id="line2d_7">
      <g>
       <use xlink:href="#m16c78482d1" x="317.323636" y="307.584" style="stroke: #000000; stroke-width: 0.8"/>
      </g>
     </g>
     <g id="text_7">
      <!-- 2016 -->
      <g transform="translate(304.598636 322.182437) scale(0.1 -0.1)">
       <use xlink:href="#DejaVuSans-32"/>
       <use xlink:href="#DejaVuSans-30" x="63.623047"/>
       <use xlink:href="#DejaVuSans-31" x="127.246094"/>
       <use xlink:href="#DejaVuSans-36" x="190.869141"/>
      </g>
     </g>
    </g>
    <g id="xtick_8">
     <g id="line2d_8">
      <g>
       <use xlink:href="#m16c78482d1" x="357.933231" y="307.584" style="stroke: #000000; stroke-width: 0.8"/>
      </g>
     </g>
     <g id="text_8">
      <!-- 2018 -->
      <g transform="translate(345.208231 322.182437) scale(0.1 -0.1)">
       <use xlink:href="#DejaVuSans-32"/>
       <use xlink:href="#DejaVuSans-30" x="63.623047"/>
       <use xlink:href="#DejaVuSans-31" x="127.246094"/>
       <use xlink:href="#DejaVuSans-38" x="190.869141"/>
      </g>
     </g>
    </g>
    <g id="xtick_9">
     <g id="line2d_9">
      <g>
       <use xlink:href="#m16c78482d1" x="398.487273" y="307.584" style="stroke: #000000; stroke-width: 0.8"/>
      </g>
     </g>
     <g id="text_9">
      <!-- 2020 -->
      <g transform="translate(385.762273 322.182437) scale(0.1 -0.1)">
       <use xlink:href="#DejaVuSans-32"/>
       <use xlink:href="#DejaVuSans-30" x="63.623047"/>
       <use xlink:href="#DejaVuSans-32" x="127.246094"/>
       <use xlink:href="#DejaVuSans-30" x="190.869141"/>
      </g>
     </g>
    </g>
    <g id="text_10">
     <!-- Ano -->
     <g transform="translate(226.511562 335.860562) scale(0.1 -0.1)">
      <defs>
       <path id="DejaVuSans-41" d="M 2188 4044 
L 1331 1722 
L 3047 1722 
L 2188 4044 
z
M 1831 4666 
L 2547 4666 
L 4325 0 
L 3669 0 
L 3244 1197 
L 1141 1197 
L 716 0 
L 50 0 
L 1831 4666 
z
" transform="scale(0.015625)"/>
       <path id="DejaVuSans-6e" d="M 3513 2113 
L 3513 0 
L 2938 0 
L 2938 2094 
Q 2938 2591 2744 2837 
Q 2550 3084 2163 3084 
Q 1697 3084 1428 2787 
Q 1159 2491 1159 1978 
L 1159 0 
L 581 0 
L 581 3500 
L 1159 3500 
L 1159 2956 
Q 1366 3272 1645 3428 
Q 1925 3584 2291 3584 
Q 2894 3584 3203 3211 
Q 3513 2838 3513 2113 
z
" transform="scale(0.015625)"/>
       <path id="DejaVuSans-6f" d="M 1959 3097 
Q 1497 3097 1228 2736 
Q 959 2375 959 1747 
Q 959 1119 1226 758 
Q 1494 397 1959 397 
Q 2419 397 2687 759 
Q 2956 1122 2956 1747 
Q 2956 2369 2687 2733 
Q 2419 3097 1959 3097 
z
M 1959 3584 
Q 2709 3584 3137 3096 
Q 3566 2609 3566 1747 
Q 3566 888 3137 398 
Q 2709 -91 1959 -91 
Q 1206 -91 779 398 
Q 353 888 353 1747 
Q 353 2609 779 3096 
Q 1206 3584 1959 3584 
z
" transform="scale(0.015625)"/>
      </defs>
      <use xlink:href="#DejaVuSans-41"/>
      <use xlink:href="#DejaVuSans-6e" x="68.408203"/>
      <use xlink:href="#DejaVuSans-6f" x="131.787109"/>
     </g>
    </g>
   </g>
   <g id="matplotlib.axis_2">
    <g id="ytick_1">
     <g id="line2d_10">
      <defs>
       <path id="md1121012d0" d="M 0 0 
L -3.5 0 
" style="stroke: #000000; stroke-width: 0.8"/>
      </defs>
      <g>
       <use xlink:href="#md1121012d0" x="57.6" y="284.19444" style="stroke: #000000; stroke-width: 0.8"/>
      </g>
     </g>
     <g id="text_11">
      <!-- −0.10 -->
      <g transform="translate(19.954687 287.993658) scale(0.1 -0.1)">
       <defs>
        <path id="DejaVuSans-2212" d="M 678 2272 
L 4684 2272 
L 4684 1741 
L 678 1741 
L 678 2272 
z
" transform="scale(0.015625)"/>
        <path id="DejaVuSans-2e" d="M 684 794 
L 1344 794 
L 1344 0 
L 684 0 
L 684 794 
z
" transform="scale(0.015625)"/>
       </defs>
       <use xlink:href="#DejaVuSans-2212"/>
       <use xlink:href="#DejaVuSans-30" x="83.789062"/>
       <use xlink:href="#DejaVuSans-2e" x="147.412109"/>
       <use xlink:href="#DejaVuSans-31" x="179.199219"/>
       <use xlink:href="#DejaVuSans-30" x="242.822266"/>
      </g>
     </g>
    </g>
    <g id="ytick_2">
     <g id="line2d_11">
      <g>
       <use xlink:href="#md1121012d0" x="57.6" y="252.349801" style="stroke: #000000; stroke-width: 0.8"/>
      </g>
     </g>
     <g id="text_12">
      <!-- −0.05 -->
      <g transform="translate(19.954687 256.14902) scale(0.1 -0.1)">
       <defs>
        <path id="DejaVuSans-35" d="M 691 4666 
L 3169 4666 
L 3169 4134 
L 1269 4134 
L 1269 2991 
Q 1406 3038 1543 3061 
Q 1681 3084 1819 3084 
Q 2600 3084 3056 2656 
Q 3513 2228 3513 1497 
Q 3513 744 3044 326 
Q 2575 -91 1722 -91 
Q 1428 -91 1123 -41 
Q 819 9 494 109 
L 494 744 
Q 775 591 1075 516 
Q 1375 441 1709 441 
Q 2250 441 2565 725 
Q 2881 1009 2881 1497 
Q 2881 1984 2565 2268 
Q 2250 2553 1709 2553 
Q 1456 2553 1204 2497 
Q 953 2441 691 2322 
L 691 4666 
z
" transform="scale(0.015625)"/>
       </defs>
       <use xlink:href="#DejaVuSans-2212"/>
       <use xlink:href="#DejaVuSans-30" x="83.789062"/>
       <use xlink:href="#DejaVuSans-2e" x="147.412109"/>
       <use xlink:href="#DejaVuSans-30" x="179.199219"/>
       <use xlink:href="#DejaVuSans-35" x="242.822266"/>
      </g>
     </g>
    </g>
    <g id="ytick_3">
     <g id="line2d_12">
      <g>
       <use xlink:href="#md1121012d0" x="57.6" y="220.505163" style="stroke: #000000; stroke-width: 0.8"/>
      </g>
     </g>
     <g id="text_13">
      <!-- 0.00 -->
      <g transform="translate(28.334375 224.304382) scale(0.1 -0.1)">
       <use xlink:href="#DejaVuSans-30"/>
       <use xlink:href="#DejaVuSans-2e" x="63.623047"/>
       <use xlink:href="#DejaVuSans-30" x="95.410156"/>
       <use xlink:href="#DejaVuSans-30" x="159.033203"/>
      </g>
     </g>
    </g>
    <g id="ytick_4">
     <g id="line2d_13">
      <g>
       <use xlink:href="#md1121012d0" x="57.6" y="188.660524" style="stroke: #000000; stroke-width: 0.8"/>
      </g>
     </g>
     <g id="text_14">
      <!-- 0.05 -->
      <g transform="translate(28.334375 192.459743) scale(0.1 -0.1)">
       <use xlink:href="#DejaVuSans-30"/>
       <use xlink:href="#DejaVuSans-2e" x="63.623047"/>
       <use xlink:href="#DejaVuSans-30" x="95.410156"/>
       <use xlink:href="#DejaVuSans-35" x="159.033203"/>
      </g>
     </g>
    </g>
    <g id="ytick_5">
     <g id="line2d_14">
      <g>
       <use xlink:href="#md1121012d0" x="57.6" y="156.815886" style="stroke: #000000; stroke-width: 0.8"/>
      </g>
     </g>
     <g id="text_15">
      <!-- 0.10 -->
      <g transform="translate(28.334375 160.615105) scale(0.1 -0.1)">
       <use xlink:href="#DejaVuSans-30"/>
       <use xlink:href="#DejaVuSans-2e" x="63.623047"/>
       <use xlink:href="#DejaVuSans-31" x="95.410156"/>
       <use xlink:href="#DejaVuSans-30" x="159.033203"/>
      </g>
     </g>
    </g>
    <g id="ytick_6">
     <g id="line2d_15">
      <g>
       <use xlink:href="#md1121012d0" x="57.6" y="124.971248" style="stroke: #000000; stroke-width: 0.8"/>
      </g>
     </g>
     <g id="text_16">
      <!-- 0.15 -->
      <g transform="translate(28.334375 128.770466) scale(0.1 -0.1)">
       <use xlink:href="#DejaVuSans-30"/>
       <use xlink:href="#DejaVuSans-2e" x="63.623047"/>
       <use xlink:href="#DejaVuSans-31" x="95.410156"/>
       <use xlink:href="#DejaVuSans-35" x="159.033203"/>
      </g>
     </g>
    </g>
    <g id="ytick_7">
     <g id="line2d_16">
      <g>
       <use xlink:href="#md1121012d0" x="57.6" y="93.126609" style="stroke: #000000; stroke-width: 0.8"/>
      </g>
     </g>
     <g id="text_17">
      <!-- 0.20 -->
      <g transform="translate(28.334375 96.925828) scale(0.1 -0.1)">
       <use xlink:href="#DejaVuSans-30"/>
       <use xlink:href="#DejaVuSans-2e" x="63.623047"/>
       <use xlink:href="#DejaVuSans-32" x="95.410156"/>
       <use xlink:href="#DejaVuSans-30" x="159.033203"/>
      </g>
     </g>
    </g>
    <g id="ytick_8">
     <g id="line2d_17">
      <g>
       <use xlink:href="#md1121012d0" x="57.6" y="61.281971" style="stroke: #000000; stroke-width: 0.8"/>
      </g>
     </g>
     <g id="text_18">
      <!-- 0.25 -->
      <g transform="translate(28.334375 65.08119) scale(0.1 -0.1)">
       <use xlink:href="#DejaVuSans-30"/>
       <use xlink:href="#DejaVuSans-2e" x="63.623047"/>
       <use xlink:href="#DejaVuSans-32" x="95.410156"/>
       <use xlink:href="#DejaVuSans-35" x="159.033203"/>
      </g>
     </g>
    </g>
    <g id="text_19">
     <!-- Crescimento real -->
     <g transform="translate(13.875 216.978781) rotate(-90) scale(0.1 -0.1)">
      <defs>
       <path id="DejaVuSans-43" d="M 4122 4306 
L 4122 3641 
Q 3803 3938 3442 4084 
Q 3081 4231 2675 4231 
Q 1875 4231 1450 3742 
Q 1025 3253 1025 2328 
Q 1025 1406 1450 917 
Q 1875 428 2675 428 
Q 3081 428 3442 575 
Q 3803 722 4122 1019 
L 4122 359 
Q 3791 134 3420 21 
Q 3050 -91 2638 -91 
Q 1578 -91 968 557 
Q 359 1206 359 2328 
Q 359 3453 968 4101 
Q 1578 4750 2638 4750 
Q 3056 4750 3426 4639 
Q 3797 4528 4122 4306 
z
" transform="scale(0.015625)"/>
       <path id="DejaVuSans-72" d="M 2631 2963 
Q 2534 3019 2420 3045 
Q 2306 3072 2169 3072 
Q 1681 3072 1420 2755 
Q 1159 2438 1159 1844 
L 1159 0 
L 581 0 
L 581 3500 
L 1159 3500 
L 1159 2956 
Q 1341 3275 1631 3429 
Q 1922 3584 2338 3584 
Q 2397 3584 2469 3576 
Q 2541 3569 2628 3553 
L 2631 2963 
z
" transform="scale(0.015625)"/>
       <path id="DejaVuSans-65" d="M 3597 1894 
L 3597 1613 
L 953 1613 
Q 991 1019 1311 708 
Q 1631 397 2203 397 
Q 2534 397 2845 478 
Q 3156 559 3463 722 
L 3463 178 
Q 3153 47 2828 -22 
Q 2503 -91 2169 -91 
Q 1331 -91 842 396 
Q 353 884 353 1716 
Q 353 2575 817 3079 
Q 1281 3584 2069 3584 
Q 2775 3584 3186 3129 
Q 3597 2675 3597 1894 
z
M 3022 2063 
Q 3016 2534 2758 2815 
Q 2500 3097 2075 3097 
Q 1594 3097 1305 2825 
Q 1016 2553 972 2059 
L 3022 2063 
z
" transform="scale(0.015625)"/>
       <path id="DejaVuSans-73" d="M 2834 3397 
L 2834 2853 
Q 2591 2978 2328 3040 
Q 2066 3103 1784 3103 
Q 1356 3103 1142 2972 
Q 928 2841 928 2578 
Q 928 2378 1081 2264 
Q 1234 2150 1697 2047 
L 1894 2003 
Q 2506 1872 2764 1633 
Q 3022 1394 3022 966 
Q 3022 478 2636 193 
Q 2250 -91 1575 -91 
Q 1294 -91 989 -36 
Q 684 19 347 128 
L 347 722 
Q 666 556 975 473 
Q 1284 391 1588 391 
Q 1994 391 2212 530 
Q 2431 669 2431 922 
Q 2431 1156 2273 1281 
Q 2116 1406 1581 1522 
L 1381 1569 
Q 847 1681 609 1914 
Q 372 2147 372 2553 
Q 372 3047 722 3315 
Q 1072 3584 1716 3584 
Q 2034 3584 2315 3537 
Q 2597 3491 2834 3397 
z
" transform="scale(0.015625)"/>
       <path id="DejaVuSans-63" d="M 3122 3366 
L 3122 2828 
Q 2878 2963 2633 3030 
Q 2388 3097 2138 3097 
Q 1578 3097 1268 2742 
Q 959 2388 959 1747 
Q 959 1106 1268 751 
Q 1578 397 2138 397 
Q 2388 397 2633 464 
Q 2878 531 3122 666 
L 3122 134 
Q 2881 22 2623 -34 
Q 2366 -91 2075 -91 
Q 1284 -91 818 406 
Q 353 903 353 1747 
Q 353 2603 823 3093 
Q 1294 3584 2113 3584 
Q 2378 3584 2631 3529 
Q 2884 3475 3122 3366 
z
" transform="scale(0.015625)"/>
       <path id="DejaVuSans-69" d="M 603 3500 
L 1178 3500 
L 1178 0 
L 603 0 
L 603 3500 
z
M 603 4863 
L 1178 4863 
L 1178 4134 
L 603 4134 
L 603 4863 
z
" transform="scale(0.015625)"/>
       <path id="DejaVuSans-6d" d="M 3328 2828 
Q 3544 3216 3844 3400 
Q 4144 3584 4550 3584 
Q 5097 3584 5394 3201 
Q 5691 2819 5691 2113 
L 5691 0 
L 5113 0 
L 5113 2094 
Q 5113 2597 4934 2840 
Q 4756 3084 4391 3084 
Q 3944 3084 3684 2787 
Q 3425 2491 3425 1978 
L 3425 0 
L 2847 0 
L 2847 2094 
Q 2847 2600 2669 2842 
Q 2491 3084 2119 3084 
Q 1678 3084 1418 2786 
Q 1159 2488 1159 1978 
L 1159 0 
L 581 0 
L 581 3500 
L 1159 3500 
L 1159 2956 
Q 1356 3278 1631 3431 
Q 1906 3584 2284 3584 
Q 2666 3584 2933 3390 
Q 3200 3197 3328 2828 
z
" transform="scale(0.015625)"/>
       <path id="DejaVuSans-74" d="M 1172 4494 
L 1172 3500 
L 2356 3500 
L 2356 3053 
L 1172 3053 
L 1172 1153 
Q 1172 725 1289 603 
Q 1406 481 1766 481 
L 2356 481 
L 2356 0 
L 1766 0 
Q 1100 0 847 248 
Q 594 497 594 1153 
L 594 3053 
L 172 3053 
L 172 3500 
L 594 3500 
L 594 4494 
L 1172 4494 
z
" transform="scale(0.015625)"/>
       <path id="DejaVuSans-20" transform="scale(0.015625)"/>
       <path id="DejaVuSans-61" d="M 2194 1759 
Q 1497 1759 1228 1600 
Q 959 1441 959 1056 
Q 959 750 1161 570 
Q 1363 391 1709 391 
Q 2188 391 2477 730 
Q 2766 1069 2766 1631 
L 2766 1759 
L 2194 1759 
z
M 3341 1997 
L 3341 0 
L 2766 0 
L 2766 531 
Q 2569 213 2275 61 
Q 1981 -91 1556 -91 
Q 1019 -91 701 211 
Q 384 513 384 1019 
Q 384 1609 779 1909 
Q 1175 2209 1959 2209 
L 2766 2209 
L 2766 2266 
Q 2766 2663 2505 2880 
Q 2244 3097 1772 3097 
Q 1472 3097 1187 3025 
Q 903 2953 641 2809 
L 641 3341 
Q 956 3463 1253 3523 
Q 1550 3584 1831 3584 
Q 2591 3584 2966 3190 
Q 3341 2797 3341 1997 
z
" transform="scale(0.015625)"/>
       <path id="DejaVuSans-6c" d="M 603 4863 
L 1178 4863 
L 1178 0 
L 603 0 
L 603 4863 
z
" transform="scale(0.015625)"/>
      </defs>
      <use xlink:href="#DejaVuSans-43"/>
      <use xlink:href="#DejaVuSans-72" x="69.824219"/>
      <use xlink:href="#DejaVuSans-65" x="108.6875"/>
      <use xlink:href="#DejaVuSans-73" x="170.210938"/>
      <use xlink:href="#DejaVuSans-63" x="222.310547"/>
      <use xlink:href="#DejaVuSans-69" x="277.291016"/>
      <use xlink:href="#DejaVuSans-6d" x="305.074219"/>
      <use xlink:href="#DejaVuSans-65" x="402.486328"/>
      <use xlink:href="#DejaVuSans-6e" x="464.009766"/>
      <use xlink:href="#DejaVuSans-74" x="527.388672"/>
      <use xlink:href="#DejaVuSans-6f" x="566.597656"/>
      <use xlink:href="#DejaVuSans-20" x="627.779297"/>
      <use xlink:href="#DejaVuSans-72" x="659.566406"/>
      <use xlink:href="#DejaVuSans-65" x="698.429688"/>
      <use xlink:href="#DejaVuSans-61" x="759.953125"/>
      <use xlink:href="#DejaVuSans-6c" x="821.232422"/>
     </g>
    </g>
   </g>
   <g id="line2d_18">
    <path d="M 73.832727 155.442443 
L 94.165301 191.791098 
L 114.442322 199.496311 
L 134.719343 203.260235 
L 154.996364 212.652642 
L 175.328938 221.833454 
L 195.605959 157.039241 
L 215.882979 141.197562 
L 236.16 130.598417 
L 256.492574 180.714518 
L 276.769595 198.036133 
L 297.046616 226.192249 
L 317.323636 237.430875 
L 337.656211 210.75113 
L 357.933231 213.385212 
L 378.210252 226.088693 
L 398.487273 235.58372 
" clip-path="url(#p4db2f790df)" style="fill: none; stroke: #dcdcdc; stroke-width: 1.5; stroke-linecap: square"/>
   </g>
   <g id="line2d_19">
    <path d="M 73.832727 139.625603 
L 94.165301 169.772709 
L 114.442322 186.240898 
L 134.719343 188.704001 
L 154.996364 151.914947 
L 175.328938 153.024633 
L 195.605959 153.628471 
L 215.882979 133.354953 
L 236.16 139.169369 
L 256.492574 140.840656 
L 276.769595 205.319689 
L 297.046616 225.522407 
L 317.323636 236.791617 
L 337.656211 233.884409 
L 357.933231 216.025529 
L 378.210252 251.406674 
L 398.487273 250.260697 
" clip-path="url(#p4db2f790df)" style="fill: none; stroke: #dcdcdc; stroke-width: 1.5; stroke-linecap: square"/>
   </g>
   <g id="line2d_20">
    <path d="M 73.832727 198.204456 
L 94.165301 188.938989 
L 114.442322 207.782237 
L 134.719343 192.385195 
L 154.996364 211.829788 
L 175.328938 204.270353 
L 195.605959 242.102189 
L 215.882979 233.224353 
L 236.16 227.001256 
L 256.492574 205.50243 
L 276.769595 226.830942 
L 297.046616 260.328045 
L 317.323636 248.397363 
L 337.656211 228.052271 
L 357.933231 214.790278 
L 378.210252 243.945014 
L 398.487273 234.005512 
" clip-path="url(#p4db2f790df)" style="fill: none; stroke: #dcdcdc; stroke-width: 1.5; stroke-linecap: square"/>
   </g>
   <g id="line2d_21">
    <path d="M 73.832727 210.416737 
L 94.165301 218.766543 
L 114.442322 208.6658 
L 134.719343 207.53876 
L 154.996364 229.483333 
L 175.328938 217.204808 
L 195.605959 201.266374 
L 215.882979 180.914477 
L 236.16 219.265866 
L 256.492574 249.345596 
L 276.769595 249.749679 
L 297.046616 246.751948 
L 317.323636 258.129757 
L 337.656211 257.567668 
L 357.933231 243.061398 
L 378.210252 235.199576 
L 398.487273 216.792912 
" clip-path="url(#p4db2f790df)" style="fill: none; stroke: #dcdcdc; stroke-width: 1.5; stroke-linecap: square"/>
   </g>
   <g id="line2d_22">
    <path d="M 73.832727 147.053813 
L 94.165301 172.102657 
L 114.442322 184.848913 
L 134.719343 184.617742 
L 154.996364 179.67594 
L 175.328938 122.974606 
L 195.605959 134.670428 
L 215.882979 143.444472 
L 236.16 194.810679 
L 256.492574 183.991446 
L 276.769595 200.338077 
L 297.046616 218.028859 
L 317.323636 237.002696 
L 337.656211 244.852309 
L 357.933231 238.274652 
L 378.210252 245.730891 
L 398.487273 235.545549 
" clip-path="url(#p4db2f790df)" style="fill: none; stroke: #dcdcdc; stroke-width: 1.5; stroke-linecap: square"/>
   </g>
   <g id="line2d_23">
    <path d="M 73.832727 199.443418 
L 94.165301 192.710213 
L 114.442322 186.870336 
L 134.719343 184.203231 
L 154.996364 202.20654 
L 175.328938 201.908424 
L 195.605959 212.001258 
L 215.882979 202.245142 
L 236.16 222.077938 
L 256.492574 220.165956 
L 276.769595 223.908042 
L 297.046616 211.712091 
L 317.323636 196.805029 
L 337.656211 183.239672 
L 357.933231 192.198773 
L 378.210252 206.584237 
L 398.487273 234.908335 
" clip-path="url(#p4db2f790df)" style="fill: none; stroke: #dcdcdc; stroke-width: 1.5; stroke-linecap: square"/>
   </g>
   <g id="line2d_24">
    <path d="M 73.832727 220.706644 
L 94.165301 204.586981 
L 114.442322 193.101904 
L 134.719343 177.122899 
L 154.996364 194.529632 
L 175.328938 192.258336 
L 195.605959 176.621092 
L 215.882979 176.793564 
L 236.16 223.751908 
L 256.492574 254.992916 
L 276.769595 272.635372 
L 297.046616 245.732492 
L 317.323636 255.709085 
L 337.656211 230.61642 
L 357.933231 236.291189 
L 378.210252 237.069516 
L 398.487273 230.807811 
" clip-path="url(#p4db2f790df)" style="fill: none; stroke: #dcdcdc; stroke-width: 1.5; stroke-linecap: square"/>
   </g>
   <g id="line2d_25">
    <path d="M 73.832727 177.656545 
L 94.165301 163.753934 
L 114.442322 183.369525 
L 134.719343 206.213468 
L 154.996364 194.840934 
L 175.328938 187.866656 
L 195.605959 160.430085 
L 215.882979 176.905572 
L 236.16 220.922535 
L 256.492574 286.852219 
L 276.769595 295.488 
L 297.046616 283.844016 
L 317.323636 251.537198 
L 337.656211 247.62843 
L 357.933231 241.805765 
L 378.210252 245.77284 
L 398.487273 226.151897 
" clip-path="url(#p4db2f790df)" style="fill: none; stroke: #dcdcdc; stroke-width: 1.5; stroke-linecap: square"/>
   </g>
   <g id="line2d_26">
    <path d="M 73.832727 137.958104 
L 94.165301 177.75992 
L 114.442322 197.810647 
L 134.719343 204.368827 
L 154.996364 220.91748 
L 175.328938 220.038661 
L 195.605959 228.552906 
L 215.882979 200.70075 
L 236.16 216.647976 
L 256.492574 225.508039 
L 276.769595 252.003369 
L 297.046616 252.81262 
L 317.323636 246.56033 
L 337.656211 232.04232 
L 357.933231 230.987863 
L 378.210252 227.508525 
L 398.487273 243.61611 
" clip-path="url(#p4db2f790df)" style="fill: none; stroke: #dcdcdc; stroke-width: 1.5; stroke-linecap: square"/>
   </g>
   <g id="line2d_27">
    <path d="M 73.832727 179.716925 
L 94.165301 189.627166 
L 114.442322 174.075402 
L 134.719343 172.287585 
L 154.996364 164.527214 
L 175.328938 135.605275 
L 195.605959 122.968768 
L 215.882979 119.649319 
L 236.16 172.185956 
L 256.492574 187.444343 
L 276.769595 223.186388 
L 297.046616 237.159379 
L 317.323636 239.922651 
L 337.656211 202.758176 
L 357.933231 196.756204 
L 378.210252 206.651387 
L 398.487273 227.970174 
" clip-path="url(#p4db2f790df)" style="fill: none; stroke: #dcdcdc; stroke-width: 1.5; stroke-linecap: square"/>
   </g>
   <g id="line2d_28">
    <path d="M 73.832727 195.682191 
L 94.165301 197.884506 
L 114.442322 191.735431 
L 134.719343 196.46706 
L 154.996364 234.005807 
L 175.328938 218.408136 
L 195.605959 221.320541 
L 215.882979 190.398352 
L 236.16 223.059269 
L 256.492574 235.50112 
L 276.769595 249.39792 
L 297.046616 257.625014 
L 317.323636 242.700342 
L 337.656211 223.786968 
L 357.933231 214.291918 
L 378.210252 227.272391 
L 398.487273 214.599652 
" clip-path="url(#p4db2f790df)" style="fill: none; stroke: #dcdcdc; stroke-width: 1.5; stroke-linecap: square"/>
   </g>
   <g id="line2d_29">
    <path d="M 73.832727 193.932429 
L 94.165301 194.836309 
L 114.442322 197.171404 
L 134.719343 192.357732 
L 154.996364 217.625875 
L 175.328938 217.66405 
L 195.605959 233.016025 
L 215.882979 246.359763 
L 236.16 261.547086 
L 256.492574 260.37307 
L 276.769595 224.100159 
L 297.046616 223.257072 
L 317.323636 208.93007 
L 337.656211 226.83629 
L 357.933231 241.115636 
L 378.210252 259.133694 
L 398.487273 217.846967 
" clip-path="url(#p4db2f790df)" style="fill: none; stroke: #dcdcdc; stroke-width: 1.5; stroke-linecap: square"/>
   </g>
   <g id="line2d_30">
    <path d="M 73.832727 220.800675 
L 94.165301 212.884636 
L 114.442322 213.652917 
L 134.719343 210.860987 
L 154.996364 231.203393 
L 175.328938 225.514978 
L 195.605959 219.068283 
L 215.882979 203.345929 
L 236.16 210.762974 
L 256.492574 226.892404 
L 276.769595 245.891891 
L 297.046616 270.666164 
L 317.323636 256.11191 
L 337.656211 234.337922 
L 357.933231 234.823066 
L 378.210252 247.586 
L 398.487273 223.430142 
" clip-path="url(#p4db2f790df)" style="fill: none; stroke: #dcdcdc; stroke-width: 1.5; stroke-linecap: square"/>
   </g>
   <g id="line2d_31">
    <path d="M 73.832727 190.024605 
L 94.165301 189.204869 
L 114.442322 197.331973 
L 134.719343 191.504907 
L 154.996364 216.597926 
L 175.328938 211.114343 
L 195.605959 219.237277 
L 215.882979 204.64848 
L 236.16 216.981011 
L 256.492574 233.484585 
L 276.769595 247.356598 
L 297.046616 265.526385 
L 317.323636 248.442305 
L 337.656211 225.579824 
L 357.933231 215.946253 
L 378.210252 233.152483 
L 398.487273 230.800924 
" clip-path="url(#p4db2f790df)" style="fill: none; stroke: #dcdcdc; stroke-width: 1.5; stroke-linecap: square"/>
   </g>
   <g id="line2d_32">
    <path d="M 73.832727 184.053613 
L 94.165301 203.953929 
L 114.442322 207.890891 
L 134.719343 199.277564 
L 154.996364 206.297777 
L 175.328938 201.897438 
L 195.605959 194.277473 
L 215.882979 188.974051 
L 236.16 198.71521 
L 256.492574 236.20936 
L 276.769595 250.617226 
L 297.046616 268.885956 
L 317.323636 241.019311 
L 337.656211 222.30211 
L 357.933231 205.849048 
L 378.210252 221.276783 
L 398.487273 203.534008 
" clip-path="url(#p4db2f790df)" style="fill: none; stroke: #dcdcdc; stroke-width: 1.5; stroke-linecap: square"/>
   </g>
   <g id="line2d_33">
    <path d="M 73.832727 200.229678 
L 94.165301 193.261187 
L 114.442322 208.094012 
L 134.719343 211.475868 
L 154.996364 228.95466 
L 175.328938 227.608508 
L 195.605959 228.777776 
L 215.882979 213.588297 
L 236.16 222.487444 
L 256.492574 226.517073 
L 276.769595 239.796025 
L 297.046616 250.077108 
L 317.323636 234.872915 
L 337.656211 209.522584 
L 357.933231 198.387586 
L 378.210252 220.878661 
L 398.487273 212.628002 
" clip-path="url(#p4db2f790df)" style="fill: none; stroke: #dcdcdc; stroke-width: 1.5; stroke-linecap: square"/>
   </g>
   <g id="line2d_34">
    <path d="M 73.832727 208.80002 
L 94.165301 217.584475 
L 114.442322 221.562789 
L 134.719343 203.657468 
L 154.996364 222.294624 
L 175.328938 218.677425 
L 195.605959 222.376261 
L 215.882979 210.137828 
L 236.16 211.26658 
L 256.492574 227.504393 
L 276.769595 243.1154 
L 297.046616 268.589602 
L 317.323636 258.379024 
L 337.656211 222.180632 
L 357.933231 211.252157 
L 378.210252 224.284193 
L 398.487273 213.412456 
" clip-path="url(#p4db2f790df)" style="fill: none; stroke: #dcdcdc; stroke-width: 1.5; stroke-linecap: square"/>
   </g>
   <g id="line2d_35">
    <path d="M 73.832727 165.24668 
L 94.165301 190.701589 
L 114.442322 181.330888 
L 134.719343 170.193246 
L 154.996364 171.777364 
L 175.328938 158.60825 
L 195.605959 177.066078 
L 215.882979 173.940381 
L 236.16 181.066695 
L 256.492574 190.413427 
L 276.769595 192.682581 
L 297.046616 219.332453 
L 317.323636 213.401632 
L 337.656211 190.699584 
L 357.933231 185.310441 
L 378.210252 188.795078 
L 398.487273 212.463323 
" clip-path="url(#p4db2f790df)" style="fill: none; stroke: #dcdcdc; stroke-width: 1.5; stroke-linecap: square"/>
   </g>
   <g id="line2d_36">
    <path d="M 73.832727 158.018751 
L 94.165301 148.120401 
L 114.442322 179.33236 
L 134.719343 174.497651 
L 154.996364 214.570358 
L 175.328938 217.707664 
L 195.605959 210.224284 
L 215.882979 179.11659 
L 236.16 210.142513 
L 256.492574 203.839181 
L 276.769595 196.433943 
L 297.046616 180.020805 
L 317.323636 212.355122 
L 337.656211 220.456822 
L 357.933231 229.602505 
L 378.210252 236.304747 
L 398.487273 232.031419 
" clip-path="url(#p4db2f790df)" style="fill: none; stroke: #dcdcdc; stroke-width: 1.5; stroke-linecap: square"/>
   </g>
   <g id="line2d_37">
    <path d="M 73.832727 155.191555 
L 94.165301 162.167118 
L 114.442322 161.029896 
L 134.719343 177.624981 
L 154.996364 170.67616 
L 175.328938 204.829083 
L 195.605959 213.015182 
L 215.882979 219.507922 
L 236.16 212.575652 
L 256.492574 202.477805 
L 276.769595 214.962411 
L 297.046616 218.828962 
L 317.323636 210.794061 
L 337.656211 202.631126 
L 357.933231 203.243884 
L 378.210252 232.559658 
L 398.487273 251.654154 
" clip-path="url(#p4db2f790df)" style="fill: none; stroke: #dcdcdc; stroke-width: 1.5; stroke-linecap: square"/>
   </g>
   <g id="line2d_38">
    <path d="M 73.832727 164.921271 
L 94.165301 192.141185 
L 114.442322 199.73287 
L 134.719343 191.440125 
L 154.996364 198.459783 
L 175.328938 182.700854 
L 195.605959 184.973192 
L 215.882979 181.324993 
L 236.16 194.052308 
L 256.492574 197.03534 
L 276.769595 193.341121 
L 297.046616 213.292395 
L 317.323636 214.762294 
L 337.656211 226.04236 
L 357.933231 210.825363 
L 378.210252 218.139666 
L 398.487273 224.840394 
" clip-path="url(#p4db2f790df)" style="fill: none; stroke: #dcdcdc; stroke-width: 1.5; stroke-linecap: square"/>
   </g>
   <g id="line2d_39">
    <path d="M 73.832727 225.355459 
L 94.165301 164.593069 
L 114.442322 139.092762 
L 134.719343 134.802291 
L 154.996364 183.877135 
L 175.328938 193.198806 
L 195.605959 197.414305 
L 215.882979 189.809978 
L 236.16 185.662118 
L 256.492574 214.25449 
L 276.769595 221.444832 
L 297.046616 251.306025 
L 317.323636 257.412012 
L 337.656211 242.084498 
L 357.933231 218.693891 
L 378.210252 204.37427 
L 398.487273 195.546737 
" clip-path="url(#p4db2f790df)" style="fill: none; stroke: #dcdcdc; stroke-width: 1.5; stroke-linecap: square"/>
   </g>
   <g id="line2d_40">
    <path d="M 73.832727 190.815551 
L 94.165301 193.842444 
L 114.442322 200.08719 
L 134.719343 196.039023 
L 154.996364 218.325077 
L 175.328938 211.852702 
L 195.605959 215.891361 
L 215.882979 201.274108 
L 236.16 214.387181 
L 256.492574 229.108357 
L 276.769595 242.070359 
L 297.046616 258.587799 
L 317.323636 243.734239 
L 337.656211 222.765464 
L 357.933231 213.549162 
L 378.210252 228.359162 
L 398.487273 223.296258 
" clip-path="url(#p4db2f790df)" style="fill: none; stroke: #dcdcdc; stroke-width: 1.5; stroke-linecap: square"/>
   </g>
   <g id="line2d_41">
    <path d="M 73.832727 146.174063 
L 94.165301 160.322856 
L 114.442322 174.660905 
L 134.719343 192.916312 
L 154.996364 218.696199 
L 175.328938 203.951159 
L 195.605959 191.756876 
L 215.882979 174.065667 
L 236.16 195.152383 
L 256.492574 224.835243 
L 276.769595 243.453598 
L 297.046616 280.854606 
L 317.323636 247.27398 
L 337.656211 203.164701 
L 357.933231 175.064021 
L 378.210252 195.503551 
L 398.487273 200.005591 
" clip-path="url(#p4db2f790df)" style="fill: none; stroke: #dcdcdc; stroke-width: 1.5; stroke-linecap: square"/>
   </g>
   <g id="line2d_42">
    <path d="M 73.832727 204.881886 
L 94.165301 213.168011 
L 114.442322 233.86366 
L 134.719343 216.222875 
L 154.996364 192.947728 
L 175.328938 209.757116 
L 195.605959 233.445798 
L 215.882979 249.839587 
L 236.16 210.996588 
L 256.492574 195.188677 
L 276.769595 179.782056 
L 297.046616 190.694716 
L 317.323636 201.158086 
L 337.656211 232.406986 
L 357.933231 235.076705 
L 378.210252 259.59422 
L 398.487273 227.311632 
" clip-path="url(#p4db2f790df)" style="fill: none; stroke: #dcdcdc; stroke-width: 1.5; stroke-linecap: square"/>
   </g>
   <g id="line2d_43">
    <path d="M 73.832727 194.203571 
L 94.165301 183.975391 
L 114.442322 206.754396 
L 134.719343 202.128482 
L 154.996364 246.331265 
L 175.328938 230.125669 
L 195.605959 236.166837 
L 215.882979 220.741756 
L 236.16 230.751033 
L 256.492574 229.356508 
L 276.769595 232.607466 
L 297.046616 239.956351 
L 317.323636 243.696555 
L 337.656211 253.35034 
L 357.933231 228.821618 
L 378.210252 239.541995 
L 398.487273 219.10311 
" clip-path="url(#p4db2f790df)" style="fill: none; stroke: #dcdcdc; stroke-width: 1.5; stroke-linecap: square"/>
   </g>
   <g id="line2d_44">
    <path d="M 73.832727 87.669304 
L 94.165301 98.560992 
L 114.442322 178.235769 
L 134.719343 256.840036 
L 154.996364 264.846275 
L 175.328938 209.654053 
L 195.605959 222.216496 
L 215.882979 193.508663 
L 236.16 229.720703 
L 256.492574 216.473223 
L 276.769595 238.017788 
L 297.046616 208.137116 
L 317.323636 202.035757 
L 337.656211 217.437628 
L 357.933231 218.65771 
L 378.210252 199.957836 
L 398.487273 229.351049 
" clip-path="url(#p4db2f790df)" style="fill: none; stroke: #dcdcdc; stroke-width: 1.5; stroke-linecap: square"/>
   </g>
   <g id="line2d_45">
    <path d="M 73.832727 119.542369 
L 94.165301 170.876143 
L 114.442322 212.925489 
L 134.719343 184.979887 
L 154.996364 149.281091 
L 175.328938 53.568 
L 195.605959 92.549584 
L 215.882979 115.6965 
L 236.16 192.32177 
L 256.492574 167.418326 
L 276.769595 183.464085 
L 297.046616 190.576966 
L 317.323636 224.119431 
L 337.656211 253.154315 
L 357.933231 247.152105 
L 378.210252 247.801323 
L 398.487273 221.416669 
" clip-path="url(#p4db2f790df)" style="fill: none; stroke: #dcdcdc; stroke-width: 1.5; stroke-linecap: square"/>
   </g>
   <g id="line2d_46">
    <path d="M 73.832727 220.800675 
L 94.165301 212.884636 
L 114.442322 213.652917 
L 134.719343 210.860987 
L 154.996364 231.203393 
L 175.328938 225.514978 
L 195.605959 219.068283 
L 215.882979 203.345929 
L 236.16 210.762974 
L 256.492574 226.892404 
L 276.769595 245.891891 
L 297.046616 270.666164 
L 317.323636 256.11191 
L 337.656211 234.337922 
L 357.933231 234.823066 
L 378.210252 247.586 
L 398.487273 223.430142 
" clip-path="url(#p4db2f790df)" style="fill: none; stroke: #008080; stroke-width: 1.5; stroke-linecap: square"/>
   </g>
   <g id="line2d_47">
    <path d="M 73.832727 190.815551 
L 94.165301 193.842444 
L 114.442322 200.08719 
L 134.719343 196.039023 
L 154.996364 218.325077 
L 175.328938 211.852702 
L 195.605959 215.891361 
L 215.882979 201.274108 
L 236.16 214.387181 
L 256.492574 229.108357 
L 276.769595 242.070359 
L 297.046616 258.587799 
L 317.323636 243.734239 
L 337.656211 222.765464 
L 357.933231 213.549162 
L 378.210252 228.359162 
L 398.487273 223.296258 
" clip-path="url(#p4db2f790df)" style="fill: none; stroke: #ffd700; stroke-width: 1.5; stroke-linecap: square"/>
   </g>
   <g id="line2d_48">
    <path d="M 73.832727 177.072326 
L 94.165301 183.853588 
L 114.442322 193.580014 
L 134.719343 193.627756 
L 154.996364 204.852662 
L 175.328938 194.147064 
L 195.605959 195.784559 
L 215.882979 187.534626 
L 236.16 205.692342 
L 256.492574 215.671568 
L 276.769595 227.554103 
L 297.046616 237.248585 
L 317.323636 234.287089 
L 337.656211 225.087685 
L 357.933231 218.432991 
L 378.210252 228.967182 
L 398.487273 224.652554 
" clip-path="url(#p4db2f790df)" style="fill: none; stroke-dasharray: 5.55,2.4; stroke-dashoffset: 0; stroke: #dc143c; stroke-width: 1.5"/>
   </g>
   <g id="patch_3">
    <path d="M 57.6 307.584 
L 57.6 41.472 
" style="fill: none; stroke: #000000; stroke-width: 0.8; stroke-linejoin: miter; stroke-linecap: square"/>
   </g>
   <g id="patch_4">
    <path d="M 414.72 307.584 
L 414.72 41.472 
" style="fill: none; stroke: #000000; stroke-width: 0.8; stroke-linejoin: miter; stroke-linecap: square"/>
   </g>
   <g id="patch_5">
    <path d="M 57.6 307.584 
L 414.72 307.584 
" style="fill: none; stroke: #000000; stroke-width: 0.8; stroke-linejoin: miter; stroke-linecap: square"/>
   </g>
   <g id="patch_6">
    <path d="M 57.6 41.472 
L 414.72 41.472 
" style="fill: none; stroke: #000000; stroke-width: 0.8; stroke-linejoin: miter; stroke-linecap: square"/>
   </g>
   <g id="text_20">
    <!-- Média Móvel (3 anos) da Taxa de Crescimento da Ind. de Transformação -->
    <g transform="translate(19.955625 35.472) scale(0.12 -0.12)">
     <defs>
      <path id="DejaVuSans-4d" d="M 628 4666 
L 1569 4666 
L 2759 1491 
L 3956 4666 
L 4897 4666 
L 4897 0 
L 4281 0 
L 4281 4097 
L 3078 897 
L 2444 897 
L 1241 4097 
L 1241 0 
L 628 0 
L 628 4666 
z
" transform="scale(0.015625)"/>
      <path id="DejaVuSans-e9" d="M 3597 1894 
L 3597 1613 
L 953 1613 
Q 991 1019 1311 708 
Q 1631 397 2203 397 
Q 2534 397 2845 478 
Q 3156 559 3463 722 
L 3463 178 
Q 3153 47 2828 -22 
Q 2503 -91 2169 -91 
Q 1331 -91 842 396 
Q 353 884 353 1716 
Q 353 2575 817 3079 
Q 1281 3584 2069 3584 
Q 2775 3584 3186 3129 
Q 3597 2675 3597 1894 
z
M 3022 2063 
Q 3016 2534 2758 2815 
Q 2500 3097 2075 3097 
Q 1594 3097 1305 2825 
Q 1016 2553 972 2059 
L 3022 2063 
z
M 2466 5119 
L 3088 5119 
L 2070 3944 
L 1591 3944 
L 2466 5119 
z
" transform="scale(0.015625)"/>
      <path id="DejaVuSans-64" d="M 2906 2969 
L 2906 4863 
L 3481 4863 
L 3481 0 
L 2906 0 
L 2906 525 
Q 2725 213 2448 61 
Q 2172 -91 1784 -91 
Q 1150 -91 751 415 
Q 353 922 353 1747 
Q 353 2572 751 3078 
Q 1150 3584 1784 3584 
Q 2172 3584 2448 3432 
Q 2725 3281 2906 2969 
z
M 947 1747 
Q 947 1113 1208 752 
Q 1469 391 1925 391 
Q 2381 391 2643 752 
Q 2906 1113 2906 1747 
Q 2906 2381 2643 2742 
Q 2381 3103 1925 3103 
Q 1469 3103 1208 2742 
Q 947 2381 947 1747 
z
" transform="scale(0.015625)"/>
      <path id="DejaVuSans-f3" d="M 1959 3097 
Q 1497 3097 1228 2736 
Q 959 2375 959 1747 
Q 959 1119 1226 758 
Q 1494 397 1959 397 
Q 2419 397 2687 759 
Q 2956 1122 2956 1747 
Q 2956 2369 2687 2733 
Q 2419 3097 1959 3097 
z
M 1959 3584 
Q 2709 3584 3137 3096 
Q 3566 2609 3566 1747 
Q 3566 888 3137 398 
Q 2709 -91 1959 -91 
Q 1206 -91 779 398 
Q 353 888 353 1747 
Q 353 2609 779 3096 
Q 1206 3584 1959 3584 
z
M 2394 5119 
L 3016 5119 
L 1998 3944 
L 1519 3944 
L 2394 5119 
z
" transform="scale(0.015625)"/>
      <path id="DejaVuSans-76" d="M 191 3500 
L 800 3500 
L 1894 563 
L 2988 3500 
L 3597 3500 
L 2284 0 
L 1503 0 
L 191 3500 
z
" transform="scale(0.015625)"/>
      <path id="DejaVuSans-28" d="M 1984 4856 
Q 1566 4138 1362 3434 
Q 1159 2731 1159 2009 
Q 1159 1288 1364 580 
Q 1569 -128 1984 -844 
L 1484 -844 
Q 1016 -109 783 600 
Q 550 1309 550 2009 
Q 550 2706 781 3412 
Q 1013 4119 1484 4856 
L 1984 4856 
z
" transform="scale(0.015625)"/>
      <path id="DejaVuSans-33" d="M 2597 2516 
Q 3050 2419 3304 2112 
Q 3559 1806 3559 1356 
Q 3559 666 3084 287 
Q 2609 -91 1734 -91 
Q 1441 -91 1130 -33 
Q 819 25 488 141 
L 488 750 
Q 750 597 1062 519 
Q 1375 441 1716 441 
Q 2309 441 2620 675 
Q 2931 909 2931 1356 
Q 2931 1769 2642 2001 
Q 2353 2234 1838 2234 
L 1294 2234 
L 1294 2753 
L 1863 2753 
Q 2328 2753 2575 2939 
Q 2822 3125 2822 3475 
Q 2822 3834 2567 4026 
Q 2313 4219 1838 4219 
Q 1578 4219 1281 4162 
Q 984 4106 628 3988 
L 628 4550 
Q 988 4650 1302 4700 
Q 1616 4750 1894 4750 
Q 2613 4750 3031 4423 
Q 3450 4097 3450 3541 
Q 3450 3153 3228 2886 
Q 3006 2619 2597 2516 
z
" transform="scale(0.015625)"/>
      <path id="DejaVuSans-29" d="M 513 4856 
L 1013 4856 
Q 1481 4119 1714 3412 
Q 1947 2706 1947 2009 
Q 1947 1309 1714 600 
Q 1481 -109 1013 -844 
L 513 -844 
Q 928 -128 1133 580 
Q 1338 1288 1338 2009 
Q 1338 2731 1133 3434 
Q 928 4138 513 4856 
z
" transform="scale(0.015625)"/>
      <path id="DejaVuSans-54" d="M -19 4666 
L 3928 4666 
L 3928 4134 
L 2272 4134 
L 2272 0 
L 1638 0 
L 1638 4134 
L -19 4134 
L -19 4666 
z
" transform="scale(0.015625)"/>
      <path id="DejaVuSans-78" d="M 3513 3500 
L 2247 1797 
L 3578 0 
L 2900 0 
L 1881 1375 
L 863 0 
L 184 0 
L 1544 1831 
L 300 3500 
L 978 3500 
L 1906 2253 
L 2834 3500 
L 3513 3500 
z
" transform="scale(0.015625)"/>
      <path id="DejaVuSans-49" d="M 628 4666 
L 1259 4666 
L 1259 0 
L 628 0 
L 628 4666 
z
" transform="scale(0.015625)"/>
      <path id="DejaVuSans-66" d="M 2375 4863 
L 2375 4384 
L 1825 4384 
Q 1516 4384 1395 4259 
Q 1275 4134 1275 3809 
L 1275 3500 
L 2222 3500 
L 2222 3053 
L 1275 3053 
L 1275 0 
L 697 0 
L 697 3053 
L 147 3053 
L 147 3500 
L 697 3500 
L 697 3744 
Q 697 4328 969 4595 
Q 1241 4863 1831 4863 
L 2375 4863 
z
" transform="scale(0.015625)"/>
      <path id="DejaVuSans-e7" d="M 3122 3366 
L 3122 2828 
Q 2878 2963 2633 3030 
Q 2388 3097 2138 3097 
Q 1578 3097 1268 2742 
Q 959 2388 959 1747 
Q 959 1106 1268 751 
Q 1578 397 2138 397 
Q 2388 397 2633 464 
Q 2878 531 3122 666 
L 3122 134 
Q 2881 22 2623 -34 
Q 2366 -91 2075 -91 
Q 1284 -91 818 406 
Q 353 903 353 1747 
Q 353 2603 823 3093 
Q 1294 3584 2113 3584 
Q 2378 3584 2631 3529 
Q 2884 3475 3122 3366 
z
M 2311 0 
Q 2482 -194 2566 -358 
Q 2651 -522 2651 -672 
Q 2651 -950 2463 -1092 
Q 2276 -1234 1907 -1234 
Q 1764 -1234 1628 -1215 
Q 1492 -1197 1357 -1159 
L 1357 -750 
Q 1464 -803 1579 -826 
Q 1695 -850 1842 -850 
Q 2026 -850 2120 -775 
Q 2214 -700 2214 -556 
Q 2214 -463 2146 -327 
Q 2079 -191 1939 0 
L 2311 0 
z
" transform="scale(0.015625)"/>
      <path id="DejaVuSans-e3" d="M 2194 1759 
Q 1497 1759 1228 1600 
Q 959 1441 959 1056 
Q 959 750 1161 570 
Q 1363 391 1709 391 
Q 2188 391 2477 730 
Q 2766 1069 2766 1631 
L 2766 1759 
L 2194 1759 
z
M 3341 1997 
L 3341 0 
L 2766 0 
L 2766 531 
Q 2569 213 2275 61 
Q 1981 -91 1556 -91 
Q 1019 -91 701 211 
Q 384 513 384 1019 
Q 384 1609 779 1909 
Q 1175 2209 1959 2209 
L 2766 2209 
L 2766 2266 
Q 2766 2663 2505 2880 
Q 2244 3097 1772 3097 
Q 1472 3097 1187 3025 
Q 903 2953 641 2809 
L 641 3341 
Q 956 3463 1253 3523 
Q 1550 3584 1831 3584 
Q 2591 3584 2966 3190 
Q 3341 2797 3341 1997 
z
M 1844 4281 
L 1665 4453 
Q 1597 4516 1545 4545 
Q 1494 4575 1453 4575 
Q 1334 4575 1278 4461 
Q 1222 4347 1215 4091 
L 825 4091 
Q 831 4513 990 4742 
Q 1150 4972 1434 4972 
Q 1553 4972 1653 4928 
Q 1753 4884 1869 4781 
L 2047 4609 
Q 2115 4547 2167 4517 
Q 2219 4488 2259 4488 
Q 2378 4488 2434 4602 
Q 2490 4716 2497 4972 
L 2887 4972 
Q 2881 4550 2721 4320 
Q 2562 4091 2278 4091 
Q 2159 4091 2059 4134 
Q 1959 4178 1844 4281 
z
" transform="scale(0.015625)"/>
     </defs>
     <use xlink:href="#DejaVuSans-4d"/>
     <use xlink:href="#DejaVuSans-e9" x="86.279297"/>
     <use xlink:href="#DejaVuSans-64" x="147.802734"/>
     <use xlink:href="#DejaVuSans-69" x="211.279297"/>
     <use xlink:href="#DejaVuSans-61" x="239.0625"/>
     <use xlink:href="#DejaVuSans-20" x="300.341797"/>
     <use xlink:href="#DejaVuSans-4d" x="332.128906"/>
     <use xlink:href="#DejaVuSans-f3" x="418.408203"/>
     <use xlink:href="#DejaVuSans-76" x="479.589844"/>
     <use xlink:href="#DejaVuSans-65" x="538.769531"/>
     <use xlink:href="#DejaVuSans-6c" x="600.292969"/>
     <use xlink:href="#DejaVuSans-20" x="628.076172"/>
     <use xlink:href="#DejaVuSans-28" x="659.863281"/>
     <use xlink:href="#DejaVuSans-33" x="698.876953"/>
     <use xlink:href="#DejaVuSans-20" x="762.5"/>
     <use xlink:href="#DejaVuSans-61" x="794.287109"/>
     <use xlink:href="#DejaVuSans-6e" x="855.566406"/>
     <use xlink:href="#DejaVuSans-6f" x="918.945312"/>
     <use xlink:href="#DejaVuSans-73" x="980.126953"/>
     <use xlink:href="#DejaVuSans-29" x="1032.226562"/>
     <use xlink:href="#DejaVuSans-20" x="1071.240234"/>
     <use xlink:href="#DejaVuSans-64" x="1103.027344"/>
     <use xlink:href="#DejaVuSans-61" x="1166.503906"/>
     <use xlink:href="#DejaVuSans-20" x="1227.783203"/>
     <use xlink:href="#DejaVuSans-54" x="1259.570312"/>
     <use xlink:href="#DejaVuSans-61" x="1304.154297"/>
     <use xlink:href="#DejaVuSans-78" x="1365.433594"/>
     <use xlink:href="#DejaVuSans-61" x="1424.613281"/>
     <use xlink:href="#DejaVuSans-20" x="1485.892578"/>
     <use xlink:href="#DejaVuSans-64" x="1517.679688"/>
     <use xlink:href="#DejaVuSans-65" x="1581.15625"/>
     <use xlink:href="#DejaVuSans-20" x="1642.679688"/>
     <use xlink:href="#DejaVuSans-43" x="1674.466797"/>
     <use xlink:href="#DejaVuSans-72" x="1744.291016"/>
     <use xlink:href="#DejaVuSans-65" x="1783.154297"/>
     <use xlink:href="#DejaVuSans-73" x="1844.677734"/>
     <use xlink:href="#DejaVuSans-63" x="1896.777344"/>
     <use xlink:href="#DejaVuSans-69" x="1951.757812"/>
     <use xlink:href="#DejaVuSans-6d" x="1979.541016"/>
     <use xlink:href="#DejaVuSans-65" x="2076.953125"/>
     <use xlink:href="#DejaVuSans-6e" x="2138.476562"/>
     <use xlink:href="#DejaVuSans-74" x="2201.855469"/>
     <use xlink:href="#DejaVuSans-6f" x="2241.064453"/>
     <use xlink:href="#DejaVuSans-20" x="2302.246094"/>
     <use xlink:href="#DejaVuSans-64" x="2334.033203"/>
     <use xlink:href="#DejaVuSans-61" x="2397.509766"/>
     <use xlink:href="#DejaVuSans-20" x="2458.789062"/>
     <use xlink:href="#DejaVuSans-49" x="2490.576172"/>
     <use xlink:href="#DejaVuSans-6e" x="2520.068359"/>
     <use xlink:href="#DejaVuSans-64" x="2583.447266"/>
     <use xlink:href="#DejaVuSans-2e" x="2646.923828"/>
     <use xlink:href="#DejaVuSans-20" x="2678.710938"/>
     <use xlink:href="#DejaVuSans-64" x="2710.498047"/>
     <use xlink:href="#DejaVuSans-65" x="2773.974609"/>
     <use xlink:href="#DejaVuSans-20" x="2835.498047"/>
     <use xlink:href="#DejaVuSans-54" x="2867.285156"/>
     <use xlink:href="#DejaVuSans-72" x="2913.619141"/>
     <use xlink:href="#DejaVuSans-61" x="2954.732422"/>
     <use xlink:href="#DejaVuSans-6e" x="3016.011719"/>
     <use xlink:href="#DejaVuSans-73" x="3079.390625"/>
     <use xlink:href="#DejaVuSans-66" x="3131.490234"/>
     <use xlink:href="#DejaVuSans-6f" x="3166.695312"/>
     <use xlink:href="#DejaVuSans-72" x="3227.876953"/>
     <use xlink:href="#DejaVuSans-6d" x="3267.240234"/>
     <use xlink:href="#DejaVuSans-61" x="3364.652344"/>
     <use xlink:href="#DejaVuSans-e7" x="3425.931641"/>
     <use xlink:href="#DejaVuSans-e3" x="3480.912109"/>
     <use xlink:href="#DejaVuSans-6f" x="3542.191406"/>
    </g>
   </g>
   <g id="legend_1">
    <g id="patch_7">
     <path d="M 314.084063 93.506375 
L 407.72 93.506375 
Q 409.72 93.506375 409.72 91.506375 
L 409.72 48.472 
Q 409.72 46.472 407.72 46.472 
L 314.084063 46.472 
Q 312.084063 46.472 312.084063 48.472 
L 312.084063 91.506375 
Q 312.084063 93.506375 314.084063 93.506375 
z
" style="fill: #ffffff; opacity: 0.8; stroke: #cccccc; stroke-linejoin: miter"/>
    </g>
    <g id="line2d_49">
     <path d="M 316.084063 54.570438 
L 326.084063 54.570438 
L 336.084063 54.570438 
" style="fill: none; stroke: #008080; stroke-width: 1.5; stroke-linecap: square"/>
    </g>
    <g id="text_21">
     <!-- RJ -->
     <g transform="translate(344.084063 58.070438) scale(0.1 -0.1)">
      <defs>
       <path id="DejaVuSans-52" d="M 2841 2188 
Q 3044 2119 3236 1894 
Q 3428 1669 3622 1275 
L 4263 0 
L 3584 0 
L 2988 1197 
Q 2756 1666 2539 1819 
Q 2322 1972 1947 1972 
L 1259 1972 
L 1259 0 
L 628 0 
L 628 4666 
L 2053 4666 
Q 2853 4666 3247 4331 
Q 3641 3997 3641 3322 
Q 3641 2881 3436 2590 
Q 3231 2300 2841 2188 
z
M 1259 4147 
L 1259 2491 
L 2053 2491 
Q 2509 2491 2742 2702 
Q 2975 2913 2975 3322 
Q 2975 3731 2742 3939 
Q 2509 4147 2053 4147 
L 1259 4147 
z
" transform="scale(0.015625)"/>
       <path id="DejaVuSans-4a" d="M 628 4666 
L 1259 4666 
L 1259 325 
Q 1259 -519 939 -900 
Q 619 -1281 -91 -1281 
L -331 -1281 
L -331 -750 
L -134 -750 
Q 284 -750 456 -515 
Q 628 -281 628 325 
L 628 4666 
z
" transform="scale(0.015625)"/>
      </defs>
      <use xlink:href="#DejaVuSans-52"/>
      <use xlink:href="#DejaVuSans-4a" x="69.482422"/>
     </g>
    </g>
    <g id="line2d_50">
     <path d="M 316.084063 69.248563 
L 326.084063 69.248563 
L 336.084063 69.248563 
" style="fill: none; stroke: #ffd700; stroke-width: 1.5; stroke-linecap: square"/>
    </g>
    <g id="text_22">
     <!-- BR -->
     <g transform="translate(344.084063 72.748563) scale(0.1 -0.1)">
      <defs>
       <path id="DejaVuSans-42" d="M 1259 2228 
L 1259 519 
L 2272 519 
Q 2781 519 3026 730 
Q 3272 941 3272 1375 
Q 3272 1813 3026 2020 
Q 2781 2228 2272 2228 
L 1259 2228 
z
M 1259 4147 
L 1259 2741 
L 2194 2741 
Q 2656 2741 2882 2914 
Q 3109 3088 3109 3444 
Q 3109 3797 2882 3972 
Q 2656 4147 2194 4147 
L 1259 4147 
z
M 628 4666 
L 2241 4666 
Q 2963 4666 3353 4366 
Q 3744 4066 3744 3513 
Q 3744 3084 3544 2831 
Q 3344 2578 2956 2516 
Q 3422 2416 3680 2098 
Q 3938 1781 3938 1306 
Q 3938 681 3513 340 
Q 3088 0 2303 0 
L 628 0 
L 628 4666 
z
" transform="scale(0.015625)"/>
      </defs>
      <use xlink:href="#DejaVuSans-42"/>
      <use xlink:href="#DejaVuSans-52" x="68.603516"/>
     </g>
    </g>
    <g id="line2d_51">
     <path d="M 316.084063 83.926688 
L 326.084063 83.926688 
L 336.084063 83.926688 
" style="fill: none; stroke-dasharray: 5.55,2.4; stroke-dashoffset: 0; stroke: #dc143c; stroke-width: 1.5"/>
    </g>
    <g id="text_23">
     <!-- Média Anual -->
     <g transform="translate(344.084063 87.426688) scale(0.1 -0.1)">
      <defs>
       <path id="DejaVuSans-75" d="M 544 1381 
L 544 3500 
L 1119 3500 
L 1119 1403 
Q 1119 906 1312 657 
Q 1506 409 1894 409 
Q 2359 409 2629 706 
Q 2900 1003 2900 1516 
L 2900 3500 
L 3475 3500 
L 3475 0 
L 2900 0 
L 2900 538 
Q 2691 219 2414 64 
Q 2138 -91 1772 -91 
Q 1169 -91 856 284 
Q 544 659 544 1381 
z
M 1991 3584 
L 1991 3584 
z
" transform="scale(0.015625)"/>
      </defs>
      <use xlink:href="#DejaVuSans-4d"/>
      <use xlink:href="#DejaVuSans-e9" x="86.279297"/>
      <use xlink:href="#DejaVuSans-64" x="147.802734"/>
      <use xlink:href="#DejaVuSans-69" x="211.279297"/>
      <use xlink:href="#DejaVuSans-61" x="239.0625"/>
      <use xlink:href="#DejaVuSans-20" x="300.341797"/>
      <use xlink:href="#DejaVuSans-41" x="332.128906"/>
      <use xlink:href="#DejaVuSans-6e" x="400.537109"/>
      <use xlink:href="#DejaVuSans-75" x="463.916016"/>
      <use xlink:href="#DejaVuSans-61" x="527.294922"/>
      <use xlink:href="#DejaVuSans-6c" x="588.574219"/>
     </g>
    </g>
   </g>
  </g>
 </g>
 <defs>
  <clipPath id="p4db2f790df">
   <rect x="57.6" y="41.472" width="357.12" height="266.112"/>
  </clipPath>
 </defs>
</svg>
