<?xml version="1.0" encoding="utf-8" standalone="no"?>
<!DOCTYPE svg PUBLIC "-//W3C//DTD SVG 1.1//EN"
  "http://www.w3.org/Graphics/SVG/1.1/DTD/svg11.dtd">
<svg xmlns:xlink="http://www.w3.org/1999/xlink" width="460.8pt" height="345.6pt" viewBox="0 0 460.8 345.6" xmlns="http://www.w3.org/2000/svg" version="1.1">
 <metadata>
  <rdf:RDF xmlns:dc="http://purl.org/dc/elements/1.1/" xmlns:cc="http://creativecommons.org/ns#" xmlns:rdf="http://www.w3.org/1999/02/22-rdf-syntax-ns#">
   <cc:Work>
    <dc:type rdf:resource="http://purl.org/dc/dcmitype/StillImage"/>
    <dc:date>2024-09-06T14:21:39.509578</dc:date>
    <dc:format>image/svg+xml</dc:format>
    <dc:creator>
     <cc:Agent>
      <dc:title>Matplotlib v3.9.2, https://matplotlib.org/</dc:title>
     </cc:Agent>
    </dc:creator>
   </cc:Work>
  </rdf:RDF>
 </metadata>
 <defs>
  <style type="text/css">*{stroke-linejoin: round; stroke-linecap: butt}</style>
 </defs>
 <g id="figure_1">
  <g id="patch_1">
   <path d="M 0 345.6 
L 460.8 345.6 
L 460.8 0 
L 0 0 
z
" style="fill: #ffffff"/>
  </g>
  <g id="axes_1">
   <g id="patch_2">
    <path d="M 57.6 307.584 
L 414.72 307.584 
L 414.72 41.472 
L 57.6 41.472 
z
" style="fill: #ffffff"/>
   </g>
   <g id="matplotlib.axis_1">
    <g id="xtick_1">
     <g id="line2d_1">
      <defs>
       <path id="m955a4580ec" d="M 0 0 
L 0 3.5 
" style="stroke: #000000; stroke-width: 0.8"/>
      </defs>
      <g>
       <use xlink:href="#m955a4580ec" x="91.855375" y="307.584" style="stroke: #000000; stroke-width: 0.8"/>
      </g>
     </g>
     <g id="text_1">
      <!-- 2004 -->
      <g transform="translate(79.130375 322.182437) scale(0.1 -0.1)">
       <defs>
        <path id="DejaVuSans-32" d="M 1228 531 
L 3431 531 
L 3431 0 
L 469 0 
L 469 531 
Q 828 903 1448 1529 
Q 2069 2156 2228 2338 
Q 2531 2678 2651 2914 
Q 2772 3150 2772 3378 
Q 2772 3750 2511 3984 
Q 2250 4219 1831 4219 
Q 1534 4219 1204 4116 
Q 875 4013 500 3803 
L 500 4441 
Q 881 4594 1212 4672 
Q 1544 4750 1819 4750 
Q 2544 4750 2975 4387 
Q 3406 4025 3406 3419 
Q 3406 3131 3298 2873 
Q 3191 2616 2906 2266 
Q 2828 2175 2409 1742 
Q 1991 1309 1228 531 
z
" transform="scale(0.015625)"/>
        <path id="DejaVuSans-30" d="M 2034 4250 
Q 1547 4250 1301 3770 
Q 1056 3291 1056 2328 
Q 1056 1369 1301 889 
Q 1547 409 2034 409 
Q 2525 409 2770 889 
Q 3016 1369 3016 2328 
Q 3016 3291 2770 3770 
Q 2525 4250 2034 4250 
z
M 2034 4750 
Q 2819 4750 3233 4129 
Q 3647 3509 3647 2328 
Q 3647 1150 3233 529 
Q 2819 -91 2034 -91 
Q 1250 -91 836 529 
Q 422 1150 422 2328 
Q 422 3509 836 4129 
Q 1250 4750 2034 4750 
z
" transform="scale(0.015625)"/>
        <path id="DejaVuSans-34" d="M 2419 4116 
L 825 1625 
L 2419 1625 
L 2419 4116 
z
M 2253 4666 
L 3047 4666 
L 3047 1625 
L 3713 1625 
L 3713 1100 
L 3047 1100 
L 3047 0 
L 2419 0 
L 2419 1100 
L 313 1100 
L 313 1709 
L 2253 4666 
z
" transform="scale(0.015625)"/>
       </defs>
       <use xlink:href="#DejaVuSans-32"/>
       <use xlink:href="#DejaVuSans-30" x="63.623047"/>
       <use xlink:href="#DejaVuSans-30" x="127.246094"/>
       <use xlink:href="#DejaVuSans-34" x="190.869141"/>
      </g>
     </g>
    </g>
    <g id="xtick_2">
     <g id="line2d_2">
      <g>
       <use xlink:href="#m955a4580ec" x="127.950048" y="307.584" style="stroke: #000000; stroke-width: 0.8"/>
      </g>
     </g>
     <g id="text_2">
      <!-- 2006 -->
      <g transform="translate(115.225048 322.182437) scale(0.1 -0.1)">
       <defs>
        <path id="DejaVuSans-36" d="M 2113 2584 
Q 1688 2584 1439 2293 
Q 1191 2003 1191 1497 
Q 1191 994 1439 701 
Q 1688 409 2113 409 
Q 2538 409 2786 701 
Q 3034 994 3034 1497 
Q 3034 2003 2786 2293 
Q 2538 2584 2113 2584 
z
M 3366 4563 
L 3366 3988 
Q 3128 4100 2886 4159 
Q 2644 4219 2406 4219 
Q 1781 4219 1451 3797 
Q 1122 3375 1075 2522 
Q 1259 2794 1537 2939 
Q 1816 3084 2150 3084 
Q 2853 3084 3261 2657 
Q 3669 2231 3669 1497 
Q 3669 778 3244 343 
Q 2819 -91 2113 -91 
Q 1303 -91 875 529 
Q 447 1150 447 2328 
Q 447 3434 972 4092 
Q 1497 4750 2381 4750 
Q 2619 4750 2861 4703 
Q 3103 4656 3366 4563 
z
" transform="scale(0.015625)"/>
       </defs>
       <use xlink:href="#DejaVuSans-32"/>
       <use xlink:href="#DejaVuSans-30" x="63.623047"/>
       <use xlink:href="#DejaVuSans-30" x="127.246094"/>
       <use xlink:href="#DejaVuSans-36" x="190.869141"/>
      </g>
     </g>
    </g>
    <g id="xtick_3">
     <g id="line2d_3">
      <g>
       <use xlink:href="#m955a4580ec" x="163.995343" y="307.584" style="stroke: #000000; stroke-width: 0.8"/>
      </g>
     </g>
     <g id="text_3">
      <!-- 2008 -->
      <g transform="translate(151.270343 322.182437) scale(0.1 -0.1)">
       <defs>
        <path id="DejaVuSans-38" d="M 2034 2216 
Q 1584 2216 1326 1975 
Q 1069 1734 1069 1313 
Q 1069 891 1326 650 
Q 1584 409 2034 409 
Q 2484 409 2743 651 
Q 3003 894 3003 1313 
Q 3003 1734 2745 1975 
Q 2488 2216 2034 2216 
z
M 1403 2484 
Q 997 2584 770 2862 
Q 544 3141 544 3541 
Q 544 4100 942 4425 
Q 1341 4750 2034 4750 
Q 2731 4750 3128 4425 
Q 3525 4100 3525 3541 
Q 3525 3141 3298 2862 
Q 3072 2584 2669 2484 
Q 3125 2378 3379 2068 
Q 3634 1759 3634 1313 
Q 3634 634 3220 271 
Q 2806 -91 2034 -91 
Q 1263 -91 848 271 
Q 434 634 434 1313 
Q 434 1759 690 2068 
Q 947 2378 1403 2484 
z
M 1172 3481 
Q 1172 3119 1398 2916 
Q 1625 2713 2034 2713 
Q 2441 2713 2670 2916 
Q 2900 3119 2900 3481 
Q 2900 3844 2670 4047 
Q 2441 4250 2034 4250 
Q 1625 4250 1398 4047 
Q 1172 3844 1172 3481 
z
" transform="scale(0.015625)"/>
       </defs>
       <use xlink:href="#DejaVuSans-32"/>
       <use xlink:href="#DejaVuSans-30" x="63.623047"/>
       <use xlink:href="#DejaVuSans-30" x="127.246094"/>
       <use xlink:href="#DejaVuSans-38" x="190.869141"/>
      </g>
     </g>
    </g>
    <g id="xtick_4">
     <g id="line2d_4">
      <g>
       <use xlink:href="#m955a4580ec" x="200.090016" y="307.584" style="stroke: #000000; stroke-width: 0.8"/>
      </g>
     </g>
     <g id="text_4">
      <!-- 2010 -->
      <g transform="translate(187.365016 322.182437) scale(0.1 -0.1)">
       <defs>
        <path id="DejaVuSans-31" d="M 794 531 
L 1825 531 
L 1825 4091 
L 703 3866 
L 703 4441 
L 1819 4666 
L 2450 4666 
L 2450 531 
L 3481 531 
L 3481 0 
L 794 0 
L 794 531 
z
" transform="scale(0.015625)"/>
       </defs>
       <use xlink:href="#DejaVuSans-32"/>
       <use xlink:href="#DejaVuSans-30" x="63.623047"/>
       <use xlink:href="#DejaVuSans-31" x="127.246094"/>
       <use xlink:href="#DejaVuSans-30" x="190.869141"/>
      </g>
     </g>
    </g>
    <g id="xtick_5">
     <g id="line2d_5">
      <g>
       <use xlink:href="#m955a4580ec" x="236.135311" y="307.584" style="stroke: #000000; stroke-width: 0.8"/>
      </g>
     </g>
     <g id="text_5">
      <!-- 2012 -->
      <g transform="translate(223.410311 322.182437) scale(0.1 -0.1)">
       <use xlink:href="#DejaVuSans-32"/>
       <use xlink:href="#DejaVuSans-30" x="63.623047"/>
       <use xlink:href="#DejaVuSans-31" x="127.246094"/>
       <use xlink:href="#DejaVuSans-32" x="190.869141"/>
      </g>
     </g>
    </g>
    <g id="xtick_6">
     <g id="line2d_6">
      <g>
       <use xlink:href="#m955a4580ec" x="272.229984" y="307.584" style="stroke: #000000; stroke-width: 0.8"/>
      </g>
     </g>
     <g id="text_6">
      <!-- 2014 -->
      <g transform="translate(259.504984 322.182437) scale(0.1 -0.1)">
       <use xlink:href="#DejaVuSans-32"/>
       <use xlink:href="#DejaVuSans-30" x="63.623047"/>
       <use xlink:href="#DejaVuSans-31" x="127.246094"/>
       <use xlink:href="#DejaVuSans-34" x="190.869141"/>
      </g>
     </g>
    </g>
    <g id="xtick_7">
     <g id="line2d_7">
      <g>
       <use xlink:href="#m955a4580ec" x="308.27528" y="307.584" style="stroke: #000000; stroke-width: 0.8"/>
      </g>
     </g>
     <g id="text_7">
      <!-- 2016 -->
      <g transform="translate(295.55028 322.182437) scale(0.1 -0.1)">
       <use xlink:href="#DejaVuSans-32"/>
       <use xlink:href="#DejaVuSans-30" x="63.623047"/>
       <use xlink:href="#DejaVuSans-31" x="127.246094"/>
       <use xlink:href="#DejaVuSans-36" x="190.869141"/>
      </g>
     </g>
    </g>
    <g id="xtick_8">
     <g id="line2d_8">
      <g>
       <use xlink:href="#m955a4580ec" x="344.369952" y="307.584" style="stroke: #000000; stroke-width: 0.8"/>
      </g>
     </g>
     <g id="text_8">
      <!-- 2018 -->
      <g transform="translate(331.644952 322.182437) scale(0.1 -0.1)">
       <use xlink:href="#DejaVuSans-32"/>
       <use xlink:href="#DejaVuSans-30" x="63.623047"/>
       <use xlink:href="#DejaVuSans-31" x="127.246094"/>
       <use xlink:href="#DejaVuSans-38" x="190.869141"/>
      </g>
     </g>
    </g>
    <g id="xtick_9">
     <g id="line2d_9">
      <g>
       <use xlink:href="#m955a4580ec" x="380.415248" y="307.584" style="stroke: #000000; stroke-width: 0.8"/>
      </g>
     </g>
     <g id="text_9">
      <!-- 2020 -->
      <g transform="translate(367.690248 322.182437) scale(0.1 -0.1)">
       <use xlink:href="#DejaVuSans-32"/>
       <use xlink:href="#DejaVuSans-30" x="63.623047"/>
       <use xlink:href="#DejaVuSans-32" x="127.246094"/>
       <use xlink:href="#DejaVuSans-30" x="190.869141"/>
      </g>
     </g>
    </g>
    <g id="text_10">
     <!-- Ano -->
     <g transform="translate(226.511562 335.860562) scale(0.1 -0.1)">
      <defs>
       <path id="DejaVuSans-41" d="M 2188 4044 
L 1331 1722 
L 3047 1722 
L 2188 4044 
z
M 1831 4666 
L 2547 4666 
L 4325 0 
L 3669 0 
L 3244 1197 
L 1141 1197 
L 716 0 
L 50 0 
L 1831 4666 
z
" transform="scale(0.015625)"/>
       <path id="DejaVuSans-6e" d="M 3513 2113 
L 3513 0 
L 2938 0 
L 2938 2094 
Q 2938 2591 2744 2837 
Q 2550 3084 2163 3084 
Q 1697 3084 1428 2787 
Q 1159 2491 1159 1978 
L 1159 0 
L 581 0 
L 581 3500 
L 1159 3500 
L 1159 2956 
Q 1366 3272 1645 3428 
Q 1925 3584 2291 3584 
Q 2894 3584 3203 3211 
Q 3513 2838 3513 2113 
z
" transform="scale(0.015625)"/>
       <path id="DejaVuSans-6f" d="M 1959 3097 
Q 1497 3097 1228 2736 
Q 959 2375 959 1747 
Q 959 1119 1226 758 
Q 1494 397 1959 397 
Q 2419 397 2687 759 
Q 2956 1122 2956 1747 
Q 2956 2369 2687 2733 
Q 2419 3097 1959 3097 
z
M 1959 3584 
Q 2709 3584 3137 3096 
Q 3566 2609 3566 1747 
Q 3566 888 3137 398 
Q 2709 -91 1959 -91 
Q 1206 -91 779 398 
Q 353 888 353 1747 
Q 353 2609 779 3096 
Q 1206 3584 1959 3584 
z
" transform="scale(0.015625)"/>
      </defs>
      <use xlink:href="#DejaVuSans-41"/>
      <use xlink:href="#DejaVuSans-6e" x="68.408203"/>
      <use xlink:href="#DejaVuSans-6f" x="131.787109"/>
     </g>
    </g>
   </g>
   <g id="matplotlib.axis_2">
    <g id="ytick_1">
     <g id="line2d_10">
      <defs>
       <path id="mfacf1ee69c" d="M 0 0 
L -3.5 0 
" style="stroke: #000000; stroke-width: 0.8"/>
      </defs>
      <g>
       <use xlink:href="#mfacf1ee69c" x="57.6" y="287.945436" style="stroke: #000000; stroke-width: 0.8"/>
      </g>
     </g>
     <g id="text_11">
      <!-- −0.2 -->
      <g transform="translate(26.317187 291.744655) scale(0.1 -0.1)">
       <defs>
        <path id="DejaVuSans-2212" d="M 678 2272 
L 4684 2272 
L 4684 1741 
L 678 1741 
L 678 2272 
z
" transform="scale(0.015625)"/>
        <path id="DejaVuSans-2e" d="M 684 794 
L 1344 794 
L 1344 0 
L 684 0 
L 684 794 
z
" transform="scale(0.015625)"/>
       </defs>
       <use xlink:href="#DejaVuSans-2212"/>
       <use xlink:href="#DejaVuSans-30" x="83.789062"/>
       <use xlink:href="#DejaVuSans-2e" x="147.412109"/>
       <use xlink:href="#DejaVuSans-32" x="179.199219"/>
      </g>
     </g>
    </g>
    <g id="ytick_2">
     <g id="line2d_11">
      <g>
       <use xlink:href="#mfacf1ee69c" x="57.6" y="249.715158" style="stroke: #000000; stroke-width: 0.8"/>
      </g>
     </g>
     <g id="text_12">
      <!-- −0.1 -->
      <g transform="translate(26.317187 253.514377) scale(0.1 -0.1)">
       <use xlink:href="#DejaVuSans-2212"/>
       <use xlink:href="#DejaVuSans-30" x="83.789062"/>
       <use xlink:href="#DejaVuSans-2e" x="147.412109"/>
       <use xlink:href="#DejaVuSans-31" x="179.199219"/>
      </g>
     </g>
    </g>
    <g id="ytick_3">
     <g id="line2d_12">
      <g>
       <use xlink:href="#mfacf1ee69c" x="57.6" y="211.484881" style="stroke: #000000; stroke-width: 0.8"/>
      </g>
     </g>
     <g id="text_13">
      <!-- 0.0 -->
      <g transform="translate(34.696875 215.284099) scale(0.1 -0.1)">
       <use xlink:href="#DejaVuSans-30"/>
       <use xlink:href="#DejaVuSans-2e" x="63.623047"/>
       <use xlink:href="#DejaVuSans-30" x="95.410156"/>
      </g>
     </g>
    </g>
    <g id="ytick_4">
     <g id="line2d_13">
      <g>
       <use xlink:href="#mfacf1ee69c" x="57.6" y="173.254603" style="stroke: #000000; stroke-width: 0.8"/>
      </g>
     </g>
     <g id="text_14">
      <!-- 0.1 -->
      <g transform="translate(34.696875 177.053822) scale(0.1 -0.1)">
       <use xlink:href="#DejaVuSans-30"/>
       <use xlink:href="#DejaVuSans-2e" x="63.623047"/>
       <use xlink:href="#DejaVuSans-31" x="95.410156"/>
      </g>
     </g>
    </g>
    <g id="ytick_5">
     <g id="line2d_14">
      <g>
       <use xlink:href="#mfacf1ee69c" x="57.6" y="135.024326" style="stroke: #000000; stroke-width: 0.8"/>
      </g>
     </g>
     <g id="text_15">
      <!-- 0.2 -->
      <g transform="translate(34.696875 138.823544) scale(0.1 -0.1)">
       <use xlink:href="#DejaVuSans-30"/>
       <use xlink:href="#DejaVuSans-2e" x="63.623047"/>
       <use xlink:href="#DejaVuSans-32" x="95.410156"/>
      </g>
     </g>
    </g>
    <g id="ytick_6">
     <g id="line2d_15">
      <g>
       <use xlink:href="#mfacf1ee69c" x="57.6" y="96.794048" style="stroke: #000000; stroke-width: 0.8"/>
      </g>
     </g>
     <g id="text_16">
      <!-- 0.3 -->
      <g transform="translate(34.696875 100.593267) scale(0.1 -0.1)">
       <defs>
        <path id="DejaVuSans-33" d="M 2597 2516 
Q 3050 2419 3304 2112 
Q 3559 1806 3559 1356 
Q 3559 666 3084 287 
Q 2609 -91 1734 -91 
Q 1441 -91 1130 -33 
Q 819 25 488 141 
L 488 750 
Q 750 597 1062 519 
Q 1375 441 1716 441 
Q 2309 441 2620 675 
Q 2931 909 2931 1356 
Q 2931 1769 2642 2001 
Q 2353 2234 1838 2234 
L 1294 2234 
L 1294 2753 
L 1863 2753 
Q 2328 2753 2575 2939 
Q 2822 3125 2822 3475 
Q 2822 3834 2567 4026 
Q 2313 4219 1838 4219 
Q 1578 4219 1281 4162 
Q 984 4106 628 3988 
L 628 4550 
Q 988 4650 1302 4700 
Q 1616 4750 1894 4750 
Q 2613 4750 3031 4423 
Q 3450 4097 3450 3541 
Q 3450 3153 3228 2886 
Q 3006 2619 2597 2516 
z
" transform="scale(0.015625)"/>
       </defs>
       <use xlink:href="#DejaVuSans-30"/>
       <use xlink:href="#DejaVuSans-2e" x="63.623047"/>
       <use xlink:href="#DejaVuSans-33" x="95.410156"/>
      </g>
     </g>
    </g>
    <g id="ytick_7">
     <g id="line2d_16">
      <g>
       <use xlink:href="#mfacf1ee69c" x="57.6" y="58.563771" style="stroke: #000000; stroke-width: 0.8"/>
      </g>
     </g>
     <g id="text_17">
      <!-- 0.4 -->
      <g transform="translate(34.696875 62.362989) scale(0.1 -0.1)">
       <use xlink:href="#DejaVuSans-30"/>
       <use xlink:href="#DejaVuSans-2e" x="63.623047"/>
       <use xlink:href="#DejaVuSans-34" x="95.410156"/>
      </g>
     </g>
    </g>
    <g id="text_18">
     <!-- Crescimento real -->
     <g transform="translate(20.2375 216.978781) rotate(-90) scale(0.1 -0.1)">
      <defs>
       <path id="DejaVuSans-43" d="M 4122 4306 
L 4122 3641 
Q 3803 3938 3442 4084 
Q 3081 4231 2675 4231 
Q 1875 4231 1450 3742 
Q 1025 3253 1025 2328 
Q 1025 1406 1450 917 
Q 1875 428 2675 428 
Q 3081 428 3442 575 
Q 3803 722 4122 1019 
L 4122 359 
Q 3791 134 3420 21 
Q 3050 -91 2638 -91 
Q 1578 -91 968 557 
Q 359 1206 359 2328 
Q 359 3453 968 4101 
Q 1578 4750 2638 4750 
Q 3056 4750 3426 4639 
Q 3797 4528 4122 4306 
z
" transform="scale(0.015625)"/>
       <path id="DejaVuSans-72" d="M 2631 2963 
Q 2534 3019 2420 3045 
Q 2306 3072 2169 3072 
Q 1681 3072 1420 2755 
Q 1159 2438 1159 1844 
L 1159 0 
L 581 0 
L 581 3500 
L 1159 3500 
L 1159 2956 
Q 1341 3275 1631 3429 
Q 1922 3584 2338 3584 
Q 2397 3584 2469 3576 
Q 2541 3569 2628 3553 
L 2631 2963 
z
" transform="scale(0.015625)"/>
       <path id="DejaVuSans-65" d="M 3597 1894 
L 3597 1613 
L 953 1613 
Q 991 1019 1311 708 
Q 1631 397 2203 397 
Q 2534 397 2845 478 
Q 3156 559 3463 722 
L 3463 178 
Q 3153 47 2828 -22 
Q 2503 -91 2169 -91 
Q 1331 -91 842 396 
Q 353 884 353 1716 
Q 353 2575 817 3079 
Q 1281 3584 2069 3584 
Q 2775 3584 3186 3129 
Q 3597 2675 3597 1894 
z
M 3022 2063 
Q 3016 2534 2758 2815 
Q 2500 3097 2075 3097 
Q 1594 3097 1305 2825 
Q 1016 2553 972 2059 
L 3022 2063 
z
" transform="scale(0.015625)"/>
       <path id="DejaVuSans-73" d="M 2834 3397 
L 2834 2853 
Q 2591 2978 2328 3040 
Q 2066 3103 1784 3103 
Q 1356 3103 1142 2972 
Q 928 2841 928 2578 
Q 928 2378 1081 2264 
Q 1234 2150 1697 2047 
L 1894 2003 
Q 2506 1872 2764 1633 
Q 3022 1394 3022 966 
Q 3022 478 2636 193 
Q 2250 -91 1575 -91 
Q 1294 -91 989 -36 
Q 684 19 347 128 
L 347 722 
Q 666 556 975 473 
Q 1284 391 1588 391 
Q 1994 391 2212 530 
Q 2431 669 2431 922 
Q 2431 1156 2273 1281 
Q 2116 1406 1581 1522 
L 1381 1569 
Q 847 1681 609 1914 
Q 372 2147 372 2553 
Q 372 3047 722 3315 
Q 1072 3584 1716 3584 
Q 2034 3584 2315 3537 
Q 2597 3491 2834 3397 
z
" transform="scale(0.015625)"/>
       <path id="DejaVuSans-63" d="M 3122 3366 
L 3122 2828 
Q 2878 2963 2633 3030 
Q 2388 3097 2138 3097 
Q 1578 3097 1268 2742 
Q 959 2388 959 1747 
Q 959 1106 1268 751 
Q 1578 397 2138 397 
Q 2388 397 2633 464 
Q 2878 531 3122 666 
L 3122 134 
Q 2881 22 2623 -34 
Q 2366 -91 2075 -91 
Q 1284 -91 818 406 
Q 353 903 353 1747 
Q 353 2603 823 3093 
Q 1294 3584 2113 3584 
Q 2378 3584 2631 3529 
Q 2884 3475 3122 3366 
z
" transform="scale(0.015625)"/>
       <path id="DejaVuSans-69" d="M 603 3500 
L 1178 3500 
L 1178 0 
L 603 0 
L 603 3500 
z
M 603 4863 
L 1178 4863 
L 1178 4134 
L 603 4134 
L 603 4863 
z
" transform="scale(0.015625)"/>
       <path id="DejaVuSans-6d" d="M 3328 2828 
Q 3544 3216 3844 3400 
Q 4144 3584 4550 3584 
Q 5097 3584 5394 3201 
Q 5691 2819 5691 2113 
L 5691 0 
L 5113 0 
L 5113 2094 
Q 5113 2597 4934 2840 
Q 4756 3084 4391 3084 
Q 3944 3084 3684 2787 
Q 3425 2491 3425 1978 
L 3425 0 
L 2847 0 
L 2847 2094 
Q 2847 2600 2669 2842 
Q 2491 3084 2119 3084 
Q 1678 3084 1418 2786 
Q 1159 2488 1159 1978 
L 1159 0 
L 581 0 
L 581 3500 
L 1159 3500 
L 1159 2956 
Q 1356 3278 1631 3431 
Q 1906 3584 2284 3584 
Q 2666 3584 2933 3390 
Q 3200 3197 3328 2828 
z
" transform="scale(0.015625)"/>
       <path id="DejaVuSans-74" d="M 1172 4494 
L 1172 3500 
L 2356 3500 
L 2356 3053 
L 1172 3053 
L 1172 1153 
Q 1172 725 1289 603 
Q 1406 481 1766 481 
L 2356 481 
L 2356 0 
L 1766 0 
Q 1100 0 847 248 
Q 594 497 594 1153 
L 594 3053 
L 172 3053 
L 172 3500 
L 594 3500 
L 594 4494 
L 1172 4494 
z
" transform="scale(0.015625)"/>
       <path id="DejaVuSans-20" transform="scale(0.015625)"/>
       <path id="DejaVuSans-61" d="M 2194 1759 
Q 1497 1759 1228 1600 
Q 959 1441 959 1056 
Q 959 750 1161 570 
Q 1363 391 1709 391 
Q 2188 391 2477 730 
Q 2766 1069 2766 1631 
L 2766 1759 
L 2194 1759 
z
M 3341 1997 
L 3341 0 
L 2766 0 
L 2766 531 
Q 2569 213 2275 61 
Q 1981 -91 1556 -91 
Q 1019 -91 701 211 
Q 384 513 384 1019 
Q 384 1609 779 1909 
Q 1175 2209 1959 2209 
L 2766 2209 
L 2766 2266 
Q 2766 2663 2505 2880 
Q 2244 3097 1772 3097 
Q 1472 3097 1187 3025 
Q 903 2953 641 2809 
L 641 3341 
Q 956 3463 1253 3523 
Q 1550 3584 1831 3584 
Q 2591 3584 2966 3190 
Q 3341 2797 3341 1997 
z
" transform="scale(0.015625)"/>
       <path id="DejaVuSans-6c" d="M 603 4863 
L 1178 4863 
L 1178 0 
L 603 0 
L 603 4863 
z
" transform="scale(0.015625)"/>
      </defs>
      <use xlink:href="#DejaVuSans-43"/>
      <use xlink:href="#DejaVuSans-72" x="69.824219"/>
      <use xlink:href="#DejaVuSans-65" x="108.6875"/>
      <use xlink:href="#DejaVuSans-73" x="170.210938"/>
      <use xlink:href="#DejaVuSans-63" x="222.310547"/>
      <use xlink:href="#DejaVuSans-69" x="277.291016"/>
      <use xlink:href="#DejaVuSans-6d" x="305.074219"/>
      <use xlink:href="#DejaVuSans-65" x="402.486328"/>
      <use xlink:href="#DejaVuSans-6e" x="464.009766"/>
      <use xlink:href="#DejaVuSans-74" x="527.388672"/>
      <use xlink:href="#DejaVuSans-6f" x="566.597656"/>
      <use xlink:href="#DejaVuSans-20" x="627.779297"/>
      <use xlink:href="#DejaVuSans-72" x="659.566406"/>
      <use xlink:href="#DejaVuSans-65" x="698.429688"/>
      <use xlink:href="#DejaVuSans-61" x="759.953125"/>
      <use xlink:href="#DejaVuSans-6c" x="821.232422"/>
     </g>
    </g>
   </g>
   <g id="line2d_17">
    <path d="M 73.832727 139.341676 
L 91.855375 177.71507 
L 109.9274 200.233785 
L 127.950048 204.797867 
L 145.972695 191.590521 
L 163.995343 207.011809 
L 182.067368 221.711594 
L 200.090016 208.123209 
L 218.112664 90.331221 
L 236.135311 193.184101 
L 254.207336 189.036405 
L 272.229984 180.579653 
L 290.252632 224.376643 
L 308.27528 239.739578 
L 326.347305 200.818027 
L 344.369952 176.332101 
L 362.3926 244.482998 
L 380.415248 223.694293 
L 398.487273 193.430624 
" clip-path="url(#p0b8d0453a9)" style="fill: none; stroke: #dcdcdc; stroke-width: 1.5; stroke-linecap: square"/>
   </g>
   <g id="line2d_18">
    <path d="M 73.832727 146.001197 
L 91.855375 156.358756 
L 109.9274 186.447816 
L 127.950048 200.289719 
L 145.972695 186.014459 
L 163.995343 190.883341 
L 182.067368 134.040461 
L 200.090016 188.012767 
L 218.112664 191.970725 
L 236.135311 97.532169 
L 254.207336 198.483293 
L 272.229984 194.980358 
L 290.252632 213.645184 
L 308.27528 234.864089 
L 326.347305 215.273808 
L 344.369952 208.409922 
L 362.3926 202.704046 
L 380.415248 278.98772 
L 398.487273 206.34626 
" clip-path="url(#p0b8d0453a9)" style="fill: none; stroke: #dcdcdc; stroke-width: 1.5; stroke-linecap: square"/>
   </g>
   <g id="line2d_19">
    <path d="M 73.832727 210.635279 
L 91.855375 163.130338 
L 109.9274 220.530199 
L 127.950048 193.950145 
L 145.972695 197.063017 
L 163.995343 192.803403 
L 182.067368 228.965719 
L 200.090016 183.450083 
L 218.112664 260.930488 
L 236.135311 212.978625 
L 254.207336 172.24361 
L 272.229984 222.215679 
L 290.252632 251.386735 
L 308.27528 232.564764 
L 326.347305 200.73106 
L 344.369952 214.749554 
L 362.3926 208.682737 
L 380.415248 253.232536 
L 398.487273 196.850625 
" clip-path="url(#p0b8d0453a9)" style="fill: none; stroke: #dcdcdc; stroke-width: 1.5; stroke-linecap: square"/>
   </g>
   <g id="line2d_20">
    <path d="M 73.832727 211.989314 
L 91.855375 209.987175 
L 109.9274 194.311045 
L 127.950048 227.025538 
L 145.972695 191.797886 
L 163.995343 192.281487 
L 182.067368 266.543043 
L 200.090016 169.686876 
L 218.112664 163.57976 
L 236.135311 229.893607 
L 254.207336 238.749565 
L 272.229984 217.746953 
L 290.252632 230.621274 
L 308.27528 233.351289 
L 326.347305 238.235964 
L 344.369952 229.609071 
L 362.3926 207.228585 
L 380.415248 224.078498 
L 398.487273 196.462587 
" clip-path="url(#p0b8d0453a9)" style="fill: none; stroke: #dcdcdc; stroke-width: 1.5; stroke-linecap: square"/>
   </g>
   <g id="line2d_21">
    <path d="M 73.832727 129.099127 
L 91.855375 183.536725 
L 109.9274 189.548543 
L 127.950048 174.206762 
L 145.972695 206.490019 
L 163.995343 189.132253 
L 182.067368 165.30763 
L 200.090016 104.382983 
L 218.112664 210.193941 
L 236.135311 181.107815 
L 254.207336 196.882589 
L 272.229984 190.710805 
L 290.252632 210.544619 
L 308.27528 228.739922 
L 326.347305 224.878647 
L 344.369952 224.680102 
L 362.3926 216.89496 
L 380.415248 238.305748 
L 398.487273 206.338468 
" clip-path="url(#p0b8d0453a9)" style="fill: none; stroke: #dcdcdc; stroke-width: 1.5; stroke-linecap: square"/>
   </g>
   <g id="line2d_22">
    <path d="M 73.832727 206.173736 
L 91.855375 192.008938 
L 109.9274 198.344249 
L 127.950048 194.048666 
L 145.972695 181.492563 
L 163.995343 193.54136 
L 182.067368 226.468793 
L 200.090016 180.95572 
L 218.112664 211.716406 
L 236.135311 208.900105 
L 254.207336 216.670365 
L 272.229984 208.273333 
L 290.252632 215.638806 
L 308.27528 194.708052 
L 326.347305 181.428888 
L 344.369952 191.210484 
L 362.3926 210.841486 
L 380.415248 207.334047 
L 398.487273 242.216157 
" clip-path="url(#p0b8d0453a9)" style="fill: none; stroke: #dcdcdc; stroke-width: 1.5; stroke-linecap: square"/>
   </g>
   <g id="line2d_23">
    <path d="M 73.832727 213.591357 
L 91.855375 217.958701 
L 109.9274 203.26741 
L 127.950048 184.563274 
L 145.972695 197.276522 
L 163.995343 174.492623 
L 182.067368 215.909096 
L 200.090016 193.186401 
L 218.112664 146.333273 
L 236.135311 216.21968 
L 254.207336 277.748385 
L 272.229984 202.59168 
L 290.252632 247.98999 
L 308.27528 229.302023 
L 326.347305 220.557401 
L 344.369952 202.803439 
L 362.3926 239.521075 
L 380.415248 221.959002 
L 398.487273 191.527442 
" clip-path="url(#p0b8d0453a9)" style="fill: none; stroke: #dcdcdc; stroke-width: 1.5; stroke-linecap: square"/>
   </g>
   <g id="line2d_24">
    <path d="M 73.832727 221.103525 
L 91.855375 155.943794 
L 109.9274 180.246082 
L 127.950048 196.067881 
L 145.972695 191.267298 
L 163.995343 221.383161 
L 182.067368 175.588368 
L 200.090016 178.708107 
L 218.112664 171.975737 
L 236.135311 205.257215 
L 254.207336 257.973288 
L 272.229984 290.701067 
L 290.252632 220.808418 
L 308.27528 237.004951 
L 326.347305 232.523364 
L 344.369952 213.769559 
L 362.3926 226.51957 
L 380.415248 239.667223 
L 398.487273 178.436415 
" clip-path="url(#p0b8d0453a9)" style="fill: none; stroke: #dcdcdc; stroke-width: 1.5; stroke-linecap: square"/>
   </g>
   <g id="line2d_25">
    <path d="M 73.832727 137.915866 
L 91.855375 160.819981 
L 109.9274 187.069111 
L 127.950048 209.590467 
L 145.972695 196.927072 
L 163.995343 198.878996 
L 182.067368 239.39107 
L 200.090016 195.344505 
L 218.112664 214.21134 
L 236.135311 189.235265 
L 254.207336 224.062065 
L 272.229984 230.166427 
L 290.252632 236.947715 
L 308.27528 225.519355 
L 326.347305 218.907384 
L 344.369952 210.803869 
L 362.3926 223.620501 
L 380.415248 212.641837 
L 398.487273 239.8102 
" clip-path="url(#p0b8d0453a9)" style="fill: none; stroke: #dcdcdc; stroke-width: 1.5; stroke-linecap: square"/>
   </g>
   <g id="line2d_26">
    <path d="M 73.832727 176.429511 
L 91.855375 183.448593 
L 109.9274 201.125602 
L 127.950048 194.275747 
L 145.972695 155.443176 
L 163.995343 197.906123 
L 182.067368 180.30097 
L 200.090016 103.360921 
L 218.112664 175.150463 
L 236.135311 174.323349 
L 254.207336 197.968222 
L 272.229984 202.627571 
L 290.252632 238.687166 
L 308.27528 223.130604 
L 326.347305 207.603636 
L 344.369952 171.761856 
L 362.3926 212.32233 
L 380.415248 225.422755 
L 398.487273 210.152453 
" clip-path="url(#p0b8d0453a9)" style="fill: none; stroke: #dcdcdc; stroke-width: 1.5; stroke-linecap: square"/>
   </g>
   <g id="line2d_27">
    <path d="M 73.832727 202.719441 
L 91.855375 192.70968 
L 109.9274 194.324632 
L 127.950048 206.685341 
L 145.972695 181.636505 
L 163.995343 202.845288 
L 182.067368 274.284635 
L 200.090016 153.54842 
L 218.112664 208.08991 
L 236.135311 218.600354 
L 254.207336 212.36378 
L 272.229984 230.495035 
L 290.252632 243.625533 
L 308.27528 227.179026 
L 326.347305 203.618878 
L 344.369952 209.56657 
L 362.3926 210.080463 
L 380.415248 226.993947 
L 398.487273 186.745664 
" clip-path="url(#p0b8d0453a9)" style="fill: none; stroke: #dcdcdc; stroke-width: 1.5; stroke-linecap: square"/>
   </g>
   <g id="line2d_28">
    <path d="M 73.832727 189.940594 
L 91.855375 189.418708 
L 109.9274 207.243502 
L 127.950048 191.568289 
L 145.972695 193.623717 
L 163.995343 198.575104 
L 182.067368 237.070837 
L 200.090016 193.692462 
L 218.112664 226.220742 
L 236.135311 261.10007 
L 254.207336 221.041598 
L 272.229984 224.10659 
L 290.252632 195.780278 
L 308.27528 219.523376 
L 326.347305 198.30671 
L 344.369952 228.025568 
L 362.3926 245.23744 
L 380.415248 230.753397 
L 398.487273 153.67696 
" clip-path="url(#p0b8d0453a9)" style="fill: none; stroke: #dcdcdc; stroke-width: 1.5; stroke-linecap: square"/>
   </g>
   <g id="line2d_29">
    <path d="M 73.832727 220.556036 
L 91.855375 197.962735 
L 109.9274 216.468025 
L 127.950048 206.300936 
L 145.972695 199.346245 
L 163.995343 211.440352 
L 182.067368 242.933281 
L 200.090016 189.10262 
L 218.112664 199.831227 
L 236.135311 214.620666 
L 254.207336 202.45914 
L 272.229984 228.876897 
L 290.252632 248.8347 
L 308.27528 247.072331 
L 326.347305 202.667785 
L 344.369952 209.624381 
L 362.3926 247.945973 
L 380.415248 225.651113 
L 398.487273 166.124822 
" clip-path="url(#p0b8d0453a9)" style="fill: none; stroke: #dcdcdc; stroke-width: 1.5; stroke-linecap: square"/>
   </g>
   <g id="line2d_30">
    <path d="M 73.832727 207.446861 
L 91.855375 171.601245 
L 109.9274 200.517538 
L 127.950048 205.970691 
L 145.972695 186.236431 
L 163.995343 190.024232 
L 182.067368 251.157878 
L 200.090016 176.361664 
L 218.112664 204.651908 
L 236.135311 224.886558 
L 254.207336 198.569928 
L 272.229984 234.371333 
L 290.252632 249.867101 
L 308.27528 231.289848 
L 326.347305 203.60654 
L 344.369952 208.696639 
L 362.3926 213.941837 
L 380.415248 234.591299 
L 398.487273 204.461981 
" clip-path="url(#p0b8d0453a9)" style="fill: none; stroke: #dcdcdc; stroke-width: 1.5; stroke-linecap: square"/>
   </g>
   <g id="line2d_31">
    <path d="M 73.832727 182.665414 
L 91.855375 177.089476 
L 109.9274 209.05827 
L 127.950048 218.501647 
L 145.972695 184.179107 
L 163.995343 193.547501 
L 182.067368 231.143555 
L 200.090016 176.255034 
L 218.112664 179.825565 
L 236.135311 221.593222 
L 254.207336 193.796786 
L 272.229984 247.344551 
L 290.252632 247.538721 
L 308.27528 226.694882 
L 326.347305 197.162654 
L 344.369952 213.833025 
L 362.3926 197.066419 
L 380.415248 224.944722 
L 398.487273 181.882063 
" clip-path="url(#p0b8d0453a9)" style="fill: none; stroke: #dcdcdc; stroke-width: 1.5; stroke-linecap: square"/>
   </g>
   <g id="line2d_32">
    <path d="M 73.832727 224.506651 
L 91.855375 165.692911 
L 109.9274 207.743247 
L 127.950048 211.957881 
L 145.972695 192.403673 
L 163.995343 213.833249 
L 182.067368 243.433466 
L 200.090016 189.979539 
L 218.112664 215.938853 
L 236.135311 216.080447 
L 254.207336 206.005009 
L 272.229984 223.195357 
L 290.252632 239.993013 
L 308.27528 224.519052 
L 326.347305 195.815841 
L 344.369952 194.342463 
L 362.3926 204.46729 
L 380.415248 236.31748 
L 398.487273 179.484781 
" clip-path="url(#p0b8d0453a9)" style="fill: none; stroke: #dcdcdc; stroke-width: 1.5; stroke-linecap: square"/>
   </g>
   <g id="line2d_33">
    <path d="M 73.832727 204.771776 
L 91.855375 180.843632 
L 109.9274 227.760764 
L 127.950048 220.59071 
L 145.972695 188.007728 
L 163.995343 195.51709 
L 182.067368 254.152262 
L 200.090016 181.493924 
L 218.112664 202.177907 
L 236.135311 232.113448 
L 254.207336 183.526565 
L 272.229984 231.418754 
L 290.252632 260.225549 
L 308.27528 229.40018 
L 326.347305 213.031677 
L 344.369952 195.039948 
L 362.3926 209.720323 
L 380.415248 236.4996 
L 398.487273 175.462263 
" clip-path="url(#p0b8d0453a9)" style="fill: none; stroke: #dcdcdc; stroke-width: 1.5; stroke-linecap: square"/>
   </g>
   <g id="line2d_34">
    <path d="M 73.832727 159.498198 
L 91.855375 197.93794 
L 109.9274 177.509738 
L 127.950048 205.337071 
L 145.972695 181.0633 
L 163.995343 157.453216 
L 182.067368 208.18973 
L 200.090016 157.348529 
L 218.112664 190.691837 
L 236.135311 202.561015 
L 254.207336 170.181502 
L 272.229984 207.523313 
L 290.252632 206.647278 
L 308.27528 218.172251 
L 326.347305 196.843168 
L 344.369952 165.76572 
L 362.3926 208.46755 
L 380.415248 203.118258 
L 398.487273 208.387192 
" clip-path="url(#p0b8d0453a9)" style="fill: none; stroke: #dcdcdc; stroke-width: 1.5; stroke-linecap: square"/>
   </g>
   <g id="line2d_35">
    <path d="M 73.832727 198.079675 
L 91.855375 123.672805 
L 109.9274 200.177433 
L 127.950048 180.254853 
L 145.972695 179.8789 
L 163.995343 191.471152 
L 182.067368 252.41727 
L 200.090016 185.52852 
L 218.112664 177.995178 
L 236.135311 196.398933 
L 254.207336 241.399605 
L 272.229984 166.644219 
L 290.252632 183.063675 
L 308.27528 211.843036 
L 326.347305 224.871441 
L 344.369952 197.653114 
L 362.3926 228.312465 
L 380.415248 236.940751 
L 398.487273 189.95776 
" clip-path="url(#p0b8d0453a9)" style="fill: none; stroke: #dcdcdc; stroke-width: 1.5; stroke-linecap: square"/>
   </g>
   <g id="line2d_36">
    <path d="M 73.832727 176.097049 
L 91.855375 160.471859 
L 109.9274 180.269827 
L 127.950048 188.658552 
L 145.972695 158.423966 
L 163.995343 210.154044 
L 182.067368 176.145203 
L 200.090016 219.926113 
L 218.112664 224.895466 
L 236.135311 187.837246 
L 254.207336 207.44257 
L 272.229984 206.711391 
L 290.252632 210.319364 
L 308.27528 214.405406 
L 326.347305 192.242245 
L 344.369952 195.619655 
L 362.3926 215.508853 
L 380.415248 245.033715 
L 398.487273 230.004778 
" clip-path="url(#p0b8d0453a9)" style="fill: none; stroke: #dcdcdc; stroke-width: 1.5; stroke-linecap: square"/>
   </g>
   <g id="line2d_37">
    <path d="M 73.832727 157.741475 
L 91.855375 179.112429 
L 109.9274 197.505979 
L 127.950048 206.758747 
L 145.972695 192.783438 
L 163.995343 182.572511 
L 182.067368 219.399656 
L 200.090016 164.40496 
L 218.112664 186.664509 
L 236.135311 212.830025 
L 254.207336 187.324146 
L 272.229984 192.036315 
L 290.252632 206.177523 
L 308.27528 223.252144 
L 326.347305 194.683291 
L 344.369952 226.490521 
L 362.3926 195.849571 
L 380.415248 207.854794 
L 398.487273 238.557106 
" clip-path="url(#p0b8d0453a9)" style="fill: none; stroke: #dcdcdc; stroke-width: 1.5; stroke-linecap: square"/>
   </g>
   <g id="line2d_38">
    <path d="M 73.832727 245.365632 
L 91.855375 218.216131 
L 109.9274 179.607231 
L 127.950048 135.945499 
L 145.972695 172.295506 
L 163.995343 171.881005 
L 182.067368 224.318849 
L 200.090016 189.081851 
L 218.112664 179.472222 
L 236.135311 210.625073 
L 254.207336 181.612438 
L 272.229984 230.960999 
L 290.252632 223.573348 
L 308.27528 235.386093 
L 326.347305 241.956581 
L 344.369952 195.971759 
L 362.3926 193.264586 
L 380.415248 216.169991 
L 398.487273 180.075252 
" clip-path="url(#p0b8d0453a9)" style="fill: none; stroke: #dcdcdc; stroke-width: 1.5; stroke-linecap: square"/>
   </g>
   <g id="line2d_39">
    <path d="M 73.832727 201.318009 
L 91.855375 176.761005 
L 109.9274 202.910956 
L 127.950048 206.7688 
L 145.972695 188.006463 
L 163.995343 195.621069 
L 182.067368 246.90124 
L 200.090016 176.351093 
L 218.112664 202.893833 
L 236.135311 220.578679 
L 254.207336 199.964947 
L 272.229984 229.403538 
L 290.252632 243.920485 
L 308.27528 229.709341 
L 326.347305 202.655438 
L 344.369952 206.160185 
L 362.3926 213.112742 
L 380.415248 229.325096 
L 398.487273 197.042971 
" clip-path="url(#p0b8d0453a9)" style="fill: none; stroke: #dcdcdc; stroke-width: 1.5; stroke-linecap: square"/>
   </g>
   <g id="line2d_40">
    <path d="M 73.832727 183.514323 
L 91.855375 152.430705 
L 109.9274 164.655123 
L 127.950048 208.993288 
L 145.972695 178.250479 
L 163.995343 197.529227 
L 182.067368 255.417378 
L 200.090016 151.697799 
L 218.112664 175.56992 
L 236.135311 223.559275 
L 254.207336 189.670487 
L 272.229984 229.022434 
L 290.252632 257.08697 
L 308.27528 257.021742 
L 326.347305 168.550873 
L 344.369952 177.655545 
L 362.3926 206.418399 
L 380.415248 205.358117 
L 398.487273 185.762761 
" clip-path="url(#p0b8d0453a9)" style="fill: none; stroke: #dcdcdc; stroke-width: 1.5; stroke-linecap: square"/>
   </g>
   <g id="line2d_41">
    <path d="M 73.832727 205.310627 
L 91.855375 184.382483 
L 109.9274 216.627336 
L 127.950048 220.232174 
L 145.972695 221.650942 
L 163.995343 184.860037 
L 182.067368 178.318588 
L 200.090016 251.921072 
L 218.112664 227.518312 
L 236.135311 207.840314 
L 254.207336 181.973097 
L 272.229984 199.051628 
L 290.252632 180.096268 
L 308.27528 201.624476 
L 326.347305 217.893932 
L 344.369952 236.368886 
L 362.3926 206.432072 
L 380.415248 262.044756 
L 398.487273 178.234816 
" clip-path="url(#p0b8d0453a9)" style="fill: none; stroke: #dcdcdc; stroke-width: 1.5; stroke-linecap: square"/>
   </g>
   <g id="line2d_42">
    <path d="M 73.832727 185.355438 
L 91.855375 187.819732 
L 109.9274 213.915903 
L 127.950048 166.936663 
L 145.972695 228.839872 
L 163.995343 205.585615 
L 182.067368 246.536468 
L 200.090016 199.657042 
L 218.112664 216.464473 
L 236.135311 218.759182 
L 254.207336 217.681619 
L 272.229984 213.95323 
L 290.252632 224.613464 
L 308.27528 230.915397 
L 326.347305 220.688543 
L 344.369952 241.997877 
L 362.3926 186.744388 
L 380.415248 239.993661 
L 398.487273 205.191795 
" clip-path="url(#p0b8d0453a9)" style="fill: none; stroke: #dcdcdc; stroke-width: 1.5; stroke-linecap: square"/>
   </g>
   <g id="line2d_43">
    <path d="M 73.832727 193.689962 
L 91.855375 136.672138 
L 109.9274 64.883431 
L 127.950048 213.303575 
L 145.972695 280.149454 
L 163.995343 206.432986 
L 182.067368 227.721109 
L 200.090016 180.760008 
L 218.112664 229.055273 
L 236.135311 176.02441 
L 254.207336 245.970185 
L 272.229984 205.19938 
L 290.252632 214.821587 
L 308.27528 192.161455 
L 326.347305 194.212131 
L 344.369952 242.557078 
L 362.3926 194.358564 
L 380.415248 160.537637 
L 398.487273 295.488 
" clip-path="url(#p0b8d0453a9)" style="fill: none; stroke: #dcdcdc; stroke-width: 1.5; stroke-linecap: square"/>
   </g>
   <g id="line2d_44">
    <path d="M 73.832727 102.726414 
L 91.855375 150.204984 
L 109.9274 199.710739 
L 127.950048 195.167616 
L 145.972695 225.926907 
L 163.995343 149.386657 
L 182.067368 130.881684 
L 200.090016 53.568 
L 218.112664 219.584194 
L 236.135311 172.564352 
L 254.207336 191.553804 
L 272.229984 174.738392 
L 290.252632 201.459348 
L 308.27528 204.362588 
L 326.347305 235.141234 
L 344.369952 253.744994 
L 362.3926 193.553886 
L 380.415248 236.310337 
L 398.487273 206.231847 
" clip-path="url(#p0b8d0453a9)" style="fill: none; stroke: #dcdcdc; stroke-width: 1.5; stroke-linecap: square"/>
   </g>
   <g id="line2d_45">
    <path d="M 91.855375 211.662265 
L 109.9274 206.910565 
L 127.950048 207.371736 
L 145.972695 205.695844 
L 163.995343 217.906626 
L 182.067368 214.492084 
L 200.090016 210.622376 
L 218.112664 201.184838 
L 236.135311 205.637011 
L 254.207336 215.318901 
L 272.229984 226.723579 
L 290.252632 241.594643 
L 308.27528 232.858272 
L 326.347305 219.788166 
L 344.369952 220.079379 
L 362.3926 227.740489 
L 380.415248 213.240636 
" clip-path="url(#p0b8d0453a9)" style="fill: none; stroke: #008080; stroke-width: 1.5; stroke-linecap: square"/>
   </g>
   <g id="line2d_46">
    <path d="M 91.855375 193.663324 
L 109.9274 195.480254 
L 127.950048 199.228739 
L 145.972695 196.798777 
L 163.995343 210.176257 
L 182.067368 206.291134 
L 200.090016 208.715389 
L 218.112664 199.941202 
L 236.135311 207.812487 
L 254.207336 216.649055 
L 272.229984 224.429657 
L 290.252632 234.344455 
L 308.27528 225.428421 
L 326.347305 212.841655 
L 344.369952 207.309455 
L 362.3926 216.199341 
L 380.415248 213.16027 
" clip-path="url(#p0b8d0453a9)" style="fill: none; stroke: #ffd700; stroke-width: 1.5; stroke-linecap: square"/>
   </g>
   <g id="line2d_47">
    <path d="M 91.855375 185.413782 
L 109.9274 189.484319 
L 127.950048 195.322727 
L 145.972695 195.351384 
L 163.995343 202.089273 
L 182.067368 195.663106 
L 200.090016 196.646032 
L 218.112664 191.693907 
L 236.135311 202.593302 
L 254.207336 208.583456 
L 272.229984 215.716095 
L 290.252632 221.535328 
L 308.27528 219.757653 
L 326.347305 214.235596 
L 344.369952 210.241034 
L 362.3926 216.564312 
L 380.415248 213.974403 
" clip-path="url(#p0b8d0453a9)" style="fill: none; stroke-dasharray: 5.55,2.4; stroke-dashoffset: 0; stroke: #dc143c; stroke-width: 1.5"/>
   </g>
   <g id="patch_3">
    <path d="M 57.6 307.584 
L 57.6 41.472 
" style="fill: none; stroke: #000000; stroke-width: 0.8; stroke-linejoin: miter; stroke-linecap: square"/>
   </g>
   <g id="patch_4">
    <path d="M 414.72 307.584 
L 414.72 41.472 
" style="fill: none; stroke: #000000; stroke-width: 0.8; stroke-linejoin: miter; stroke-linecap: square"/>
   </g>
   <g id="patch_5">
    <path d="M 57.6 307.584 
L 414.72 307.584 
" style="fill: none; stroke: #000000; stroke-width: 0.8; stroke-linejoin: miter; stroke-linecap: square"/>
   </g>
   <g id="patch_6">
    <path d="M 57.6 41.472 
L 414.72 41.472 
" style="fill: none; stroke: #000000; stroke-width: 0.8; stroke-linejoin: miter; stroke-linecap: square"/>
   </g>
   <g id="text_19">
    <!-- Média Móvel (3 anos) da Taxa de Crescimento da Ind. de Transformação -->
    <g transform="translate(19.955625 35.472) scale(0.12 -0.12)">
     <defs>
      <path id="DejaVuSans-4d" d="M 628 4666 
L 1569 4666 
L 2759 1491 
L 3956 4666 
L 4897 4666 
L 4897 0 
L 4281 0 
L 4281 4097 
L 3078 897 
L 2444 897 
L 1241 4097 
L 1241 0 
L 628 0 
L 628 4666 
z
" transform="scale(0.015625)"/>
      <path id="DejaVuSans-e9" d="M 3597 1894 
L 3597 1613 
L 953 1613 
Q 991 1019 1311 708 
Q 1631 397 2203 397 
Q 2534 397 2845 478 
Q 3156 559 3463 722 
L 3463 178 
Q 3153 47 2828 -22 
Q 2503 -91 2169 -91 
Q 1331 -91 842 396 
Q 353 884 353 1716 
Q 353 2575 817 3079 
Q 1281 3584 2069 3584 
Q 2775 3584 3186 3129 
Q 3597 2675 3597 1894 
z
M 3022 2063 
Q 3016 2534 2758 2815 
Q 2500 3097 2075 3097 
Q 1594 3097 1305 2825 
Q 1016 2553 972 2059 
L 3022 2063 
z
M 2466 5119 
L 3088 5119 
L 2070 3944 
L 1591 3944 
L 2466 5119 
z
" transform="scale(0.015625)"/>
      <path id="DejaVuSans-64" d="M 2906 2969 
L 2906 4863 
L 3481 4863 
L 3481 0 
L 2906 0 
L 2906 525 
Q 2725 213 2448 61 
Q 2172 -91 1784 -91 
Q 1150 -91 751 415 
Q 353 922 353 1747 
Q 353 2572 751 3078 
Q 1150 3584 1784 3584 
Q 2172 3584 2448 3432 
Q 2725 3281 2906 2969 
z
M 947 1747 
Q 947 1113 1208 752 
Q 1469 391 1925 391 
Q 2381 391 2643 752 
Q 2906 1113 2906 1747 
Q 2906 2381 2643 2742 
Q 2381 3103 1925 3103 
Q 1469 3103 1208 2742 
Q 947 2381 947 1747 
z
" transform="scale(0.015625)"/>
      <path id="DejaVuSans-f3" d="M 1959 3097 
Q 1497 3097 1228 2736 
Q 959 2375 959 1747 
Q 959 1119 1226 758 
Q 1494 397 1959 397 
Q 2419 397 2687 759 
Q 2956 1122 2956 1747 
Q 2956 2369 2687 2733 
Q 2419 3097 1959 3097 
z
M 1959 3584 
Q 2709 3584 3137 3096 
Q 3566 2609 3566 1747 
Q 3566 888 3137 398 
Q 2709 -91 1959 -91 
Q 1206 -91 779 398 
Q 353 888 353 1747 
Q 353 2609 779 3096 
Q 1206 3584 1959 3584 
z
M 2394 5119 
L 3016 5119 
L 1998 3944 
L 1519 3944 
L 2394 5119 
z
" transform="scale(0.015625)"/>
      <path id="DejaVuSans-76" d="M 191 3500 
L 800 3500 
L 1894 563 
L 2988 3500 
L 3597 3500 
L 2284 0 
L 1503 0 
L 191 3500 
z
" transform="scale(0.015625)"/>
      <path id="DejaVuSans-28" d="M 1984 4856 
Q 1566 4138 1362 3434 
Q 1159 2731 1159 2009 
Q 1159 1288 1364 580 
Q 1569 -128 1984 -844 
L 1484 -844 
Q 1016 -109 783 600 
Q 550 1309 550 2009 
Q 550 2706 781 3412 
Q 1013 4119 1484 4856 
L 1984 4856 
z
" transform="scale(0.015625)"/>
      <path id="DejaVuSans-29" d="M 513 4856 
L 1013 4856 
Q 1481 4119 1714 3412 
Q 1947 2706 1947 2009 
Q 1947 1309 1714 600 
Q 1481 -109 1013 -844 
L 513 -844 
Q 928 -128 1133 580 
Q 1338 1288 1338 2009 
Q 1338 2731 1133 3434 
Q 928 4138 513 4856 
z
" transform="scale(0.015625)"/>
      <path id="DejaVuSans-54" d="M -19 4666 
L 3928 4666 
L 3928 4134 
L 2272 4134 
L 2272 0 
L 1638 0 
L 1638 4134 
L -19 4134 
L -19 4666 
z
" transform="scale(0.015625)"/>
      <path id="DejaVuSans-78" d="M 3513 3500 
L 2247 1797 
L 3578 0 
L 2900 0 
L 1881 1375 
L 863 0 
L 184 0 
L 1544 1831 
L 300 3500 
L 978 3500 
L 1906 2253 
L 2834 3500 
L 3513 3500 
z
" transform="scale(0.015625)"/>
      <path id="DejaVuSans-49" d="M 628 4666 
L 1259 4666 
L 1259 0 
L 628 0 
L 628 4666 
z
" transform="scale(0.015625)"/>
      <path id="DejaVuSans-66" d="M 2375 4863 
L 2375 4384 
L 1825 4384 
Q 1516 4384 1395 4259 
Q 1275 4134 1275 3809 
L 1275 3500 
L 2222 3500 
L 2222 3053 
L 1275 3053 
L 1275 0 
L 697 0 
L 697 3053 
L 147 3053 
L 147 3500 
L 697 3500 
L 697 3744 
Q 697 4328 969 4595 
Q 1241 4863 1831 4863 
L 2375 4863 
z
" transform="scale(0.015625)"/>
      <path id="DejaVuSans-e7" d="M 3122 3366 
L 3122 2828 
Q 2878 2963 2633 3030 
Q 2388 3097 2138 3097 
Q 1578 3097 1268 2742 
Q 959 2388 959 1747 
Q 959 1106 1268 751 
Q 1578 397 2138 397 
Q 2388 397 2633 464 
Q 2878 531 3122 666 
L 3122 134 
Q 2881 22 2623 -34 
Q 2366 -91 2075 -91 
Q 1284 -91 818 406 
Q 353 903 353 1747 
Q 353 2603 823 3093 
Q 1294 3584 2113 3584 
Q 2378 3584 2631 3529 
Q 2884 3475 3122 3366 
z
M 2311 0 
Q 2482 -194 2566 -358 
Q 2651 -522 2651 -672 
Q 2651 -950 2463 -1092 
Q 2276 -1234 1907 -1234 
Q 1764 -1234 1628 -1215 
Q 1492 -1197 1357 -1159 
L 1357 -750 
Q 1464 -803 1579 -826 
Q 1695 -850 1842 -850 
Q 2026 -850 2120 -775 
Q 2214 -700 2214 -556 
Q 2214 -463 2146 -327 
Q 2079 -191 1939 0 
L 2311 0 
z
" transform="scale(0.015625)"/>
      <path id="DejaVuSans-e3" d="M 2194 1759 
Q 1497 1759 1228 1600 
Q 959 1441 959 1056 
Q 959 750 1161 570 
Q 1363 391 1709 391 
Q 2188 391 2477 730 
Q 2766 1069 2766 1631 
L 2766 1759 
L 2194 1759 
z
M 3341 1997 
L 3341 0 
L 2766 0 
L 2766 531 
Q 2569 213 2275 61 
Q 1981 -91 1556 -91 
Q 1019 -91 701 211 
Q 384 513 384 1019 
Q 384 1609 779 1909 
Q 1175 2209 1959 2209 
L 2766 2209 
L 2766 2266 
Q 2766 2663 2505 2880 
Q 2244 3097 1772 3097 
Q 1472 3097 1187 3025 
Q 903 2953 641 2809 
L 641 3341 
Q 956 3463 1253 3523 
Q 1550 3584 1831 3584 
Q 2591 3584 2966 3190 
Q 3341 2797 3341 1997 
z
M 1844 4281 
L 1665 4453 
Q 1597 4516 1545 4545 
Q 1494 4575 1453 4575 
Q 1334 4575 1278 4461 
Q 1222 4347 1215 4091 
L 825 4091 
Q 831 4513 990 4742 
Q 1150 4972 1434 4972 
Q 1553 4972 1653 4928 
Q 1753 4884 1869 4781 
L 2047 4609 
Q 2115 4547 2167 4517 
Q 2219 4488 2259 4488 
Q 2378 4488 2434 4602 
Q 2490 4716 2497 4972 
L 2887 4972 
Q 2881 4550 2721 4320 
Q 2562 4091 2278 4091 
Q 2159 4091 2059 4134 
Q 1959 4178 1844 4281 
z
" transform="scale(0.015625)"/>
     </defs>
     <use xlink:href="#DejaVuSans-4d"/>
     <use xlink:href="#DejaVuSans-e9" x="86.279297"/>
     <use xlink:href="#DejaVuSans-64" x="147.802734"/>
     <use xlink:href="#DejaVuSans-69" x="211.279297"/>
     <use xlink:href="#DejaVuSans-61" x="239.0625"/>
     <use xlink:href="#DejaVuSans-20" x="300.341797"/>
     <use xlink:href="#DejaVuSans-4d" x="332.128906"/>
     <use xlink:href="#DejaVuSans-f3" x="418.408203"/>
     <use xlink:href="#DejaVuSans-76" x="479.589844"/>
     <use xlink:href="#DejaVuSans-65" x="538.769531"/>
     <use xlink:href="#DejaVuSans-6c" x="600.292969"/>
     <use xlink:href="#DejaVuSans-20" x="628.076172"/>
     <use xlink:href="#DejaVuSans-28" x="659.863281"/>
     <use xlink:href="#DejaVuSans-33" x="698.876953"/>
     <use xlink:href="#DejaVuSans-20" x="762.5"/>
     <use xlink:href="#DejaVuSans-61" x="794.287109"/>
     <use xlink:href="#DejaVuSans-6e" x="855.566406"/>
     <use xlink:href="#DejaVuSans-6f" x="918.945312"/>
     <use xlink:href="#DejaVuSans-73" x="980.126953"/>
     <use xlink:href="#DejaVuSans-29" x="1032.226562"/>
     <use xlink:href="#DejaVuSans-20" x="1071.240234"/>
     <use xlink:href="#DejaVuSans-64" x="1103.027344"/>
     <use xlink:href="#DejaVuSans-61" x="1166.503906"/>
     <use xlink:href="#DejaVuSans-20" x="1227.783203"/>
     <use xlink:href="#DejaVuSans-54" x="1259.570312"/>
     <use xlink:href="#DejaVuSans-61" x="1304.154297"/>
     <use xlink:href="#DejaVuSans-78" x="1365.433594"/>
     <use xlink:href="#DejaVuSans-61" x="1424.613281"/>
     <use xlink:href="#DejaVuSans-20" x="1485.892578"/>
     <use xlink:href="#DejaVuSans-64" x="1517.679688"/>
     <use xlink:href="#DejaVuSans-65" x="1581.15625"/>
     <use xlink:href="#DejaVuSans-20" x="1642.679688"/>
     <use xlink:href="#DejaVuSans-43" x="1674.466797"/>
     <use xlink:href="#DejaVuSans-72" x="1744.291016"/>
     <use xlink:href="#DejaVuSans-65" x="1783.154297"/>
     <use xlink:href="#DejaVuSans-73" x="1844.677734"/>
     <use xlink:href="#DejaVuSans-63" x="1896.777344"/>
     <use xlink:href="#DejaVuSans-69" x="1951.757812"/>
     <use xlink:href="#DejaVuSans-6d" x="1979.541016"/>
     <use xlink:href="#DejaVuSans-65" x="2076.953125"/>
     <use xlink:href="#DejaVuSans-6e" x="2138.476562"/>
     <use xlink:href="#DejaVuSans-74" x="2201.855469"/>
     <use xlink:href="#DejaVuSans-6f" x="2241.064453"/>
     <use xlink:href="#DejaVuSans-20" x="2302.246094"/>
     <use xlink:href="#DejaVuSans-64" x="2334.033203"/>
     <use xlink:href="#DejaVuSans-61" x="2397.509766"/>
     <use xlink:href="#DejaVuSans-20" x="2458.789062"/>
     <use xlink:href="#DejaVuSans-49" x="2490.576172"/>
     <use xlink:href="#DejaVuSans-6e" x="2520.068359"/>
     <use xlink:href="#DejaVuSans-64" x="2583.447266"/>
     <use xlink:href="#DejaVuSans-2e" x="2646.923828"/>
     <use xlink:href="#DejaVuSans-20" x="2678.710938"/>
     <use xlink:href="#DejaVuSans-64" x="2710.498047"/>
     <use xlink:href="#DejaVuSans-65" x="2773.974609"/>
     <use xlink:href="#DejaVuSans-20" x="2835.498047"/>
     <use xlink:href="#DejaVuSans-54" x="2867.285156"/>
     <use xlink:href="#DejaVuSans-72" x="2913.619141"/>
     <use xlink:href="#DejaVuSans-61" x="2954.732422"/>
     <use xlink:href="#DejaVuSans-6e" x="3016.011719"/>
     <use xlink:href="#DejaVuSans-73" x="3079.390625"/>
     <use xlink:href="#DejaVuSans-66" x="3131.490234"/>
     <use xlink:href="#DejaVuSans-6f" x="3166.695312"/>
     <use xlink:href="#DejaVuSans-72" x="3227.876953"/>
     <use xlink:href="#DejaVuSans-6d" x="3267.240234"/>
     <use xlink:href="#DejaVuSans-61" x="3364.652344"/>
     <use xlink:href="#DejaVuSans-e7" x="3425.931641"/>
     <use xlink:href="#DejaVuSans-e3" x="3480.912109"/>
     <use xlink:href="#DejaVuSans-6f" x="3542.191406"/>
    </g>
   </g>
   <g id="legend_1">
    <g id="patch_7">
     <path d="M 314.084063 93.506375 
L 407.72 93.506375 
Q 409.72 93.506375 409.72 91.506375 
L 409.72 48.472 
Q 409.72 46.472 407.72 46.472 
L 314.084063 46.472 
Q 312.084063 46.472 312.084063 48.472 
L 312.084063 91.506375 
Q 312.084063 93.506375 314.084063 93.506375 
z
" style="fill: #ffffff; opacity: 0.8; stroke: #cccccc; stroke-linejoin: miter"/>
    </g>
    <g id="line2d_48">
     <path d="M 316.084063 54.570438 
L 326.084063 54.570438 
L 336.084063 54.570438 
" style="fill: none; stroke: #008080; stroke-width: 1.5; stroke-linecap: square"/>
    </g>
    <g id="text_20">
     <!-- RJ -->
     <g transform="translate(344.084063 58.070438) scale(0.1 -0.1)">
      <defs>
       <path id="DejaVuSans-52" d="M 2841 2188 
Q 3044 2119 3236 1894 
Q 3428 1669 3622 1275 
L 4263 0 
L 3584 0 
L 2988 1197 
Q 2756 1666 2539 1819 
Q 2322 1972 1947 1972 
L 1259 1972 
L 1259 0 
L 628 0 
L 628 4666 
L 2053 4666 
Q 2853 4666 3247 4331 
Q 3641 3997 3641 3322 
Q 3641 2881 3436 2590 
Q 3231 2300 2841 2188 
z
M 1259 4147 
L 1259 2491 
L 2053 2491 
Q 2509 2491 2742 2702 
Q 2975 2913 2975 3322 
Q 2975 3731 2742 3939 
Q 2509 4147 2053 4147 
L 1259 4147 
z
" transform="scale(0.015625)"/>
       <path id="DejaVuSans-4a" d="M 628 4666 
L 1259 4666 
L 1259 325 
Q 1259 -519 939 -900 
Q 619 -1281 -91 -1281 
L -331 -1281 
L -331 -750 
L -134 -750 
Q 284 -750 456 -515 
Q 628 -281 628 325 
L 628 4666 
z
" transform="scale(0.015625)"/>
      </defs>
      <use xlink:href="#DejaVuSans-52"/>
      <use xlink:href="#DejaVuSans-4a" x="69.482422"/>
     </g>
    </g>
    <g id="line2d_49">
     <path d="M 316.084063 69.248563 
L 326.084063 69.248563 
L 336.084063 69.248563 
" style="fill: none; stroke: #ffd700; stroke-width: 1.5; stroke-linecap: square"/>
    </g>
    <g id="text_21">
     <!-- BR -->
     <g transform="translate(344.084063 72.748563) scale(0.1 -0.1)">
      <defs>
       <path id="DejaVuSans-42" d="M 1259 2228 
L 1259 519 
L 2272 519 
Q 2781 519 3026 730 
Q 3272 941 3272 1375 
Q 3272 1813 3026 2020 
Q 2781 2228 2272 2228 
L 1259 2228 
z
M 1259 4147 
L 1259 2741 
L 2194 2741 
Q 2656 2741 2882 2914 
Q 3109 3088 3109 3444 
Q 3109 3797 2882 3972 
Q 2656 4147 2194 4147 
L 1259 4147 
z
M 628 4666 
L 2241 4666 
Q 2963 4666 3353 4366 
Q 3744 4066 3744 3513 
Q 3744 3084 3544 2831 
Q 3344 2578 2956 2516 
Q 3422 2416 3680 2098 
Q 3938 1781 3938 1306 
Q 3938 681 3513 340 
Q 3088 0 2303 0 
L 628 0 
L 628 4666 
z
" transform="scale(0.015625)"/>
      </defs>
      <use xlink:href="#DejaVuSans-42"/>
      <use xlink:href="#DejaVuSans-52" x="68.603516"/>
     </g>
    </g>
    <g id="line2d_50">
     <path d="M 316.084063 83.926688 
L 326.084063 83.926688 
L 336.084063 83.926688 
" style="fill: none; stroke-dasharray: 5.55,2.4; stroke-dashoffset: 0; stroke: #dc143c; stroke-width: 1.5"/>
    </g>
    <g id="text_22">
     <!-- Média Anual -->
     <g transform="translate(344.084063 87.426688) scale(0.1 -0.1)">
      <defs>
       <path id="DejaVuSans-75" d="M 544 1381 
L 544 3500 
L 1119 3500 
L 1119 1403 
Q 1119 906 1312 657 
Q 1506 409 1894 409 
Q 2359 409 2629 706 
Q 2900 1003 2900 1516 
L 2900 3500 
L 3475 3500 
L 3475 0 
L 2900 0 
L 2900 538 
Q 2691 219 2414 64 
Q 2138 -91 1772 -91 
Q 1169 -91 856 284 
Q 544 659 544 1381 
z
M 1991 3584 
L 1991 3584 
z
" transform="scale(0.015625)"/>
      </defs>
      <use xlink:href="#DejaVuSans-4d"/>
      <use xlink:href="#DejaVuSans-e9" x="86.279297"/>
      <use xlink:href="#DejaVuSans-64" x="147.802734"/>
      <use xlink:href="#DejaVuSans-69" x="211.279297"/>
      <use xlink:href="#DejaVuSans-61" x="239.0625"/>
      <use xlink:href="#DejaVuSans-20" x="300.341797"/>
      <use xlink:href="#DejaVuSans-41" x="332.128906"/>
      <use xlink:href="#DejaVuSans-6e" x="400.537109"/>
      <use xlink:href="#DejaVuSans-75" x="463.916016"/>
      <use xlink:href="#DejaVuSans-61" x="527.294922"/>
      <use xlink:href="#DejaVuSans-6c" x="588.574219"/>
     </g>
    </g>
   </g>
  </g>
 </g>
 <defs>
  <clipPath id="p0b8d0453a9">
   <rect x="57.6" y="41.472" width="357.12" height="266.112"/>
  </clipPath>
 </defs>
</svg>
